/* XPM */
static char *bdd__[] = {
/* columns rows colors chars-per-pixel */
"26 26 164 2",
"   c #000500030002",
".  c #00CB003B0015",
"X  c #00B600850049",
"o  c #0000000000B8",
"O  c #015901340107",
"+  c #023801280000",
"@  c #01A4014600D1",
"#  c #02CA01A80048",
"$  c #02E002110115",
"%  c #02DF025301AC",
"&  c #03A502A20167",
"*  c #043D0430041E",
"=  c #05160468038E",
"-  c #064805630451",
";  c #072007120702",
":  c #07E006B20540",
">  c #079607860773",
",  c #0EEB0AC905BE",
"<  c #0921090D08F4",
"1  c #09CF09BE09AA",
"2  c #0C5D0C480C2F",
"3  c #110D0C550690",
"4  c #13D611750EEF",
"5  c #143311E60F86",
"6  c #1ED015F10B1F",
"7  c #1D311DF81EEC",
"8  c #209C173E0BCF",
"9  c #266F1BCA0ECC",
"0  c #28BA1D640F99",
"q  c #290B1D9E0FB5",
"w  c #343525BF1419",
"e  c #365D274E14EE",
"r  c #380B2883158D",
"t  c #389728EA15C9",
"y  c #392C295415FC",
"u  c #3B132AB516BE",
"i  c #1EA81F9920C0",
"p  c #1F101FE020DF",
"a  c #2251234E2483",
"s  c #2700271C272F",
"d  c #3B653B353AF9",
"f  c #45642F521462",
"g  c #4297302519A3",
"h  c #42CA304A19B6",
"j  c #48CF34A41C08",
"k  c #493B34F21C31",
"l  c #597B39D81375",
"z  c #5AD13ACA13E7",
"x  c #50D53A721F1F",
"c  c #43B0341E211F",
"v  c #4628369823B0",
"b  c #524A3B7F1FAE",
"n  c #53913C6E2032",
"m  c #53EC3CB02054",
"M  c #55CB3E172129",
"N  c #58A140252243",
"B  c #5BFC4282236A",
"V  c #5F2644CC24A2",
"C  c #63A8480D265D",
"Z  c #6A424CD328E8",
"A  c #6BFE4E142993",
"S  c #6DF24F7E2A54",
"D  c #73A351E228B1",
"F  c #6FF650F22B1A",
"G  c #743A523A28BC",
"H  c #744154092CB8",
"J  c #752B54AD2D07",
"K  c #762255652D71",
"L  c #7A8F589C2F2F",
"P  c #492248F248B9",
"I  c #49E749BE498D",
"U  c #4FF44FD24FA8",
"Y  c #5080508C509B",
"T  c #5156514C5141",
"R  c #567E55D6551E",
"E  c #599358F85853",
"W  c #63B2638A6359",
"Q  c #6F846F276EB3",
"!  c #7260721171AE",
"~  c #73C073A07379",
"^  c #714F75EB7B8B",
"/  c #73FF78A47E50",
"(  c #8CD965D53639",
")  c #8D6C66403672",
"_  c #96446C433921",
"`  c #97866D8D3A55",
"'  c #96CC6DEC3C0B",
"]  c #96ED6DFD3C07",
"[  c #98B56E693ACA",
"{  c #9C9771363C47",
"}  c #9E5E727F3CF6",
"|  c #A79876FF3BB1",
" . c #A14474983E15",
".. c #A32B75F83ED1",
"X. c #A81877883C44",
"o. c #AA097AF04176",
"O. c #AA5D7B2D4196",
"+. c #AF107DBB417A",
"@. c #AFDD7E374196",
"#. c #AFB07F0643A3",
"$. c #B0467F7343DC",
"%. c #B21E80C84492",
"&. c #B9C586904812",
"*. c #BC31884F48FF",
"=. c #C6B88FAC4C80",
"-. c #C91791644D6A",
";. c #C97A91AB4D90",
":. c #CAFE92C44E28",
">. c #CC9593EA4EC2",
",. c #CCEF942B4EE5",
"<. c #D04C96995030",
"1. c #D05796A25035",
"2. c #D21E97EA50E3",
"3. c #D257981450FA",
"4. c #D2FC988B5139",
"5. c #D38798F0516F",
"6. c #D3FE9945519C",
"7. c #D466999151C5",
"8. c #D4EB99F251FB",
"9. c #D5479A3B522C",
"0. c #D5D29A985251",
"q. c #D6569AF85284",
"w. c #D6BD9B4552B2",
"e. c #D7A49BE95304",
"r. c #DA249CCA51E8",
"t. c #D8C69CBB5374",
"y. c #D9809D4153BC",
"u. c #DAB29D575278",
"i. c #DA189DAF53F6",
"p. c #DA6F9DEE5417",
"a. c #DBBE9F50558F",
"s. c #DCE89FBB5512",
"d. c #DDFCA07F5576",
"f. c #DEA6A0FA55B7",
"g. c #DE66A1065623",
"h. c #DF16A1605612",
"j. c #E021A20C5649",
"k. c #E05EA2385660",
"l. c #E135A2D356B3",
"z. c #E16FA2FD56C9",
"x. c #E0F3A30A577D",
"c. c #E1D2A35F572B",
"v. c #E2D1A3FD5751",
"b. c #E354A45C5784",
"n. c #E398A4A057C2",
"m. c #E443A50857E0",
"M. c #E542A5BD5839",
"N. c #E5A2A6085869",
"B. c #E621A663589A",
"V. c #8627861385FC",
"C. c #8C798C368BE3",
"Z. c #8E778E3A8DEF",
"A. c #B122B328B5A1",
"S. c #B484B68BB90B",
"D. c #BC96BC8CBC80",
"F. c #D7BCD7ABD797",
"G. c #D9DFD9CDD9B7",
"H. c #DE6CDE2CDDDE",
"J. c #DEBDDE7FDE33",
"K. c #E0E7E07ADFF4",
"L. c #E1BFE158E0DA",
"P. c #EB5CEA6BE944",
"I. c #EB72EA83E95E",
"U. c #EEE5EEBEEE8D",
/* pixels */
"0.0.0.0.0.0.0.0.0.0.0.0.2.2.0.0.0.0.0.0.0.0.0.0.0.0.",
"0.0.0.0.0.0.0.0.0.0.0.0.b.m.0.0.0.0.0.0.0.0.0.0.0.0.",
"0.0.0.0.0.0.0.0.0.0.0.0.L L 0.0.0.0.0.0.0.0.0.0.0.0.",
"0.0.0.0.0.0.0.0.0.6.b.C . . C v.2.0.0.0.0.0.0.0.0.0.",
"0.0.0.0.0.0.0.0.6.6.k.h . . h v.6.0.0.0.0.0.0.0.0.0.",
"0.0.0.0.0.0.0.0.6.6.k.#.. & #.a.2.0.0.0.0.0.0.0.0.0.",
"0.0.0.0.0.0.0.0.6.6.B.H . . K B.6.6.0.0.0.0.0.0.0.0.",
"0.0.0.0.0.0.0.6.a.k.B . . . . V k.p.6.0.0.0.0.0.0.0.",
"0.0.0.0.0.0.6.p.-.e . - * * - . u -.a.0.0.0.0.0.0.0.",
"0.0.0.0.0.0.0.w.w . > . ~ ~ . - . e 0.0.0.0.0.0.0.0.",
"0.0.0.0.0.6.v.] . . > U D.D.T 1 . . { v.6.0.0.0.0.0.",
"0.0.0.0.6.6.B.Z . . 1 C.G.F.Z.2 . . S m.2.0.0.0.0.0.",
"0.0.0.0.0.6.m.S . * - . V.V.. - & . S B.2.0.0.0.0.0.",
"0.0.0.0.0.6.k.} . . . . ; ; . . . . ..v.6.0.0.0.0.0.",
"0.0.0.0.0.0.6.k.M . . I W W I . . N k.6.0.0.0.0.0.0.",
"0.0.0.0.0.0.6.0.k.D 7 L.J.J.L.p D k.0.0.0.0.0.0.0.0.",
"0.0.0.0.0.0.0.6.b.] . * . . * . ] v.1.0.0.0.0.0.0.0.",
"0.0.0.0.0.0.0.6.p.c A.P.U.U.P.S.c p.0.0.0.0.0.0.0.0.",
"0.0.0.6.6.6.6.a.| i ^ T d d T / a | s.1.0.5.5.0.0.0.",
"0.0.w.b.v.d.k.b.k.#.l 5 s s 4 l $.f.m.k.s.b.m.0.0.0.",
"6.0.<.( j e u M K ] f ! R E Q f ] K n u u j ( <.0.6.",
"6.k.o.. . . . . . . . . 0 0 . . . . . . . . . o.k.6.",
"0.6.k.x , e 9 3 . . . 8 &.*.6 . . . 3 9 u 3 x v.6.0.",
"0.6.a.,.-.k.0.=.%.] } 0.a.s.6.{ ] %.=.6.k.-.-.p.0.0.",
"0.0.0.0.p.6.0.p.k.v.k.0.6.6.0.k.v.s.p.0.6.w.w.0.0.0.",
"0.0.0.0.0.0.6.6.6.2.6.6.0.0.0.6.6.6.6.0.0.0.0.0.0.0."
};
