/* XPM */
static char *bdd__[] = {
/* columns rows colors chars-per-pixel */
"21 21 135 2",
"   c #000400020003",
".  c #015800CE0029",
"X  c #023101AB0106",
"o  c #02D5020C0117",
"O  c #033A02740346",
"+  c #03A003100267",
"@  c #03A5026B0325",
"#  c #0447044A044E",
"$  c #069306140579",
"%  c #0635060305C6",
"&  c #06B0063E05B2",
"*  c #0A850A010975",
"=  c #0CF80CA60C41",
"-  c #0ECC0E740E07",
";  c #140A0E6E0793",
":  c #15830F7E0824",
">  c #10D20FAE0E4A",
",  c #186B11DC09DB",
"<  c #1A7413590AAE",
"1  c #12B311831011",
"2  c #142013E7139B",
"3  c #25191AD30E49",
"4  c #279A1CA20F40",
"5  c #29A41E261020",
"6  c #2ABA1EEF108B",
"7  c #304C22D41263",
"8  c #32602452132B",
"9  c #3347251813CB",
"0  c #367327961571",
"q  c #397629C716A4",
"w  c #1DF31F2B20BD",
"e  c #1EC51FF92189",
"r  c #261925D82588",
"t  c #2753271926D3",
"y  c #368036553620",
"u  c #37B23792376B",
"i  c #438E32731DA6",
"p  c #451133B51E95",
"a  c #4A26359C1C8C",
"s  c #4AAD35FE1CC0",
"d  c #4DFB37691C9B",
"f  c #4D6F37FD1DD0",
"g  c #52EA398C1A96",
"h  c #530D39F01B4B",
"j  c #500F39E11ED1",
"k  c #47363764244D",
"l  c #496639BE26C4",
"z  c #56AB3EA42154",
"x  c #5CC4431223B7",
"c  c #647548A226AD",
"v  c #64DB48EB26D4",
"b  c #6E264FA42A67",
"n  c #6E9E4FFB2A96",
"m  c #75F5556B2DB6",
"M  c #763C559E2DD0",
"N  c #7C5C59EA2FE0",
"B  c #7D1F5A76302B",
"V  c #412041154116",
"C  c #427B423441E0",
"Z  c #437542E64233",
"A  c #590858E358B7",
"S  c #66AA671B67A5",
"D  c #673767A86832",
"F  c #6F636F3D6F10",
"G  c #718C715E7127",
"H  c #750A74FB74E8",
"J  c #760175F275DE",
"K  c #84395D7D2E37",
"L  c #85045E022E68",
"P  c #82285E2E3246",
"I  c #83DB5F6932EF",
"U  c #855D606C3358",
"Y  c #8CD0658B359E",
"T  c #8DEF665A360D",
"R  c #8CC167B33A78",
"E  c #8E4A68FE3B76",
"W  c #9DE672293CCA",
"Q  c #9FD473823D6C",
"!  c #A02473AD3D6A",
"~  c #A4B4760C3D36",
"^  c #A4DE77373F81",
"/  c #A5FC78053FEF",
"(  c #ABF67C544233",
")  c #AC377C83424D",
"_  c #B64983CB462D",
"`  c #B72A846E4684",
"'  c #C0E68B744A3C",
"]  c #C29C8CB14AE5",
"[  c #CC7893D54EB7",
"{  c #CDB894BC4F32",
"}  c #CFE696505009",
"|  c #D22197FB5105",
" . c #D259981550FA",
".. c #D2C398625123",
"X. c #D37598E35169",
"o. c #D41D995C51A9",
"O. c #D471999951CA",
"+. c #D7149A5A5039",
"@. c #D7889AD950C0",
"#. c #D4E699ED51F6",
"$. c #D5399A295216",
"%. c #D5D79A9B5253",
"&. c #D6769B0E5290",
"*. c #D7429BA252DF",
"=. c #D8039C2E5329",
"-. c #D8A59CA35367",
";. c #D9589D2453AC",
":. c #DBDE9EF754A4",
">. c #DCB59F9254F7",
",. c #DD66A013553C",
"<. c #DDC5A0585562",
"1. c #DEBAA10855BE",
"2. c #DF0AA14255DD",
"3. c #E020A20B5648",
"4. c #E11DA2C256AA",
"5. c #E169A2F956C7",
"6. c #E1FBA380573D",
"7. c #E2D8A399566C",
"8. c #E2C6A3F5574E",
"9. c #E377A4765792",
"0. c #E22EA400581F",
"q. c #E2A6A45A5854",
"w. c #E4ADA55A5813",
"e. c #E57FA5ED5859",
"r. c #E756A79159BE",
"t. c #E7A6A77C592E",
"y. c #A4DCAB95B3E7",
"u. c #A839AF15B783",
"i. c #B868B832B7F1",
"p. c #BB6BBAFDBA77",
"a. c #C000BFDFBFB6",
"s. c #C06AC04CC028",
"d. c #C83AC762C655",
"f. c #D663D657D647",
"g. c #D771D764D755",
/* pixels */
"%.%.%.%.%.%.%.%.%.X.%.%.%.%.%.%.%.%.%.%.%.",
"%.%.%.%.%.%.%.%.%.:.[ :.%.%.%.%.%.%.%.%.%.",
"%.%.%.%.%.%.%.%.3.b X b 3.X.%.%.%.%.%.%.%.",
"%.%.%.%.%.%.%.%.%.3 X 3 %.%.%.%.%.%.%.%.%.",
"%.%.%.%.%.%.%.} t.N X B t.| %.%.%.%.%.%.%.",
"%.%.%.%.%.%.X.5.` 4 X 5 ' 5.| %.%.%.%.%.%.",
"%.%.%.%.%.X.5.^ , X X X , / 5.X.%.%.%.%.%.",
"%.%.%.%.X.3.W X X # F # X X W 3.X.%.%.%.%.",
"%.%.%.%.%.:.9 X > J g.J > X q >.%.%.%.%.%.",
"%.%.%.%.%.[ , X = G g.G ; X , } %.%.%.%.%.",
"%.%.%.%.%.%.3 X X # A # X X 4 *.%.%.%.%.%.",
"%.%.%.%.X.9.P X # y u y # X I 0.| %.%.%.%.",
"%.%.%.%.%.%.5.K r s.p.s.t K 0.%.%.%.%.%.%.",
"%.%.%.%.%.%.5.^ w Z C Z w ^ 0.| %.%.%.%.%.",
"%.%.X.| | | +.k y.d.i.d.u.l %.| | | X.%.%.",
"%.X.3.t.5.w.5.R p * 2 * p E 5.w.5.t.3.%.%.",
"X.-.( c a z m W h D C D g W m z d c ) -.%.",
"X.3.a X X X X X X X d X X X X X X X a 3.X.",
"X.,._ x I b f 8 8 Y t.Y 7 9 f b P x ` ,.X.",
"%.%.-.t.9.t.9.:.3.5.X.5.:.:.t.q.t.5.-.%.%.",
"%.%.X.| | | X.%.X.X.%.| X.%.| | | | %.%.%."
};
