/* XPM */
static char *bdd__[] = {
/* columns rows colors chars-per-pixel */
"24 24 161 2",
"   c #000500020004",
".  c #008800620034",
"X  c #010100BA0063",
"o  c #010500FA00E6",
"O  c #018B015800F6",
"+  c #02C50213013B",
"@  c #0240024B025A",
"#  c #0290022E01B9",
"$  c #044001C90000",
"%  c #03B202AC016C",
"&  c #041D02FA0196",
"*  c #052B03BD01FD",
"=  c #06130460024D",
"-  c #05960487033B",
";  c #070D051902B7",
":  c #0479045A0435",
">  c #048B0468043C",
",  c #04C704B904A9",
"<  c #063F052303C9",
"1  c #08CF06650371",
"2  c #097A06DA03A6",
"3  c #0977076804E5",
"4  c #0A42076B03F4",
"5  c #0AB607C90437",
"6  c #09A30791050B",
"7  c #0D0209680502",
"8  c #0DA70A1005AE",
"9  c #0EE50AF2061F",
"0  c #161510560954",
"q  c #1794110008F6",
"w  c #193E1234099A",
"e  c #1936147C0EB8",
"r  c #1395139013AB",
"t  c #1434143B1454",
"y  c #1A7415B50FEA",
"u  c #1E3D1E3A1E35",
"i  c #1F7B1F761F71",
"p  c #29B81E120FDB",
"a  c #2B8E1F65108F",
"s  c #2E7E219E11E7",
"d  c #2F52223C1243",
"f  c #232620661D09",
"g  c #23BF21131DEB",
"h  c #2FFC22B11279",
"j  c #3283248C1381",
"k  c #229124602696",
"l  c #2381256227B5",
"z  c #2E912E582E0E",
"x  c #3A4E327C28F1",
"c  c #3C8434802AB7",
"v  c #37D137903742",
"b  c #4AB935A61BEE",
"n  c #4C7537641DD6",
"m  c #533F3C30200C",
"M  c #53EA3CAB204E",
"N  c #5E1545D5283F",
"B  c #6500490626E2",
"V  c #6001477E2996",
"C  c #69E04C7D28A0",
"Z  c #6B404D7C2928",
"A  c #747854382CDC",
"S  c #769A55C02DA9",
"D  c #76E555F62DC5",
"F  c #4989496F494E",
"G  c #50B04BA74584",
"H  c #526B4D9447AC",
"J  c #5F3B5F105EDB",
"K  c #60FE60DF60BB",
"L  c #621D61AF612A",
"P  c #631062AB622F",
"I  c #7D017CEF7CDB",
"U  c #81885C5B2F60",
"Y  c #83505D992FE8",
"T  c #901762E02BB1",
"R  c #915963C32C22",
"E  c #8C73658B3611",
"W  c #91E269793829",
"Q  c #92B66A13387B",
"!  c #99006E9E3AE7",
"~  c #992B6EBE3AF7",
"^  c #9FA8736A3D6D",
"/  c #A05A73EF3DBB",
"(  c #A20D752A3E63",
")  c #A87E79DD40F5",
"_  c #A8E27A1B4104",
"`  c #A9757A86413F",
"'  c #AA947B5B41BA",
"]  c #AC187C6C4240",
"[  c #ACD67C1440A1",
"{  c #AD1D7C4940CB",
"}  c #AC4A7C914254",
"|  c #ADFC7E3A43F1",
" . c #B12580854530",
".. c #B320818244F6",
"X. c #B3C681FA4535",
"o. c #B49F82964588",
"O. c #BCA487ED4797",
"+. c #BD16882E479E",
"@. c #BA5B86D747F8",
"#. c #BBED87DF4859",
"$. c #BD83890548F5",
"%. c #BE7D89BA4956",
"&. c #BFEB8AC249E2",
"*. c #C33D8D294B2A",
"=. c #C3A88D764B53",
"-. c #C6A48FA34C83",
";. c #C81D90AF4D0A",
":. c #C899910D4D43",
">. c #C910915F4D67",
",. c #CAF092BA4E21",
"<. c #D15C975E5099",
"1. c #D148976F50D6",
"2. c #D1F697D450E2",
"3. c #D2CC98685127",
"4. c #D38898F05170",
"5. c #D40A994E51A1",
"6. c #D478999D51CB",
"7. c #D4C399D351E8",
"8. c #D5369A265215",
"9. c #D5D89A9C5253",
"0. c #D8F49CDC5386",
"q. c #D9969D5153C4",
"w. c #DAA09D99531E",
"e. c #DA0E9DB85415",
"r. c #DA6C9DEC5416",
"t. c #DB1F9E6D545B",
"y. c #DB9C9EC8548B",
"u. c #DC509F4954D0",
"i. c #DCEB9FB9550C",
"p. c #DE22A09B5584",
"a. c #DEC6A11155C3",
"s. c #DEF1A13055D4",
"d. c #DF72A17055BC",
"f. c #DEE8A1435607",
"g. c #DFE5A1E15632",
"h. c #E133A2D256B2",
"j. c #E171A2FE56CA",
"k. c #E107A2D956F8",
"l. c #E186A31856E9",
"z. c #E156A333575F",
"x. c #E1EBA366571A",
"c. c #E2B7A3EB5748",
"v. c #E351A45B5783",
"b. c #E4DBA577581B",
"n. c #E5B1A611586D",
"m. c #86D786938640",
"M. c #89D289918942",
"N. c #8EF98ECE8E9A",
"B. c #98F199CF9ADF",
"V. c #99DB9ABE9BD3",
"C. c #A1D3A1C5A1B4",
"Z. c #A476A3FAA363",
"A. c #A4DAA45FA3C9",
"S. c #A47AAA02B0C2",
"D. c #A958AEE9B5D2",
"F. c #DAA0DA62DA17",
"G. c #DAEEDAAFDA63",
"H. c #DDDDDDCCDDB6",
"J. c #DFD5DFC2DFAA",
"K. c #F0A6F018EF6B",
"L. c #F0D0F045EF93",
/* pixels */
"9.9.9.9.9.9.9.9.9.9.9.2.2.9.9.9.9.9.9.9.9.9.9.9.",
"9.9.9.9.9.9.9.9.9.9.0.v.v.0.9.9.9.9.9.9.9.9.9.9.",
"9.9.9.9.9.9.9.9.9.0.,.m M ,.0.4.9.9.9.9.9.9.9.9.",
"9.9.9.9.9.9.9.9.2.b.B     B b.2.9.9.9.9.9.9.9.9.",
"9.9.9.9.9.9.9.9.4.j.S     S j.4.9.9.9.9.9.9.9.9.",
"9.9.9.9.9.9.9.9.2.a.,.3 5 ,.a.2.9.9.9.9.9.9.9.9.",
"9.9.9.9.9.9.9.2.j.-.a     a ;.j.2.9.9.9.9.9.9.9.",
"9.9.9.9.9.9.4.j.' 0   &     w ' j.2.9.9.9.9.9.9.",
"9.9.9.9.9.4.a./   &   F F     - ( a.4.9.9.9.9.9.",
"9.9.9.9.9.9.0.s   < u C.C.i <   j 0.9.9.9.9.9.9.",
"9.9.9.9.9.e.$.3     m.J.J.M.    5 *.e.9.9.9.9.9.",
"9.9.9.9.9.i.#.-   <   I I   <   3 $.e.4.9.9.9.9.",
"9.9.9.9.9.9.e.s       < :       h e.9.9.9.9.9.9.",
"9.9.9.9.9.4.a.) 9   L N.N.L   9 ' a.4.9.9.9.9.9.",
"9.9.9.9.9.9.4.j.$.e B.A.A.V.y $.j.4.9.9.9.9.9.9.",
"9.9.9.9.9.9.4.a.{ r z v v z t { a.4.9.9.9.9.9.9.",
"9.9.9.9.2.9.2.a.b S.L.F.F.L.D.n i.2.2.9.9.9.9.9.",
"9.9.9.e.j.j.j.0.N x 6 :   < c V 0.j.b.j.0.9.9.9.",
"9.9.e.=.~ Q / @.e.T F K L G T 0.O./ Q ~ =.i.4.9.",
"2.j.E         - 0 : l p k k & 0 &         E j.2.",
"9.e...1 - 9           Y Y           9 & 1 ..i.2.",
"9.4.a.) o.=.{ Q S Z ..z.z.| Z S Q [ *.o.' j.9.9.",
"9.9.9.a.i.e.a.j.b.b.a.4.4.a.b.b.j.a.0.i.i.9.9.9.",
"9.9.9.4.4.9.4.4.2.2.4.9.9.4.2.2.2.9.9.9.2.9.9.9."
};
