/* XPM */
static char *bdd__[] = {
/* columns rows colors chars-per-pixel */
"28 28 182 2",
"   c #000500040002",
".  c #011700BD0050",
"X  c #000000000098",
"o  c #014B012B0105",
"O  c #01D6015300B5",
"+  c #027601CB00F8",
"@  c #03B802B0016F",
"#  c #03EC02D60182",
"$  c #041103650293",
"%  c #04F8038D01D2",
"&  c #040303B50354",
"*  c #05BE0429023B",
"=  c #0726052B02C0",
"-  c #043904370433",
";  c #0573051B04B1",
":  c #08A806420355",
">  c #0B77083A0448",
",  c #0CCE094204EE",
"<  c #0E1B0A250550",
"1  c #0EE00AD105DD",
"2  c #000004330967",
"3  c #008504C909FD",
"4  c #0AF60AE70AD4",
"5  c #10AA0A970484",
"6  c #11620B2E04D1",
"7  c #0FAC0B4405E3",
"8  c #10F60C320662",
"9  c #10E50C4806A7",
"0  c #13510DF90772",
"q  c #14BD0EFF07FD",
"w  c #186311A20963",
"e  c #1B0B138D0A69",
"r  c #1C57147D0AE9",
"t  c #1F7C16C30C1F",
"y  c #16E015C11463",
"u  c #172D160F14B2",
"i  c #1681166A164E",
"p  c #1828181517FE",
"a  c #1996197B195B",
"s  c #1B4E1B371B1D",
"d  c #1E901E7C1E66",
"f  c #269B1BE90EDD",
"g  c #273F1C600F1C",
"h  c #2A3A1B860995",
"j  c #2A911BB40991",
"k  c #27F61CE40F63",
"l  c #28731D430F9D",
"z  c #29851E040FFC",
"x  c #2A591EF81115",
"c  c #2E1025381A6D",
"v  c #395829761614",
"b  c #3018273C1C6E",
"n  c #34B329371AFF",
"m  c #373D2B621CB8",
"M  c #3D9C2C8B17B8",
"N  c #25A3243D2289",
"B  c #2783264F24D8",
"V  c #2D6C2D462D19",
"C  c #2DFD2DDB2DB3",
"Z  c #373D38903A2E",
"A  c #3BD83BB23B84",
"S  c #3BEB3BC43B95",
"D  c #39843AE73C98",
"F  c #42A9303219AA",
"G  c #42F1306619C5",
"H  c #4C1E37081D4D",
"J  c #4E3A388F1E1E",
"K  c #50F33A871F2A",
"L  c #51753AE41F5C",
"P  c #54343CA42011",
"I  c #5FDB454E24E7",
"U  c #602945862505",
"Y  c #617E467D2588",
"T  c #61CA47842774",
"R  c #64B648D026C5",
"E  c #654E493E2700",
"W  c #6492498C2890",
"Q  c #67C14B0627F7",
"!  c #68E14BD72867",
"~  c #6D344EF42A0A",
"^  c #6E064F8C2A5B",
"/  c #70C24DAC22DB",
"(  c #72804EE72377",
")  c #7B9A551E262A",
"_  c #7C2755AD26B7",
"`  c #741453582B66",
"'  c #48584C60514D",
"]  c #4E9C52AF57C0",
"[  c #59FD59BD596E",
"{  c #5BE45B9B5B44",
"}  c #5DEA5E425EA9",
"|  c #60455F5A5E50",
" . c #607660E16160",
".. c #636062786172",
"X. c #6DBF6F387103",
"o. c #6F3670AE7278",
"O. c #7F8B7F4A7EFA",
"+. c #8B0B64883587",
"@. c #8D0565F5364A",
"#. c #8DCB66653654",
"$. c #8EA566E5366D",
"%. c #905B685F3793",
"&. c #9FEF73A23D92",
"*. c #A06B73FB3DC2",
"=. c #A547777F3FA1",
"-. c #A6EE78B14044",
";. c #A7607902406F",
":. c #A9DA7AD1416B",
">. c #AB477BD641F0",
",. c #AC9C7CCE4277",
"<. c #ADDA7DB242EE",
"1. c #B41682334554",
"2. c #B6B584194656",
"3. c #B8C385964721",
"4. c #BDFA8A094AA5",
"5. c #BFA58B414B52",
"6. c #804A80127FCC",
"7. c #C4C78E464BC1",
"8. c #C5328E934BEA",
"9. c #C7168FF04CA5",
"0. c #C8C891284D46",
"q. c #CABF92964E0D",
"w. c #CD5A94784F0E",
"e. c #CE39951A4F64",
"r. c #D08495D64E3A",
"t. c #D00D966D5019",
"y. c #D09496CE504C",
"u. c #D1389744508B",
"i. c #D171976D50A1",
"p. c #D23C980050EF",
"a. c #D30E98985140",
"s. c #D3A39903517A",
"d. c #D40B994F51A2",
"f. c #D4E899EF51F7",
"g. c #D5399A295216",
"h. c #D5D29A985251",
"j. c #D6729B0B528E",
"k. c #D6F79B6C52C2",
"l. c #D7549BAF52E6",
"z. c #D7A59BF75324",
"x. c #D7F39C49537B",
"c. c #D8E19CCE537E",
"v. c #D9729D3753B6",
"b. c #D9FD9DAE5414",
"n. c #DB529E92546F",
"m. c #DB809EB35481",
"M. c #DCA89F8954F2",
"N. c #DE1EA0995585",
"B. c #DF38A16455EF",
"V. c #DFA0A1AE5617",
"C. c #E0D2A28C568D",
"Z. c #E19CA31E56DB",
"A. c #E1DAA3555709",
"S. c #E2B0A3E55745",
"D. c #E345A451577F",
"F. c #E3D3A4B857B5",
"G. c #E44CA51057E4",
"H. c #E4DBA577581B",
"J. c #E5C2A61E5873",
"K. c #E612A6585892",
"L. c #E6BBA6B55895",
"P. c #E6F8A6FE58EB",
"I. c #E4FFA67B5A32",
"U. c #EC7AAB1F5B5D",
"Y. c #ECBCAB4E5B74",
"T. c #8A898A5C8A26",
"R. c #8C508C238BED",
"E. c #8EF48EDE8EC3",
"W. c #91439131911B",
"Q. c #99B1991B9863",
"!. c #AC0CABE6ABB8",
"~. c #B275B243B205",
"^. c #B2AAB277B239",
"/. c #C242C221C1F8",
"(. c #C2ACC28BC262",
"). c #CEC6CEB6CEA1",
"_. c #D0D2D0C1D0AD",
"`. c #D2B2D2AAD2A2",
"'. c #E925E9FAEAFF",
"]. c #EB8AEC68ED76",
"[. c #FEBAFEBCFEBF",
"{. c gray100",
/* pixels */
"h.h.h.h.h.h.h.h.h.h.h.h.h.s.s.h.h.h.h.h.h.h.h.h.h.h.h.h.",
"h.h.h.h.h.h.h.h.h.h.h.h.h.V.V.h.h.h.h.h.h.h.h.h.h.h.h.h.",
"h.h.h.h.h.h.h.h.h.h.h.h.n.&.&.n.h.h.h.h.h.h.h.h.h.h.h.h.",
"h.h.h.h.h.h.h.h.h.h.s.Z.^     ^ Z.s.h.h.h.h.h.h.h.h.h.h.",
"h.h.h.h.h.h.h.h.h.h.h.x.g     k n.s.h.h.h.h.h.h.h.h.h.h.",
"h.h.h.h.h.h.h.h.h.h.s.V.R     R M.s.h.h.h.h.h.h.h.h.h.h.",
"h.h.h.h.h.h.h.h.h.h.t.L.<.    <.L.t.h.h.h.h.h.h.h.h.h.h.",
"h.h.h.h.h.h.h.h.h.i.L.:.1     8 <.L.i.h.h.h.h.h.h.h.h.h.",
"h.h.h.h.h.h.h.h.s.L.+.;   2     : @.L.s.h.h.h.h.h.h.h.h.",
"h.h.h.h.h.h.h.h.V.Q   #   x d   &   Q V.s.h.h.h.h.h.h.h.",
"h.h.h.h.h.h.i.Z.+.  # ;   W.W.  ; #   %.S.s.h.h.h.h.h.h.",
"h.h.h.h.h.h.s.V.v     p R.`.`.R.s     v V.s.h.h.h.h.h.h.",
"h.h.h.h.h.h.h.e.e     u O._.).O.p     e i.h.h.h.h.h.h.h.",
"h.h.h.h.h.h.h.i.r     ;   E.E.  ;     f s.h.h.h.h.h.h.h.",
"h.h.h.h.h.h.s.Z.H   #     4 4     *   J S.i.h.h.h.h.h.h.",
"h.h.h.h.h.h.h.M.2.7   2 C S S C &   0 3.M.s.h.h.h.h.h.h.",
"h.h.h.h.h.h.h.h.V.4.h Z {.{.{.{.D h 5.V.s.h.h.h.h.h.h.h.",
"h.h.h.h.h.h.h.h.t.U.` 2 y     y 3 ` U.i.h.h.h.h.h.h.h.h.",
"h.h.h.h.h.h.h.h.h.i.c X.Q.!.!.Q.o.b r.h.h.h.h.h.h.h.h.h.",
"h.h.h.h.h.s.i.i.L.) ' './.~.~./.].] ) L.i.s.s.s.h.h.h.h.",
"h.h.h.s.n.V.V.n.S.@.n 7         8 n @.S.n.V.V.n.s.h.h.h.",
"h.h.c.Z.7.:.-.2.q.S.L./ ..| ..} ( L.S.q.1.;.:.7.G.h.h.h.",
"h.h.e.K 1       q l l   { B B [   l l 0 #     1 P w.h.h.",
"h.h.i.k                   P P   #               l i.h.h.",
"h.s.F.-.f Y I F l q # 1 Q h.x.T 1 * q l F I Y f -.S.i.h.",
"h.h.h.h.n.L.L.Z.c.q.2.q.L.h.h.G.9.2.q.n.Z.L.L.n.h.h.h.h.",
"h.h.h.h.h.i.i.s.h.h.M.c.i.h.h.s.n.M.n.s.s.i.i.h.h.h.h.h.",
"h.h.h.h.h.h.h.h.h.h.s.h.h.h.h.h.s.s.s.h.h.h.h.h.h.h.h.h."
};
