/* XPM */
static char *bdd__[] = {
/* columns rows colors chars-per-pixel */
"35 35 220 2",
"   c #000900060004",
".  c #0097006E003C",
"X  c #00FE00AF0052",
"o  c #00EF00CA009B",
"O  c #01A6015300ED",
"+  c #01FB019E012D",
"@  c #030302320135",
"#  c #02050209020D",
"$  c #02E0027B01FF",
"%  c #02F602AA024D",
"&  c #0336031802F1",
"*  c #042A02F4017A",
"=  c #040C02EE0190",
"-  c #04C5037301D6",
";  c #0434037B0298",
":  c #052803BB01FE",
">  c #048D03C802D7",
",  c #06000456024F",
"<  c #03EF03E603DC",
"1  c #058805640539",
"2  c #07B5059202F8",
"3  c #09FB073703D8",
"4  c #0EDE08F801C8",
"5  c #0B7A084C046C",
"6  c #0B310A8709B8",
"7  c #0B7E0B0C0A82",
"8  c #0BB80B680B07",
"9  c #0C870BF20B3D",
"0  c #0F240DEF0C77",
"q  c #112C0B4E0425",
"w  c #1A750F6301E1",
"e  c #10CD0F690DB7",
"r  c #1B8910140218",
"t  c #176710EB0902",
"y  c #190D113807A9",
"u  c #182A1179094E",
"i  c #192B123209B0",
"p  c #1B1113BC0ACA",
"a  c #1BAA14000AA6",
"s  c #1CD514E10B3A",
"d  c #1DF515A90B89",
"f  c #1E8B16150BC2",
"g  c #1F31168D0C02",
"h  c #1F7D16C40C1F",
"j  c #12D1121C113F",
"k  c #1AAA1A931A77",
"l  c #1ABA1AA31A87",
"z  c #1C191C001BE1",
"x  c #1E231D5F1C70",
"c  c #1DDA1DB81D90",
"v  c #1EE21E161D1C",
"b  c #314721940E6C",
"n  c #319021D40EA0",
"m  c #2A8F1FC31297",
"M  c #2E6D219111DF",
"N  c #2CDC21A813FD",
"B  c #3169240613B1",
"V  c #33DE258013F8",
"C  c #358026FD1549",
"Z  c #3792282D1564",
"A  c #382C289D15A0",
"S  c #387B28D615BE",
"D  c #392B29551602",
"F  c #39D829D21645",
"G  c #3C602BA7173E",
"H  c #3E402D0217F7",
"J  c #3ED72D6F1831",
"K  c #20DC20B62087",
"L  c #228C22652234",
"P  c #25D825AB2576",
"I  c #2913290E2908",
"U  c #2D202CE92CA6",
"Y  c #2DE12DB02D74",
"T  c #3340361F39A1",
"R  c #360938E53C63",
"E  c #3D133D113D0F",
"W  c #40542E8318C4",
"Q  c #418D2F65193C",
"!  c #41CC2F931955",
"~  c #43E631171A24",
"^  c #469333071B2B",
"/  c #47A633CE1B95",
"(  c #483434341BCC",
")  c #4A7235D31CA9",
"_  c #4CCB37851D90",
"`  c #4D2937CA1DB5",
"'  c #5C503F431BCF",
"]  c #65644A1128B8",
"[  c #67514B7B2982",
"{  c #6C694E6229BC",
"}  c #6D534F0B2A17",
"|  c #6F80509E2AED",
" . c #711851C52B8A",
".. c #71F952672BE0",
"X. c #738453852C79",
"o. c #7F7F5C2E3115",
"O. c #3FA63FB63FC9",
"+. c #4358432242DF",
"@. c #443C43F643A1",
"#. c #432646F14B92",
"$. c #489548674830",
"%. c #4C8B4C434BEB",
"&. c #49354CF1517F",
"*. c #6FB76F716F1C",
"=. c #70276F3D6E20",
"-. c #70EB70026EE6",
";. c #705170186FD2",
":. c #762E771E7843",
">. c #7BDB7CD17DFE",
",. c #80275CA73156",
"<. c #815C5D8131C0",
"1. c #83E15F6032D5",
"2. c #84495FA532ED",
"3. c #86B0616133DA",
"4. c #89E563B13511",
"5. c #8A3263E93530",
"6. c #8B9764ED35BD",
"7. c #8C8465983618",
"8. c #8EE867533704",
"9. c #8F5C67A73731",
"0. c #93506A8238B6",
"q. c #940E6B0B38FF",
"w. c #93616B623A93",
"e. c #93BD6BB23AD5",
"r. c #941A6B143904",
"t. c #9B9E70833BE9",
"y. c #9DC372103CBC",
"u. c #9FD2738D3D87",
"i. c #A21975423E89",
"p. c #A25975703EA1",
"a. c #A3FA768E3F21",
"s. c #A7B1793E408F",
"d. c #AD6B7D7B42FB",
"f. c #AF107E924365",
"g. c #B1C1803F43D6",
"h. c #B2FB817144FE",
"j. c #B8FF85F547AD",
"k. c #BAC3870747E6",
"l. c #BB4D876B481B",
"z. c #BC12883048E0",
"x. c #BD6988F248EB",
"c. c #BDBC892E490B",
"v. c #C1F98C3E4AAD",
"b. c #C2788C9A4ADE",
"n. c #C4338DDA4B88",
"m. c #C4588DF54B97",
"M. c #C82C90BA4D10",
"N. c #C8E1914F4D80",
"B. c #CB1B92294CAB",
"V. c #CBF192A74CBE",
"C. c #C995920E4E4A",
"Z. c #CF1E95BF4FBC",
"A. c #D0CB96F55061",
"S. c #D147974F5091",
"D. c #D193978550AE",
"F. c #D23597FB50ED",
"G. c #D2E6987B5131",
"H. c #D37F98EA516C",
"J. c #D4029949519F",
"K. c #D477999D51CB",
"L. c #D4BB99CE51E5",
"P. c #D5419A30521B",
"I. c #D5D39A995251",
"U. c #D6779B0F5290",
"Y. c #D6B19B3952A7",
"T. c #D7259B8D52D3",
"R. c #D7B99BF8530C",
"E. c #D8299C495337",
"W. c #D8F99CE2538E",
"Q. c #D9EB9D9453F2",
"!. c #DAA99E17542E",
"~. c #DB3E9E845467",
"^. c #DB669EA15477",
"/. c #DC389F3854C7",
"(. c #DCA09F8354EE",
"). c #DDCAA05A5562",
"_. c #DEADA0FF55BA",
"`. c #DF17A14B55E2",
"'. c #DF94A1A65612",
"]. c #E045A2265657",
"[. c #E0A0A267567A",
"{. c #E180A30A56D0",
"}. c #E228A3835711",
"|. c #E2BFA3F0574B",
" X c #E340A44E577C",
".X c #E3AFA49D57A7",
"XX c #E521A56957A6",
"oX c #E499A54657FF",
"OX c #E588A5F4585D",
"+X c #E623A65F588F",
"@X c #E696A6B758C5",
"#X c #E6CAA6DD58D9",
"$X c #E7A9A7865941",
"%X c #E9C7A9D75BD0",
"&X c #EC71AB705C1D",
"*X c #89A0895E890F",
"=X c #9347931192CE",
"-X c #939D93669322",
";X c #9F1D9ECA9E64",
":X c #A2EAA2BAA280",
">X c #A403A3C4A377",
",X c #A593A551A502",
"<X c #A95DAAA9AC42",
"1X c #B273B243B208",
"2X c #B135B296B445",
"3X c #B4ECB4C0B489",
"4X c #B80AB7E0B7AC",
"5X c #B8BEB86CB808",
"6X c #BEBFBDE7BCDF",
"7X c #C0E7C0D3C0BC",
"8X c #C148C136C121",
"9X c #C3D9C2F9C1E7",
"0X c #D8A5D7C6D6B6",
"qX c #D955D878D76A",
"wX c #EA12E8EBE784",
"eX c #EB2BEA06E8A0",
"rX c #F962F946F923",
"tX c #FBF7FBF4FBF1",
"yX c #FEEAFEEDFEF0",
"uX c #FFDBFFD9FFD6",
/* pixels */
"I.I.I.I.I.I.I.I.I.I.I.I.I.I.I.I.I.I.I.I.I.I.I.I.I.I.I.I.I.I.I.I.I.I.I.",
"I.I.I.I.I.I.I.I.I.I.I.I.I.I.I.I.H.S.H.I.I.I.I.I.I.I.I.I.I.I.I.I.I.I.I.",
"I.I.I.I.I.I.I.I.I.I.I.I.I.I.I.I.|.$X|.I.I.I.I.I.I.I.I.I.I.I.I.I.I.I.I.",
"I.I.I.I.I.I.I.I.I.I.I.I.I.I.I.Q.o.^ <.Q.I.I.I.I.I.I.I.I.I.I.I.I.I.I.I.",
"I.I.I.I.I.I.I.I.I.I.I.I.I.H.|. .  *    . XH.I.I.I.I.I.I.I.I.I.I.I.I.I.",
"I.I.I.I.I.I.I.I.I.I.I.I.I.I.Q.M   2   M Q.I.I.I.I.I.I.I.I.I.I.I.I.I.I.",
"I.I.I.I.I.I.I.I.I.I.I.I.I.H.|.^   :   ( |.H.I.I.I.I.I.I.I.I.I.I.I.I.I.",
"I.I.I.I.I.I.I.I.I.I.I.I.I.H.E.M.f   f N.I.I.I.I.I.I.I.I.I.I.I.I.I.I.I.",
"I.I.I.I.I.I.I.I.I.I.I.I.I.S.$Xy.5   5 i.$XS.I.I.I.I.I.I.I.I.I.I.I.I.I.",
"I.I.I.I.I.I.I.I.I.I.I.I.H.$X8.*       2 0.$XH.H.I.I.I.I.I.I.I.I.I.I.I.",
"I.I.I.I.I.I.I.I.I.I.H.I.|.|                .|.R.H.I.I.I.I.I.I.I.I.I.I.",
"I.I.I.I.I.I.I.I.I.I.Q.H.(   :           *   ( I.W.I.I.I.I.I.I.I.I.I.I.",
"I.I.I.I.I.I.I.I.I.I.W.G   * <   c 5Xc   < :   H Q.I.I.I.I.I.I.I.I.I.I.",
"I.I.I.I.I.I.I.I.H. X3.  :       I uXI   <   :   6.|.H.I.I.I.I.I.I.I.I.",
"I.I.I.I.I.I.I.I.H.'.H   *   L 1X7XtX7X3XL   :   ~ |.H.I.I.I.I.I.I.I.I.",
"I.I.I.I.I.I.I.I.I.S.a       c >X3XtX3X,XL       f S.I.I.I.I.I.I.I.I.I.",
"I.I.I.I.I.I.I.I.I.S.u           I uXI   <       f S.I.I.I.I.I.I.I.I.I.",
"I.I.I.I.I.I.I.I.I.Q.C   *   < < c ;Xl       :   Z '.H.I.I.I.I.I.I.I.I.",
"I.I.I.I.I.I.I.I.H. Xo.  :                   :   <.|.H.I.I.I.I.I.I.I.I.",
"I.I.I.I.I.I.I.I.I.I.W.H       Y +.%.@.Y <     W Q.I.I.I.I.I.I.I.I.I.I.",
"I.I.I.I.I.I.I.I.I.I.W.I.[   E uXuXuXuXuXE   [ Q.E.I.I.I.I.I.I.I.I.I.I.",
"I.I.I.I.I.I.I.I.I.I.H.I.&Xn T -.$.@.$.=.R n &XI.H.I.I.I.I.I.I.I.I.I.I.",
"I.I.I.I.I.I.I.I.I.I.I.Q.h.        <       * h.Q.H.I.I.I.I.I.I.I.I.I.I.",
"I.I.I.I.I.I.I.I.I.I.H.%X' #.wXtXuXuXuXtXeX&.' %XH.I.I.I.I.I.I.I.I.I.I.",
"I.I.I.I.I.I.I.I.I.I.W.N.q <X0X:X-X*X-X>X0X2Xq N.Q.H.I.I.I.I.I.I.I.I.I.",
"I.I.I.I.H.S.H.I.H.S.W.f.m e               e M h.Q.S.H.H.H.H.H.I.I.I.I.",
"I.I.I.I.Q.$X|.'.'.|.$X$XXXN.<.9 =.j ;.8 1.N.XX$X|.|.'.'.|.$XQ.I.I.I.I.",
"I.I.I.Q.j.} W A C _ } 5.i.0.w >.6X  9X:.r e.i.5.} ` A A W } l.(.I.I.I.",
"I.H.|.t.                      c 8 u 8 c                       y.'.H.I.",
"I.H.W.v.u             * : : *   a d.a   : : * *             u v.W.I.I.",
"I.I.S.$X8.  A _ A h 5         C j.$Xx.B         5 h A ( A   8.$XH.I.I.",
"I.I.I.I.H.x.'.|.'.I.m.d.0.3.s.'.(.S.(.Q.a.3.e.f.m.I.'.|.'.x.H.I.I.I.I.",
"I.I.I.I.I.Q.H.H.H.I.W.'.|.$X'.H.H.I.H.I.'.XX|.'.Q.I.H.S.H.Q.I.I.I.I.I.",
"I.I.I.I.I.I.I.I.I.I.I.H.H.S.H.I.I.I.I.I.H.S.H.H.I.I.I.I.I.I.I.I.I.I.I.",
"I.I.I.I.I.I.I.I.I.I.I.I.I.I.I.I.I.I.I.I.I.I.I.I.I.I.I.I.I.I.I.I.I.I.I."
};
