/* XPM */
static char *bdd__[] = {
/* columns rows colors chars-per-pixel */
"32 32 203 2",
"   c #000800060003",
".  c #009400700044",
"X  c #007F009B0062",
"o  c #00DF00B00061",
"O  c #0166012400D3",
"+  c #01C5014500A7",
"@  c #026F01C200F0",
"#  c #0329024C013F",
"$  c #036F02850168",
"%  c #028F027E0268",
"&  c #035302B701F8",
"*  c #029D0296028D",
"=  c #0458032301AA",
"-  c #04B3036501CF",
";  c #055503E0021B",
":  c #0705051302B4",
">  c #042D041E040C",
",  c #06650596049A",
"<  c #069205BB04B5",
"1  c #05B10605066C",
"2  c #0AAC07B8041C",
"3  c #0CFA096204FF",
"4  c #07CD083408B1",
"5  c #128A0D680723",
"6  c #12B50D860733",
"7  c #12F60DB5074C",
"8  c #165B0E360445",
"9  c #17540F26052B",
"0  c #11A80EBE0B2F",
"q  c #17480F1D07DF",
"w  c #14C011EE0E7E",
"e  c #18D21030083C",
"r  c #1846118D0958",
"t  c #18BF11E40987",
"y  c #1986127409D4",
"u  c #1B1D139A0A70",
"i  c #1D3B15220B41",
"p  c #1DC615870B76",
"a  c #1C05151B0CAB",
"s  c #1CFE15C90CFE",
"d  c #13E313CD13B2",
"f  c #230819540D7D",
"g  c #236719990DA2",
"h  c #2DF8209D1051",
"j  c #2EB2214610E4",
"k  c #2CC32158136A",
"l  c #2F2222141225",
"z  c #2E37226713FD",
"x  c #32AA24A21381",
"c  c #32B024A9138A",
"v  c #3340250C13B7",
"b  c #38F5292E15ED",
"n  c #3B812B0516E8",
"m  c #3C452B921730",
"M  c #3C862BC1174A",
"N  c #3D622C6117A1",
"B  c #204C202F200C",
"V  c #22C322A62284",
"C  c #240323552280",
"Z  c #27E62734265C",
"A  c #41A22F751945",
"S  c #48B83188153C",
"D  c #4A5A32A515B7",
"F  c #4DBA34E51699",
"G  c #4E7C35A0174A",
"H  c #42BF304319B3",
"J  c #4417313B1A36",
"K  c #48E034B11C0E",
"L  c #49A5353F1C5A",
"P  c #49CD355C1C69",
"I  c #4F44394F1E84",
"U  c #4FAF3A742025",
"Y  c #51AB3C082134",
"T  c #52973BEF2049",
"R  c #58AB401B2223",
"E  c #597540AD2270",
"W  c #5E9344612469",
"Q  c #5F0B44B82497",
"!  c #69404C192885",
"~  c #6D784F262A25",
"^  c #6FEC50EC2B17",
"/  c #725052A62C03",
"(  c #77B056892E14",
")  c #4141411140D8",
"_  c #4261422941E3",
"`  c #57EE56CA5566",
"'  c #5BFC5ADB597C",
"]  c #610060C16075",
"[  c #64C7643F6399",
"{  c #66DD666B65E0",
"}  c #680B67C76774",
"|  c #6A166B9A6D74",
" . c #6C876E0A6FE3",
".. c #6AFC6E5A7278",
"X. c #6C856EC37180",
"o. c #6F8B71C17473",
"O. c #71E871B97180",
"+. c #721371E471AA",
"@. c #783F780877C5",
"#. c #70A073F37802",
"$. c #7CD77C9F7C5C",
"%. c #859A60993370",
"&. c #88FF630C34BE",
"*. c #8A1263D33527",
"=. c #8AD764613573",
"-. c #8B7964D635B1",
";. c #8B8D64E535B9",
":. c #902C683D3781",
">. c #95126BC73963",
",. c #95A66C32399C",
"<. c #963E6CA039D7",
"1. c #96B66CF73A05",
"2. c #9C8471293C41",
"3. c #9DAA71FE3CB2",
"4. c #A5A977C63FC6",
"5. c #A5F477FC3FE3",
"6. c #A9397A684146",
"7. c #ADCD7DA842E9",
"8. c #B7A184C446B2",
"9. c #B9D7865D478B",
"0. c #BC2C874546B6",
"q. c #BA6F86AA4789",
"w. c #BCDC87FC4775",
"e. c #BAC1870647E5",
"r. c #BAC1872B4837",
"t. c #BCDB888A48B4",
"y. c #BD2588C148D1",
"u. c #BD6288EC48E8",
"i. c #BE0C89B849DD",
"p. c #C51F8E854BE3",
"a. c #C6AC8FA44C7C",
"s. c #C80B90A14D03",
"d. c #C9C691E24DAE",
"f. c #CAB2928D4E08",
"g. c #CBB493474E6C",
"h. c #CCFC94354EEC",
"j. c #CF2795C74FC2",
"k. c #D0CA96F55061",
"l. c #D10E9726507B",
"z. c #D256981450FC",
"x. c #D2E4987A5130",
"c. c #D39398F85173",
"v. c #D409994D51A1",
"b. c #D474999B51CA",
"n. c #D4C999D851EB",
"m. c #D54D9A38521E",
"M. c #D5D69A9B5252",
"N. c #D81B9C3F5332",
"B. c #D8B79CAF536E",
"V. c #D9979D5153C4",
"C. c #D8E29D4C5496",
"Z. c #D9F59D9553E8",
"A. c #DA749DF25419",
"S. c #DB059E5F545B",
"D. c #DBBC9EDF5498",
"F. c #DC399F3954C7",
"G. c #DB529EC154D7",
"H. c #DB6E9EDE54F6",
"J. c #DCA69F8754F1",
"K. c #DD5DA0095531",
"L. c #DE12A0905582",
"P. c #DE70A0D355A2",
"I. c #DEEAA12B55D1",
"U. c #DEFAA13655D7",
"Y. c #DFD5A1D5562C",
"T. c #E09DA2665679",
"R. c #E184A30D56D2",
"E. c #E1F1A35B56FC",
"W. c #E2C7A3F7574E",
"Q. c #E326A43B5773",
"!. c #E3A7A49857A4",
"~. c #E1AFA425590B",
"^. c #E2C0A4E35965",
"/. c #E4BAA5635818",
"(. c #E596A5FE5862",
"). c #E7C3A7905939",
"_. c #E8C9A90A5B40",
"`. c #EA84A98E5A48",
"'. c #F28FAF235CDD",
"]. c #F295AF315CF2",
"[. c #81AD81718128",
"{. c #8280824381F9",
"}. c #97DD970F9615",
"|. c #997898AC97B3",
" X c #99D69941988B",
".X c #9AC19A2B9974",
"XX c #9FC59FAA9F8A",
"oX c #A684A67DA674",
"OX c #A674A707A7BA",
"+X c #A703A797A84B",
"@X c #A61CA8B6ABE4",
"#X c #AC05AEBCB20C",
"$X c #BFB8BFA9BF98",
"%X c #C151C144C135",
"&X c #EF68EF38EEFD",
"*X c #EF73EF47EF11",
"=X c #F012F004EFF5",
"-X c #F49CF364F1E7",
";X c #F4E4F3AEF234",
":X c #FB6BFB55FB3A",
">X c #FB81FB6CFB53",
",X c #FB93FB7CFB61",
"<X c gray100",
/* pixels */
"M.M.M.M.M.M.M.M.M.M.M.M.M.M.M.M.M.M.M.M.M.M.M.M.M.M.M.M.M.M.M.M.",
"M.M.M.M.M.M.M.M.M.M.M.M.M.M.c.M.M.c.M.M.M.M.M.M.M.M.M.M.M.M.M.M.",
"M.M.M.M.M.M.M.M.M.M.M.M.M.c.Y.M.M.Y.c.M.M.M.M.M.M.M.M.M.M.M.M.M.",
"M.M.M.M.M.M.M.M.M.M.M.M.c.Y.>.i i <.Y.c.M.M.M.M.M.M.M.M.M.M.M.M.",
"M.M.M.M.M.M.M.M.M.M.M.M.A.p.q     7 s.B.M.M.M.M.M.M.M.M.M.M.M.M.",
"M.M.M.M.M.M.M.M.M.M.M.c.A.e.=     ; 0.B.c.M.M.M.M.M.M.M.M.M.M.M.",
"M.M.M.M.M.M.M.M.M.M.M.M.M.A.E     E A.M.M.M.M.M.M.M.M.M.M.M.M.M.",
"M.M.M.M.M.M.M.M.M.M.M.M.z._.;.    ;._.z.M.M.M.M.M.M.M.M.M.M.M.M.",
"M.M.M.M.M.M.M.M.M.M.c.c._.%.        &.).c.M.M.M.M.M.M.M.M.M.M.M.",
"M.M.M.M.M.M.M.M.M.c.B.R.!             ^ R.B.c.M.M.M.M.M.M.M.M.M.",
"M.M.M.M.M.M.M.M.M.A.z.A                 H k.A.c.M.M.M.M.M.M.M.M.",
"M.M.M.M.M.M.M.M.M.M.b   = <   $.$.  < ;   b B.M.M.M.M.M.M.M.M.M.",
"M.M.M.M.M.M.M.z.R.;.  ;   <   oX+X  <   ;   :.Q.c.M.M.M.M.M.M.M.",
"M.M.M.M.M.M.M.c.R.P   <   ] *X=X-X*X{   <   I Q.z.M.M.M.M.M.M.M.",
"M.M.M.M.M.M.M.M.A.l   ;   B ) %X$X) V   ;   v A.c.M.M.M.M.M.M.M.",
"M.M.M.M.M.M.M.c.Y.b       <   XXXX  <       N Y.c.M.M.M.M.M.M.M.",
"M.M.M.M.M.M.M.c.^.~   ;   *   d d   *   <   ^ ^.c.M.M.M.M.M.M.M.",
"M.M.M.M.M.M.M.c.B.s.e         < <         e s.A.c.M.M.M.M.M.M.M.",
"M.M.M.M.M.M.M.M.c.Y.8.k   { <X,X,X<X{   z e.Y.c.M.M.M.M.M.M.M.M.",
"M.M.M.M.M.M.M.M.M.c.Y.A.8 | .X@.@.|.X.q C.K.z.M.M.M.M.M.M.M.M.M.",
"M.M.M.M.M.M.M.M.M.c.A.6.                6.Y.c.M.M.M.M.M.M.M.M.M.",
"M.M.M.M.M.M.M.M.M.c._.F X.;X,X<X<X,X;X#.F _.z.M.M.M.M.M.M.M.M.M.",
"M.M.M.M.M.M.c.M.c.A.u.0 @XoX{.+.+.{.+X#Xw 0.A.c.c.M.M.M.M.M.M.M.",
"M.M.M.c.c.A.A.A.A.A.0.I q             e Y 0.A.A.A.A.B.c.c.M.M.M.",
"M.M.M.Y.R.f.t.0.p.M.).'.~.D o.` ' X.D ~.'.^.M.p.e.u.h.Q.Y.M.M.M.",
"M.c.B.7.P 7 ; ; 3 g m T h 4 |.V Z }.< x T m f 3 ; : 0 P 7.B.M.M.",
"M.c.^.W   =               ;   v x   ;               =   Q R.z.M.",
"M.M.B.f.e   2 ;             s e.u.s             : 2   e f.B.M.M.",
"M.M.c.~.3.<.p.u.4.;.~ I H ( k.K.K.f./ J I ^ *.4.u.p.<.2.R.M.M.M.",
"M.M.M.c.Y.Y.A.A.Y.^.(.R.R.).M.c.c.A.).R.Q.(.Q.R.F.B.R.Y.z.M.M.M.",
"M.M.M.M.c.c.M.c.c.z.z.c.c.z.c.M.M.M.z.z.z.z.z.z.M.M.z.c.M.M.M.M.",
"M.M.M.M.M.M.M.M.M.M.M.M.M.M.M.M.M.M.M.M.M.M.M.M.M.M.M.M.M.M.M.M."
};
