/* XPM */
static char *bdd__[] = {
/* columns rows colors chars-per-pixel */
"38 38 256 2",
"   c #000800050004",
".  c #009A006F003B",
"X  c #010F00C40069",
"o  c #0042006B00D9",
"O  c #00FB00D500A7",
"+  c #01CD015000B7",
"@  c #01DA018E0131",
"#  c #02EF0224012D",
"$  c #0000003A0190",
"%  c #01EF01F401FA",
"&  c #032D032D032C",
"*  c #03B702AB0168",
"=  c #0452031F01A7",
"-  c #04D0037B01DA",
";  c #055C03E00210",
":  c #05EC04480248",
">  c #066504A00276",
",  c #069A04C6028B",
"<  c #040503FA03EC",
"1  c #04C104BF04BB",
"2  c #0624052B03F9",
"3  c #05DA05E305EE",
"4  c #074C072806FC",
"5  c #080705CD0317",
"6  c #08940633034D",
"7  c #093106A6038A",
"8  c #0A05074203E3",
"9  c #080D070305C8",
"0  c #0B37081B0451",
"q  c #0C76090204CC",
"w  c #0D9C0A53063E",
"e  c #0F4D0B1005E4",
"r  c #0832081007E7",
"t  c #11EC0B1E02D2",
"y  c #14930ABA0000",
"u  c #12930B9B031B",
"i  c #15AC0BD50000",
"p  c #101E0BA70635",
"a  c #10BE0C1A0672",
"s  c #11480C7E06A7",
"d  c #120A0D0B06F2",
"f  c #12BE0D8D0737",
"g  c #12F70DB6074D",
"h  c #0F910BFE078C",
"j  c #14290E9307C3",
"k  c #153B0F5A082D",
"l  c #19ED11140648",
"z  c #1A29116206AC",
"x  c #15840FFF0941",
"c  c #186312740B56",
"v  c #1AD413660A54",
"b  c #1B4113B40A7E",
"n  c #1BAE14D30C95",
"m  c #0E8012581709",
"M  c #110F10EA10BD",
"N  c #141E152F167E",
"B  c #181915E71339",
"V  c #1ADA18E01677",
"C  c #10E314B71964",
"Z  c #13A4162519A0",
"A  c #16C317D8192A",
"S  c #16A3192A1C99",
"D  c #1D261CEB1CA2",
"F  c #24491A3C0DF9",
"G  c #282C1D0B0F77",
"H  c #2E30216511C8",
"J  c #2F86225C124C",
"K  c #34EB2642145F",
"L  c #391A294915FC",
"P  c #3AB42A71169A",
"I  c #3C482B951735",
"U  c #3D472C4D1797",
"Y  c #3E472D0717F9",
"T  c #20C720A02070",
"R  c #20CF20A82078",
"E  c #22BA222A2179",
"W  c #243123A322F6",
"Q  c #258F25682538",
"!  c #25FD25D425A1",
"~  c #249325AA2700",
"^  c #213324F92995",
"/  c #262D27392880",
"(  c #270A2AC72F58",
")  c #34A2345B3403",
"_  c #387337C536F1",
"`  c #3844380137B8",
"'  c #3F243E7D3DB1",
"]  c #3FF72E3F18A0",
"[  c #42202FCF1974",
"{  c #428A301C199E",
"}  c #4B9B36AA1D1B",
"|  c #4CAD37701D84",
" . c #4F37381C1BEB",
".. c #50723A291EF8",
"X. c #52443B7B1FAC",
"o. c #54BB3D43209F",
"O. c #58BD40282229",
"+. c #5A71416422D1",
"@. c #5C2F42A6237D",
"#. c #5EA0446A246E",
"$. c #5EF644A8248F",
"%. c #6DDD4CB22438",
"&. c #6E924D6A24F4",
"*. c #6B6C4DAA295B",
"=. c #6C2F4E3829A6",
"-. c #6C574E5529B5",
";. c #6E624FCE2A7E",
":. c #731953372C4F",
">. c #758E54FE2D41",
",. c #772F560E2DA0",
"<. c #76E355F52DC5",
"1. c #784856C92DE9",
"2. c #781E56D82E3E",
"3. c #79A957F62ED6",
"4. c #7BB959742FA1",
"5. c #7BFB59A32FBB",
"6. c #7CC85A38300A",
"7. c #7D475A93303A",
"8. c #7EA55B9030C1",
"9. c #7FAC5C4E3127",
"0. c #4CAD4B8B4A28",
"q. c #5B0D5AC35A69",
"w. c #5C9C5C6A5C2D",
"e. c #5FF65FC65F8B",
"r. c #6A7C6A656A48",
"t. c #709D70266F94",
"y. c #71FF717870DA",
"u. c #7ECA7E817E28",
"i. c #81F55D163018",
"p. c #81A45DBB31E9",
"a. c #830D5EC03273",
"s. c #84B85F3C317D",
"d. c #8822626D3468",
"f. c #93066848341E",
"g. c #943C68FE3439",
"h. c #91F469873830",
"j. c #926E69DF385F",
"k. c #93B76ACD38DE",
"l. c #93E36AEC38EF",
"z. c #94616B47391F",
"x. c #960A6C7A39C3",
"c. c #96396C9D39D5",
"v. c #976A6D793A4B",
"b. c #98B96E6B3ACB",
"n. c #9A6D6FA63B73",
"m. c #9BAE708E3BEF",
"M. c #9C2670E53C1D",
"N. c #A03374383E8B",
"B. c #A21175983F52",
"V. c #A54877803FA1",
"C. c #A80B797F40B1",
"Z. c #AD4E7D4D42B8",
"A. c #AE2C7DED430D",
"S. c #AF697EA8432D",
"D. c #B5D8837A4602",
"F. c #B64083C5462A",
"G. c #BBB787C74862",
"H. c #BD3988CF48D9",
"J. c #BD5A88E748E6",
"K. c #BE5089994946",
"L. c #BF048A1B4989",
"P. c #BF288A5949E2",
"I. c #C5DC8F0E4C2C",
"U. c #C6AD8FA54C7C",
"Y. c #C82790A84CEF",
"T. c #C88490F94D31",
"R. c #C8F1913A4D3D",
"E. c #C9B391D44DA5",
"W. c #CA2092234DD0",
"Q. c #CAA492824E03",
"!. c #CB64930E4E4D",
"~. c #CBCC93594E75",
"^. c #CDCE94CC4F3B",
"/. c #CE50952A4F6D",
"(. c #CF6395F14FD7",
"). c #D04396975035",
"_. c #D05796A5503C",
"`. c #D11F97325081",
"'. c #D1609762509B",
"]. c #D20E97DF50DE",
"[. c #D257981450FA",
"{. c #D2CA98675126",
"}. c #D3A99908517C",
"|. c #D418995851A7",
" X c #D47B99A051CD",
".X c #D4D499E051EF",
"XX c #D5439A305219",
"oX c #D5D49A995252",
"OX c #D6D29B5252B6",
"+X c #D71F9B8C52DA",
"@X c #D7759BC652F2",
"#X c #D8099C32532B",
"$X c #D53D9AFB53E2",
"%X c #D5929B4C542F",
"&X c #D8BB9CB35370",
"*X c #D9AD9D6153CC",
"=X c #DA089DA653F6",
"-X c #DA8B9E025422",
";X c #DB039E585450",
":X c #DBE49EFE54AC",
">X c #DC0D9F1F54C3",
",X c #DCBC9F9754F9",
"<X c #DDCAA05B5562",
"1X c #DE9FA0F555B4",
"2X c #DEE1A12455CE",
"3X c #E105A2B156A1",
"4X c #E17DA30756CF",
"5X c #E199A31B56DA",
"6X c #E1F7A36056FE",
"7X c #E2BDA3EF574A",
"8X c #E33EA44C577C",
"9X c #E3B2A4A057A8",
"0X c #E13FA3965857",
"qX c #E448A50D57E2",
"wX c #E4DDA578581B",
"eX c #E5FFA64A588B",
"rX c #E66AA69758B4",
"tX c #E742A7335907",
"yX c #E83DA8835ABE",
"uX c #E86AA8AF5AEA",
"iX c #ED9EABCC5B7B",
"pX c #EEA5ACC95C6B",
"aX c #8EDD8EA38E5C",
"sX c #8F408F038EB9",
"dX c #9509964A97D1",
"fX c #99A7995B98FF",
"gX c #99C39978991D",
"hX c #9D9C9EFBA0A0",
"jX c #A517A4D3A47F",
"kX c #A540A4FBA4A7",
"lX c #B1E2B1B7B183",
"zX c #B261B235B200",
"xX c #B793B770B746",
"cX c #BE06BDFEBDF5",
"vX c #BF12BF08BEFD",
"bX c #BFE6BFE0BFD8",
"nX c #C57EC507C477",
"mX c #C6DBC661C5CE",
"MX c #CE40CDE8CD7F",
"NX c #D4CBD479D416",
"BX c #D78CD66BD50B",
"VX c #D7A4D79AD78E",
"CX c #D9F8D8D8D778",
"ZX c #E010E02BE04E",
"AX c #E207E215E226",
"SX c #F122F09AEFF3",
"DX c #F2C3F23CF199",
"FX c #F40CF3E5F3B6",
"GX c #F95EF936F904",
"HX c #FA65FA56FA45",
"JX c #FB52FB45FB35",
"KX c #FC6AFC3BFC01",
"LX c #FFFFFFFFFE69",
"PX c #FEE3FEE2FEE0",
"IX c #FFFFFFFFFF3F",
"UX c #FFECFFECFFEC",
/* pixels */
"oXoXoXoXoXoXoXoXoXoXoXoXoXoXoXoXoXoXoXoXoXoXoXoXoXoXoXoXoXoXoXoXoXoXoXoXoXoX",
"oXoXoXoXoXoXoXoXoXoXoXoXoXoXoXoXoXoX`.|.oXoXoXoXoXoXoXoXoXoXoXoXoXoXoXoXoXoX",
"oXoXoXoXoXoXoXoXoXoXoXoXoXoXoXoX|.oX9X7XoX|.oXoXoXoXoXoXoXoXoXoXoXoXoXoXoXoX",
"oXoXoXoXoXoXoXoXoXoXoXoXoXoXoXoX>X|.h.h.|.>X|.oXoXoXoXoXoXoXoXoXoXoXoXoXoXoX",
"oXoXoXoXoXoXoXoXoXoXoXoXoXoXoX#X/.H     H /.#XoXoXoXoXoXoXoXoXoXoXoXoXoXoXoX",
"oXoXoXoXoXoXoXoXoXoXoXoXoXoX`.9X4.  > >   6.qX`.oXoXoXoXoXoXoXoXoXoXoXoXoXoX",
"oXoXoXoXoXoXoXoXoXoXoXoXoXoX`.tX*.    >   -.tX|.oXoXoXoXoXoXoXoXoXoXoXoXoXoX",
"oXoXoXoXoXoXoXoXoXoXoXoXoXoX|.<XZ.5     5 Z.,X|.oXoXoXoXoXoXoXoXoXoXoXoXoXoX",
"oXoXoXoXoXoXoXoXoXoXoXoXoXoXoX/.pX<.    2.iX/.oXoXoXoXoXoXoXoXoXoXoXoXoXoXoX",
"oXoXoXoXoXoXoXoXoXoXoXoXoXoX`.tXC.q     q C.tX`.oXoXoXoXoXoXoXoXoXoXoXoXoXoX",
"oXoXoXoXoXoXoXoXoXoXoXoXoX|.tXb.3         q M.uX|.oXoXoXoXoXoXoXoXoXoXoXoXoX",
"oXoXoXoXoXoXoXoXoXoXoXoXoX9X<.      >         2.7XoX|.oXoXoXoXoXoXoXoXoXoXoX",
"oXoXoXoXoXoXoXoXoXoXoXoXoX|                 *    .oX#X|.oXoXoXoXoXoXoXoXoXoX",
"oXoXoXoXoXoXoXoXoXoXoX*X]   >   9   u.u.  3   >   ] >XoXoXoXoXoXoXoXoXoXoXoX",
"oXoXoXoXoXoXoXoXoX|.7Xa.  >     >   cXcX        >   d.9X`.oXoXoXoXoXoXoXoXoX",
"oXoXoXoXoXoXoXoXoX|.>XK         w.r.VXVXr.r.        P <XoXoXoXoXoXoXoXoXoXoX",
"oXoXoXoXoXoXoXoXoX*XU.q       3 MXKXKXKXGXNX0       f W.#XoXoXoXoXoXoXoXoXoX",
"oXoXoXoXoXoXoXoX|.>XG.>         3   cXcX  3         9 P.>X|.oXoXoXoXoXoXoXoX",
"oXoXoXoXoXoXoXoXoX*XU.f         3   xXxX  3         j W.#X|.oXoXoXoXoXoXoXoX",
"oXoXoXoXoXoXoXoXoX|.,XP   >     <   T T   3     >   Y <X|.oXoXoXoXoXoXoXoXoX",
"oXoXoXoXoXoXoXoXoX`.7Xb.  *                         b.7X|.oXoXoXoXoXoXoXoXoX",
"oXoXoXoXoXoXoXoXoXoXoX<X-.      q.aXfXfXaXw.      :.7X|.oXoXoXoXoXoXoXoXoXoX",
"oXoXoXoXoXoXoXoXoXoXoXoX0XB.l N SXUXUXUXUXDXA l B.9X|.oXoXoXoXoXoXoXoXoXoXoX",
"oXoXoXoXoXoXoXoXoXoXoXoX`.pX .m 0.! D D ! 0.C  .pX`.oXoXoXoXoXoXoXoXoXoXoXoX",
"oXoXoXoXoXoXoXoXoXoXoXoX>XP.0     3 M M 0     9 P.>X|.oXoXoXoXoXoXoXoXoXoXoX",
"oXoXoXoXoXoXoXoXoXoXoX`.tX%.^ BXFXUXUXUXUXFXCX( %.tX|.oXoXoXoXoXoXoXoXoXoXoX",
"oXoXoXoXoXoXoXoXoXoXoXoX%Xy dXUXmXzXkXkXzXmXUXhXy %X%XoXoXoXoXoXoXoXoXoXoXoX",
"oXoXoXoXoXoX|.`.|.`.`.>XS.q Z                 S e S.,X`.|.`.`.|.oXoXoXoXoXoX",
"oXoXoXoX`.oX7XqX9XtX7X,X>XU.f.<.t / T W ! u <.g.Y.>X,X7XqXtXqX7X#X|.oXoXoXoX",
"oXoXoX#XtXW.m.a.6.a.b.F.W.*X0Xa.V AX` ..ZXB s.0X*XW.F.M.9.6.a.m.W.tXoXoXoXoX",
"oXoXoX`.*.f             s F M   ` y.r r y.)   x F f             f *.|.oX|.oX",
"oXoX#XW.v   > > > > 9       $ < < 3 I I   * *         > > > > >   b W.oXoXoX",
"oXoX`.9Xz.                        v G.P.n                         c.tX`.oXoX",
"oXoXoXoX,X..+.z.c.6.$.] G f > x +.W.>X,XW.o.f > f G [ $.6.c.h.+.X.<XoXoXoXoX",
"oXoXoXoXoX*X9X9X7XtX9X7X*XW.P./.qX*X|.|.>X7XW.G.W.*X7XtXqX7XqX9X>XoXoXoXoXoX",
"oXoXoXoXoXoX|.`.|.`.`.|.oX*X>XoX`.|.oXoX|.`.>X>X*XoX`.`.|.`.|.`.|.oXoXoXoXoX",
"oXoXoXoXoXoXoXoXoXoXoXoXoX|.|.oXoXoXoXoXoXoXoX|.|.oXoXoXoXoXoXoXoXoXoXoXoXoX",
"oXoXoXoXoXoXoXoXoXoXoXoXoXoXoXoXoXoXoXoXoXoXoXoXoXoXoXoXoXoXoXoXoXoXoXoXoXoX"
};
