/* XPM */
static char *bdd__[] = {
/* columns rows colors chars-per-pixel */
"46 46 91 1",
"  c #010100D0009F",
". c #0A20075203E6",
"X c #0C4D08E004B1",
"o c #0AD90AB30A85",
"O c #0F980BA406D3",
"+ c #18260D0D0000",
"@ c #13A10E5E07F1",
"# c #1679105708DE",
"$ c #1BD2141D0AB6",
"% c #1494145F1420",
"& c #1C381C011BBD",
"* c #1FAA16E50C31",
"= c #22D4192E0D68",
"- c #27AF1CB10F47",
"; c #33FC23190E83",
": c #2E8121A011E8",
"> c #342F25BA1417",
", c #376C28121556",
"< c #3A432A1F166E",
"1 c #3DD42CF71861",
"2 c #24FC24BC246D",
"3 c #255A2728295C",
"4 c #294929B42A3A",
"5 c #358435493502",
"6 c #385C37B936F2",
"7 c #3C2F3BCA3B4F",
"8 c #491E34E51C37",
"9 c #4E4C389B1E24",
"0 c #514E3AD11F5F",
"q c #4B86383520A3",
"w c #55CE3E0520FD",
"e c #5D6A438A23F7",
"r c #6AB24D232913",
"t c #73DA53942C32",
"y c #7BA559662F9A",
"u c #441C42E44166",
"i c #47CF477E471A",
"p c #484247F0478B",
"a c #570356BB5664",
"s c #55695747598E",
"d c #5F985F355EBD",
"f c #5EEE60CF631D",
"g c #622A61FB61C0",
"h c #6A8E695567D7",
"j c #6E5D6D206B9B",
"k c #721C711F6FEB",
"l c #74A273A67273",
"z c #7879783277DD",
"x c #7C7C7C337BD9",
"c c #815D5DA73212",
"v c #8581610B348D",
"b c #8BF7653235E2",
"n c #90756871379D",
"m c #949F6B86395F",
"M c #98696E313AAC",
"N c #9F7C73413D46",
"B c #A38D76403EF7",
"V c #ABD37C3A4226",
"C c #B0987FAE43FC",
"Z c #B7458482468E",
"A c #B88B856D470B",
"S c #BF188A244985",
"D c #C3C38D8F4B69",
"F c #C7C2906D4CE7",
"G c #CCD3940C4EC2",
"H c #CF7C96054FE5",
"J c #D20997DB50DC",
"K c #D5AC9A7C5243",
"L c #DB0F9E625457",
"P c #DEDAA13155F2",
"I c #E269A3B3572B",
"U c #E57FA5F25864",
"Y c #E952A8C059F4",
"T c #F146AE865D10",
"R c #850884B58452",
"E c #88EA889B883B",
"W c #94CC93F392ED",
"Q c #9B609AB999ED",
"! c #AC41AB25A9CC",
"~ c #B06DAFDAAF27",
"^ c #B4FDB4AEB44D",
"/ c #BD69BC87BB74",
"( c #C21FC13CC028",
") c #C5C0C578C520",
"_ c #CDC2CD83CD37",
"` c #D352D32AD2F7",
"' c #DAE4DADEDAD8",
"] c #EDCFEDACED80",
"[ c #F5C9F574F50B",
"{ c #F883F853F817",
"} c #FF3DFF3CFF3A",
/* pixels */
"KKKKKKKKKKKKKKKKKKKKKKKKKKKKKKKKKKKKKKKKKKKKKK",
"KKKKKKKKKKKKKKKKKKLKKKKKKKKKKKKKKKKKKLKKKKKKKK",
"KKKKKKKKKKKKKKKKKKKKKKJKKKKKKKKKKKKKKKKKKKKKKK",
"KKKKKKKKKKKKKKKKKKKKJPUILKKKKKKKKKKKKKKKKKKKKK",
"KKKKKKKKKKKKKKKKKKKJPVeeVIKKKKKKKKKKKKKKKKKKKK",
"KKKKKKKKKKKKKKKKKKKIb    bPKKKKKKKKKKKKKLKKKKK",
"KKLKKKKKKKKKKKKKKKKK=  . *KKKKKKKKKKKKKKKKKKKK",
"KKKKKKKKKKKKKKKKKKPDX    XDLKKKKKKKLKKKKKKKKKK",
"KKKKKKKKKKKKKKKKKKKK=    =KKKKKKKKKLKKKKKKKKKK",
"KKKKLKKKKKKKKKKKKKKPm.  .MPKKKKKKKKKKKKKKKKKLK",
"KKKKKKKKKKKKKKKKKKKKU1  1UKKKKKKKKKKKKKKKKKKKK",
"KKKKKKKKKKKKKKKKKJKI0    wIKKKKKKKKKKKKKKKKKKK",
"KKKKKKKKKKKKKKKKJKL0      0PKJKKKKKKKKKKKKKKKK",
"KKKKKKKKKKKLKKKKIF>        <GIKKKKKKKKKKKKKKKK",
"KKKKKKKKKKKKKKKUV$          $VIKKKKKKKKKKLKKKK",
"LKKKKKKKKKKKKKIv      ..      vIKKKKKKKKKKKKKK",
"KKKKKKKKKKKKKIm       ^^ o     MIJKKKKKKKKKKKK",
"KKKKKKKKKKKKKG$       ''       =JKKKKKKKKKKKKK",
"KKKKKKKKKKKJIn     o2:''&2o     MIJKKKKKKKKKKK",
"KKKKKKKKKKKKIw .   E}{}}}}W     eIJKKKKKKKKKKK",
"KKKKKKKKKKKKL>     5Rx]]zR7     <PKKKKKKKKKKKK",
"KKKKKKKKKKKKL>        ''        <PKKKKKKKKKKKK",
"KKKKKKKKKKKKI8      . `` .      0IKKKKKKKKKKKK",
"KKKKKKKKKKKJUy        34        cUKKKKKKKKKKKK",
"KKKKKKKKKKKKLD@                @FKKKKKKKKKKKKK",
"KKKKKKKKKKLKJUv     o%22&o     bIKKKKKKKKKKKKK",
"KKLKKKKKKKKKKJIbX  d[[}}[[g  XnIKKKKKKKKKKKKKK",
"KKKKKKKKKKKKKKJUD1 /}[]][}) 1DIKLKKKKKKKKKKKKK",
"KKKKKKKKKKKKKKKHYw u2&o%%3u wYHKKKKKKKKKKKKKKK",
"KKKKKKKKKKKKKKKLSX          XSLKKKKKKKKKKKKKKK",
"KKKKKKKKKKKKKKJUt hQ^)__)^Qj tUKKKKKKKKKKKKKKK",
"KKKKKKLKKKKKKKKL+s}}}}}}}}}}f+LKKKKKKKKKKKKKKK",
"KKKKKKKKKKKKKJIm W!lai77psl!Q MIKKKKKKKKKKKKKK",
"KKKKKKKKKKKKKJPco           .OcPJKKJKKKKKKKKKK",
"KLKKKKKKLPPPKKKKHNc8 7%%6 qvBGKKKLLPPLKKKKKKKK",
"KKKKKLIGZVVVDKIIYTJ>4[&2[3>KTUUPKDVVVZJILKKKKK",
"KKKKKAw$    X$<wrwX !^  ^! Xwrw>$X    $wALKKKK",
"KKKIV              .. #$ ..              VLKKK",
"KKKKG- .   .   .      tt      .   .   . -GKKKK",
"KKKKUB               8KKw               BUKKKK",
"KKKKKI0>cmnte<=X   -vIKKIc$   X-<etnmc:wUKKKKK",
"KKKKKKKLUIIUIPKDVBVKUKKKKUKVNCFKPUUIIYKKKKKKKK",
"KKKKKKKKJKJJKKKKLIPKJKKKKJKLILKKKJJJKJKKKKKKKK",
"KKKKKKKKKKKKKKKKJKKKKKKKKKKKKKKKKKKKKKKKKKKKKK",
"KKKKKKKKKKKKKKKKKKKKKKKKKKKKKKKKKKKKKKKKKKKKKK",
"KKKKKKKKKKKKKKKKKKKKKKKKKKKKKKKKKKKKKKKKKKKKKK"
};
