/* XPM */
static char *bdd__[] = {
/* columns rows colors chars-per-pixel */
"56 56 94 2",
"   c #00F700C40088",
".  c #0877063403C5",
"X  c #0C5F08F204C3",
"o  c #0554068B0852",
"O  c #0BF40BEF0BE8",
"+  c #11280C6B06A3",
"@  c #15700F800841",
"#  c #1671106F091A",
"$  c #1C31147F0B1B",
"%  c #11BB11BF11C5",
"&  c #1B601B551B47",
"*  c #1FC816FA0C3C",
"=  c #23F319CE0D6E",
"-  c #29111CA60D7D",
";  c #27941D8D1150",
":  c #297F1E000FF9",
">  c #2E79219A11E4",
",  c #30A6232D12BB",
"<  c #374F27E8151D",
"1  c #3AC22A541647",
"2  c #3F1F2DA3184D",
"3  c #23D123B3238E",
"4  c #27BD2775271D",
"5  c #2B4E2BFB2CD0",
"6  c #3480342A33C1",
"7  c #3C803C3A3BE5",
"8  c #415B2F401929",
"9  c #438030CE19FC",
"0  c #488F34751BEF",
"q  c #4E1538741E0F",
"w  c #511D3AA51F3A",
"e  c #55893DDA20F3",
"r  c #58103FAB21E7",
"t  c #5C4342B42383",
"y  c #610C4629255A",
"u  c #643D48792697",
"i  c #67054A7C27A9",
"p  c #6AAE4D222912",
"a  c #6F4650742AD6",
"s  c #7512548A2CD6",
"d  c #78B2570B2DFA",
"f  c #7B6759382F82",
"g  c #7E0D5B233086",
"h  c #429F423D41C6",
"j  c #47F04797472B",
"k  c #485A47FE478E",
"l  c #4C514BF84B8B",
"z  c #557A5516549D",
"x  c #594F581C56A6",
"c  c #5D395CAC5C00",
"v  c #6D296CB06C1C",
"b  c #750B747B73CC",
"n  c #82A45E74324B",
"m  c #84C3605D33F2",
"M  c #8CF465E93643",
"N  c #906A68693798",
"B  c #92BF6A19387E",
"V  c #9A736FAB3B76",
"C  c #A17D753A3F35",
"Z  c #A4E0776B3FF1",
"A  c #A65178343FED",
"S  c #AD457D5242CD",
"D  c #B0C07FCB440B",
"F  c #B4F482DC45BA",
"G  c #B94585F44753",
"H  c #BBBF87BE4847",
"J  c #BFAF8A9749CB",
"K  c #C3C98D8E4B5F",
"L  c #C834913A4E23",
"P  c #CBE3937B4EA5",
"I  c #D0169672501C",
"U  c #D1D497B550C7",
"Y  c #D5B49A825245",
"T  c #DAF69E525453",
"R  c #DEE7A12C55D7",
"E  c #E2ACA3E45746",
"W  c #E4E3A57D5820",
"Q  c #8D6E8CE48C3C",
"!  c #94A793A39261",
"~  c #9BAC9ACE99C0",
"^  c #A0239EEF9D77",
"/  c #B2E6B1F7B0D5",
"(  c #BB28BA79B9A4",
")  c #C4BEC40CC333",
"_  c #CAA9C9FAC925",
"`  c #D102CF24CCDC",
"'  c #DA93D8B3D669",
"]  c #E019DFDBDF8F",
"[  c #E50FE4D4E48C",
"{  c #E890E858E813",
"}  c #EBECEBB3EB6E",
"|  c #F072F02CEFD7",
" . c #F462F44DF433",
".. c #FEE6FEE2FEDC",
/* pixels */
"Y Y Y Y Y Y Y Y Y Y Y Y Y Y Y Y Y Y Y Y Y Y Y Y Y Y Y Y Y Y Y Y Y Y Y Y Y Y Y Y Y Y Y Y Y Y Y Y Y Y Y Y Y Y Y Y ",
"Y Y Y Y Y Y Y Y Y Y Y Y Y T Y Y Y Y Y Y Y Y Y Y Y Y Y Y Y Y Y Y Y Y Y Y Y T Y Y Y Y Y Y Y Y Y Y T Y Y Y Y Y Y Y ",
"Y Y Y Y Y Y Y Y Y Y Y Y Y Y Y Y Y Y Y Y Y Y Y Y Y Y Y Y Y Y Y Y Y Y Y Y Y Y Y Y Y Y Y Y Y Y Y Y Y Y Y Y Y Y Y Y ",
"Y Y Y Y Y Y Y Y Y Y Y Y Y Y Y Y Y Y Y Y Y Y Y Y Y Y Y U U Y Y Y Y Y Y Y Y Y Y Y Y Y Y Y Y Y Y Y Y Y Y Y Y Y Y Y ",
"Y Y Y Y Y Y Y Y Y Y Y Y Y T Y Y Y Y Y Y Y Y Y Y Y Y E W W E Y Y Y Y Y Y Y Y Y Y Y Y Y Y Y Y Y Y Y Y Y Y Y Y Y Y ",
"Y Y Y Y Y Y Y T Y Y Y Y Y Y Y Y Y Y Y Y Y Y Y Y Y T N e e N T Y U Y Y Y Y Y Y Y Y Y Y Y Y Y Y Y Y Y Y Y Y Y Y Y ",
"Y Y Y Y Y Y Y Y Y Y Y Y Y Y Y Y Y Y Y Y Y Y Y Y T w         e T Y Y Y T Y Y Y Y Y Y Y Y Y Y Y Y Y Y Y Y Y Y Y Y ",
"Y Y Y Y Y Y Y Y Y Y Y Y Y Y Y Y Y Y Y T Y Y U W M     .       M W U Y Y Y Y Y Y Y Y Y T Y Y Y Y Y Y Y Y Y T Y Y ",
"Y Y Y Y Y Y Y Y Y Y Y Y Y Y Y Y Y Y Y Y Y Y U E 0             0 E U Y Y Y Y Y Y Y Y Y Y Y Y Y Y Y Y Y Y Y Y Y Y ",
"Y Y Y Y Y Y Y Y Y Y Y Y Y Y Y Y Y Y Y Y Y Y U E 8             0 E U Y Y Y Y Y Y Y Y Y Y Y Y Y Y Y Y Y Y Y Y T Y ",
"Y Y Y Y Y T Y Y Y Y Y Y Y Y Y Y Y Y Y Y Y Y U W s             s W U Y Y Y Y Y Y Y Y Y T Y Y Y Y Y Y Y Y Y Y Y Y ",
"T Y Y Y Y Y Y Y Y Y Y Y Y Y Y Y Y Y Y Y Y Y Y Y P ,         , P T Y Y Y Y Y Y Y Y Y Y Y Y Y Y Y Y Y Y Y Y Y Y Y ",
"Y Y Y Y Y Y Y Y Y Y Y Y T Y Y Y Y Y Y T Y Y Y U R P X     + P E U Y Y Y Y Y Y Y Y Y Y Y Y Y Y Y Y Y Y Y Y Y Y Y ",
"Y Y Y Y Y Y Y Y Y Y Y Y Y Y Y Y Y Y Y Y Y Y Y T T 0         0 R Y Y Y Y Y Y Y Y Y Y Y Y Y Y Y Y Y Y Y Y Y Y Y Y ",
"Y Y Y Y Y Y Y Y Y Y Y Y Y Y Y Y Y Y Y Y Y U T T 0             q R Y U Y T Y Y Y Y Y Y Y Y Y Y Y Y Y Y Y Y Y Y Y ",
"Y Y Y Y Y Y Y Y Y Y Y Y Y Y Y Y Y Y Y Y U R U 1                 8 Y R U Y Y Y Y Y Y Y Y Y Y Y Y T Y Y Y Y Y Y Y ",
"Y Y Y Y Y Y Y Y Y Y Y Y Y Y Y Y Y Y Y U E G =                     - J W U Y Y Y Y Y Y Y T Y Y Y Y Y T Y Y Y Y Y ",
"Y Y Y Y Y Y Y Y Y Y Y Y Y Y Y Y Y Y Y W V X                         + V W U Y Y Y Y Y Y Y Y Y Y Y Y Y Y Y Y Y Y ",
"Y Y Y Y Y Y Y Y Y Y Y Y Y Y Y Y Y Y R p                                 p E Y Y Y Y Y Y Y Y Y Y Y Y Y Y Y Y Y Y ",
"Y Y Y Y Y T Y Y Y Y Y Y Y Y Y Y U R t                 c c                 t E U Y Y Y Y Y Y Y Y Y Y Y Y Y Y Y Y ",
"Y Y Y Y Y Y Y Y Y Y Y T Y Y Y U W n                 %  . .%                 m W U Y Y Y Y Y Y Y Y Y Y Y Y Y Y Y ",
"Y Y Y Y Y Y Y Y Y Y Y Y Y Y Y T P #                 % } } %                 $ U T Y Y Y Y Y Y Y Y Y Y Y Y Y Y Y ",
"Y Y Y Y Y Y Y Y Y Y Y Y Y Y U E M               % % 3  . .3 % %               N E U Y Y Y Y Y Y Y Y Y Y Y Y Y Y ",
"Y Y Y Y Y Y Y Y Y Y Y Y Y Y U E q             j .. ......... ...z   .         e W U Y Y Y Y Y Y Y Y Y Y Y Y Y Y ",
"Y Y Y Y Y Y Y Y Y Y T Y Y Y Y T -             7 } { } ....{ [  .k             , T Y Y Y Y Y Y Y Y Y T Y Y Y Y Y ",
"Y Y Y Y Y Y Y Y Y Y Y Y Y Y Y U $               . o &  . .&   o               $ U Y Y Y Y Y Y Y Y Y Y Y Y Y Y Y ",
"Y T Y Y Y Y Y Y Y Y Y Y Y Y Y Y $                   %  . .%                   - T Y Y Y Y Y Y Y Y Y Y Y Y Y Y Y ",
"Y Y Y Y Y Y Y Y Y Y Y Y Y Y Y T ,                   O } } O                   2 E U Y T Y Y Y Y Y Y Y Y Y Y Y Y ",
"Y Y Y Y Y Y Y Y Y Y Y Y Y Y U W p                     6 6                     s E U Y Y Y Y Y Y Y Y Y Y Y Y Y Y ",
"Y Y Y Y Y Y Y Y Y Y Y Y Y Y Y R G .                 o     o o               . G T Y Y Y Y Y Y Y Y Y T Y Y Y Y Y ",
"Y Y Y Y Y Y Y Y Y Y Y Y Y Y Y U W t                                         u E U Y Y Y Y Y Y Y Y Y Y Y Y Y Y Y ",
"Y Y Y T Y Y Y Y Y Y Y Y Y Y Y Y Y Y 2         o h c v b b v c h o         0 T Y Y Y Y Y Y Y Y Y Y Y Y Y Y Y Y Y ",
"Y Y Y Y Y Y Y Y Y T Y Y Y Y Y Y U T T y       7 ................7       i T Y Y Y Y Y Y Y Y Y Y Y Y Y Y Y Y Y Y ",
"Y Y Y Y Y Y Y Y Y Y Y Y Y Y Y Y Y Y Y W S :   ! .... . . .......~   : S E Y Y Y Y Y Y Y Y Y Y Y Y Y Y Y Y Y T Y ",
"Y Y Y Y Y Y Y Y Y Y Y Y Y Y Y Y Y Y U U W <   c l 6 4 3 3 3 6 l c   1 W U Y Y Y Y Y Y Y Y Y Y Y Y Y Y Y Y Y Y Y ",
"Y Y Y Y Y Y Y Y Y Y Y Y Y Y Y Y Y Y Y R A                             Z E U Y Y Y Y Y Y Y Y Y Y Y Y Y Y Y Y Y Y ",
"Y Y Y Y Y Y Y Y Y Y Y Y Y Y Y Y Y Y U W e     O 3 6 h k k h 6 3 O     e W U Y Y Y Y Y Y Y Y Y Y Y Y Y Y Y Y Y Y ",
"Y Y Y Y Y Y Y Y Y Y Y Y Y Y Y Y Y Y T L . 3 ) ]  ............. .[ _ 5 . P T Y Y Y Y Y Y T Y Y Y Y Y Y Y Y Y Y Y ",
"Y Y Y Y Y Y Y Y Y Y Y Y Y Y Y T Y U W n   ! ........................^   n W U Y Y Y Y Y Y Y Y Y Y Y Y Y Y Y Y Y ",
"Y Y T Y Y Y Y Y Y Y Y Y Y Y Y Y Y Y T - O ` ( Q v x k h h k x v Q ( ' % = T Y Y Y Y Y Y Y Y Y Y Y T Y Y Y Y Y Y ",
"Y Y Y Y Y Y Y Y Y Y Y Y Y Y Y Y Y R S   o o                         o o   D R U Y Y Y Y Y Y Y Y Y Y Y Y Y Y Y Y ",
"Y Y Y Y Y Y Y Y Y Y Y U U U U Y U Y U F s 1 $ X o             o o $ 2 d F U Y Y U Y U U Y U Y Y Y Y Y Y Y Y Y Y ",
"Y Y Y Y Y Y U U Y R E W W W W R T Y U T E T R C   3 / o % / &   C R T E T Y Y T E E W E W W R Y U Y Y Y Y Y Y Y ",
"Y Y Y Y Y Y T W Y S M n m g M S K Y R E E R C =   _ [     [ )   = S R E E R Y K S M g m n M S Y E T Y Y Y Y Y Y ",
"Y Y Y Y Y T P p $               X $ 1 e t 1 .   b { v     b { v   . 1 t e 1 $ .               * p P T Y Y Y Y Y ",
"Y Y Y Y T D +                                   o     + +     o                                   + F T Y Y Y Y ",
"Y Y Y Y T K @                                     .   y t   .                                     # K T Y Y Y Y ",
"Y Y Y Y Y W M   .                 .                 # K K $                 .               .     N W U Y Y Y Y ",
"Y Y Y Y Y Y R 8       . .                         > K T T L ,                         .         9 R U Y Y Y Y Y ",
"Y Y Y Y Y Y R D = f S H J S N s e 1 = X       : n T T U U T T d =       X = 1 e s N S J J S d = F R Y Y Y Y Y Y ",
"Y Y Y Y Y Y Y Y Y W E T T E E W E R Y K F A G T W Y U T Y Y Y W Y F C D K Y R W W W E T T R W Y Y Y Y Y Y Y Y Y ",
"Y Y Y Y Y Y Y Y Y U U Y U U U U U Y Y T T R T Y U Y Y Y Y Y Y U Y R E R T Y Y U U U U Y U Y U Y Y Y Y Y Y Y Y Y ",
"Y Y Y Y Y Y Y Y Y Y Y Y Y Y T Y Y Y Y Y U Y Y Y Y Y Y Y Y Y Y Y Y Y U Y Y Y Y Y Y Y Y Y Y Y Y Y Y Y Y Y Y Y Y T ",
"Y Y Y Y Y Y Y Y Y Y Y Y Y Y Y Y Y Y Y Y Y Y Y Y Y Y Y Y Y Y Y Y Y Y Y Y Y Y Y Y Y Y Y Y Y Y Y Y Y Y Y Y Y Y Y Y ",
"Y Y Y Y Y Y Y Y Y Y Y Y Y Y Y Y Y Y Y Y Y Y Y Y Y Y Y Y Y Y Y Y Y Y Y Y Y Y Y Y Y Y Y Y Y Y Y Y Y Y Y Y Y Y Y Y ",
"Y Y Y Y Y Y Y Y Y Y Y Y Y Y Y Y Y Y Y Y Y Y Y Y Y Y Y Y Y Y Y Y Y Y Y Y Y Y Y Y Y Y Y Y Y Y Y Y Y Y Y Y Y Y Y Y "
};
