/* XPM */
static char *bdd__[] = {
/* columns rows colors chars-per-pixel */
"52 52 93 2",
"   c #010F00DB009C",
".  c #08CE069E03F5",
"X  c #0BA608D0055D",
"o  c #06E4091B0BDD",
"O  c #09D30A860B65",
"+  c #110A0C52068F",
"@  c #16DD108808CD",
"#  c #1C3414370A76",
"$  c #0E691167150F",
"%  c #13AE131A1267",
"&  c #17C1176C1704",
"*  c #1B141B301B52",
"=  c #202F17200C13",
"-  c #22DB190D0D17",
";  c #2E3F217011CE",
":  c #35F3270214C5",
">  c #379628301566",
",  c #3AF02A2415A4",
"<  c #3DF52CCB17DA",
"1  c #1B8D1D6A1FAB",
"2  c #2DDD2D932D38",
"3  c #323031E93192",
"4  c #38F838393751",
"5  c #3F453E8D3DAE",
"6  c #40712EA018E3",
"7  c #46BA33231B3B",
"8  c #4B8A360B1BCF",
"9  c #50B13A581F12",
"0  c #54B63D3F209D",
"q  c #57DA3F8421D2",
"w  c #5B9C423C2344",
"e  c #618F468A258F",
"r  c #65BE498F272B",
"t  c #6BDD4DFD2986",
"y  c #6FAE50DC2B42",
"u  c #73A1539A2C85",
"i  c #788F572A2E69",
"p  c #7ADF58D12F3D",
"a  c #7D395A893035",
"s  c #48644773464C",
"d  c #4DE14CE94BBB",
"f  c #566A55A554B6",
"g  c #5DDC5D0F5C16",
"h  c #63B1634E62D6",
"j  c #684D67DA674E",
"k  c #6D696CDD6C30",
"l  c #77A5774676D3",
"z  c #77FD76F275AC",
"x  c #80645CD3316E",
"c  c #8640611133AF",
"v  c #898C637334F4",
"b  c #944E6B4F3949",
"n  c #98546E223AA4",
"m  c #9CE771713C67",
"M  c #A3F8768D3F20",
"N  c #A30676774017",
"B  c #A782791C407D",
"V  c #A8E87A1E4106",
"C  c #B37281BD4515",
"Z  c #B92F85E4474B",
"A  c #B9B786DA48C8",
"S  c #BD3C88D248DA",
"D  c #C52C8E9A4C02",
"F  c #CC0393804E8A",
"G  c #CFC796394FFD",
"H  c #D20297D550D7",
"J  c #D5AE9A7E5243",
"K  c #DA639DE55413",
"L  c #DF04A13E55DB",
"P  c #E254A3A6572A",
"I  c #E4DCA5815831",
"U  c #EBB5AA6B5ABE",
"Y  c #8798873A86C6",
"T  c #88CC886B87F4",
"R  c #8F7D8F1D8EA7",
"E  c #931F92BF9249",
"W  c #9B5A9AFB9A88",
"Q  c #A05D9FF89F7C",
"!  c #A385A315A28D",
"~  c #A842A7EDA785",
"^  c #ABDBAB9EAB54",
"/  c #B072AF77AE44",
"(  c #B0B8B051AFD3",
")  c #B4D3B46DB3F1",
"_  c #BDDABD51BCA9",
"`  c #C414C3C4C362",
"'  c #D481D438D3E0",
"]  c #E147E0D9E053",
"[  c #E4CDE4A5E474",
"{  c #ECA2EC74EC3C",
"}  c #F3AEF33CF2B3",
"|  c #F89DF7DAF6E6",
" . c #FEF3FEEAFEDF",
/* pixels */
"J J J J J J J J J J J J J J J J J J J J J J J J J J J J J J J J J J J J J J J J J J J J J J J J J J J J ",
"J J J J J J J J J J J J J J J J J J J J J J J J J J J J J J J J J J J J J J J J J J J J J K J J J J J J ",
"J J J J J J J J J J J J J J K J J J J J J J J J J H J J J J J J J J J J J J J J J J J J J J J J J J J J ",
"J J J J J J J J J J J J J J J J J J J J J J J J J K K H J J J J J J J J J J J K J J J J J J J J J J J J ",
"J J J J K J J J J J J J J J J J J J J J J J H K P F F P K H J J J K J J J J J J J J J J J J J J J J J J ",
"J J J J J J J J K J J J J J J J J J J J J J K D 7 X X 8 F K J J J J J J J J J J J J J J J J J J J J K J ",
"J J J J J J J J J J J J J J J J J K J J J J J ;         ; H J J J J J J J J J J J J J J J J J J J J J J ",
"K J J J J J J J J J J J J J J J J J J J H P b             b P H J J J J J J J J J J K J J J J J J J J J ",
"J J J J J J J J J J J J J K J J J J J J H I i             i I H J J J J J J J J J J J J J J J J J J J J ",
"J J J J J J K J J J J J J J J J J J J J H P b             b P H J J J J J J J K J J J J J J J J J J J J ",
"J J J J J J J J J J J J J J J J J J J J J J J :         > J J J J J J J J J J J J J J J J J K J J J J J ",
"J J J J J J J J J J J J J J J J J J J J J J J J -     - J K J J J J J J J J J J J J J J J J J J J J J J ",
"J J K J J J J J J J J J J J J J J J J J J J I u         u I J J J J J J J J J J J J J J J J J J J J J J ",
"J J J J J J J J J J J K J J J J J J J J J I u             u I J J J J J J J J J J K J J J J J J J J J J ",
"J J J J J J J J J J J J J J J J J J H K L w                 r P K H J J J J J J J J J J J J J J J J J J ",
"J J J J J J J J J J J J J J J J J H L H 6                     7 H L H K J J J J J J J J J J J J J K J J ",
"J J J J J J J J J J J J J J J J H P C =                         - C I H J J J J J J J J J J J J J J J J ",
"J J J J K J J J J J J J J J J H P b                                 b I J J J J J J J J J J J J J J J J ",
"J J J J J J J J J J J J J J H P m                 ^ )                 M P H J J J J J J J J J J J J J J ",
"J J J J J J J J J J J J J J K F #               O { { O               # F K J J J J J J J J K J J J J K ",
"J J J J J J J J J J J J J H I x                 o { [ .                 v P H J J J J J J J J J J J J J ",
"J J J J J J J J J J J J J H P <           . E ^ ^ | | ^ ^ E O           7 P J J J J J J J J J J J J J J ",
"J J J J J J J J J J J J J J F #           % {  . . . . . .| *           # H J J K J J J J J J J J J J J ",
"J J J K J J J J J K J J J K S .             * 2 3 { { 2 2 *             . D K J J J J J J J J J K J J J ",
"J J J J J J J J J J J J J K S .                 o { [ o                 X D K J J J J J J J J J J J J J ",
"J J J J J J J J J K J J J J G #                   [ [ .                 - J J J J J J J J J J J J J J J ",
"J J J J J J J K J J J J J H P 7                   2 3                   8 P H J J J J J J K J J J J J J ",
"J J J J J J J J J J J J J J P m             .           .               m P H J J J J J J J J J J J J J ",
"J J J J J J J J J J J J J J H L 7                                     8 L J J J J J J J J J J J J J J J ",
"J K J J J J J J J J J J J J J K H >         j W ~ ^ ) ~ W j         < H J J J J J J J J J J J J J J J J ",
"J J J J J J J J J J J J J J J J K K u .   % {  . . . . . .{ &   . u K K J J J J J J J J J J J J J J J J ",
"J J J J J J J J J J J J J J J J H H U M   f [ ) ^ ! ! ^ ) ] g   M U J J J J J J J K J J J J J J J K J J ",
"J J J J J J J J J J J J J J J J J H I u   % .             . %   y I H J J J J J J J J J J J J J J J J J ",
"J J J J J J J J J J J J J K J J J J H =           . o           # H J J J J J J J J J J J J J J J J J J ",
"J J J J J J J J J J J J J J J J H P b   s R ^ ` ' ' ' ' ` ^ E d   b P H J J J J J J J K J J J J J J J J ",
"J J J J J J J J J J J J J J J J H P < o {  . . . . . . . . . .} % > I J J J J J J J J J J J J J J J J J ",
"J J J J J J J J J J J J J J J J K S   k | _ Q T l k k l T ! _ | l   A K J J J J J J J J J J J J J J J J ",
"J J J J J J J J J J J J J J J H I t   * o                     O *   y I H J J J J J J J J J J J J J J J ",
"J K J J J J J J J H H H H H H J J D b 8 # . o     .       O . # 8 b D J H H H H H H H H J J J J J J J J ",
"J J J J J J H K P I I I I I P L K K L P L D & o / % * ^ o - D P I P K K L I I I I I I P J H J K J J J J ",
"J J J J J K I H M a t t r u n C D J K K Z , o ) {   . } /   6 S K K J D C b u t y t a B H I J J J J J J ",
"J J J J J H u #                 + - > : X   w ) h     j ) 4   X : , - X                 # i H J J J J J ",
"J J J H P w                                       # #                               .       w P J J J J ",
"J J J J K M           .                       .   p p   .                                   M L J J J J ",
"J J J J H I w                                   8 K K 9                                   e I H J J J J ",
"J J J J J K F @ . < w e 8 : #               + i K J J L u .               # ; 8 e w 7   # F K J J J J J ",
"J J J J J J L V Z I I I P K F S M v t q w c F I H J J J I D a q 9 t v M S F K P P I I Z V K H J J J J J ",
"J J K J J J H L K H H H J H K K P P I P I P K H J J J J H K I I I I I P K K J H H H J K L J J J J J J J ",
"J J J J J J J J J J J J J J J J H H J H H H J J J J J J J J H J J H J H J J J J J J J J J J J J J J K J ",
"J J J J J J J J J J J J J J J J J J J J J J J J J J J J J J J J J J J J J J J J J J J J J J J J J J J J ",
"J J J J J J J J K J J J J J J J J J J J J J J J K J J J J J J J J J J J J J J J J J J J J J J J J J J J ",
"J J J J J J J J J J J J J J J J J J J J J J J J J J J J J J J J J J J J J J J J J J J J J J J J J J J J "
};
