/* XPM */
static char *bdd__[] = {
/* columns rows colors chars-per-pixel */
"72 72 96 2",
"   c #00CE00A9007C",
".  c #0880065403AE",
"X  c #0C8B092104F8",
"o  c #0D370CE10C79",
"O  c #121C0D350739",
"+  c #13570EA008DD",
"@  c #16BA106F08C0",
"#  c #1BD0141C0AB5",
"$  c #13B6136F1318",
"%  c #19BE18C0178A",
"&  c #1B3F1A9819CD",
"*  c #202E17440C63",
"=  c #23B119CE0DBD",
"-  c #2AAE1F7B11CF",
";  c #2DCC21601238",
":  c #33EE25E114BD",
">  c #370B27EF157E",
",  c #3A9A2A5F168F",
"<  c #3F1B2DA0184B",
"1  c #22C62214213C",
"2  c #27AF25D62395",
"3  c #2B562A8A2991",
"4  c #304D2F572E2A",
"5  c #33D9333F3285",
"6  c #3C7A3BED3B42",
"7  c #41202F161912",
"8  c #441C313F1A39",
"9  c #4A5C35EF1D01",
"0  c #4DEF38591E01",
"q  c #50DC3A761F21",
"w  c #55383D9A20C7",
"e  c #5CD9434F2424",
"r  c #6126463D2566",
"t  c #64F8490026DF",
"y  c #6B844DBC2964",
"u  c #752D54B82D1C",
"i  c #78BF574E2E7D",
"p  c #7A8A58992F2D",
"a  c #7BFD59A52FBB",
"s  c #466845EF455C",
"d  c #4CBD4C7E4C31",
"f  c #506250555047",
"g  c #5D655CDE5C39",
"h  c #60445FCB5F38",
"j  c #645263C6631A",
"k  c #6CC56C246B5F",
"l  c #753074AB7408",
"z  c #79A478E277F6",
"x  c #7BD57B2B7A5B",
"c  c #81DD5DFB3230",
"v  c #87AE6219343C",
"b  c #8A1363D43528",
"n  c #909E688F37AD",
"m  c #93EF6AFD3905",
"M  c #992D6EC03AF8",
"N  c #9E9D72AE3D10",
"B  c #A3C476683F0C",
"V  c #A79079274083",
"C  c #AACB7B8B41E1",
"Z  c #B41082304552",
"A  c #B8E285AC472D",
"S  c #BB79878C482C",
"D  c #BF898A7B49BC",
"F  c #C4968E204BAC",
"G  c #C78C90464CD2",
"H  c #CCFC94354EEB",
"J  c #CFDA96475005",
"K  c #D1D697B650C8",
"L  c #D5BB9A875248",
"P  c #DACE9E33543C",
"I  c #DF54A17855FA",
"U  c #E24EA39E571F",
"Y  c #E520A5A95835",
"T  c #E875A812597E",
"R  c #855D84C78411",
"E  c #8B9B8AFD8A3B",
"W  c #94CA9434937E",
"Q  c #98B2983797A1",
"!  c #9CD69C749BFD",
"~  c #A0ACA0349FA1",
"^  c #A3B2A335A29D",
"/  c #ACD6AC89AC2B",
"(  c #B076AFFDAF6A",
")  c #B37CB300B26A",
"_  c #BEC6BE4ABDB2",
"`  c #C375C30CC28C",
"'  c #CC7ACBF4CB50",
"]  c #D0A0D03BCFC0",
"[  c #D0E3D061CFC3",
"{  c #D798D722D694",
"}  c #D9F7D999D926",
"|  c #E570E50FE498",
" . c #E87EE805E76F",
".. c #EC04EBAEEB45",
"X. c #F41BF3D5F37F",
"o. c #FF6FFF6BFF68",
/* pixels */
"L L L L L L L L L L L L L L L L L L L L L L L L L L L L L L L L L L L L L L L L L L L L L L L L L L L L L L L L L L L L L L L L L L L L L P L L ",
"L L L L L L L L L L L L L L L L L L L L P L L L L L L L L L L L L L L L L L L L L L L L L L L L P L L L L L L L L L L L L L L L L L L L L L L L ",
"L L L L L L L L L L L L L L L L L L L L L L L L L L L L L L L L L L L L L L L L L L L L L L L L L L L L L L L L L L L L L L L L L L L L L L L L ",
"L L L L L L L P L L L L L L L L L L L L L L L L L L L L L L L L L L L L P L L L L L L L L L L L L L L L L L P L L L L L L L L L L L L L L L L L ",
"L L L L L L L L L L L L L L L L L L L L L L L L L L L L L L L L L L L L L L L L L L L L L L L P L L L L L L L L L L L L L L P L L L L L L L L L ",
"L L L L L L L L L L L L L P L L L L L L L L L L L L L L L L L L L K L P P L K L L L L L L L L L L L L L L L L L L L L L L L L L L L L L L L L L ",
"L L L L L L L L L L L L L L L L L L L L L L L L L L L L P L L L L U L S S L Y K L L L L L L L L L L L L L L L L L L L L L L L L L L L L L L L L ",
"L L L L L L L L L L L L L L L L L L L L L L P L L L L L L L L L I c # . . * c I L L L L L L L L L L L L L L L L L L L L L L L L L L L L L L L P ",
"L L L L L L L L L L L L L L P L L L L L L L L L L L L L L L K I r             t U K L L L L L L L L L L L L L L L L L L L L L L L L L L L L L L ",
"L L L L L L L L L L L L L L L L L L L L L L L L L L L L L K U N                 N U K L L L L L L L L L L L L L L L L L L L L P L L L L L L L L ",
"L L L L L L L L L L L L L L L L L L L L L L L L L L L L L K U q                 q U L L L L L L L L L L L L L L L L L L L L L L L L L L L L L L ",
"L L L L L L L L L L L L L L L L L L L L L L L L L L L L L L P :                 : P L L L L L L L L L L L L L L L L L L L L L L L L L L L L L L ",
"L L L L L L L L L L L L L L L L L L L L L L L L L L L L L L I <                 7 I K L L L L L L L L L L L L L L L L L L L L L L L L L L L L L ",
"L L L L L L L L L L L L L L L L L L L L L L L L L L L L L K Y i   .         .   i Y L L L L L L L L L L L L L L L L L L L L L L L L L L L L L L ",
"L L P L P L L L L L L L L L L L L L L L L L L L L L L L L L P H =             = H L L L L L L L L L L P L P L L L L L L L L L L L L L L L L L L ",
"L L L L L L L L L L L L L L L L L L L P L L L L L L L L L L K P F >         > G P K L L L L L L L L L L L L L L L L L L L L L L L L L L L P L L ",
"L L L L L L L L L L L L L P L L L L L L L L L L L L L L L L L K Y q         q Y K K L L L L L L L L L L L L L L L L L L L L L L L L L L L L L L ",
"L L L L L L L L L L L L L L L L L L L L L L L L L L L L L L L Y w             e Y L L L L L L L L L L L L P L L L L L L L L L L L L L L L L L L ",
"L L L L L L L L L L L L L L L L L L L L L L L L L L L L L L U w                 e Y L L L L L L L L L L L L L L L L L L L L L L L L L L L L L L ",
"L L L L L L L L L L L L L L L L L L L L L L L L L L L K P P 0                     w P P L L L L L L L L L L L L L L L L L L L L L L L L L L L L ",
"L L L L L L L L L L L L L L L L L L L L L P L L L L K I H >                         7 K P K L L L L L L L L L L L L L L L L L L L L L L L L L L ",
"L L L L L L L L L L L L L L L L L L L L L L L L L K Y Z #                             = S Y K L L L L L L L L L L L L L L L L L L L P L L L L L ",
"L L L L L L L L L L L L L L L L L L L L L L L L L Y b X                                 X m Y L L L L L L L L L L L L L L L L P L L L L L L L L ",
"L L L L L L L P L L L L L L L L L L L L L L L L I r                                         r P P K L L L L L L L L L L L L L L L L L L L L L L ",
"L L L L L L L L L L L L L L L P L L L L L K P L <                                             < L P L L L L L L L L L L L L L L L P L L L L L L ",
"L L L L L L L L L L L L L L L L L L L L L L P 7                     % { { %                 .   8 P L L L L L L L L L L L L L L L L L L L L L L ",
"L L L L L L L L P L L L L L L L L L L L K Y u                       d o.o.d                       p Y K L L L L L L L L L L L L L L L L L L L L ",
"L L L L L L L L L L L L L L L L L L L L P D X                   .   f o.o.f   . .                 + F P L L L L L L L L L L P L L L L L L L L L ",
"L L L L L L L L L L L L L L L L L L L K Y i                         d o.o.d   .                     c Y K L L L L L L L L L L L L L L L L L L L ",
"L L L P L L L L L L L L L L L L L L L K P :                 % l x k ! o.o.! k z l 1                 7 U L L L L L L L L L L L L L L L L L L L L ",
"L L L L L L L L L L L L L L L L L L L P F X                 W o.o.o.o.o.o.o.o.o.o.^   .             + G L L L L L L L L L L L L L L L L L L L L ",
"L L L L L L L L L L L L L L L L L L L U B               .   k o.X.X.o.o.o.X.X...o.x                   C U L L L L L L L L L L L L L L L L L L L ",
"L L L L L L L L L L L L L L L L L L K U m                     & 1 $ j o.o.j o 1 &                     M U K L L L L L L L L L L L L L L L L L L ",
"L L L L L L L L L L L L L L L L L L L U n                           d o.o.d                           M U K L L L L L L L L L L L L L L L L L L ",
"L P L L L L L L L L L L L L L L L L K U B                       .   f o.o.f   .                       C I L L L L L L L L L L L L L L L L L L L ",
"L L L L L L L L L L L L L L L L L L L P S                           6 o.o.6                         . F P L L L L L L L L L L L L L L L L L L P ",
"L L L L L L L L L L L L P L L L L L L L L =                           f d                           ; L L L L L L L L L L L L L L L L L L L L L ",
"L L L L L L L L L L L L L L L L L L L K U u                                                         u Y K L L L L L L L L L L P L L L L L P L L ",
"L L L L L L L L L L L L L L L L L L L L P F +                     . . . .     .                   + G P L L L L L L L L L L L L L L L L L L L L ",
"L L L L L L L L L L P L L L L L L L L L K Y c                                                     v Y K L L L L L L L L L L L L L L L L L L L L ",
"L L L L L L L L L L L L L L L L L L L L L L U e             . 5 d g k l l k g d 5 o             t U L L L L L L L L L L L L L L L L L L L L L L ",
"L L L L L L L L L L L L L L L L L L L L L L L U p .         g o.o.o.o.o.o.o.o.o.o.j         . c U L L L L L L L L L L L L L P L L L L L L L L L ",
"L L L L P L L L L L L L L L L L L L L L L L L K Y Z :   .   Q o.o.o.o.o.o.o.o.o.o.^   .   > A Y L L L L L L L L L L L L L L L L L L L L L L L L ",
"L L L L L L L L L L L L L L L L L L L L L L L L K P Y e   & X.o.| } ' ' ' ] }  .o.X.1   e T P K L L L L L L L L L L L L L L L L L L L L L L L L ",
"L L L L L L L L L L L L L L L L L L L L L L L L L K P >   & 6 & o             o % 6 &   , P K L L L L L L L L L L L L L L L L L L L L L L L L L ",
"L L L L L L L L L P L L L L L L L L L L L L L L K I C                                     V I K L L L L P L L L L L L L L L L L L L L L L L L L ",
"L L L L L L L L L L L L L L L L L L L L L L L L K Y w                                 .   w Y K L L L L L L L L L L L L L L L L L P L L L L L L ",
"L L L L L L L L L L L L L L L L L L L L L L L L P F O   & s k E ^ ) _ ` ` _ ) ^ E k s &   O F P L L L L L L L L L L L L L L L L L L L L L L L L ",
"L L L L L L L L P L L L L L L L L L L L L L L K Y c   %  .o.o.o.o.o.o.o.o.o.o.o.o.o.o.X.1   a Y K L L L L L L L L L L L L L L L L L L L L L L L ",
"L L L L L L L L L L L L L L L L L L L L L L L K P :   k o.o.o.o.o.o.o.o.o.o.o.o.o.o.o.o.x   : P L L L L L L L L L L L L L L L L L L L L L L L L ",
"L L L L L L L L L L L L L L L L L L L L L L L U C   . { o.| ' ( Q R x l l x E Q ( ' ..o.| o   C U K L L L L L L L L L L L L L L L L L L L L L L ",
"L L L L L L L L L L L L L L L L L L L L L L K U 9   & j 3 o                         @ 4 k 2   9 I L L L L L L L L L L L L L L L P L L L L L L L ",
"P L L L L L L L L L L L L L L L L L L L L L L L w .             . . . .   . . .             X w L L L L L L L L L L L L L L L L L L L L L L L L ",
"L L L L L L L L L L L L L L L L L L L L L L L L I F m e - .                         X ; e m G I L L L L L L L L L L L L L L L L L L L L L L L L ",
"L L L L L L L L L L L K K L P L L P L L K K L K K P U U K H m .   x E     W l   . m J K Y U P K K K K K L L P L L L L L K L L L L L L L L L L L ",
"L L L L L L L L K L P Y U P H K H H L U Y Y U P P L K L Y F ;   6 o.^     / o.5   : F Y L K L L I U Y Y U K H K K K L U Y P L L L L L L L L L L ",
"L L L L L L L K U I Z u 7 = @ # # + * 7 e p M Z H L K F p X   4 | o.g     j o.| 3   X p F K L H C M p e 7 * + @ @ # = 8 i Z I I K L L L L L L L ",
"L L L L L L L I C >                             X * * .       R / Q %     % Q / z       X * * X                             > C U L L L L L L L ",
"L L L L L K U i                                                       + +                                                       i I K L L L L L ",
"L L L L L L U i   .                                               .   e e   .                                               .   i U K L L L L L ",
"L L L L L L L P :                                                     Z Z                                                     > I L L L L L L L ",
"L L L L L L K U C                                                   b I I m .                           .                     C U K L L L L L L ",
"L L L L L L L K Y r           .                                 @ B Y K K Y V @                                 .           t Y L L L L L L L L ",
"L L L L L L L L P H @ * i B Z D A N c r 9 ; @ .             @ y H U K L L J I H e O               + : 9 t c N A D Z B i * @ K P L L L L L L L L ",
"L L L L L L L L L P Z H T U P P I U Y Y U P H S B b y r y M H Y P K L L L L L P U F n y e y b B S H P U Y Y U P P I I T H Z P L L L L L L L L L ",
"L L L L L L L L L L P L K L K L L K K K L L L P U Y Y Y Y U L K L L L L L L L L K P Y Y Y Y Y U P L L L K K K L L L K K P P K L L L L L L L L L ",
"L L L L P L L L L L L L L L L L L L L L L L L L K K K L K L L L L L L L L L L L L L K K L K K L L L L L L L L L L L L L L L L L L L L L L L L L ",
"L L L L L L L L L L L L L L L L L L L L L L L L L L L L L L L L L L L L L L L L L L L L L L L L L L L L L L L L L L L L L L L L L L L L L L L L ",
"L L L L L L L L L L L L L L L L L L L L L L L L L L L L L L L L L L L L L L L L L L L L L L L L L L L L L L L L L L L L L P L L L L L L L L L L ",
"L L L L L L L L L L L L L L L L L L L L L L L L L L L L L L L L L L L L L L L L L L L L L L L L L L L L L L L L L L L L L L L L L L L L L L L L ",
"L L L L L L L L L L L L L L L L L L L L L L L L L L L L L L L L L L L L L L L L L L L L L L L L L L L L L L L L L L L L L L L L L L L L L L P L ",
"L L L L L L L L L L L L P L L L L L L L L L L L L L L L L L L L L L L L P L L L L L L L L L L L L L L L L L L L L L L L L L L L L L L L L L L L "
};
