/* XPM */
static char *bdl__[] = {
/* columns rows colors chars-per-pixel */
"24 24 167 2",
"   c #000600030001",
".  c #009700700042",
"X  c #010D00C80076",
"o  c #00F600E300CC",
"O  c #019001620113",
"+  c #03070253017A",
"@  c #023B02470255",
"#  c #02B6025101DB",
"$  c #052D02A90000",
"%  c #0414030901C9",
"&  c #0489036101FE",
"*  c #058F04230270",
"=  c #05D9045B0290",
"-  c #06B604FB02E7",
";  c #048404650440",
":  c #049904740449",
">  c #04CC04BE04AE",
",  c #05FB04E7039C",
"<  c #06A80588042E",
"1  c #07C705CB0369",
"2  c #09B60741044E",
"3  c #0A7407C90495",
"4  c #0B52086E04F7",
"5  c #0A52083805B4",
"6  c #0BCD08D40541",
"7  c #0E5A0AB0064A",
"8  c #0EFD0B5706F5",
"9  c #105F0C5A0787",
"0  c #183912620B60",
"q  c #1A0813570B4F",
"w  c #1BDE14B50C1D",
"e  c #139F139113A3",
"r  c #143E1434144C",
"t  c #1AF9162B1067",
"y  c #1C391765119B",
"u  c #1E3F1E3B1E36",
"i  c #1F7D1F781F72",
"p  c #2E1022381400",
"a  c #242D21611E05",
"s  c #24BE22061ECF",
"d  c #301623B914E3",
"f  c #334C2633167C",
"g  c #343326E416EC",
"h  c #34F0276C1734",
"j  c #37B829841879",
"k  c #21E523BB25F1",
"l  c #22CE24B72706",
"z  c #2E972E622E1B",
"x  c #2EB12E792E2D",
"c  c #3D3835442BBA",
"v  c #3F81375A2D92",
"b  c #37E937A73758",
"n  c #52953D26236E",
"m  c #54503EE42546",
"M  c #5BD844652841",
"N  c #5C9444F12894",
"B  c #671F4E7730E0",
"V  c #69245038324F",
"C  c #6F6F52FC30D7",
"Z  c #74D556F23316",
"A  c #765A581433C1",
"S  c #499349784958",
"D  c #52904D72474E",
"F  c #54394F4D4965",
"G  c #5F4B5F1F5EEB",
"H  c #610960EA60C5",
"J  c #624661D66151",
"K  c #633662CF6253",
"L  c #7D087CF57CE1",
"P  c #807E5FB33857",
"I  c #82DA6171395A",
"U  c #832D61AF397E",
"Y  c #8F6B69913C69",
"T  c #91646B033D29",
"R  c #A0F472F83BC9",
"E  c #A25973FD3C5B",
"W  c #9AC2733F43D4",
"Q  c #9B2673894400",
"!  c #A0F477DC468C",
"~  c #A1DE788A46F3",
"^  c #A8E57DC64A06",
"/  c #B00C83154D1F",
"(  c #B095837E4D61",
")  c #B2CA85244E5D",
"_  c #B9E28A76518D",
"`  c #BA548AC151AB",
"'  c #BAF48B3A51F4",
"]  c #BC1B8C1E5288",
"[  c #BC468C36528A",
"{  c #BDFA8D795344",
"}  c #BECA8D8A520F",
"|  c #BFCB8F3954F1",
" . c #C34691D4567E",
".. c #C5A0932B569F",
"X. c #C65793B356EF",
"o. c #C6FE94305738",
"O. c #C78F949B5777",
"+. c #CD91992C5A4E",
"@. c #D04D9AB05A5B",
"#. c #CF569A665AE0",
"$. c #D0D09B035A73",
"%. c #D1169BB45BA4",
"&. c #D22A9C825C1D",
"*. c #D3BD9DAE5CCE",
"=. c #D7C0A0AA5E90",
"-. c #DB27A3376017",
";. c #DCA7A46A60C5",
":. c #DD4FA4D26109",
">. c #DD9FA531613A",
",. c #DFE7A6BC6223",
"<. c #E6EFAC07655A",
"1. c #E7FFACC365AF",
"2. c #E871AD1865E1",
"3. c #E88BAD2C65EC",
"4. c #E90EAD8D6626",
"5. c #E984ADE56659",
"6. c #EA16AE52669A",
"7. c #EA8CAEAA66CD",
"8. c #EAFAAEFB66FD",
"9. c #EB48AF366720",
"0. c #EBEFAFB26769",
"q. c #EF2EB21C68D5",
"w. c #EF4DB23468E3",
"e. c #EFE0B2A6692E",
"r. c #F14AB33868BC",
"t. c #F096B3296973",
"y. c #F0DBB36469A1",
"u. c #F17BB36B68F1",
"i. c #F1C1B40769F6",
"p. c #F22AB4566A24",
"a. c #F2FCB4F26A80",
"s. c #F3D2B5916ADE",
"d. c #F404B5B76AF4",
"f. c #F4AAB6336B3D",
"g. c #F537B69B6B7A",
"h. c #F5D5B7116BBF",
"j. c #F628B74F6BE4",
"k. c #F691B7826BD1",
"l. c #F598B71B6C0E",
"z. c #F705B7F46C45",
"x. c #F864B8F96CDF",
"c. c #F836B8FB6D19",
"v. c #F879B9086CE8",
"b. c #F89FB9256CF8",
"n. c #F8D9B9656D41",
"m. c #F98BB9D56D60",
"M. c #FA22BA456DA2",
"N. c #FACCBAC36DEC",
"B. c #FC77BC016EA8",
"V. c #FC86BC0D6EAF",
"C. c #FD6ABCB76F12",
"Z. c #86F086AB8658",
"A. c #89EA89A8895A",
"S. c #8F028ED78EA3",
"D. c #8F118EE48EAF",
"F. c #989D99809A8F",
"G. c #99869A6D9B82",
"H. c #A1D8A1C9A1B9",
"J. c #A4D6A459A3C2",
"K. c #A26AA80AAEC9",
"L. c #A745ACEEB3CC",
"P. c #DAB7DA78DA2D",
"I. c #DB05DAC5DA79",
"U. c #DDE4DDD2DDBC",
"Y. c #DFDCDFC9DFB1",
"T. c #F0DBF04BEF9E",
"R. c #F104F076EFC7",
/* pixels */
"0.0.0.0.0.0.0.0.0.0.0.<.1.0.0.0.0.0.0.0.0.0.0.0.",
"0.0.0.0.0.0.0.0.0.0.q.B.B.q.0.0.0.0.0.0.0.0.0.0.",
"0.0.0.0.0.0.0.0.0.q.,.M N ,.0.0.0.0.0.0.0.0.0.0.",
"0.0.0.0.0.0.0.0.<.B.C     C B.<.0.0.0.0.0.0.0.0.",
"0.0.0.0.0.0.0.0.1.x.I     I x.1.0.0.0.0.0.0.0.0.",
"0.0.0.0.0.0.0.0.<.z.,.6 6 ,.z.<.0.0.0.0.0.0.0.0.",
"0.0.0.0.0.0.0.1.x.-.p     d ,.z.4.0.0.0.0.0.0.0.",
"0.0.0.0.0.0.0.z.' q   &     w ' z.<.0.0.0.0.0.0.",
"0.0.0.0.0.0.z.( &     S S   @ ; ) z.0.0.0.0.0.0.",
"0.0.0.0.0.0.y.g   < u H.H.i <   j s.0.0.0.0.0.0.",
"0.0.0.0.0.q.%.2     Z.Y.U.A.    5 &.e.4.0.0.0.0.",
"0.0.0.0.0.y.#.<   <   L L   <   2 %.p.0.0.0.0.0.",
"0.0.0.0.0.0.q.d       < <       h q.0.0.0.0.0.0.",
"0.0.0.0.0.1.z.' 9   J S.S.J   9 _ z.0.0.0.0.0.0.",
"0.0.0.0.0.0.1.x.%.t F.J.J.G.y &.z.4.0.0.0.0.0.0.",
"0.0.0.0.0.0.0.z.} r x b b x r } z.4.0.0.0.0.0.0.",
"0.0.0.0.1.1.<.z.n K.T.I.I.R.K.m l.<.4.4.0.0.0.0.",
"0.0.0.a.B.x.x.y.B c 5     5 n V y.l.N.n.e.0.0.0.",
"0.0.a.*.^ ! ( #.q.R F G J F R q.+./ Q ^ -.s.4.0.",
"1.x.W         ; 0 & k a s k & 0 > @ @ @ @ W n.4.",
"0.y...2 ; 9           Y T           7 < 2 X.s.0.",
"0.0.g.' O.=.} ~ P A  .B.B. .Z P ~ { =.X._ s.4.0.",
"0.0.0.a.y.q.z.B.B.C.a.0.<.a.C.V.N.z.e.s.s.0.0.0.",
"0.0.0.1.0.0.0.<.1.<.1.0.0.0.<.<.4.4.4.0.4.0.0.0."
};
