/* XPM */
static char *bdl__[] = {
/* columns rows colors chars-per-pixel */
"30 30 188 2",
"   c #000700050004",
".  c #013E012A0111",
"X  c #01CC015200BF",
"o  c #026601C40102",
"O  c #0315024B015A",
"+  c #03E802EB01BC",
"@  c #046003C5030C",
"#  c #049003FF0352",
"$  c #041004180421",
"%  c #058704F30440",
"&  c #0622058D04DC",
"*  c #069905C404C4",
"=  c #094306E80413",
"-  c #09DF075D045B",
";  c #0A7E07D00499",
":  c #0B450B350B21",
">  c #0F670F560F42",
",  c #11760E6C0AC7",
"<  c #11F10EE90B46",
"1  c #177011FE0B81",
"2  c #17B6121F0B68",
"3  c #18E012870AE7",
"4  c #18FB129A0AF3",
"5  c #1438141713F0",
"6  c #13F614CF15E6",
"7  c #14DB15B816D9",
"8  c #16D917F91957",
"9  c #172C184A19A1",
"0  c #18D9187E1811",
"q  c #199F194618DB",
"w  c #1BE41BBF1B92",
"e  c #1BFB1BD51BA8",
"r  c #1C571CF61DB4",
"t  c #1CB41D531E11",
"y  c #1F2D1F121EF1",
"u  c #204E180D0E25",
"i  c #225919940F0E",
"p  c #24251AEB0FD7",
"a  c #2BEF20B71341",
"s  c #2FAC22C31346",
"d  c #2F94236E14DA",
"f  c #339B24821265",
"g  c #33F6247811E1",
"h  c #30B723CC144B",
"j  c #32FF25FA165B",
"k  c #3B742C461A0F",
"l  c #3D812DD21B00",
"z  c #2238221B21F8",
"x  c #27AA2732269D",
"c  c #2880280F2785",
"v  c #26FB2A6F2EC0",
"b  c #28C22C32307B",
"n  c #3342331232D7",
"m  c #358E352B34B4",
"M  c #35C0355C34E5",
"N  c #36DF36B03678",
"B  c #336B36823A37",
"V  c #341637343AF1",
"C  c #316E37CB3F6E",
"Z  c #3C103BDC3B9E",
"A  c #49BE325F1674",
"S  c #4B36337F1722",
"D  c #406C2FFD1C46",
"F  c #425E31731D25",
"G  c #43F0329C1DD1",
"H  c #4A4136271D5E",
"J  c #4A9836791DA2",
"K  c #51153C62238A",
"L  c #53573E102487",
"P  c #55533F8A2566",
"I  c #582741A526A3",
"U  c #610B48442A88",
"Y  c #65DC4BDB2CA5",
"T  c #669A4C682CF8",
"R  c #70034F3A27E2",
"E  c #709153D33156",
"W  c #70D654073174",
"Q  c #711654373191",
"!  c #7442569332F5",
"~  c #76E9588D341F",
"^  c #775F58E43452",
"/  c #35A53C0A43B6",
"(  c #4793476F4742",
")  c #4B1F4AEC4AAF",
"_  c #5384528B5159",
"`  c #5426532D51FB",
"'  c #54DC53DA52AA",
"]  c #538D53B153DD",
"[  c #55D15608564A",
"{  c #59F758F557C1",
"}  c #640863D36393",
"|  c #646A642C63E2",
" . c #71F3751C78E5",
".. c #78A47BD57FA2",
"X. c #83A862E13B8B",
"o. c #866F641C3AEC",
"O. c #87AA65073B76",
"+. c #85F6649B3C94",
"@. c #8C4668753D7B",
"#. c #8D69694D3DFB",
"$. c #A14174D43F7E",
"%. c #A24D75743F9C",
"&. c #927B6D154034",
"*. c #94706E8A410F",
"=. c #98BF71BB42EA",
"-. c #99157202431D",
";. c #99E072974372",
":. c #9AB9733843D1",
">. c #9B7B73B143F8",
",. c #9D36751244E8",
"<. c #A21B78B7470D",
"1. c #AB017F584AF4",
"2. c #AB337F7D4B09",
"3. c #B05B83A04DF3",
"4. c #B092849B4E0C",
"5. c #B18E85534E78",
"6. c #B37785F24F52",
"7. c #B7A988C5507F",
"8. c #B9EF8A76517E",
"9. c #BC158C0F526F",
"0. c #BDB58D4E5338",
"q. c #BC058D1054B6",
"w. c #BC9C8D995530",
"e. c #C4EA92A3564F",
"r. c #C5DC935856B9",
"t. c #CF4C9A5F5ADC",
"y. c #D1709BC35B5B",
"u. c #D38D9D8A5CB9",
"i. c #DDE4A57061B4",
"p. c #E2C5A8DF6365",
"a. c #E427A9E66400",
"s. c #E558AACA6485",
"d. c #E59EAAFE64A4",
"f. c #E6F5ABE3652B",
"g. c #E817ACD665BB",
"h. c #E87DAD1565DF",
"j. c #E882AD2665E9",
"k. c #E8FDAD80661E",
"l. c #E994ADF16660",
"z. c #EA5DAE8766B9",
"x. c #EA82AEA266C8",
"c. c #EB18AF11670A",
"v. c #EB5AAF456728",
"b. c #EBE9AFAE6767",
"n. c #ECF6B07667DC",
"m. c #ED4EB0B76803",
"M. c #EDB4B104682F",
"N. c #EE4EB1756873",
"B. c #EE71B1906882",
"V. c #F059B2FB6958",
"C. c #F095B3286972",
"Z. c #F0CCB351698A",
"A. c #F194B3E669E2",
"S. c #F1B4B40469FE",
"D. c #F222B44F6A20",
"F. c #F2F0B4E96A7C",
"G. c #F458B5F66B1B",
"H. c #F62FB7546BE7",
"J. c #F660B7796BFD",
"K. c #F6CEB7CC6C30",
"L. c #F761B8386C6D",
"P. c #F7E2B8986CA5",
"I. c #F846B8F26CF3",
"U. c #F8B0B9316D00",
"Y. c #F8F8B9976D3C",
"T. c #F9DEBA126D84",
"R. c #FA1BBA406D9F",
"E. c #FA95BA9B6DD4",
"W. c #FB04BAEB6E01",
"Q. c #FBD8BB8B6E62",
"!. c #FC95BC186EB5",
"~. c #FD04BC6A6EE4",
"^. c #FD37BC916EFC",
"/. c #FFD4BF737230",
"(. c #FFFFC53974B6",
"). c #FFFFC55674C9",
"_. c #9783976A974C",
"`. c #9C8F9C879C7D",
"'. c #9EA99FBAA102",
"]. c #A1EDA301A44C",
"[. c #C37DC34CC311",
"{. c #C4A6C477C43E",
"}. c #C618C608C5F4",
"|. c #C7EDC7DEC7CC",
" X c #E2D7E2CDE2C1",
".X c #FC4BFC4AFC48",
"XX c #FD10FD13FD17",
"oX c #FFFEFFFEFFFE",
/* pixels */
"b.b.b.b.b.b.b.b.b.b.b.b.b.b.g.b.b.b.b.b.b.b.b.b.b.b.b.b.b.b.",
"b.b.b.b.b.b.b.b.b.b.b.b.b.b.C.V.b.b.b.b.b.b.b.b.b.b.b.b.b.b.",
"b.b.b.b.b.b.b.b.b.b.b.b.b.H.u.u.K.b.b.b.b.b.b.b.b.b.b.b.b.b.",
"b.b.b.b.b.b.b.b.b.b.b.b.K.@.X X @.K.g.b.b.b.b.b.b.b.b.b.b.b.",
"b.b.b.b.b.b.b.b.b.b.b.V.p.4 X X 4 p.V.b.b.b.b.b.b.b.b.b.b.b.",
"b.b.b.b.b.b.b.b.b.b.b.n.g.i X X p g.b.b.b.b.b.b.b.b.b.b.b.b.",
"b.b.b.b.b.b.b.b.b.b.n.g.I.3.X X 4.I.d.b.b.b.b.b.b.b.b.b.b.b.",
"b.b.b.b.b.b.b.b.b.b.g.C.D.K X X I D.C.g.b.b.b.b.b.b.b.b.b.b.",
"b.b.b.b.b.b.b.b.b.d.K.p.D X @ @ X D g.K.g.b.b.b.b.b.b.b.b.b.",
"b.b.b.b.b.b.b.b.g.I.e.i X X X X X X p r.K.b.b.b.b.b.b.b.b.b.",
"b.b.b.b.b.b.b.b.H.7.= X $ X ) ) X $ X = 8.D.b.b.b.b.b.b.b.b.",
"b.b.b.b.b.b.b.n.b.a X X $ X `.`.X $ X X d V.b.b.b.b.b.b.b.b.",
"b.b.b.b.b.b.d.K.7.X X X N [. X X[.Z X $ X 8.H.b.b.b.b.b.b.b.",
"b.b.b.b.b.b.g.E.&.X $ X y } }.}.} z X X X =.E.d.b.b.b.b.b.b.",
"b.b.b.b.b.b.b.E.,.X X X X X _._.X $ X X X <.E.b.b.b.b.b.b.b.",
"b.b.b.b.b.b.b.C.t.= X X X X > 5 X X X X = t.C.b.b.b.b.b.b.b.",
"b.b.b.b.b.b.b.g.E.Q X X X 5 0 y 5 X X X Q E.g.b.b.b.b.b.b.b.",
"b.b.b.b.b.b.b.b.b.D.X.X ] oX.X.XoX[ X +.H.b.b.b.b.b.b.b.b.b.",
"b.b.b.b.b.b.b.b.b.g.).H v ] n n ] v H ).d.b.b.b.b.b.b.b.b.b.",
"b.b.b.b.b.b.b.b.b.C.y., r N ( ( n y , y.C.b.b.b.b.b.b.b.b.b.",
"b.b.b.b.b.b.b.b.g./.R  .oX.XoXoX.XoX..R /.g.b.b.b.b.b.b.b.b.",
"b.b.b.b.g.g.b.d.g.b.s C B 0 : : 0 V / h b.g.d.b.d.b.b.b.b.b.",
"b.b.b.V.E.E.E.E.!.E.i.$.A 7 x c 7 A $.i.E.~.E.E.!.E.V.b.b.b.",
"b.b.V.d.;.U P I ~ ;.0.q.f ].' { '.g q.0.;.~ I P U ;.p.b.b.b.",
"b.b.V.k X X X X X X X X $ 9 1 1 0 $ X X X X X X X X k V.b.b.",
"b.d.I.X.X X X X X X X X X X ;.:.X X X X X X X X X X O.K.g.b.",
"b.b.n.n.Y @.3.#.E K h i D 6.K.I.3.l 4 j K Q &.1.@.Y V.b.b.b.",
"b.b.b.b.E.E.E.E.~.E.C.g.K.K.b.g.I.K.b.D.E.~.E.K.E.I.b.b.b.b.",
"b.b.b.b.b.d.b.d.g.g.b.b.b.g.b.b.b.g.b.b.g.g.g.b.b.g.b.b.b.b.",
"b.b.b.b.b.b.b.b.b.b.b.b.b.b.b.b.b.b.b.b.b.b.b.b.b.b.b.b.b.b."
};
