/* XPM */
static char *bdl__[] = {
/* columns rows colors chars-per-pixel */
"47 47 96 2",
"   c #013400FA00B5",
".  c #093A065A02E7",
"X  c #0C8D0932052D",
"o  c #0634071A0830",
"O  c #0C020B980B19",
"+  c #0F9E0BA106D8",
"@  c #11DB0D8C0860",
"#  c #1C0814E00C49",
"$  c #148514541418",
"%  c #1D2B1CF81CBB",
"&  c #1FE517280D2C",
"*  c #214E18690E16",
"=  c #25A51C06107B",
"-  c #28E91E7711EE",
";  c #2B0F201112DF",
":  c #3080244A15A8",
">  c #3DAA2DEC1B09",
",  c #1CB41FB72356",
"<  c #23E923A72358",
"1  c #27C4274A26B9",
"2  c #2594278129D0",
"3  c #2B1A2B022AE6",
"4  c #30782FFC2F68",
"5  c #320731C1316D",
"6  c #3B883B433AF0",
"7  c #448633071E09",
"8  c #52373AAC1E6C",
"9  c #53DE3D582253",
"0  c #5770411D2653",
"q  c #596042432687",
"w  c #5E11460D293B",
"e  c #64CE4B152C34",
"r  c #684C4DC82DDA",
"t  c #72A3555E323E",
"y  c #76BD586C340B",
"u  c #7C765CAF368D",
"i  c #40C0422243CA",
"p  c #4FBD4F144E49",
"a  c #50414FDF4F6A",
"s  c #5553552A54FA",
"d  c #58FC58DC58B7",
"f  c #63EC63896314",
"g  c #6828674D6646",
"h  c #6A7B69A668A6",
"j  c #739E735D730F",
"k  c #7F707F147EA6",
"l  c #8426626939EC",
"z  c #8A4F66FF3C9F",
"x  c #8E2669DC3E51",
"c  c #91136C093F97",
"v  c #93156D884077",
"b  c #9BCB74044449",
"n  c #A0F077D9468A",
"m  c #A2CC793B475B",
"M  c #A4B47AA74830",
"N  c #A8E97DC94A09",
"B  c #ACCC81744D71",
"V  c #B21C84A34E11",
"C  c #B597879F5075",
"Z  c #B5B388945063",
"A  c #BC7C8C5C529D",
"S  c #C3AB91EB5638",
"D  c #C45E930E57E2",
"F  c #C9A196265860",
"G  c #CE5499A65A6F",
"H  c #D36A9DAD5D33",
"J  c #D853A1185ED1",
"K  c #D9FCA2545F8B",
"L  c #D666A0BD6059",
"P  c #DC60A41C6097",
"I  c #E77BAC606579",
"U  c #EBCBAF976759",
"Y  c #EB96AFCD6810",
"T  c #ECCAB05567C9",
"R  c #EEA4B1B66897",
"E  c #F440B5E36B0E",
"W  c #F7E1B89A6CA9",
"Q  c #FBA0BB616E48",
"!  c #FEC8BEF770B2",
"~  c #83FA836382AE",
"^  c #8A3A898388A9",
"/  c #977596EF964F",
"(  c #9C7E9C1E9BAA",
")  c #A498A445A3E0",
"_  c #B4DAB497B447",
"`  c #BACABAB5BA9A",
"'  c #C0FAC091C013",
"]  c #D25AD214D1C1",
"[  c #DECCDE69DDF4",
"{  c #E14DE0C7E028",
"}  c #E520E4EAE4AA",
"|  c #E8A6E84CE7E1",
" . c #EDE5ED99ED3D",
".. c #F089F05DF028",
"X. c #F380F357F325",
"o. c #FF66FF56FF42",
/* pixels */
"U U U U U T U U U U U U U U T U U U U T U U U U U U U U U U U U U U U U U T U U T U U U U U U ",
"U U U U U U U U U U U T U U U U U U U U U U U U U U U U U U U U T U U U U U U U U U U U U U U ",
"U U U T U U U U T U U U U U U U U U U U U U U U I U U U U U U U U U U T U U T U U U T U T U U ",
"U U U U U U T U U U U U U T U U U U U T U U Q Q Q U U U U U U U U U U U U U U U U U U U U U U ",
"T U U U U U U U U U U U U U U U U U U U R R b t b R R U U U U U U U U U U T U U T U U U T U U ",
"U U U U U T U U U U U T U U U U U U U U U 7       7 U U U U U U T U U U U U U U U U U U U U U ",
"U U T U U U U U T U U U U U U U T U U Q x     . .   x Q I U U U U U U T U U U U U U T U U U T ",
"U U U U U U U T U U U U U T U U U U I Q w           w Q U U U U U U U U U U T U U U U U U U U ",
"U U U U T U U U U U U U U U U U U U I Q t           y Q I U U U U U U U U T U U U U U U U U U ",
"U T U U U U U U T U U U U U U U U U U E H #       # H E U U U U T U U U U U U U U U U T U U U ",
"U U U U U U T U U U U T U U U U U U U I ! Z       Z Q I T U U U U U U U U U U U T U U U T U U ",
"U U U T U U U U U U U U U U U U U U I W P =       - P W I U U U U U U U U U T U U U U U U U T ",
"U U U U U U U U U T U U U T U U U I Q H =           ; J W I U U U U U U U U U U U U T U U U U ",
"U T U U U T U U U U U U U U U U I Q A #               # S Q I U U U U U U U U T U U U U U U U ",
"U U U U U U U U U U U U U U U U Q v                     . b Q T U U U U T U U U U U U U U T U ",
"U U U T U U U T U U T U U U T E e                           e E T U T U U U U U U T U U U U U ",
"U U U U U U U R U U U U Y U E 9             < ( <             0 W U U U U U U U U U U U U T U ",
"U U U U U U U U U U U U I Q z   .       o   s o.s   o           c Q I U U U U U U U U U U U U ",
"R U U U U U U U U U U U R I =               s o.s               - T U U U U U U U U U U U U U ",
"U U U U U U U U U U U U W Z           $ _ ` ] o.] ` ` %           A E U U U U U U U U U U U T ",
"U U U U U U U U U U U I Q z           % | X.X.o.X... .1           c Q I U T U U U U U U U U U ",
"U U U U U U U U U U U U Q t             o   d o.d   o             u Q U U U U U U U T U U U U ",
"U U U U U U U U U U U I Q l             o   s o.s   o             z Q I U U U U U U U U U U U ",
"U U U U U U U U U U U I Q N                 3 ' 3                 B W U U U T U T U U U T U U ",
"U U U U U U U U U U U U R I #             o       o             # I T U U U U U U U U T U U U ",
"U R U U U U U U U U U R I W z                                   z Q I U U U U U U U U U U U U ",
"U U U U U U U R U U U U U U E q       o p j k ~ k j s o       e W U U U U U U U U T U U U T U ",
"U U U U U U U U U U U U U U U W x @   3 X.o.o.o.o.o.X.3   @ c W U U U U U U U U U U U U U U U ",
"U U U U U U U U U U U U U U U I ! S   d ] ) ( / ( ) ] g   D ! U U U U U U U U T U U U T U U U ",
"U U U U U U U U Y U U U U U U I Q x   O               o   z W I U U U U U U U U U U U U U U U ",
"U U U U U U U U U U U U Y U U U R ;   . $ 1 5 5 4 1 $     : R U U U U U U T U U U T U U U U U ",
"U U U R U U U U U U U U U U U Q Z   ~ [ X.o.o.o.o.o.X.[ ^   C W U U U U U U U U U U U U U U U ",
"U U U U U U U U U U U U U U I ! 9 , o.o.X.X.} } } X.o.o.o.2 9 ! U U Y U U U U U U U U U U U U ",
"U U U R U U U U U U U U U U E H   6 j 6 < $ O o O $ < 6 j i   G E I U U U U U U U U U U U U U ",
"U U U U U U U U U I I I I I R H e #                       & e H R I U I I I I U U U U U U U U ",
"U U U U U I I E Q Q Q Q Q W R R Q U L N . 3 g   h 1 . B L R Q R R E Q Q Q Q Q E U U U U U U U ",
"U U U U U W W G m x x z m S J T R W I 0 o { (   ) [   w I W E U P S m z x x M G W W U U U U U ",
"U U U U R B >               + - 7 7 X   s _ 3   3 _ p   @ > 7 - X               > V R U U U U ",
"U U U E F .         .                         >                       .           . F E U U U ",
"U U U U W 0   .           .             .   * H *   .             .         . .   0 E U U U U ",
"U U U U E J +                             = F Q G =                             @ J E U U U U ",
"U U U U I Q z > m A A m l e 7 = +     * u I E I W I t #     + - 7 e l M A A b > x Q I T U U U ",
"U U U U U U T W Q W W Q Q Q W R P F F I Q T U U I T Q I F F P T W Q Q Q W W Q W R U U U U U U ",
"U U U U U U U U U I I I I I U U R E E U I U U U U U I U E E R U U I I I U I I U U U U U U U U ",
"U U U U U U U U U T U U U U U U U U U U U U U U U U U U U U U U U U U U U U U U U T U U U U U ",
"U U U U U U U U U U U U U U U U U T U U U U U U U U U U U U U U U U U U U T U U U U U U U U U ",
"U U U U T U U U U U U U T U U U U U U U U U U U U U U U U U U T U U U U U U U U U U U U U U U "
};
