/* XPM */
static char *bdl__[] = {
/* columns rows colors chars-per-pixel */
"41 41 89 1",
"  c #0142010600C8",
". c #08170606038C",
"X c #0C7409460575",
"o c #06E40A540E73",
"O c #0D360D440D57",
"+ c #0FFE0BE90702",
"@ c #12CA0DFE083C",
"# c #16590F960779",
"$ c #15B3102B0989",
"% c #1A6C13910B56",
"& c #0CB90EEB118C",
"* c #178817181693",
"= c #17A9173816AF",
"- c #11E815881A1F",
"; c #1B4B1B221AF1",
": c #218718E30E86",
"> c #287119E20868",
", c #30001F6D0C43",
"< c #22AB1A120FC0",
"1 c #32DC21A50DD2",
"2 c #2CAE215913BF",
"3 c #336A264A1689",
"4 c #3BD82C911A3B",
"5 c #229322692237",
"6 c #24D127F12BA0",
"7 c #2BFC2B5B2A92",
"8 c #28A82BF92FE7",
"9 c #3DB83DA33D89",
"0 c #43C5305418FF",
"q c #49473692201E",
"w c #4DB139DB220E",
"e c #52723D612419",
"r c #59A442C1274B",
"t c #5D4D457B28E5",
"y c #400F3FC43F69",
"u c #6CD74E6129D3",
"i c #6CB1513C3049",
"p c #7279558D321C",
"a c #79635A653535",
"s c #52A754E75774",
"d c #58125A3F5CB6",
"f c #612C611660FB",
"g c #6870681A67B4",
"h c #6D306D016CC8",
"j c #70576FE06F51",
"k c #6D7F6F257121",
"l c #7490743C73D9",
"z c #76A278457A3C",
"x c #820760D438FE",
"c c #896766533C39",
"v c #8E7969943D4E",
"b c #94726E8B4110",
"n c #97C471044285",
"m c #9DEE759B4538",
"M c #AEDD82384CA5",
"N c #B46E865C4F15",
"B c #B7D188E35091",
"V c #BA048A9851AF",
"C c #C07C8F57545E",
"Z c #C4EE92B15666",
"A c #C9F496665888",
"S c #CE2C99895A5F",
"D c #D3309D455C90",
"F c #D73FA04A5E58",
"G c #D8D7A17A5F0B",
"H c #DD6CA4E3610C",
"J c #E622AB5F64E1",
"K c #EBBBAF8B6752",
"L c #ECCEB05867CB",
"P c #EED2B1FA68D5",
"I c #F43DB5FB6B34",
"U c #F7CDB8886C9C",
"Y c #FBD9BB966E71",
"T c #FFF3BF8170C8",
"R c #FF30C37A72FF",
"E c #FFFFCCAC7950",
"W c #A437A3EDA395",
"Q c #AED5AE7BAE10",
"! c #B056AFF5AF80",
"~ c #BD81BCB6BBC3",
"^ c #C09DC060C017",
"/ c #C3FFC347C269",
"( c #CE5ECDECCD64",
") c #D2F2D216D10E",
"_ c #DD45DD13DCD7",
"` c #E71DE6B0E62C",
"' c #ED7BED47ED07",
"] c #F194F167F130",
"[ c #FF5CFF5AFF57",
/* pixels */
"KKKKKLKKKKKKKKKLKKKLKKKKKKKKKKKKLKKKLKKKK",
"KKLKKKKKLKKLKKKKKKKKKKKKKKKKLKLKKKKKKKKKL",
"KLKKLKLKKKKKLKKKKKKKIKKLKKKLKLKKKKKKKKKLK",
"KKKKKKKKKKLKKKKLKKIKSKIKKKKKKKKKKLKKKLKKK",
"KKKLKKLKKKKKKKKKKIN:.:VIKKKKKKKKKKKLKKKKK",
"LKKKKKKKKLLKKKKKPH%   %HLKKKKLKKLKKKKLKKK",
"KKKKKKKLKKLKKKKJUN     BIKKLLKLKKKKKKKLKK",
"KKKKLKKKKKKKKKKKIS.   .SIKKKKKKKKKLKKLKKL",
"LKKKKKKLKKKLKKKKKIx   xIKKKKKKKKKKLKKLKKL",
"KKKLLKKKKKKKKKKKJUZ. .AYJKKKKKKKKKKKKKLKK",
"KKKKKKKKKKKKKKKKYZ@   @ZUKKKKKKKLKKKKLKKK",
"KLKKKLKKKKLKKKKYNX     +NYKKKKKKKKKLKKKKK",
"KLKKKKLKLKKKKKUc         vULKKKKLKKKKLKKK",
"KKLKKLKKKKKKPPr           tLLKKKKKKKKKKLK",
"KLKKKKLKKKKKIq     ;Q5   . wIKKKKKKKKKKKL",
"KKKKKKKKKLKUc .  . 9[9    . vUKKLKKKLKKKK",
"KKKLLKKKKKKI3    =6f[f6=    3IKKKKLKKLKKK",
"LKKKKKKLKJIS.    W[[[[[Q    XDIKKKKKKKLKK",
"KKKKKKKKKKUN     5wz[kw6     VIKLKKKKLKKK",
"KKKLKKKKKJIV     o 9[9o      CIJKKKLKKKKL",
"KKKKKKKKKKIDX      5!5      @GIKKLKKLKKKK",
"LKKLLKKLKKKUw .             eUJKKKKKKKKLK",
"KKKKKKKKKKKIZX      .      XAIKKKKKKKKKKK",
"KLKKKKLKKKKJUN$  g__`__h  $VUJKKLKKKLKKKK",
"KKKKKLKKKKKLJUJw ([]'][) eJUJKKKKKKKKKLKK",
"KLLKKKKKLKKKLJTp 7O  .O7 iTJKKKKKKKKKKKKK",
"KLKKLKLKKKKKKPH$  O;5;O  @HPKKKKKKKKKKKKK",
"KKKKKKKKKLKLJTvo~'[[[[['/&vTKKKKKKKKKKLKL",
"KKKKKKLKLKKLKI>k[`(/~~(`[z>IKKKKKKKKKKLKK",
"KKKKKKKKJKKJIZ 6-       -8 ZIJKKKKKKLKKKK",
"KKKKKKKPIIPKKJVu0< * = :0uVJKLPIIPKKKKKKK",
"KLKKLYIGDSDKPTREI>d~ ^s3IERUUKDSDGIUPKLKK",
"KKKLJc3+..X:4tai@O(j l/&$iat4:...X3cJLKKK",
"KKKIw            X  2 ..            wUKKK",
"KKKUm .      ...   :A<   ....     . mUKKK",
"KKKKUw +%$        2AYS2        $%X eUKKKK",
"KKKKIAcGJJSNbae4wnPIJIKvq4rpbNSJJGcSIKLKK",
"KKKKKIUPKKIIUYUIUULKKKPUUIUUUUILKIUPKKKKK",
"KKKKKKJKKKKKJKKKKJKKKKKKKKJKKKKKKKJKKKKKK",
"KKKKKKKKKKKKKKKKKKKKKKKLKKKKKKKKKKKKKKKKK",
"KKKKKKKKKKKKKKKKKKLKKKKKKKKKKKKKKKKKKKKKK"
};
