/* XPM */
static char *bdl__[] = {
/* columns rows colors chars-per-pixel */
"72 72 102 2",
"   c #00D800B30087",
".  c #089506CD04AA",
"X  c #0CB6098A05BD",
"o  c #0CF40C9C0C33",
"O  c #10EB0C99076A",
"+  c #116C0E8A0B16",
"@  c #15DA10450993",
"#  c #1B6E146D0C06",
"$  c #13D013891331",
"%  c #1B101A7719BF",
"&  c #218A18FA0EB3",
"*  c #24A51B4A1010",
"=  c #29191E9B1203",
"-  c #20141E2D1BE5",
";  c #2D1721DD1464",
":  c #326E25CC16A3",
">  c #36F729C219E8",
",  c #3BB62C841A48",
"<  c #23092254217B",
"1  c #2860267E243D",
"2  c #2BA22AD229DA",
"3  c #30A92FAF2E82",
"4  c #3412337632BC",
"5  c #3CAE3C1F3B74",
"6  c #445032DF1DF1",
"7  c #4953369A2023",
"8  c #4EE53AC02294",
"9  c #52BD3DD224B9",
"0  c #55FC400825B0",
"q  c #5936426F271A",
"w  c #5CFF454028C3",
"e  c #601747852A09",
"r  c #64844B0A2C78",
"t  c #69044E342E05",
"y  c #6BCA50442F3E",
"u  c #681D4E802FC5",
"i  c #6F0352AB30A8",
"p  c #731255B13270",
"a  c #77C35930347E",
"s  c #7D5F5D5C36F3",
"d  c #4695461A4587",
"f  c #4CD54C944C48",
"g  c #5066505A504B",
"h  c #5D985D0E5C68",
"j  c #60715FF65F63",
"k  c #648763F8634C",
"l  c #6D026C5E6B99",
"z  c #750D747C73CE",
"x  c #780377C7777F",
"c  c #7BB97B077A33",
"v  c #83FB624939D9",
"b  c #88CB65DE3BF5",
"n  c #8E696A2B3EAF",
"m  c #90E96BEA3F83",
"M  c #95B26F79419C",
"N  c #9726708F423F",
"B  c #9EBE764045A9",
"V  c #A11977F7469C",
"C  c #A26078E5471E",
"Z  c #A6157BBF48F0",
"A  c #A9007DDA4A12",
"S  c #AE9C82074C88",
"D  c #B417861C4EEF",
"F  c #B7FC890250A4",
"G  c #BB498B845232",
"H  c #C0538F39544C",
"J  c #C5B5933B56A8",
"K  c #CAC6970158E0",
"L  c #CE6099AF5A74",
"P  c #D4AE9E615D37",
"I  c #D961A1DF5F43",
"U  c #DC1EA3EA6078",
"Y  c #E0FCA78A629C",
"T  c #E733AC2C6556",
"R  c #EBD3AF9D675C",
"E  c #ECC2B04F67C5",
"W  c #EEE6B1E768B5",
"Q  c #F446B5E86B11",
"!  c #F7EAB89E6CA9",
"~  c #FB78BB446E38",
"^  c #FFFFBEDC7055",
"/  c #859584FD8446",
"(  c #8BD68B358A74",
")  c #9502946993B3",
"_  c #98E0986397CD",
"`  c #9CFA9C969C1F",
"'  c #A0D8A05F9FCC",
"]  c #A3E1A362A2C9",
"[  c #ACF2ACA4AC47",
"{  c #B0A3B029AF95",
"}  c #B3AAB32DB296",
"|  c #BEF4BE76BDDE",
" . c #C39CC332C2B2",
".. c #CCABCC23CB80",
"X. c #D0EDD078CFEA",
"o. c #D7C4D74CD6BD",
"O. c #DA1BD9BBD948",
"+. c #E595E531E4BA",
"@. c #E8A9E831E79B",
"#. c #EC24EBCDEB64",
"$. c #F435F3EEF398",
"%. c #FF70FF6DFF69",
/* pixels */
"R R R R R R R R E R R R R E R R R R E R R R R R E R R R R R E R R R R R E R R R R R E R R R R R E R R R R R E R R R R E R R R R R R E R R R R R ",
"R R R R R R R R R R R R R R R R R R R R R R R R R R R R R R R R R R R R R R R R R R R R R R R R R R R R R R R R R R R R R R R R R R R R R R R R ",
"E R R R E R R R R R R R R E R R R R E R R R R R R R R R R R R R R R R R R R R R R R R R R R R R R R R R R R E R R R R R R R R E R R E R R R R R ",
"R R R R R R R R R R E R R R R R R R R R R E R R R R R E R R R R R E R R R R R E R R E R R E R R R R R E R R R R E R R R R R R R R R R R R E R R ",
"R R R R R R R R R R R R R R R R R R R R R R R E R R E R R R R R R R R R R R R R R R R R R R R R R R E R R R R R R R R R R E R R R R R R R R R R ",
"R R R R R E R E E R R R R R E R R E R R R R R R R R R R R R R R R T R Q Q R R R R R R R R R R R R R R R R R R R R R E R R R R R R E R R R R R E ",
"R R E R R R R R R R R R R R R R R R R R R R R R E R R R R R E R R ! R L L E ~ T R R R R E R E R E R R R R R E R R R R R R E R R R R R R R R R R ",
"R R R R R R R R R R E R R R R R R R R R E R R R R R R R R R R R Q n & . . & m Q R R R R R R R R R R R R R R R R R R R R R R R R R R R R R E R R ",
"R R R R R R R R R R R E R R R R R R R R R R R R R R R R R R R Q t             p Q R R R R R R R R R R R E R R R R E R R R R R E R R R R R E R R ",
"R E R R R R R E R R R R R R R R R R R R R R R R R R R R R R ! S                 S ~ T R R E R R R R R E R R R R R R R R R R R R R R R R R R R R ",
"R R R R R R R R R R R R R R R E R R R R R R R E R R R R R R Q q             .   0 ~ T R R R R R R R R R R R R R R R R E E R R R R E R R R R R R ",
"R R R R R E R R E R R R R R R R R R R R R R R R R R R R R R Q ,                 , Q R R R R R R R E R R R R R E R R R R R R R R R R R R R R R E ",
"R R R R E R R R R R E R R R R R R R R R R R R R R R R R R R Q 6                 6 Q T R R R R R R R R R R R R R R R R R R R R R R R R R R E R R ",
"R E R R R R R R R R R R R E R R R R R R R R R R R R R R R T ~ v   .             v ~ R R R R R R R R E R R R R R R R R R R R R R R R E R R R R R ",
"R R R R R R R R R R R R R R R R R R R R R R R R R R R R R R E Y =             = Y E R R R R R R R R R R E R R R E R E R R R E R R R R R R R R R ",
"R R E R R R R E R R R R R E R R R R R R R R R R R R R R R R R Q I 6         6 I Q R R R R R R R R R R R R R R R R R R R R R R R R R E R R R R R ",
"R R R E R R R R R E R R R R E R R R R R R R R R R R R R R R R T ~ q         w ~ T R R R R R R R R R R R R R R E R R R R R E R R R E R R R R R E ",
"R R R R R R R R R R R R R R R R R R R R E R R R R R R R R R R ~ w             r ~ R R R R R R R E R R R R R R R R R R R R R R R R R R R R R R R ",
"R R R R R R R E R R R E E R R R R E R R R R R R R R R R R R ! r                 t ~ E R R R R R R R R R R R R R R R R R R E R R R R R E R R R R ",
"E R R R R R R R R R R R R R R R R R R R R R R E R R R R E Q 9   .                 w Q E T R R R R R E R E R R R R R E R R R R R R R R R E R R R ",
"R R R E R R R R R R R R R R R R R R R R R R E R R R T Q Y ,                         6 R Q T E R R R R R R R R R R R R R R R R R R R R R R R R R ",
"R R R R R E R R R R R R R R R E R R R R R R R R R R ~ J &                             = L ~ R R E R R R R R R E E R R R R R E R R E R R R R R E ",
"R R R R R R R R R E R R R R R R R R R R R R E R R ~ B X                                 X C ~ R R R R R R R R R R R R R R R R R R R R R R R R R ",
"E R R R R E R R R R R R R E R R R R R R R R R E Q t                                         y Q E R R R R R R R R R E R R R R R R R R R R E R R ",
"R R R R R R R R R R R R R E R R R R R R R R E R 6   .                                         6 R E R R R R R R R R E R R R R R R R R R E R R R ",
"R R R R R E R R R E R R R R R R R E R R R R Q 6                     % o.o.%                 .   8 Q R R R R R R R R R R R R R R R R R R R R R R ",
"R R E R R R R R R R R R R R R E R R R R T ~ s                       f %.%.f                       v ~ R E R R R R R R R R R E R E R R R R R R R ",
"R R R R R R R R R R E R R R R R R R R R Q P O                   .   g %.%.g   . .                 @ U E R R R R E R R R R R R R R R R R R R R E ",
"R R R R R R E R R R E R R R R R R R R T ~ v                         f %.%.f   .                     m ~ T R R R R R E R R R R R R R E R R R R R ",
"R E R R R R R R R R R R R R R R R R R T Q ,                 % z c l ` %.%.` l x z <                 6 ! R E R R R R R R R E R R R R R R R E R R ",
"R R R E R R R R R R R R R R E R R R R Q P X                 ) %.%.%.%.%.%.%.%.%.%.]   .             @ U E R R R R R R R R R R R R R E R R R R R ",
"R R R R E R R R E R R R R R R R R R R Q D               .   l %.$.$.%.%.%.$.$.#.%.c                   J Q R R E R R R R R E R R R R R R R R R R ",
"R R R R R R R R R R R R R R R R R R T ~ C                     % < $ k %.%.k o < %                     A ~ T R R R R R R R R R R R E R R R R R E ",
"R E R R R R R E R R R R R E R R R R T ~ B                           f %.%.f                           A ! R R R R R R R R R R R R R R R R R R R ",
"R R R R R R R R E R E R R R R R R R R Q D                       .   g %.%.g   .                       G Q R R R R R R R E R R R R R R E R R R R ",
"R R R R R E R R R R R R R R R R R R R Q L                           5 %.%.5                         X P E R R R R R R R R R R R R R R R E R R R ",
"R R R R E R R R R R R R R R R E R R R R E ;                           g f                           : E R R R R R R R R R R R R R R R R R R R R ",
"E R R R R R R R R R R E R R R R R R R R ~ s                                                         v ~ R R R R R R R R R R R R R R R R R R R R ",
"R R R R R R R R R R R R R R R R R R R R E I @                     . . . .     .                   @ U E R R R R E R E R R R E R R E R R R E R E ",
"R R E R R R R E R R R R E R R R R R R R R ~ n                                                     M ~ R R R R R R R R R R R R R R R R R R R R R ",
"R R R E R R R R R R R R R E R R R R R R R R Q t             o 4 f h l z z l j f 4 o             p ! R R R R R E R R R E R R R R R R R E R R R R ",
"R R R R R R R R R R R R R R R R R R R R R R R Q v .         h %.%.%.%.%.%.%.%.%.%.k         X n ~ R R R R R R R R R R R R R R R R R R R R R R R ",
"R R R R R R R E R E R R R R R E R R R R R R R R ~ K ,   .   ` %.%.%.%.%.%.%.%.%.%.]   .   , K ~ T R R R R R R R R R R R R R R E E R R R R R R R ",
"E R R R R R R R R R R R R R R R R R R R R R R R T Q ~ r   % #.%.+.O.......X.O.@.%.$.<   r ~ Q T R R R R E R R R E R R R R R R R R R R R R R E R ",
"R R R R R E R R R R R R R E R R R R R R R R R R R R W ,   % 5 % o             o % 5 %   , Q T R R R R R R E R R R R R R R E R R R R E R R R R R ",
"R R E R R R R R R R E R R R R R R R R R R R R R R Q F                                     G Q R R R R R R R R R R R E R R R R R R R R R R E R R ",
"R R R R R E R R R R R R R R R R R R R R R R R R T ~ w   .                             .   e ~ T R R R R R R R E R R R R R E R R R R E R R R R R ",
"R R R R R R R R R R E R R R R R E R R R R R R R Q I +   % d l ( ] } |  . .| } ] ( l d %   + I Q R R R R R R R R R R R R R R R R R R R R R R R R ",
"R R R R R E R R R R R E R R R R R R R R R R R T ~ n   % @.%.%.%.%.%.%.%.%.%.%.%.%.%.%.$.<   M ~ T R R R R R R R R R E R R R R R E R R R R R E R ",
"E R R R R R R R R R R R R R R R R R R R R R R R Q >   l %.%.%.%.%.%.%.%.%.%.%.%.%.%.%.%.c   > E R R R R R R R R R R R R R R R R R R R R R R R R ",
"R R R R R R R E R R R R R R R E R R R R R R T ! G   . o.%.+...} _ / c z z c / ` { ..#.%.+.o   G ! T R R R R R R E R R R R R E R R R R R E R R R ",
"R R R E R R R R E R R R R R R R R R R R R R R Q 9   - k 2 o                         @ 3 l 1   9 Q R R R R R R R R R R R R R R R R R R E R R R R ",
"R R E R R R R R R R R R R R R R R R R R R R R R q .             . . .     . . .             X w R E R R R R R R R R R R R R R R R R R R R R R R ",
"R R R R R R R R R R R R R R R R R R R R R R R R Q I B r ; .                         . : u C I ! E R R R R R R R R R R R R E R R R R R R R R R R ",
"E R R R R R E R R R R R R R E E R Q R R T T R T R Q ~ ~ R T V .   c (     ) z   . C T E ~ ~ E R R T T R R R E E E E E R T R R R R R R R R R R R ",
"R R R R R R R R T R Q ~ Q E T T T U R ~ ~ ~ ~ Q E E T R ~ P :   5 %.]     [ %.4   > P ^ R R E E Q ~ ~ ~ Q R Y T T T E Q ~ Q R R E R R R R E R R ",
"R R R R R R R R Q ! J s 7 = # # & + * 6 t b A J I R R I v +   3 +.%.h     k %.+.2   + b I T R I J Z b r 6 & @ # # # = 7 v J ! Q R R R R R R R R ",
"R R R R R R R ~ D 6                             O & & X       / [ _ $     % _ [ x       X & * O                             6 G Q R R R R R R R ",
"R R R R R T Q v                                                       @ @                             .                         v Q R R R R R R ",
"R R R R R R ~ v   .                                               X   t r   X                                               .   v ~ T R R R R R ",
"R R R R R R R Q ,                                                     J J                                                     , Q R R R R R R R ",
"R R R R R R T Q H                                                   N Q Q C .                                                 H Q R R R E R R R ",
"R R R R R R R T ~ t           .                                 # D ~ R R ~ G @       .                         .           p ~ R R R R R R R R ",
"R R R R R R R R Q Y @ = v D J P K S m y 9 : @ .             @ a Y ~ T R R T ~ U t X             . @ : 9 p m D K P J D v & # T E R R R R R R E R ",
"R R R R R R R R R Q J Y ~ ~ Q E Q Q ~ ~ Q Q Y L D N a t a A Y ~ E R R R R R R E ~ I C a t a M D P Y E ~ ~ ~ Q Q Q Q Q ~ Y K Q T R R R R R R R R ",
"R R R R R R R R R R Q R T R R R R R T R R R E Q ~ ~ ~ ~ ~ ~ E R R R R R R R R R R E ~ ~ ~ ~ ~ Q Q E R R R T R R R R R T E Q R R R R R R R R R R ",
"R R R R R R R R R R R R R R R R R R R R R R R R R T T T T R R R R R R R R R R R R R R T T R T R R R R R R R R R R R R R R R R R R R R R R R R R ",
"R R R R R R R R R R R R R R R R R R R R R R R E R R R R R R R R R R E R R R R R R R R R R R R R R R R R R R R R R R R E R R R R R R R R R R R R ",
"R R E R R R R R R R R R E R R R R R R R R R R R R R R R R R R R R R R R R R R E R R R R R R R R R R R R R R R R R R R R R R R R R R R R R R R R ",
"R R R R R R R R R R R E R R R R R R R R R R R R R R R R R R R R E R R R R R R R R R R R R R R R R R R R R R R R R R R R R R R R R R E R R R R R ",
"R R R R R R R R R R R R R R R R R R R R R R R R R R R R R R R R R R R R R R R R R R R R R R R R R R R R R R R R E R R R R R R R R R R R R E R R ",
"R R R R R E R R R E R R R R R E R R R R R R R R R R R R R R R R R R R R E R R R R R R R R R R R R R R R R R R R R R R R R R R R R R R R R R R R "
};
