/* XPM */
static char *bdl__[] = {
/* columns rows colors chars-per-pixel */
"88 88 109 2",
"   c #00BC009D0079",
".  c #08D006DC0486",
"X  c #0BC509470649",
"o  c #0B080AC00A69",
"O  c #0FE30BD506F7",
"+  c #12A50E9809BC",
"@  c #1612108F09F9",
"#  c #1A7313B20B97",
"$  c #12E8126B11D4",
"%  c #1CF81C7E1BED",
"&  c #21EF19450EE0",
"*  c #25861BF21072",
"=  c #28291DE8119A",
"-  c #1FCC1F571ECC",
";  c #2D23219D13C9",
":  c #335E264B169C",
">  c #354527AB1759",
",  c #35DB281E17A6",
"<  c #39E52B1E1966",
"1  c #242E23A62304",
"2  c #28922813277B",
"3  c #2C802BFF2B64",
"4  c #30242F6A2E8A",
"5  c #33EB3353329D",
"6  c #390C38543777",
"7  c #3D083C863BE9",
"8  c #4362322E1D89",
"9  c #495236992022",
"0  c #4CB63920219F",
"q  c #529F3D862436",
"w  c #586941D626C0",
"e  c #5E8146652976",
"r  c #604147AE2A30",
"t  c #64694AC62C03",
"y  c #699E4EA72E4C",
"u  c #6C17507E2F61",
"i  c #6DE151D33029",
"p  c #72C15575324C",
"a  c #776358E83454",
"s  c #7B345BC23606",
"d  c #7FC45F253800",
"f  c #454044A843F2",
"g  c #4B574ABA49FE",
"h  c #506D4FB34ED4",
"j  c #51DF513D507B",
"k  c #5E2B5D7C5CAA",
"l  c #60FD60685FB4",
"z  c #62B562046131",
"x  c #6CCB6C226B57",
"c  c #705E6FCB6F1A",
"v  c #7337729671D3",
"b  c #794E78747772",
"n  c #7B387A8E79C2",
"m  c #83C8622539C6",
"M  c #889E65BC3BE1",
"N  c #8E0169DE3E51",
"B  c #909F6BB23F62",
"V  c #93D36E1540CA",
"C  c #9C30744F4475",
"Z  c #A0A577A14669",
"A  c #A168783246BE",
"S  c #A5697B2E4880",
"D  c #AA4E7ED24AA5",
"F  c #AE6681DF4C70",
"G  c #B43286304EFA",
"H  c #B63B87B54FE0",
"J  c #BC248C1D527B",
"K  c #C0A28F74546E",
"L  c #C3EE91E855E0",
"P  c #CA42969E58A6",
"I  c #D3649D6B5CA7",
"U  c #D77CA0785E72",
"Y  c #D9DDA23D5F7E",
"T  c #DD57A4E6610E",
"R  c #E0FCA78B629C",
"E  c #E79EAC7B6584",
"W  c #EBD8AFA1675F",
"Q  c #ECD0B05967CB",
"!  c #EECDB1D468AA",
"~  c #F41FB5CC6B00",
"^  c #F7F2B8A86CAF",
"/  c #FB7CBB476E3A",
"(  c #FFFFC5AE7459",
")  c #82F88236814D",
"_  c #88F0886187B5",
"`  c #8C668B6F8A48",
"'  c #9585954694F9",
"]  c #981C97FB97D4",
"[  c #98F9986797B7",
"{  c #9B2F9A9C99EC",
"}  c #A0889FD79F06",
"|  c #A4ADA40DA34E",
" . c #AC31AB84AAB4",
".. c #B05DB03DB016",
"X. c #B4C3B429B371",
"o. c #B83BB79AB6D9",
"O. c #B920B88CB7DB",
"+. c #BCBEBC2EBB82",
"@. c #C670C5CDC50A",
"#. c #C8CAC845C7A5",
"$. c #CFB7CF36CE9B",
"%. c #D117D09ACFFB",
"&. c #D5B8D535D493",
"*. c #D8E1D86BD7DE",
"=. c #DB05DAC1DA6F",
"-. c #E50EE4AAE433",
";. c #EC2EEBC9EB4F",
":. c #F689F683F67B",
">. c #FF17FF13FF0F",
/* pixels */
"W W W W W W W W W W W W W W Q W W W W Q W W W W W W W W W W W W W W W W W W W W W W W W W W W W W W W W W W W W Q W W W W W W W W W Q W W W W W W W W W W Q W W W W W W W W W Q ",
"W W W W Q W W W W W W W W W W W W W W W W W W Q W W W W W W W Q W W W W W W W W W W W W W W W W W W W W W W W W W W Q W W W W W W W W W W W W W W W W Q W W W W W W W W W W W W ",
"W W W W W W W W W Q W W W W W W W W Q W W W W W W W W Q W W W Q W W W Q W W Q W W W W W W W W W W W W W W W W W W W W W W W W W W W W W W W W W W W W W W W W W W W Q W W W W W ",
"W W W W W W W W W W W W W W W W W W W W W W W W W W W W W W W W W W W W W W W W W W W W W W W W W W W W W W Q W W W W W W W W Q W W W W W W Q W W W W W W W W W W W W W W W W W ",
"W W W Q W W W W W W W W W W W W W W W W W W W W W W W W W W W W W W W W W W W Q W W W W W W W W W W W W W W W W W W W W W W W W W W W Q W W W W W W W W Q W W W W W W W W W W W ",
"W Q W W W W W Q Q W W W Q W W W W W W W W W Q W W W W W Q W W W W W W W W W W W W W W W W W W W W W W W W W W W W W W Q W W Q W W W W W W W W Q Q W W W W W Q W W W W W W Q W W ",
"W W W W W W W W W W W W Q W W W W W W W W W W W W W W W W W W W W W W Q W W W W W W E W E E W W W W W W W W W W W W W W W W W W W W W Q W W W W W W W W W W W W Q W W W W W W W ",
"W W W W W W W W W W W W W W W W Q W W W W W W W W Q W W W W W W W W W W W W W W W ! / / / / ~ W W W W W W W W W W W W W W W W W W W W W W W W W W W W W W W W W W W W W Q W W W ",
"W W W W W W W W W W W W W W W Q W W W W W W W W W W W W W W W W Q W W W W W W W / I B y u B U / E W W W W W W W W Q W Q W W W W Q W W W W W W W W W W W W W W W W W W W W W W W ",
"W W W Q W W Q W W W W W W W W W W W Q W W W W W Q W W W W W W W W W W W W W W ~ N .         X B ~ W W W Q W W W W W W W W W W W W W W W W W W W W Q W W Q W W W W W W W W W W Q ",
"W W W W W W W W W W Q W W W W W W W W W W W W W W W W W W W W W W Q W W W E / m       .         M / W W W W W W W W W W W W W W W W W W W Q W W W W W W W W W W W W W Q W W W Q ",
"W W W W W W W W W W W W W W W W W W W Q W W W Q W W W W W Q Q W W W W W W ~ L                     L ~ W W W W W W W W W W Q W W W W W W W W W W W W W W W W W W W W W W W W W W ",
"W W W W Q W W W W W W W W Q W W W W W W W W Q W W W W W W W W W W W W W W / t                 .   t / W W W W W W W Q W W W W W W W W W W W W W W W W Q W W W W W W W W W W W W ",
"Q W W W W W W W W W W W W W W W W W W W W W W W W W W W W W W W W W W W W ~ :                     , ~ W W W W W W W W W W W W W W W Q W W W W W W W W W W W W Q W W W W W W W W ",
"W W W W W W W W W Q W W W W W W W W W W W W W W W W W Q W W W W W W W W W Q ;                     ; W W W W W W W W W W W W W Q W W W W W W W Q W W W W W W W Q W Q W W Q W W W ",
"Q W W W W W W W W W W Q W W W W W W Q W W W W W W W W W W Q W W W W W W E ~ 8   .                 8 ~ W W W Q W W W W W W W W W W W W Q W W W W W W W W W W W W W W W W W W W W ",
"W W W W W W W W W Q W W W W W W W W W W W Q W W Q W W W W W W W W W W W E / m                 .   m / W W W W W W W W W W W W W W W W W W W W Q W W W W W W W W W W W W W W W W ",
"W W W Q W W W W W W W W W W W W W W W W W W W W W W W W W W W W W W W W W ~ T &                 & R Q W W W W W W W W W W W W W W W W W W Q W W W W W W W W W W Q W W W W W W W ",
"W W W W W W W Q W W W W W W Q W W W W W W W W W W W W W W Q W W W W W W W E ~ L #             # L ~ W W W W W W W W W W W W W W W W W W W W W W W W W W W W W W W W W W W W W W ",
"W W W W W W W W W W W W W W W W Q W W W W W W W W W W W W W W W W W W W W W E ~ T @         @ T ^ E W W W W W W W W W W W W W W Q W W W W W W W W Q W W W Q W W W W W W W Q Q W ",
"W W W W W W W W W W W W W W W W Q W W W Q W W W W W W W W W W W W W W W W W W ^ y             u / W W W W W W W W W W W W W Q W W W W W W W W W W W W W W W W W W W W W W W W W ",
"W W W W W W W Q W W W Q W W W Q W W W W W W W W W W Q W W W W W W W W Q W E / p                 a / E W W W W W W W W W W W W W W Q W W Q W W W W W W W W W W W W W W W W W W W ",
"W W W Q W W W W W W W Q W W W W W W W W W Q W W W W W W W W W W W W W W W / a                     s / W W W W W W W W W W W W W W W W W W W W W W W W W W Q W W W W Q W W W W W ",
"W W W W W W W W W W W W W W W W W W W W W W W W W W W W Q W W W W W W Q / y                         a / W W W W W Q Q W W W W W W W W W W W W W W W Q W W W W W W W W W W Q W W ",
"Q W W W W W W W W W W W W W W W W W W W W W Q W W W W W W W W W W E ~ ! q                             r ~ ~ E W W W W W W W W W W W W W Q W W W W W W W W W W W W W W W W Q W W ",
"W W W W W W W W W Q W W W W W W W W Q W W W W W W W W W W W W W E ^ U ,   .                             8 R ~ W W W W W W W W W W W W W W W Q W W W W W W W W Q W W W W W W W W ",
"W Q W W W W W W W W W W W Q W W W W W W W W W W W W W Q W W W W / J #                                     & L / W W W W W W W W W W W W W W W W W W W W W W W W W W W W W W W W ",
"W W W W Q W W W Q W W W W W W W W W W W W W W W W W W W W E W / B .                                         X V / W W W W W W W W W Q W W W W W Q W Q W W W W W Q W W W W W W W ",
"W W W W W W W W W W W W W W W W W W W W W Q W Q W W W W W ! ! r                                                 r ! ~ E W W W W W W W W W Q W W W W W W W W W W Q W W W Q W W W ",
"W W W W W W W W W W W Q W W W W W W W W W W W W W W W E ~ T :                                                 .   : T ~ W W W W W W W W W W W W W W W W W W W W W W W W W W W W ",
"W W W Q W W Q W W W W W W W W W Q W W W W W W W W W W ~ U &                         . g g .                         = T ~ E W W Q W W W W W W W W W W W W Q W W W W W W W Q W W ",
"W W W W W W W W W W W W W W Q W W W W W W W W W W W W W :   .                   .   x >.>.x                       .   < W W W W W W W W W W W W W Q W W W W W W W W W W W W W W ",
"W Q W W W W W W W W W W Q W W W W W W W W W W W W W / u                             ] >.>.]   .                     .   a / W W W W W W W W W W W W W W W W W W Q W W W W W W W ",
"W W W W W W W W W Q W W W W W W W W W W W W W W W ~ P .                         .   ' >.>.]                             X I ~ W W W W W W W W W W W W W W W W W W W Q W W W W W ",
"W W W W Q W W W W W W W W W W W W W W W W W W W E / u                           .   ] >.>.]   .                           s / E W W W W W W W W W W W W W W W W W W W W W W W W ",
"W W W W W W W W W W W W W W W W W W W W W W W W W E =                         . .   ] >.>.]   . .                         : Q W W W W W W W W W W W W W W W W W W W W W W W Q W ",
"W W W W W W W Q W W W Q W W W W W W W W W W W W ~ J                       x -.*.=.=.:.>.>.:.=.=.*.-.b                       P ~ W W W W W W W W W W W W W W W W W W W Q W W W W ",
"W W W Q W W W W W W W W W W Q W W W W W W W W E / M                       &.>.>.>.>.>.>.>.>.>.>.>.>.-.o                     C / E W W W W W W W W W W W W W W W W W W W W W W W ",
"W W W W W W Q W W W W W W W W W W W W W W W W E / r                       { >.>.>.>.>.>.>.>.>.>.>.>.X.                      u / E W W W W W W W W W W W W W W W W W W W W W Q W ",
"W W W W W W W W W W W W W W W W W W W W W W W W / 9                       . 5 6 7 3 X.>.>. .2 6 5 5 o                       q / W W W W W W W W W W W W W W W W W W W W W W W W ",
"W W W W W W W W W W W W W W W W W W W W W W W W ~ 8                             .   ' >.>.'                                 0 / W W W W W W W W W W W W W W Q W W W W W W W W W ",
"W W W W Q W W W W W W W W W W W W W W W W W W W / 0                             .   ] >.>.]   .                             w / E W W W W W W W W W W W W W W W W Q W W W W W W ",
"Q W W W Q W W W W W W W W W W W W W W W W W W E / r                             .   ] >.>.]   .                             p / E W W W W W W W W W W Q W W W W W W W W W Q W W ",
"W W W W W W W W W W W W W W W W W W W W W W W E / M                                 b >.>.n                                 V / W W W W W W W W W W W W W W W W Q W W W W W W W ",
"W W W W W W W W W W W W W W W W W W W W W W W W ~ J                                 o x x o                                 L ~ W W W W W W W W Q W W W W W W W W W W W W W W W ",
"W Q W W W W W W W W W W W W W W W W W W W W W W W W ;                                                                     , ~ Q W W W W Q W W W W W W W Q W W W W W W Q W W W W ",
"W W W W W W W W W W W W W W W W W W W W W W W W W / N                                 .                               .   B / E W Q W W W W W W W Q W W W W W W W W W W W W W W ",
"W W W W W W Q W W W W W W W W W W W W W W W W W W Q W ;                           .   . .   .                           ; W W W W W W W W W W W W W W W W W W W W W W W W W Q W ",
"W W W Q Q W W W W W W W W W Q W W W W W W Q Q W W W ^ G                                                                 J ~ W W W W W W W W W W W W W W W W Q W W W Q W W Q W W ",
"W W W W W W W W W W W W W W W W W W W W W W W W W W E / B                 o 1 7 h z x v v x z j 7 2 o                 C / W W W W W Q W W W W W W W Q W W W W W W W W W W W W W ",
"W W W W W W W W W Q W W W W W W W W W W W W W W W W W E / A +             ) >.>.>.>.>.>.>.>.>.>.>.>._             @ F / W W W W W W W W W W W W W W W W W W W W W W W W W W W W ",
"W W W W W W W W W W W W W W W W W Q W W W W W W W W W W E / I 8           X.>.:.:.:.:.:.:.:.:.:.:.>.X.  .       0 U / E W W W W W W W Q W W W Q W W W W W W W W W W W W W W W W ",
"W W W W Q W W W W W W W W W W W W W W W Q W W W W W W W W E ~ ^ C &     1 :.>.>.>.>.>.>.>.>.>.>.>.>.>.2     & A ~ ~ E W W W W W W W W W W W W Q W W W W W Q W Q W Q W W W W Q W ",
"W Q W W W W Q W W W W W Q W W W W W W W W W W W W W W W W W W R ( V     b >.%.+. .{ ' ` _ ' {  .+.$.:._     N ( E W W W W W W W W W W W W W W W W W W W W W W W W W W W W W W W ",
"W W W W W W W W Q W W W Q W W W W Q W W W W W W W W W W W W W W ! :     - $                         $ 1     : Q W W W W W W W W W W W W W W W W Q W W W W W W W W W W W W W W W ",
"W W W W W W W W W W W W W W W W W W W W W W W W W W W W W W W ^ J               . . . . . . . . .             J ~ W W W W W W W W W Q W W W W W W W W W W W W W W W W W W W W W ",
"W W W Q W W W W W W W W W W W W W W W W Q W W W W W W W W W E / e   .   .                                 .   e / E W W W W W W W Q W W W W W W W Q W W W W W W Q W W W W W W W ",
"W W W W W Q W W W W W W W W W Q W W W W W W Q W W W W W W W ! T +           $ 1 5 7 f g g f 7 4 1 $ .         + U ! W W W W W W W W W W W W W W W W W W W W W W W W Q W W W W W ",
"W W W W W W W W W W W W W W W W W W W W W W W W W W W W W E / N     7 ' o.*.;.:.>.>.>.>.>.>.>.>.:.;.=.o.] f     N / E W W W W W W W W W W W Q W W W W W Q W W W W W W W W W W W ",
"W W W W W W W W W W Q W W W W W W W Q W W W W W W W W W W W ! :   . *.>.>.>.>.>.>.>.:.:.:.:.>.>.>.>.>.>.>.-.$   : ~ W W W W W W W W W W W W W W W W W W W W W W W W W W W W Q W ",
"W W W W Q W W W W W W W W Q W W W W W W W W W W W W W W E ^ G     h >.:.:.>.>.>.>.>.>.>.>.>.>.>.>.>.>.:.:.>.l     G ~ W W W W W W W W W W W W W W W W W W W W Q W W W Q W W W W ",
"W Q W W W W W W W W W W W W W W W W W W W W W W W W W W E / e     +.>.:.>.:.-.*.@.o. . . . .o.@.*.;.>.>.>.>.@.    e / E W W W W W W W Q W W W Q W W Q W W W W W W W W W W W W W ",
"W W W W W W W W W Q W W W W W W Q W W W W W W W W W W W ! T +   1 #.] z 7 % o                     o 1 7 x ] &.5   @ U ~ W W W W W W W Q W W W W W W W W W W Q W W W W W W W Q W ",
"Q W W W W W W W W W W Q W W W W W W W W W W W W W W W E / m     . .               .     .   .                 o     m / E W W W W W W W W W W W W W W W W W W W W W W W W W W W ",
"W W W W W W W W W W Q W W W W W W W W W W W W W W W W W ! J r #                   .         .         .         & t J ~ W W W W W W W W W W W W W W W W W W W W W W W W W W W W ",
"W W W Q W W W W W W W W W W W W W W W W W W W W W W W W W ~ / W J s 8 #                                 # 9 m J W / ~ W W W W W W W W W W W W W W W W W W W W W W W W W W W W W ",
"W W W W W W W Q W W W W W W W W E W W E W E E W W W W W W W W W ^ / ^ T I V     %  .g     j  .$     V I T ^ / ^ W E W W W W W W E W E E E W W E W W W W W W W W W W W W Q W W W ",
"W W W W W W W W W W W W W W Q ~ / / / / / / / ^ ~ W W E E E E W E R E / E ,     | >.k     x >.{     < E / E R E E E E W E W Q ~ ^ / / / / / / / ~ ! W W W W W W W W W W W W W W ",
"W W W W W W W W W W E ! / ~ U G V m s m s p M F P R ! / / / / ~ / / / D #     x >.:.5     7 >.>.z     & F / / / ^ / / / ^ ~ R P F M p m m s m V G T ~ / W E W W W W W W W W W W ",
"W W W W W W W Q W W / R V 8 X                     # ; 0 u N G J G C 0       v >.>.&.      o =.>.>.z       0 C H J F N u 0 ; @                     O 8 V R / W W Q W W W W W W W ",
"W W W W W W W W ! ! M #             .       .                             $ v x v w         f v v x o                                   .               # M ! ~ W W W W W W W W ",
"W W W W W W W Q E 8                                   .                               $ $                             .                                     8 E Q W W W W W W W ",
"W W Q W W W W W E =                                                         .   . .   y t   . . .                                                           = E Q W W W W W W W ",
"W W W W W Q W W / G                                                                   K J                                                                   H / W Q W W W W W W ",
"W W W W W W W W E / e                                                               r ~ ~ y                                                               e / E W W W W W W W W ",
"W W W W W W W W W ~ U +                                                           t ~ W W ^ p                                                           @ T ! W W W W W W Q W Q ",
"W Q W Q W W W W W E / N             . .                       .               . N ^ W W W W / B .     .                                 .               V / E W W W W W W W W W ",
"W W W W W W W Q W W W ~ <   : a D J P I J C m e < = X                     . e I / W W W W W E / P 8                       O & 8 r m Z J I P J D a :   8 ~ W W W W W W W W W W W ",
"W W W W W W W W W W E ~ J N ~ / / ~ ~ ! ~ / / / / W U L S M t 8 ; & = 8 m I / ~ E W W W W W W W ~ / L a 8 = & ; 8 t M S L U W ~ / / / ~ ~ ~ ~ ~ / ~ M J ~ W W W W W W W W W W W ",
"W W W W W W W W W W W W ~ ~ W W E E W W E W E E W W ! ~ / / / / Q W Q ^ / ~ E W W W W W W W W Q W W ~ / ~ W E W / / / / ~ ~ W W W E E W W W W E E W / ! W Q W W W W W W W W Q W ",
"W W Q W W W W W W W W W W W W W W W W W W W W W W W W W E E W E W Q W W E W W W W W W W W W W W W W E W W W Q W E E E W W W W W W W W W W W W W W W W W W W Q W W W W W W W Q W ",
"W W W W W Q W W W W W W W W W W W W W W W W W W W W W W W W W W W W W W W W W W W W W W W W W W W W W W W W W W W W W W W W W W W W W W W W W W W W W W W W W W W W W W W W W W ",
"W W W W W W W W W W W W W W W W W W W W W W W W W W W Q W W W W Q W W W W W W W W W W W W W W W W W W W W W W W W W W W W W W W W W W W W W W W W W W W W W W W W W W W W W W W ",
"W W W W W W W W W W W W W W W W W W W W Q W W W W W W W W W W W W W W W W W W W W W W W W Q W W W W W W W W W W W W W W W W W W W W W W W W W W W W Q W W W W W W W W W W W W W ",
"W Q W W W W W W W W W W W Q W W W W W W W W W W W W W W W W W W W W W W W W W W W W W W W W W W W W W W W W W W W W W W W W W W W W W W W W W W W W W W W W W W W W W W W Q W Q ",
"W W W W W W W W W W W W W W W W W W W W W W W W W W W W W W W W W Q W W W W W W W W W W W W W W W W W W W W W W W W W W W W Q W Q W W W W W W W W W W W Q W W W W W W W W W W W ",
"W W W W W W W W W W W W W W W W W W W W W W W W W W W W W W W W W W W W W W W W W W W W W W W W W W W W W W W W W W W W W W W W W W W W W W W W W W W W W W W W W W W W W W W W ",
"W W W W W W W W W W W W W W W W W W W W W W W W W W W W W W W W W W W W W W W W W W W W W W W W W W W W W W W W W W W W W W W Q Q W W W W W W W W W W W W W W W W W W W W W W W "
};
