/* XPM */
static char *bld__[] = {
/* columns rows colors chars-per-pixel */
"23 23 191 2",
"   c #0BE809E1078B",
".  c #0C690B060953",
"X  c #0CE70B540967",
"o  c #1D531D2B1CFA",
"O  c #2DFE231715D7",
"+  c #2EBD23D3168B",
"@  c #2DCF23C71788",
"#  c #30312233111F",
"$  c #313222D91156",
"%  c #315325901770",
"&  c #3245259B1660",
"*  c #33B626741688",
"=  c #30F225A4181D",
"-  c #1AFC214128FC",
";  c #2FA32F6B2F26",
":  c #34612DE726FC",
">  c #36352F7527C9",
",  c #392A3A833C28",
"<  c #39D03B203CB9",
"1  c #423627CE08D5",
"2  c #43602890090B",
"3  c #42C12B990F56",
"4  c #44ED2D050FD8",
"5  c #40A02E12176C",
"6  c #40F82E35174F",
"7  c #5347373114EC",
"8  c #562F394615FF",
"9  c #54A23ACE1B6F",
"0  c #55B93B931BD2",
"q  c #57733FAA22A2",
"w  c #43753F673A6E",
"e  c #57BA3FE122C7",
"r  c #41753FEB3DD4",
"t  c #588B464E300B",
"y  c #5A524991351F",
"u  c #5A9649CB354D",
"i  c #6E2A4E2B271E",
"p  c #73374E7A21A3",
"a  c #766550C422D9",
"s  c #7C4A54992429",
"d  c #7E7358B02AAA",
"f  c #7EE859272B24",
"g  c #3F99411E4369",
"h  c #402B41B54408",
"j  c #4981492F48CA",
"k  c #4DE14DF54E0E",
"l  c #4EFE4F144F2D",
"z  c #50374F934ECA",
"x  c #504C4FA94EE3",
"c  c #5F5552CD4384",
"v  c #5F7152DA437E",
"b  c #5C6354894AF4",
"n  c #5950591658CF",
"m  c #54A95AA96238",
"M  c #54FD5AF66276",
"N  c #5CE45EF3617A",
"B  c #5D675F7661FC",
"V  c #5ED860786273",
"C  c #5EDF60CD6326",
"Z  c #5EF4630667FE",
"A  c #64A763F26315",
"S  c #6503644E6370",
"D  c #61D864486743",
"F  c #659765566507",
"G  c #65F365C26586",
"H  c #6862680C67A2",
"J  c #628C6522684B",
"K  c #724C6CDA6635",
"L  c #72B86D5366BE",
"P  c #758579157D6D",
"I  c #775D7AFC7F66",
"U  c #82305ABC2AAA",
"Y  c #82D65B312AE3",
"T  c #834A5B6B2AC2",
"R  c #873C5CCB2972",
"E  c #88F15E4D2A45",
"W  c #84FA5FDB328E",
"Q  c #8BD960702B75",
"!  c #90E16242295E",
"~  c #91466289297F",
"^  c #94CA653D2B36",
"/  c #90EE642B2D8C",
"(  c #943E66982EE3",
")  c #8770604E308D",
"_  c #87C8609230B7",
"`  c #85CA607132DE",
"'  c #A3936FF630F8",
"]  c #A4DE70A430E8",
"[  c #B5B67E1A3A3D",
"{  c #B137805F44C3",
"}  c #B173808D44E0",
"|  c #B8E3839D4299",
" . c #BA38849F4337",
".. c #BD7585B941B7",
"X. c #C7078D6E46F2",
"o. c #C7FC8E284766",
"O. c #C8CB8D964555",
"+. c #C3D18C4E488F",
"@. c #C3FD8C9648F9",
"#. c #C5678D82494B",
"$. c #CC7B90D7481A",
"%. c #D17996544E26",
"&. c #D09296C6503D",
"*. c #D15E97385042",
"=. c #D237980450FD",
"-. c #D2AC97D35001",
";. c #D3E498A25053",
":. c #D2CC9871513B",
">. c #D37B98E1515D",
",. c #D416994F5195",
"<. c #D47B999D51C6",
"1. c #D4E299E651EB",
"2. c #D5329A40524F",
"3. c #D5D59A9A5253",
"4. c #D5EB9AE552DE",
"5. c #D7369B3551FB",
"6. c #D6DD9BAA536D",
"7. c #D86B9C1D5285",
"8. c #DB729DAE524E",
"9. c #DAB99DC3535E",
"0. c #D8999D4054D3",
"q. c #D8AB9D4D54DC",
"w. c #DBD99E9F53E7",
"e. c #DC1D9F855593",
"r. c #DBAC9F895625",
"t. c #DC9E9FD655AA",
"y. c #DC759FDC55EA",
"u. c #DE71A0DC55B7",
"i. c #DCF8A057565C",
"p. c #DFA2A1AF5616",
"a. c #E03BA27C5723",
"s. c #DEBAA2335856",
"d. c #E04EA362590A",
"f. c #E1F4A3AC57AB",
"g. c #E31AA3EB56D2",
"h. c #E3C4A5585928",
"j. c #E31BA55859F9",
"k. c #E3D7A5D45A28",
"l. c #E58FA61F58B3",
"z. c #E80DA7C6594F",
"x. c #E4FEA6A15A85",
"c. c #E56BA6EE5AAD",
"v. c #E688A79E5AD7",
"b. c #E80FA8C15B7F",
"n. c #EB02AAFF5CE0",
"m. c #ED90ACB25D86",
"M. c #870A868D85F6",
"N. c #87938714867A",
"B. c #93D88EF588FF",
"V. c #94A28FDE8A09",
"C. c #897D8C9C906C",
"Z. c #8D9E8EE0906B",
"A. c #8EF392D997A0",
"S. c #962294A592D5",
"D. c #978A955F92B9",
"F. c #969A95209353",
"G. c #97F395CE9330",
"H. c #915B95429A0C",
"J. c #91B895CD9AC7",
"K. c #936E978A9C8F",
"L. c #9F489EF99E98",
"P. c #A0A1A1EEA37A",
"I. c #A0E9A241A3DD",
"U. c #A757A71DA6D7",
"Y. c #A85CA81DA7D2",
"T. c #A527A9AAAF2C",
"R. c #A53FA9C7AF4F",
"E. c #A931A919A8FB",
"W. c #A3AFA9E7B162",
"Q. c #A7DFAD34B3B6",
"!. c #A848AD60B397",
"~. c #A981AE74B480",
"^. c #AA6FAFBBB631",
"/. c #AEEFB584BD8D",
"(. c #B4A4BB9DC425",
"). c #BFF8C141C2E7",
"_. c #C19AC300C4B2",
"`. c #DEB4DE86DE4F",
"'. c #E061E03AE00B",
"]. c #E9C3E99DE96E",
"[. c #EF2FEF19EEFE",
"{. c #F066F055F040",
"}. c #F43AF432F428",
"|. c #F5D9F5D7F5D3",
" X c #FA5DFA44FA25",
".X c #FB0FFB0AFB04",
"XX c #FBD7FBCFFBC6",
"oX c #FE33FD38FC03",
"OX c #F88FFD52FFFF",
"+X c #FCFAFCF4FCED",
"@X c gray100",
/* pixels */
"3.3.3.3.3.3.3.3.3.3.3.3.,.3.3.3.3.3.3.3.3.3.3.",
"3.3.3.3.3.3.3.3.3.3.i.8.i.3.3.3.3.3.3.3.3.3.3.",
"3.3.3.3.3.3.3.3.,.i.W @ ` i.,.3.3.3.3.3.3.3.3.",
"3.3.3.3.3.3.3.3.e...w OXw ..e.3.3.3.3.3.3.3.3.",
"3.3.3.3.3.3.3.3.3.%.t Z t %.3.3.3.3.3.3.3.3.3.",
"3.3.3.3.3.3.3.,.6.z.0 - 0 z.3.,.3.3.3.3.3.3.3.",
"3.3.3.3.3.3.,.i.e.3 P @XP 4 8.i.,.3.3.3.3.3.3.",
"3.3.3.3.3.,.e.+.$ J.@X X@XJ.$ #.e.,.3.3.3.3.3.",
"3.3.3.3.,.6.3.& ~.@X}.H |.@X!.* e.3.3.3.3.3.3.",
"3.3.3.3.,.z./ V @X`.F o F `.@XV / j.,.3.3.3.3.",
"3.3.,.3.-.b.p C.@X[.U.; U.[.@XC.a b.,.3.3.3.3.",
"3.3.6.2.,.x.R J @X@X XU. X@X@XD Q j.,.3.3.3.3.",
"3.3.3.3.3.6.,.= ~.@X|. X|.@XQ.= ,.3.3.3.3.3.3.",
"3.3.3.3.3.,.e.+.6 , x j x , 6 #.e.,.3.3.3.3.3.",
"3.3.3.3.3.3.-.m.f J.oX].oXA.d m.=.,.3.3.3.3.3.",
"3.3.3.3.,.,.3.-.+ V A n A N @ -.3.,.,.3.3.3.,.",
"3.3.,.0.s.s.z.{ . l M.L.M.l . } z.s.f.0.,.3.3.",
"3.,.g.O.] ' [ $.#.1 h r g 1 o.$.[ ' ] O.f.,.3.",
",.s.` b S.S.K c y V.).  _.V.y c K S.S.b _ i.,.",
",.j.U m I.Z.T./.(.W.: R : W.(./.T.Z.I.m T j.,.",
"3.,.e.U ! ^ s i q 8  .n.| 7 e i s ^ ! U i.3.3.",
"6.6.,.j.j.j.z.z.f.b.e.-.e.b.g.j.z.j.j.j.3.3.3.",
"3.3.2.-.,.,.-.=.,.-.,.3.,.,.,.-.,.,.,.,.3.3.3."
};
