/* XPM */
static char *bld__[] = {
/* columns rows colors chars-per-pixel */
"21 21 178 2",
"   c #0000000006A7",
".  c #3BB324520878",
"X  c #39B7293D154D",
"o  c #39D1295E1577",
"O  c #2C792C482C0C",
"+  c #2D722D352CEC",
"@  c #2E7F2E342DD9",
"#  c #3E26393F3343",
"$  c #3DFB3987341A",
"%  c #314737743F29",
"&  c #3A663A6B3A71",
"*  c #4B62378A1F60",
"=  c #4BD637D91F83",
"-  c #458A373025C7",
";  c #47C8389F2636",
":  c #44CC3AC22E82",
">  c #46063B712E89",
",  c #4ACF3D422CB9",
"<  c #48DE3CF62E6E",
"1  c #49083D712F4C",
"2  c #4C9F3E7D2D3E",
"3  c #51303FE92AD2",
"4  c #4E43445B3848",
"5  c #608B47492874",
"6  c #64634AA42B38",
"7  c #75F451CB2642",
"8  c #776E52CB26A0",
"9  c #7BA854E6259A",
"0  c #7CB355AD260E",
"q  c #73CA53382B79",
"w  c #73FE53572B7F",
"e  c #730F54762F21",
"r  c #7F0A57C327D4",
"t  c #7A75583D2E8F",
"y  c #7B5558E92EF6",
"u  c #7F825A882D68",
"i  c #76E6585C3317",
"p  c #779158D73358",
"a  c #79E45DF33BD9",
"s  c #321D38443FF1",
"d  c #43DD436242CD",
"f  c #42C1441B45D2",
"g  c #432544974668",
"h  c #4CD64C244B4A",
"j  c #4DAA4CFC4C28",
"k  c #54C44E524673",
"l  c #56934F974711",
"z  c #726D5C2C4103",
"x  c #75B95D9D4030",
"c  c #761B5E0740A4",
"v  c #6E4D60024E91",
"b  c #5D3861866732",
"n  c #5F0E638E697D",
"m  c #6CF76C786BDD",
"M  c #6F18705D7240",
"N  c #70EE70CC70A2",
"B  c #7134711270E8",
"V  c #721771487042",
"C  c #723071E27185",
"Z  c #715A726E73E8",
"A  c #768D75D174EA",
"S  c #759476A777FC",
"D  c #779478A479FA",
"F  c #805758BF286F",
"G  c #90E4646A2E23",
"H  c #9563677A2F73",
"J  c #88F863F236C4",
"K  c #89DE6499371E",
"L  c #9280667330BC",
"P  c #9421679D3158",
"I  c #96B068793014",
"U  c #9CE76E2C3528",
"Y  c #9D3F6E763565",
"T  c #B0877B1B39EB",
"R  c #B2797C953AD1",
"E  c #80AD6B2550DE",
"W  c #ABE07C334205",
"Q  c #B5C8834B45AE",
"!  c #B6A683EA4601",
"~  c #BFAE86CF4168",
"^  c #BF9586EA41C2",
"/  c #C12F88144263",
"(  c #CECA91E8479C",
")  c #CB7390584837",
"_  c #CEED93904B1E",
"`  c #D04A94974BBD",
"'  c #CF9A96064FC3",
"]  c #D71198404B99",
"[  c #D76D9A024F0E",
"{  c #D7D09A4D4F3D",
"}  c #DB719C744F95",
"|  c #D1FD97B7509A",
" . c #D2E898865148",
".. c #D37698D55148",
"X. c #D413995351A0",
"o. c #D2D398C351E9",
"O. c #D3EE9983523A",
"+. c #D457998551BD",
"@. c #D4BD99DC5203",
"#. c #D5339A275219",
"$. c #D5D59A9A5252",
"%. c #D4C39A63532A",
"&. c #D5799AB252F9",
"*. c #D6EC9B835305",
"=. c #D6EE9C09542A",
"-. c #D7F89CB05457",
";. c #D8959B5D50A3",
":. c #D9B79C38512A",
">. c #D8A19CA4536D",
",. c #D9739D4153CC",
"<. c #DAD49DB05313",
"1. c #DCF89DB9508B",
"2. c #DCA09EF053A8",
"3. c #DB379EA954B7",
"4. c #DADE9F0A5607",
"5. c #DB3D9F4F562C",
"6. c #DB7E9F8C5665",
"7. c #E034A0A65318",
"8. c #DD91A038555B",
"9. c #DF92A155555F",
"0. c #DF0EA14755E2",
"q. c #E250A30955D0",
"w. c #E26AA32055E4",
"e. c #E356A3E85681",
"r. c #E21FA3F35815",
"t. c #E2A5A45A5857",
"y. c #E462A52657FB",
"u. c #E2E2A4DB5925",
"i. c #E434A5BE5985",
"p. c #E44CA5F559E1",
"a. c #E4E8A5A1586A",
"s. c #E4FDA65159B6",
"d. c #E47AA61659F1",
"f. c #E7E9A9145C66",
"g. c #E896A8D35B04",
"h. c #EA3BAA055BA8",
"j. c #8E8F8F018F8D",
"k. c #8E9F8F1C8FB6",
"l. c #86B491D29F6F",
"z. c #911A90E990AE",
"x. c #9149912390F6",
"c. c #992198E6989D",
"v. c #9A429A2399FD",
"b. c #9D9A9D729D41",
"n. c #93F29B32A40D",
"m. c #94099B49A425",
"M. c #A2EFAAE6B49E",
"N. c #AAF0ADADB105",
"B. c #AC0AB426BE0B",
"V. c #AC2DB448BE2C",
"C. c #B314B2E5B2A0",
"Z. c #B386BAA7C357",
"A. c #BEBAC60ACEED",
"S. c #BF2BC676CF48",
"D. c #C18EC14AC0F8",
"F. c #D2C7D604D9F1",
"G. c #D444D76EDB4A",
"H. c #DC6ADC27DBD9",
"J. c #DED0DE52DDB6",
"K. c #DF11DE92DDF5",
"L. c #E044E038E029",
"P. c #DC67E01FE4B2",
"I. c #DD86E11DE589",
"U. c #EC33EED9F214",
"Y. c #ED69EFEDF300",
"T. c #EBEBF105F73A",
"R. c #F17FF349F56D",
"E. c #F25DF40FF61F",
"W. c #F553F4F1F479",
"Q. c #F65FF608F59C",
"!. c #F6FEF6FDF6E3",
"~. c #FB66FB5FFB58",
"^. c #FC19FC1BFC18",
"/. c #FE66FDE9FD53",
"(. c #FED6FDF0FCD5",
"). c #FF55FED9FE43",
"_. c #FF91FEB6FDA8",
"`. c gray100",
/* pixels */
"$.$.$.$.$.$.$.$.$.$.,.$.$.$.$.$.$.$.$.$.$.",
"$.$.$.$.$.$.$.$.$.,./ ,.$.$.$.$.$.$.$.$.$.",
"$.$.$.$.$.$.$...2.p d p 2...$.$.$.$.$.$.$.",
"$.$.$.$.$.$.$.,.) 4 T.4 ) ,.$.$.$.$.$.$.$.",
"$.$.$.$.$.$.$.' h.t   y h.' =.$.$.$.$.$.$.",
"$.$.$.$.$.$.| f.T 1 N.1 R f.| $.$.$.$.$.$.",
"$.$.$.$.$...d.H $ F.).F.$ I u...$.$.$.$.$.",
"$.$.$.$...u.L g E.).b.).R.g I u...$.$.$.$.",
"$.$.$.$.$.$.- I.).x.O x.(.I.; ,.=.$.$.$.$.",
"$.$.$.$.,.^ l ).Q.c.@ c.W.).l / ,.$.$.$.$.",
"$.$.$.$.,._ > Y.).~.C.~.).U.> ` $.$.$.$.$.",
"$.$.$.$...d.8 n Q.J.I.H.Q.b 8 a...$.$.$.$.",
"$.$.$.$.$...e.9 @ V m C @ 0 u...$.$.$.$.$.",
"$.$.$.$.$...u.Y D J.D.J.A Y u...$.$.$.$.$.",
"$.$.....$...,.o % C C V % o ,...$.....$.$.",
"$.$.9.9.] 2.a.K 3 h A h 3 K d.2.[ 7.9...$.",
"..,.T a v a q G 5 j.& k.6 G q z E a W ,.$.",
"..9.; l.A.B.M.n.A.C . C A.n.M.B.Z.l.= 9...",
"..9.Q 6 u e a v 2 F f.r < v a e u 6 Q 2...",
"$.$.-.e.y.e.,.) $.u...u.[ ( $.e.d.e.,.$.$.",
"$.$.....| ....-.%...$...%.-.........$.$.$."
};
