/* XPM */
static char *bld__[] = {
/* columns rows colors chars-per-pixel */
"37 37 121 2",
"   c #009B007E009C",
".  c #0B0A05FA0257",
"X  c #0DD208C402DE",
"o  c #019A052509A9",
"O  c #0CC90CBE0CB0",
"+  c #0FAD07350000",
"@  c #13510B1001E6",
"#  c #19DE0F1001DF",
"$  c #1E4A121E035E",
"%  c #1A6E13550AAB",
"&  c #1368132312C9",
"*  c #188C17DA1700",
"=  c #123215601943",
"-  c #14E417F81BBB",
";  c #1EA61DBF1CA6",
":  c #2138143704AC",
">  c #2AE019B404C5",
",  c #25C719B20C55",
"<  c #28631C860E0C",
"1  c #36E5223808DA",
"2  c #3D1626EE0C4B",
"3  c #3D1027D20E1B",
"4  c #3BC927E30F9B",
"5  c #1D76203723CD",
"6  c #239723DD2434",
"7  c #2DAB2CC82BB4",
"8  c #2C542FFB3479",
"9  c #336834C93688",
"0  c #352E36FF394D",
"q  c #3620391C3CCF",
"w  c #38D43A0E3B9A",
"e  c #41DD2E4D166D",
"r  c #48312EE10FFF",
"t  c #41ED2EE017CB",
"y  c #475030B71511",
"u  c #490431FD15D0",
"i  c #459A317B1914",
"p  c #51C536A615C9",
"a  c #54CF390A175B",
"s  c #5CA03FBD1C7D",
"d  c #5E1D40CE1D09",
"f  c #63D844AB1EA1",
"g  c #683646BD1DE6",
"h  c #6BA9491B1ED6",
"j  c #6C5C4CF526FA",
"k  c #722E52362B3C",
"l  c #790357092DA0",
"z  c #7B6858D12EA4",
"x  c #3D003ED84117",
"c  c #3DF041314529",
"v  c #420F41B2413F",
"b  c #4BC54C194C80",
"n  c #4FE34FAC4F68",
"m  c #49384D1B51DA",
"M  c #52C553A054AA",
"N  c #537D557D57F3",
"B  c #56CC58975AD0",
"V  c #5F045EC85E7E",
"C  c #67C3696C6B87",
"Z  c #6B606BAF6C11",
"A  c #6C4B6DF47006",
"S  c #6F0F72F277B1",
"D  c #6FE473C5787F",
"F  c #74F1789F7D1D",
"G  c #7F597EFA7E87",
"H  c #846F5DBA2E7C",
"J  c #838D5F3132D6",
"K  c #8679614E33F5",
"L  c #8A81639B3423",
"P  c #93B0688233D2",
"I  c #9CDB6DA93412",
"U  c #927C6A2138E2",
"Y  c #9EBC72D73D56",
"T  c #A40D74A83AD2",
"R  c #A37976A73FF4",
"E  c #A67F78C040E8",
"W  c #AC667CA24257",
"Q  c #B0C67EFA4234",
"!  c #B4D480D64163",
"~  c #BB9D87A54838",
"^  c #BE3D8A0B4A57",
"/  c #C5EE8F074C04",
"(  c #CF1B96825160",
")  c #D1C797AF50C6",
"_  c #D5A29A795246",
"`  c #DAA29E5D54D1",
"'  c #DEFEA16E564D",
"]  c #E213A3A0576B",
"[  c #E4A8A5F55972",
"{  c #E911A9905C12",
"}  c #EEE4AEA56032",
"|  c #F63CB33C617B",
" . c #7E997F398009",
".. c #84B384BD84CD",
"X. c #8D358D198CF7",
"o. c #8E068FA19195",
"O. c #8EC0918B94F0",
"+. c #92E493D694FC",
"@. c #98A197979651",
"#. c #998598799732",
"$. c #94D096C9992E",
"%. c #9B239AED9AAC",
"&. c #A04A9FCA9F24",
"*. c #9CA69FA2A345",
"=. c #9D38A02EA3CB",
"-. c #A23BA1C8A139",
";. c #B569B726B944",
":. c #C0C9BFEDBEDA",
">. c #BFCDC145C311",
",. c #C304C232C12C",
"<. c #CDD8CE0ACE46",
"1. c #D436D3F0D39B",
"2. c #DE8CDE62DE2F",
"3. c #E5F1E5C4E58E",
"4. c #E8E4E80CE704",
"5. c #E96FE88FE77E",
"6. c #EE40EE18EDE2",
"7. c #F075F03DEFF7",
"8. c #F353F281F17B",
"9. c #F8E7F803F6EC",
"0. c #FE88FE75FE5D",
/* pixels */
"_ _ _ _ _ _ _ _ _ _ ` _ _ _ _ _ _ _ _ _ _ _ _ _ _ _ _ _ _ _ _ _ _ _ _ _ _ ",
"_ _ _ _ _ _ _ _ _ _ _ _ _ _ _ _ _ _ ) _ _ _ _ _ _ _ _ _ _ _ _ _ _ _ _ _ _ ",
"_ _ _ _ _ _ _ _ _ _ _ _ _ _ _ _ ( ' { ] _ _ _ _ _ _ _ _ _ _ _ _ _ _ _ _ _ ",
"_ _ _ _ _ _ _ _ _ _ _ _ _ _ _ _ ' I j T ' _ _ _ _ _ _ _ _ _ _ _ _ _ _ _ ` ",
"_ _ _ _ _ _ _ _ _ _ _ _ _ _ ) [ z o 8 o z ] _ _ _ _ _ _ _ _ _ _ ` _ _ _ _ ",
"_ _ _ _ _ _ _ _ _ _ _ _ _ _ _ _ X $.0.$.@ _ _ _ _ _ _ _ _ _ _ _ _ _ _ _ _ ",
"_ _ _ _ _ _ _ _ _ _ _ _ _ _ ` _ X +.0.$.X _ _ _ _ _ _ ` _ _ _ _ _ _ _ _ _ ",
"_ ` _ _ _ _ _ _ _ _ _ _ _ _ ) ' l O w O l ' _ _ _ _ _ _ _ _ _ _ _ _ _ _ _ ",
"_ _ _ _ _ _ _ _ _ _ _ _ _ _ ) ` _ %   % _ ` ) _ _ _ _ _ _ _ _ _ _ _ _ _ _ ",
"_ _ _ _ _ _ _ _ _ _ _ _ _ ) ' _ $ w 6.0 : _ ' ( _ _ _ _ _ _ _ _ ` _ _ _ _ ",
"_ _ _ _ _ _ _ ` _ _ _ _ ) [ ^ @ x 7.0.8.q @ / [ _ _ _ _ _ _ _ _ _ _ _ _ _ ",
"_ _ _ _ _ _ _ _ _ _ _ _ [ Y   B 0.0.0.0.0.N   R [ _ _ _ _ _ _ _ _ _ _ _ _ ",
"_ _ _ _ _ _ _ _ _ _ ) ] l   ..0.0.0.9.0.0.0.G   z ] _ _ _ _ _ _ _ _ _ _ _ ",
"_ _ _ _ _ _ _ _ _ _ ] P   -.0.9.0.2.6 2.0.0.0.%.  U ] _ _ _ ` _ _ _ _ _ _ ",
"_ _ ` _ _ _ _ _ _ _ _ # Z 0.0.0.0.1.  1.0.0.0.0.C # ] _ _ _ _ _ _ _ _ _ _ ",
"_ _ _ _ _ _ _ _ _ ] W   1.0.0.1.6 6   6 6 <.0.0.1.  T ' _ _ _ _ _ _ _ ` _ ",
"_ _ _ _ _ _ _ _ ) [ H = 0.0.0.3...C   A ..3.0.0.0.- H [ _ _ _ _ _ _ _ _ _ ",
"_ _ _ _ _ _ _ _ ) [ H = 9.0.0.0.0.1.  1.0.0.0.0.9.= K [ _ _ _ _ _ _ _ _ _ ",
"_ _ _ _ _ _ _ _ ) ' W   <.0.0.0.0.6.~ 3.0.0.0.0.<.  W ' _ _ _ _ _ _ _ _ _ ",
"_ ` _ _ _ _ _ _ _ _ ` $ B 0.0.0.0.9.9.9.0.9.0.0.M $ ` _ _ _ _ _ _ _ _ _ _ ",
"_ _ _ _ _ _ _ _ _ _ ] R   Z 0.0.0.0.9.0.0.0.0.C   T ] _ _ _ _ _ _ _ _ _ _ ",
"_ _ _ _ _ _ _ _ _ _ ) ] E X 6 v - = & * 5 v 6 @ W ] ) _ _ _ _ _ _ _ _ _ _ ",
"_ _ _ _ _ _ _ _ _ _ _ ) [ ( X b X.%.=.%.X.b . ( ] ) _ _ _ _ _ _ _ _ _ _ _ ",
"_ _ _ _ _ _ _ _ _ _ _ ) ' P 6 0.0.0.0.0.0.0.; P ] ) _ _ _ _ _ _ _ _ _ _ _ ",
"_ _ _ _ _ _ _ _ _ _ _ _ [ 4 x $.V n b n V @.x 4 [ _ _ _ _ _ _ _ _ _ _ _ _ ",
"_ _ _ _ _ _ _ _ _ _ _ ` ~ . * 7 v n n n v 7 - . ~ ` _ _ _ _ _ _ _ _ _ _ _ ",
"_ _ _ _ _ _ _ _ ) _ ) [ k   q $.<.4.7.3.<.+.0   k [ ) _ _ ) _ _ _ _ _ _ _ ",
"_ _ ` _ _ _ ' [ ] ' ` _ ~ K y :   & o &   : u J ~ ` _ [ [ [ ` _ _ _ _ _ _ ",
"_ _ _ _ ] _ ! T I T / ` { | } a 0 :.  ,.9 a } | { ` / T I I ! ` [ _ _ _ _ ",
"_ _ _ _ K < ; 9 x 6 X @ > 1 X 5 7.X.  +.6.5 X 1 > @ X 6 w 0 ; < K _ _ _ _ ",
"_ _ ` ~   o.0.0.0.0.6.>.o.F ;.0.<.O e O <.0.;.F O.>.6.0.0.0.0.O.  ~ ] _ _ ",
"_ _ ) [ s q $.b m D *.<.6.0.5.X.o t ` u o o.3.0.7.<.*.D m m $.w d [ _ _ _ ",
"_ _ _ ` ( , 2 h g y > $ @ o   . k ` _ ' j     . O $ > y g h 2 , ) _ _ _ _ ",
"_ _ _ _ ` _ [ { { { [ _ / ! W ) [ _ _ _ [ _ Q Q / _ [ { { { [ _ _ _ _ _ _ ",
"_ _ _ _ _ _ _ ) ) ) _ _ ` ' ] _ _ _ _ _ _ _ ] ` _ _ _ ) _ _ _ _ _ _ _ _ _ ",
"_ _ _ _ _ _ _ _ _ _ _ _ ) _ _ _ _ _ _ _ _ _ ) _ _ _ _ _ _ _ _ _ _ _ _ _ _ ",
"_ _ _ _ _ _ _ _ _ _ _ _ _ _ _ _ _ _ _ _ _ _ _ _ _ _ _ _ _ _ _ _ _ _ _ _ _ "
};
