/* XPM */
static char *bld__[] = {
/* columns rows colors chars-per-pixel */
"32 32 118 2",
"   c #0378048D068A",
".  c #08C405AD01E9",
"X  c #0E2508120198",
"o  c #040E055507A2",
"O  c #0B960D3B0F5F",
"+  c #13860C140302",
"@  c #1BD110320378",
"#  c #1641117B0BA7",
"$  c #1A1B11FD0814",
"%  c #0C010EBF12EA",
"&  c #0D3C104614B5",
"*  c #154914B91409",
"=  c #1B991B5E1B17",
"-  c #21D2144C03CB",
";  c #2CA11AFF057A",
":  c #20E317080B02",
">  c #2B941C2F096E",
",  c #354E1EBA03FA",
"<  c #31501F930AE7",
"1  c #251D1F261802",
"2  c #3780205D04E9",
"3  c #31CA20A50C44",
"4  c #3BD025D90B0A",
"5  c #2BFE2303180C",
"6  c #1B101E9922F8",
"7  c #1EA320D3238C",
"8  c #2EC02AFF2669",
"9  c #2600294D2D85",
"0  c #2C102B672AA2",
"q  c #30C62B6324CE",
"w  c #30192DB02AC8",
"e  c #38BD349B2F90",
"r  c #264E2A853004",
"t  c #314430F73098",
"y  c #39603542303C",
"u  c #331136533A50",
"i  c #3A1B3A3F3A81",
"p  c #4BEF37011D77",
"a  c #4C8C381B1F2A",
"s  c #512536C8169C",
"d  c #58873A1514EE",
"f  c #52CB3A011BCA",
"g  c #5BED3ECD1BF1",
"h  c #568B3DF02003",
"j  c #61F543301DCD",
"k  c #41B840713EDF",
"l  c #6A46492720BC",
"z  c #76E750732187",
"x  c #7D0A581B2B67",
"c  c #39823D04414C",
"v  c #3FA0447B4A62",
"b  c #43E0443D44AF",
"n  c #4AB1489D4614",
"m  c #4186453849C0",
"M  c #4C1B4C734CE2",
"N  c #50BF50204F59",
"B  c #4DFC506D5393",
"V  c #50D651E2533E",
"C  c #5C2C5C8C5CF9",
"Z  c #60F260C06084",
"A  c #676C6A6C6E16",
"S  c #6E086DB56D4F",
"D  c #6D80713F75FC",
"F  c #7206759E7A0E",
"G  c #78387B887F9A",
"H  c #83F85C0F2B72",
"J  c #853F5EE23049",
"K  c #87FC60112F5B",
"L  c #949068E43399",
"P  c #9DC36EFE35F1",
"I  c #9A4F6ECF39B8",
"U  c #ABA477ED38D1",
"Y  c #AE887A3F3A6F",
"T  c #B3D77F733F82",
"R  c #AD9C7D7842BA",
"E  c #B60F82CF443A",
"W  c #BC4B85BA4321",
"Q  c #BB5787A0487A",
"!  c #BEF68A4649FA",
"~  c #C3EC8B8746B6",
"^  c #C6278E824A97",
"/  c #C9A592424EA9",
"(  c #CF259661511A",
")  c #D1AC97A750D9",
"_  c #D5919A695239",
"`  c #DA809E3654A4",
"'  c #DED3A1765691",
"]  c #DF7CA27A5807",
"[  c #E12EA2D656C2",
"{  c #E5BEA7025A70",
"}  c #E7CDA8855B4C",
"|  c #EBDCAB995D22",
" . c #F7D2B46F6238",
".. c #7BC07EF882E6",
"X. c #7D418056841A",
"o. c #8524859C862E",
"O. c #932594DD96F6",
"+. c #995198B797FC",
"@. c #929395999949",
"#. c #99C7995898D1",
"$. c #A29FA412A5D7",
"%. c #A72BA9B4ACCC",
"&. c #AAA5AD5DB0AD",
"*. c #AD81B046B3A7",
"=. c #B57EB53EB4F0",
"-. c #BC7EBC37BBE0",
";. c #C4A5C5AAC6E7",
":. c #CF29CF1DCEFC",
">. c #CE62D03DD281",
",. c #CF6AD13ED37B",
"<. c #D213D1FBD1CD",
"1. c #E6C4E689E62D",
"2. c #E890E87BE862",
"3. c #E9ABEAE0EC59",
"4. c #F274F26DF265",
"5. c #F8D4F7D7F697",
"6. c #FA2AF91DF7D6",
"7. c #FE92FE8AFE7F",
/* pixels */
"_ _ _ _ _ ` _ _ _ _ _ _ _ _ _ _ _ _ _ _ _ _ _ _ _ _ _ _ _ _ _ _ ",
"_ _ _ _ _ _ _ _ _ _ _ _ _ _ _ _ _ ) _ _ ` _ _ _ _ _ _ _ _ _ _ _ ",
"_ _ _ _ _ _ _ _ _ _ _ _ ` _ [ _ ` ' _ _ _ _ _ _ _ _ _ ` _ _ _ _ ",
"_ _ _ _ _ _ _ _ _ _ _ _ _ ' L + + L [ _ _ _ _ _ _ _ _ _ ` _ _ _ ",
"_ _ _ _ _ _ _ ` _ _ _ _ ` ^ # *.*.# ^ ` ) _ _ _ _ _ _ _ _ _ _ _ ",
"_ ` _ _ _ _ _ _ _ _ _ _ ' E * 3.4.* E ' _ _ _ _ _ _ _ _ _ _ _ _ ",
"_ _ _ _ _ _ _ _ _ _ _ _ _ ` h 9 9 f ` _ _ _ _ _ _ _ _ ` _ _ _ _ ",
"_ _ _ _ _ _ _ _ _ _ _ _ ) | H % O H | ) _ _ _ _ _ _ _ _ _ _ _ _ ",
"_ _ _ _ _ _ _ _ _ _ _ _ | x o <.:.  x | ) ) ` _ _ _ _ _ _ _ _ _ ",
"_ _ _ _ _ _ _ _ _ _ _ { g & :.7.7.:.& j } ` ) _ _ _ _ _ _ _ _ _ ",
"_ _ _ _ _ _ _ _ ) ` _ 3 9 1.7.6.7.7.1.9 3 _ ` ) _ _ ` _ _ _ _ _ ",
"_ _ ` _ _ _ _ _ _ ' > m 7.7.7.+.#.7.7.6.v 3 ` _ _ _ _ _ _ ` _ _ ",
"_ _ _ ` _ _ _ _ { H 7 6.7.6.7.C Z 7.6.7.6.7 K { _ _ _ _ _ _ _ _ ",
"_ _ _ _ _ _ _ ) { 4 X.7.7.-.= * * = =.7.7.X.4 } ) _ _ _ _ _ _ _ ",
"_ _ _ _ _ _ _ _ ' - %.7.7.2.;.b n ;.2.7.7.%.- [ _ _ _ _ _ _ _ _ ",
"_ _ _ _ _ _ _ _ ' > @.7.7.6.7.S D 7.6.7.7.O.; [ _ _ _ ` _ _ _ _ ",
"` _ _ _ _ _ _ ) { j c 7.7.6.7.4.4.7.6.7.7.c j } ) _ ` _ _ _ _ _ ",
") _ _ _ _ ) ` _ ` / X ..7.7.7.7.7.7.7.7.F + / ` _ _ _ _ _ _ _ _ ",
"_ _ ` ) ` ) _ _ ) ' Q @ i C i t t i C i @ Q ' ) _ _ _ _ _ _ _ _ ",
"_ _ _ _ _ _ _ ) _ ) ' ` $ C #.$.$.+.C # ` ' ) _ _ _ _ _ _ _ _ _ ",
"_ _ _ ` _ _ _ ` _ _ ' P i 7.7.7.7.7.7.i P ' _ _ _ _ _ _ ` _ _ _ ",
"_ _ _ _ _ _ _ _ _ ) } f 6 b = * * = k 6 f { ) _ _ _ _ _ _ _ _ _ ",
"_ _ _ _ _ _ _ ) ) ` Q X 0 o.-.,.:.-.o.0 . Q ' _ _ _ _ _ _ _ _ _ ",
"_ _ _ ) _ ` ' ' ' ` Q p 5 e i V N i e 5 p Q ` ` ' ' ` _ _ _ _ _ ",
"_ _ ) ' [ ~ Y Y W ) }  .' 2 B M V B 2 [  .} _ W U Y ~ ' ' ) _ _ ",
"_ _ ` R p q n M 8 : ; 4 - b 6.0 t 6.b @ 4 > : q M n 8 a R ` _ _ ",
"_ _ } s v 7.7.7.7.3.;.$.,.7.D > > D 7.,.$.;.3.7.7.7.7.v s } ) _ ",
"_ _ ` ^ 5 M w 8 m A @.&.@.u X Q Q X u @.&.@.A b 8 w M 5 ^ ` _ _ ",
"_ _ _ [ I H W R L z d 4 ; l ) ' ' ( j , 4 d z L T W H I [ ) _ _ ",
"_ _ _ ) ` { ' ' [ | | } } { ` _ ) ` } } } | } [ ' ' { ' _ _ _ _ ",
"_ _ _ _ _ ) _ _ _ ) ) ) ) ) ) _ ` ) ) ) ) ) ) _ ) _ ) _ _ _ _ _ ",
"_ _ _ _ _ _ _ _ _ _ _ _ _ _ _ _ _ _ _ _ _ _ _ _ _ _ _ _ _ ` _ _ "
};
