/* XPM */
static char *bld__[] = {
/* columns rows colors chars-per-pixel */
"34 34 112 2",
"   c #00C2011601E3",
".  c #0B1303710000",
"X  c #0C5E09AE0668",
"o  c #04F508CB0D97",
"O  c #0C710B910A82",
"+  c #0FA207660000",
"@  c #11620A1102A9",
"#  c #12620EE40AA0",
"$  c #1B860FB0013D",
"%  c #1E3C15E00BAB",
"&  c #0C830E5E10AA",
"*  c #11FA12D913EC",
"=  c #1A55177C1400",
"-  c #1AA217BB142E",
";  c #15DB1770195F",
":  c #1702184119C7",
">  c #1D151C781BB8",
",  c #237215B30515",
"<  c #2E101E3B0AE8",
"1  c #30931E7B0867",
"2  c #29D11E441029",
"3  c #14C11A2220D7",
"4  c #2AB9297027DE",
"5  c #2AC52D8830E6",
"6  c #30363111321C",
"7  c #30E634CF3983",
"8  c #393F392138FB",
"9  c #4D0D35C51A53",
"0  c #54863806153D",
"q  c #58643A7115E5",
"w  c #64B0445B1CE6",
"e  c #5A8E40231FED",
"r  c #61A7462924B5",
"t  c #66C948B624A0",
"y  c #6AB44BAA2660",
"u  c #6F0A4F6A292D",
"i  c #726F4DB920ED",
"p  c #6FC350CB2AFB",
"a  c #7E425632254E",
"s  c #705E50D42A83",
"d  c #7C8B590E2DBD",
"f  c #43F445154678",
"g  c #454E47F14B2A",
"h  c #4CF94C844BF6",
"j  c #4BDB4ED35273",
"k  c #540953985311",
"l  c #57E457AE576B",
"z  c #54B7577B5ADC",
"x  c #55AD591C5D51",
"c  c #5A745A2F59DA",
"v  c #5B275DFE617F",
"b  c #5E51612B64B6",
"n  c #64AD646F6423",
"m  c #6889683A67DA",
"M  c #6C0A6BC86B77",
"N  c #6BA16FDE750B",
"B  c #6BC76FFB751C",
"V  c #736873D97453",
"C  c #793C7B4A7DB9",
"Z  c #80C75872273A",
"A  c #842D5C772BFE",
"S  c #8D0065733529",
"D  c #9327671C315C",
"F  c #952168923231",
"G  c #98A56C2A35E3",
"H  c #947D6B2338C6",
"J  c #9C266F0E3807",
"K  c #A00F707A3669",
"L  c #9E1171403A93",
"P  c #A03C709D367F",
"I  c #AAE97A7A3F5F",
"U  c #AC567C45419C",
"Y  c #B49B81F0441C",
"T  c #BBE7863944B7",
"R  c #B93E86714879",
"E  c #BE4789A14961",
"W  c #C5108E584B91",
"Q  c #CB4F92984D61",
"!  c #D16897034FC0",
"~  c #CDFD9547500F",
"^  c #D1F597C050B8",
"/  c #D59E9A73523F",
"(  c #DA379DF15461",
")  c #DF09A183566E",
"_  c #E120A30B5745",
"`  c #E44DA5B75955",
"'  c #E7F8A8C95BAE",
"]  c #E8E9A91B5B3C",
"[  c #7CF57EDB8119",
"{  c #81F8826182E3",
"}  c #84F386DD8933",
"|  c #865D886D8AEF",
" . c #8B3C8A8A89B0",
".. c #907690288FC9",
"X. c #92DC94149587",
"o. c #947B97719B0D",
"O. c #9581992D9DA7",
"+. c #A4E5A593A650",
"@. c #AC6BAFE0B418",
"#. c #B3A0B30CB257",
"$. c #C3B0C3F7C44E",
"%. c #C55DC72BC95F",
"&. c #C76CC850C963",
"*. c #CE17CDDBCD91",
"=. c #CDF6CFB7D1DA",
"-. c #DE3DDE1BDDF1",
";. c #E5E8E59AE53A",
":. c #ED60EDE0EE7C",
">. c #F085F070F052",
",. c #F5E4F5B1F572",
"<. c #F875F87FF88C",
"1. c #FE8AFE83FE7B",
/* pixels */
"/ / / / / / / / / / / / / / / / / / / / / / / / / / / / / ( / / / / ",
"/ / / / / / ( / / / ( / / / / / ! ^ / / / / / ( / / / / / / / / ( / ",
"/ / / / / / / / / / / / / / / ) ' ' ) / / / / / / / / / / / / / / / ",
"/ / / / / / / / / / / / / / ) I 1 1 U ) / / / / / / / / / / / / / / ",
"/ / / / / / / / / / / / / ( W # N N # W ( ^ / / / / / / / / / / / / ",
"/ / / / / / / / / / / / / ` G 3 1.1.> G ` ^ / / / / / / / / / / / / ",
"/ / / / / / / / ( / / / / ( E @ { { @ E ( ^ / / / / / / / / ( / / / ",
"/ / / / / ( / / / / / / / Q ' H     H ' ^ / / / / ( / / / / / / / / ",
"/ / / / / / / / / / ( / ! _ Q + V V + ~ _ ! / / / / / / / / / / / / ",
"/ ( / / / / / / / / / ! ' R . b 1.1.v . E ' ^ / / / / / / / / / / / ",
"/ / / / / / / / / / / ' H   C 1.1.1.1.C   H ' ^ / / / / ( / / / / / ",
"/ / / / / / / / / ^ _ u   +.1.1.,.,.1.1.+.  s ` / / / / / / / / / / ",
"/ / / / / / / / / _ S   $.1.,.1.m m 1.1.1.$.  S ` ^ / / / / / / / ( ",
"/ / / / / / / / / ( $ } 1.1.,.1.h k 1.,.1.1.} $ ) / / / / / / / / / ",
"/ / ( / / / / / ) Y O -.1.1.X.  O O    .1.1.-.O Y ) / / / / / / / / ",
"/ / / / / / / / ` J ; ,.1.1.:.;.f g ;.:.1.1.,.: P _ / / / / / / / / ",
"/ / ( / / / / / ) U O ;.1.1.1.1.n m 1.1.1.1.;.O U _ / / / / / / / / ",
"/ / / / / / / / / / . O.1.,.1.1.>.>.1.<.1.1.X.. / ( / / / / / / / / ",
"/ / / / / / / / ^ ' d o =.1.1.1.<.<.1.1.1.*.o d ` ^ / / / / / / / / ",
"/ / / / / / / / / / _ y   V { c j j x Y V   y ` ^ / / / / / / / / / ",
"/ / / / / / / / / / ^ ] P   8 c b N c 8   L ] ^ / / ( / / / / / / / ",
"/ / / / / / / / / / ! ' A g 1.1.1.1.1.1.f A ` ^ / / / / ( / / / / / ",
"/ / / / / / / / / / ^ ` 1 x  .l g h l  .z < ` ^ / / / / / / / / ( / ",
"/ / ( / / / / / / ^ ) U   4 f n N M b h 4   U ) / / / / / / / / / / ",
"/ / / / / ^ ^ ^ ^ ! _ p   7 } #.$.$.#.} 7   p _ Q / ^ ^ ^ ^ / / / / ",
"/ / / ^ ( ] ] ] ] ] ` ( Y Z , * > > * , Z Y ( ` ] ] ] ] ' ( / / / / ",
"/ / / ) Q a q 0 0 i F Y Q D X %.h k $.X F Q Y F i 0 0 q Z Q ` ^ / / ",
"/ / ) G = v O.@.O.x 5 - # 5 %.-.X X -.%.5 # : 5 x O.@.o.c - H ) ^ / ",
"/ ^ ) L * ;.:.=.:.1.1.1.1.1.;.: e e 3 ;.1.1.1.1.1.:.=.:.:.* L ) / / ",
"/ / ^ ] r O 2 , % > 6 j z 7   9 ( ( 9   7 x h 6 > % , 2 O r ] ^ / / ",
"/ / / ( Q U ( ) ^ T J a w w U ' / / ` I w w Z K T ^ ) ( I Q / / / / ",
"/ / / / / ) / / ( ( _ ' ' ' _ ^ / / ^ ) ] ] ' ` ( ( ^ / ) ( / / / / ",
"/ / / / / / / / / / / ^ ^ ^ / / / / / / ^ ^ ^ / / / / / / / / / / / ",
"/ / / / / / / / / / / / / / / / / / / / / / / / / / / / / / / / / / "
};
