/* XPM */
static char *bld__[] = {
/* columns rows colors chars-per-pixel */
"41 41 118 2",
"   c #00FE00700071",
".  c #0B56056F00F6",
"X  c #0E4B08AF0258",
"o  c #041B06CE0A37",
"O  c #0746091C0B85",
"+  c #0BB20B670B18",
"@  c #112F0A820344",
"#  c #11060DE90A44",
"$  c #1C2611160397",
"%  c #080C0CA91249",
"&  c #0EDB0F9D108B",
"*  c #12DA122A1153",
"=  c #192D171A1495",
"-  c #13A4160B192B",
";  c #161F18801B9C",
":  c #1C6E1AAF1878",
">  c #24B615B60391",
",  c #28D9192D064A",
"<  c #21901654089F",
"1  c #24B119F90D3A",
"2  c #2B711B3A07A4",
"3  c #31F71EF707CA",
"4  c #349621C10AC7",
"5  c #393024E10C18",
"6  c #3184234611E4",
"7  c #1C341E65211C",
"8  c #226A222E21E4",
"9  c #22A625A5295C",
"0  c #23AF27BE2CB2",
"q  c #2FCC2F8D2F40",
"w  c #296E2C953084",
"e  c #353234D3345F",
"r  c #30AF34C839C8",
"t  c #345338473D1B",
"y  c #431B2DF01414",
"u  c #45FE32411A2B",
"i  c #486A33C21A91",
"p  c #52B639481A67",
"a  c #59DE3CA118F2",
"s  c #51C23B411FED",
"d  c #413C3F893D75",
"f  c #5D29405D1D38",
"g  c #6288441A1EF6",
"h  c #41FD404B3E3A",
"j  c #67DC4A3E261A",
"k  c #6A4E4C0B271D",
"l  c #75CD54972C13",
"z  c #7A0556562ACB",
"x  c #7D655B4131B3",
"c  c #3F6243724868",
"v  c #440244394480",
"b  c #46F847C648C1",
"n  c #459E48EF4CFA",
"m  c #4A834C504E85",
"M  c #4E7B51A1557C",
"N  c #5572553654EC",
"B  c #54F057BC5B1F",
"V  c #552C57F45B51",
"C  c #5BA65C085C72",
"Z  c #59FB5D7F61CA",
"A  c #63DD63C363A7",
"S  c #6C776BEA6B3D",
"D  c #77E1777B76FE",
"F  c #725F754978DA",
"G  c #7BE17B827B0E",
"H  c #81985DFB3292",
"J  c #85CE609F333E",
"K  c #8BAE649634E1",
"L  c #9D117019393A",
"P  c #A5AE77BD3F9D",
"I  c #A3B2772840D1",
"U  c #A707790D40EF",
"Y  c #A9F37B404241",
"T  c #B06D7FC2445C",
"R  c #B4CF822C4460",
"E  c #B8CD84C0453B",
"W  c #B67484E34865",
"Q  c #B93D868E48B2",
"!  c #BD6D896549E6",
"~  c #C3A08D384AD4",
"^  c #C70290F64F02",
"/  c #CDCA94BF4F23",
"(  c #CDD4955E5078",
")  c #D145976F50D9",
"_  c #D5AC9A7D5245",
"`  c #DB339E9854A3",
"'  c #DECFA12F55FC",
"]  c #DFB3A2A8582B",
"[  c #E225A3B15779",
"{  c #E486A5CB593C",
"}  c #E71FA8365B72",
"|  c #E9EFAA0B5C14",
" . c #F091AE9C5E1E",
".. c #FA90B64062E3",
"X. c #7FE680828142",
"o. c #84A3845E8411",
"O. c #8BA88B6D8B25",
"+. c #92FA93F99531",
"@. c #9B359AFF9ABD",
"#. c #A459A4F8A5B9",
"$. c #A3F6A600A87D",
"%. c #A73FA8F5AB0B",
"&. c #AB88AB43AAF0",
"*. c #B160AFBEADC2",
"=. c #B512B657B7E5",
"-. c #BE05BE1CBE39",
";. c #C063BFFFBF84",
":. c #C4ADC428C383",
">. c #CBF2CB7BCAEF",
",. c #D399D2F6D22F",
"<. c #DCE1DC38DB60",
"1. c #E548E567E58C",
"2. c #E79FE7FDE871",
"3. c #EC9CECA0ECA6",
"4. c #F1A0F048EEA2",
"5. c #F5DEF560F4C6",
"6. c #F93BF8C4F832",
"7. c #FEACFEA7FEA1",
/* pixels */
"_ _ _ _ _ _ _ _ _ _ _ _ _ _ _ _ _ _ _ _ _ _ _ _ _ _ _ _ _ _ _ _ _ _ _ _ _ _ _ _ _ ",
"_ _ _ _ _ _ _ _ _ _ _ _ _ _ _ _ _ _ _ _ _ _ _ _ _ _ _ _ _ _ _ _ _ _ _ _ _ _ _ _ _ ",
"_ _ _ _ _ _ _ _ _ _ _ _ _ _ _ _ _ _ _ _ ' _ _ _ _ _ _ _ _ _ _ _ _ _ _ ` _ _ _ _ _ ",
"_ _ _ _ _ _ _ _ _ _ _ _ _ _ _ _ _ _ [ ` ! _ ' _ _ _ _ _ _ _ _ _ _ _ _ _ _ _ _ _ _ ",
"_ ` _ _ _ _ _ _ _ _ _ _ _ _ _ _ _ ' P @   @ P ' _ _ _ _ _ _ _ _ _ _ _ _ _ _ _ _ ` ",
"_ _ _ _ _ _ _ _ _ _ _ _ _ _ _ _ _ / X m :.m X ( _ _ _ _ _ _ _ _ _ _ _ _ _ _ _ _ _ ",
"_ _ _ _ _ _ _ _ _ _ _ _ _ _ _ _ [ P   >.7.>.  U [ _ _ _ _ _ _ _ _ _ _ _ _ _ _ _ _ ",
"_ _ _ _ _ _ _ _ _ _ _ _ _ _ _ _ ` !   O.7.O.  ! ` _ ` _ _ _ _ _ _ _ _ _ _ _ _ _ _ ",
"_ _ _ _ _ _ _ _ _ _ _ _ _ _ _ _ _ ` l   +   l ` _ _ _ _ _ _ _ _ _ _ _ _ _ _ _ ` _ ",
"_ _ _ _ _ _ _ _ _ _ _ _ _ _ _ _ ) { W . * . Q [ ) _ _ _ _ _ _ _ _ _ _ _ _ _ _ _ _ ",
"_ _ _ _ _ _ _ _ _ _ _ _ _ _ _ ) } W   v 5.c   Q [ _ _ _ _ _ _ _ _ _ _ _ _ _ _ _ _ ",
"_ _ _ _ _ _ _ _ _ _ _ _ _ _ ) } I   v 6.7.5.v   U } ) _ _ _ _ _ _ _ _ _ _ _ _ _ _ ",
"_ _ _ _ _ _ _ _ _ _ _ _ _ _ } x   A 7.7.6.7.7.C   H } _ _ _ _ _ _ _ ` _ _ _ _ _ _ ",
"_ _ _ _ _ _ _ _ _ _ _ _ _ _ s   o.7.7.7.7.7.7.7.o.  p ` _ _ _ _ _ _ _ _ _ _ _ _ _ ",
"_ _ _ _ _ _ ` _ ` _ _ _ ' u   &.7.7.7.2.G 3.7.6.7.&.  i ' _ _ _ _ _ _ _ _ _ _ _ _ ",
"_ _ _ _ _ _ _ _ _ _ _ { H   *.7.6.7.7.:.  >.7.7.7.7.&.  J [ _ _ _ _ _ _ _ _ _ _ _ ",
"_ _ _ _ _ _ _ _ _ _ _ ' $ n 7.6.7.3.<.%.  &.<.3.7.7.7.n > ] _ _ _ _ _ _ _ _ _ _ _ ",
"_ _ _ _ _ _ _ _ _ _ ` !   #.7.6.7.o.          G 7.6.7.#.  ~ ` _ _ _ _ _ _ _ _ _ _ ",
"_ _ _ _ _ _ _ _ _ _ ' U   >.7.7.7.2.>.+.  @.>.1.7.7.7.>.  U ' _ _ _ _ _ _ _ _ _ _ ",
"_ _ _ _ _ _ _ _ _ _ [ Y   -.7.7.7.7.7.:.  >.7.7.7.7.7.-.  R ` _ _ _ _ _ _ _ _ _ _ ",
"_ _ _ _ _ _ _ _ _ _ _ ^   o.7.7.7.7.7.2.D 3.7.7.7.7.7.X.  ( _ _ _ _ _ _ _ _ _ _ ` ",
"_ _ _ _ _ _ _ _ _ _ _ { y ; 5.7.7.7.7.7.7.7.7.7.7.7.3.- y { _ _ _ _ _ _ _ _ _ _ _ ",
"_ _ _ _ _ _ _ _ _ _ ) ` R   b 6.7.7.7.7.7.7.7.7.7.5.v   W ' _ _ ` _ _ _ _ _ _ _ _ ",
"_ ` _ _ _ _ _ _ _ _ _ _ [ I . ; O.O.A N m N A O.O.- X Y [ ( _ _ _ _ _ _ _ _ _ _ _ ",
"_ _ _ _ _ _ _ _ _ _ _ _ _ ' _ u   + 8 w e q 7 +   i _ ' ) _ _ _ _ _ _ _ _ _ _ _ _ ",
"_ _ _ _ _ _ _ _ _ _ _ _ _ / | a t 7.7.7.7.7.7.7.r f | ) _ _ _ _ _ _ _ _ _ _ _ _ _ ",
"_ _ _ _ _ _ _ _ _ _ _ _ _ _ / . &.7.7.5.5.5.7.7.#.. ^ _ _ _ _ _ _ _ _ _ _ _ _ _ _ ",
"_ _ _ _ _ _ _ _ _ _ _ _ ) } H   v 8 +       + 8 v   J { _ _ _ _ _ _ _ _ _ _ _ _ _ ",
"_ _ _ _ _ _ _ _ _ _ _ _ _ ' 6 O h S O.@.@.@.O.S d + 6 _ _ _ _ _ _ _ _ _ _ _ _ _ _ ",
"_ _ _ _ _ _ _ _ _ _ _ _ ' Y   + N +.:.,.<.,.:.+.M +   T ` _ _ _ _ _ _ _ _ _ _ _ _ ",
"_ _ _ _ _ ) _ ' ' ` ` _ _ ( Y j 3 X   +   +   X 3 j Y / _ _ _ ' ` ` _ ) _ _ _ _ _ ",
"_ _ _ _ _ } { ~ E R ! _ { | | ..{ , M -.  :.m 2 { .. .} } _ ! E E ~ ' } ` _ _ _ _ ",
"_ _ _ _ ) l $ @ = : X . > y g p   0 7.o.  O.7.8   p g y < . @ : = @ $ z ) _ _ _ _ ",
"_ _ _ [ y + $.1.7.7.2.&.F n 0 r +.7.<.# < * <.7.+.r 0 b F &.2.7.7.1.$.% y [ _ _ _ ",
"_ _ _ [ K o <.3.=.-.1.7.7.7.7.7.7.,.7 $ ! $ 7 ,.7.7.7.7.7.7.1.-.=.3.<.o K [ _ _ _ ",
"_ _ _ _ [ u o # . .   % 9 v Z V w   1 W } Q 1   w V Z v 9 +   . . # o u [ _ _ _ _ ",
"_ _ _ _ _ ! z ~ _ ) E L z a 5 > 5 K _ ' ) ' _ x 5 < 5 a z L E ) _ ~ z Q ` _ _ _ _ ",
"_ _ _ _ _ _ } _ _ _ ` [ } } } { { [ _ _ _ _ _ { { [ } | } [ ` _ _ ` } _ _ _ _ _ _ ",
"_ _ _ _ _ _ _ _ _ _ _ _ ) ) _ ) _ _ _ _ _ _ _ _ _ _ ( ) ) _ _ _ _ _ ) _ _ _ _ _ _ ",
"_ _ _ _ _ _ _ _ _ _ _ _ _ _ _ _ _ _ _ _ _ _ ` _ _ _ _ _ _ _ _ _ _ _ _ _ _ _ _ _ _ ",
"_ _ _ _ _ _ _ _ _ _ _ _ _ _ _ _ _ _ _ _ _ _ _ _ _ _ _ _ _ _ _ _ _ _ _ _ _ _ _ _ _ "
};
