/* XPM */
static char *bld__[] = {
/* columns rows colors chars-per-pixel */
"48 48 125 2",
"   c #0089006E0091",
".  c #0BDF073B0190",
"X  c #0D4C09140423",
"o  c #032F06D90BD8",
"O  c #09010905092C",
"+  c #13DD0A0600DC",
"@  c #180C0F4C049D",
"#  c #18AD0FC004DC",
"$  c #1CCA14DE0B3A",
"%  c #0B990E6A11E1",
"&  c #0ED610DF135E",
"*  c #128113E815A2",
"=  c #145F16931944",
"-  c #1D7A1D401CFA",
";  c #2568198A0B0E",
":  c #2AC61CF60C65",
">  c #28EC1D8D0FAC",
",  c #320520CE0B74",
"<  c #3CC027050C81",
"1  c #2DDC20A21080",
"2  c #31D4241F1363",
"3  c #3A072A43170C",
"4  c #3CEF2CDE194F",
"5  c #1E5A20D223D0",
"6  c #223C228922EB",
"7  c #29F6281125C1",
"8  c #257229682E3D",
"9  c #29A929ED2A46",
"0  c #2A452E69336F",
"q  c #2F1F31C034F5",
"w  c #35FC35DE35C3",
"e  c #330B35A838D9",
"r  c #3CD73C533BB2",
"t  c #414E2A3E0E1A",
"y  c #42382D2D137E",
"u  c #42542FA018CC",
"i  c #42C430761A1E",
"p  c #50E737061771",
"a  c #518C379517E4",
"s  c #529139721AD6",
"d  c #551B3E342243",
"f  c #58853F912151",
"g  c #607142801DF5",
"h  c #5F8D4553251C",
"j  c #64014972290F",
"k  c #6BAA4E5A2A74",
"l  c #774454ED2B04",
"z  c #7CF759682E04",
"x  c #7E7D5BD0317F",
"c  c #3F4742764660",
"v  c #43F0430741FE",
"b  c #48A24C5250D2",
"n  c #5629557B54A7",
"m  c #5590591D5D75",
"M  c #5CEC5D435DAB",
"N  c #605560135FC4",
"B  c #5A1A5DD9626E",
"V  c #5FCF61E3646D",
"C  c #62DB634563C6",
"Z  c #681F66E66569",
"A  c #6B5F6C3D6D4A",
"S  c #706A70096F94",
"D  c #73C5739D736C",
"F  c #7D037B607974",
"G  c #81B05E45330C",
"H  c #85C76196356F",
"J  c #899463DC35D4",
"K  c #8D34674538FC",
"L  c #96356CA239E7",
"P  c #9B226F653A03",
"I  c #9DA0722B3D24",
"U  c #A26075683E85",
"Y  c #9FF574AD3FDD",
"T  c #A263763C405C",
"R  c #A765795F4134",
"E  c #AA7C7BE94317",
"W  c #B29A821B46EC",
"Q  c #B9B8874B49C2",
"!  c #BD36897B4A5A",
"~  c #C3E58E884D68",
"^  c #C6B690404DCA",
"/  c #CA0292804EC3",
"(  c #CDD495BE514D",
")  c #D1F797D050D8",
"_  c #D5A79A795242",
"`  c #DAA89E1F543F",
"'  c #DEC9A134560D",
"]  c #DFA6A35159B1",
"[  c #E271A3C6574D",
"{  c #E537A5FB58D0",
"}  c #E7E3A89A5B60",
"|  c #EA74AA295BB4",
" . c #853A848983AF",
".. c #88C187458578",
"X. c #8B6D89E68807",
"o. c #8CA68BEC8B06",
"O. c #919990D48FE5",
"+. c #9538950C94D8",
"@. c #986F982B97DA",
"#. c #9D329D339D34",
"$. c #A0B7A065A001",
"%. c #9FEFA016A047",
"&. c #A305A2A9A237",
"*. c #A8E6A7FCA6DE",
"=. c #A9E5A8F1A7C7",
"-. c #AC51ABF2AB7E",
";. c #B070B030AFE3",
":. c #B42BB3F6B3B5",
">. c #BD37BC9EBBE2",
",. c #C491C3B1C29F",
"<. c #C95BC887C785",
"1. c #CAE3CA93CA30",
"2. c #D776D6D9D617",
"3. c #D953D857D725",
"4. c #DA44D941D804",
"5. c #DBF3DB55DA95",
"6. c #E3CFE364E2E3",
"7. c #E8C1E7FCE709",
"8. c #E9C3E8BAE770",
"9. c #ED94ED3AECCD",
"0. c #F0F9F043EF69",
"q. c #F1B8F0CFEFA7",
"w. c #F52AF493F3D7",
"e. c #F892F7C1F6BA",
"r. c #FEDAFED8FED7",
/* pixels */
"_ _ _ _ _ _ _ _ _ _ _ _ _ _ _ _ _ _ _ _ _ _ _ _ _ _ _ _ _ _ _ _ _ _ _ _ _ _ ` _ _ _ _ _ _ _ _ _ ",
"_ _ _ _ _ _ _ _ _ _ _ _ _ ` _ _ _ _ _ _ _ _ _ _ _ _ _ _ _ _ _ _ _ _ _ _ _ _ _ _ _ _ _ _ _ _ _ _ ",
"_ _ _ _ _ _ _ _ _ _ _ _ _ _ _ _ ` _ _ _ _ _ _ ) _ ) _ _ _ _ _ _ _ _ ` _ _ _ _ _ _ _ _ _ _ ` _ _ ",
"_ _ _ _ _ _ ` _ _ _ _ _ _ _ _ _ _ _ _ _ _ ) ` { { ` _ _ _ _ _ _ _ _ _ _ _ _ _ _ _ _ _ _ _ _ _ _ ",
"_ _ _ _ _ _ _ _ _ _ _ _ _ _ _ _ _ _ _ _ _ [ ~ H J ~ [ ) _ _ _ _ _ _ _ _ _ _ ` _ _ _ _ _ _ _ _ _ ",
"_ _ ` _ _ _ _ _ _ _ _ _ _ _ _ _ _ _ _ ) ' U .     X U ' _ _ _ _ _ _ _ _ _ _ _ _ _ _ _ _ _ _ _ _ ",
"_ _ _ _ _ _ _ _ _ _ _ _ _ _ _ _ _ _ _ _ ) @ 6 ,.,.6 @ ) ` _ _ _ _ _ _ _ _ _ _ _ _ _ _ _ _ _ _ _ ",
"_ _ _ _ _ _ _ _ ` _ _ _ _ _ _ _ _ _ _ ' W   +.r.r.+.  W ' _ _ _ _ _ _ _ _ _ _ _ _ _ _ ` _ _ _ _ ",
"_ _ _ _ _ _ _ _ _ _ _ _ ` _ _ _ _ _ _ ` Q   D r.r.D   Q ` _ _ _ _ _ _ _ _ _ _ _ _ _ _ _ _ _ _ _ ",
"_ _ _ _ _ _ _ _ _ _ _ _ _ _ _ _ _ _ _ _ ' i   n n   i ' _ _ _ _ ` _ _ _ _ _ _ _ _ _ _ _ ` _ _ _ ",
"_ _ _ _ _ _ _ _ _ _ _ _ _ _ _ _ _ _ _ _ _ ` 2     2 ` _ _ _ _ _ _ _ _ _ _ _ _ _ _ _ _ _ _ _ _ _ ",
"_ _ _ _ _ _ _ _ _ _ ` _ _ _ _ _ _ _ _ ) { I   w w   T { ) _ _ _ _ _ _ _ _ _ _ _ _ _ _ _ _ _ _ _ ",
"_ _ _ _ _ _ _ ` _ _ _ _ _ _ _ _ _ _ ) { I   6 8.7.5   Y { ) _ _ _ _ _ _ _ _ _ _ _ _ _ _ _ _ _ _ ",
"` _ _ _ _ _ _ _ _ _ _ _ _ _ _ _ _ _ { H   9 6.r.r.6.8 o K { _ _ _ _ _ _ _ _ _ _ _ _ ` _ _ _ _ _ ",
"_ _ _ _ _ _ _ _ _ _ _ _ _ _ _ ) ` ' j   v 9.r.r.r.r.9.h   k [ ` ) _ _ _ _ _ _ _ _ _ _ _ _ _ _ _ ",
"_ _ _ _ _ _ _ _ _ _ _ _ _ ` ) ' / 4   Z r.r.r.r.r.r.r.e.C   4 / ' ) ` _ _ _ _ _ _ _ _ _ _ _ _ ` ",
"_ _ _ _ _ _ _ ` _ _ _ _ _ ) ' ! $   o.r.e.r.r.9.9.r.r.r.r.X.  $ ! ` _ _ _ _ _ _ _ _ _ _ _ _ _ _ ",
"_ _ _ _ _ _ _ _ _ _ _ _ _ _ ) >   =.r.r.r.r.r.w r r.e.r.r.r.=.  1 _ _ _ _ _ _ _ _ _ _ _ _ _ _ _ ",
"_ _ _ _ _ _ _ _ _ _ _ _ ) { x   ..r.e.r.r.r.r.6 9 r.r.r.r.e.r. .  H { ) _ _ _ _ _ _ ` _ _ _ _ _ ",
"_ _ _ _ _ _ _ _ _ _ _ _ _ ' : = w.r.r.r.6.>.,.- - ,.>.6.r.r.r.w.* 2 ' ) _ _ _ _ _ _ _ _ _ _ _ _ ",
"_ _ _ _ _ _ _ _ _ _ _ _ ` ~   C r.r.r.r.D   .         D r.r.e.r.V   ^ ` _ _ _ _ _ _ _ _ _ _ _ _ ",
"` _ _ _ _ _ _ _ _ _ _ _ ] E   o.r.e.r.r.6.=.-.= - :.=.5.r.r.r.r.o.  W ' _ _ _ _ _ _ _ _ _ _ _ _ ",
"_ _ _ _ _ _ _ _ _ _ _ ) [ E   X.r.e.r.r.r.r.r.6 9 r.r.r.r.r.e.r.X.  W ' ) _ _ _ _ _ _ _ ` _ _ _ ",
"_ _ _ _ _ _ _ _ _ _ _ _ ` !   M r.r.r.r.r.e.r.w r r.e.r.r.r.r.r.M   ~ ` _ _ _ _ _ _ _ _ _ _ _ _ ",
"_ _ _ _ _ _ _ _ _ _ _ _ _ ` ; * w.r.r.r.r.r.r.9.9.r.r.r.r.r.r.9.& ; ` _ _ _ _ _ _ _ _ _ _ _ _ _ ",
"_ _ ` _ _ _ _ _ _ _ _ _ ) { G   F r.e.r.r.e.r.r.r.r.r.e.r.e.r.D   H { ) _ _ _ _ _ _ _ _ _ _ _ _ ",
"_ _ _ _ _ _ _ _ _ _ ` _ _ _ ` 2   ..r.r.r.r.r.r.r.r.r.r.r.r. .  3 ` _ _ _ _ _ _ _ _ _ _ ` _ _ _ ",
"_ _ _ _ _ _ _ _ _ _ _ _ _ ) ` ( 4   w &.@.D C n n C D @.&.w   i ( ` _ _ _ _ _ _ _ _ _ _ _ _ _ _ ",
"_ _ _ _ _ _ _ _ _ _ _ _ _ _ _ ` ' G X         O O         X H ' _ _ _ _ _ _ _ _ _ _ _ _ _ _ _ _ ",
"_ _ _ _ _ _ _ _ _ _ _ _ _ _ _ ) _ | : e 2.6.9.w.w.9.6.3.e : | ) _ _ _ _ _ _ _ _ _ _ ` _ _ _ _ _ ",
"_ _ _ _ _ _ ` _ _ _ _ _ _ _ _ ) ' R   *.r.r.r.r.r.r.e.r.$.  E ' _ _ _ _ _ _ _ _ _ _ _ _ _ _ _ _ ",
"_ _ _ _ _ _ _ _ _ _ _ _ _ _ _ ) { s * 7.2.>.=.&.&.=.>.4.6.% s { ) _ ` _ _ _ _ _ _ _ _ _ _ _ _ _ ",
"_ _ ` _ _ _ _ _ _ _ _ _ _ _ _ ` / + o .                 . o X ~ ` _ _ _ _ _ _ _ _ _ _ _ _ _ _ _ ",
"_ _ _ _ _ _ _ _ _ _ _ _ _ _ ) { G   7 Z @.;.,.,.,.>.;.@.C 7   G { ) _ _ _ _ _ _ _ _ _ _ _ _ _ _ ",
"_ _ _ _ _ _ _ _ _ _ _ _ _ _ _ ` 2   5 A &.1.6.8.8.6.1.%.A 5   2 ` _ _ _ _ _ _ _ ` _ _ _ _ ` _ _ ",
"_ _ _ _ _ _ _ ) ) ) _ ) ) ) ) ) U k ;                     : k E ) ) ) ) ) ) _ ) ) _ _ _ _ _ _ _ ",
"_ _ _ _ _ ) _ { | } } | | { [ ' [ { { ] d   -.6 6 =.  h ] { } [ ` [ { { } } | { [ _ ) _ _ _ _ _ ",
"_ _ _ _ _ { ) I g y t < s z I Q ( _ ~ d   o.e.O * r. .  h ! ) ( Q U z p < y y g P _ { _ _ _ _ _ ",
"_ _ _ _ _ J #   8 b B m 0             o  .r.#.    #.r. .              q m B b 8   $ J _ _ _ _ _ ",
"_ _ _ ` / X 6 8.r.r.r.r.r.q.<.#.D C +.8.r.4.O 1 : & 5.r.7.+.C D #.<.w.r.r.r.r.r.6.6 . / ` _ _ _ ",
"_ _ _ ) [ x   >.9.-.#.:.4.e.r.r.r.r.r.r.,.6   I Y   6 ,.r.r.r.r.r.r.e.3.:.#.-.0.>.  G [ ) _ _ _ ",
"_ _ _ _ _ ` 1 o O         o 5 v C A M 9   X K ' ' L .   9 M A C v 5 o         O o 2 ` _ _ _ _ _ ",
"_ _ _ _ ) [ R u I ! ^ W L l s , +     + h ~ [ ) ) [ Q d +     + , s l L Q ~ ! I u R ' ) _ _ _ _ ",
"_ _ _ _ _ _ _ { { ` ` ' ] } } } ] ( ^ _ { ` ) _ _ ) ` } _ ^ ( ' { } { [ ' ` ` [ [ ` _ _ _ _ _ _ ",
"_ _ _ _ _ _ _ _ ) _ _ _ ) ) ) ) _ ` ` _ ) _ _ _ _ _ _ ) _ ` ` _ ) ) ) _ _ _ _ ) _ _ _ _ ` _ _ _ ",
"_ _ _ _ _ _ _ _ _ _ _ _ _ _ _ _ _ _ ) _ _ _ _ _ _ _ _ _ _ _ _ _ _ _ _ _ _ _ _ _ _ _ _ _ _ _ _ _ ",
"_ _ _ _ _ _ _ _ _ _ _ _ _ _ _ _ _ ` _ _ _ _ _ _ _ _ _ _ _ _ _ _ _ _ _ _ _ _ _ _ _ _ _ _ _ _ _ _ ",
"_ _ ` _ _ _ _ _ _ _ _ _ _ _ _ _ _ _ _ _ _ _ _ _ _ _ _ _ _ _ _ _ _ _ _ _ _ _ _ _ _ _ _ _ _ _ _ _ "
};
