/* XPM */
static char *bld__[] = {
/* columns rows colors chars-per-pixel */
"47 47 119 2",
"   c #00A5009400BB",
".  c #096305B4014B",
"X  c #0E1708C502A2",
"o  c #0574068E080F",
"O  c #05DE07AB09F8",
"+  c #0B700BF10C90",
"@  c #10E4076C0000",
"#  c #12DC0ABF02AF",
"$  c #16DA0FCD0732",
"%  c #1C6A116F0409",
"&  c #16DD0FE7078C",
"*  c #0BEB0EB8121B",
"=  c #0F821261160B",
"-  c #132A131012F4",
";  c #12C514F817A9",
":  c #1B241B141AFF",
">  c #2DE51C9D071A",
",  c #208917200BBB",
"<  c #23B419B10D8A",
"1  c #2C9E1CA70938",
"2  c #26491C2A0FD9",
"3  c #2F4620070D6B",
"4  c #3048217D109A",
"5  c #3CB02C5B186E",
"6  c #1DC11F8D21BE",
"7  c #1C65200C247A",
"8  c #236C240A24CA",
"9  c #2156253529EF",
"0  c #2570284D2BCA",
"q  c #2C222D6D2F11",
"w  c #30392FF02F98",
"e  c #2DC92ED53034",
"r  c #2E3330C033DC",
"t  c #34A3345E340A",
"y  c #388237A43695",
"u  c #3544384A3BFC",
"i  c #3B953BC03BF4",
"p  c #40822EA218D1",
"a  c #4F34360D176E",
"s  c #4B67351819F2",
"d  c #500038721BC5",
"f  c #4F1939F12027",
"g  c #53D53CE520E9",
"h  c #5DD444692569",
"j  c #40F9403A3F58",
"k  c #670749F72680",
"l  c #6A3F4CC028BC",
"z  c #74D7514925E5",
"x  c #72C152592AC7",
"c  c #7DA05A512F3B",
"v  c #7E7B5BBF315D",
"b  c #390A3C133FC6",
"n  c #441043C4436B",
"m  c #4A4D4AE54B9F",
"M  c #49EA4D0250C8",
"N  c #4F3651615407",
"B  c #58D9589F5859",
"V  c #602D5F645E6D",
"C  c #5CC05EA560F5",
"Z  c #646F63B462CE",
"A  c #6A16686E6668",
"S  c #6C146B4E6A5F",
"D  c #719A728873A7",
"F  c #7C967C257B9D",
"G  c #82365E9E332E",
"H  c #862A61A33513",
"J  c #8CA463EF3241",
"K  c #8ABC656A37DF",
"L  c #8F46686538F6",
"P  c #922168E43690",
"I  c #925E69D4385A",
"U  c #9C56724A3EFA",
"Y  c #A2E976093F0A",
"T  c #A4167742408C",
"R  c #A7597970416A",
"E  c #AB1A7C384301",
"W  c #B3BB82CF471B",
"Q  c #BA8C87954963",
"!  c #BDCE899C49E9",
"~  c #C36B8DB34C23",
"^  c #C83291804EC0",
"/  c #CA8093094F5B",
"(  c #CD70954250B2",
")  c #D1E197CE50EE",
"_  c #D5AC9A7D5244",
"`  c #DAF09E7354A1",
"'  c #DEDCA15F5656",
"]  c #E219A3855727",
"[  c #E575A6365907",
"{  c #E972A8C159CE",
"}  c #83B8843C84DE",
"|  c #885087D5873F",
" . c #8B8F8B5A8B1A",
".. c #927591128F62",
"X. c #8FDC90969177",
"o. c #92F7927191CE",
"O. c #9828965E942F",
"+. c #9D459C809B8E",
"@. c #A494A3E5A311",
"#. c #AD73AD0FAC97",
"$. c #B595B52AB4AB",
"%. c #BE1ABCFBBB9D",
"&. c #C082BF69BE12",
"*. c #C644C576C47A",
"=. c #CA0EC915C7E5",
"-. c #CD96CD33CCBA",
";. c #D0BAD023CF6D",
":. c #D0DBD06ECFE8",
">. c #D3DED31AD229",
",. c #D874D833D7E3",
"<. c #DA81D974D82D",
"1. c #DE2BDD03DB9A",
"2. c #E499E3F9E335",
"3. c #E889E7ECE72D",
"4. c #ECF1EC6BEBC5",
"5. c #F64DF5B0F4EE",
"6. c #F885F7E9F727",
"7. c #F940F8A1F7E0",
"8. c #FECEFEC8FEC1",
/* pixels */
"_ _ _ _ _ _ _ _ _ _ _ _ _ _ _ _ _ _ ` _ _ _ _ _ _ _ _ _ _ _ _ _ _ _ _ _ _ _ _ _ _ _ _ _ _ _ _ ",
"_ _ _ _ _ _ _ _ _ _ _ _ _ _ _ _ _ _ _ _ _ _ _ _ _ _ _ _ _ _ _ _ _ _ ` _ _ _ _ _ _ _ _ _ _ _ _ ",
"_ _ _ _ _ _ _ _ _ _ _ _ _ _ _ _ _ _ _ _ _ _ ) ) _ _ _ _ _ _ _ _ _ _ _ _ _ _ _ _ _ _ _ _ _ _ _ ",
"_ _ _ _ _ _ _ _ _ _ ` _ _ _ _ _ _ _ _ _ _ _ ] { ] _ _ _ _ _ _ _ _ _ _ _ _ _ _ _ _ _ _ _ _ _ _ ",
"_ _ _ ` _ _ _ _ _ _ _ _ _ _ _ _ _ _ _ _ _ _ I k I _ _ _ _ _ _ _ _ _ _ _ _ _ _ _ _ _ _ _ _ _ _ ",
"_ _ _ _ _ _ _ _ _ _ _ _ _ _ _ _ _ _ _ _ _ p       p _ _ _ _ _ _ _ _ _ _ _ _ _ _ _ _ _ _ _ _ _ ",
"_ _ _ _ _ _ _ _ _ _ _ _ _ _ _ _ _ _ _ ] H   O.5.O.  G ] _ _ _ _ _ _ _ _ _ _ _ ` _ _ ` _ _ _ _ ",
"_ _ _ _ _ _ _ _ _ _ _ _ _ _ _ _ _ _ _ { d * 5.8.5.= d { ) _ _ _ _ _ _ _ _ _ _ _ _ _ _ _ _ _ _ ",
"_ _ _ _ _ _ _ _ _ _ _ _ _ _ _ _ _ _ ) { l   *.8.*.  l [ ) _ _ _ _ _ _ _ _ _ _ _ _ _ _ _ _ _ _ ",
"_ _ _ _ _ _ _ _ _ _ _ _ _ _ _ _ _ _ _ _ ~ # + y + # ~ _ ) _ _ _ _ _ _ _ _ _ _ _ _ _ _ _ _ _ _ ",
"_ _ _ _ _ _ _ _ _ _ _ _ _ _ _ _ _ _ _ ) { T       E [ ) _ _ _ _ _ _ ` _ _ _ _ _ _ _ _ _ ` _ _ ",
"_ _ _ _ _ _ _ _ _ ` _ _ _ _ _ _ _ _ ) ' ^ , = o.* < / ' ) _ _ _ _ _ _ _ _ _ _ _ _ _ _ _ _ _ _ ",
"_ _ _ _ ` _ _ _ _ _ _ _ _ _ _ _ _ ) ] ~ <   $.8.$.  2 ^ [ ) _ _ _ _ _ _ _ _ _ _ _ _ _ _ _ _ _ ",
"_ _ _ _ _ _ _ _ _ _ _ _ _ _ _ _ ) [ W # + &.8.7.8.%.+ & W [ ) ) _ _ _ _ _ _ _ _ _ _ _ _ _ _ _ ",
"_ _ _ _ _ _ _ _ _ _ _ _ _ _ _ _ { K   8 >.8.7.8.7.8.:.2   K [ _ _ _ _ _ _ _ _ _ _ ` _ _ _ _ _ ",
"_ _ _ _ _ _ _ _ _ _ _ _ _ _ _ ] h   i 4.8.8.8.8.8.8.8.4.i   k ] _ _ _ _ _ _ _ _ _ _ _ _ _ _ _ ",
"_ _ _ _ _ _ _ _ _ _ _ _ _ _ ` d   Z 8.8.8.8.4.O.4.8.7.8.8.Z   g ' _ _ _ _ _ _ _ _ _ _ _ _ _ _ ",
"_ _ _ _ _ _ _ _ _ _ _ _ ) ] G   S 8.7.8.7.8.#.  $.8.7.8.8.8.A   H ] ) _ _ _ _ _ _ _ _ _ _ _ _ ",
"_ _ _ _ _ _ _ ` _ _ _ _ _ _ $ 8 7.8.8.8.7.8.#.  $.8.8.8.8.8.5.6 % ` _ _ _ _ _ _ _ _ _ _ _ _ _ ",
"_ _ _ _ _ _ _ _ _ _ _ _ ' E    .8.7.8.8.A m y   t m Z 7.8.7.8.|   W ' ) _ _ _ _ _ _ _ ` _ _ _ ",
"_ _ ` _ _ _ _ _ _ _ _ ) { v   =.8.8.8.7.t + +   - - t 5.8.8.8.=.  H ] ) _ _ _ _ _ _ _ _ _ _ ` ",
"_ _ _ _ _ _ _ _ _ _ _ ) { l   1.8.8.8.8.8.8.#.  $.8.7.8.8.8.8.1.  x { ( _ _ _ _ _ _ _ _ _ _ _ ",
"_ _ _ _ _ _ _ _ _ _ _ ) [ x   -.8.8.8.8.7.8.#.  $.8.7.8.8.8.8.=.  v ] ) _ _ _ _ _ _ _ _ _ _ _ ",
"_ _ _ _ _ _ _ _ _ _ _ _ ] U    .8.7.8.8.8.8.2.S 2.8.8.8.8.8.8. .  T ] _ _ _ _ _ _ _ _ _ _ _ _ ",
"_ _ _ _ _ _ _ ` _ _ _ _ ` ) @ 8 7.8.8.8.8.8.8.8.8.8.8.8.8.8.5.8 # ) _ _ _ _ _ _ _ _ _ _ _ _ _ ",
"_ _ _ _ _ _ _ _ _ _ _ _ ) { v   A 8.8.8.8.8.8.8.8.8.8.8.8.8.Z   H ] _ _ _ _ _ _ _ _ _ _ _ _ _ ",
"_ _ _ _ _ _ _ _ _ _ _ _ _ ) ` h   n >.7.4.>.-.=.-.>.4.8.>.i   h ' _ _ _ _ _ _ _ _ _ _ _ _ _ _ ",
"_ _ _ _ _ _ _ _ _ _ _ _ _ _ _ ] G . + -               - o . H ' _ _ _ _ _ _ _ _ _ _ _ _ _ _ _ ",
"_ _ ` _ _ _ _ _ _ _ _ _ _ _ _ ) { W   t F o.@.@.@.o.F t   W { ) _ _ _ _ _ _ _ _ _ _ _ _ _ _ _ ",
"_ _ _ _ _ _ _ _ _ _ _ _ _ _ _ ) ] v   1.8.8.8.8.8.8.8.<.  c ] ) _ _ _ _ _ _ _ _ _ _ _ _ _ _ _ ",
"_ _ _ _ _ _ _ _ _ _ _ _ _ _ _ _ ' % N 8.7.5.4.3.4.5.8.8.m % ' _ _ _ _ _ _ _ _ _ _ _ _ _ _ _ _ ",
"_ _ _ _ _ _ _ _ _ _ _ _ _ _ ) ' T   i n - o         - n i   T ' _ _ _ _ _ ` _ _ _ _ _ _ _ _ _ ",
"_ _ _ _ _ _ _ _ _ _ _ _ _ _ ) { d   - 8 n B A S A B n 8 -   d { ) _ _ _ _ _ _ _ _ _ _ _ _ _ _ ",
"_ _ _ _ _ _ _ _ _ _ _ _ _ _ _ Q o o Z &.4.8.8.8.8.8.4.%.Z   . Q ` ) _ _ _ _ _ _ _ _ _ _ _ _ _ ",
"_ _ _ _ _ _ _ _ _ ( ) ( _ ) ` ! h ,     + - : w : - o     < h ! ` ) _ ) ) ) ) _ _ _ _ _ _ _ _ ",
"_ _ _ _ _ ) _ ` { { { { ] ] ` _ ] _ ! U X 8 V   V 8 X U ! _ [ ` _ ' ] { ] { { ` _ ) _ _ _ _ _ ",
"_ _ _ _ _ ] ] Q K z z z P W ( ` ' ] _ s   >.@.  #.-.  d ) ] ' ` ( W P z z z J Q ' ' _ _ ` _ _ ",
"_ _ _ _ _ Y 4   * 9 r 9 o     X > 1   O #.8.n   n 8.#.O   1 3 @     O 9 r 9 =   4 T ` ) _ _ _ ",
"_ ` ) ` Q   r -.7.8.8.8.4.$. .B u b } 3.8.+.  5   +.8.3.} b u C  .$.4.8.8.8.5.;.r   Q ' _ _ _ ",
"_ _ _ _ ] s ; 4.7.;.=.2.8.8.8.8.8.8.8.8.@.  % ~ ,   @.8.8.8.8.8.8.8.8.2.*.>.7.4.; s ] ) _ _ _ ",
"_ _ _ _ ' ~ X 6 ;       = 0 M D X.o.D e   < Q ] ! 2   e D o.X.D M 0 *       ; 7 X ^ ` _ _ _ _ ",
"_ _ _ _ _ ] v 4 J E E P z a > X       # x ) ' ) ' ( l X       # > a x P E T J 1 G [ ) _ _ _ _ ",
"_ _ _ _ _ _ _ ] [ ' ' ] [ { ] ' ( Q ! _ { _ ) _ ) _ { ) Q Q ( ` ] { { ] ] ] { ' _ _ _ _ _ _ _ ",
"_ _ _ _ _ _ _ _ ) ) _ ) _ ( _ _ ` ' ` _ ( _ _ _ _ _ _ _ ` ` _ _ _ _ ) _ ) ) _ _ _ _ _ _ _ _ _ ",
"_ _ _ _ _ _ _ _ _ _ _ _ _ _ _ _ _ _ ) _ _ _ _ _ _ _ _ _ _ _ _ _ _ _ _ _ _ _ _ _ _ _ _ _ _ _ _ ",
"_ _ _ _ _ _ _ _ _ _ _ _ _ _ _ _ _ _ _ _ _ _ _ _ _ _ _ _ _ _ _ _ _ _ _ _ _ _ _ _ _ _ _ _ _ _ _ ",
"_ _ _ _ _ _ _ _ _ _ _ _ _ _ _ _ _ _ _ _ ` _ _ _ _ _ _ _ _ _ _ _ _ _ _ _ _ _ _ _ _ _ _ _ _ _ _ "
};
