/* XPM */
static char *bld__[] = {
/* columns rows colors chars-per-pixel */
"56 56 121 2",
"   c #00AA00AC00C7",
".  c #0A60071A035F",
"X  c #0BEC07FC038B",
"o  c #02A706CB0BDD",
"O  c #0758092C0BE9",
"+  c #0B940C0B0CB0",
"@  c #12A50B68036C",
"#  c #10E50E640B53",
"$  c #13B00FF60B68",
"%  c #1B2813990A64",
"&  c #0CAE0E681083",
"*  c #13A2134012CA",
"=  c #1B901BD21C23",
"-  c #247C1A540DF3",
";  c #26F71CCD1071",
":  c #29B31EEB11CD",
">  c #325C221E0DEB",
",  c #2E0F21A81283",
"<  c #20B520141F53",
"1  c #335224841271",
"2  c #3C882B6C167D",
"3  c #3DC52D2518E8",
"4  c #1F441F8E1FE7",
"5  c #1E99203B2230",
"6  c #229C22C722FD",
"7  c #284527F3278F",
"8  c #2A372A4B2A60",
"9  c #32ED32433176",
"0  c #3BA43B2A3A96",
"q  c #418E2F201898",
"w  c #434531521B6C",
"e  c #49E936121DDC",
"r  c #52F83B721ECC",
"t  c #4CFB38D2203B",
"y  c #548E3D95218F",
"u  c #41693F5B3CD9",
"i  c #5BCF42C2242D",
"p  c #42E740E13E67",
"a  c #613F46F026D4",
"s  c #6532491726C2",
"d  c #68884AC1264F",
"f  c #658C49F32844",
"g  c #6BA14E7F2AF2",
"h  c #6E1E501A2B7A",
"j  c #761E55BF2E3F",
"k  c #7BD959082E8D",
"l  c #7836579F2FDB",
"z  c #7C035A783182",
"x  c #44DF44834413",
"c  c #482346F9458E",
"v  c #4C294B454A32",
"b  c #50A34F714DFC",
"n  c #520E50694E66",
"m  c #4CFD4E99508E",
"M  c #525D52D35366",
"N  c #580156BB552B",
"B  c #5BBD5B555AD1",
"V  c #60A45F515DB4",
"C  c #64B664016325",
"Z  c #6893673A6595",
"A  c #694367F16653",
"S  c #6BC46B5F6AE4",
"D  c #701A6FED6FB5",
"F  c #6FD76FE86FFD",
"G  c #71C3718D714A",
"H  c #805B5BC12F17",
"J  c #80DC5D4631DA",
"K  c #87696277355D",
"L  c #8BE665B6371C",
"P  c #8FAF680737A4",
"I  c #8E9067B7384F",
"U  c #8FC468453812",
"Y  c #94336BF33AD6",
"T  c #98616E9A3B9E",
"R  c #9BFF71343CFB",
"E  c #A6C97A2743B2",
"W  c #AC727D6E440D",
"Q  c #B03F7FED44F6",
"!  c #AFF7805D4646",
"~  c #B3278222464F",
"^  c #B588841F47D4",
"/  c #B9EC86BD4847",
"(  c #BFD48B4D4B33",
")  c #C43A8E474C71",
"_  c #C72D90994DFF",
"`  c #CC0E93934EA7",
"'  c #CC9794734FF0",
"]  c #D1EF97CA50D6",
"[  c #D5B59A845247",
"{  c #DAF09E55545F",
"}  c #DEE5A13055E3",
"|  c #E2A7A3EB575C",
" . c #E502A5B45874",
".. c #836882DF8238",
"X. c #8BAA8AEF8A0B",
"o. c #951C948A93D8",
"O. c #984497D89757",
"+. c #9B129A7699BB",
"@. c #A095A0119F70",
"#. c #A24AA1C4A11F",
"$. c #A921A826A6F4",
"%. c #AA1DA8D7A74C",
"&. c #ACF2AC1AAB13",
"*. c #B501B444B35E",
"=. c #B95EB89BB7AD",
"-. c #BE31BD3EBC16",
";. c #C07BBF1DBD71",
":. c #C224C105BFA5",
">. c #C6DBC5B8C454",
",. c #CA18C8D2C744",
"<. c #CE9ECDC0CCB0",
"1. c #D0A1CFB1CE90",
"2. c #D239D118CFB6",
"3. c #D54DD449D30D",
"4. c #DEA6DE2DDD9A",
"5. c #E535E47AE397",
"6. c #E8B8E881E83E",
"7. c #ED2FECB0EC15",
"8. c #F1FDF112EFF2",
"9. c #F4EDF4B1F469",
"0. c #FF21FF1DFF18",
/* pixels */
"[ [ [ [ [ [ [ [ [ [ [ [ [ [ [ [ [ [ [ [ [ [ [ [ [ [ [ [ [ [ [ [ [ [ [ [ [ [ [ [ [ [ [ [ [ [ [ [ [ [ [ [ [ [ [ [ ",
"[ [ [ [ [ [ [ [ [ [ [ [ [ [ [ [ [ [ [ { [ [ [ [ [ [ [ [ [ [ [ [ [ [ [ [ [ [ [ [ [ [ [ [ [ { [ [ [ [ [ [ [ [ [ [ ",
"[ [ [ [ [ [ [ [ [ [ [ [ [ [ [ [ [ [ [ [ [ [ [ [ [ [ [ [ [ [ [ [ [ [ [ [ [ [ [ [ [ [ [ [ [ [ [ [ [ [ [ [ [ [ [ [ ",
"[ [ [ [ [ [ [ [ [ [ [ [ [ [ [ [ [ [ [ [ [ [ [ [ [ [ [ [ ] [ [ [ [ [ [ [ [ [ [ [ [ [ [ [ [ [ [ [ [ [ [ [ [ [ [ [ ",
"[ [ [ [ [ [ [ [ [ [ [ [ [ [ [ [ [ [ [ [ [ [ [ [ [ [ |  . .| [ [ [ [ [ [ [ [ [ [ [ [ [ [ [ [ [ [ [ [ [ [ [ [ [ [ ",
"[ [ [ [ [ [ [ [ [ [ [ [ [ [ [ [ [ [ [ [ [ [ [ [ [ { Y y y Y { [ [ [ [ [ [ [ [ [ [ [ [ [ [ [ [ [ [ [ [ [ [ { [ [ ",
"[ [ [ [ [ [ [ [ { [ [ [ [ [ [ [ [ [ [ [ [ [ [ [ { r         y { [ [ [ [ [ [ [ [ [ [ [ [ [ [ [ [ [ [ [ [ [ [ [ [ ",
"[ [ [ [ [ [ [ [ [ [ [ [ [ [ [ [ [ [ [ [ [ [ [  .P   u ;.;.0   P  .[ [ [ [ [ [ [ [ [ [ [ [ [ [ [ [ [ [ [ [ [ [ [ ",
"[ [ { [ [ [ [ [ [ [ [ [ [ [ [ [ [ [ [ [ [ [ ] | e   >.0.0.>.  e | ] [ [ [ [ [ [ [ [ [ [ [ [ [ [ [ [ [ [ [ [ [ [ ",
"[ [ [ [ [ [ [ [ [ [ [ [ [ [ [ [ [ [ [ [ [ [ ] | w   <.0.0.<.  w | ] [ [ [ [ [ [ [ [ [ [ [ [ [ [ [ [ [ [ [ [ [ [ ",
"[ [ [ [ [ [ [ [ [ [ [ [ [ [ [ [ [ [ [ [ [ [ ]  .j   N 5.5.N   j  .[ [ [ [ [ [ [ [ [ [ { [ [ [ [ [ [ [ [ [ [ [ [ ",
"[ [ [ [ [ { [ [ [ [ [ [ [ [ [ [ [ [ [ [ [ [ [ [ ` 1   . .   1 ] [ [ [ [ [ [ [ [ [ [ [ [ [ [ [ [ [ { [ [ { [ [ [ ",
"[ [ [ [ [ [ [ [ [ [ [ [ [ [ [ [ [ [ [ [ [ [ [ ] } ` $     $ ` } [ [ [ [ [ [ [ [ [ [ [ [ [ [ [ [ [ [ [ [ [ [ [ [ ",
"[ [ [ [ [ [ [ [ [ [ [ [ [ [ [ [ [ [ [ { [ [ ] { { e   c x   t } [ [ [ [ [ [ [ [ [ [ [ [ [ [ [ [ [ [ [ [ [ [ [ [ ",
"[ [ [ [ [ [ [ [ [ [ [ [ [ [ [ [ [ [ [ [ [ ] { { t   9 9.9.9   y { [ [ [ [ [ [ [ [ [ [ [ [ [ [ [ [ [ [ [ [ [ [ [ ",
"[ [ [ [ [ [ [ [ [ [ [ [ { [ [ [ [ [ [ [ ] } ] q   0 7.0.0.7.9   e [ { [ [ { [ [ [ [ [ [ [ [ [ [ [ [ [ [ [ [ [ [ ",
"[ [ [ [ [ [ [ [ [ [ [ [ [ [ [ [ [ [ [ ] | / :   v 9.0.0.0.0.7.c   , (  .] [ [ [ [ [ [ [ [ [ [ [ [ [ [ [ [ [ [ [ ",
"{ [ [ [ [ [ [ [ [ [ [ [ [ [ [ [ [ [ [  .T #   S 0.0.0.0.0.0.0.0.A   $ R  .] [ [ [ [ [ [ [ [ [ [ [ [ [ [ [ [ [ [ ",
"[ [ [ [ [ [ [ [ [ [ [ [ [ [ [ [ [ [ } g     o.0.0.0.0.0.0.0.0.0.0.X.    h } [ [ [ [ [ [ [ [ [ [ [ [ [ [ [ [ [ [ ",
"[ [ [ [ [ [ [ [ [ [ [ [ [ [ [ [ ] | i   $ *.0.9.0.0.0.<.<.0.0.0.0.0.*.+   a | ] [ [ [ [ [ [ [ [ [ [ [ [ { [ [ [ ",
"[ [ [ [ [ [ [ [ [ [ [ [ [ [ [ [ | J   * <.0.0.0.0.0.9.* = 0.0.0.0.0.0.,.*   K  .] [ [ [ [ [ [ [ [ [ [ [ [ [ [ [ ",
"[ [ [ [ [ [ [ [ [ [ [ [ [ [ [ [ ` %   *.0.0.0.0.0.0.9.# * 9.0.0.0.0.0.0.&.  % ' [ [ [ [ [ [ [ [ [ [ [ [ [ [ [ [ ",
"[ [ [ [ [ [ [ [ [ [ [ [ [ [ ] | I   v 0.0.0.0.0.9.0.6.+ * 6.9.9.0.0.0.0.0.v   Y  .] [ [ [ [ [ [ [ [ [ [ [ [ [ [ ",
"[ [ [ [ [ [ [ [ [ [ [ [ [ [ [ | y   &.0.0.0.0.4.* + +     + + * 3.0.0.0.0.&.  i  .] [ [ [ [ [ [ [ [ [ [ [ [ [ [ ",
"[ [ [ [ [ [ [ [ [ [ [ [ [ [ [ { :   4.0.0.0.0.5.8 = =     6 < 7 4.0.0.0.0.4.  , { [ [ [ [ [ [ [ [ [ [ [ [ [ [ [ ",
"[ [ [ [ [ [ [ [ [ [ [ [ [ [ [ ] @ & 7.0.0.0.0.0.0.0.7.# * 9.0.0.0.0.0.0.0.7.O % [ [ [ [ [ [ [ [ [ [ [ [ [ [ [ [ ",
"[ [ [ [ [ [ { [ [ [ [ [ [ [ [ [ % . 5.0.0.0.0.0.0.0.8.+ * 9.0.0.0.0.0.0.0.5.  - { [ [ [ [ { [ [ [ [ [ [ [ [ [ [ ",
"[ [ [ [ [ [ [ [ [ [ [ [ [ [ [ } 2   -.0.0.0.0.0.0.0.0.6 8 0.0.0.0.0.0.0.0.-.  w | [ [ [ [ [ [ [ [ [ { [ [ [ [ [ ",
"[ [ [ [ [ [ [ [ [ [ [ [ [ [ ]  .g   S 0.0.0.0.0.0.0.0.6.6.0.0.0.0.0.0.9.0.Z   j | ] [ [ [ [ [ [ [ [ [ [ [ [ [ [ ",
"[ [ [ [ [ [ [ [ [ [ [ [ [ [ [ } ^   + 3.0.0.0.0.0.0.0.0.0.0.0.0.0.0.0.0.<..   / { [ [ [ [ [ [ [ [ [ [ [ [ [ [ [ ",
"[ [ [ [ [ [ [ [ [ [ [ [ [ [ [ ] | a   9 6.0.0.0.0.0.0.0.0.0.0.0.0.0.0.6.8   d  .[ [ [ [ [ [ [ [ [ [ [ { [ [ [ [ ",
"[ [ [ [ [ [ [ [ [ [ [ [ [ [ [ [ [ [ 3   < &.0.0.0.9.5.5.5.5.9.0.0.0.&.;   w [ [ [ [ [ [ [ [ [ [ [ [ [ [ [ [ [ [ ",
"[ [ [ [ [ [ [ [ [ [ [ [ [ [ [ { [ [ [ d     9 x = X         + = p 9     d { [ [ [ [ [ [ [ [ [ [ [ [ [ [ [ [ [ [ ",
"[ { [ [ [ [ [ [ [ [ [ [ [ [ [ [ [ [ [  .W :     + 6 9 0 0 9 6 +     ; ~ | [ [ [ [ [ [ [ [ [ [ [ [ [ [ [ [ [ [ [ ",
"[ [ [ [ [ [ [ [ [ [ [ [ [ [ [ [ [ [ [ ]  .1 & 3.9.0.0.0.0.0.0.9.3.O 1  .] [ [ [ [ [ [ [ [ [ [ [ [ [ [ [ [ [ [ [ ",
"[ [ [ [ [ [ [ [ [ [ [ [ [ [ [ [ [ [ ] } W   C 0.0.0.0.0.0.0.0.0.0.B   W } [ [ [ [ [ [ [ [ [ [ [ [ [ [ [ { [ [ [ ",
"[ [ [ [ [ [ [ [ [ [ [ [ [ [ [ [ [ [ ]  .y   ,.0.9.7.5.4.4.5.7.9.0.>.  i | ] [ [ [ [ [ [ [ [ [ [ [ [ [ [ [ [ [ [ ",
"[ [ [ [ [ [ [ { [ [ [ [ [ [ [ [ [ [ [ ` X * C 0 = +         X = 0 C + X ` [ [ [ [ [ [ [ [ [ [ [ [ [ [ [ [ [ [ [ ",
"[ [ [ [ [ [ [ [ [ [ [ [ [ [ [ [ [ [  .J         . = 6 9 9 8 =           z  .[ [ [ [ [ [ [ [ [ [ [ [ [ [ [ [ [ [ ",
"[ [ [ [ [ [ [ [ { [ [ [ [ [ [ [ [ [ [ ,   p &.5.0.0.0.0.0.0.0.0.5.$.u   , [ [ [ [ [ [ [ [ [ [ [ [ [ [ [ [ [ [ [ ",
"[ [ [ [ [ [ [ [ [ [ [ [ [ [ [ [ [ } W     o 6 c G o.&.*.*.&.o.S x 6       W } ] [ [ [ [ [ [ [ [ [ [ [ [ [ [ [ [ ",
"[ [ [ [ [ [ [ [ [ [ ] [ ] ] ] [ ] [ ] ^ j 2 X                     X 3 k / ] [ [ [ [ ] ] ] [ ] [ [ [ [ [ [ [ [ [ ",
"[ [ [ [ [ [ [ ] [ }  . . . . .} { [ [ [ | { { E   6 *.& * *.= . W } { | [ [ [ { | |  . . . .} [ ] [ [ [ [ [ [ [ ",
"[ [ [ [ [ [ [  .{ ~ P k H k I ~ ` [ | | | | W -   :.6.  . 7.=.  ; W | | | | [ _ ~ I k H z U ~ {  .[ [ [ [ [ [ [ ",
"[ [ [ [ ] } ` d X       o         @ 1 y i 1     +.0.o.    O.0.O.    1 i y 1 @       o o       @ d ` { [ [ [ [ [ ",
"[ [ [ [ { ~ X o m #.<.5.7.5.>...M 8 O     O B 2.0.6.= X . 6 7.0.3.N O     O 8 M ..>.5.6.5.<.@.v o @ ^ { [ [ [ [ ",
"[ [ [ [ { ) @ # 5.0.0.0.0.0.0.0.0.0.8.3.1.8.0.0.0.v   a a   b 0.0.0.7.<.3.8.0.0.0.0.0.0.0.0.0.5.# @ ) { [ [ [ [ ",
"[ [ [ [ ]  .Y   V 5.o.F A X.&.,.5.0.0.0.0.0.9.>.0   % ) ) %   0 >.0.0.0.0.0.0.6.,.&.X.A G o.5.V   Y  .[ [ [ [ [ ",
"[ [ [ [ [ [ | 2   .               4 0 M B v 6     1 ( { { ) 1     6 v B N 0 =               o   q | ] [ [ [ [ [ ",
"[ [ [ [ [ [ } Q - k ! ( ) W Y j r , @         : K { { ] [ { { z -         @ 1 y j Y ! ) ( ^ j ; ^ { [ [ [ [ [ [ ",
"[ [ [ [ [ [ [ [ [  .} | { }  . . .| { _ ^ W / {  .[ ] [ [ [ [  .[ / E ~ ' { }  . .| } { { }  .[ [ [ [ [ [ [ [ [ ",
"[ [ [ [ [ [ [ [ [ ] [ [ [ [ ] ] ] ] [ { { } { [ ] [ [ [ [ [ [ ] [ { | } [ [ ] ] ] ] [ [ ] ] ] [ [ [ [ [ [ [ [ [ ",
"[ [ [ [ [ [ [ [ [ [ [ [ [ [ [ [ [ [ [ [ ] [ [ [ [ [ [ { [ [ [ [ [ [ [ [ [ [ [ [ [ [ [ [ [ [ [ [ [ [ [ [ [ [ [ [ ",
"[ [ [ [ [ [ [ [ [ [ [ [ [ [ [ [ [ [ [ [ [ [ [ [ [ [ [ [ [ [ [ [ [ [ [ [ [ [ [ [ [ [ [ [ [ [ [ [ [ [ [ [ [ [ [ [ ",
"[ [ [ [ [ [ [ [ [ [ [ [ [ [ [ [ [ [ [ [ [ [ [ [ [ [ [ [ [ [ [ [ [ [ [ [ [ [ [ [ [ [ [ [ [ [ [ [ [ [ [ [ [ [ [ [ ",
"[ [ [ [ [ [ [ [ [ [ [ [ [ [ [ [ [ [ [ [ [ [ [ [ [ [ [ [ [ [ [ [ [ [ [ [ [ [ [ [ [ [ [ [ [ [ [ [ [ [ [ [ [ [ [ [ "
};
