/* XPM */
static char *bll__[] = {
/* columns rows colors chars-per-pixel */
"22 22 175 2",
"   c #03D00ABA1332",
".  c #04660B5213CB",
"X  c #30D427CD1D00",
"o  c #312128481DB1",
"O  c #2448240B23C1",
"+  c #264E262D2606",
"@  c #30912CF828A6",
"#  c #31352D7C2905",
"$  c #46833615226C",
"%  c #473936D8233E",
"&  c #4BDF3E4F2E07",
"*  c #4C923ED42E55",
"=  c #52E73CFD2354",
"-  c #551C3EAC23C0",
";  c #550A3EC9244E",
":  c #56803F7A23DA",
">  c #544C3F582630",
",  c #438F3F4B3A2D",
"<  c #57A641CC2794",
"1  c #5C3941AD21D3",
"2  c #5D7042982262",
"3  c #59D042D3273C",
"4  c #5599442A2F3F",
"5  c #561444792F59",
"6  c #5D55456928B4",
"7  c #454640FD3BD9",
"8  c #6C844CA42665",
"9  c #6B684DF42AC0",
"0  c #6C044E642AFD",
"q  c #70154F4E27FA",
"w  c #73CF51A0289D",
"e  c #798A55652A06",
"r  c #7C1C57482B17",
"t  c #6DFA53713399",
"y  c #6DEC537733B8",
"u  c #7A36590E3145",
"i  c #7BBB5B3F344A",
"p  c #7BB65C103616",
"a  c #73185BAF3F97",
"s  c #79415C6A39D0",
"d  c #4DA34BE349CD",
"f  c #4E314C8E4A98",
"g  c #4E364EB84F54",
"h  c #4E844F004F95",
"j  c #4D394E8E5027",
"k  c #4E174FB451A5",
"l  c #6A2458824359",
"z  c #71D960454B2D",
"x  c #5F615FBE6033",
"c  c #5C9C611C668F",
"v  c #5D4E620067A3",
"b  c #6106617A620E",
"n  c #66596A916FA0",
"m  c #6822688B6904",
"M  c #68FD695D69CC",
"N  c #674E6B8C70A3",
"B  c #6F8B70567149",
"V  c #6BE4715477D8",
"C  c #6E3073A37A2A",
"Z  c #70CA718F727B",
"A  c #7B847B3E7AEA",
"S  c #7DEC7DB17D6B",
"D  c #7FBB7F867F47",
"F  c #81105C4E3033",
"G  c #83015DC2310F",
"H  c #8CB264863451",
"J  c #965F6A7035B2",
"K  c #96A86B6F3792",
"L  c #98486BDE368B",
"P  c #92B069813816",
"I  c #960B6BFF398C",
"U  c #97A56F9F3F99",
"Y  c #993C70D6405C",
"T  c #A7067BE8482A",
"R  c #A7597C274852",
"E  c #811E75DF6861",
"W  c #81AF767568FB",
"Q  c #89AB7F2F7299",
"!  c #CAD594B453C0",
"~  c #CC1C9777584A",
"^  c #CC6197AB586A",
"/  c #D8829C4353F6",
"(  c #DAC89E74560F",
")  c #D1409AEE59C0",
"_  c #D1AC9B3F59EF",
"`  c #DC45A3885F72",
"'  c #DCB3A3D95F9F",
"]  c #E3D3A99263AB",
"[  c #E496AA2363FF",
"{  c #E83BACF765D9",
"}  c #E842AD0665F0",
"|  c #EE28AEC162AB",
" . c #EC18AE646458",
".. c #E8E4AD7B6631",
"X. c #E9E1AE2A6681",
"o. c #E975AE2466F5",
"O. c #EA38AE6966A5",
"+. c #EA08AE886722",
"@. c #EAA9AEBB66CF",
"#. c #EB08AF056702",
"$. c #EB57AF3E6722",
"%. c #EBECAFB06769",
"&. c #ECB4AFFB671E",
"*. c #EB04AF7567FC",
"=. c #ED41B0586741",
"-. c #ED96B0AA678E",
";. c #EC2EB03A684B",
":. c #EBA2B046690A",
">. c #ECE9B0906825",
",. c #ED86B14B6903",
"<. c #EE71B15B680C",
"1. c #EF6BB25068FC",
"2. c #EF94B26E690E",
"3. c #EFD1B37C6B16",
"4. c #F145B16E64D1",
"5. c #F17DB19C64F3",
"6. c #F382B4316836",
"7. c #F146B3E66A3F",
"8. c #F184B4056A38",
"9. c #F3AEB4546850",
"0. c #F2A5B4DA6AB1",
"q. c #F2DFB55E6B90",
"w. c #F4EFB4F26827",
"e. c #F53BB6F86C42",
"r. c #F58DB7376C6A",
"t. c #F9AAB8B56AC2",
"y. c #FA46B9436B41",
"u. c #F92FB9526CB0",
"i. c #F905B9876D56",
"p. c #F9C3B9C36CF5",
"a. c #FAD1BAB16DBF",
"s. c #FC6BBBD36E51",
"d. c #FBABBBF26F75",
"f. c #FCC6BC8A6F76",
"g. c #FCC2BCF97069",
"h. c #FD78BD7F70B9",
"j. c #FE4DBE2F7134",
"k. c #FFB0BF3871DA",
"l. c #FFFFC2DE74AB",
"z. c #6BFC75CA81C8",
"x. c #8AEC8A6989CD",
"c. c #8E068DA98D3A",
"v. c #8E478DEB8D7D",
"b. c #84C58C1E9509",
"n. c #85958CF695DD",
"m. c #92E4929D9247",
"M. c #93BB934B92C5",
"N. c #940B939B9315",
"B. c #9021932396BE",
"V. c #917E947C9813",
"C. c #954D951694D3",
"Z. c #9DF99DC29D80",
"A. c #9FEC9FAF9F66",
"S. c #A935A5EBA1F8",
"D. c #A9AAA680A2B3",
"F. c #A2E9A891AF5D",
"G. c #AABAAB13AB7E",
"H. c #A366ABCFB5E6",
"J. c #AA97AEB6B394",
"K. c #AD83B20AB76E",
"L. c #ABE9B37DBC96",
"P. c #BC76BB91BA80",
"I. c #B68CBE29C749",
"U. c #B6EABE87C7A5",
"Y. c #C2A4C671CB00",
"T. c #C332C6ECCB65",
"R. c #CB5FCF04D364",
"E. c #CBFDCF8DD3CC",
"W. c #E586E53CE4E4",
"Q. c #E62FE5E2E587",
"!. c #F705F7E9F8FA",
"~. c #F815F8E9F9E7",
"^. c #FD36FD26FD13",
"/. c #FF66FF64FF61",
"(. c gray100",
/* pixels */
"%.%.%.%.%.%.%.%.%.{ %.%.%.%.%.%.%.%.%.%.%.%.",
"%.%.%.%.%.%.%.%.%.e. .%.8.%.%.%.%.%.%.%.%.%.",
"%.%.%.%.%.%.%.%.<.) & & ) 8.%.%.%.%.%.%.%.%.",
"%.%.%.%.%.%.%.{ j.w J.J.w j.{ %.%.%.%.%.%.%.",
"%.%.%.%.%.%.%.{ 8.~ # # ~ 8.%.%.%.%.%.%.%.%.",
"%.%.%.%.%.%.%.%.l.J d d L l.{ %.%.%.%.%.%.%.",
"%.%.%.%.%.%.%.d.e k !.!.g r d.%.%.%.%.%.%.%.",
"%.%.%.%.%.%.e.1 N (.Q.Q.(.n 1 e.%.%.%.%.%.%.",
"%.%.%.%.{ g.P v (.(.S S (.(.c I g.{ %.%.%.%.",
"%.%.%.%.%.d.3 Y.(.A.O + A.(.Y.6 d.{ %.%.%.%.",
"%.%.%.%.{ u.> R.(.(.m.m.(.(.R.< u.{ %.%.%.%.",
"%.%.%.%.{ j.F C (.(.(.(.(.(.V F j.{ %.%.%.%.",
"%.%.%.%.%.*.-.; Z m.A A m.n 1 <.*.%.%.%.%.%.",
"%.%.%.%.*.%.<.t.$ V.P.P.B.$ d.<.%.%.%.%.%.%.",
"%.%.%.%.%.{ e.~ 7 G.c.c.G., ! e.*.*.%.%.%.%.",
"%.%.{ *.<.%.d.i . M x.x.m   u d.*.<.%.%.%.%.",
"%.%.u.| / ( 4.` U o h g o U ' 4.( / | d.%.%.",
"{ e.T z Q E l s t D.b b D.t s l E Q z T <.%.",
"{ d.9 z.K.F.L.H.U.n.= ; n.I.H.L.F.K.z.9 d.{ ",
"%.<.] u L H p l 5 8 %.-.8 5 a p H J u { -.%.",
"%.%.&.d.f.f.d.w.e.f.%.%.j.4.4.d.f.d.f.%.%.%.",
"%.%.%.{ %.%.{ %.{ { %.%.%.%.%.{ { %.{ %.%.%."
};
