/* XPM */
static char *bll__[] = {
/* columns rows colors chars-per-pixel */
"35 35 116 2",
"   c #02A0029A02F6",
".  c #088F04B00368",
"X  c #0C8E0C270BBB",
"o  c #13E30BB202E6",
"O  c #16C6100507FA",
"+  c #1D9314A009E3",
"@  c #0A750DF4124E",
"#  c #0E83139519EE",
"$  c #12F3128D1212",
"%  c #1AF217731343",
"&  c #1C661B671A34",
"*  c #22F715C905FA",
"=  c #23CF19550CC8",
"-  c #2BB81D310C83",
";  c #29DB1EC1116F",
":  c #31BD21090CFD",
">  c #396525E90E88",
",  c #2B761FF6122A",
"<  c #35EC2634130C",
"1  c #3CA42A43143E",
"2  c #3B2E2B04179F",
"3  c #1C131E882180",
"4  c #1BC420672642",
"5  c #211922212358",
"6  c #22DE258C28C2",
"7  c #3347354237A3",
"8  c #330F35FD3982",
"9  c #345738513D16",
"0  c #42DD2DD7149D",
"q  c #40C02E9A18DC",
"w  c #4422304D1900",
"e  c #6460463F221F",
"r  c #644047FB2634",
"t  c #6E4D50C02D4E",
"y  c #743F54D42F6F",
"u  c #779F577930E6",
"i  c #78C258483175",
"p  c #389A3BFA4005",
"a  c #4404436742A9",
"s  c #46CE4A594E9B",
"d  c #4D7A4D2C4CCD",
"f  c #49584CBB50D2",
"g  c #54C1548E544B",
"h  c #57DD579E5746",
"j  c #5E0F5DCC5D7B",
"k  c #5AA05D6B60FB",
"l  c #5D94605A63E4",
"z  c #62F062D962B7",
"x  c #606B6466692D",
"c  c #6BEC6BAE6B63",
"v  c #6B616E5971EA",
"b  c #6EBD719E7513",
"n  c #739973BC73E7",
"m  c #735B75B17880",
"M  c #77287AAC7EE5",
"N  c #782F7BB07FE3",
"B  c #832D5EEA3361",
"V  c #86A261E335CA",
"C  c #89D062F2344F",
"Z  c #8744635F384C",
"A  c #89A66545399E",
"S  c #8FB369CA3C4B",
"D  c #94586B8C3A98",
"F  c #9B7F736D4373",
"G  c #A103777B45B9",
"H  c #A94D7BB444FB",
"J  c #AA917E7F49A5",
"K  c #AD58806E4A9F",
"L  c #B5FD86024C6E",
"P  c #BFAA8D5050E2",
"I  c #C592933E56DA",
"U  c #C3D592FC585B",
"Y  c #CC6997BF588D",
"T  c #CD8499965B11",
"R  c #D2B79C995BA1",
"E  c #D6F9A0365E7C",
"W  c #DDCFA57661B3",
"Q  c #E738AC26655F",
"!  c #EBB3AF85674F",
"~  c #EAC5AF836865",
"^  c #EE45B18C68AA",
"/  c #F364B5896B4E",
"(  c #F7C0B8EB6D84",
")  c #FB93BBC96F3B",
"_  c #FE1DBE667151",
"`  c #FFE1C1EB73AA",
"'  c #8328834E837D",
"]  c #88E889F98B43",
"[  c #93B6956E9784",
"{  c #96FA9810995F",
"}  c #9BF59F07A2B6",
"|  c #9CF6A036A41D",
" . c #A9F8A9F9A9F2",
".. c #ADA6AFA7B20F",
"X. c #AF25B090B244",
"o. c #B63BB707B802",
"O. c #B665B736B83D",
"+. c #B6BAB91CBBF9",
"@. c #C49CC463C41E",
"#. c #C3A4C658C995",
"$. c #CC32CBB8CB21",
"%. c #D013D04ED08C",
"&. c #D2FDD2D9D2AE",
"*. c #D56DD76CD9CF",
"=. c #D6C3D916DBE0",
"-. c #DB0CDAD8DA99",
";. c #E09BE06AE02E",
":. c #DE27E05EE307",
">. c #DE5EE095E33F",
",. c #E5ACE50FE452",
"<. c #E8D9E855E7AF",
"1. c #E9B4E8F2E803",
"2. c #ED3AED2AED16",
"3. c #F0A9F08EF06C",
"4. c #F5A1F56DF529",
"5. c #FEF9FEF9FEF9",
/* pixels */
"! ! ! ! ! ! ! ! ! ! ^ ! ! ! ! ! ! ! ! ! ! ! ! ! ! ! ! ! ! ! ^ ! ! ! ! ",
"! ! ! ! ! ! ! ! ! ! ! ! ! ! ! ! ! Q ! ! ~ ! ! ! ! ! ! ! ! ! ! ! ! ! ! ",
"! ! ! ^ ! ! ! ^ ! ! ! ~ ! ! ! ! ) _ ) ! ! ! ! ! ! ! ! ! ! ! ! ! ! ! ! ",
"! ! ! ! ! ! ! ! ! ! ! ! ! ! ! / V > V / ! ! ! ! ^ ! ! ! ! ! ! ! ^ ! ! ",
"! ! ^ ! ! ! ! ! ! ! ! ! ^ Q ) u # b # i _ Q ! ! ! ! ! ! ! ! ! ! ! ! ! ",
"! ! ! ! ! ! ! ! ! ! ! ! ~ ~ / * [ 5.[ * / ! ! ! ! ! ! ! ! ^ ! ! ! ! ! ",
"! ! ! ! ! ! ^ ! ! ! ! ! ! ! ) 0 f ,.f q _ ! ! ! ! ! ! ! ! ! ! ! ! ! ^ ",
"! ! ! ! ! ! ! ! ! ! ! ! ! ! ^ W =   = W ^ Q ~ ! ^ ! ! ^ ! ! ! ! ! ! ! ",
"! ! ! ^ ! ! ! ! ! ! ! ! ! Q _ H O z X J _ Q ! ~ ! ! ! ! ! ! ! ! ! ! ! ",
"! ! ! ! ! ! ! ! ! ^ ! ! ! ` F   [ 5.[   G ` Q ! ! ! ! ! ! ! ! ! ! ! ! ",
"! ! ! ! ! ! ! ! ! ! ! ! _ y    .5.4.5. .  u _ ~ ! ! ! ! ! ! ! ! ! ! ! ",
"! ! ! ! ! ^ ! ! ! ! / ^ q @ $.5.5.5.5.5.$.@ w ^ / ! ! ! ! ! ! ! ! ! ! ",
"! ! ! ! ! ^ ! ! ! ! / 1 6 <.5.5.1.c 1.5.5.<.6 2 / ! ! ! ! ! ! ! ! ! ^ ",
"^ ! ! ! ! ! ! ! Q ) S @ <.5.5.5.*.. -.5.5.5.,.X D ) Q ! ! ! ! ! ! ! ! ",
"! ! ! ! ! ! ! ! ! ) : v 5.5.2.j a . a j 2.5.5.v > _ ! ! ! ! ! ! ! ! ! ",
"! ! ! ! ! ! ! ! ! ! o ..5.5.4.c f . g c 2.5.5.X.o ~ / ! ! ! ! ! ! ! ! ",
"! ! ! ! ! ! ! ! ^ Q o X.5.5.5.5.*.. -.5.5.5.5.X.o ^ ! ! ! ! ! ! ! ! ! ",
"! ! ! ! ! ! ! ! ~ ( * m 5.4.5.5.2.' 2.5.5.4.5.b - ( ! ! ! ! ! ! ^ ! ! ",
"! ! ^ ! ! ! ! ! Q _ A @ 1.5.5.5.5.5.5.5.5.5.,.@ A ) Q ! ! ! ! ! ! ! ! ",
"! ! ! ! ! ! ! ! ! ~ ^ 1 4 &.5.4.<.,.1.4.5.$.3 w ^ ^ ! ^ ! ! ^ ! ! ! ! ",
"^ ! ! ! ! ! ! ^ ! ! ^ ^ e . 5 $ X X X $ 5 . r / ! ! ! ! ! ! ! ! ! ! ! ",
"! ! ! ! ! ! ! ! ! ! ! ! ` < l $.&.-.&.$.k < ` ! ! ^ ! ! ! ! ! ! ! ! ! ",
"! ! ! ! ! ! ! ^ ! ! ! / I & 3.5.5.5.5.5.2.& P / ! ! ! ! ! ! ! ! ! ! ! ",
"^ ! ! ! ! ! ! ! ! ! Q _ t @ a $ X X X $ a @ t ) Q ! ! ! ! ! ! ^ ! ! ! ",
"! ! ! ! ! ! ! ! ~ ! ^ W O 3 n  .#.#.@. .n & O W ^ ! ! ! ! ! ! ! ! ! ! ",
"! ! ! ! ! ! Q ! ~ Q ^ I ; $ 7 z b G c z 7 $ , I ^ Q Q ! ! Q ! ! ! ! ! ",
"! ! ! ! / _ ) / ( _ ` _ _ Q B   k @ h   V Q ` ` ` ) ( ( ) _ / ! ! ! ! ",
"! ! ! / Y e 1 1 > 0 e V H S o ' #.  $.' o D H C e 0 < 1 1 e Y / ! ! ! ",
"! Q ( K   N #.>.*.} x p 5 9 ..5.a . a 5...9 4 9 l | *.>.#.M   J ) Q ! ",
"! ! / E O O.*.| +.,.5.5.5.5.4.s X U O f 4.5.5.5.5.,.+.| *.o.O E ^ ! ! ",
"! ! Q ) F . < 1 - + = 6 8 4   ; Y _ T -   4 7 6 % + : 1 < . F _ ! ! ! ",
"! ! ! ! Q R ( ) _ ~ R L D V L ( / Q / ( L C D L R ^ ( _ / R ! ! ! ! ! ",
"! ! ! ! ! / ! ! ! ! ^ ( ) _ ( ! ! ! ! ! ( ) ) ( / ! Q Q ! / ! ! ! ! ! ",
"! ! ! ! ! ! ! ! ! ! ! ! ! Q Q ! ! ! ! ! ! ! ! Q ! ! ! ! ! ! ! ! ! ! ! ",
"! ! ! ! ! ! ! ! ! ! ! ! ! ! ! ! ! ! ! ! ! ! ! ! ! ! ! ! ! ! ! ! ! ! ! "
};
