/* XPM */
static char *bll__[] = {
/* columns rows colors chars-per-pixel */
"39 39 127 2",
"   c #008000460064",
".  c #08ED03920065",
"X  c #02A905AE095D",
"o  c #072007FC0946",
"O  c #0AAB0B260BBB",
"+  c #104909170074",
"@  c #149D0F8C09A4",
"#  c #1E8C124D03B4",
"$  c #151E0FED09D9",
"%  c #1AF113510A2B",
"&  c #113411BD127D",
"*  c #123C14E51861",
"=  c #15DA17ED1A54",
"-  c #19521BA71E74",
";  c #21FC14F3054D",
":  c #279718FB0772",
">  c #2305178D09CE",
",  c #25CF19F20C16",
"<  c #2A871C810BBE",
"1  c #305B20620D37",
"2  c #395B25C90E40",
"3  c #1D6F1F2C213E",
"4  c #2286240D25E4",
"5  c #227E26192A74",
"6  c #2665299E2D95",
"7  c #2C3F2CE82DBB",
"8  c #30D1329B34CA",
"9  c #32EC35CE3944",
"0  c #374039E33D0F",
"q  c #3DBF3D823D39",
"w  c #43402E0A148F",
"e  c #49B93260165B",
"r  c #4949334E18D3",
"t  c #51D839D51D04",
"y  c #5A9D3EE41DA6",
"u  c #4DFD39BF2174",
"i  c #523D3C2221CE",
"p  c #58813F3C20E9",
"a  c #5DC641521F2E",
"s  c #56B03FF924B1",
"d  c #5BAA424C23E9",
"f  c #5F2346262877",
"g  c #66704C452CDE",
"h  c #70FE4FA12798",
"j  c #721A507C2825",
"k  c #728254E5318E",
"l  c #779158CE33FD",
"z  c #7E665BFB32C0",
"x  c #38B93C23403C",
"c  c #3C8040A145AA",
"v  c #454D44B94408",
"b  c #4B0F4BA94C63",
"n  c #4E3652375705",
"m  c #4F525359582F",
"M  c #5495543853BF",
"N  c #538157935C76",
"B  c #54F8590D5DF4",
"V  c #5FD65EE15DBB",
"C  c #60A55FB55E94",
"Z  c #5DF660B363FD",
"A  c #646D63D96328",
"S  c #672B69F66D52",
"D  c #69216A3D6B93",
"F  c #74387536766D",
"G  c #7AEF7A507985",
"H  c #87EC6281357E",
"J  c #8882630435EE",
"K  c #8422626039DE",
"L  c #8D3566CB38C3",
"P  c #8E3F68FE3C53",
"I  c #91EC6D7041AC",
"U  c #9DF275A14545",
"Y  c #A2287778443C",
"T  c #A5B479F74579",
"R  c #AC2D7ECC4855",
"E  c #AF8D81BA4ABD",
"W  c #B0F082CF4B75",
"Q  c #BBA78A7C4F7C",
"!  c #B76C8898505C",
"~  c #C1E58EDF51A8",
"^  c #C1D2910C5686",
"/  c #C909958D57C3",
"(  c #C68694825880",
")  c #CA8E96FC590C",
"_  c #CDFD990E5970",
"`  c #D43C9E4F5D94",
"'  c #D6FDA0EC5F5F",
"]  c #E78FAC9265CA",
"[  c #EBB3AF85674E",
"{  c #E9EDAF216892",
"}  c #ECF7B06967C1",
"|  c #EE3CB18C68B9",
" . c #F415B60E6B98",
".. c #F79AB8A96D22",
"X. c #FA52BAC66E77",
"o. c #FEBDBEBA7172",
"O. c #FFFFC068729B",
"+. c #7CF37F1881AB",
"@. c #83AB843184D0",
"#. c #832886598A2B",
"$. c #871088718A0D",
"%. c #8F54930E9786",
"&. c #90499402987A",
"*. c #9BE09C859D42",
"=. c #9CDB9FDCA379",
"-. c #9FE2A154A319",
";. c #A4CEA4C2A4B3",
":. c #A85BA80DA7B0",
">. c #AC8DACB3ACE0",
",. c #B10BB042AF49",
"<. c #B373B34FB324",
"1. c #B9CAB912B835",
"2. c #BC7EBC36BBE1",
"3. c #C072BFBEBEE5",
"4. c #C1A3C0FFC03C",
"5. c #C66CC5FAC572",
"6. c #C8CBC88BC83F",
"7. c #CE62CDE2CD46",
"8. c #D1C2D0D4CFA4",
"9. c #D3E8D35ED2BD",
"0. c #D9ACD864D6DA",
"q. c #E503E4D8E4A4",
"w. c #E89CE87DE85A",
"e. c #EB78EAF0EA4A",
"r. c #F14CF08FEFAC",
"t. c #F5F9F607F618",
"y. c #FE95FE8BFE7F",
/* pixels */
"[ [ [ [ [ [ [ [ [ } [ [ } [ [ [ } [ [ } [ [ [ [ [ [ [ [ [ [ } [ [ [ [ } [ [ [ ",
"[ [ [ } } [ } [ [ [ [ [ [ [ [ [ [ [ [ [ [ [ [ [ [ [ [ [ [ [ [ [ } [ [ [ [ [ } ",
"[ [ [ [ [ [ [ [ [ [ [ [ [ [ [ [ [ [ | X. .[ [ [ [ [ [ [ [ [ [ } [ [ [ [ } [ [ ",
"[ } [ [ [ } [ [ } [ [ [ } [ [ } [ X.` T `  .[ [ [ [ [ [ } [ [ [ [ } [ [ [ [ [ ",
"[ [ [ [ [ [ [ [ [ [ [ [ [ [ [ [  .U   X   Y  .[ } [ [ [ [ [ } [ [ [ [ [ [ } [ ",
"[ [ } [ } [ } [ [ [ [ [ [ [ [ } ] + F y.F + ] | [ [ [ } [ [ [ [ } [ [ } [ [ [ ",
"[ } } [ [ [ [ [ [ [ [ [ [ [ ]  .`   2.y.2.  `  .[ [ [ [ [ [ [ [ [ [ [ [ [ [ [ ",
"[ [ [ [ [ } [ [ [ [ [ [ [ [ [ [ | < 9 >.0 < | } [ [ [ [ } [ [ } [ } [ [ [ } [ ",
"[ [ [ [ [ [ [ [ [ } [ [ [ [ [ [  .' $   $ '  .] [ [ [ } [ [ } [ [ } [ [ } [ } ",
"[ } } [ [ } [ } [ [ [ [ [ [ [ ] o.z o G o z o.[ [ [ [ [ [ [ [ [ [ [ [ [ [ [ [ ",
"[ } [ [ [ [ [ [ [ [ [ } [ [ } o.k   ;.y.;.  l o.[ ] [ [ [ [ [ } } [ [ [ [ [ [ ",
"[ [ [ [ [ [ } [ [ [ [ } ]  . .i   <.y.t.y.>.  i  . .] } } [ [ [ [ [ [ } [ } [ ",
"[ [ [ [ [ [ [ [ [ [ [ ]  .' , * 9.y.y.y.y.y.7.* < '  .[ [ [ [ [ [ } [ [ } [ [ ",
"[ } } [ } [ } [ [ } [  .( . 8 e.y.y.t.5.t.y.y.e.8 . )  .[ [ [ [ [ [ [ [ [ [ [ ",
"[ [ } [ [ [ } [ [ [ | ] > 0 t.y.t.y.8.  0.y.t.y.t.0 > } [ [ [ [ [ [ [ [ [ [ } ",
"[ [ [ [ [ [ [ [ [ ] X.U   0.y.y.y.y.5.  6.y.y.y.y.0.  U X.[ [ [ } [ [ } [ [ [ ",
"[ [ [ [ [ [ [ [ [ ] o.r x y.t.y.>.  o   o   :.y.t.y.0 t o.] [ [ [ [ [ [ [ [ [ ",
"[ [ } [ [ [ } [ [ [ X.; S y.y.y.q.:.@.  $.:.q.y.y.y.D : o.] [ [ [ [ } [ [ } [ ",
"[ } } [ } [ [ [ [ [ .., A y.y.y.y.y.7.  9.y.y.y.t.y.Z < X.[ [ [ [ } } [ [ [ } ",
"[ [ [ [ [ [ } [ [ ] o.t 6 y.y.y.y.y.e.G e.y.y.y.y.y.6 p o.] [ [ [ [ [ [ [ [ [ ",
"[ [ [ [ [ [ } [ [ [  .W   <.y.t.t.y.y.y.y.y.y.t.y.>.  W  .[ [ [ [ [ } [ [ [ [ ",
"[ } } [ [ [ [ [ [ [ [ ..u X 5.y.y.y.y.y.y.y.y.y.2.X s ..[ [ [ [ [ [ [ [ [ [ } ",
"[ } [ [ [ } [ [ [ [ [ } | f   M D q 7 7 7 q A M   f | | [ [ [ [ [ } } [ } [ [ ",
"[ [ [ [ [ [ [ [ [ [ [ [ } O.Y   7 M A D A M 7   U O.[ [ [ [ [ [ [ [ [ [ [ [ [ ",
"[ [ [ [ [ } [ [ [ [ [ } ] X.J 6 y.y.y.y.y.y.y.5 J o.] [ [ [ [ [ [ [ [ [ [ [ [ ",
"[ } } [ [ [ [ [ [ [ [ [ [  .# @.r.2.>.:.>.2.r.+.#  .[ [ [ [ [ [ [ [ [ [ [ [ [ ",
"[ [ } [ [ } } [ [ [ [ ] X.!   &             X &   ! ..] } [ } [ [ [ [ [ [ [ [ ",
"[ [ [ [ [ [ [ [ [ [ [ [  .u   A 1.q.y.y.t.q.1.Z   u ..[ [ [ [ [ [ [ [ [ [ [ } ",
"[ [ [ [ [ [ ] ] ] [ ] [ ] g $ o 5 v b A b s 5 O % g ] [ ] [ ] ] [ [ [ [ [ [ [ ",
"[ [ [ [ ]  .O.O.o.o.o.X.X.O.| ` d o V   C X s ` | o...o.O.o.o.o.o...] [ [ [ [ ",
"} [ [ [ X.~ j r e w d J R ( ` L   ;.3.  5.*.  P ` ( R H d w e e j ~ X.} [ [ [ ",
"[ [ [ [ d * N #.-.&.N 5 O     = -.y.v   b y.-.=     O 5 B &.=.#.n = d [ } [ [ ",
"[ [ [  .1 b y.y.y.y.y.y.y.e.w.y.y.F   I   F y.y.e.w.y.y.y.y.y.y.y.b 1  .[ [ [ ",
"[ } [  .) O c 3 & - 8 N #.>.<.#.6   P O.I   7 $.,.>.#.B 9 = & 3 c O _  .[ [ [ ",
"[ [ [ ] X.H d E Q Y z a 2 #   . r ( X.] X.Q w     # 2 y H Y Q R d K X.[ } [ [ ",
"} [ [ [ [ ..X.X...X.X.O.o. .] [ o. .] [ [ ..o.{ {  .o.O.o.X. ...X. .[ } [ [ [ ",
"[ [ } [ [ [ [ ] ] [ ] [ ] [ | [ [ [ [ [ [ ] [ | | [ ] ] [ ] [ [ [ [ [ [ [ [ [ ",
"[ [ [ [ [ [ [ [ [ [ [ [ [ [ [ [ [ [ [ [ [ [ [ [ [ [ [ [ [ [ [ [ [ [ [ [ [ } } ",
"[ } [ [ [ [ [ [ [ [ [ [ [ [ [ [ [ [ [ [ [ [ [ [ [ [ [ [ [ [ [ [ [ [ [ [ [ [ [ "
};
