/* XPM */
static char *bll__[] = {
/* columns rows colors chars-per-pixel */
"42 42 121 2",
"   c #00F9008600B6",
".  c #0AB9050600B9",
"X  c #0DBC087D02AD",
"o  c #04EF072E09C1",
"O  c #061C093D0D04",
"+  c #0B400B1C0AF0",
"@  c #13570B7502F9",
"#  c #1DEE11BD0320",
"$  c #0FCF0F9D0F61",
"%  c #0B5B0E2E11C7",
"&  c #1203128F1336",
"*  c #16E1196C1C7F",
"=  c #1A4F1C1D1E48",
"-  c #21B514B204FA",
";  c #21D316FB09F7",
":  c #258F1A570CE1",
">  c #2CE11D480A8F",
",  c #325121040BDA",
"<  c #37E0251D0EB1",
"1  c #31812409140A",
"2  c #3CCB2A3613EA",
"3  c #1B771E6F2218",
"4  c #20CB222A23D7",
"5  c #299F2A4E2B21",
"6  c #2B332E67323F",
"7  c #2D8531693612",
"8  c #2E8632E23816",
"9  c #363135DC3577",
"0  c #320D351F38D0",
"q  c #342637D73C3C",
"w  c #3BFD3BB23B58",
"e  c #467231831865",
"r  c #4A1834AB1AF3",
"t  c #491736762013",
"y  c #5E47442524CE",
"u  c #5BC44441282F",
"i  c #6103458124D2",
"p  c #6A8F4BE5271A",
"a  c #6081472528B6",
"s  c #643F4A6D2B54",
"d  c #70F553452F8C",
"f  c #72DB54AF305E",
"g  c #7DF15D823693",
"h  c #3F9940774183",
"j  c #42FB4328435D",
"k  c #485347F34780",
"l  c #4A984A9C4AA1",
"z  c #526550D74EF9",
"x  c #4BA84DEF50AD",
"c  c #4ECE519154E1",
"v  c #52E354035567",
"b  c #51C854E858A9",
"n  c #58765A265C39",
"m  c #5A2A5D53611D",
"M  c #655F652C64EF",
"N  c #6811677966C4",
"B  c #6AC66C916EB8",
"V  c #76C6766375F0",
"C  c #75A0771178CB",
"Z  c #7ADE7AFB7B22",
"A  c #80FD5FC037DA",
"S  c #842B62833A25",
"D  c #8AB867243C74",
"F  c #8E9168C53B69",
"G  c #938D6C503D39",
"H  c #98426DEA3B1A",
"J  c #9B8370FB3DF1",
"K  c #8D856A5A4030",
"L  c #94806E8D410D",
"P  c #9BFE73EC43D6",
"I  c #A09F77FA473B",
"U  c #A5787BA24971",
"Y  c #AA067F314BCA",
"T  c #AF6282A74CF9",
"R  c #B2B184064C04",
"E  c #C0B68F02535E",
"W  c #C601937956D7",
"Q  c #C74D952B5902",
"!  c #C967969B59A5",
"~  c #CCB998F35AD1",
"^  c #D3239D5A5CCD",
"/  c #D5DAA0596024",
"(  c #DC37A4B56215",
")  c #E153A7EB6309",
"_  c #E6B2ABE86569",
"`  c #EBB7AF886750",
"'  c #E9BEAEF5686A",
"]  c #ECF3B07167D6",
"[  c #EE9EB1E26900",
"{  c #F441B62D6BAE",
"}  c #F841B9556DD3",
"|  c #FB26BB436E99",
" . c #FD61BDA370CB",
".. c #FFFFC3F47430",
"X. c #84FC847D83E5",
"o. c #896288B687DF",
"O. c #86E089598C53",
"+. c #8AC68B6E8C39",
"@. c #96A396649619",
"#. c #9CF99D4C9DB1",
"$. c #A573A4CFA409",
"%. c #AD96ADCBAE0A",
"&. c #B1ACB0A3AF64",
"*. c #AE16AF70B110",
"=. c #B193B157B10E",
"-. c #BC62BC7FBCA3",
";. c #C2D9C179BFD3",
":. c #C1C6C1B5C19F",
">. c #CD74CD71CD63",
",. c #D0C6CFAECE5D",
"<. c #D270D151CFF9",
"1. c #D48FD4A4D4BC",
"2. c #D727D7F8D8F1",
"3. c #DB1ADAF4DAC6",
"4. c #E510E46EE3AB",
"5. c #E951E8AEE7E1",
"6. c #ECC2EC55EBD0",
"7. c #F4E2F452F3A7",
"8. c #F894F80DF766",
"9. c #F93CF8B3F807",
"0. c #FEB6FEB5FEB3",
/* pixels */
"` ` ` ` ` ] ` ` ] ` ` ` ] ` ` ` ` ` ` ` ] ' ] ` ` ` ` ] ` ` ` ` ] ` ` ` ] ` ` ` ` ` ",
"` ` ] ` ` ` ` ` ` ` ` ` ` ` ` ] ` ] ` ` ] ' ] ` ` ] ` ` ` ` ` ] ` ` ` ` ` ` ` ] ` ] ",
"` ] ` ` ` ` ` ] ` ` ` ` ` ` ` ` ` ` ` ` [ [ ' ] ` ` ` ` ` ` ` ` ` ` ` ` ` ` ` ` ` ` ",
"` ` ` ` ] ` ` ` ` ] ` ` ` ] ` ` ` ` ` } ' ' } ] ` ` ] ` ` ] ` ` ` ] ` ` ` ] ` ` ` ` ",
"` ` ` ` ` ` ` ] ` ` ` ` ` ` ] ` ` ` ] f     d [ ] ] ` ` ` ] ] ` ` ` ` ` ` ` ] ` ] ` ",
"` ` ] ` ` ` ` ` ` ] ` ] ` ` ` ` ` } S   O.I o g } _ ` ` ' ] ` ` ` ] ` ] ` ` ` ` ` ` ",
"` ] ` ` ` ` ` ` ` ` ] ` ] ` ` ` ` } > v 8.0.c : } ` ` ` ` ` ` ` ` ` ] ` ] ` ` ` ` ` ",
"` ` ] ` ` ` ] ` ` ` ` ` ` ` ` ` ` } 2 8 9.0.8 2 | _ ` ] ` ` ` ] ` ` ` ` ` ` ` ] ` ] ",
"` ] ` ` ` ` ` ` ` ` ] ` ` ` ` ` _ } T . 5 5 . T { ] ` ` ` ` ` ` ` ` ` ` ` ` ` ` ] ` ",
"` ` ` ` ` ] ` ] ` ` ` ` ` ` ` ` ] _ ..s     s ..) ] ` ` ` ` ` ` ` ] ` ] ` ` ` ` ` ` ",
"] ` ` ] ` ` ] ` ` ` ` ` ` ` ` _ _ ..K   o.o.  L .._ ` ` ` ` ` ` ` ` ] ` ] ` ` ` ` ` ",
"` ` ` ` ` ` ` ` ` ` ` ] ` ` ` `  .S   Z 0.0.V   S ..` ` ] ` ` ` ` ` ` ` ` ` ` ] ` ` ",
"` ` ` ` ] ` ` ` ] ` ` ` ` _ { { u   +.0.9.0.0.o.  a { { ` ` ` ` ` ` ] ` ] ` ` ` ] ` ",
"` ` ` ` ` ` ` ] ` ` ` ` ` } ( 1   =.0.0.0.0.0.0.%.  1 ( { ` ` ` ` ` ` ` ` ` ` ] ` ` ",
"] ` ` ` ` ` ` ` ` ` ` ` { ~ @ * 1.0.9.0.4.3.0.0.0.<.* @ ! { ` ` ] ` ` ` ` ` ` ` ] ` ",
"` ` ` ] ` ] ` ` ` ] ` ] _ ; 3 4.0.0.9.0.w j 0.9.9.0.4.* > ` ` ` ` ` ` ] ` ` ` ` ` ` ",
"` ` ` ` ` ` ` ` ` ` ` } L   :.0.9.0.0.0.9 w 0.0.0.9.0.-.  P | ` ` ` ` ` ` ` ` ` ] ` ",
"` ] ` ` ` ` ` ` ` ` `  .2 8 0.0.0.6.j 9 + + 9 j 6.0.0.0.6 e } ` ` ` ` ] ` ` ` ` ` ` ",
"` ` ] ` ] ` ` ` ` ` ` ] @ B 0.9.0.6.v k & & k v 6.0.9.0.B @ { ' ` ` ` ` ] ` ` ` ] ` ",
"` ] ` ` ` ` ` ` ` ` ` ' . V 0.9.0.0.0.0.9 w 0.0.0.0.0.0.V . ] ] ` ` ] ` ` ` ` ] ` ` ",
"` ` ] ` ` ` ` ` ` ` ` { # c 0.0.0.0.9.0.k l 0.9.0.0.0.0.x ; } ` ` ` ` ` ] ` ` ` ` ` ",
"` ` ` ` ` ` ` ` ` ` _  .u o 6.0.0.0.0.0.6.7.0.0.0.0.0.5.o a } ` ` ` ] ` ` ` ` ] ` ` ",
"` ` ` ` ` ` ` ` ` ` _ } Q   N 0.0.0.0.0.0.0.0.0.0.0.0.M   ! { ` ] ` ` ` ` ` ` ` ] ` ",
"` ` ` ] ` ` ` ` ` ` ` _ } D   n 6.0.9.7.4.6.6.0.0.6.v   D } ` ` ` ` ` ] ` ` ` ` ` ` ",
"] ` ` ` ` ` ` ` ` ` ` ] ` } U . & 5 o         o 5 & . U } ' ' ' ` ` ] ` ` ` ] ` ` ` ",
"` ` ` ] ` ] ` ` ] ` ` ` ` `  ./   j X.@.$.$.@.X.t   /  .' ' ] ' ` ` ` ` ` ] ` ` ` ] ",
"` ` ` ` ] ` ] ` ` ` ` ` ` _ } H + 7.0.0.0.0.0.0.7.O L } ` ] ` ` ` ` ` ` ` ` ] ` ` ` ",
"` ] ` ` ` ` ` ` ` ` ] ` ` ` } > n 7.:.=.$.$.=.:.8.b 1 } ` ` ' ] ` ` ` ` ` ` ` ` ` ] ",
"` ` ' ` ` ` ] ` ` ` ` ` ` } W   +                 +   W { _ ` ` ` ` ` ` ` ` ` ` ` ` ",
"` ` ` ` ` ` ` ` ` ` ` ` _ } a   v $.1.6.7.7.6.,.$.z   a } ` ` ` ` ` ` ` ` ` ] ` ` ` ",
"` ` ` ` ` ` ` ` ` _ _ ` ` ` r   % 8 N V +.+.Z N 8 %   r ` ` ` _ ` _ ` ` ` ] ` ` ` ` ",
"` ` ` ` ` ` ] }  . .} } ] ` ` W G i   4 $ & 3   y G ! ` ` { { |  .} } ] ` ` ] ` ` ] ",
"` ` ] ` {  .) R H H P E ( { } ..| u & 6.9 9 4.% p  ...} ] ( W P H P R )  .{ ` ` ` ` ",
"` ` ` { ^ s @ & 5 q 4     @ , < . % >.3.  o 4.>.% . 1 , @     4 0 5 & @ s / ` ` ` ` ",
"` ` _ } a   :.0.0.0.0.6.-.+.m b #.9.0.h ; ; j 0.8.#.b m +.-.6.0.0.0.0.:.  p } _ ` ` ",
"` ` ` { ~   #.2.+.O.*.3.9.0.0.0.0.4.k   Y Y   k 4.0.0.0.0.9.3.%.O.+.2.#.  ~ { ` ` ` ",
"` ` ` _ | A   @ # # .   o 3 8 0 3   X U } } U X   3 q 8 * o   . - # @   S  ._ ] ` ` ",
"` ` ` ` [ ) I ) } } ` ~ R F p e r D _ } ` _ } ( S r r p G R ^ ` } } ) P ) ] ` ` ` ` ",
"` ` ` ` ` ` | ] ` _ ` { }  . . .| | ] _ ` ` ` ] }  . . .| } [ ] ` ` ] } ] ` ] ] ` ` ",
"` ` ` ` ` ` ` ` ` ` ` ` ` _ ` ` _ ` ` ` ` ` ` ` ` _ ` _ ` _ ` ` ' ` ` _ ] ] ` ' ` ` ",
"` ` ` ` ` ] ` ` ` ` ` ` ` ` ` ` ` ] ` ` ` ] ` ] ` ] ` ` ` ` ` ] ` ` ] ` ` ` ` ` ' ` ",
"` ` ] ` ` ` ` ` ` ` ` ` ` ` ] ` ` ` ` ` ` ` ` ` ` ` ` ` ] ` ` ` ` ` ` ` ` ` ` ` ` ` "
};
