/* XPM */
static char *bll__[] = {
/* columns rows colors chars-per-pixel */
"64 64 129 2",
"   c #00A200880077",
".  c #07920690056C",
"X  c #0BD6095F0670",
"o  c #0BE10AF509DE",
"O  c #11040BCA05CE",
"+  c #11D20DAE08BF",
"@  c #181C102806E1",
"#  c #1461102D0B22",
"$  c #19CD13B80C72",
"%  c #12B812D51300",
"&  c #191A18261703",
"*  c #166F17BA195A",
"=  c #1A281A0719E8",
"-  c #29071CAA0E21",
";  c #24F31C171173",
":  c #2DC722D515B4",
">  c #3327262E1691",
",  c #35E228BF18FF",
"<  c #3A2F2BB51A53",
"1  c #241C239322F0",
"2  c #294A283D26FB",
"3  c #2A6A29DB2932",
"4  c #311930302F1B",
"5  c #342033F233BA",
"6  c #37DE36D8359D",
"7  c #3A653920379B",
"8  c #39B5394538BF",
"9  c #410531201DDA",
"0  c #46C135692099",
"q  c #489B365E207B",
"w  c #4A8137C72150",
"e  c #52D23E5025B5",
"r  c #3FFF3E793CA2",
"t  c #56C340FC26D9",
"y  c #53AB3FC727E8",
"u  c #5C984556296E",
"i  c #4132401F3ED6",
"p  c #64204B152D09",
"a  c #68B84E602EC4",
"s  c #6A6D502730A0",
"d  c #71C6554E331D",
"f  c #76895907359B",
"g  c #785E59E33550",
"h  c #7C425D8438A0",
"j  c #7FED60563A6F",
"k  c #443F43A042E0",
"l  c #47FB476446AE",
"z  c #48A6483347A8",
"x  c #4BDF4B124A1E",
"c  c #50144FAF4F35",
"v  c #515650424EF8",
"b  c #545E53CE531F",
"n  c #5874570E5562",
"m  c #587F5804576E",
"M  c #5A18598F58EB",
"N  c #654464A063DA",
"B  c #697E68256687",
"V  c #6B726A70693D",
"C  c #70906F8C6E55",
"Z  c #71BD70616EC0",
"A  c #739373027253",
"S  c #78A6783677B0",
"D  c #7DD27D1F7C47",
"F  c #83EE62A33AB1",
"G  c #896366B13D0D",
"H  c #8CFF69003DCF",
"J  c #91846C563FB8",
"K  c #93436E0C4164",
"L  c #97D2720E44BC",
"P  c #9B3E744B458D",
"I  c #A1C7789A472D",
"U  c #A3FB7A9548E6",
"Y  c #A92B7E744A75",
"T  c #ACDC815B4CC6",
"R  c #B2AD85564EEE",
"E  c #B4B1874D50D4",
"W  c #B79F88D850B7",
"Q  c #BC808CC65380",
"!  c #821F81287FFF",
"~  c #C33A918655E1",
"^  c #C6DD95165959",
"/  c #CA0D96E9598B",
"(  c #CD8199A95B73",
")  c #D3849DB95D2B",
"_  c #D7B9A0F05F34",
"`  c #D990A2035F59",
"'  c #DCDDA4CC6183",
"]  c #E0CDA7676286",
"[  c #E776AC5E657D",
"{  c #EBCEAF9A675B",
"}  c #ECCBB05767CC",
"|  c #EECEB1D668AC",
" . c #F432B5E16B14",
".. c #F7F1B8A56CB0",
"X. c #FB3EBB186E1E",
"o. c #FFFFC15071CE",
"O. c #84D684268353",
"+. c #894E88AC87EB",
"@. c #8C538B768A6E",
"#. c #90568FE78F61",
"$. c #90BC904C8FC6",
"%. c #923E91C49132",
"&. c #984797829698",
"*. c #9DAE9CFB9C24",
"=. c #A237A137A005",
"-. c #A4F4A44FA38A",
";. c #AAACA981A81B",
":. c #AE2AAD68AC7F",
">. c #B16DAFD5ADEC",
",. c #B2A6B104AF10",
"<. c #B58CB48DB359",
"1. c #B9B5B8BAB788",
"2. c #BE63BDB3BCE1",
"3. c #C0BDBF6CBDD7",
"4. c #C13EC06CBF70",
"5. c #C409C2D3C15E",
"6. c #CBCACB51CAC0",
"7. c #D0A9D053CFEB",
"8. c #D504D46FD3BD",
"9. c #D898D82DD7AD",
"0. c #DCC1DC40DBA5",
"q. c #E073E00ADF94",
"w. c #E70AE6ADE63D",
"e. c #E95EE8BCE7FA",
"r. c #EBFAEB98EB23",
"t. c #F0D0F08AF038",
"y. c #F488F428F3B3",
"u. c #F974F8EFF84F",
"i. c #FEF5FEF4FEF1",
/* pixels */
"{ { { { { { { { { { { { { { } { { { { { { { { { { { } { { { { { { { { { { { { { { { { { { { { { } { { { { { { } { { { { { { { { ",
"{ { { { } { { { { } { { { { { { } { { { { } { { { { { { { { { { { { { { { { { { { { { } { { { { { { { { { { { { { { { { } { { { ",
"{ { { { { { { { { { { } { } { { { { { { { { { } { } { { { { { { { { { { { { { { { { { { { } { { { { { } } { { { { { } { { { { { ",
"{ } { { { { { } { { { { { { { { { { { } { { { { { { { { { { { { { { { { { { { { } { { { { { { { { { { { { { { { { { { { { { { } ",
"{ { } { { { { { { { { { { { { { { { { { { { { } { { { { { { { { { { { { { { { { { { } { } { { { { { { { { { { { { { { } { } { { ",
"{ { { { { { { { { } { { { { { } { { { { { { { { { { { { [  .X.{ { X.} { } { { { { { { { { { { { { } { { { { } { { { { { { { { { ",
"{ { { { { } { { { { { { { { { { { } { { { { { { { { { [ ..( p : : p ) ..{ { { { { { { { { { { { { { { } } { { { { { { { { { { { ",
"} { { { { { { { { { { { } { { { { { { { { } { { { } { ..~ O         + ~  .{ { { { { } { { { } { { { { { { { { { { } { { { } { { ",
"{ { { { { { { { { } { { { } { { { { { { { { { { { { { { ,   x 1.1.x   < { { { { { { { { { { { { } { { { { { { { { { { { } { { { ",
"{ { { } } { { { { { { { { { { { { { { { } { { } { { ..~   % e.i.i.w.%   ~ ..{ { { { { { { } { { { { { { { } { { { { { { { { { { ",
"{ } { { { { } { { { { { { { { { { { { { { { { { { [ ..R   2 u.u.u.u.1   R ..{ { { { { { { { { { { { { { { { { { { } { { { { { } ",
"{ { { { { { { { { { { } { } { { { { { { { { { { { { ..^   . 8.i.i.8..   ^  .{ { { { { { { { { { { { } { { { { { { { { { { { { { ",
"{ { { { { { { { { { { { { { { } { { { { { { { { { { [  .9   1 S S 1   w ..{ { { { { { { { { { { { } { { { { { } { { { { { { { { ",
"{ { { } } { { { { { } { { { { { { { { { { { { { { { [  ._ <         < ` } { { { { { { { { { { { { { { { { { { { { { { } { } { { ",
"{ { { { { { { { { { { { } { { { { { { { { { { { { { { [ o.T         T o.[ { { { { { { { { { { { { { { { } { { { { } { { { { { { ",
"} { { { { { { } { { { { { { { { { { { { { { { { { { [ X.W o   M m   X Q X.[ { { { { { { { { { { { } { { { { { { { { { { { { } { ",
"{ { { { { { { { } { { { { { { { { { } { { { { { { [ X.W +   k u.u.k   # ~ X.[ { { { { { { { { { { { { } { } { { { { { { { { { { ",
"{ { { { } { { { { { { { } { { } { { { { { { { { [ X.Y o   l u.i.i.y.k   + R X.[ { { { { { } { { { { { { { { { { { { } { { { { } ",
"{ { } { { { { { { { { } { { { { { { { { { { { { X.G .   b u.i.i.i.i.u.x   . K X.{ [ { { { { { { } { { { { { } { } { { { { { { { ",
"{ { { { { { { } { { { { { { { { } { { { { [  . .p     A i.i.i.i.i.i.i.i.V     a  . .{ } { { { { { { { { { { { { { { { { } { { { ",
"{ { { } { } { { { { { { { { } { { { { { [ X.) <   . &.i.i.i.i.i.i.i.i.i.i.%..   < _ X.[ { { { { { { { { } { { { } { { { { { { { ",
"{ { { { { { { { { } { { { { { { { { { [ ..R +   % 1.i.u.i.i.i.i.i.i.i.i.u.i.<.%   + W X.[ { { { { { { { { { { { { { { { { { { { ",
"{ { { { { { { { { { { { { { { { { { { ..W X   2 0.i.i.i.i.i.i.-.-.i.i.i.i.i.i.8.3   X Q ..{ { { { } { { { { { { { { { { { { } { ",
"{ } { { { } { { { { { { } { { { { { } ] ;   4 r.i.u.i.i.i.i.0.  . w.i.i.i.i.i.i.r.3   - ] { { { { { { { { { } { { { } { { { { { ",
"{ { { { { { { { { { { { { { { { { { X.g   % 9.i.i.i.i.i.u.i.8.  . 0.i.u.i.i.i.i.i.8.%   F X.[ { { { } { { { { { { { { { { { { } ",
"{ { } { { { } { { { { } { { } { { { [ ;   O.i.u.i.i.i.i.i.i.0.  . 0.i.i.i.i.i.i.u.i.!   : { { { { { { { { { { } } { { } { { { { ",
"{ { { { { { { { { { { { { { { { [ ..W   o q.i.i.i.i.i.-.x M l     x M x *.i.i.i.i.i.0.o   ~ ..{ { { { { { } { { { { { { } { { { ",
"{ { { { { } { { } { { { { } { { [ X.G   i i.i.i.i.i.i.k                 8 i.i.i.i.i.i.r   K X.[ } { { { { { { { { { { { { { { { ",
"} { { { { { { { { { { { { } { { { X.a   B i.u.i.i.i.i.8.@.%.S     D &.@.6.i.i.i.i.i.i.B   d X.[ { { { { { } { { { } { { { { { { ",
"{ { { { { } { { { { { { { { { { [ X.u   Z i.i.i.i.i.i.i.i.i.0.  . w.i.i.i.i.i.i.i.u.i.Z   a X.{ { { { { { { { { { { { { { { } { ",
"{ { { { { { { } { { } { { { { { [ X.s   m i.i.i.i.i.i.i.u.i.8.    0.i.u.i.i.i.i.i.i.i.n   f X.[ { { } { { { } { { { { { { { { { ",
"{ { } { { { { { { { { { { { { } [ X.H   3 i.i.i.i.i.i.i.i.i.r.% * t.i.i.i.i.i.i.i.i.u.2   K X.{ { { { { { { { { { { { } { { { { ",
"{ { { { } { { { { { { { { { { { { ..W     5.i.i.i.i.i.i.i.i.i.w.w.i.i.i.i.i.i.i.i.i.2.    ~ ..[ { { { { { { { { { } { { { { { { ",
"{ { { { { { { { { { { } } { { { { {  .<   c i.i.i.i.i.i.i.i.i.i.i.i.i.i.i.i.i.i.u.i.x   <  .{ { { { { { { } { { { { { { { } { { ",
"} { { } { { { { { } { { { { { { { [ X.U     %.i.i.u.i.i.i.u.i.u.u.i.u.i.i.i.i.u.i.@.    Y ..[ { { { { { { { { { { { { { { { { { ",
"{ { { { { { } { { { { { { { { { { { { ..u     O.i.i.i.i.i.i.i.i.i.i.i.i.i.i.i.i.D     p X.{ { { { { { { { { { { { { { } { { } { ",
"{ { { } { { { { { { { { { { { { { { { {  .u     5 >.0.2.-.%.O.D D O.%.-.2.0.:.5     a  .{ { { { { { { { { { { } { { { } { { } { ",
"{ { { { { } { { { { { } { { { { { { { { { ..P $     .                           $ I X.{ { { { { { { { { { { { { { { { { { { { { ",
"} { { { { { { { { { { { { { { { { { { { { [ X.[ 0   o 2 k b N B B N b i 2 o   0 [ ..[ { { { { { { { { { { { { { { { { { { } { { ",
"{ { { { { { { { } { { { { { { { { { { { { { [ X.<   <.i.i.i.i.i.i.i.i.i.i.:.  9 ..[ { { { { { { | { { { { { { { { } { { { { { { ",
"{ { { { } { { { { { { { { { { { { { { { { [ ..W   3 i.i.u.i.u.i.i.u.i.u.i.u.2   W  .{ { { { { { { | { { { { } { { { { { } { { { ",
"{ { { { { { { { { { { { { { { { { { { { { { X.p   #.i.u.i.i.i.i.i.i.i.i.u.i.O.  a X.[ { { { { { { { { { { { { { { { { { { { { { ",
"{ } { { { { { } { { { { { { { { { { { { { | ' O   -.*.A M k 8 5 5 8 k M A -.=.  + ' | { { { { { { { { { { { { { { } { { { { { } ",
"{ { { { { { { { { { { { { { { { { { { { [ X.H                                 .   H X.[ { { { { { { { { } { { { { { { { { { { { ",
"{ { { { { { { { { { { { { { { { { { { { {  .>   o 3 x B D %.&.-.-.&.%.D N k 3 o   >  .{ { { { { { { { { { { { { { { { } { } { { ",
"{ { { } { } { { { { { { { { { { { { { { ..T     r ;.r.i.i.i.i.i.i.i.i.i.i.r.;.8     T ..{ { { { { { { { { { { { { { { { { { { { ",
"{ } { { { { { { { { { { { { { { { { { [ X.F         . 1 k B D O.O.S B k 1 .         F X.[ { { { { { { { { { { { { { { { { { { { ",
"{ { { { { { } { { { { { { { [ { [ { { { { } ) J e ;                         ; t K ) } { { { { { { [ { { { { { { } { { { { } { { ",
"{ { { { { { { { { [ { |  . . . . .| { [ [ [ | X. .{ ] e   b :.  . :.x   y ] {  . .| { [ [ { { .... . . .| { [ { { { { { { { { { ",
"{ { { } { { { {  .X. .' / ^ ^ ~ ( [  ...X.X. . .X. .j   % r.6.    8.w.%   F .... ...X.X.X. .[ ( Q ^ ^ ( '  .X. .[ { { { { { { { ",
"{ { { { { { | ..^ f -             O > t g L E E P ,   o 2.i.O.    @.i.<.o   , P E E L f e > X             - f ^ X. .{ { { { { { ",
"} { { { { { ] p     % x A @.%.O.b *                 5 6.i.r.1     2 u.i.6.5                 = M O.@.@.A x %   . p ' { { { { { { ",
"{ { { { { X.J   o ,.u.i.i.i.i.i.i.u.8.<.@.B k k V 5.i.i.i.B   < <   C i.i.i.2.V i k B @.<.8.u.i.i.i.i.i.i.u.>.o   K X.[ { { { { ",
"{ { { { { { [ :   -.i.u.i.i.i.i.i.i.i.i.i.i.i.i.i.i.i.i.O.    P L     O.i.i.i.i.i.i.i.i.i.i.i.i.i.i.i.i.i.i.-.  : [ { { { { { { ",
"{ { } { { { ..T   = 5.@.b 5 8 M D *.3.0.y.i.i.i.i.y.2.x     e |  .u     x 4.y.i.i.i.i.y.0.3.*.D M 8 5 b @.5.=   R X.{ { { { { { ",
"{ { { { { { { ..t                       % 5 k x 8 &       d  .{ { ..f       & 8 x k 5 %                       u X.[ { | { { { { ",
"{ { { { { { {  .) $ t T ^ ) ) W P h u , @           . e Q X.{ { { [ X.R 9 .           + < u h P Q ) ) ~ Y e $ _ | { { { { { { { ",
"{ { { { { { { { } ` ...... . . .X.X.X. .{ ` Q I K U ) ....{ { { { { [ ..../ I K U Q ' [ ..X.X.X. . . . .X...` { { { { { { { { { ",
"{ { { { { { { } { } { { { { { [ [ [ { { { |  .X.X.X.} { { { { { { { { { [  .X.X.X. . .| [ [ [ { [ { { { [ {  .{ { { { { { { { { ",
"{ { { { { { { { { { { { { { { { { { { { { { { { [ { { { { { } { { { { { { { [ { [ { [ { { { { { { { { { { { { { { { { { { { { { ",
"{ { { { { } { { { { { { { { { { { { { } { { { { { { { { { { { { { { { { { { { { } { { { { { { { { { { { { { { { { { { { { { { } ",
"{ { { { { { { { { { { { { { { { { { { { { { { { { { { { { } { { { { { { { { { { { { { { { } { { { { { { } { { { { { } { { { { { ",
"{ { { { { { } { { { { { { { { { } { { { { { { { { { { { { { { { { { { { { { { { { { { } { { { { { { { { { { { { { { { { } { { { ",
"{ { { { { { { { { { { { { { { { { { { { { { { { { { { { { { { { } { { { { { { { { { { { { { { { } { { { { { { } { { { { { { { { "
};
