/* XPM */
static char *kdd__[] = {
/* columns rows colors chars-per-pixel */
"20 20 225 2",
"   c black",
".  c #009D007A0049",
"X  c #00AA00850051",
"o  c #01B60100002B",
"O  c #015B018001AE",
"+  c #019201B701E4",
"@  c #031803140311",
"#  c #04560459045E",
"$  c #0499049C04A0",
"%  c #0CD608F404FB",
"&  c #0EBA0A4D05BE",
"*  c #095509530951",
"=  c #09870C9A1056",
"-  c #0CFA100C13CB",
";  c #21931AD812A2",
":  c #22131B6D1350",
">  c #341F2460114B",
",  c #345124A51184",
"<  c #3CEC2D001992",
"1  c #3DD32DBA1A16",
"2  c #221521F721D2",
"3  c #246F244D2423",
"4  c #25E4250A2401",
"5  c #2F6C2F3D2F03",
"6  c #46882DA00F3C",
"7  c #48872EC00F4A",
"8  c #466B306915D2",
"9  c #43BC326B1DC5",
"0  c #43EE32D51E74",
"q  c #4AE433F017F5",
"w  c #4F9538A41CA5",
"e  c #4D74388A1EF7",
"r  c #504A39021C99",
"t  c #584C3D291C0B",
"y  c #52A83C5E2118",
"u  c #40673F953E96",
"i  c #5B5040651F8B",
"p  c #5C49406D1E6E",
"a  c #5C8841131F92",
"s  c #6FBA4B451EC8",
"d  c #70774BC31EF9",
"f  c #5B1D41E02314",
"g  c #5C5042BE238A",
"h  c #53E049813CD9",
"j  c #71AF4F7C25C1",
"k  c #734550FB2722",
"l  c #7BE658002C31",
"z  c #7E725AAA2F00",
"x  c #62144C1A3148",
"c  c #65F84F893429",
"v  c #3F6B42D94709",
"b  c #43B742E441E3",
"n  c #3FC443344767",
"m  c #442A441143F3",
"M  c #4BB44B9B4B7C",
"N  c #5A714F6C41F9",
"B  c #5D1A515042F9",
"V  c #5E2852114356",
"C  c #56D956B6568B",
"Z  c #5B495B265AFB",
"A  c #5D155C225AF9",
"S  c #5F2C5F115EEF",
"D  c #61FA57454A34",
"F  c #67995C624EB2",
"G  c #60E260C660A3",
"H  c #616261466124",
"J  c #637E62856156",
"K  c #623C62D76394",
"L  c #6337631962F5",
"P  c #641963F363C4",
"I  c #6473643C63F9",
"U  c #66E366AA6666",
"Y  c #65B967A86A03",
"T  c #68A668806852",
"R  c #693C6B006D27",
"E  c #6C0F6C836D11",
"W  c #6D556E406F60",
"Q  c #6FE96FC26F92",
"!  c #6F1F6FE470D6",
"~  c #7073704C701D",
"^  c #72D472B77295",
"/  c #736073437320",
"(  c #799C78BA77A5",
")  c #74D0781A7C1C",
"_  c #761B79377D0F",
"`  c #7C587C277BEC",
"'  c #82D055BE1EC0",
"]  c #841356A51F34",
"[  c #851D5AB026EA",
"{  c #874A5C4427C5",
"}  c #97FA68CE2F3C",
"|  c #998869E02FB7",
" . c #92506AD93AB0",
".. c #92726AF23ABD",
"X. c #98CE6F953D46",
"o. c #A5A878EA4251",
"O. c #A69B799942AD",
"+. c #AAE27B8D41CB",
"@. c #AC4F7C9C4267",
"#. c #802D7F047D98",
"$. c #81097FDC7E6C",
"%. c #80307FFB7FB9",
"&. c #B91A86EF49B5",
"*. c #BAAA88174A60",
"=. c #817880A47FA1",
"-. c #CA968EA5457E",
";. c #C5948ED94C10",
":. c #C60F8F324C3F",
">. c #CDFA91D2486A",
",. c #CB8992644CA8",
"<. c #CC0492CB4CF6",
"1. c #CAA192804E02",
"2. c #CB5892F54E27",
"3. c #CD76936D4C9B",
"4. c #CCAF93DA4E83",
"5. c #CDDF95064FA6",
"6. c #CF3095E24FF3",
"7. c #CF8796375046",
"8. c #D1A2979650BF",
"9. c #D2EF988C514C",
"0. c #D3F4993F519A",
"q. c #D3E7996351FB",
"w. c #D479999051AB",
"e. c #D4F899FB51FF",
"r. c #D5399A285214",
"t. c #D5DB9A9E5255",
"y. c #D5FE9AF952F5",
"u. c #D6539B3B531C",
"i. c #D7419BA052DE",
"p. c #D77C9BFE5363",
"a. c #D81A9C50535A",
"s. c #D7489C2E540F",
"d. c #D7C29C9B546B",
"f. c #D85E9BD151E6",
"g. c #D9419C815259",
"h. c #D88D9CA25382",
"j. c #D9AE9D6353CE",
"k. c #DD289EB3527A",
"l. c #D8A49CD753DD",
"z. c #D8F29D2F5440",
"x. c #DA939E005414",
"c. c #DA6D9E3A54C4",
"v. c #DBB59ED6548B",
"b. c #DC1A9F2154BA",
"n. c #DA859E5054D7",
"m. c #DDDFA06A556A",
"M. c #DF40A1995656",
"N. c #DFA0A1CE565D",
"B. c #E0CFA2715654",
"V. c #E191A31656D7",
"C. c #E1BAA33456E6",
"Z. c #E3A7A49857A5",
"A. c #E38DA59959FE",
"S. c #E4C3A580584D",
"D. c #E54BA6515977",
"F. c #E5A9A680596C",
"G. c #E64CA7A75B32",
"H. c #E69DA7E15B52",
"J. c #E981A9365AC7",
"K. c #EA0CA9A95B15",
"L. c #E986A9FB5C70",
"P. c #F031AECD5F01",
"I. c #F2C7AF0F5C6B",
"U. c #F339AF895CEE",
"Y. c #F159AFD75FE7",
"T. c #815E813080F9",
"R. c #828E81B880B3",
"E. c #8452841A83D7",
"W. c #817F835F85A9",
"Q. c #8741871E86F4",
"!. c #86AE8ACE8FD7",
"~. c #88DA88AB8872",
"^. c #89CF89A18969",
"/. c #8A368A0C89DA",
"(. c #883289EB8C04",
"). c #8A798A508A1D",
"_. c #8C9F8C6D8C30",
"`. c #8DB88D138C49",
"'. c #903290018FC4",
"]. c #914F90BB9006",
"[. c #88B38CCC91CD",
"{. c #90A590729033",
"}. c #9297926D923A",
"|. c #931E92EA92AA",
" X c #940E937992C2",
".X c #938A9360932C",
"XX c #945693BC9300",
"oX c #952894F694B9",
"OX c #913796D29DAF",
"+X c #97C199DE9C72",
"@X c #96A29A2D9E7F",
"#X c #9A0E9A0A9A06",
"$X c #9B039AD59A9D",
"%X c #999F9BD29E81",
"&X c #9A5C9CA69F6D",
"*X c #9DC89D989D5D",
"=X c #9ED09EA69E73",
"-X c #A00CA014A019",
";X c #A0B99F779DE5",
":X c #A05FA035A002",
">X c #9A839E1AA27B",
",X c #9E3AA05BA2F8",
"<X c #9C95A2E1AA97",
"1X c #9F5FA59CAD40",
"2X c #A0F8A0D8A0B0",
"3X c #A40FA3E5A3B1",
"4X c #A4F9A4C9A48E",
"5X c #A769A635A4BC",
"6X c #A708A6DDA6AA",
"7X c #A62BAA2CAF0F",
"8X c #ABFEAEF2B28C",
"9X c #AC34B03EB52B",
"0X c #AF21B1F2B563",
"qX c #B286B219B194",
"wX c #B336B2A0B1E7",
"eX c #B3E1B38EB327",
"rX c #B6C8B664B5EB",
"tX c #B788B727B6B1",
"yX c #BC6EBBE2BB38",
"uX c #C217C3EFC62E",
"iX c #C2B0C468C67F",
"pX c #C789C6F2C639",
"aX c #C8BAC79AC63A",
"sX c #CAE6C9C4C863",
"dX c #CD28CCA8CC0B",
/* pixels */
"t.t.t.t.t.t.t.t.0.k.v.0.t.t.t.t.t.t.t.t.",
"t.t.t.t.t.t.t.0.M.;.:.M.0.t.t.t.t.t.t.t.",
"t.t.t.t.t.t.t.t.1.f f 1.t.t.t.t.t.t.t.t.",
"t.t.t.t.t.t.0.v.+.1 1 +.v.0.0.t.t.t.t.t.",
"t.t.0.0.t.d.0.6.I.j k I.6.t.d.s.0.0.t.t.",
"t.0.v.F.>.-.k.I.z E K l Y.b.-.>.A.v.0.t.",
"t.v.3.p N F c ] V >X&XV ' x D h t >.v.t.",
"t.t.0 1XuX%X9X!.4 {.{.4 W.7X+XiX<X0 g.t.",
"F.[ ) :X    @ {.2X/./.#X_.      4X) { F.",
"J.j +XA   * #   4XU U =X  # *   J >Xj J.",
"A.} Y aX    @   M R.` m   @     dXR | A.",
"t.M.8 OXeX5 K ! 4XoX{.4X~ J 5 yXOXq M.0.",
"0.t.k.6 ! wX%.P C 2 4 A T W.rX! 7 v.s.0.",
"t.t.t.J., * b A ~ Q.Q./ J b - , J.t.t.t.",
"t.t.8.F.f !.sX2XoX/./.{.=XaX[.i F.8.t.t.",
"t.t.0.A.r v =.`.#X2X2X#X_.#.n r F.8.t.t.",
"t.t.v.1.; 8XwX{.=.( ( R.XXtX0X: 1.k.t.t.",
"t.0.d.3.y %                 % e 1.t.0.t.",
"t.t.t.t.C.6.*.O.X. . .X.O.&.5.M.s.t.t.t.",
"t.t.t.t.0.t.M.Z.Z.Z.Z.A.C.M.k.8.t.t.t.t."
};
