/* XPM */
static char *kdd__[] = {
/* columns rows colors chars-per-pixel */
"24 24 109 2",
"   c #015A018301BC",
".  c #0B730B490B16",
"X  c #11C705540000",
"o  c #146C07D00000",
"O  c #12360E130909",
"+  c #14640FF90A94",
"@  c #1ACF140A0BC9",
"#  c #12B412731226",
"$  c #17D817A91771",
"%  c #1456177C1B52",
"&  c #1B8E1B4D1B04",
"*  c #257A1B200E7E",
"=  c #2A901DB30E09",
"-  c #28321DBD10F8",
";  c #1FDE1F2D1E66",
":  c #2B3C20D8142B",
">  c #3B2529D514B4",
",  c #268824A42256",
"<  c #293525522094",
"1  c #245526E72A09",
"2  c #253028EC2D93",
"3  c #27E22A6D2D89",
"4  c #33F431D52F3E",
"5  c #355C33183054",
"6  c #3E2E3D323BFF",
"7  c #43B52D631227",
"8  c #478F311715AC",
"9  c #4C2D34EF1893",
"0  c #54723AE31C4A",
"q  c #5A7B3D5519ED",
"w  c #50DB3B642131",
"e  c #592B3F952091",
"r  c #5D8440F81E22",
"t  c #6359422D19B2",
"y  c #6F594B2B1F03",
"u  c #602F43C1210F",
"i  c #727B4D592008",
"p  c #7486510A25C0",
"a  c #7A0C548826D6",
"s  c #7F8257F827D2",
"d  c #7E575B5930A3",
"f  c #38D63DE24413",
"g  c #3B554051468A",
"h  c #494D48624743",
"j  c #4B914B554B08",
"k  c #530553C554D0",
"l  c #596457BB55AA",
"z  c #59925875571A",
"x  c #5C315C385C41",
"c  c #60555EAE5CA9",
"v  c #626C613B5FC6",
"b  c #63EE63A5634C",
"n  c #68F3680E6716",
"m  c #6B926B476AEB",
"M  c #6FF76FCD6F9B",
"N  c #64FC6A037027",
"B  c #6BBF709F7692",
"V  c #72AE72607200",
"C  c #7B437AFC7AA4",
"Z  c #82D15E95325C",
"A  c #84E96019332B",
"S  c #9EA472193BBE",
"D  c #A23774AE3D1C",
"F  c #AB12775C3841",
"G  c #ADB079A93A2B",
"H  c #B3107E243D8F",
"J  c #80097FE07FAE",
"K  c #B4E982D645BB",
"L  c #BD8C873544E5",
"P  c #C4EE8E354B6D",
"I  c #CBA493174E15",
"U  c #D03E969A5042",
"Y  c #D1A3979350B7",
"T  c #D5639A475226",
"R  c #DA539DFB5456",
"E  c #DE79A16C56EB",
"W  c #E130A2FF571B",
"Q  c #E53EA66859B8",
"!  c #E7C4A8975B7E",
"~  c #E8ACA9585C0D",
"^  c #F4C4B0CB5DD9",
"/  c #848B844083E6",
"(  c #8B748B4A8B17",
")  c #863C8B6891B9",
"_  c #90DF90C490A3",
"`  c #92C5966D9AE3",
"'  c #9A349A0D99DD",
"]  c #974A9BA1A0EF",
"[  c #9DB0A20DA762",
"{  c #A967A8AFA7CF",
"}  c #AABAAA96AA6C",
"|  c #B08BAFD7AEF9",
" . c #B180B3A9B64C",
".. c #B780BA75BE10",
"X. c #BF24BECEBE67",
"o. c #C055C01BBFD5",
"O. c #BBFDBFBDC450",
"+. c #BFB7C346C79E",
"@. c #C61BC5EDC5B4",
"#. c #C45CC7FFCC70",
"$. c #CC82CC72CC5F",
"%. c #D501D4B4D447",
"&. c #DA6CD967D828",
"*. c #DBE7DBE1DBD4",
"=. c #DDA0DF8BE1E3",
"-. c #E369E383E3A4",
";. c #E8B8E785E610",
":. c #E7B1E854E91A",
">. c gray100",
/* pixels */
"T T T T T T T T T T Y T T Y T T T R T T T T T T ",
"T T T T R T T T T T T T T T T T T T T T T T T T ",
"T T T R T T T T R Y ^ Z A ^ Y T T T T T T R T T ",
"T T T T T T T T T R s * * d R T T T T T T T T T ",
"T T T T T T T T T T K w w K T T T T T T T T T T ",
"T T T T T T Y Y Y Y ^ u u ^ Y Y Y Y T Y T T T T ",
"T T T T ! ! ! ! E E e x k 0 E E ! W ! ! R T T T ",
"R T R T i 7 9 t H F x $.@.k G H t 9 > i T R T T ",
"Y R U : B #.+.[ x o b V V b X l ] ..#.N = I R T ",
"Y W 7 ) -.l 6 b $...$ @.@.$  .$.v 6 x ;.( 7 W T ",
"E L : -.;         } ' C C ' {         1 :.< L R ",
"E H 4 *..         . %.j j @.          . ;.5 H E ",
"T T - =.m           ( V m /           V -.: Y R ",
"Y ! p f >.x   . , & ( / / / $ & .   m >.g a ! Y ",
"T T Q 0 3 *.$.&.&.$.&.b b *.%.*.*.$.=.2 q Q T T ",
"T T T ! a & h .                 # j ; s ~ Y T T ",
"T T T T ! = 1 C { @.%.&.*.%.@.} / 3 - ! T T T T ",
"T T T T W 7 ` &.' / M n n M J ` %.` 7 W Y T T T ",
"T T T T W > % j c C ( ( _ ( C c j % > E T T T T ",
"T T T R P O %.>.-.%.@.X.X.@.%.;.>.&.O P R T T T ",
"T T T W S   3                     3   S W T T T ",
"T T T T T D u > = @ O O . + @ * > q S T T T T T ",
"T T T T T E ! Q R Y I P P I Y R E ~ E T T R T T ",
"R T T T T Y Y Y T T R R R R T T Y Y T T T T T T "
};
