/* XPM */
static char *kdd__[] = {
/* columns rows colors chars-per-pixel */
"23 23 104 2",
"   c #0165013C0117",
".  c #0800057B0268",
"X  c #0ECA099E034F",
"o  c #05A606ED0889",
"O  c #089208E90954",
"+  c #12050BF00483",
"@  c #1D9912450472",
"#  c #158811130BFD",
"$  c #0E23136D19E2",
"%  c #11C71190114D",
"&  c #1BA11BA81BB0",
"*  c #1FAA17680D54",
"=  c #209A17FB0D76",
"-  c #33E520D70997",
";  c #2AD522FF196F",
":  c #32B223AD1160",
">  c #364827BF1603",
",  c #3AE02BA91919",
"<  c #1ADB1D061FAA",
"1  c #2363232722DD",
"2  c #296829DB2A66",
"3  c #2D302EF93125",
"4  c #364335E63574",
"5  c #320D35493A10",
"6  c #35AE38C13D62",
"7  c #3B233B2A3B3A",
"8  c #41002EFF1906",
"9  c #468732FE1B27",
"0  c #4B2A36031C35",
"q  c #50F639761CCB",
"w  c #4BCD381C2014",
"e  c #44F53EC53738",
"r  c #40A33EDB3CAF",
"t  c #430541103EAC",
"y  c #4B06437B3A45",
"u  c #503347523C7D",
"i  c #75C653762996",
"p  c #480C47ED47C6",
"a  c #4AF04B134B3E",
"s  c #4BDB4ED1526F",
"d  c #4D2D50095387",
"f  c #52D652B05283",
"g  c #5A475A0259AF",
"h  c #61165FB25E00",
"j  c #6559653C6518",
"k  c #6878671C6575",
"l  c #6C336C116BE9",
"z  c #766F76407607",
"x  c #78F576E07455",
"c  c #86915DE32CDD",
"v  c #8E7B62672C9E",
"b  c #90B962B72A90",
"n  c #903864E43003",
"m  c #961469F1341E",
"M  c #9FF06F623421",
"N  c #A13D70F13600",
"B  c #A53775263A7D",
"V  c #AFA77B7E3BD6",
"C  c #B4A8815542C5",
"Z  c #BA2F856644FB",
"A  c #B7F285AA484D",
"S  c #BAF487394816",
"D  c #BCCE889548DB",
"F  c #C32489F84434",
"G  c #C9158E6F46DC",
"H  c #C2A48D0B4BA6",
"J  c #C710903C4D54",
"K  c #CC9493784DC7",
"L  c #D15E974F5076",
"P  c #D5789A585230",
"I  c #DA579DFA5451",
"U  c #DEBBA1455643",
"Y  c #E190A37857B2",
"T  c #E3FDA573591E",
"R  c #F29EB12A6148",
"E  c #7E3580688318",
"W  c #84E285678609",
"Q  c #85138716898C",
"!  c #8BB48BA58B91",
"~  c #9F6D9F419F0B",
"^  c #A056A0289FEF",
"/  c #A5E0A553A4A7",
"(  c #A559A91CADB4",
")  c #ACA2AC34ABAD",
"_  c #B05AB028AFEB",
"`  c #B0AFB06DB01D",
"'  c #A808ABD3B07A",
"]  c #B513B49DB40D",
"[  c #B71DBB10BFF2",
"{  c #BBCABBF4BC26",
"}  c #B970BD2AC1B1",
"|  c #BFB7C39BC85B",
" . c #C608C5DFC5AC",
".. c #CBD9CB89CB27",
"X. c #D35ED3B5D422",
"o. c #D524D6D7D8E9",
"O. c #D7C5DABBDE2D",
"+. c #DBE1DCC1DDD4",
"@. c #DBC0DE4AE14B",
"#. c #E48DE43EE3DE",
"$. c #EA9BE983E82D",
"%. c #EC21EBC4EB52",
"&. c #F535F4B7F41C",
"*. c #FA84F9CAF8E7",
/* pixels */
"P P P P P P P P P P P I P P P P P P P P I P P ",
"P P P P P P P P P P P K P P P P P P P P P P P ",
"P P P P P P P P P I P 9 P I P P P P P P P P P ",
"P I P P P P P P I D 8 + , S I P P P P P P P P ",
"P P P P P P P P P L S , S L P P P P P P P P P ",
"P P P P P I I P L Y N + B Y L P I I P L P P P ",
"P P P T I F J U R m a [ 7 m R I G F I T P P P ",
"P P T v > y u q b 0 ' z ( q v 0 y e : v T P P ",
"P T c 6 O.X.{ | Q   ! z !   E } { X.o.5 c T L ",
"I G ; +.h     & ] { 7 *.4 ] ) &     j @.; K I ",
"U M p ..          _ ! g ! /           X.p M Y ",
"U V r +.o   o o   2  .# { 1   O o   O #.p V U ",
"P I : } ]           ] a _           { } > U P ",
"P U C % [ ] j ~ ) { #.a @.{ _ ~ j { [ # C I P ",
"P P U Z @ W / k p 4 & . 1 7 a l ) W * Z Y L P ",
"P P L Y H     2 a j z W z k f 2     F T L P P ",
"P P P P L ; o.&.o. .{ ] {  .o.&.O.; K P P P P ",
"P P P P P * 3 4 7 p f f f p 7 4 3 @ P P P P P ",
"P P P Y B 1 $.&.&.$.#.#.#.$.*.*.$.2 B U P P P ",
"P P L T i $ s & o           o & d $ i T P P P ",
"P P P I J i - * X . .     . X @ - i H I P P P ",
"P P P P I T T I K G D S D H K I T T I P P P P ",
"P P P P P L P P I I I Y I I I P L L P P P P P "
};
