/* XPM */
static char *kdd__[] = {
/* columns rows colors chars-per-pixel */
"32 32 113 2",
"   c #01420122011E",
".  c #0A78060202E3",
"X  c #0CCA09CE0650",
"o  c #0475062D0895",
"O  c #0B020B350B65",
"+  c #144B0BD00253",
"@  c #18640CC10000",
"#  c #12250E6E09DF",
"$  c #1B8910B303F3",
"%  c #1ADF1307099C",
"&  c #126F127F128A",
"*  c #19D519DF19EE",
"=  c #2215146003CE",
"-  c #26B4182006AD",
";  c #2EBE1E2F09FA",
":  c #26411C6C106F",
">  c #29D01E8210B7",
",  c #1FC01F8C1F4D",
"<  c #348B22590C25",
"1  c #3CC629D113A2",
"2  c #1A681E2222AC",
"3  c #1D6721092579",
"4  c #24B124AD24AD",
"5  c #253E26912846",
"6  c #2AA02ABA2ADD",
"7  c #32FB32D332A3",
"8  c #3B2F3B013AC8",
"9  c #42E32C6D11A5",
"0  c #41022F011907",
"q  c #4515315C1946",
"w  c #4A0D34EC1B1F",
"e  c #56183E3F2125",
"r  c #3FF23FB83F70",
"t  c #5A21418F2393",
"y  c #6C3A4BED247F",
"u  c #6E074F8D2A5C",
"i  c #724B4E412246",
"p  c #737B50A1261B",
"a  c #3AD43E7742DF",
"s  c #3ECF410A43DA",
"d  c #434E431942D8",
"f  c #412F456C4A89",
"g  c #4DB14D804D45",
"h  c #50AF501C4F68",
"j  c #4E0A511A54D7",
"k  c #539A535152F8",
"l  c #57EF57AD575D",
"z  c #5C6C5C355BF0",
"x  c #6058600E5FB4",
"c  c #5E00622C6751",
"v  c #63EB63C6639A",
"b  c #66C068AE6B09",
"n  c #6C346BEB6B91",
"m  c #70236FEE6FAD",
"M  c #6D7F6F0370DC",
"N  c #72C4733173B9",
"B  c #750D778E7A9C",
"V  c #7BFF7BCD7B90",
"C  c #81575D1B30E3",
"Z  c #8BCC64F83595",
"A  c #8FE8680C3767",
"S  c #974A6D623A3E",
"D  c #981D6DFB3A90",
"F  c #9EF072663C0C",
"G  c #A4A6763C3D99",
"H  c #A99878F73D9E",
"J  c #A45A775B4085",
"K  c #A65A7846400B",
"L  c #AA827BC142BA",
"P  c #B0AF7FBF4405",
"I  c #80177FE07F9B",
"U  c #B444828545D1",
"Y  c #BF008A854A70",
"T  c #C3968DA14BC5",
"R  c #C79A90B54DB8",
"E  c #CAFA93184ED0",
"W  c #CFA896204FEA",
"Q  c #D19E978C50AF",
"!  c #D58B9A645236",
"~  c #DAC89E45546E",
"^  c #DF06A1855675",
"/  c #E041A2F25821",
"(  c #E1E0A36D5737",
")  c #E567A6675986",
"_  c #FDE3B79061BD",
"`  c #FF33B88C6254",
"'  c #841B852A8676",
"]  c #83B185DA887D",
"[  c #8D5D8D1D8CD0",
"{  c #948A943593CE",
"}  c #9D349CE09C7B",
"|  c #A3FAA346A26A",
" . c #AD22ACE9ACA3",
".. c #AEC2B192B50F",
"X. c #B5DAB59AB54C",
"o. c #B63BB922BCB8",
"O. c #BC16BC56BC7C",
"+. c #C07BC018BF9F",
"@. c #C537C506C4CB",
"#. c #CBF8CBF4CBEF",
"$. c #D417D3FDD3DC",
"%. c #DC1DDA0BD77D",
"&. c #D68ED801D9C6",
"*. c #D71ED877DA1C",
"=. c #DCB5DC42DBB1",
"-. c #E09EE068E026",
";. c #E5BDE560E4EE",
":. c #ECABEC63EC0B",
">. c #F127F0BDF03B",
",. c #EFC0F063F12B",
"<. c #F42BF3D8F372",
"1. c #F89DF868F827",
"2. c #FF7BFF77FF72",
/* pixels */
"! ! ! ! ! ! ! ! ~ Q ! ~ Q ! ! ! Q ! ! ! ! ! ~ ! ! ! ~ ! ! ! ! ! ",
"! ! ! ! ~ ! ! ! ! ! ! ! Q ~ Q ~ ^ ! ! ! ! ! ! ! ! ! ! ! ! ! ! ! ",
"! ! ! ! ! ! ! ! Q ! ! Q ! Q ~ U U ! Q ! ! ! ! ! ! ! ! ! ! ! ! ! ",
"! ! ! ! ! ! ! ! ~ ! ! ~ ! ~ _ e t _ ~ ! ! ! ! ! ! ! ! ! ! ! ! ! ",
"! ! ! ! ! ~ ! ! ! ! ! ! ~ U u : > u U ~ Q ! ! ! ! ! ! ! ! ! ! ! ",
"! ! ! ! ! ! ! ! ! ! ! Q ^ K q % % 0 J ^ ! ! ! ! ! ! ! ! ~ ! ! ! ",
"! ! ! ! ! ! ! ! ~ ! ! Q Q ! ` t t _ ~ Q ! ! ! ! ! ! ! ~ ! ! ! ! ",
"~ ! ! ! ! ! ! ! Q ! ! ~ Q ~ ^ 1 1 ^ ~ Q ! ! ! ! ! ! ! ! ! ! ! ! ",
"! ! ! ! ! Q ~ ^ ^ ~ ! Q ~ T $ 6 4 % Y ~ E ! ~ ^ ( ~ W ! ! ! ! ! ",
"! ! ! ! ~ ) E K G T ( ) ) < B 2.2.v < ( ) ^ T G H T ) ~ ! ! ! ! ",
"! ! Q ^ E 9 . & * # = i T # *.l h &.% T i = X & O   9 E ~ ! ! ! ",
"! ! ~ T + s =.2.2.,.o.f .   O.l l O.  . a ..:.2.2.$.a + R ~ ! ! ",
"! ! ^ ; j 2.@.z 8 k | 2.#.o l #.#.l   @.2.| h 8 v @.2.j < ^ ! ! ",
"Q ( F   :.|           * -.$.. $.$.  #.=.*            .:.  J ^ W ",
"Q ) y 2 2.d   o     o   * 1.m n n n <.&     o   o   h 2.3 y ) ! ",
"Q ) p 4 2.d           o   n :.4 4 ;.z   o           h 2.3 p ) Q ",
"Q ( G o <. .      .   o   & 1.8 7 :.O     o         X.<.o G ( Q ",
"! ! ~ $ b 2.]               =.l z $.              { 2.M = ^ ! ! ",
"! Q ^ L   N 2.[   6 g v V ' 1.z v <.V V v g 5   } 2.N   L ^ Q ~ ",
"! ! Q ( G   s <.<.2.2.:.=.$.$.d d $.=.;.<.2.2.1.>.a   K ( Q ! ! ",
"! ! ! ! ( Y - 5 n 7 o                     & 7 N 6 - T ( Q ! ! ! ",
"! ! ! ! W ) U       X 5 8 g l z z l k r 6 o       U ) Q ~ ! ! ! ",
"! ! ! ! ! ! T . N :.2.2.2.2.2.2.2.2.2.2.2.2.>.V . T ~ ! ! ! ! ! ",
"! ! ! ! ! ! ^ @ I ;.{ n k 8 7 6 6 7 8 g n [ =.] + ~ ! ! ! ! ! ! ",
"! ! ! ! ! ! W %   . O 6 d k z v v z k d 6 &     % W ! ! ! ! ! ! ",
"! ~ ! ! ! ( L   { 2.2.2.2.2.2.2.2.2.2.2.2.2.2.}   K ^ ! ! ! ! ! ",
"! ! ! ! Q ) y o %.@.[ n g d 7 7 7 8 d k n { @.=.o y ) W ! ! ! ! ",
"! ! ! ! Q ^ w   o                             .   q ^ ! ! ~ ! ! ",
"! ! ! ! ! ~ R Z w : #                   o O : q p E ! ! ! ! ! ! ",
"~ ! ! ! ! ! ~ ( ) ~ R U G S A A Z A S G U T ! ) ) ~ ! ! ! ! ! ! ",
"! ! ! ! ! ! ! Q Q ! ~ ~ ^ ( ( ) ( ( ^ ^ ~ ~ ! ! ~ ! ! ! ! ! ! ! ",
"! ! ! ! ! ! ! ! ! ! ! ! Q Q Q ! Q ! Q Q Q ! ! ! ! ~ ! ! ~ ! ! ! "
};
