/* XPM */
static char *kdd__[] = {
/* columns rows colors chars-per-pixel */
"40 40 127 2",
"   c #00F700EA00E6",
".  c #097105EC01A3",
"X  c #082907DA0775",
"o  c #024D052D08D5",
"O  c #046A08080C71",
"+  c #0BD40BC80BB9",
"@  c #108B0A7F031E",
"#  c #11D20E2A09AE",
"$  c #1F42135404C6",
"%  c #155010AE0B01",
"&  c #1D4E15300B48",
"*  c #14051407140B",
"=  c #18A917B0167F",
"-  c #12FD15F619BF",
";  c #1C471C211BED",
":  c #1FA31368047C",
">  c #2087161E09A6",
",  c #2472195C0C03",
"<  c #2D2E1CD70946",
"1  c #31391F410954",
"2  c #29091DBC0FF1",
"3  c #1FBA1F821F3D",
"4  c #2D481FD60F6D",
"5  c #35A222E90C22",
"6  c #383324850C8F",
"7  c #2E972167114F",
"8  c #32E224881304",
"9  c #363E27D2163B",
"0  c #3A1929911573",
"q  c #3B212B7C1879",
"w  c #19A31D0A2163",
"e  c #239C23F42462",
"r  c #27B82787274B",
"t  c #23B325F828D6",
"y  c #268929F32E20",
"u  c #2C5D2C752C93",
"i  c #2E2A31673559",
"p  c #3458342033DB",
"a  c #3BFA3C083C17",
"s  c #46E32FEE13E8",
"d  c #4B2232C8150F",
"f  c #45E332781AC5",
"g  c #4A0435011B5C",
"h  c #4EBC38ED1E4F",
"j  c #512337A81891",
"k  c #51343806194C",
"l  c #5B65417E21E3",
"z  c #40223FD13F6F",
"x  c #606E465A269E",
"c  c #6526491126CC",
"v  c #624447FE2804",
"b  c #6A3F4D1B2990",
"n  c #7CC459482DFA",
"m  c #7D1A5A733029",
"M  c #39623C83406C",
"N  c #3F8742884638",
"B  c #454C451644D4",
"V  c #487F47D046FB",
"C  c #41EE45494961",
"Z  c #44C547F24BD3",
"A  c #4C6C4C774C86",
"S  c #49A34CCD50AB",
"D  c #53B25370531F",
"F  c #5EE25E7D5E07",
"G  c #5FB16053611B",
"H  c #657E6558652B",
"J  c #6B826B606B35",
"K  c #700A6FB76F52",
"L  c #708C703A6FD7",
"P  c #742C73C7734A",
"I  c #782077E777A3",
"U  c #79DE795878B6",
"Y  c #81075DAB3284",
"T  c #879D621C346E",
"R  c #8913632134E3",
"E  c #93A46AFF3965",
"W  c #99F56F503B46",
"Q  c #9D5F71C73C95",
"!  c #A26B76B7411A",
"~  c #A645792D4204",
"^  c #ABE07CCB4356",
"/  c #B4F4830F462A",
"(  c #BAE9872B4807",
")  c #BDD08A054AD1",
"_  c #809480427FDF",
"`  c #C6238F404C45",
"'  c #C6FA90E04EDA",
"]  c #CB8693444E9D",
"[  c #CCF994D75057",
"{  c #D194978750AE",
"}  c #D58C9A665237",
"|  c #DB099E745486",
" . c #DEE3A13055E5",
".. c #E25AA3B85747",
"X. c #E47EA59858D6",
"o. c #E795A8415AF8",
"O. c #EF3FAD005C29",
"+. c #F24FAF355D52",
"@. c #F415B1485FC4",
"#. c #8394833E82D6",
"$. c #8C128BC68B69",
"%. c #957394C293EC",
"&. c #999399549908",
"*. c #A5D3A592A542",
"=. c #AC66ABD3AB21",
"-. c #B08FB03AAFD4",
";. c #B4E9B4A4B450",
":. c #B85DB828B7E8",
">. c #BA7DB921B779",
",. c #BD07BCAFBC43",
"<. c #C0B4C07CC039",
"1. c #C525C4D1C469",
"2. c #C857C81EC7D9",
"3. c #C896C85CC817",
"4. c #CC8BCC21CB9F",
"5. c #D4A8D476D438",
"6. c #DDA5DD61DD0E",
"7. c #E080E053E01C",
"8. c #E097E06AE033",
"9. c #E46AE431E3EB",
"0. c #E885E863E838",
"q. c #E8BCE885E842",
"w. c #EC41EBF0EB8C",
"e. c #F147F035EEE8",
"r. c #F238F116EFB5",
"t. c #F3E9F38CF31C",
"y. c #FF62FF58FF4A",
/* pixels */
"} } } } } } } } } } } } } } } } } } } } } } } } } } } } } } } | } } } } } } } } ",
"} } } } | } } } } } } } } } } } } } } } } } } } } } } } } } } } } } } } } } } } ",
"} } } } } } } } } } } } } | } } } } } ....} } } } } } } } } } } } | } } } } } | ",
"} } } } } } } } } } | } } } } } } } | m Y | { } } } } } } } } } } } } } } } } } ",
"} } } } } } } | } } } } } } } } }  .@.9 0 +. .} } } } } } } } } } } } } } } } } ",
"} | } } } } } } } } } } } } } } } Q W , < Q W } } } } } } } } } } } } } } } } } ",
"} } } } } } } } } } } } } } } } { &         & [ | } } } } } } | } } } } } } } } ",
"} } } } } } } } } } } } | } } } } ] { 8 7 { [ } } } } } } } } } } } | } } } } } ",
"} } } } } } } } } } } } } } } } } } O.9 0 O.{ } } } } } } } } } } } } } } } } | ",
"} } } } } } } } } } } } } } } } }  .[ 7 8 ]  .} } } } } } } } } } } } } } } } } ",
"} } } } } } } } { } } } { } } }  .T   X X   T ..} } } { { { } } } } } } } } } } ",
"} } | } } } } ..o.X.X.o.o.| { | ~   #.y.y.J   ^ | { | o.o.X...o...} } } } } } } ",
"} } } } } | | E h 1 < d n ) X.@.d i y.=.=.y.t j @...) n s < < h E }  .{ } } } } ",
"} } } } ../ ,   ; C S i O   < ! 5 V y.* X y.S 6 ! ,   o y N a -   & / ..} } } } ",
"} } }  ./ . t 2.y.y.y.y.y.1.Z     ; y.a a y.;     a :.y.y.y.y.y.<.e . / | } } } ",
"} } } } > t r.y.;.H V A #.9.y.4.r   ,.=.-.,.  w 1.y.9.#.A V H ,.y.w.e , } } } } ",
"} { X.Y   :.y.D             J y.0.* a y.y.a X 9.y.H             F y.:.  T X.} } ",
"} } ..9 * y.;.  X X     X X   A y.,.  4.4.  :.y.a   X     X X     1.y.- 0 ..{ } ",
"} } | $ y y.$.              X   #.y.a H H p y.J   X               %.y.i $  .} } ",
"} } X.< t y.%.  X               X 9.:.* * ;.6.                X   *.y.y < ..} } ",
"} [ o.l o w.w.=                   $.y.% + y.I                   3 t.t.o l o.{ } ",
"} } ..~   $.y.,.X   X   X     X   D y.t r y.V   X X       X   * 1.y.%.  ^  .} | ",
"} } { ..f   :.y.,.O               a y.p p y.u               = 4.y.,.  h ..} } } ",
"} } { | [ 2   %.y.:.7 D #.*.1.5.6.9.y.a a y.9.6.5.,.*.#.A e 4.y.%.  7 { } } } } ",
"} } } } | ] 0   F y.y.y.y.y.9.4.,.;.-.t r ;.:.4.5.w.y.y.y.y.y.F   q } | { } } } ",
"} } } | { | | v   a _ V t +                       X = u D $.B   b | | } } } } } ",
"} } } } } } } O.x                 X + + + + X                 l +.{ } } } } } } ",
"} } } } } } { ..T   * a H $.-.1.5.7.9.w.w.w.9.5.1.;.%.J B =   T ..{ } } } } } } ",
"} } } } } } }  .^   #.y.y.y.y.y.y.y.y.y.y.y.y.y.y.y.y.y.y.$.  ^  .{ } } } } } } ",
"} } } } } } } | ]   H 9.&.P A p e = + + + + = ; i V J %.6.H   ' | } } } } } } } ",
"} } } } } } } | /           X ; u a V V V B a u ; +           /  .} } } } } } } ",
"} } } } } } } ..Y   V *.4.w.y.y.y.y.y.y.y.y.y.y.y.y.w.4.=.A   m X.} } } } } } | ",
"} } } } } } { ..g   2.y.y.y.r.8.5.1.,.,.,.,.3.5.9.t.y.y.y.4.  f ..{ } } } } } } ",
"} } } | } } | ] . = =.I B t * X                 X = u A I =.= @ ] | } } } } } } ",
"} } } } } } | / .                 .     X                       / | } } } } } } ",
"} } } } } } } | ( b 0 %                                 # 8 c / | } } } } } } } ",
"} } } } } } | } | X.| ] ^ E n b l h f f f g k h c n E ^ ` | X. .} } } } } } } } ",
"} } } } } } } } } { } |  ...X.o.X.........X.o.X.X.X...| | } { { } } } } } } } | ",
"} } } } } } } } } } } } { } { { { } { } } { } { { { } } } } } } } } } } } } } } ",
"} } } | } } } } } } } } } } } } } } } } } } } } } } } } } } } } } } } } } } } } "
};
