/* XPM */
static char *kdd__[] = {
/* columns rows colors chars-per-pixel */
"56 56 118 2",
"   c #00E800D500C1",
".  c #084006AF04E8",
"X  c #0CFA098F0566",
"o  c #0BD90BA40B64",
"O  c #11250C7006B1",
"+  c #10140E000B77",
"@  c #162D103808F8",
"#  c #1BB2144C0B4E",
"$  c #145714001395",
"%  c #183116E61553",
"&  c #195017EA1634",
"*  c #1BB41B641B02",
"=  c #22DC199A0E4F",
"-  c #2A8F1EF310C8",
";  c #1FDA1EFE1DF2",
":  c #2E2B2181120D",
">  c #327224D0142E",
",  c #38F0298B16C1",
"<  c #3CB72C9C18F5",
"1  c #1F5A1FAC2011",
"2  c #240823C72376",
"3  c #28202763267D",
"4  c #2995285A26DA",
"5  c #277627B72808",
"6  c #2BDF2B712AEE",
"7  c #342B33A9330B",
"8  c #3CC13C363B8E",
"9  c #3FF92EAF199C",
"0  c #446C31E21B48",
"q  c #4AFB36B91E00",
"w  c #51793AE71F5D",
"e  c #540F3D442173",
"r  c #3FF33F973F27",
"t  c #5DCB44EB2691",
"y  c #61AE4714269C",
"u  c #659149752729",
"i  c #607F471F2821",
"p  c #64AE49BD28DC",
"a  c #69704D212A96",
"s  c #6EE550442AE9",
"d  c #737D53B22CE8",
"f  c #7EEB5C61323B",
"g  c #4442438742A1",
"h  c #486447FB477A",
"j  c #4D5C4CA04BBA",
"k  c #50544F2C4DC1",
"l  c #519250794F23",
"z  c #55F355255428",
"x  c #5D5C5CBC5BF9",
"c  c #63A363286293",
"v  c #683667D66760",
"b  c #6BA36B346AAE",
"n  c #75487489739F",
"m  c #782477B87737",
"M  c #78D9787077EF",
"N  c #7CE87C617BBC",
"B  c #81BD5E1A329B",
"V  c #854E60C73433",
"C  c #8B1A64963594",
"Z  c #8F11687F396D",
"A  c #905D68603794",
"S  c #94C76BF43A22",
"D  c #9F27732A3D7A",
"F  c #A11174743E02",
"G  c #A39876AA3FD5",
"H  c #A73F793040FA",
"J  c #ABCB7C3C4231",
"K  c #B3FF82314569",
"L  c #B97B86254780",
"P  c #BA6C86D647E2",
"I  c #BE1A898A4965",
"U  c #8131806B7F79",
"Y  c #C3908D964BB7",
"T  c #CC4B93B64EA8",
"R  c #CFCF96405002",
"E  c #D1CD97B150C7",
"W  c #D5A59A77523F",
"Q  c #DB079E5E5458",
"!  c #DEF7A13555D8",
"~  c #E274A3BB5730",
"^  c #E4D6A5735818",
"/  c #85B4854784C1",
"(  c #88D5887087F3",
")  c #8C968C208B91",
"_  c #905D8FDC8F3F",
"`  c #909E901F8F85",
"'  c #958795189490",
"]  c #989098099765",
"[  c #9D7C9CF89C56",
"{  c #A48BA3CFA2EA",
"}  c #A9CBA8FAA7FC",
"|  c #AD36ACBDAC29",
" . c #B030AFCCAF51",
".. c #B0D3B063AFD9",
"X. c #B5E7B57FB4FF",
"o. c #B842B7ECB784",
"O. c #B9ADB8EDB802",
"+. c #BC61BBC3BB03",
"@. c #C0BDC040BFA6",
"#. c #C474C40CC38D",
"$. c #C878C7FAC769",
"%. c #C954C8B3C7EE",
"&. c #CAE7CA6BC9D3",
"*. c #D170D0E0D02F",
"=. c #D5E7D584D50A",
"-. c #D86CD821D7C6",
";. c #D8E4D87ED803",
":. c #DC28DBD6DB72",
">. c #E3DAE397E344",
",. c #E898E84DE7F2",
"<. c #E8D9E88FE834",
"1. c #ECFAECBBEC6D",
"2. c #F092F055F00A",
"3. c #F0CCF09AF05D",
"4. c #F3D9F3A3F361",
"5. c #F885F866F841",
"6. c #F8BCF892F85F",
"7. c #FF41FF3BFF33",
/* pixels */
"W W W W W W W W W W W W W W W W W W W W W W W W W W W W W W W W W W W W W W W W W W W W W W W W W W W Q W W W W ",
"W W W W W W W W W W W W W W W W W W W W W W W W Q W W W W W W W W W W W W W W W W W W W W W W W W W W W W W W W ",
"W W W W W W W W W W W W W W W W W W W W W W W W W W W W W W W W W W W W W W W W W W W W W W Q W W W W W W W W W ",
"W W W W W W W Q W W W W W W W Q W W W W W W W W W W W ! ! W W W W W W W W W Q W W W W W W W W W W W W W W W W W ",
"W W W W W W W W W W W W W W W W W W W W W W W W W W Q J J Q W W W W W W W W W W W W W W W W W W W W W W W W W W ",
"W W Q W W W W W W W Q W W W W W W W W W W W W W W Q T O @ E W W W W W W W W W W W W W W W W W W W W W W W W W W ",
"W W W W W W W W W W W W W W W W W W W W W W W W W Q T X O E Q W W W W W Q W W W W W W W W W W W W W W W W W W W ",
"W W W W W W W W W W W W W W W W W Q W W W W W Q T T P X O I T T Q W W W W W W W Q W W W W W W W W W W W W W Q W ",
"W W W W W W W W W W W W W W W W W W W W W W Q L X         .   . K Q W W W W W W W Q W W W W W W W W W W W W W W ",
"W W W W W W W W W W W W W W W W W W W W W E Q Y > = =     = = : I Q W W W W W W W W W W W W W W W W W W W W W W ",
"W W W W W W W W W Q W W W W W W W W W W W W W Q ! ! T X X R Q ~ Q W W W W W W W W W W W W W W W W W Q W W W W W ",
"W W W W W W W Q W W W W W W W W W W W W W W W W W W T X O T W E W W W W W W W W W W W W W W W W W W W W W W W W ",
"W W W W W W W W W W W W W W W W W W W Q W W W W E Q W O O W Q E W W W W W W W W W W W W W W W W W W W W W W W W ",
"W W W W W W W W W W W W W W W W W W W W W W W W Q Q S & = A W Q E W W W W W W W W W W W W W W W W W W W W W W W ",
"Q W W W W W W W W W W W W W W W W W W W W W W Q J -         = K ! W W W W W W W W W W W W W W W W W W W W W W W ",
"W W W W W W W W W W W E W W W W E E W W W W Q L O   x ' ` t   O P Q W W W W W E W W W W E E W W W W W W Q W W W ",
"W W W W W W W W W W ~ ^ ~ Q Q ~ ^ ~ Q E W W ! 0   { 7.7.7.7.n   q ~ E W E Q ~ ^ Q W Q ! ^ ~ W W W W W W W W W W ",
"W W W W W W W E ! Q H a 0 : : < p S Y ~ ~ Q I   2 7.6.] ' 6.4.* . Y Q ~ ! Y Z t < - - < y D Q ! W W W W W W W W ",
"W W W W W W W ~ J >                   0 S ! I   8 7.}     ] 7.g   Y W Z <                   : H ~ W W W W W W W ",
"W W W W W W ~ V     2 U O.*.-.%.} n 6     # i   2 7...    } 7.5   t #     : v [ @.&.#.| n *     B ~ W W W W W W ",
"W W W W W ~ A     N 6.7.7.7.7.7.7.7.7.%.x .   .   %.7.* $ 7.%.        l +.6.7.7.7.7.7.7.7.4.n     A ~ W W W W W ",
"W W W W Q L X   _ 7.7.6.#.( v c M ..4.7.7.=.8     v 7.v b 7.v     7 %.7.7.3.} n c v ) %.7.7.7.)   O I Q W W W W ",
"W W W W ! q   z 7.7.#.6             * ) 4.7.7.z   * 4.;.;.3.&   h 4.7.1.U $             7 =.7.7.z   e ~ W W W W ",
"W W W Q K .   #.7.&.o       .   .       6 -.7.4.8   ) 7.7./   7 4.7.%.2     .     .       $ ;.7.#.  . L Q W W W ",
"W W E ~ f   3 4.7.c   .               .   * :.7.*.  * 5.4.*   %.7.=.$   .               .   m 7.6.6   V ^ W W W ",
"W W W ^ y   h 7.7.7                     .   g 4.7.n   O.o.  b 7.1.6                         j 7.7.j   p ^ E W W ",
"W W W ^ a   k 7.7.6                       .   / 7.;.  v c   -.7.b   .                       8 7.7.z   a ^ E W W ",
"W W E ^ f   8 7.7.g                           $ >.7.j . . g 7.=..                       .   z 7.7.g   B ^ E W W ",
"W W E ~ F   * 1.7.}   .                         _ 7.]     ) 7.M                         .   o.7.4.;   H ! W W W ",
"W W W W R #   | 7.7.v   .                   .   z 7.#.    #.7.g                       .   n 7.7.o.  # E W W W W ",
"W W W E ^ a   7 4.7.7.x               . .   .   r 7.:.. . >.7.5   . .     .             n 7.6.7.8   d ^ W W W W ",
"W W W W Q Y #   z 7.7.7.c   .                   2 7.<.. . 1.4.$                       / 7.7.7.x   = T W W W W W ",
"W W W W E ~ D .   g 1.7.7.x     o 2 8 z b M ) ) { 7.,.o o 1.6.] ' / M v z 8 2 o     N 6.7.<.h   . F ~ W W W W W ",
"W W W W W W ~ S .   * #.7.4.) o.,.6.7.7.7.7.7.7.7.7.4.o o 4.7.7.7.7.7.7.7.7.6.>.X.) 5.5.@.*   o F ~ W W W W W W ",
"W W W W W W E ^ J O   . ] 7.7.7.7.7.4.;.#.| [ ) / / n . o N ) ) [ } O.&.:.6.7.7.7.7.7.[     @ K ^ E W W W W W W ",
"W W W W W W W E ~ I >     n O.M z 7 $                                   o 2 8 x / #.G o   < Y ! E W W Q W W W W ",
"W W W W W W W Q E Q ~ d                 .                                               d ^ Q W W W W W W W W Q ",
"Q W W W W W W W W E Q Y     .               o $ * 2 6 6 6 6 4 2 * + .                   Y Q R W W W W W W W W W ",
"W W W W W W W W W W W T #     o 7 c ) | #.;.,.4.5.6.7.7.7.7.6.4.3.1.;.%.X.' v 8 $     # R W W W W W W W W W W W ",
"W W W W W W W W W W W ! <   l 4.7.7.7.7.7.7.7.7.7.7.7.7.7.7.7.7.7.7.7.7.7.7.7.7.6.x   , ! W W W W W W W W W W W ",
"W W W W W W W W W W W ~ y   j 7.7.7.7.7.4.,.-.%.#.o.X...| X.o.+.$.=.>.4.7.7.7.6.7.z   t ~ E W W W W W W W W W W ",
"W W W Q W W W W W W E ^ V   4 ;.| N z 7 * o                         . * 7 l n } ;.6   f ^ E W W Q W W W W W W W ",
"W W W W W W W W W W W ~ u   . .               . o $ & * * & $ $ o               . .   y ~ W W W W W W W W W W W ",
"W W W W W W W W W W W Q :     o 8 z / [ O.%.-.>.1.1.3.3.3.3.1.,.:.-.#.o.[ / x 8 $     - Q W W W W W W W W W W W ",
"W W W W W W W W W W Q I X   x 6.6.7.7.7.7.7.7.7.7.7.7.7.7.7.7.7.7.7.7.7.7.7.7.6.6.v   . L Q W W W W W W W W W W ",
"W W W W W W W W W E ~ Z     | 7.7.7.7.7.7.6.1.1.:.;.-.-.=.-.;.>.1.4.7.7.7.7.7.7.7.o.    C ~ W W W W W W W W W W ",
"W W W W W W W W W E ^ e   $ 1.4.+.] n k 7 2 $ o .             X o * 6 8 z M { #.4.1.%   e ^ E W W W W W Q W W W ",
"W W W W W W W W W Q T #   & g o                                                 o g $   = T W W W W W W W W W W ",
"W Q W W W W W W W W T =           . .   .                             .   . .           @ Y Q W W W W W W W W W ",
"W W W W W W W W W W Q T B , X                             .                       . : d Y Q W W W W W W W W W W ",
"W W W W W Q W W W W W Q ~ Q Y D d w > # X                             X # > q a S I Q ^ Q W W W W W W W W W W W ",
"W W W W W W W W W W W W E W Q ~ ^ ^ ! W Y L J F S A C C C Z Z S D J K Y E Q ^ ^ ~ Q W W W W W W W W W W W W W W ",
"Q W W W W W W W W W W W W W W W E E W W Q Q ~ ~ ~ ~ ~ ~ ~ ~ ~ ~ ~ ! Q Q W W E E W W W W W W W W W W W W W W W W ",
"W W W W W W W W W W W W W W W W W W W W W W W E E W E W W E W W E W W W W W W W W W W W W W W W W W W W W W W W ",
"W W W W W W W W W W W W W W W W W W W W W W W W W W W W W W W W W W W W W W W W W W W W W W W W W W W W W W W W ",
"W W W W W W W W W W W W W W W W W W W W W W W W W W W W W W W W W W W W W W W W W W W W W W W W W W W Q W W W W "
};
