/* XPM */
static char *kdd__[] = {
/* columns rows colors chars-per-pixel */
"52 52 116 2",
"   c #00DE00CF00C1",
".  c #099D066C031C",
"X  c #0A0B083A062F",
"o  c #043E065F0926",
"O  c #06B209B20D5D",
"+  c #0B840B650B46",
"@  c #110E0C45069B",
"#  c #12150E5A09D3",
"$  c #15CB107A0A01",
"%  c #1AFE13600A34",
"&  c #147414561432",
"*  c #17D4179D1759",
"=  c #1C481C2C1C0E",
"-  c #248E1AB80EB8",
";  c #2C941F3B0EC0",
":  c #25981C09105F",
">  c #2AB71EEC1087",
",  c #1FDE1E991D0D",
"<  c #2FFA213F0F00",
"1  c #2E2621C712AD",
"2  c #337424F6134D",
"3  c #3718284B162E",
"4  c #3BFE2AEE161B",
"5  c #3CA32C471842",
"6  c #239C236B232E",
"7  c #2D3B2D422D49",
"8  c #30002FBB2F66",
"9  c #344E33EB3373",
"0  c #39D438A83742",
"q  c #3AE73A943A2E",
"w  c #41512F4C194F",
"e  c #44FC32041AE2",
"r  c #4AC6366E1D9A",
"t  c #4CDF38671F79",
"y  c #4F5A3A7620F7",
"u  c #52733BC12010",
"i  c #3FEC3F903F20",
"p  c #5BAE4248234B",
"a  c #65314A0328DF",
"s  c #6B524DC629B7",
"d  c #6F4351742CFE",
"f  c #747C54AB2DD3",
"g  c #7B2059072F69",
"h  c #7D615B093124",
"j  c #435A42DD4245",
"k  c #4863472B45AD",
"l  c #4C544BED4B71",
"z  c #50C54F7F4DF1",
"x  c #55AF5526547F",
"c  c #59155838572B",
"v  c #5BFA5B795ADC",
"b  c #657864DA6418",
"n  c #6C656BD76B2C",
"m  c #71296F686D48",
"M  c #70D270656FE0",
"N  c #76797609757E",
"B  c #7BD77B497AA2",
"V  c #81265DE932E8",
"C  c #854D60C9343D",
"Z  c #8A6A645735E2",
"A  c #900A68243773",
"S  c #8DDB673E3820",
"D  c #92D96A75392B",
"F  c #989B6EFA3C2D",
"G  c #9DA172413D51",
"H  c #A11174993E53",
"J  c #A36A76F140AB",
"K  c #A60578DE41C3",
"L  c #AB5B7C03423C",
"P  c #B62683B14620",
"I  c #B859854946F8",
"U  c #BDFD895D4922",
"Y  c #80A780447FCB",
"T  c #C3848DA24BE0",
"R  c #C72F90704D9D",
"E  c #CB5C933C4EC0",
"W  c #CE8795A35035",
"Q  c #D1EF97D050E3",
"!  c #D5A79A795241",
"~  c #DA349DC8540A",
"^  c #DF05A14B55F8",
"/  c #E250A39F571F",
"(  c #E550A5CF5851",
")  c #85C18530847F",
"_  c #8A31890A87A3",
"`  c #8D968CCE8BDA",
"'  c #907E8F508DDF",
"]  c #95A49518946F",
"[  c #9D059C809BDF",
"{  c #A5C6A545A4A7",
"}  c #A856A7FBA78B",
"|  c #ABF5AB81AAF2",
" . c #B1A6B09BAF54",
".. c #B3DAB374B2F8",
"X. c #B8EBB7DEB691",
"o. c #B935B89DB7E5",
"O. c #BD53BCDEBC50",
"+. c #C07DC00ABF7E",
"@. c #C0B8C04DBFCB",
"#. c #C4ECC470C3D8",
"$. c #C84BC7EFC77E",
"%. c #CC9ACC40CBD1",
"&. c #D051CF2ACDC2",
"*. c #D11CD0BAD043",
"=. c #D425D3D9D37C",
"-. c #D8AFD872D828",
";. c #DCA6DC5DDC03",
":. c #E0CBE08BE03D",
">. c #E554E4FCE490",
",. c #E98DE8ABE797",
"<. c #EC6DEC2EEBE2",
"1. c #F08AF057F018",
"2. c #F16DF0EFF055",
"3. c #F598F556F505",
"4. c #F8D3F8A7F872",
"5. c #FF3CFF36FF2D",
/* pixels */
"! ! ! ! ! ! ! ! ! ! ! ! ! ! ! ! ! ! ! ! ! ! ! ! ! ! ! ! ! ! ! ! ! ! ! ! ! ! ! ! ! ! ! ! ! ! ! ! ! ! ! ! ",
"! ! ! ! ! ! ~ ! ! ! ! ! ! ! ! ! ! ! ! ! ! ! ! ! ! ! ! ! ! ! ! ! ! ~ ! ! ! ! ! ! ~ ! ! ! ! ! ! ! ! ! ! ! ",
"! ! ! ! ! ! ! ! ! ! ! ! ! ! ! ! ! ! ! ! ! ! ! ! ! Q ! ! ! ! ! ! ! ! ! ! ! ! ! ! ! ! ! ! ! ! ! ! ~ ! ! ! ",
"! ! ! ! ! ! ! ! ! ! ! ~ ! ! ~ ! ! ! ! ! ! ! ! ! ! ( ( Q ! ! ! ! ! ! ! ! ! ! ! ! ! ! ! ! ! ! ! ! ! ! ! ! ",
"! ! ! ! ! ! ! ! ! ! ! ! ! ! ~ ! ! ! ! ! ! ! ! ! ~ f f ^ ! ! ! ! ! ! ! ! ! ! ! ! ~ ! ! ! ! ! ! ! ! ! ! ! ",
"! ! ! ! ! ! ! ! ! ! ! ! ! ! ! ! ! ~ ! ! ! ! Q ! Q # $ Q ! Q ! ! ! ! ! ! ! ! ! ! ! ! ! ! ! ! ! ! ! ! ! ! ",
"! ! ! ! ! ! ! ! ! ! ! ! ! ! ! ! ! ! ! ! ! ! ( ( / $ % ( ( / ! ! ! ! ! ! ! ! ! ! ! ! ! ! ! ! ! ! ! ~ ! ! ",
"! ! ~ ! ! ! ! ! ! ! ! ! ! ! ! ! ! ! ! ! ! ~ h u p . . p u h ~ ! ! ! ! ! ! ~ ! ! ! ! ! ! ! ! ! ~ ! ! ! ! ",
"! ! ! ! ! ! ! ! ! ! ! ! ! ! ! ! ! ! ! ! ! ~ >             - ! ! ! ! ! ! ! ! ! ! ! ! ! ! ! ! ! ! ! ! ! ! ",
"! ! ! ! ! ! ! ! ! ! ! ! ! ! ! ! ! ! ! ! ! ! R I P @ # P I R ! ! ! ! ! ! ! ! ! ! ! ! ! ! ! ! ! ! ! ! ! ! ",
"! ! ! ! ! ~ ! ! ! ! ! ! ! ! ! ! ! ! ! ! ! ! ~ ^ ! $ $ ~ / ~ ! ! ! ! ! ! ! ! ! ! ! ! ! ~ ! ! ! ! ! ! ! ! ",
"! ! ! ~ ! ! ! ! ! ! ! ! ! ! ! ! ! ! ! ! ! ! Q ! ~ $ % ~ Q ! ! ! ! ! ! ! ~ ! ! ! ! ! ! ! ! ! ! ! ! ! ! ! ",
"! ! ! ! ! ! ! ! ~ ! ! ! ! ! ! ! ! ! ! ! ! Q ~ ^ J - : H ~ ~ ! ! ! ! ! ! ! ! ! ! ! ! ! ! ! ! ! ! ! ! ! ! ",
"! ! ! ! ! ! ! ! ! ! ! ! ! ! ! ! ! ! ~ ! ! ~ R 3         3 R ~ Q ! ! ! ! ! ! ! Q ! ! ! ! ~ ! ! ! ! ! ! ! ",
"! ! ! ! ~ ! ! ! ! Q ! ! ~ ~ ~ Q Q ! ! ! ! Q ;   n | } z   1 ! ! ! ! Q Q ! ! ~ ~ ~ Q Q ! ! ! ! ! ! ~ ! ! ",
"! ! ! ! ! ! ! Q ! ( / Q R T Q ^ ( / ! E / h   ] 5.5.5.5.m   V / W ! / ( ^ W T T W ^ ( ~ Q ! ! ! ! ! ! ! ",
"! ! ! ! ! ! Q / Q C 5 .     . 1 a K ~ ( ( 3   ,.3.v x 3.>.  5 ( / ! J a ; .     . 3 h E / Q ! ! ! ! ! ! ",
"! ! ! ! ! ! / H %     = 0 q 7 +     % f R 2 O 5.O.     .5.O 2 E f $     o , 8 7 &     % G / Q ! ! ! ! ! ",
"! ! ! ! Q / A     b %.5.5.5.5.4.$.N =   @ $   %.,.o o ,.%.  $ @   & b O.3.5.5.5.3.#.c     D ( Q ! ! ! ! ",
"! ! ! Q / L   o | 5.5.5.1.=.=.2.5.5.4.[ =     n 5.j j 5.n     & ' 3.5.5.<.=.;.3.5.5.5.{   X L ^ ! ! ! ! ",
"! ! ! ! ! 1   ] 5.5.} p &     + 0 [ 4.5.1.k   = 5.....4.=   q ,.5.3.] 9 X     & k ..5.5.]   2 ! ! ! ! ! ",
"! ! ! ( S   0 5.5.N o o             7 #.5.4.q   ] 5.4.]   9 3.5.o.6                 ) 5.5.0   D ( Q ! ! ",
"! ! ! / r   _ 5.#.  o           .     o O.5.;.X 6 4.3.6 o =.5.}     o           o   o =.5.`   y ( Q ! ! ",
"! ! ! ! :   ..5.`   o               o   & ;.5.)   +.@.O J 5.%.X                       [ 5.X.  > ! ! ! ! ",
"! ! ! ! ;   +.5.B                         l 5.<.o b b   ,.5.0                         ` 5.#.  - ! ! ! ! ",
"! ! ! ~ 3    .5.]   o                       | 5.b o o c 5.[                       o   } 5.X.  5 ^ ! ! ! ",
"! ! Q ( a   ) 5.>.&                     o   z 5. .    | 5.0                         6 <.5.`   a ( Q ! ! ",
"! ! Q / G   9 5.5...o                       6 5.;.    >.3.&                       X @.5.5.q   H / Q ! ! ",
"! ! ! ! ! 1   ` 5.5.|         o   o         + <.3.+ X 5.;.          o . o       + O.5.5.[   3 ~ ! ! ! ! ",
"! ! ! Q ^ H     { 5.5.| o                   o ;.5.+ & 5.%.                    & %.5.5.}     K / ! ! ! ! ",
"! ! ! ! Q ( h     B 5.5.{   7 x B [  .#.=.;.;.5.5.& & 5.5.;.;.%.#.| ] B x 6 o O.5.5.B     C ( Q ! ! ! ! ",
"! ! ! ! ! Q ( V     k ,.5.>.5.5.5.5.5.5.5.5.5.5.,.& & 2.5.5.5.5.5.5.5.5.5.5.>.5.,.j   . Z ( Q ! ! ! ! ! ",
"! ! ! ! ~ ! Q ( G @   1 %.5.>.+.[ N x j 9 6 = = &     = = 6 9 0 l b ) } %.<.5.=.6   $ H ( Q ! ! ! ! ! ! ",
"! ! ! ! ! ! ! Q / U e   & 7 O                                             $ 0 =   y T / Q ! ! ! ~ ! ! ! ",
"! ! ~ ! ! ! ! ! Q / E @                                                         + Q ^ Q ! ! ! ! ! ! ! ! ",
"! ! ! ! ! ! ! ! ! Q ~ 1       & 9 x N ] } ..#.#.%.&.=.%.%.#.X.| ] B v 0 &       ; ! Q ! ! ! ! ! ! ! ! ! ",
"! ! ! ! ! ~ ! ! ! Q / y   k %.,.5.5.5.5.5.5.5.5.5.5.5.5.5.5.5.5.5.5.5.5.<.=.x   t / Q ! ! ! ! ! ! ! ! ! ",
"! ! ! ! ! ! ! ! ! Q ( f   v 5.5.5.5.5.3.,.;.=.%.%.#.#.#.%.=.;.>.3.5.5.5.5.5.b   f ( Q ! ! ! ! ! ! ! ! ! ",
"! ! ! ! ! ! ! ! ! Q / F   9 ;.| B x 0 , + o                   + = 9 l N { ;.0   D / ! ! ! ! ! ! ! ! ! ! ",
"! ! ! ! ! ! ! ! ! Q ( g   .             o + & 6 6 6 6 6 = = + o                 f ( Q ! ! ~ ! ! ! ! ! ~ ",
"! ! ! ! ! ! ! ! ! ! / w   . 7 v ) } O.=.;.,.<.3.5.3.5.3.3.3.,.>.=.O.} ) v 9 X   w / Q ! ! ! ! ! ! ! ! ! ",
"! ! ! ! ! ~ ! ! ! ~ E $   B 5.5.5.5.5.5.5.5.5.5.5.5.5.5.5.5.5.5.5.5.5.5.5.5.)   # E ~ ! ! ! ! ! ! ! ! ! ",
"! ! ! ! ! ! ! ! Q / G     #.5.5.5.3.>.=.#. .} [ ] ] ] ] [ } ..#.=.,.5.5.5.5.%.    G / Q ! ! ! ! ! ! ! ! ",
"! ! ! ! ! ! ! ! Q ( s   = %.[ b q = X                             & 6 j n [ %.,   s ( Q ! ! ! ! ! ! ! ! ",
"! ! ! ! ! ! ! ! ! ~ 2   . o                   .     o . .                   o X   1 ~ ! ! ! ! ! ! ! ! ! ",
"! ~ ! ! ! ! ! ! ! ~ D -                   .       .         o     .             % C ~ ! ! ! ! ! ! ! ! ! ",
"! ! ! ! ! ! ! ! ! ! / ~ L f e % .                                     . $ 5 s H ! / ! ! ! ! ! ! ~ ! ! ! ",
"! ! ! ! ! ! ! ! ! ! Q ! ^ ( / ! T L D h d p u r e e e e r u p s g A J U Q / ( / ! Q ! ! ! ! ~ ! ! ! ! ! ",
"! ! ! ! ! ! ! ! ! ! ! ! ! Q ! ! ~ / ( ( ( ( ( / / / / / / ( ( ( ( / / ~ ! ! Q Q ! ! ! ! ! ! ! ! ! ! ! ! ",
"! ! ! ~ ! ! ! ! ! ! ! ! ! ! ! ! ! Q Q Q Q Q Q Q Q ! ! Q Q Q ! Q Q Q Q ! ! ! ! ! ! ! ! ! ! ! ! ~ ! ! ! ! ",
"! ! ! ! ! ! ! ! ! ! ! ! ! ! ! ! ! ! ! ! ! ! ! ! ! ! ! ! ! ! ! ! ! ! ! ! ! ! ! ! ! ! ! ! ! ! ! ! ! ! ! ! ",
"! ! ! ! ! ! ! ! ~ ! ! ! ! ! ! ! ! ! ! ! ! ! ! ! ! ! ! ! ! ! ! ! ! ! ! ! ! ! ! ! ! ! ! ~ ! ! ! ! ! ! ! ! "
};
