/* XPM */
static char *kdd__[] = {
/* columns rows colors chars-per-pixel */
"60 60 120 2",
"   c #00EF00DD00C9",
".  c #0886067103EE",
"X  c #0CA209470534",
"o  c #0B750B1B0AAE",
"O  c #10540BDB0665",
"+  c #12660DE7086E",
"@  c #162110680973",
"#  c #1CB515270BF0",
"$  c #13D1137C1313",
"%  c #186117171584",
"&  c #1B151AA31A18",
"*  c #2266190C0DA8",
"=  c #249B1B8A1078",
"-  c #2A471F15116D",
";  c #1FBE1F711F12",
":  c #2D2F214012B0",
">  c #3239248A13D9",
",  c #399429D3169C",
"<  c #3EAE2D73186C",
"1  c #237F22F12243",
"2  c #2C6A2C0B2B97",
"3  c #303C2FDC2F67",
"4  c #345C33EC3363",
"5  c #382C37603665",
"6  c #383837D53759",
"7  c #3BB33B243A76",
"8  c #40F62EF71902",
"9  c #46E833CE1C7E",
"0  c #4A83364A1D9E",
"q  c #4E4F38FE1EF9",
"w  c #50FC3A921F36",
"e  c #54DC3DBE2188",
"r  c #58113FB021F0",
"t  c #3FDC3F823F14",
"y  c #5C49436E2519",
"u  c #618847AD2820",
"i  c #66CE4B1E2953",
"p  c #6AC34D8529D5",
"a  c #6EDA50D22C2C",
"s  c #749E54A62DA4",
"d  c #7A8658982F31",
"f  c #7DC25AED306A",
"g  c #434242A841EC",
"h  c #4882473E45B4",
"j  c #4BCA4B484AAB",
"k  c #50034FA54F33",
"l  c #50AE50464FC7",
"z  c #55D15522544C",
"x  c #581757A6571C",
"c  c #590C585F578E",
"v  c #5BD65B515AAE",
"b  c #5FF65F955F20",
"n  c #604B5FE35F64",
"m  c #63B0631A6263",
"M  c #683D66D76522",
"N  c #6CCD6C2F6B6E",
"B  c #70FE701E6F0D",
"V  c #74D67410731E",
"C  c #7A04790C77E0",
"Z  c #7C4C7BD87B49",
"A  c #825A5E3C3227",
"S  c #85F061293447",
"D  c #8ACD64CF3671",
"F  c #93B36B4F3A06",
"G  c #994E6EE83B29",
"H  c #9CC4717D3CAC",
"J  c #A27F758C3EB0",
"K  c #A73B7902409A",
"L  c #ABD67C4E424E",
"P  c #80397ED57D22",
"I  c #B547833B4628",
"U  c #B96C86114766",
"Y  c #BABF870547E5",
"T  c #BDAB8925490C",
"R  c #80BD80337F8A",
"E  c #C3F28DAD4B73",
"W  c #C81290A74D06",
"Q  c #CC3793A84EA1",
"!  c #D03D968F502B",
"~  c #D1B597A050BE",
"^  c #D5AE9A7E5243",
"/  c #DA6E9DED5417",
"(  c #DF35A16155EF",
")  c #E278A3BD572E",
"_  c #E4D9A575581A",
"`  c #EA73A9825A42",
"'  c #F1FCAEF65D2C",
"]  c #8426834A823F",
"[  c #8C1B8B8C8AD9",
"{  c #907B90008F6A",
"}  c #90F790838FF6",
"|  c #952D949993E3",
" . c #9C579BE59B5B",
".. c #A0399FA19EE8",
"X. c #A115A0A0A011",
"o. c #A4DFA445A388",
"O. c #A870A7F7A763",
"+. c #A8CCA85BA7D3",
"@. c #AC15AB8CAAE7",
"#. c #B4C5B45DB3DD",
"$. c #B854B7D6B73E",
"%. c #B8F9B889B801",
"&. c #BE1DBDACBD21",
"*. c #C082C019BF9B",
"=. c #C107C0AAC038",
"-. c #C58AC522C4A2",
";. c #C90FC88CC7EB",
":. c #CD3BCCDFCC6F",
">. c #D141D060CF4E",
",. c #D4D4D471D3F8",
"<. c #DC77DC24DBC0",
"1. c #E078E02FDFD4",
"2. c #E51AE4D2E47A",
"3. c #E877E848E80F",
"4. c #ED9EED5AED07",
"5. c #F083F048F002",
"6. c #F0E6F0A8F05D",
"7. c #F49DF465F421",
"8. c #F896F85CF814",
"9. c #FF9BFF99FF95",
/* pixels */
"^ ^ ^ ^ ^ ^ ^ ^ ^ ^ ^ ^ ^ ^ ^ ^ ^ ^ ^ ^ ^ ^ ^ ^ ^ ^ ^ ^ ^ ^ ^ ^ ^ ^ ^ ^ ^ ^ ^ ^ ^ ^ ^ ^ ^ ^ / ^ ^ ^ ^ ^ ^ ^ ^ ^ ^ ^ ^ ^ ",
"^ ^ ^ ^ ^ ^ ^ ^ ^ ^ ^ ^ ^ ^ ^ ^ ^ ^ ^ ^ ^ / ^ ^ ^ ^ ^ ^ ^ ^ ^ / ^ ^ ^ ^ ^ ^ / ^ ^ ^ ^ ^ ^ ^ ^ ^ ^ ^ ^ ^ ^ ^ ^ ^ ^ / ^ ^ ",
"^ ^ ^ ^ ^ ^ ^ ^ ^ ^ ^ ^ ^ ^ ^ ^ ^ ^ ^ ^ ^ ^ ^ ^ ^ ^ ^ ^ ^ ^ ^ ^ ^ ^ ^ ^ ^ ^ ^ ^ ^ ^ ^ ^ ^ ^ ^ ^ ^ ^ ^ ^ ^ ^ ^ ^ ^ ^ ^ ^ ",
"^ ^ ^ ^ ^ ^ ^ ^ ^ ^ ^ ^ ^ ^ ^ / ^ ^ ^ ^ ^ ^ ^ ^ ^ ^ ^ ^ ^ ^ ^ ^ ^ ^ ^ ^ ^ ^ ^ ^ ^ ^ ^ ^ ^ ^ ^ ^ ^ ^ ^ ^ ^ ^ / ^ ^ ^ ^ ^ ",
"^ ^ ^ ^ / ^ ^ ^ ^ / ^ ^ ^ ^ ^ ^ ^ ^ ^ ^ ^ ^ ^ ^ ^ ^ ^ ^ / ^ ^ ^ ^ ^ ^ ^ ^ ^ ^ ^ ^ ^ ^ ^ ^ ^ ^ ^ ^ ^ ^ ^ ^ ^ ^ ^ ^ ^ ^ ^ ",
"^ ^ ^ ^ ^ ^ ^ ^ ^ ^ ^ ^ ^ ^ ^ ^ ^ ^ ^ ^ ^ ^ ^ ^ ^ ^ ^ ^ ~ : > ~ ^ ^ ^ ^ ^ ^ ^ ^ ^ ^ ^ / ^ ^ ^ ^ / ^ ^ ^ ^ ^ ^ ^ ^ ^ ^ ^ ",
"^ ^ ^ ^ ^ ^ ^ ^ ^ ^ ^ ^ ^ ^ ^ ^ ^ ^ ^ ^ ^ ^ ^ ^ ^ ^ ~ / T   . E ^ ^ ^ ^ ^ ^ ^ ^ ^ ^ ^ ^ ^ ^ ^ ^ ^ ^ ^ ^ ^ ^ ^ ^ ^ ^ ^ ^ ",
"/ ^ ^ ^ ^ ^ ^ ^ ^ ^ ^ ^ ^ ^ ^ ^ ^ ^ ^ / ^ ^ ^ ^ ^ / _ ` Q . X ~ ` _ / ^ ^ ^ ^ ^ ^ ^ ^ ^ ^ ^ ^ ^ ^ ^ ^ ^ ^ ^ ^ ^ ^ ^ ^ ^ ",
"^ ^ ^ ^ ^ ^ ^ ^ ^ ^ ^ ^ ^ ^ / ^ ^ ^ ^ ^ ^ ^ ^ ^ / E d A a   . s d d E / ^ ^ ^ ^ ^ ^ ^ ^ ^ ^ ^ ^ ^ ^ ^ ^ ^ ^ ^ ^ ^ ^ ^ ^ ",
"^ ^ ^ ^ ^ ^ ^ / ^ ^ ^ ^ ^ ^ ^ ^ ^ ^ ^ ^ ^ ^ ^ ~ _ s             .   p _ ~ ^ ^ ^ ^ ^ ^ ^ ^ ^ / ^ ^ ^ ^ ^ / ^ ^ ^ ^ ^ ^ ^ ",
"^ ^ ^ ^ ^ ^ ^ ^ ^ ^ ^ ^ ^ ^ ^ ^ ^ ^ ^ ^ ^ ^ ^ ^ / U p p u     y i i I / ^ ^ ^ ^ ^ ^ ^ ^ ^ ^ ^ ^ ^ ^ ^ ^ ^ ^ ^ ^ ^ ^ ^ ^ ",
"^ ^ ^ ^ ^ ^ ^ ^ ^ ^ ^ ^ ^ ^ ^ ^ ^ ^ ^ ^ / ^ ^ ^ ^ / ) ` ~   . Q ` _ / ^ ^ ^ ^ ^ ^ ^ ^ ^ ^ ^ ^ ^ ^ ^ ^ ^ ^ ^ ^ ^ ^ ^ ^ ^ ",
"^ ^ / ^ ^ ^ ^ ^ ^ ^ ^ ^ ^ ^ ^ ^ ^ ^ ^ ^ ^ ^ ^ ^ ^ ^ ~ ^ U   . T ^ ~ ^ ^ ^ ^ ^ ^ ^ ^ ^ ^ ^ ^ ^ ^ ^ ^ ^ ^ ^ ^ ^ ^ ^ ^ ^ ^ ",
"^ ^ ^ ^ ^ ^ ^ ^ ^ ^ / ^ ^ ^ ^ ^ ^ ^ ^ ^ ^ ^ ^ ^ ^ ^ ~ / Q . X ~ ( ~ ^ ^ ^ ^ ^ ^ ^ ^ / ^ ^ ^ ^ ^ ^ ^ ^ ^ ^ ^ ^ ^ ^ ^ ^ ^ ",
"^ ^ ^ ^ ^ ^ ^ ^ ^ ^ ^ ^ ^ ^ ^ ^ / ^ ^ ^ ^ ^ ^ ^ ^ ^ ) ! D # * A Q ) ~ ^ ^ ^ ^ ^ ^ ^ ^ ^ ^ ^ ^ ^ ^ ^ ^ ^ ^ ^ ^ ^ ^ ^ ^ ^ ",
"^ ^ ^ ^ ^ ^ ^ ^ ^ ^ ^ ^ ^ ^ ^ ^ ^ ^ ^ ^ ^ ^ ^ ^ ~ ) G @         @ G ) ^ ^ ^ ^ ^ ^ ^ ^ ^ ^ ^ ^ ^ ^ ^ ^ / ^ ^ ^ ^ ^ ^ / ^ ",
"^ ^ ^ ^ ^ ^ ^ ^ ^ ^ ^ ~ ~ ~ ~ ^ ~ ~ ^ ^ ^ ^ ^ ~ ( G     j C V 4     G ) ~ ^ ^ ^ ^ ^ ~ ~ ~ ~ ~ ~ ~ ^ ^ ^ ^ ^ ^ ^ ^ ^ ^ ^ ",
"^ ^ ^ ^ ^ ^ ^ ^ ^ ~ ~ / _ _ _ _ _ _ / ^ ~ ^ ^ / ! %   @.9.9.9.9.V   * Q ^ ^ ~ ~ ^ ( _ _ ) ) _ _ / ^ ^ ^ ^ ^ ^ ^ ^ ^ ^ ^ ",
"^ ^ ^ ^ ^ ^ ^ ^ ~ ( ) E F s u y a F U ^ _ ( ~ ( D   h 9.9.:.:.9.9.5   F ) ~ ( _ ~ I D i y y i D T ) / ~ / ^ ^ ^ ^ ^ ^ ^ ",
"^ ^ ^ ^ ^ ^ ^ ~ _ U e X               * i I / ' a   V 9.@.    ..9.C   s ' / L i *               . 9 I _ ~ ^ ^ ^ ^ ^ ^ ^ ",
"^ ^ ^ ^ ^ ^ ~ ) S .     2 m P ] V z 1       > H i   N 9.]     V 9.V   a F :       & h M V B z 1     . A ) ~ ^ ^ / ^ ^ ^ ",
"^ ^ / ^ ^ ~ _ f     g ;.9.9.9.9.9.9.8.,.] 1     +   2 9.:.    ;.9.2   o     & V -.8.9.9.9.9.9.8.&.6     d _ ~ ^ ^ ^ ^ ^ ",
"^ ^ ^ ^ ~ ) H     V 9.9.9.9.8.<.<.3.9.9.9.8.o.:       ;.9.4 3 9.;.      % | 5.9.9.9.3.<.2.8.9.9.9.9.N     H ) ~ ^ ^ ^ ^ ",
"^ ^ ^ ^ / Q #   v 9.9.8.@.j & o . $ 4 Z 2.9.9.7.c     M 9.| | 9.M     j 4.9.9.<.V 2 o . o & x $.9.9.9.c   * Q / ^ ^ ^ ^ ",
"^ ^ ^ ~ _ a   % 2.9.4.g                 o ] 8.9.9.v   $ 3.7.7.2.$   j 9.9.4.V .                 x 8.9.3.$   s _ ~ ^ ^ ^ ",
"^ ^ ^ ^ ~ =   N 9.9.m   .                   6 4.9.8.4   ] 9.9.C   2 4.9.2.2                   .   V 9.9.N   : ^ ^ ^ ^ ^ ",
"^ ^ ~ ( I     O.9.3.$                     .   g 8.9.-.  $ 7.6.&   &.9.4.2   .                     ; 7.9.@.  . I / ^ ^ ^ ",
"^ ^ ^ ) H     -.9.:.                        .   V 9.9.v   $.#.  x 9.9.c   .                       . <.9.:.    K ) ^ ^ ^ ",
"^ ^ ~ ) K     :.9.-.                              &.9.;.  M m   &.9.+.                            . ,.9.:.    K ) ~ ^ ^ ",
"^ ^ ^ / U .   $.9.<.o                             g 9.9.4 . . 2 9.9.2                             $ 4.9.&.  . T / ^ ^ ^ ",
"^ ^ ^ ^ ~ =   [ 9.9.x   .                           :.9.Z     V 9.$.                          .   N 9.9.|   = ^ ^ ^ ^ ^ ",
"^ ^ ^ ~ ) r   7 9.9.3.1                              .9.@.    @.9.Z                             4 4.9.9.h   y _ ~ ^ ^ ^ ",
"^ ^ ^ ^ ) J     @.9.9.<.&                       o   C 9.;.    :.9.v   .                   .   2 3.9.9.&.    K ) ~ ^ ^ ^ ",
"^ ^ ^ ^ ~ ( 9   $ ,.9.9.<.&   .   .                 c 9.,.    <.9.t                 .       6 4.9.9.,.&   q ) ^ ^ ^ ^ ^ ",
"^ ^ ^ ^ ^ / E #   $ ;.9.9.<.;           o & 2 4 g 7 ] 9.<.  . <.9.B t g 4 2 & o       .   6 7.9.9.;.%   # Q / ~ ^ ^ ^ ^ ",
"^ ^ ^ ^ ^ ~ ( L O   . | 9.9.>.2 c [ $.,.3.7.9.9.9.9.9.9.2.. . 2.9.9.9.9.9.8.7.2.:.$.[ j 4 2.9.9.[ .   @ I ( ~ ^ ^ ^ ^ ^ ",
"^ ^ ^ ^ ^ ^ ~ ) I #     v 8.9.8.9.9.9.9.9.9.9.9.8.6.3.4.:.. . ,.7.5.8.9.9.9.9.9.9.9.9.9.8.9.8.c     * T ) ^ ^ ^ ^ ^ ^ ^ ",
"^ ^ ^ ^ ^ ^ ^ ~ ( Q >     4 3.9.7.,.#.[ N z 7 2 ; % $ o o     o $ % & 2 4 h m Z  .=.1.8.9.3.7     , Q ( ~ ^ ^ ^ ^ ^ ^ ^ ",
"^ ^ ^ ^ ^ ^ ^ ^ ~ / / i X   1 j &                           .                       o 1 c 2   o s / / ~ ^ ^ ^ ^ ^ ^ ^ ^ ",
"^ ^ ^ ^ / ^ ^ ^ ^ ^ ^ ` A           . .                                         . .           A ' ~ ^ ^ ^ ^ ^ ^ ^ ^ / ^ ",
"^ ^ ^ ^ ^ ^ ^ ^ ^ ^ ~ / L                 $ 1 7 j x v N N V V N N m c j 7 2 & .               L / ~ ^ ^ ^ ^ ^ ^ ^ ^ ^ ^ ",
"^ ^ ^ ^ / ^ ^ ^ ^ ^ ^ / Q O   . 2 m | &.<.4.8.9.9.9.9.9.9.9.9.9.9.9.9.9.9.9.7.<.-. .N 4 o   X E / ^ ^ ^ ^ ^ ^ ^ ^ ^ ^ ^ ",
"^ ^ ^ ^ ^ ^ ^ ^ ^ ^ ^ ^ ^ :   z 9.9.9.9.9.9.9.9.9.9.9.9.9.9.9.9.9.9.9.9.9.9.9.9.9.9.9.9.m   : ^ ^ ^ ^ ^ ^ ^ ^ ^ ^ ^ ^ ^ ",
"^ ^ ^ ^ ^ ^ ^ ^ ^ ^ ^ ~ ) q   7 9.9.9.9.9.7.2.,.-.#.@.o. . . . .o.O.#.*.:.<.7.9.9.9.9.9.g   9 ) ^ ^ ^ ^ / ^ ^ ^ ^ ^ ^ ^ ",
"^ ^ ^ ^ ^ ^ ^ ^ ^ ^ ^ ~ _ s   & ,.#.Z x 4 & o                             o $ 2 j V O.,.1   i _ ~ ^ ^ ^ ^ ^ ^ ^ ^ ^ ^ ^ ",
"^ ^ ^ ^ ^ ^ ^ ^ / ^ ^ ~ _ w   . .                   o o $ o $ o o o                   . .   q ) ~ ^ ^ ^ ^ ^ ^ ^ ^ ^ ^ ^ ",
"^ ^ ^ ^ ^ ^ ^ ^ ^ ^ ^ ^ ~ #       & 7 c C | @.&.:.,.<.2.3.3.3.3.3.<.,.:.&.@.| C v 7 &       # Q ^ ^ ^ ^ ^ ^ ^ ^ ^ ^ / ^ ",
"^ ^ ^ / ^ ^ ^ ^ ^ ^ ~ ( L     g ,.4.9.9.9.9.9.9.9.9.9.9.9.9.9.9.9.9.9.9.9.9.9.9.9.9.5.<.j     K ) ^ ^ ^ ^ ^ ^ ^ ^ ^ ^ ^ ",
"^ ^ ^ ^ ^ ^ ^ ^ ^ ^ ~ _ s      .9.8.9.9.9.9.9.9.9.9.9.9.9.9.9.9.9.9.9.9.9.9.9.9.9.9.9.9.X.    s ) ~ ^ ^ ^ ^ ^ ^ ^ ^ ^ ^ ",
"^ ^ ^ ^ ^ ^ ^ ^ ^ ^ ~ ) 8   . <.9.9.3.;.@.[ V c j 7 4 4 2 2 2 2 3 6 g l m C | #.>.4.9.9.<.o   < ( ^ ^ ^ ^ ^ ^ ^ / ^ ^ ^ ",
"^ ^ ^ ^ ^ ^ ^ / ^ ^ / W +   : X.v 2 o                                             @ 4 b  .1   @ Q / ~ ^ ^ ^ ^ ^ ^ ^ ^ ^ ",
"^ ^ ^ ^ ^ ^ ^ ^ ^ ~ ) J                     .   .                     .     .                   G ) ~ ^ ^ ^ / ^ ^ ^ ^ ^ ",
"^ ^ ^ ^ ^ ^ ^ ^ ^ ^ ^ Q i X             .                                   .               . r E / ^ ^ ^ ^ ^ ^ ^ ^ ^ ^ ",
"^ / ^ ^ ^ ^ ^ ^ ^ ^ ^ / _ Q F y - X                                                 . * q S E _ / ^ ^ ^ ^ ^ ^ ^ ^ ^ ^ ^ ",
"^ ^ ^ ^ ^ ^ ^ ^ ^ ^ ^ ^ ~ / _ _ / E K D p r 8 > * # + O X X X X X + # * : < e i A J T ^ ) ) / ~ ^ ^ ^ ^ ^ ^ ^ ^ ^ ^ ^ ^ ",
"^ ^ ^ ^ ^ ^ ^ ^ ^ ^ ^ ^ ^ ^ ~ ~ ^ / ( _ _ _ ) / ^ ~ Q Q E E E E Q Q ~ ^ / ) ) ) _ ) / ^ ^ ~ ^ ^ ^ ^ ^ ^ ^ ^ ^ ^ ^ ^ ^ ^ ",
"^ ^ ^ ^ ^ ^ ^ ^ ^ ^ ^ ^ ^ ^ ^ ^ ^ ^ ~ ~ ^ ~ ^ ^ ^ ^ ^ / / / / ^ ^ / ^ ^ ^ ^ ~ ~ ~ ^ ^ ^ ^ ^ ^ ^ ^ ^ ^ ^ ^ ^ ^ ^ ^ ^ ^ ^ ",
"^ ^ ^ ^ ^ ^ ^ ^ ^ ^ ^ ^ ^ ^ ^ ^ ^ ^ ^ ^ ^ ^ ^ ^ ^ ^ ^ ^ ^ ^ ^ ^ ^ ^ ^ ^ ^ ^ ^ ^ ^ ^ ^ ^ ^ ^ ^ ^ ^ ^ ^ ^ ^ ^ ^ ^ ^ ^ ^ ^ ",
"^ ^ ^ ^ ^ / ^ ^ ^ ^ ^ ^ ^ / ^ ^ ^ ^ ^ ^ ^ ^ ^ ^ ^ ^ ^ ^ ^ ^ ^ ^ ^ ^ ^ ^ ^ ^ ^ ^ ^ ^ ^ ^ ^ ^ ^ ^ ^ ^ ^ ^ ^ ^ ^ ^ ^ ^ ^ / ",
"^ ^ ^ ^ ^ ^ ^ ^ ^ ^ ^ ^ ^ ^ ^ ^ ^ ^ ^ ^ ^ ^ ^ ^ ^ ^ ^ ^ ^ ^ ^ ^ ^ ^ ^ ^ ^ ^ ^ ^ ^ ^ ^ ^ ^ ^ ^ ^ ^ ^ ^ / ^ ^ ^ ^ ^ ^ ^ ^ "
};
