/* XPM */
static char *kdd__[] = {
/* columns rows colors chars-per-pixel */
"72 72 124 2",
"   c #00DC00CE00BF",
".  c #07BE06EF05F1",
"X  c #0CD309700556",
"o  c #0B980B2F0AAF",
"O  c #12650D4D0714",
"+  c #10DC0EA90BFB",
"@  c #143810130B04",
"#  c #1BAA14610B7D",
"$  c #133B12D6125A",
"%  c #181617541669",
"&  c #192917D9163F",
"*  c #1BA71B3C1ABA",
"=  c #1FD4177C0D4D",
"-  c #24611A850E7D",
";  c #28671D360F8E",
":  c #25321BDE107C",
">  c #29CA1E39101C",
",  c #1FCB1F6B1EF6",
"<  c #2D93212211F4",
"1  c #205E1FE71F56",
"2  c #339E2576142E",
"3  c #3B112AB416BD",
"4  c #3DBD2D1718C3",
"5  c #23EF237222D9",
"6  c #283326E6254F",
"7  c #285427DA2745",
"8  c #2BF42B772AE0",
"9  c #2FFF2F812EE6",
"0  c #305B2FE82F5B",
"q  c #3403336532A5",
"w  c #385436E23521",
"e  c #399F387A3715",
"r  c #3C8F3C0A3B68",
"t  c #40AC2EC218E6",
"y  c #442B31811ABB",
"u  c #48E234FE1CB7",
"i  c #4EB339001E85",
"p  c #4FF039DE1EEE",
"a  c #53D53CAD2069",
"s  c #58233FB921EE",
"d  c #40003F893EF7",
"f  c #5CCB433E240F",
"g  c #404B3FE93F71",
"h  c #6155468E25E0",
"j  c #65B849AE2777",
"k  c #6B324D912968",
"l  c #73BA53C22CBD",
"z  c #783E56F12E4D",
"x  c #448443F1433E",
"c  c #493A47FD467B",
"v  c #4C1A4B9B4B01",
"b  c #4FF34F444E70",
"n  c #50D250224F4C",
"m  c #54C9543C538F",
"M  c #583757A156EA",
"N  c #5C8D5C045B5D",
"B  c #60F360565F96",
"V  c #646663D76328",
"C  c #681367676694",
"Z  c #68F3684F6787",
"A  c #6B966AF16A28",
"S  c #708B6FF96F48",
"D  c #73887300725A",
"F  c #785D77D4772D",
"G  c #7DF17D677CBF",
"H  c #81725D9831D8",
"J  c #86BD616B33DF",
"K  c #8BC8651335D8",
"L  c #95B36C3E39A8",
"P  c #98DD6E8E3AED",
"I  c #9BEE70BD3C08",
"U  c #A25E75633E80",
"Y  c #A5EC77F73FE1",
"T  c #A6C278914033",
"R  c #ABA77C194212",
"E  c #B0E27FE84423",
"W  c #80557FD97F41",
"Q  c #B4808280457D",
"!  c #B92685DD4747",
"~  c #BB8387934830",
"^  c #BCF7889F48BF",
"/  c #80FA80737FCF",
"(  c #C47A8E0D4BA2",
")  c #CD7E94924F1C",
"_  c #CFCC963A4FF8",
"`  c #D1B897A150BD",
"'  c #D5B69A845246",
"]  c #DA849DFD5420",
"[  c #DEF7A13555D6",
"{  c #E214A375570A",
"}  c #E4F5A58A5825",
"|  c #EC31AAC55AEE",
" . c #8503847A83D2",
".. c #88E6886087BD",
"X. c #8C3D8BB68B11",
"o. c #958794FC9453",
"O. c #9C619BD79B2F",
"+. c #A0749FE99F3F",
"@. c #A11FA09A9FF9",
"#. c #A4D8A456A3B9",
"$. c #A892A809A762",
"%. c #ACD6AC51ABAF",
"&. c #B093B011AF74",
"*. c #B115B08FAFEC",
"=. c #B50CB494B401",
"-. c #B8C3B83CB79A",
";. c #BCDEBC6CBBE1",
":. c #C057BFB2BEE9",
">. c #C114C09BC007",
",. c #C50AC48DC3F5",
"<. c #C890C80EC771",
"1. c #C914C89BC809",
"2. c #CD17CCA4CC17",
"3. c #D4CFD464D3E1",
"4. c #DC51DBEDDB73",
"5. c #E0FEE0A0E02D",
"6. c #E551E4F2E47D",
"7. c #E871E850E826",
"8. c #EC8AEC3BEBD9",
"9. c #F095F043EFDE",
"0. c #F0E9F093F027",
"q. c #F560F52DF4EF",
"w. c #F8A1F85AF804",
"e. c #FF01FEFFFEFC",
/* pixels */
"' ' ' ' ' ' ' ' ' ' ' ' ] ' ' ' ' ' ' ' ' ' ' ' ' ' ' ' ' ' ' ' ' ' ' ' ' ' ' ' ' ' ' ' ' ' ' ' ' ' ' ' ' ' ' ' ' ' ' ' ' ' ' ' ' ] ' ' ' ' ' ' ",
"' ' ' ' ' ' ' ' ' ' ' ' ' ' ' ' ' ' ] ' ' ' ' ' ' ' ' ' ' ' ] ' ' ' ' ' ' ' ' ' ' ' ' ' ' ' ' ' ' ' ' ' ' ' ' ' ' ' ' ] ' ' ' ' ' ' ' ' ' ' ' ' ",
"' ' ' ' ' ' ' ' ' ' ' ' ' ' ' ' ' ' ' ' ' ' ' ' ' ' ' ' ' ' ' ' ' ' ' ' ' ' ' ' ' ' ' ' ' ' ' ] ' ' ' ' ' ' ' ' ' ' ' ' ' ' ' ' ' ' ' ' ' ' ' ' ",
"' ' ' ' ' ' ' ' ' ' ' ' ' ' ' ' ' ' ' ' ' ' ' ' ' ' ' ' ' ' ' ' ' ' ' ' ' ' ' ' ' ' ' ' ' ' ' ' ' ' ' ' ' ' ' ' ' ' ' ' ' ' ' ' ' ' ' ' ' ' ' ' ",
"' ' ' ' ' ' ' ' ' ' ' ' ' ' ' ' ' ' ' ' ' ' ' ] ' ' ' ' ' ' ' ' ' ' ' ' ' ' ' ' ' ' ' ' ' ' ' ' ' ' ' ' ' ' ' ' ' ' ' ' ' ' ' ' ' ' ' ' ' ' ' ' ",
"' ' ' ' ' ' ' ' ' ] ' ' ' ' ' ' ' ' ' ' ' ' ' ' ' ' ' ' ' ' ' ' ' ' ] ` ' ] ' ' ' ' ' ' ' ' ' ' ' ' ' ' ] ' ' ' ' ' ' ] ' ' ' ' ' ' ' ' ' ' ' ' ",
"' ' ' ' ' ' ] ' ' ' ' ' ' ' ' ' ' ' ' ' ' ' ' ' ] ' ' ' ' ' ' ' ' ] ( - : ( ] ' ' ' ] ' ' ' ' ' ' ' ' ' ' ' ' ' ' ' ' ' ' ' ' ' ' ' ' ' ' ' ] ' ",
"' ' ' ' ' ' ' ' ' ' ' ' ' ' ' ' ' ' ' ' ' ' ' ' ' ' ' ' ' ' ' ' ` { I     U { ` ' ' ' ' ' ' ' ' ' ' ' ' ' ' ' ' ' ' ' ' ' ' ' ' ' ' ' ' ' ' ' ' ",
"' ' ' ' ' ' ' ' ' ' ' ' ' ' ' ' ' ' ' ' ' ' ' ' ' ' ' ' ' ' ' ` _ { P     U ] ` ` ' ' ' ' ' ' ' ' ' ' ' ' ' ' ' ' ' ' ' ' ' ' ' ' ' ' ' ' ' ' ' ",
"' ' ' ' ' ' ' ' ' ' ' ' ' ' ' ' ' ' ' ' ' ' ' ' ' ' ' ' ' ' ] } ] | U     R | ] { ] ' ' ' ' ' ' ' ' ' ' ' ' ' ' ' ' ' ' ' ' ' ' ' ' ' ' ' ' ' ' ",
"' ' ' ' ' ' ' ' ' ' ' ' ' ' ' ' ' ' ' ' ' ' ' ' ' ' ' ' ` ] ^ y 3 t <     < y 4 y ~ ] ' ' ' ' ' ' ] ' ' ' ' ' ' ' ' ' ' ' ] ' ' ' ' ' ' ' ' ' ' ",
"] ' ' ' ' ' ' ' ' ' ' ' ] ' ' ' ' ' ' ' ' ' ' ' ' ' ' ' ` } K                     H } ` ' ' ' ' ' ' ' ' ' ' ' ' ' ' ' ' ' ' ' ' ' ' ' ' ' ' ' ' ",
"' ' ' ' ' ' ' ' ' ' ' ' ' ' ' ' ' ' ' ' ' ' ' ' ' ' ' ' ' ] ( f p f 4     3 a p f ( ] ' ' ' ' ' ' ' ' ' ' ' ' ' ' ' ' ' ' ' ' ' ] ' ' ' ' ' ' ' ",
"' ' ' ' ' ' ' ' ' ' ' ' ' ' ' ' ' ' ] ' ' ' ' ' ' ' ' ] ' ' ] } { | U     U | [ } ' ' ' ' ' ' ' ' ' ' ' ' ' ' ' ' ' ' ' ' ' ' ' ' ' ' ' ' ' ' ' ",
"' ' ' ' ' ] ' ' ' ' ' ' ' ' ' ' ' ' ' ' ' ' ' ' ' ' ' ' ' ' ' ` _ [ P     I [ ` ` ' ' ' ' ' ' ' ' ' ' ' ' ' ' ' ' ' ' ' ' ' ' ' ' ' ' ' ' ' ' ' ",
"' ' ' ' ' ' ' ' ' ' ' ' ' ' ' ' ' ' ' ' ' ' ' ' ' ' ' ' ' ' ' ' ' [ P     I [ ` ' ' ' ' ' ' ' ' ' ' ' ' ] ' ' ' ' ' ' ' ' ' ' ' ' ' ' ' ' ' ' ' ",
"' ' ' ' ' ' ' ' ' ' ' ' ' ' ' ' ' ' ' ' ' ] ' ' ' ' ' ' ' ' ' ' _ | R     E | ) ' ' ' ' ' ' ' ' ' ' ' ' ' ' ' ' ' ' ' ' ' ' ' ' ' ' ' ' ' ' ' ' ",
"' ' ' ' ' ' ' ] ' ' ' ' ' ' ' ' ' ' ' ' ' ' ' ' ' ' ' ' ' ] ' ' { E f # # f R { ' ' ' ' ' ' ' ' ' ' ' ' ' ' ' ' ' ' ' ' ' ' ' ' ' ' ' ' ' ] ' ' ",
"' ' ' ' ' ' ' ' ' ' ' ' ' ' ' ' ' ' ' ' ' ' ' ' ' ' ' ' ' ` ] _ i             u _ ] ' ' ' ' ' ' ' ' ' ' ' ' ' ' ' ' ' ' ' ' ' ' ' ' ' ' ' ' ' ' ",
"' ' ' ' ' ' ' ' ' ' ' ' ' ' ' ' ' ' ' ' ' ' ' ' ' ' ' ' ' ] _ <     % q q o     < ` ] ' ' ' ' ' ' ' ' ' ' ' ' ' ' ' ' ' ' ' ' ' ' ' ' ' ' ' ' ' ",
"' ' ' ' ' ' ' ' ' ' ' ' ' ` ` ` ' ' ' ' ` ` ' ' ' ' ' ' ' { i   o O.q.e.e.6.V     p { ` ' ' ' ' ' ' ` ' ' ' ] ' ' ` ' ' ' ' ' ' ' ' ' ' ' ' ' ' ",
"' ' ' ' ' ' ' ' ' ' ' ' ' [ } { ] ' ` ' { } { ] ` ` ' ` [ R     O.e.e.e.e.e.e.C   . Q ] ' ` ` ` ] { { [ ' ` ` ' [ } [ ` ' ' ' ' ' ' ' ' ] ' ' ' ",
"' ] ' ' ' ' ' ' ' ' ` [ { Q z u 2 : - < y k P ( { { ' _ { l   % 8.e.8.o.o.7.e.6.o   z { _ ] { { ( L h 4 : # # : 4 k R [ [ ` ' ' ' ' ' ' ' ' ' ' ",
"' ' ' ' ' ' ' ' ' ` } R 4                     + u P ` [ | a   0 e.e.V     m e.e.w   f | { _ K y +                     2 U } ' ' ' ' ' ' ' ' ' ' ",
"' ' ' ' ' ' ' ' ' [ k         6 v C A V c 5 .       = j ( f   8 e.e.r     8 e.e.q   h ( f #         & e n N m r *         j [ ' ' ' ' ' ' ' ' ' ",
"' ' ' ' ' ' ' ' [ a     . Z 2.e.e.e.e.e.e.w.3.o.x .     + #   . 3.e.D     D e.4.o   # X       q  .1.8.e.e.e.e.e.q.:.M       a [ ' ' ' ' ' ' ' ' ",
"' ' ' ' ' ' ` { j     5 2.e.e.e.e.e.e.e.e.e.e.e.e.3.Z o     .   X.e.2.    1.e.X.        . m ,.e.e.e.e.e.e.e.e.e.e.e.e.:.*     k { ` ' ' ' ' ' ' ",
"' ' ' ' ' ' { L     6 6.e.e.e.e.4.$.X.W X.%.4.e.e.e.e.4.c   .   q e.e.x x e.e.q   .   e 2.e.e.e.e.3.#...W X.%.6.e.e.e.e.6.*     I { ' ' ' ' ' ' ",
"' ' ' ' ' ] ) #   . <.e.e.e.#.q .           . r =.e.e.e.e. .      ;.e.O.O.e.-.  .   A e.e.e.e.#.q .           . r =.e.e.e.,.    - ` ] ' ' ] ' ' ",
"' ' ' ' ` } z     S e.e.e.m         .   .         r 3.e.q.e.G     m e.q.q.e.v     A e.e.e.,.8       .   .           A e.e.e.S     z { ` ' ' ' ' ",
"' ' ' ' ' ' >     3.e.e.G   .                   .     #.e.e.e.n   . 2.e.e.,..   x e.e.e.X.    .                 . .   o.e.e.3..   2 ] ' ' ' ' ' ",
"' ' ' ' ] ! .   8 e.e.q.*                               %.e.e.6.*   V e.e.N   $ 4.e.e.o.                              q e.e.e.0   X ^ ] ' ' ' ' ",
"' ' ' ' { P     m e.e.3.                                o 3.e.e.X.  $ 7.6.o   ..e.e.;.                                o 6.e.e.m     U [ ` ' ' ' ",
"' ' ' ` { P     B e.e.;.                                  w e.e.9.5   %.%.  * 7.e.7.5                                   3.e.e.A     P { ` ' ' ' ",
"' ' ' ` [ U     N e.e.;.                                .   X.e.e./   V N   F e.e.D   .                                 3.e.e.Z     Y { ' ' ' ' ",
"' ' ' ' ] ~ .   c e.e.6.o                                   * 7.e.3.  o o   1.e.4.o                                   * q.e.e.m   X ~ ] ` ' ' ' ",
"' ' ' ' ] ` =   5 q.e.e.N   .                                 #.e.e.q     7 e.e. .                                .   D e.e.e.6   - ` ' ' ' ' ' ",
"' ' ' ' ` { i     ;.e.e.6.*                               .   C e.e.V     V e.e.x                                   7 8.e.e.1.    s } ` ' ' ' ' ",
"' ' ' ' ` { P     m e.e.e.2.$                                 r e.e...    X.e.q.5                             .   , 4.e.e.e.V     U { ' ' ' ' ' ",
"' ' ' ' ' ' ' <     #.e.q.e.,.$                           .   7 e.e.O.    @.e.6.$   . .                         6 4.e.q.e.-.    2 ] ' ' ' ' ' ' ",
"' ' ' ' ] ` { I     o :.e.q.e.1.$       .                     $ 7.e.$.    $.e.3.                    . .       q 6.e.e.e.,.$     U { ' ' ' ' ' ' ",
"' ' ' ' ' ' ` } j     o %.e.q.e.2.$             o * 7 q x v m V 7.e.%.    %.e.4.N m c x q 6 % o             8 7.e.e.e.$.o     l } ` ' ' ' ' ' ' ",
"' ' ' ' ' ' ' ' [ p   .   F e.e.e.>.o 7 V o.-.3.6.q.e.e.e.e.e.e.e.e.=.    =.e.w.e.e.e.e.e.e.q.6.2.=.X.N 5 * 4.e.e.e.D       f { ' ' ' ' ' ' ' ' ",
"' ' ' ' ' ' ' ' ' [ f   .   x 7.e.e.6.e.e.e.e.e.e.e.e.e.e.e.e.e.e.e.-.    -.e.e.e.e.e.e.e.e.e.e.e.e.e.e.q.6.e.e.6.e   .   k { ' ' ' ' ' ' ' ' ' ",
"' ' ' ' ' ' ' ' ' ' } z       * 1.e.e.e.e.e.e.q.6.1.=.O.X.G D C N N r     x A A F / X.O.=.,.4.8.e.e.e.e.e.e.e.2.*   .   H } ' ' ] ' ' ' ' ' ' ' ",
"' ' ' ' ' ' ' ' ' ' ` } P X     o %.7.=.X.B r * .                                             $ 8 c D O.,.q.;.o     O I } ` ' ' ' ' ' ' ' ' ' ' ",
"' ' ' ' ' ' ' ' ' ' ' ` { ( a     . o                 . . . . . . . .   . . . . . . . .                   $ o     f ) { ` ' ' ' ' ' ' ' ' ' ' ' ",
"' ' ' ' ' ' ' ' ' ' ' ' ` ] } >         . . . . .                                             . . . . .         > } ] ` ' ' ' ' ' ' ' ' ' ' ' ' ",
"' ] ' ' ' ' ' ' ' ' ' ' ' ` { p                       $ * 8 e x c m m m m m m v x e 8 * $ .                 .   i [ ` ' ' ' ' ' ' ' ' ' ' ' ' ' ",
"' ' ' ' ' ' ' ' ' ' ' ' ' ' } l         o 0 N  .#.,.4.7.q.e.e.e.e.e.e.e.e.e.e.e.e.e.e.e.8.6.1.*.X.V e $         l } ` ' ' ' ' ' ' ' ' ' ' ' ' ' ",
"' ' ' ' ' ' ' ' ' ' ' ' ' ` { P     6 -.6.e.e.e.e.e.e.e.e.e.q.e.e.q.e.q.e.q.e.q.e.e.e.e.e.e.e.e.e.e.e.8.1.q     L { ` ' ' ' ' ' ' ' ' ' ] ' ' ' ",
"' ' ' ' ' ' ' ' ' ' ' ' ' ' ] ! .   8 e.e.e.e.q.e.e.e.e.e.e.e.e.e.e.e.e.e.e.e.e.e.e.e.e.e.e.e.e.e.q.e.e.e.e   . E ] ' ' ' ' ' ' ' ' ' ' ' ' ' ' ",
"' ' ' ' ' ' ' ' ' ' ' ' ' ' ' _ #   $ 8.e.e.e.e.q.4.,.$.o...F C V M m m m m m N V D G o.#.;.3.7.e.e.e.e.q.*   O ) ] ' ' ' ' ' ] ' ' ' ' ' ' ' ' ",
"' ' ' ' ' ' ' ' ' ' ' ' ' ' ' [ 2     ;.,. .m q % .                                           $ 7 c F =.-..   < ] ' ' ' ' ' ' ' ' ' ' ' ] ' ' ' ",
"' ' ' ' ' ' ' ] ' ' ' ' ' ' ' ) #     o                                                                 .     @ ) ' ' ' ' ' ' ' ' ' ' ' ' ' ' ' ",
"' ' ' ' ' ' ' ' ' ' ' ' ' ` [ R             . % 7 x N D  .o.#.$.=.;.;.;.,.;.-.=.%.#.o...F N x 8 * .             U [ ` ' ' ' ' ' ' ' ' ' ' ' ' ' ",
"' ' ' ' ' ' ] ' ' ' ' ' ' ` } l     o m ..=.3.q.e.e.e.e.e.e.e.e.e.e.e.e.e.e.e.e.e.e.e.e.e.e.e.e.q.4.=...N o     k } ` ' ' ' ' ' ' ' ' ' ' ' ' ' ",
"' ' ' ' ' ' ' ' ' ' ' ' ' ' ] 3     m e.e.e.e.e.e.e.q.e.e.e.e.e.e.e.e.e.e.e.e.e.e.e.e.q.q.e.e.e.e.e.e.e.e.C     2 [ ` ' ' ' ' ' ' ' ' ' ' ' ' ' ",
"' ' ' ' ' ' ' ' ' ' ' ' ' ] ( X     O.e.q.e.e.e.e.e.e.e.e.e.e.9.9.7.7.7.7.7.8.q.q.e.e.e.e.e.e.e.e.e.e.q.e.#.    X ( ] ' ' ' ' ' ' ' ' ' ' ' ' ' ",
"' ' ' ' ' ' ' ' ' ' ' ' ` { P       4.e.e.e.4.-.O.F V c w 7 5 * $ $ o o o o o $ * 5 q r m A X.#.,.6.e.e.e.4..     P { ` ' ' ' ' ' ' ] ' ' ' ' ' ",
"' ' ' ' ' ' ' ' ' ' ' ' ` } h     7 ,. .c , .                                                     o 6 v  .>.8     h } ` ' ' ' ' ' ' ' ' ' ' ' ' ",
"' ' ' ' ' ' ' ' ' ' ' ' ' ' -     .               . .                   .             .   .   .               .   - ' ' ' ' ' ' ' ' ' ' ' ' ' ' ",
"] ' ' ' ' ' ' ' ' ' ' ' ' ' u         . .                                                             . .         2 ) ' ' ' ' ] ' ' ' ' ' ' ' ' ",
"' ' ' ' ' ' ' ' ' ' ' ' ' ' [ P y X                                                                         . 2 J ' ] ' ' ' ' ' ' ' ' ' ' ' ' ' ",
"' ' ' ' ' ' ' ' ' ' ' ' ' ' ' { { ( P j 3 #                                                         O 2 f K ^ [ } ' ' ' ' ' ' ' ' ' ' ' ' ' ' ' ",
"' ' ' ' ' ' ' ' ' ' ' ' ' ' ' ` ` ] } } { _ ^ U J k a y 2 ; # # O X X X . X X O O # - 2 t p j H I Q ) ] } { ] ' ' ' ' ' ' ' ' ' ' ' ' ' ' ] ' ' ",
"' ' ' ' ' ' ' ' ' ' ' ' ' ' ' ] ' ' ` ` ` ' ] { } } } { ] ] _ ) ) ( ( ( ( ( ( ) ) ` ' ] { } } } { ] ] ' ` ` ' ' ' ' ' ' ' ' ' ' ' ' ' ' ' ' ' ' ",
"' ' ' ' ' ' ' ' ' ' ' ' ' ' ' ' ' ' ' ' ' ' ' ' ` ` ` ' ' ' ' ] ] ' ] ] ] ] ] ] ] ] ' ' ` ' ` ` ` ' ' ' ' ' ' ' ' ' ' ' ' ' ' ' ' ' ' ' ' ' ' ' ",
"' ' ' ' ' ' ' ' ' ' ' ' ' ' ' ' ' ' ' ' ' ' ' ' ' ' ' ' ' ' ' ' ' ' ' ' ' ' ' ' ' ' ' ' ' ' ' ' ' ' ' ' ' ' ' ' ' ' ' ' ' ' ' ' ] ' ' ' ' ' ' ' ",
"' ' ' ' ' ' ] ' ' ' ' ' ' ' ' ' ' ' ' ' ' ' ' ' ' ' ' ' ' ' ' ' ' ' ' ' ' ' ' ' ' ' ' ' ' ' ' ' ' ' ' ' ' ' ' ' ' ' ' ' ' ' ' ' ' ' ' ' ' ' ' ' ",
"' ' ' ' ' ' ' ' ' ' ' ' ' ' ' ' ' ' ' ' ' ' ' ' ' ' ' ' ' ' ' ' ' ' ' ' ' ' ' ' ' ' ' ' ' ' ' ' ' ' ' ' ' ' ' ' ' ' ' ' ' ' ' ' ' ' ' ' ' ' ' ' ",
"' ' ' ' ' ' ' ' ' ' ' ' ] ' ' ' ' ' ' ' ' ' ] ' ' ' ' ' ' ' ' ' ' ' ' ' ' ' ' ' ' ' ' ' ' ' ' ' ] ' ' ' ' ' ' ' ' ' ' ' ' ' ' ' ' ' ' ' ' ' ' ' "
};
