/* XPM */
static char *kdl__[] = {
/* columns rows colors chars-per-pixel */
"24 24 112 2",
"   c #014C017401AB",
".  c #0B830B580B25",
"X  c #167109B90000",
"o  c #19200C4D0000",
"O  c #11C80E2209C3",
"+  c #155010C10B49",
"@  c #1D5516730E31",
"#  c #12CC128A123C",
"$  c #17E917BA1781",
"%  c #132A165D1A33",
"&  c #1BA61B641B16",
"*  c #28951E3811CA",
"=  c #20471F351DEF",
"-  c #2C88212C1380",
";  c #1FF71FA21F3D",
":  c #2F1C248B17DD",
">  c #30D723151291",
",  c #3F612E761A28",
"<  c #25CC25732508",
"1  c #29AA25F12179",
"2  c #235726D72B0A",
"3  c #261729442D1C",
"4  c #3579333E3091",
"5  c #3E8D3D8D3C58",
"6  c #40CB2F771AAC",
"7  c #431C31051B50",
"8  c #4BE835551A19",
"9  c #4FF039171DAB",
"0  c #54D73D3520D8",
"q  c #5DFA43FC24E0",
"w  c #58DC430828D5",
"e  c #63DB46D22400",
"r  c #67D34A7A2742",
"t  c #6B6C4B3F24A4",
"y  c #62B648B02977",
"u  c #69A34CD32A41",
"i  c #70EE4EF3262A",
"p  c #7CD7580C2BE4",
"a  c #37053C144244",
"s  c #39813E8444BA",
"d  c #49A548B64796",
"f  c #4BA84B6A4B20",
"g  c #52BC53815476",
"h  c #59FE589756E2",
"j  c #5C2D5C355C3D",
"k  c #60F25F455D40",
"l  c #63D8636562DD",
"z  c #694B685B675D",
"x  c #631C68396E5C",
"c  c #6BAF6B626B06",
"v  c #70086FDC6FAA",
"b  c #69ED6EE374D6",
"n  c #72CB727C721C",
"m  c #7B5E7B157ABE",
"M  c #80545A912D3F",
"N  c #81CB5DAA3260",
"B  c #85D460AB3434",
"V  c #8C43649034EF",
"C  c #8A6E67163CAC",
"Z  c #8C5A68853D84",
"A  c #90536B7A3F42",
"S  c #929A6D334046",
"D  c #80187FEF7FBD",
"F  c #AF4081F44B98",
"G  c #B33384E34D51",
"H  c #BE4B89C44AA8",
"J  c #C35A8DF24DD5",
"K  c #C74D90CF4F6D",
"L  c #C71092845377",
"P  c #C83A952957E2",
"I  c #D39E9C5659FF",
"U  c #D794A0415DDC",
"Y  c #DD15A4A660ED",
"T  c #E237A827627B",
"R  c #E738AC2C6551",
"E  c #EB6CAF50672D",
"W  c #ECE6B06867D1",
"Q  c #EEB6B1D968D3",
"!  c #F2A3B4FE6B06",
"~  c #F7E5B8BB6CEF",
"^  c #FAEEBB696F26",
"/  c #FED4BEB87190",
"(  c #FFFFC8FD760A",
")  c #84A6845B8400",
"_  c #835D889C8EF0",
"`  c #8B848B598B26",
"'  c #85518A8590D3",
"]  c #900993B69835",
"[  c #90E990CD90AD",
"{  c #92E996899AF6",
"}  c #95AC9A159F63",
"|  c #9A439A1B99EA",
" . c #9C0FA080A5D4",
".. c #A9ABA8F0A811",
"X. c #AAC7AAA3AA78",
"o. c #B0CEB017AF39",
"O. c #B0B2B2E4B587",
"+. c #B666B967BD03",
"@. c #BF43BEEDBE85",
"#. c #C06BC030BFEA",
"$. c #BA96BE67C2FB",
"%. c #BE64C202C65A",
"&. c #C62CC5FDC5C5",
"*. c #C301C6B4CB24",
"=. c #CC88CC77CC64",
"-. c #D51CD4D0D469",
";. c #DBD3DBBADB99",
":. c #DCE9DEDCE134",
">. c #E35FE37AE39A",
",. c #E92AE7F2E67D",
"<. c #E775E81AE8E0",
"1. c gray100",
/* pixels */
"E W E E E E E E E E E E Q E E E E E Q E E E E E ",
"E E E W E Q E Q E E R R R R E Q E E E E Q E E E ",
"E E E W E E E E Q R ( A A ( R E Q E E E E E E E ",
"W W E E E E E E E ! C * * C ! E E E E E E E Q E ",
"E E E E W E E E E E P w w P E E E E E E E W W E ",
"E W E E R E R R E E ( u u ( R E R R E R E E E E ",
"E E E E / / ^ ( ! ! y j g q ! ~ ( ^ / / W E E E ",
"W E ! E M 8 0 i L H h =.&.g J J t 8 8 p E ! E W ",
"E ! T > b *.$. .j o z n n z X h } +.%.x > T W E ",
"E ^ 8 ' >.h 5 l =.+.& #.#.$ O.&.k 5 j ,._ 8 ^ E ",
"! I 1 >.;         X.| m m | X.        < ,.1 I ! ",
"! J 4 ;..         . =.g f &.    .     . >.4 L ~ ",
"W R - :.c           ` v c )           n >.: E E ",
"E / N a 1.j   . & & ` ) ) ) & & .   z 1.s N / R ",
"E E ^ e 3 ;.=.;.;.=.;.l z ;.-.;.;.=.:.3 y / E E ",
"E E E / V & d O                 # f = V / R E E ",
"E E E R / - 2 m X.&.-.;.;.-.&.X.) 3 - / R E E W ",
"E E E R ^ 8 { ;.| ) c z z b m | -.{ 8 ^ R E E E ",
"E E E E ~ 7 % d k m ` ` [ ` m k d % 6 ^ E E W E ",
"E E E ! I + -.1.>.-.&.@.#.&.-.,.1.;.+ I W E W E ",
"E E E ~ G   3                     2   F ^ E E E ",
"E E E W W G u 7 - @ + O O + @ - 7 e F E E E E E ",
"E E E E E ~ / / W R T U U Y R W ^ / ~ W E W E E ",
"E W W E E R R R E W ! W ! ! W E R E E E E E E W "
};
