/* XPM */
static char *kdl__[] = {
/* columns rows colors chars-per-pixel */
"21 21 246 2",
"   c #000300010000",
".  c #006C00AA008E",
"X  c #00C000C500CB",
"o  c #026002610263",
"O  c #02A302A402A6",
"+  c #04250421041C",
"@  c #05F105D605B6",
"#  c #06A0069F069E",
"$  c #082308240824",
"%  c #0C4B0C2F0C0E",
"&  c #0E170E0B0DFE",
"*  c #19C2106A056F",
"=  c #1AC2116B0637",
"-  c #0FB40F990F78",
";  c #1B5F150C0D7E",
":  c #119011821171",
">  c #14E414C914A9",
",  c #1933191718F6",
"<  c #23F217B80AF5",
"1  c #27F81AAF0C84",
"2  c #20B31FB01E79",
"3  c #216D206B1F36",
"4  c #2F7E25BB1A0B",
"5  c #313C228310D8",
"6  c #31CD22E210FB",
"7  c #3174273A1AF8",
"8  c #19351DA8230D",
"9  c #1C2B20A72615",
"0  c #279A24DA218D",
"q  c #270024C7221C",
"w  c #268A26552616",
"e  c #33512BA42270",
"r  c #38072FB525D0",
"t  c #323D31AA30FA",
"y  c #3768364634EA",
"u  c #370C367435BE",
"i  c #386B374935EC",
"p  c #3C54396B35ED",
"a  c #3D3D39E335DE",
"s  c #42AC31A61D39",
"d  c #49BE35261D3F",
"f  c #5E0E462D2986",
"g  c #5FDF47962A73",
"h  c #5FDF48AB2CD3",
"j  c #40543FEF3F76",
"k  c #656E476A2365",
"l  c #6A354B50263D",
"z  c #65C94B402B69",
"x  c #6A924F512E9D",
"c  c #775A56BC2F98",
"v  c #7BC558602DE6",
"b  c #7E435A662F5D",
"n  c #66344ED832D1",
"m  c #783657572FE5",
"M  c #39033C70408D",
"N  c #3ACA3E44426F",
"B  c #423A41D14154",
"V  c #3FF340D741E8",
"C  c #446043C14302",
"Z  c #451845AA4659",
"A  c #47B6471E4668",
"S  c #4813477946C0",
"D  c #466949784D19",
"F  c #477D4AA44E65",
"G  c #4A6149EB495C",
"H  c #4E424E0B4DCA",
"J  c #5163513D5110",
"K  c #532E52CE525A",
"L  c #53D453A95375",
"P  c #54A3545A5403",
"I  c #58DE57415552",
"U  c #5B555B285AF3",
"Y  c #5DEE5C4E5A5B",
"T  c #5CDE5CB15C7C",
"R  c #60145FD95F93",
"E  c #5CC05E4D6028",
"W  c #628B61EB612A",
"Q  c #603661D863CD",
"!  c #63D463A6636F",
"~  c #6655666A6683",
"^  c #695F693068F8",
"/  c #69DE69E869F4",
"(  c #6BDF6BAF6B76",
")  c #6F136DD06C49",
"_  c #725B6ECF6A88",
"`  c #6FBA74D37AF1",
"'  c #77A9765874C1",
"]  c #795F756870A5",
"[  c #735275897831",
"{  c #717477057DB6",
"}  c #720876FD7CF1",
"|  c #768B78A97B34",
" . c #80F65EEE35D0",
".. c #823A5FEC367C",
"X. c #8C2562B430FA",
"o. c #8D8563B43186",
"O. c #890666783C9E",
"+. c #8ED16AD53F45",
"@. c #936F6A76394C",
"#. c #951A6CD13B3E",
"$. c #965E6CE33B20",
"%. c #97006E3D3C07",
"&. c #9B536E4C3842",
"*. c #9C596F0638A3",
"=. c #B15B816B47E4",
"-. c #B4BC83FD497F",
";. c #B0E0845F4EF8",
":. c #B906867B49D3",
">. c #BAC087A54A51",
",. c #B40986C15069",
"<. c #BD6F8DDB54C1",
"1. c #BE178E545503",
"2. c #C1FA8D4F4E15",
"3. c #C4A98F514F3E",
"4. c #C724944C5748",
"5. c #C837951857C1",
"6. c #CFD5968A51CA",
"7. c #CCF9960B541F",
"8. c #CF2197B2552C",
"9. c #CF419A565AD7",
"0. c #CD969A085C2A",
"q. c #CEAD9AD25C98",
"w. c #D113975B5218",
"e. c #DF5DA64F61D7",
"r. c #E051A702623D",
"t. c #E212A7096032",
"y. c #E33CA7CC6076",
"u. c #E5E7AA6B630A",
"i. c #E6BDAB3063BB",
"p. c #E290A9D665C4",
"a. c #E411AAF5666C",
"s. c #E4ADAA31640D",
"d. c #E80FACD365C0",
"f. c #E85FAD1F6606",
"g. c #E87AAD0965B7",
"h. c #E87EAD2565EB",
"j. c #E90AAD7A6609",
"k. c #EA10AE4F669A",
"l. c #EA87AEAC66D9",
"z. c #EB29AF1E6712",
"x. c #EB52AF3E6725",
"c. c #EBEFAFB26769",
"v. c #ECE9B06B67D6",
"b. c #EE12B133683A",
"n. c #EECAB1CC68A0",
"m. c #EEF4B2566999",
"M. c #EFA9B278690A",
"N. c #F127B39569B3",
"B. c #F171B3CC69D3",
"V. c #F195B49B6A88",
"C. c #F14DB57E69EB",
"Z. c #F2E0B4DD6A74",
"A. c #F31DB5A16BDA",
"S. c #F441B5E46B0E",
"D. c #F285B6F06B46",
"F. c #F481B6146B2A",
"G. c #F38BB5F46C0B",
"H. c #F51FB6F86C62",
"J. c #F573B7496CB0",
"K. c #F69DB8226D28",
"L. c #F78AB8566C7E",
"P. c #F6C5B87E6DC0",
"I. c #F717B9196EB6",
"U. c #F82BB9706E29",
"Y. c #F92DB98F6D37",
"T. c #F9DBBA056D6B",
"R. c #FA38BA416D7F",
"E. c #FA69BB1B6F24",
"W. c #FC7BBBE76E69",
"Q. c #FAC2BB616F59",
"!. c #FB81BBFA6FBE",
"~. c #FCDCBC4C6ED7",
"^. c #FB26BBFA7016",
"/. c #FBABBC557048",
"(. c #FE33BDFB70EA",
"). c #FD55BDBF7171",
"_. c #FF18BE7A70F0",
"`. c #FED4BE62710D",
"'. c #FFE7BF31718A",
"]. c #FFFFBF8D71E1",
"[. c #FFC4BF9B729E",
"{. c #FFFFC58C75C2",
"}. c #7B127E618259",
"|. c #7DC9810184DE",
" X c #7B9381428818",
".X c #88D6894F89D9",
"XX c #8B388A4C892F",
"oX c #895389AF8A2C",
"OX c #90798F548DF3",
"+X c #92DD91F590DE",
"@X c #9363923C90D7",
"#X c #926A924A9224",
"$X c #944493B89311",
"%X c #951094F294CD",
"&X c #9B319AA99A05",
"*X c #9B279AF19AB0",
"=X c #9A659B059BC3",
"-X c #9FA79EBC9DA4",
";X c #9DA99E309ED3",
":X c #977C9BE4A12F",
">X c #9D84A1EBA732",
",X c #A28EA1A9A099",
"<X c #A36DA2BFA1EE",
"1X c #A3D3A3A2A368",
"2X c #A530A45DA35F",
"3X c #A6EEA580A3C8",
"4X c #A3E2A48AA554",
"5X c #A789A61FA46E",
"6X c #A9DAA904A804",
"7X c #A4FDA680A851",
"8X c #AA7EA9D6A90D",
"9X c #A9C4AA86AB6E",
"0X c #AB88AD0EAEE1",
"qX c #ACD7ACBAAC97",
"wX c #ADC3ADA4AD7F",
"eX c #AD27B114B5C9",
"rX c #B085B064B03D",
"tX c #B1CBB1A1B170",
"yX c #B6B3B66AB612",
"uX c #B7EFB7A7B751",
"iX c #B0F2B4E0B998",
"pX c #B136B586BAB3",
"aX c #B580B9CFBEFB",
"sX c #B9FFB9D0B998",
"dX c #BE2CBDF7BDB6",
"fX c #BF20BEECBEAE",
"gX c #C06CC037BFF8",
"hX c #C146C114C0D7",
"jX c #C23BC49BC774",
"kX c #C4F9C4D7C4AF",
"lX c #C54AC528C4FF",
"zX c #C7DEC7A6C762",
"xX c #C5B3C825CB15",
"cX c #C8C1C88AC848",
"vX c #CBF3CB75CADB",
"bX c #CD08CCD7CC9D",
"nX c #CE42CE0ECDCF",
"mX c #CF1BCEF3CEC3",
"MX c #CF7ACF4BCF12",
"NX c #D136D116D0F1",
"BX c #D3EAD3BDD386",
"VX c #DAB1DC3FDE1D",
"CX c #DB99DE89E20A",
"ZX c #DD85DF21E10D",
"AX c #DDBDE0DCE49C",
"SX c #EB4AEB31EB13",
/* pixels */
"c.c.c.c.c.c.c.c.c.c.V.c.c.c.c.c.v.x.x.v.x.",
"c.c.c.c.c.c.c.c.c.M.9.V.M.c.c.c.x.x.v.x.x.",
"c.c.c.c.c.c.c.c.c.4.7 5.c.c.c.c.x.v.v.x.v.",
"c.c.c.c.c.c.c.c.e.z < g e.M.c.c.v.x.x.x.x.",
"c.c.c.c.d.d.d.c.V.V.d V.M.c.d.d.d.c.c.x.x.",
"c.c.d.K.'.E.'.I.u.n G h u.I.'.E.'.K.d.x.x.",
"c.d.E.>.l x b w.@. XvX{ #.6.v z k >.I.c.x.",
"c.E.@.Z aXiX>X] * .XW .X* _ :XeXiXV @.).d.",
"G.6.a VXI 3 i 9X0XB SXj 4X4Xy 3 Y VXa 8.G.",
"'.X.}..XX + X X *X%XR #X%XX O + X +X|.o.'.",
").&.[ <XX $ # X : sXw tX& X # $ X 9X| *.'.",
"M.t.e CX) X + X X 2X! *XX O X X ' AXr y.M.",
"d.I.=.q jX2X0XdXdXmXH mXgXhX0X6XxX0 -.I.d.",
"v.d.).2.7 E t > % O X + - , y W 7 2.).d.c.",
"c.c.p.{...8 XXrXkXmXBXmXlXtX#X9  .{.s.c.c.",
"c.c.c.E.%.F 2X( T L J L U ^ -XF #.E.d.c.c.",
"c.c.d.'.c M 2XyXcXmXNXMXcXuX2XM m '.d.c.c.",
"c.c.c.V.6 ` *X~ J Z C S P ^ -X} 6 G.c.c.c.",
"c.c.c.v.+.1 X X X X X X X X X < O.M.c.c.c.",
"c.c.c.c.E.I.p.q.<.,.,.:.1.q.p.K.E.c.c.c.c.",
"c.c.c.c.c.c.c.V.L.L.E.L.L.F.v.c.d.c.c.c.c."
};
