/* XPM */
static char *kdl__[] = {
/* columns rows colors chars-per-pixel */
"29 29 124 2",
"   c #013601210127",
".  c #0BA804880000",
"X  c #0DCF09480525",
"o  c #0BDD0B930B3A",
"O  c #104409A2048D",
"+  c #1A5D0F75025E",
"@  c #0FB80F9B0F7A",
"#  c #1C9114E60C2F",
"$  c #08720CE51277",
"%  c #0B790FD01561",
"&  c #13F813A31347",
"*  c #18711771163A",
"=  c #1CEE1A4F172B",
"-  c #1756176D17DC",
";  c #1CAA1C8C1C6B",
":  c #1FA213B1055B",
">  c #233018DD0C7E",
",  c #2E4E1EC70C74",
"<  c #22AC1BEE13DB",
"1  c #29871DCC0FB7",
"2  c #342022530D1F",
"3  c #260320D61AA0",
"4  c #3053244F15E4",
"5  c #3D0F2AF21557",
"6  c #1B111F7F2524",
"7  c #1E202015226D",
"8  c #1E39228227F4",
"9  c #233B22DB2269",
"0  c #292827E4265F",
"q  c #2BA62B712B32",
"w  c #2DE0320B372A",
"e  c #2F5B338838A8",
"r  c #327F32583228",
"t  c #3CAF3C043B39",
"y  c #466D3109175F",
"u  c #4C8734D0185E",
"i  c #54963A801B47",
"p  c #4B6C37B4200C",
"a  c #4D2138FE20D4",
"s  c #5B1041EF23EF",
"d  c #5F4946FF29DA",
"f  c #61E448E92AE7",
"g  c #6A1B4DDA2B6F",
"h  c #76FD58A93447",
"j  c #79325A4E353D",
"k  c #423A42394237",
"l  c #40CD451B4A5C",
"z  c #46F44AAC4F22",
"x  c #4A774A2F49D9",
"c  c #4FE14FB54F81",
"v  c #4E2951D35637",
"b  c #5554558D55D3",
"n  c #514C54E95931",
"m  c #57CA5B465F76",
"M  c #5BDE5C345C9D",
"N  c #58DB5C3F6050",
"B  c #64C864996460",
"V  c #68D06894684C",
"C  c #714A704A6F16",
"Z  c #6A196DB071FF",
"A  c #6CCD706774B8",
"S  c #756A74637329",
"D  c #788E785A781D",
"F  c #81EC5F2E35B2",
"G  c #8D1864F134C0",
"H  c #86E064703B1E",
"J  c #8C5E68BD3DFD",
"K  c #9BFE726C4089",
"L  c #A1D2764F4218",
"P  c #AA727BC843CC",
"I  c #A7167CD84A27",
"U  c #A9BD7EC84B3B",
"Y  c #AF7482B44D03",
"T  c #B16C842D4DE2",
"R  c #BF3E8D9F5214",
"E  c #C2808F3751AB",
"W  c #CD2E97A95772",
"Q  c #CF3F98EF57C6",
"!  c #C88D962C59B7",
"~  c #CBB998835B0F",
"^  c #D46A9E325D23",
"/  c #D7E3A0C35E9D",
"(  c #D994A13F5DAE",
")  c #E755AC8765BA",
"_  c #EB88AF65673C",
"`  c #EAD6AF95686E",
"'  c #ECD4B05D67CD",
"]  c #EEABB1BF68A5",
"[  c #F398B5BA6B7A",
"{  c #F7FDB8B06CBA",
"}  c #FB2ABB4D6EA3",
"|  c #FE97BEA87169",
" . c #FFFFC0D2733C",
".. c #85E385A4854D",
"X. c #843887738B54",
"o. c #866D89AD8D93",
"O. c #8C1C8BEC8BAD",
"+. c #93CB93E293FF",
"@. c #982A980597D9",
"#. c #90CF951B9A4D",
"$. c #9C2B9C0A9BDF",
"%. c #A149A01D9EAD",
"&. c #A6C7A6A2A676",
"*. c #A3F7A84CAD86",
"=. c #AFE3B226B4D0",
"-. c #B6E1B6BBB68D",
";. c #B85DB83AB810",
":. c #B6A2B916BBF9",
">. c #BF85BF4BBF03",
",. c #BB93BED1C2B8",
"<. c #C496C474C44B",
"1. c #C2B9C60CCA09",
"2. c #CCCBCC9ECC68",
"3. c #D01AD0E5D1D8",
"4. c #D68BD633D5C7",
"5. c #D8ADD80DD750",
"6. c #D8ACD884D853",
"7. c #DBAADB8CDB63",
"8. c #E065E02CDFE9",
"9. c #E49DE483E460",
"0. c #ECBDEC9AEC71",
"q. c #F0D8F04AEFA1",
"w. c #F523F4BAF43C",
"e. c #FEA4FE9BFE8D",
/* pixels */
"_ _ ' _ _ ' _ _ _ ' _ ' _ _ _ _ _ _ _ _ _ ' ' _ _ _ _ ' _ ",
"_ _ ' _ _ _ _ ' _ _ _ _ _ ' { _ _ _ _ _ _ _ _ _ _ ' _ _ _ ",
"' _ _ _ _ ' _ _ _ _ ' _ ` ) H ) _ _ _ _ ' _ ' ' _ _ ' _ _ ",
"_ _ ' _ _ _ _ _ ' _ _ _ [ ^ > ^ [ _ _ _ _ _ _ _ ' ' _ _ ' ",
"_ ' _ ' _ _ _ _ _ _ ) { j # X # h { _ _ _ _ ` _ _ _ ' _ _ ",
"_ _ _ _ _ ' _ _ _ ' ' ' / Y # Y / ' _ _ ' _ _ _ _ ' _ _ ' ",
"_ _ ' ' _ _ _ _ _ _ ' ) | ) # ) } _ _ _ _ _ ) ` _ _ _ _ _ ",
"' _ _ _ _ _ [ [ ] ) ) [ R 1 * > R [ ) _ [ [ [ _ _ _ _ _ _ ",
"_ _ _ _ { [ W E ( {  ._ < *.e.#.> _  .{ ^ E W [ { _ _ _ _ ",
"_ _ _ { J # = 0 3 2 G P t 5.9 4.t P G , < 9 & + K { _ _ _ ",
"_ _ } F * :.e.w.0.1.N   ; <.3 1.;   n ,.9.w.w.-.$ F } _ _ ",
"_ [ E o 7.5.x 9 q S w.3.. +.8.+.  2.w.V q 9 c 7.7.o E [ _ ",
") | i m w.o         o 2.:.q w.0 -.<..         o e.m i | ) ",
") } 2 X.2.  X         & 0.B b M 9.$   o     .   4.o.2 | ) ",
"_  .u V 0.          o   ..<.  >.D   o         o w.Z i | ) ",
") { L 6 e.@.            t 8.o 7.r             %.e.9 L { _ ",
"_ _ [ 5 l e.@.    * q r B 9.; 7.M r q ;     &.e.l y [ _ _ ",
"_ _ ' _ , 8 9.4.9.w.w.0.0.<.; 2.q.w.w.w.9.4.9.7 4 ' ' _ _ ",
"_ _ _ ' { i * ..M 0 o               o q M O.- s [ ' _ _ _ ",
"_ _ _ _ ' | 4     $ q x M B V B M x r @     4 | _ _ _ _ _ ",
"_ _ _ _ ) | y z e.e.e.e.e.e.e.e.e.e.e.e.e.n y { _ _ _ _ _ ",
"' ' _ _ ) | g e %.b r 3 * o o o & ; r c $.e g | ) _ _ _ ' ",
"_ _ _ _ _ { a   t B O.&.-.<.<.<.-.&.o.B t   u | _ _ _ ' _ ",
"_ ' _ _ ' ` . #.e.e.w.9.4.2.2.2.7.9.e.e.e.@.. ) ' _ _ _ _ ",
"_ _ _ _ { T   b k * .               X ; k b   Y { ) ' ' _ ",
"_ ' _ _ ' / f O                           . s ^ ] ` ` ' ' ",
"' _ _ _ _ ' } ' ~ U J h g f f f g j J I ! _ { [ _ ' ` ` _ ",
"_ _ _ _ _ _ _ ' [ { { | } } { } } } } [ [ _ _ _ _ _ ' _ _ ",
"_ _ ' _ _ ' _ _ _ _ ) ) ) ) ) ) _ ) ) _ ) _ _ _ _ _ _ _ ' "
};
