/* XPM */
static char *kdl__[] = {
/* columns rows colors chars-per-pixel */
"46 46 133 2",
"   c #00FC00EB00E0",
".  c #08CF077305D0",
"X  c #0B950849045A",
"o  c #043705F70827",
"O  c #076309000B55",
"+  c #0BF40BF50BF6",
"@  c #125C0BC903E7",
"#  c #13590EE10990",
"$  c #1D30125F0564",
"%  c #16AA109D095B",
"&  c #1C21146C0B2C",
"*  c #0CC60F6B12EB",
"=  c #0F10119814CA",
"-  c #130112DE12B5",
";  c #15F719731DD8",
":  c #1BBB1B8B1B53",
">  c #22DC16D7086B",
",  c #2299196A0E88",
"<  c #28E51BFD0CDC",
"1  c #25791BEB1081",
"2  c #291B1E9A1203",
"3  c #20171ED81D5A",
"4  c #2E7822061309",
"5  c #328E25A61629",
"6  c #3F592D3B177C",
"7  c #33C4277818B8",
"8  c #36F129581908",
"9  c #3C4F2CCB1A2D",
"0  c #22F622DE22C4",
"q  c #27EF27B52770",
"w  c #23A3260328DE",
"e  c #26A728912ADF",
"r  c #2BBD2BD82BFC",
"t  c #30572FFD2F90",
"y  c #2C5A2EFE3222",
"u  c #2E9630B5332F",
"i  c #35B535653506",
"p  c #375D38E63AC1",
"a  c #3BCA3BD43BDF",
"s  c #40092F6D1B7F",
"d  c #431331311BBB",
"f  c #48AA35781E6F",
"g  c #4F1639461F4B",
"h  c #45BC34BE205A",
"j  c #4DF8399D2139",
"k  c #50233BC8235B",
"l  c #405C3F3D3DEC",
"z  c #590E42512708",
"x  c #5C2C450E2951",
"c  c #63984AC52CFF",
"v  c #6E7552D831BC",
"b  c #74DE57D034F2",
"n  c #7E5A5DFB3723",
"m  c #7D7D5DD837E1",
"M  c #3FA53FDA401A",
"N  c #44CF4484442A",
"B  c #48B847BD468F",
"V  c #467A472C4807",
"C  c #4D194CE44CA3",
"Z  c #515C501E4EA2",
"A  c #54C0542E5380",
"S  c #581056DA5565",
"D  c #5A4E59D75948",
"F  c #63DD636862DE",
"G  c #6CAF6C4F6BDA",
"H  c #741A73B27336",
"J  c #78797792767C",
"K  c #790478237714",
"L  c #7C1E7BAE7B28",
"P  c #8530639D3B52",
"I  c #891666163C16",
"U  c #8EE26A673EA0",
"Y  c #94726E8C4110",
"T  c #96A8712E4436",
"R  c #9D2475C24667",
"E  c #9EAF773C47E6",
"W  c #A008783C487B",
"Q  c #A67D7CC44AB6",
"!  c #A9CE7E744A70",
"~  c #AD6781CF4D80",
"^  c #B3AC85FC4F29",
"/  c #B41386DD509C",
"(  c #B771889C506B",
")  c #BD568D2C535E",
"_  c #812F80207EDA",
"`  c #C04C8F5D54A5",
"'  c #C44F922F560B",
"]  c #C5F994705901",
"[  c #CB14973958FF",
"{  c #CD09990A5AA1",
"}  c #D50A9EDF5DDE",
"|  c #D6BCA03E5ED9",
" . c #D921A1B65F35",
".. c #D83DA1A2601C",
"X. c #DCF0A4B36136",
"o. c #E135A7B562B5",
"O. c #E75DAC516577",
"+. c #EBB3AF86674F",
"@. c #EB15AFD468B9",
"#. c #ECB4B04467BF",
"$. c #EEBCB1EA68EF",
"%. c #F40BB5CA6B15",
"&. c #F7F5B8AE6CC1",
"*. c #FABBBAC06DFA",
"=. c #FFFFC270728D",
"-. c #833C82E5827E",
";. c #8AB4896087CC",
":. c #8E088DB28D49",
">. c #90278FE68F98",
",. c #94FF948F9409",
"<. c #9B579AF99A87",
"1. c #A04FA0069FAE",
"2. c #A451A400A3A0",
"3. c #A82DA7FEA7C5",
"4. c #AC2CABAAAB0E",
"5. c #B0CEB07CB01A",
"6. c #B3BAB36BB30B",
"7. c #B8FDB7DAB67D",
"8. c #BBD4BB87BB2B",
"9. c #C06FBFF2BF5C",
"0. c #C1A9C0C5BFB4",
"q. c #C4E8C48EC421",
"w. c #CC2ACBCFCB61",
"e. c #D106CFD9CE71",
"r. c #D1B0D0ACCF76",
"t. c #D54DD4E9D471",
"y. c #D947D87BD788",
"u. c #DD11DCB8DC4E",
"i. c #E675E619E5A9",
"p. c #ECB9EC58EBE2",
"a. c #F20BF11AEFF0",
"s. c #F56FF4EBF449",
"d. c #FF95FF93FF91",
/* pixels */
"+.+.+.+.#.+.#.+.+.+.#.+.+.#.#.+.+.#.+.+.+.+.+.+.+.+.+.+.#.+.+.#.+.+.+.+.+.+.+.+.+.+.+.+.+.+.",
"+.+.+.+.+.+.+.+.+.+.+.+.+.+.+.+.+.+.+.+.+.+.+.+.+.+.+.#.+.+.+.+.+.+.+.+.+.+.+.+.+.$.+.+.+.$.",
"+.+.+.#.#.+.+.#.+.#.+.+.+.+.+.+.+.+.#.+.#.+.%.#.+.#.+.+.#.+.+.+.+.$.+.+.+.+.+.+.+.+.+.+.+.+.",
"+.#.+.+.+.+.+.+.+.+.#.+.#.+.+.#.+.#.+.+.+.#. . .#.#.+.+.+.+.+.#.+.+.+.+.$.+.+.+.+.+.+.+.+.+.",
"+.#.+.#.+.+.+.+.+.+.+.+.+.+.+.+.+.#.+.+.O.%.5 8 %.O.+.+.+.+.+.+.+.+.+.+.+.+.+.+.$.+.$.+.+.+.",
"+.+.+.+.+.#.#.+.#.+.+.#.#.+.#.+.+.+.+.%.*.=.2 4 =.*.%.+.#.+.#.+.$.+.+.+.$.+.+.+.+.+.+.+.+.+.",
"+.+.+.+.+.+.+.+.+.+.+.+.+.+.+.+.+.+.#.{ n I % % I n [ %.+.+.+.+.+.+.+.+.+.+.+.+.+.+.+.+.+.+.",
"+.#.+.#.+.#.+.+.#.+.+.#.+.+.+.+.#.+.*.Y             U *.O.+.#.+.+.+.+.+.+.+.+.+.+.+.+.+.+.+.",
"+.#.+.+.+.+.+.+.+.+.+.+.+.+.+.+.+.+.+.+.} X., ,  .} +.+.+.+.+.+.+.+.+.+.+.+.+.+.#.#.#.O.#.#.",
"+.+.#.+.+.+.+.+.+.+.+.#.+.+.+.+.+.+.+.+.#.%.2 4 *.#.+.+.+.+.+.+.+.+.+.+.+.+.+.+.O.#.#.#.#.#.",
"+.+.+.+.+.+.+.+.#.+.+.+.+.+.+.+.+.+.+.+.%.=.8 8 =.%.O.+.+.+.+.+.+.+.+.+.+.+.+.+.#.#.#.#.#.#.",
"+.#.+.+.+.+.+.+.+.+.+.+.+.+.+.+.+.+.+.%.{ g     j { &.O.#.+.+.+.+.+.+.+.+.+.+.+.#.#.#.#.#.O.",
"+.#.+.+.+.+.+.+.+.O.+.+.+.O.+.+.+.+.&.) X * C V o X ' %.+.+.+.O.O.+.$.+.O.O.+.+.#.O.#.#.#.O.",
"+.+.#.+.+.#.+.+.*.*.%.#.%.*.*.%.+.O.#.< e s.d.d.y.= 4 $.O.+.&.*.*.+.+.%.*.&.#.O.#.#.#.#.#.#.",
"+.+.+.+.#.O.&.+.E j > @ $ d n ] %.=.]   ,.d.L K d.:.  [ =.%.' n s $ @ > g U +.&.O.#.#.O.#.#.",
"#.+.+.#.+.&.) 1   O y N a ;     < E ~   4.p.    i.6.  ^ T >     = y i q X   > ) %.O.#.#.#.O.",
"+.#.#.O.&./ o * ,.a.d.d.d.d.p.<.y   #   G d.: ; d.G   #   0 :.i.d.d.d.d.i.;.+   ( *.+.+.#.#.",
"+.#.+.%...X = t.d.d.w.1.:.2.u.d.d.7.0   : d.J J d.:   : 4.d.d.u.2.>.1.t.d.d.w.- #  .#.+.#.#.",
"+.#.+.&.z   5.d.q.t           a w.d.p.a   4.i.i.3.  i i.d.8.i           p e.d.4.  c *.+.#.#.",
"#.O.$.}   y s.i.-         o       -.d.i.- r d.d.r + u.d.J         o       0 p.d.r    .$.O.#.",
"#.O.*.Q   F d.1.  o                 ,.d.2.  q.q.  <.d.-.  o             o   4.d.G   Q 7.%.%.",
"#.O.*.E   L d.E   o                 + t.d.: F F : d.q.                      >.d.E   W *.O.#.",
"#.O.&./   G d.,.  o                   C d.:.+ + -.d.a                   o   2.d.L o / *.O.#.",
"#.#.$.|   N d.i.-                     o i.u.    u.y.                  o   4 p.d.M O ..@.#.#.",
"#.#.#.%.9   r.d.6.X             o   o   7.d.* = d.2.  o                 + q.d.t.  d %.+.+.+.",
"#.#.O.*.~   z s.d.6.o   o               ,.d.: ; d.-.  o           o   - q.d.d.B   / *.O.#.+.",
"#.+.+.O.*.c o M p.d.6.X     - q i B S A 6.d.4 w d.2.A S V i 0 #     - w.d.p.N   v *.+.+.+.+.",
"+.#.+.O.@.$.x o 0 q.d.4.,.y.s.d.d.d.d.d.d.d.r r d.d.d.d.d.d.d.s.y.:.7.d.0.3   c %.+.+.#.+.+.",
"+.+.+.+.@.@.&.b     <.d.d.d.u.7.<.-.G F D D + + F F G K :.2.q.i.d.d.d.<.    m &.+.+.+.+.#.+.",
"+.+.+.@.@.+.+.*.Q &   C p -                                   o : N D   1 ~ *.+.+.+.+.+.+.+.",
"+.+.+.+.+.+.+.O.=.~                       X o o o                       ~ =.O.+.+.+.+.+.+.+.",
"+.+.+.+.+.+.+.O.#.}     o q C G ,.4.7.w.r.y.u.y.y.t.w.8.4.,.J A r +     [ #.+.+.+.+.+.+.+.+.",
"+.$.+.+.+.+.+.+.#.+.& o w.d.d.d.d.d.d.d.d.d.d.d.d.d.d.d.d.d.d.d.d.y.+ % O.#.+.+.+.+.#.+.+.#.",
"+.+.+.+.+.+.+.+.+.%.s   y.d.s.y.q.2.,.-.K H G G H J -.,.2.7.y.p.d.u.  9 %.+.+.+.+.+.+.+.+.+.",
"+.+.+.+.+.+.+.+.O.*.k   S N +                                 o p A   j *.O.+.+.+.+.+.+.+.+.",
"+.+.+.+.+.+.+.+.$.O.&     o q C G -.,.2.4.6.6.6.6.4.2.,.-.G C r X     % O.#.+.+.+.+.+.#.+.+.",
"+.+.+.+.#.+.+.O.&.)   - 8.p.d.d.d.d.d.d.d.d.d.d.d.d.d.d.d.d.d.d.p.q.-   ) %.O.+.#.+.#.+.#.+.",
"+.#.+.#.+.+.+.O.*.P   Z d.d.d.d.i.y.q.7.4.4.4.2.4.5.8.w.y.p.d.d.d.d.S   P *.+.+.+.+.+.+.+.+.",
"+.#.+.+.+.+.+.+.%.h   J 6.G l 0 +                       o - r B G 6.K   h %.+.#.+.+.+.+.+.+.",
"+.+.+.+.#.+.+.%.X.%                     o   o                       o   % X.#.#.#.+.#.+.+.#.",
"#.+.#.+.+.+.+.+.#.) j @                                             X d ! #.+.+.+.+.+.+.+.+.",
"+.+.+.+.+.+.+.#.+.&.*.X./ P x 9 2 % X                 X # , 8 z n ~ ..%.*.+.+.+.+.+.#.+.#.+.",
"+.+.+.+.#.+.+.+.+.O.+.#.&.*.*.&.#.o.} [ ' ) ) ) ) ' [ } o.+.%.*.*.*.#.+.+.+.+.+.#.+.#.+.#.+.",
"#.+.#.+.+.+.+.+.+.+.+.+.+.+.O.+.#.#.#.%.%.&.&.&.%.&.%.%.#.+.+.+.O.+.+.+.+.+.#.+.+.+.+.+.+.+.",
"+.#.+.+.+.+.+.+.+.+.+.+.+.+.+.+.+.+.+.+.O.+.+.O.+.O.+.+.+.+.+.+.+.+.+.+.+.+.+.+.+.+.+.+.+.#.",
"+.+.+.+.+.+.+.+.+.+.+.+.+.+.+.+.+.+.+.+.+.+.+.+.+.+.+.+.+.#.+.+.+.+.+.+.+.#.#.+.+.+.#.+.+.+."
};
