/* XPM */
static char *kdl__[] = {
/* columns rows colors chars-per-pixel */
"60 60 129 2",
"   c #00E900DA00C8",
".  c #0896069D0441",
"X  c #0D3609E605EB",
"o  c #0B810B270ABC",
"O  c #118A0D8508B6",
"+  c #170311670AAD",
"@  c #1B9814B20C6E",
"#  c #1F2717F00F49",
"$  c #135D130D12AC",
"%  c #1849175F1646",
"&  c #1B401ACB1A40",
"*  c #206A184A0E91",
"=  c #245F1B911103",
"-  c #28081E4C129D",
";  c #1FD21F831F24",
":  c #2D7022901584",
">  c #1FF71FAA1F4D",
",  c #33072600165D",
"<  c #35CC280F1794",
"1  c #31B425DE17A9",
"2  c #373B2934185E",
"3  c #3C442D4E1B5E",
"4  c #23B423232275",
"5  c #2C8D2C2D2BB9",
"6  c #30602FFE2F89",
"7  c #34863414338B",
"8  c #38CE37923617",
"9  c #384B37E5376B",
"0  c #3B9C3B073A54",
"q  c #45BF34071EC5",
"w  c #4E8B3B1223B4",
"e  c #54883EF9251A",
"r  c #3FE13F853F17",
"t  c #564240942690",
"y  c #5958428D2731",
"u  c #5C8D4566299E",
"i  c #604247AE2A30",
"p  c #63494A812CC6",
"a  c #69414E622E23",
"s  c #68CE4F1D3049",
"d  c #6D1F52563231",
"f  c #73D056A633A0",
"g  c #765758713490",
"h  c #7A3C5B71365E",
"j  c #7CCE5DF638F2",
"k  c #437C42DF4223",
"l  c #48D9478E4601",
"z  c #493F47F94673",
"x  c #4BFA4B764AD9",
"c  c #50264FC74F54",
"v  c #558C54E15414",
"b  c #582E57BA5730",
"n  c #58D0583F5792",
"m  c #5C085B805ADE",
"M  c #601A5FB85F42",
"N  c #607160085F89",
"B  c #63E9634F6298",
"V  c #68C3675765A2",
"C  c #6CBD6C166B4E",
"Z  c #6FF56F8F6F14",
"A  c #7151706E6F5E",
"S  c #752074577365",
"D  c #7C1E7B917AE9",
"F  c #83CA624E3A20",
"G  c #89E666B13C71",
"H  c #8EB66A483E91",
"J  c #92EF6D8B40AD",
"K  c #964F70BB43A4",
"L  c #9C7F751245C3",
"P  c #A121780146A7",
"I  c #A59F7BAF495A",
"U  c #A99F7E804ABF",
"Y  c #80BD7F537DA1",
"T  c #ADDE817B4C36",
"R  c #B342858C4EB0",
"E  c #B7EE890D50CC",
"W  c #BC8A8C7A52CD",
"Q  c #80F180647FBC",
"!  c #C1258FD454A7",
"~  c #C4CF92AF5688",
"^  c #C6C994865837",
"/  c #CA5396C058DC",
"(  c #CEA499E65A9C",
")  c #D3969D915CBF",
"_  c #D72FA0525E7C",
"`  c #D90DA1A25F22",
"'  c #DD37A4BC60F4",
"]  c #E13DA7BC62B9",
"[  c #E708AC0D6545",
"{  c #EBC8AF956758",
"}  c #ECDBB06167D0",
"|  c #EE96B1AC6894",
" . c #F365B5406AAE",
".. c #F7D0B88B6C9D",
"X. c #FB5ABB2D6E2A",
"o. c #FFFFC0057104",
"O. c #FFFFC43F7383",
"+. c #84778398828D",
"@. c #8C518BBF8B0E",
"#. c #90AA902C8F96",
"$. c #94F8946493B2",
"%. c #9C189BA59B1C",
"&. c #A0539FC99F22",
"*. c #A35EA2BCA1FA",
"=. c #A864A7EBA757",
"-. c #A8D8A86AA7E6",
";. c #AC48ABBDAB17",
":. c #B4EDB482B402",
">. c #B883B803B76A",
",. c #B923B8B1B828",
"<. c #BE48BDD4BD4A",
"1. c #C0A9C03EBFC0",
"2. c #C55EC4F5C476",
"3. c #C940C8BAC819",
"4. c #CD26CCC8CC58",
"5. c #D063D004CF91",
"6. c #D194D0B0CF9E",
"7. c #D4F9D494D41B",
"8. c #DC96DC42DBDD",
"9. c #E093E049DFEF",
"0. c #E4DEE493E43A",
"q. c #E880E849E806",
"w. c #EDB8ED72ED1F",
"e. c #F098F05DF016",
"r. c #F0E6F0AFF06E",
"t. c #F48FF456F411",
"y. c #F89CF85AF80D",
"u. c #F8BDF887F847",
"i. c #FF9CFF99FF96",
/* pixels */
"{ { { { { { { { { { { { { { { { { { { } { } { { { { { { { { { { { { { } { { { } { { { { { { { { { { { { { { { } } { { { ",
"{ { { { { } { { { { { } { { } { { { { { { { { { } { { { } { { { { { { { { { { { { { } { { { { } { { } { { { { { { { { { ",
"{ { { { { { { { } { { { { { { { { } { { { { { { { { { { { { { { { } { { { } { { { { { { } { { { { { { { { } { { { { } { ",
"{ { { } { { { } { { { { } { { { { { { { { { } { { { { } { { } { { { { { { { { { } { { { { { { { { } { { { { { { { { { { ",
"{ } { { { { { { { { { { { { } { { { { { { { { { { { { { | { { | { { { { { { { { { { } { { { } { { { { } { { { } } { { { ",
"{ { { { } { { { { { { } { { { { { { } { { { { { { { { } [ , < { } { { { { { { { { { { { { { { { { { { { { { { { { { { { ",
"{ { { { { { { } } { { { { { { { { { { { } { { { { { [ { ( . . ) | [ { { { { { { { { { { { { { { } { { { { } { { { { } { ",
"{ { } { { { { { { { { { { } { { } { { { { { { } {  .X.O.] . . { X.X. .{ { { { { { } { { { } { { { { { { { { { { { { { { ",
"{ { { { { { { { } { { { { { { { { } { { { { { { } ) G G h   . h G G )  .{ { { { { { { { | { { { { { } { { } { { { } { { ",
"} { { { { } { { { { } { { { { } { { { { { { { [ X.F                 h X.[ { { { { { { { { { { { { { { { { { { { { { { { ",
"{ { { } { { { { { { { { { } { { { { { { { { { {  .( f h a     p f f / | { { { { { { { { { { { { { { { { { { { { { { { { ",
"{ { { { { { { } } { { { { { { { { { } { { { { } {  .X.X.[ . . [ O.X. .{ { { { { | { { { { { { { { } { { { { } { { { } { ",
"{ } { { } { { { { { { } { { { } { { { { { { { { { { [ } (   . ) | [ { { { { { { { { { { { { { { { { { { { { { { { { { { ",
"{ { { { { { { { { { { { { { { { } { { { { } { { { { [  .] . . [  .[ { { { { { { { { { { { { { { { { { } { { { } } { { { ",
"{ { } { { { } { { } { { { } { { { { { } { { { { { { ..[ J = * J ] X.[ { { { { | { { { { | { { { } { { { } { { { { { { } ",
"{ { { { { { { { { { { { { { { { { { { { { { { { [ ..U @         + I X.{ { { { { { { { { { { { { { { { { { { { { { { { { ",
"{ | { { { { { { { { { { [ { [ [ { [ { { } } } [ X.I     x D S 7     U X.[ { } } { { [ [ [ [ { [ { { { { { { { { { { { } ",
"{ { { { { { { { { { [  .X.X.X.X.X.X. .{ [ [ { | ' #   ;.i.i.i.i.S   = ] | { { [ }  .X.o.X.o.X.X. .[ { { { { { { { { { { ",
"{ { { { { { { { [  .X.) I j d a j L / } o. .[ ..P   z i.i.4.4.i.i.8   P  .[ ..o.{ ~ K f i i f L ( .. .{ { } { { { } { { ",
"{ { { { { { { { o./ y X               = f ^ | O.h   S i.;.    &.i.D   F O.| W d =               . w ~ X.{ { { { { { { { ",
"{ { { { { { { X.J .     5 B Y +.S v 4       3 U f   C i.+.    S i.S   g P ,       & k V S S b 4     . H X.{ { { { { { } ",
"{ { { { { [ X.F     k 3.i.i.i.i.i.i.u.7.+.4     O   5 i.4.    3.i.5   O     & S 2.t.i.i.i.i.i.t.<.8     F X.[ { { { { { ",
"{ { { { { ..U     S i.i.i.i.t.8.8.q.i.i.i.y.*.4       3.i.7 6 i.3.      & $.e.i.i.i.q.8.0.t.i.i.i.i.C     T ..{ { } { { ",
"{ { { { | ' =   m i.i.u.;.v & o . $ 7 D 0.i.i.t.m     V i.$.$.i.V     z w.i.i.8.S 5 $ . o & b >.i.i.i.n   - ] | { { { { ",
"{ { { [ X.g   % 0.i.w.k                 o +.t.i.i.m   $ q.t.t.0.$   x i.i.w.S .                 b t.i.0.%   F X.[ { { { ",
"{ { { | { -   C i.i.B   . .                 0 w.i.t.7   +.i.i.D   5 w.i.0.5                   .   S i.i.Z   : { { { { { ",
"{ { {  .~     =.i.0.$                     .   k u.i.3.  % t.w.&   <.i.w.5   .                     > t.i.;.  . /  .{ { { ",
"| { [ ..R     2.i.4.                        .   S i.i.m   >.:.  b i.i.m   .                       . 8.i.4.    R ..[ { { ",
"{ { { ..E     4.i.2.                              <.i.3.  V B   <.i.-.                              7.i.4.    E  .{ { { ",
"{ { [  .( .   >.i.8.o                             k i.i.7 . . 5 i.i.5                             % w.i.1.  . (  .{ { { ",
"{ { { { { -   @.i.i.m   .                           4.i.D     S i.>.                          .   V i.i.$.  : { { { { } ",
"{ { { [ X.u   0 i.i.0.4                             %.i.;.    ;.i.D                             7 t.i.i.k   a X.{ { { { ",
"{ { { { ..R     ;.i.i.8.&   .                 . .   D i.3.    4.i.m   .                   .   5 0.i.i.>.    E ..{ { { { ",
"{ { { { {  .w   $ 7.i.i.8.&       .                 n i.7.    8.i.r                 .       9 w.i.i.8.&   t ..[ { { { { ",
"{ { { { {  .) @   $ 3.i.i.8.4           o & 5 7 k 0 Q i.8.    8.i.Z r k 7 5 & o       .   0 t.i.i.3.%   * '  .{ { { { { ",
"{ { { { { [ X.W O   . $.i.i.4.5 m @.>.7.0.t.i.i.i.i.i.i.0.. . 0.i.i.i.i.i.u.t.0.4.>.@.x 7 0.i.i.@..   + /  .{ { { { { { ",
"{ { { { { | [ X./ *     m u.i.u.i.i.i.i.i.i.i.i.u.r.q.w.4.o . 7.t.t.t.i.i.i.i.i.i.i.i.i.u.i.t.m     - )  .{ { { { { { { ",
"{ { { { { { | [  .' <     7 0.i.t.7.:.@.C v 0 5 > % $ o o     o $ $ & 5 7 x B D %.<.0.t.i.q.0     3 ]  .{ } { { { } { { ",
"{ { { } { { { { {  .| g X   4 x &                           .                       o 4 n 5   O F  . .[ { { { { { { { { ",
"{ { { { { { { { { { { O.H           . .                                         . .           J O.[ { { { { { { { { } { ",
"{ { { { { { { { { { {  .W                 $ 5 7 z b B V S C S S V B m x 0 5 $ o               W  .{ { { { { { { { { { { ",
"} { { } { { { } { { { | ` O   . 5 B $.<.8.w.u.i.i.i.i.i.i.i.i.i.i.i.i.i.i.i.t.8.3.%.C 7 o   X ' } { { { { { { { { } { { ",
"{ { { { } { { { { { { { | ,   v i.i.i.i.i.i.i.i.i.i.i.i.i.i.i.i.i.i.i.i.i.i.i.i.i.i.i.i.B   : | { { { { { { { { { { { { ",
"{ { { { { { { { { { { [ X.t   0 i.i.i.i.i.t.0.7.2.>.-.*.%.%.%.%.*.-.:.1.5.8.t.i.i.i.i.i.k   w ..{ { { { { { { { { { { } ",
"{ } { { { { } { { { } [ X.h   & 7.:.D b 7 & o                             o $ 5 x S -.7.4   f X.[ { { { { { { { } { { { ",
"{ { { { { { { { { { } [ X.t   . o                   o o o $ $ o o o                     .   e X.{ { { { { { } { { { } { ",
"{ { { { { { { { } { { } [ =       $ 0 m D $.;.<.4.7.8.0.0.q.q.0.0.8.7.4.<.;.$.D m 0 &       # [ | { { { { { { { { { { { ",
"{ { } { { } { { { { [ ..W     k 7.w.i.i.i.i.i.i.i.i.i.i.i.i.i.i.i.i.i.i.i.i.i.i.i.i.e.8.x     E  .{ { { } { { { } { { { ",
"{ { { { { } { { { { [ X.F     %.i.u.i.i.i.i.i.i.i.i.i.i.i.i.i.i.i.i.i.i.i.i.i.i.i.i.u.i.*.    F X.[ { { { { { { { { { { ",
"} { { { { { { { { { {  .q   . 8.i.i.0.3.;.@.S m x 0 7 7 5 5 5 5 5 0 k v B D $.:.5.w.i.i.8.o   q  .{ { { { { { { { } { { ",
"{ { { } { { { { { { | ' +   > *.m 5 o                                             $ 6 M %.4   + ' | { { { { { { { { { { ",
"{ { { { { { { } { [ X.R                     .   .                 .         .             .     U X.{ { { { { { { { { } ",
"} { { { { { { { { { } ] g O             .                                   .   .           . u ` | { { { { { { { { { { ",
"{ { { { { } { { { { { } X.] P u , X                                                 . - y J ) X. .{ { { { { { { { } { { ",
"{ { } { { { { { { { { { { } X.X.| ` W K h u w , - * + O X X X X O O # = , q y f H R ) { X.X.} { { { { { { { { { { { { { ",
"{ { { { { { { } { { { { { { { [ {  . .X.X.X... .} [ ] ' ` ` ` ` ` ] ] {  .X.X.X.X. . .{ [ { { { { { { { } { { { { { { } ",
"{ { { { { { { { { { { { { { { { { { [ [ { [ { { { { { |  .|  .|  .} } } { { [ { [ { { { { { { { { { { { { { { { { { { { ",
"{ } { { } { { { } { { { } { { { { { { { { { { { { { { { { { { [ { { { { { { { { { { { { { { { { { { { { } { { { } { { { ",
"{ { { { { { { } { { { } { { { } { { { { { { { { { { { { { { { { { { { { { { { { { { { { { { { { { { { { { { { } { { { } ",
"{ { { } { { { { { { { { { { { { { { { { { { { { { { { { { { { { { } { { { } { { { { { { { { { { { { { { { { { { { { { { "
};
