/* XPM */
static char *kdl__[] = {
/* columns rows colors chars-per-pixel */
"72 72 135 2",
"   c #00E200D300C3",
".  c #080B0739063C",
"X  c #0D420A0C0635",
"o  c #0B990B440ADE",
"O  c #10170BFA0709",
"+  c #116A0E910B2A",
"@  c #14C710E00C32",
"#  c #1B2614740C6D",
"$  c #12FF12A41238",
"%  c #17CC16ED15E2",
"&  c #1B2718051444",
"*  c #1BD01B621AE0",
"=  c #211818C70ECA",
"-  c #23D71B61113A",
";  c #28641E551242",
":  c #1FEF1F8D1F18",
">  c #2C78215913FF",
",  c #208B20111F80",
"<  c #32542594162C",
"1  c #31012577179D",
"2  c #362528A81879",
"3  c #3AC92BD819DE",
"4  c #241E239E2305",
"5  c #28AF275C25C6",
"6  c #288228062770",
"7  c #2C222BA42B0C",
"8  c #2FFC2F922F13",
"9  c #307A2FF92F5F",
"0  c #343E339D32DD",
"q  c #38DD376635A4",
"w  c #3A0C38E2377D",
"e  c #3C7E3C013B6A",
"r  c #43AE328E1E01",
"t  c #496336A7202A",
"y  c #4CD53987225E",
"u  c #50F03C7823E7",
"i  c #40033F623EA2",
"p  c #566C40742617",
"a  c #581841AC26C4",
"s  c #5B8E443E2842",
"d  c #406A3FF33F69",
"f  c #601C47A12A3F",
"g  c #63C34A832C35",
"h  c #68B34DFC2DEC",
"j  c #6B2D4FFB2F58",
"k  c #6D9C520330E4",
"l  c #728F554C322D",
"z  c #7698587C345C",
"x  c #7B6B5BF43632",
"c  c #7FF35F483814",
"v  c #44BB44264372",
"b  c #49B0486E46EB",
"n  c #4C4A4BC94B2D",
"m  c #50334F824EAE",
"M  c #511350614F8A",
"N  c #54FE546E53C2",
"B  c #585857C45712",
"V  c #588657E9572E",
"C  c #5C855BF95B50",
"Z  c #5FEC5F785EEF",
"A  c #60C260445FAC",
"S  c #644763AE62F6",
"D  c #685367A466D2",
"F  c #6930688967C1",
"G  c #6BD46B2C6A63",
"H  c #70C2702D6F7B",
"J  c #73BA7330728A",
"K  c #788F7805775E",
"L  c #7E257D987CF0",
"P  c #839A621739E0",
"I  c #8E3C69EC3E5A",
"U  c #908E6BA63F5B",
"Y  c #94A86EB34128",
"T  c #96EB70634226",
"R  c #9B4F73AC441C",
"E  c #A35B79AE47AD",
"W  c #A6767BFA4900",
"Q  c #AA0A7EA34A8E",
"!  c #ACCB80AD4BBD",
"~  c #B2D085284E5E",
"^  c #B66487D24FF1",
"/  c #B78B88AE5072",
"(  c #BC238C195274",
")  c #80D3804E7FAE",
"_  c #C0F88FCA54A1",
"`  c #C53D92E25675",
"'  c #CAAF96EF58D6",
"]  c #CEE39A115AAE",
"[  c #D3A59D9B5CC3",
"{  c #D78DA0835E77",
"}  c #D92EA1BA5F2F",
"|  c #DCFFA49260DD",
" . c #E162A7D762C9",
".. c #E6D6ABE6652C",
"X. c #EBCCAF98675A",
"o. c #ECDCB06267D0",
"O. c #EEB6B1C468A1",
"+. c #F3ACB5786ACF",
"@. c #F7D8B8906CA1",
"#. c #FADBBACF6DF4",
"$. c #FFFFC20E7237",
"%. c #847583E8833F",
"&. c #8821879E8700",
"*. c #8918889087EC",
"=. c #8C6F8BE68B42",
"-. c #95BB952E9485",
";. c #9C959C089B60",
":. c #A07A9FF99F5D",
">. c #A0D7A03D9F83",
",. c #A474A3EFA351",
"<. c #A840A7C2A72C",
"1. c #A8C6A83AA793",
"2. c #ACC7AC3EAB9B",
"3. c #B076AFFCAF69",
"4. c #B118B08EAFEA",
"5. c #B539B4BEB42C",
"6. c #B8F5B86CB7C9",
"7. c #BCDABC66BBDA",
"8. c #C070BFE7BF44",
"9. c #C0EFC076BFE4",
"0. c #C4CCC44EC3B6",
"q. c #C8C0C83CC79F",
"w. c #C941C8C6C833",
"e. c #CD42CCCDCC40",
"r. c #D4F7D48AD407",
"t. c #DC76DC11DB96",
"y. c #E121E0C1E04F",
"u. c #E549E4E9E474",
"i. c #E87DE848E808",
"p. c #ECA8EC57EBF6",
"a. c #F0B5F060EFFB",
"s. c #F10AF0B2F047",
"d. c #F572F53FF501",
"f. c #F8BBF873F81D",
"g. c #FF01FEFFFEFD",
/* pixels */
"X.X.X.X.X.X.X.X.o.X.X.X.X.X.X.X.X.X.X.X.X.X.X.X.X.X.X.o.o.X.X.X.X.X.X.o.X.X.X.X.X.X.o.X.X.X.o.X.X.X.X.X.X.o.X.X.X.X.X.X.X.X.X.X.X.X.o.X.X.X.o.X.",
"X.X.X.X.X.X.X.X.X.X.X.X.o.X.X.X.X.X.X.X.X.X.X.o.X.X.X.X.X.X.X.X.o.X.X.X.X.X.X.X.X.X.X.X.X.X.X.X.X.X.o.X.X.X.X.X.X.X.o.X.X.X.X.o.X.X.X.X.X.X.X.X.",
"X.X.X.X.X.o.X.X.X.X.X.X.X.X.X.X.X.X.X.X.X.X.X.X.X.o.X.X.X.X.X.o.X.X.X.X.X.X.o.X.X.X.X.X.X.X.X.X.X.X.X.X.X.X.X.X.o.X.X.X.X.X.X.X.X.X.X.X.X.X.X.X.",
"X.X.o.X.X.X.X.X.X.X.o.X.X.X.X.o.X.O.X.X.X.X.X.X.X.X.X.X.X.X.X.X.X.X.X.X.X.X.X.X.X.o.X.X.o.X.X.X.o.X.X.X.X.X.o.X.X.X.X.X.o.X.X.X.X.o.X.X.o.X.X.X.",
"X.X.X.X.X.X.o.X.X.X.X.o.X.o.X.X.X.X.X.X.X.X.X.X.X.X.X.o.X.X.X.X.X.X.X.X.o.X.X.X.X.o.X.X.X.o.X.X.X.X.X.X.X.o.X.X.X.o.X.X.X.X.X.X.X.o.X.X.X.o.X.X.",
"X.X.o.X.X.X.X.X.X.X.X.X.X.X.X.X.X.X.X.X.O.X.X.X.X.X.X.X.X.X.X.X.X.X.+.X.X.+.X.X.X.X.X.X.X.X.X.X.X.X.X.X.X.X.X.X.X.X.X.X.X.X.o.X.X.X.X.X.X.X.X.X.",
"o.X.X.X.X.X.X.X.X.o.X.X.X.X.X.X.X.X.X.X.X.X.X.X.X.X.X.X.X.X.o.X.X.O.[ ; > { O.X.X.X.X.o.X.X.X.X.X.X.o.X.X.X.X.X.X.X.X.X.X.X.X.X.X.X.o.X.X.X.X.X.",
"X.X.X.X.X.o.X.X.X.X.X.X.X.o.X.X.X.X.X.X.X.X.o.X.X.o.X.X.X.X.X.X.X.@.Q     ~ @...X.X.X.X.X.X.X.o.X.X.X.X.X.X.X.o.X.X.X.o.X.X.X.X.X.X.X.X.X.X.X.o.",
"X.X.X.X.X.X.X.o.X.X.X.o.X.X.X.X.X.X.X.o.X.X.X.X.X.X.X.X.X.X.X.....@.!     ~ +...X.X.X.X.X.X.X.X.X.X.X.X.X.o.X.X.X.X.X.X.X.o.X.X.X.X.X.o.X.X.X.X.",
"X.X.o.X.X.X.X.X.X.X.X.X.X.X.X.X.X.X.X.X.X.X.X.X.X.X.X.X.X.X.+.#.+.#.~     ( $.+.+.+.X.X.X.X.X.X.o.X.X.X.X.X.X.X.X.o.X.X.X.X.X.X.X.X.X.X.X.X.X.X.",
"X.X.X.X.X.X.X.X.X.X.X.X.X.X.o.X.o.X.X.X.X.X.o.X.X.X.X.X.X.O.[ y r r <     < r r y ' +.X.X.X.X.X.X.X.o.X.X.X.X.X.X.X.X.X.X.X.X.X.o.X.X.X.X.X.o.X.",
"X.X.X.X.X.o.X.X.X.o.X.X.X.X.X.X.X.X.X.X.X.X.X.X.X.X.X.X...#.T                 .   I #...X.X.X.X.X.X.X.X.X.X.o.X.X.X.X.o.X.o.X.X.X.X.X.X.X.X.X.X.",
"o.X.X.X.X.X.o.X.X.X.X.X.o.X.X.X.X.X.X.X.X.X.X.X.o.X.X.X.X.O.| h s f r     3 s p g [ o.X.X.X.X.X.X.X.o.X.X.X.X.X.X.X.o.X.X.X.X.o.X.X.X.X.X.X.X.X.",
"X.X.X.X.X.X.X.X.o.X.X.X.X.X.X.X.X.X.o.X.o.X.X.X.X.X.X.X.X.X.O.#.#.$.^     ( $.@.#.+.X.X.X.X.X.X.X.X.X.X.X.o.X.X.X.X.X.X.X.X.X.X.X.X.o.X.X.X.X.X.",
"X.X.o.X.X.X.X.X.X.X.o.X.X.X.X.o.X.X.X.X.X.X.o.X.X.X.X.o.X.X.X.....+.!     Q +...X.X.X.X.X.X.X.X.X.o.X.X.X.X.X.X.X.X.X.X.o.X.X.X.X.X.X.X.o.X.X.o.",
"X.X.X.X.X.o.X.X.X.X.X.X.X.X.X.X.X.o.X.X.X.X.X.X.X.X.X.X.X.X.X.X...@.W     ! +.X.X.X.X.X.X.X.X.X.X.X.X.X.X.X.X.X.o.X.X.X.X.X.X.X.o.X.X.X.X.X.X.X.",
"X.o.X.X.X.o.X.X.X.X.X.X.X.X.X.X.X.X.X.X.X.X.X.X.X.X.X.X.X.X.X.X...$.(     ( #...X.X.X.X.X.X.X.X.X.X.X.o.X.X.X.X.X.X.X.X.X.X.X.X.X.X.X.X.X.o.X.X.",
"X.X.X.X.X.X.X.X.X.X.X.X.X.X.X.X.o.X.X.X.X.X.X.X.X.X.X.X.X.X.X.O.+.` h & # h ` @.O.X.X.X.X.X.X.X.X.X.X.X.X.X.X.X.X.X.X.X.X.o.X.X.o.X.X.X.X.X.X.X.",
"X.X.X.X.X.X.X.X.X.X.X.X.X.X.X.X.X.X.X.X.X.X.X.X.X.X.X.X.X.X.O...s             u  .+.X.X.X.X.X.X.X.X.X.X.X.X.X.X.X.X.X.X.X.X.X.X.X.X.X.X.X.X.X.X.",
"X.X.X.o.X.X.o.X.X.X.X.X.X.X.X.X.X.X.X.X.X.X.X.o.X.X.X.X.X.O. .<     & 0 0 o     <  .O.X.X.o.X.X.o.X.X.X.X.X.X.X.X.X.X.X.X.X.X.o.X.X.X.o.X.X.X.o.",
"X.X.X.X.X.X.o.X.X.X.X.X.X.X.....X.X.O.X.X.X...X.X.X.X.X.X.@.p   X ;.d.g.g.u.S     s +.X.X.X.X.X.X.X.X.X.X.o.X.X.X...X.X.X.X.X.X.X.X.X.X.X.X.X.X.",
"X.X.X.o.X.X.X.X.X.X.X.X.X.@.#.#.O.X.X.O.@.#.#.O.X...X.X.+._     ;.g.g.g.g.g.g.F   . ` +.X.X.....+.@.#.+.X.....X.@.#.+.X.X.X.X.X.X.X.X.X.X.X.o.X.",
"X.o.X.X.X.X.X.X.X.X...+.+.` P u 1 ; - 1 y z Q } #.#.O. .#.x   % p.g.p.-.-.i.g.u.+   P #...O.#.@.[ E j r ; # - > t z ( +.@...X.X.X.X.X.X.X.X.X.X.",
"X.X.X.X.X.X.X.o.X.X.#.( r .                   + y Q ..#.$.s   0 g.g.S     N g.g.0   f $.#. .R y +                     3 ~ #.X.X.o.X.X.o.X.X.X.X.",
"X.X.X.X.X.X.X.X.X.#.z         5 n D G S b 4         - l | g   7 g.g.e     7 g.g.0   k [ h #         * w M C N i *         l +.X.X.X.X.X.X.X.X.X.",
"X.X.X.o.X.X.X.X.+.s     . F e.g.g.g.g.g.g.g.r.-.v .     X -   . r.g.J     J g.t..   - X       0 %.q.p.g.g.g.g.g.d.7.V       s +.X.X.X.X.X.X.X.X.",
"X.X.X.X.X.X.X.#.l     4 e.g.g.g.g.g.g.g.g.g.g.g.g.r.F o     .   =.g.e.    w.g.*.        . N q.g.g.g.g.g.g.g.g.g.g.g.g.9.*     z #...X.X.X.X.X.X.",
"o.X.X.X.X...#.E     4 u.g.g.g.g.t.2.*.) *.2.t.g.g.g.g.t.n       0 g.g.v v g.g.0   .   w e.g.g.g.g.r.,.&.) =.2.u.g.g.g.g.t.:     Q #...X.X.X.X.X.",
"X.X.X.X.X.o. .=   . q.g.g.g.,.0 .           . e 5.g.g.g.g.%.      7.g.;.,.g.7.  .   G g.g.g.g.,.0 .           . e 5.g.g.g.0..   - X.X.X.X.X.X.X.",
"X.X.X.X.X.#.P     H g.g.g.N         .   .         e r.g.d.g.L     N g.d.p.g.n     G g.g.g.0.7       .   .           G g.g.g.H     I #.X.X.X.X.X.",
"X.X.o.X.X.X.>     r.g.g.L   .                   .     ,.g.g.g.N   . e.g.g.q..   v g.g.g.*.    .                 . .   -.g.g.r..   2 O.X.X.X.X.X.",
"X.X.X.X.+.' .   7 g.g.d.*                               2.g.g.u.*   S g.g.C   $ t.g.g.-.                              0 g.g.g.9   X ] +.X.X.X.X.",
"X.X.X.X.#.Q     M g.g.r.                                o r.g.g.=.  $ i.u.$   %.g.g.7.                                X u.g.g.N     ~ +.X.X.X.X.",
"X.X.X...@.W     S g.g.7.                                  w g.g.s.4   3.2.  * i.g.p.4                                   r.g.g.G     W #.X.X.X.X.",
"X.X.X.X.+.~     C g.g.0.                                    =.g.g.)   S C   K g.g.J                                     r.g.g.F     ( +...X.X.X.",
"X.X.X.X.+.] .   b g.g.u..                                   * p.g.r.  X o   w.g.t.X                                   * d.g.g.N   . ] +.X.X.X.X.",
"X.X.X.X.o...-   4 d.g.g.C   .                                 ,.g.g.0     6 g.g.%.                                .   J g.g.g.5   ; X.X.X.X.o.X.",
"X.X.X.X...#.p     8.g.g.u.*                               .   S g.g.S     S g.g.v   .                               6 p.g.g.w.    f #...X.X.X.X.",
"X.X.X.X.X.@.W     N g.g.g.e.$                                 e g.g.%.    %.g.d.4                             .   : t.g.g.g.S     ~ @...X.X.X.X.",
"X.X.X.X.X.X.O.<     ,.g.d.g.q.$                           .   6 g.g.;.    ,.g.u.$     .                         4 t.g.d.g.6.    3 +.X.X.X.X.X.X.",
"X.X.X.X.o.X.@.!     o 9.g.f.g.w.$       .                     $ i.g.1.    2.g.r.                    . .       0 i.g.d.g.q.$     / @...X.X.X.o.X.",
"X.X.X.X.X.X.X.#.l     . 2.g.d.g.e.$             . * 6 0 v m N S i.g.2.    2.g.t.C N n v 0 4 * .             7 i.g.g.g.2..     c #...o.o.X.X.X.X.",
"X.X.X.X.X.X.X.X.+.s   .   K g.g.g.0.. 6 S -.6.r.u.d.g.g.g.g.g.g.g.g.5.    5.g.d.g.g.g.g.g.g.d.u.e.5.=.C 4 * t.g.g.g.J   .   h #.X.X.X.X.X.X.X.X.",
"X.X.X.X.X.X.X...o.+.h   .   v i.g.g.u.g.g.g.g.g.g.g.g.g.g.g.g.g.g.g.6.    7.g.g.g.g.g.g.g.g.g.g.g.g.g.g.d.u.g.g.u.w   .   l @.X.X.o.X.X.o.X.X.X.",
"X.X.X.X.X.X.X.X.X.X.#.P       * w.g.g.g.g.g.g.d.u.w.5.;.=.L J S C C e     v G G K ) =.;.5.0.t.p.g.g.g.g.g.g.g.e.*       I #.X.X.X.X.X.X.X.X.X.X.",
"X.X.o.X.X.X.X.X.X.X...#.W X     . 2.i.5.*.S e : .                                             $ 7 n J ;.0.d.7.o     # ~ #...X.X.X.X.o.X.X.X.X.o.",
"X.X.X.X.o.X.X.X.X.X.X...#.| s     . .                 . . . . . . . .   . . . . . . . .                   $ .     h  .#.X.X.X.X.X.X.X.X.X.o.X.X.",
"X.X.X.X.X.X.X.X.X.X.X.O...O.#.>   .     . . . . .                                             . . . . .     .   > #.O...X.X.X.X.o.X.X.X.X.X.X.X.",
"o.X.X.X.X.X.X.X.X.X.X.o.X...+.s                       $ * 6 q v n N N N N N N n v w 7 * $ .                 .   u #...X.X.X.X.X.X.X.X.X.X.X.X.X.",
"X.X.X.X.X.X.o.X.X.X.X.X.X.X.#.x         o 9 C %.,.q.t.i.d.g.g.g.g.g.g.g.g.g.g.g.g.g.g.g.p.u.w.5.*.S w $         x #...X.X.X.X.X.o.X.X.X.X.o.X.X.",
"X.X.o.X.X.X.X.X.X.X.X.X.X.X.#.Q     4 7.u.g.g.g.g.g.g.g.g.g.g.g.d.g.g.d.g.d.g.d.g.g.g.g.g.g.g.g.g.g.g.p.w.0     W #.X.X.X.X.X.X.X.X.X.o.X.X.X.o.",
"X.X.X.X.X.o.X.X.X.o.X.X.X.X.+.' .   9 g.g.g.g.d.g.g.g.g.g.g.g.g.g.g.g.g.g.g.g.g.g.g.g.g.g.g.g.g.g.f.g.g.g.e     ` +.X.X.X.X.X.X.X.X.X.X.X.X.X.X.",
"X.o.X.X.X.X.X.X.X.X.X.X.X.X.X...#   $ p.g.g.g.g.d.t.0.2.-.%.K S C C N N N N N C S J L -.,.7.r.i.g.g.g.g.d.*   @ | o.X.X.X.X.X.X.X.X.X.X.X.X.o.X.",
"X.X.X.X.o.X.X.X.X.X.X.X.X.X.X.+.3     7.0.%.N 0 % .                                           $ 6 n K 5.7..   < +.X.X.X.X.X.X.X.X.o.X.X.X.X.X.X.",
"X.X.X.X.X.X.X.o.X.X.X.X.X.X.X. .#     .                                                                 .     #  .O.X.X.X.X.X.X.X.X.X.X.X.X.X.X.",
"X.X.X.o.X.X.X.X.X.X.X.X.X.X.+.(               % 7 v C J %.-.,.2.5.7.7.7.7.7.7.5.2.,.-.%.K C v 7 % .             ~ @.X.X.X.X.o.X.X.X.X.X.o.X.X.X.",
"X.X.X.X.X.X.X.X.X.X.X.X.o...#.x     . N %.5.r.d.g.g.g.g.g.g.g.g.g.g.g.g.g.g.g.g.g.g.g.g.g.g.g.g.d.t.5.*.C o     z #...X.X.X.X.X.X.X.o.X.X.X.o.X.",
"X.X.X.o.o.X.X.X.X.X.X.X.X.X.+.r     C g.g.g.g.g.g.g.f.f.g.g.g.g.g.g.g.g.g.g.g.g.g.g.g.d.d.g.g.g.g.g.g.g.g.S     3 +...X.X.X.X.X.X.X.X.X.X.X.X.X.",
"X.o.X.X.X.X.X.o.X.X.X.X.X.+.} X     ;.g.d.g.g.g.g.g.g.g.g.g.g.s.a.i.i.i.i.i.p.d.d.g.g.g.g.g.g.g.g.g.g.d.g.,.    O } +.X.X.X.X.X.X.X.X.X.X.X.X.X.",
"X.X.X.X.X.X.X.X.X.X.X.X...#.W       t.g.g.g.t.7.;.K S n w 5 4 * $ $ o o $ o o $ * 4 0 i N G *.1.q.u.g.g.g.t..     W @.X.X.X.X.X.X.X.o.X.o.X.X.X.",
"X.X.X.X.o.X.X.X.X.X.X.X...#.j     5 0.%.n * .                                                     . 4 N %.0.5     h #.X.o.X.X.X.o.X.X.X.X.o.X.X.",
"X.X.X.o.X.X.X.X.X.X.X.X.X.X.;     .               . .                                 .   .   .             .     ; X.o.X.X.X.X.X.X.X.X.X.X.X.X.",
"X.X.X.X.X.X.X.o.X.X.X.X.X.X.u         . .                                                             . .         2 ..o.X.o.X.X.X.X.o.X.X.X.X.X.",
"o.X.X.X.X.X.X.X.X.X.X.X.X.o.+.Q y X               .                                                         . 3 T X.o.X.X.X.X.X.X.X.X.X.X.X.X.o.",
"X.X.X.X.o.X.X.X.X.X.X.X.o.X.X.+.#.} Q l r # .                                                       @ 2 g R [ +.#.+...X.X.X.X.X.X.X.X.X.X.X.o.X.",
"X.X.X.X.X.X.X.X.X.o.X.X.X.X.X.X.X.O.#.#.+...] ~ Y z f y 3 > = # @ O X X X X O + # = ; 2 r s l U Q '  .+.#.#.+.X...X.X.X.X.X.X.X.o.X.X.X.X.X.X.X.",
"X.o.X.X.X.X.X.o.X.X.X.X.X.X.X.X.X.X.X...X.X.+.+.#.#.#.+.+.O.X. .| | } { [ [ } |  .X.o.+.+.#.#.#.#.+.o.X.......X.X.X.o.X.X.X.X.X.X.X.X.o.X.o.X.X.",
"X.X.X.X.X.X.X.X.X.X.X.X.X.X.X.X.X.X.X.X.X.X.X.X.X...X.X.X.X.X.o.O.o.+.o.+.+.+.O.o.o.X.X.X...X.X...X.X.X.o.X.X.X.X.X.X.X.X.X.X.o.X.X.X.X.X.X.X.X.",
"X.X.X.X.X.X.X.X.X.X.X.o.X.X.X.o.X.X.X.X.X.X.X.X.X.X.X.X.X.X.X.X.X.X.X.X.X.X.X.X.X.X.X.X.X.X.X.X.X.X.o.X.o.X.X.o.o.X.X.X.X.X.X.X.X.X.X.X.X.X.X.X.",
"X.X.X.X.X.o.X.X.X.X.X.X.X.X.X.X.X.X.X.X.X.X.X.X.X.X.X.X.X.X.X.X.X.X.X.X.X.X.X.X.X.X.X.X.X.X.X.X.X.X.X.X.X.X.X.X.X.X.X.X.X.o.X.X.X.X.o.X.X.X.X.o.",
"o.X.X.o.X.X.X.X.o.X.X.X.X.X.X.X.X.X.X.X.X.X.X.X.X.X.X.X.X.X.X.X.X.X.X.X.X.X.X.o.X.X.X.X.X.X.X.X.X.X.X.X.o.X.X.X.X.X.X.o.X.X.X.X.X.X.X.X.o.X.X.X.",
"X.X.X.X.X.X.X.o.X.X.X.X.X.o.X.X.X.X.X.X.X.X.X.X.X.X.X.X.X.X.X.X.X.X.X.X.X.X.X.X.X.X.X.X.X.X.X.X.o.X.X.X.X.X.X.X.X.X.X.X.X.X.X.X.X.X.X.X.X.X.X.X."
};
