/* XPM */
static char *kdl__[] = {
/* columns rows colors chars-per-pixel */
"80 80 137 2",
"   c #00DC00CE00BE",
".  c #085F06C104D5",
"X  c #0BEA0981069F",
"o  c #0C4E0BF00B7E",
"O  c #105D0C34072E",
"+  c #11E70DC508D2",
"@  c #163E10C00A2B",
"#  c #1AC013F80BD4",
"$  c #13E113831312",
"%  c #1C7F1C131B92",
"&  c #1FA717920DDF",
"*  c #218119200F0F",
"=  c #25A81C1E10AD",
"-  c #27CC1E4D12E1",
";  c #2D4C21DB1420",
":  c #3081241F1542",
">  c #3643286A17CC",
",  c #3BB82C7C1A34",
"<  c #23E9237A22F4",
"1  c #27FC277A26DE",
"2  c #28AF2800272E",
"3  c #2C2C2BAF2B1A",
"4  c #30652FEC2F5B",
"5  c #3408338332E5",
"6  c #3805377E36DC",
"7  c #38DA38203743",
"8  c #3C223B993AF6",
"9  c #451A33731E43",
"0  c #496536A8202B",
"q  c #4DE53A082233",
"w  c #53403E06248D",
"e  c #40463FB03EFD",
"r  c #56B04094260A",
"t  c #586041CF26BB",
"y  c #5C2244A52875",
"u  c #408A40033F63",
"i  c #600E47892A1D",
"p  c #63E74A6C2BD9",
"a  c #69894E972E41",
"s  c #6DFF51EA3037",
"d  c #720E54EE31FD",
"f  c #774658D23447",
"g  c #7B6A5BE83618",
"h  c #7FA65F0C37EE",
"j  c #447643EB4345",
"k  c #4800475F469E",
"l  c #488E48084768",
"z  c #4D1B4C844BD0",
"x  c #505A4FA04EC2",
"c  c #512550794FAD",
"v  c #5500546D53BE",
"b  c #581F579B56FB",
"n  c #592C588257B6",
"m  c #5B6F5AD85A25",
"M  c #60565FC55F18",
"N  c #64E7645563A5",
"B  c #685167A566D6",
"V  c #6900685D6799",
"C  c #6C1E6B856ACD",
"Z  c #70DE70596FA9",
"A  c #74B77428737E",
"S  c #786D77D07713",
"D  c #78E3785777AF",
"F  c #7C8E7BF57B3E",
"G  c #80175F623824",
"H  c #86A864483B08",
"J  c #8A5067003CA0",
"K  c #8DB269843E1B",
"L  c #90A06BAB3F51",
"P  c #94AD6EB8412C",
"I  c #9721708B423E",
"U  c #9C2A744B4472",
"Y  c #A0F577DC468C",
"T  c #A2EF79554769",
"R  c #A69F7C154909",
"E  c #A9577E1B4A3A",
"W  c #AD2F80F64BE7",
"Q  c #B2D4852C4E63",
"!  c #B67187E04FFE",
"~  c #B70E8851503B",
"^  c #BAE78B2D51E8",
"/  c #C0F38FB05492",
"(  c #C475924C561C",
")  c #CA10967A5892",
"_  c #CE8799CD5A87",
"`  c #D4429E115D08",
"'  c #D7EAA0CA5EA3",
"]  c #D949A1D05F3E",
"[  c #DD50A4D76105",
"{  c #E13CA7BB62B9",
"}  c #E785AC686579",
"|  c #EBCEAF99675A",
" . c #ECE4B06867D4",
".. c #EEADB1BD689D",
"X. c #F3F1B5A86AEB",
"o. c #F804B8B26CB5",
"O. c #FB20BB026E11",
"+. c #FFFFBFD470E8",
"@. c #FFFFC5227407",
"#. c #FFFFC8A37617",
"$. c #846F83E28338",
"%. c #883487A386F4",
"&. c #8924888D87D8",
"*. c #8D498CB28BFD",
"=. c #906C8FC68EFF",
"-. c #911990878FD6",
";. c #94AB9413935C",
":. c #991A987E97C3",
">. c #9C479BC59B29",
",. c #A0F0A0529F95",
"<. c #A523A494A3E8",
"1. c #A8BEA805A726",
"2. c #A947A8B1A7FC",
"3. c #ACF3AC61ABB3",
"4. c #B074AFEBAF46",
"5. c #B485B3FBB357",
"6. c #B8B3B815B759",
"7. c #B93CB88DB7BB",
"8. c #BC45BBC1BB23",
"9. c #C0A9C02BBF94",
"0. c #C0FFC083BFEF",
"q. c #C4E5C45AC3B2",
"w. c #C925C8ACC81B",
"e. c #CD18CC9ACC04",
"r. c #D494D41DD38E",
"t. c #DCDFDC6FDBE9",
"y. c #E0B9E02DDF87",
"u. c #E109E09DE01B",
"i. c #E4B3E447E3C6",
"p. c #E86DE80FE79F",
"a. c #ECBCEC62EBF5",
"s. c #F0CCF06BEFF7",
"d. c #F10CF0B6F04E",
"f. c #F667F641F614",
"g. c #F89EF85DF810",
"h. c #F8E8F8AAF860",
"j. c #FEE2FEE0FEDE",
/* pixels */
"| | | | |  .| | | |  .| | | | |  .| | | | | | | | | | | | | |  .| | | | | | | | | | | | | | | | | | | | | | | | | | | | | | |  .| |  .| | | |  .| | | | | | | | ",
"| | | | | | | | | | | | | |  .| | | | | | |  .| | |  .| | | | | | | | | |  .| | | | | | | | | | | | | |  .| | | |  .|  .| | | | | | | | | | | | | | | | |  .| | ",
"| | | | | | |  . .| | | | | | | | | |  . .| | | | | | |  .| | | | |  .| | | | | | | | | | | | | | | | | | | | | | | | | | | | | | | | | | | | | | | |  .| | | | ",
"|  .| | | | | | | | | | | | | | | | | | | | | | | | | | | | | | | | | | | |  .| | | | | | | | | | | | | | | |  .| | | |  .| | | | |  .| |  .| | | | | | | | | | ",
"| |  .| | | | | | | | |  .| | | | | | | | | |  . .| | | | | | | | | | | | | | | | | | | | | | | | | | | | | | | | | | | | | | |  .| | | | | | | | | | | | |  .| ",
"| | | | | | | | | | | | | | | | |  .| | | | | | | | | |  .| |  .| | | | | | | o.o.| | | | | | |  .|  .| | | | |  .| | | | | | | | | | | | |  .| |  .| | | | | | ",
"| | | | | |  .| |  .|  .| | | | | | | | | | | | | | | | | | | |  .| |  .| | ..~ ^  .| | | | | | | | | | | | | | | | | | | |  .| | | | | | | | | | | |  .| | | | ",
" .| | | | | | | | | | | | | |  .| | | | |  .| | | |  .| | | | | | | | | } o.E     Q o.| | | | | | | | | |  .| | | |  .| | | | | | | |  .| | | | | | | |  .| | | ",
"| | | | | | | | | | |  .| | | | | | | | | | | | | | | | | | | | | | |  .} O.K     P O.} | | | | | | | | |  .| | | |  .| | | | | |  .| | | | | | |  .| | | |  .| ",
"| | |  . .| | | | | | | | | | |  .| | | |  .| | | |  .| | | | | | | | } { o.J     P o.{ } | | | | | | | | | | | | | | | | |  .| | | | | | |  .| | | | | | | | | ",
"|  .| | | | | | | | | | | | |  .| | | | | | |  .| | | | |  .| | | | o.O.o.@.P     U #.o.O.o.| |  .|  .| | | | |  .| | | | | | | | | |  . .| | | | | | | | | | | ",
"| | | | | |  .| |  .| | | | | | | | | | | | | | | | | | | | | | | X.Y y p a ,     , a p y U  .| | | | | | | |  .| | | | | | | | | | | | | | | | | | | |  .| | | ",
"| | | | | | | | | | |  .| | | | | | |  .| | | |  .| | | | | | |  .{ #                     O [ X.| | | | | | | | | | | | | | | | | | | | | | |  .| | | | | |  .| ",
"| |  .| |  .| | | | | | |  .| | | | | | | | | | | | | |  .| | | | ..q . O O .     . X X . 9 | | | | | | | | | | | | | |  .| | | |  .| | | | | | |  .| | | | | | ",
"| | | | | | | | | | | | | | | |  .| | |  .| |  .| | |  .| | | | | .. .` ` } h     h { ` ` | ..| | | | |  .| | | |  .|  .| | | | | | | | | | | | | | | | | | | | ",
"| | | | | | | | |  .| | |  .| | | | | | | | | | | | | | | | |  .| | | X. .+.K     L +. .X.| | | | | | | | | | | | | | | | | |  .| | | | |  .| | | |  .| | |  .| ",
" .| | | |  .| | | | | |  .| | | | | | | | | |  .| | | | | | | | | | | | } O.J     L o.} | | | | | | | | | | | | |  .| | |  .| | | | | | | | | | | | | |  .| | | ",
"| | | | | | | | | | | | | | | |  .| |  .| | | | | |  .| | | | | | | | | } O.J     K o.} | | | | |  .| | | | | | | | | | | | | | | | |  .| | | |  .| | | | | | | ",
"| | | | |  .| | | | | | | | | | | | | | | | | | | | | | |  .| | | | | | } @.U     Y @.| | | | | | | | | | | | | | | | | |  .| | | | | | | |  .| | | | | | | | | ",
"| | |  .| | | | | | | | | |  .| | | | |  .| | | |  .| | | | | | | | } o. .R w # # w Y | o.} | | |  .| | | | | | | | |  .| | | |  .| | | | | | | | |  .| | | |  .",
"|  .| | | | | | | | | | | | | | | | | | | | | | |  .| | | | | | | } O.^ ;             - ^ o.| | | | | | | | | | | | | | | | | | | | | | | | | | | | | | | | | | ",
"| | | | | | |  .| | | | | | | | | | | | | | | | | | | | | | | | } O.R .       $ o       . E o.}  .| | | | | | | | | | | | | |  .| | | | | | | | | |  .| | | | | ",
"| | | | | | | | | | | | | | | | | | | } } } | | | | | | | | | | o.) X   o $.r.a.p.q.z     X ) X.| | | | | | | | | } | | } } | | | | | | | | | |  .| | | |  .| | ",
"| | | |  .| | | | | | | | | } | ..o.O.O.O.O.o.X. .} } | | | | } o.q     5.j.j.j.j.j.j.A     w O.| | | | | } }  .X.O.O.O.O.O.o.X.| } | | | | | | | | | | | | | | ",
"| | | | | | | | | | | | |  .O.X.` Q I H H P E _ | O.O...} | | X._ X   z j.h.j.h.f.j.j.j.5   + ` ..| | } X.O.O.| ( Y H g h J R ) ..O.X.} | | | | | | | | | | |  .",
"|  .| | | | | | |  .| | O.{ K , X             . - t U [ O.o.} X.T     *.j.j.>.% % *.j.j.*.    W o.} o.O.] I w # .             . ; h [ O.| | | | |  .| | | | | | ",
"| | | | | | | | | | | o.P #                           @ p ~ ..@.P     <.j.f.;     $ a.j.3.    U @.} W r +                           + J o. .| | | | | | | | | | ",
"|  .| | | | | | | ....r         3 V ;.1.3.<.*.V 6 o         ; I I     *.j.d.%     $ i.j.;.    I K =         . 1 v D ;.>.;.F b %         q | ..|  .| | | |  .| | ",
"| |  .| | | | | | ..9   .   z e.j.j.j.j.j.j.j.j.j.i.<.z .       + .   l j.j.m     n j.j.z   . X         7 *.r.j.j.j.j.j.j.j.j.h.7.e   .   9 ..| | | | | |  .| | ",
"| | | | | | | } o.t     . <.j.j.j.h.j.j.j.j.j.j.j.j.j.j.t.C o         o t.j.7.    5.j.t.o         . b e.j.j.j.j.j.j.j.j.j.j.h.j.j.j.;.. .   y O.| | | | | | | | ",
"| | | | | | } O.K     . 6.j.h.j.j.j.i.7.>.*.;.3.t.j.j.j.j.j.i.v         *.j.j.3 3 j.j.*.    .   u r.j.j.j.j.h.r.3.;.*.>.8.a.j.j.h.h.j.4.      P O.} | | | | | | ",
" .| | | | | X.` O     ;.j.h.j.h.<.8 o             3 *.a.j.h.j.j.;.  .   5 h.j.*.*.j.h.3   .   F j.j.h.j.i.F <             o k 5.j.j.h.j.=.    @ ] ..| | | | | | ",
"| | | | | } O.p     j j.j.j.i.6         .   .         $ ;.j.j.f.j.>.  .   3.j.i.y.j.3.  .   %.j.h.j.f.$.@         .   .         z f.j.j.j.j     s O.} | | | | | ",
"| | | | | X.] O     5.j.j.f.5   .                   .     7 t.j.h.j.F     j j.h.j.j.8     V j.h.j.r.<                         .   z j.h.j.5.    # [ ..| | | | | ",
"| | | | } O.I     % d.j.j.;.  .                         .   < i.j.h.j.8     8.j.j.5.    5 f.j.j.e.$   .                         .   3.j.j.f.%     R O.} | | | | ",
"| | | | } O.a     j j.j.j.j                               .   5 f.j.j.e..   c j.j.z     q.j.j.i.%                               .   N j.f.j.z     d O.} | | | | ",
" .| | | } O.w     N j.j.h.1                                 .   N j.h.j.N   o i.i.o   m j.j.j.j   .                                 j j.h.j.V     r O.} | | | | ",
"| | | | | O.w     C j.j.f.%                                       3.j.j.e.o   3.<.    w.j.j.*.                                      3 j.j.j.A     w O.| | | | | ",
"| | | | } O.a     N j.j.h.<                                       < f.j.j.z   m b   j j.j.i.$                                       7 j.h.j.Z     a O.} | | | | ",
"| | |  .} O.H     z j.h.j.z                                     .   -.j.j.<.  o o   ;.j.j.A                                     .   B j.h.j.b     J O.| | | | | ",
"| | | | | o.W     < h.j.j.3.  .                                     5 j.j.i.o     . t.j.a.%                                         q.j.j.j.3     ~ o.} | | | | ",
"| |  .| | ..[ @     e.j.h.j.b   .                                   o t.j.j.5     5 j.j.9.                                    .   V j.j.j.r.    # { | | | |  .| ",
" .| | | | } O.w     N j.h.j.f.8                                       7.j.j.b     m j.j.:.                                      x j.j.h.j.A     i O.| | | | | | ",
"| | | | | | O.Q       w.j.h.j.a.5   .                                 >.j.j.C     A j.j.A   .                                 v h.j.j.j.r.o     ^ o.| | | | | | ",
"| | | | | | | o.q     < p.j.h.j.a.5                   . .     . . .   $.j.j.F     $.j.j.m   .     .       .                 m j.j.h.j.s.5     t O.} | | | | | | ",
"| | | | | | } X._ O     3 i.j.f.j.f.8   .                             V j.j.%.    *.j.j.l   .                     .   .   V j.j.h.j.i.5     # ] X.| | | | | |  .",
"| | | | | | | } O.R       % w.j.h.j.f.5         o < 7 v B F *.>.1.4.5.r.j.j.*.    *.j.j.e.5.3.<.:.*.D N z 7 % .         m j.h.j.j.q.%     . Q O.} | | | | | | | ",
"| | | | | | | | } O.U   .   . ;.j.h.j.i.5 v :.w.i.h.j.j.j.j.j.j.j.j.j.j.h.j.;.    ;.j.h.j.j.j.j.j.j.j.j.j.j.h.i.8.;.z j f.j.j.j.*.      . R O.} | | | | |  .| | ",
"| | | | | | |  .| | O.E .   .   m f.j.j.j.j.j.j.j.j.j.j.j.j.j.j.j.j.j.j.j.j.;.    :.j.j.j.j.j.j.j.j.j.j.j.j.j.j.j.j.j.j.h.j.f.v   .   X ~ O.} | | | | | |  .| | ",
"| | |  .| | | | | | } O.( #   .   3 t.j.j.j.j.j.j.j.f.t.q.3.;.%.A V m v z z 3     3 b m N V D %.;.3.8.r.a.j.j.j.j.j.j.j.j.i.4   .   * ) O.| | | | | | | | | | | ",
"| | | | | | | | | | | } o.' >   .   $ e.h.e.3.D v 5 $                                                   o < j N -.7.t.j.r.%   .   9 [ o.} | | | | | | | | | |  .",
"| | | |  .| | | | | | | } X...H +     o %                     .   . .   .           .     .   .   .                 . 3 $     # P o...} | | | | | | | | | | | | ",
" .| | | | | | | | | | | | | | @.!             .       .   . .                                   .   .   .     .               ^ @.} | | | | | | | | |  .| | | | ",
"| | | | |  .|  .| | | | | | | | [ +                                       . . . . . .                           . .     .   X [ | | | | | | | | | | | | | | | | ",
"| | | | | | | | | | | | | | | | ..:               . % 7 b A &.>.5.8.e.r.t.t.t.i.y.i.y.t.r.e.q.5.<.;.D m j < o               ; ..| | | | |  .| | | | | | | |  .| ",
"| |  .| | | | | | | | | | | | } O.r       < b *.8.u.h.j.j.j.j.j.j.j.j.j.j.j.j.j.j.j.j.j.j.j.j.j.j.j.j.j.j.j.p.w.>.N 3 .     w O.| | | | | | | |  .| | | | | | | ",
"| | | |  .| | | | | | | | | | } O.g     < h.j.j.j.j.j.j.h.h.f.f.f.h.h.j.j.j.j.j.j.j.j.j.h.j.h.h.h.h.f.f.j.j.j.j.j.j.j.6     f O.} | | | | | | | | | |  .| | | | ",
"| | | | | | | | | | | | | | | | o.R     $ f.j.f.h.j.j.j.j.j.j.j.j.j.j.j.j.j.j.j.j.j.j.j.j.j.j.j.j.j.j.j.j.j.j.h.f.h.f.%     U O.} | | | | | | | | | | |  .| | | ",
"|  .|  .| | | | | | | | | | | | o.)       r.j.j.j.j.f.r.8.<.%.A N c j 7 5 3 3 3 1 3 3 5 7 u z m C $.>.5.e.a.h.j.j.j.t..     ( o.| | | | | | | | | | | | | |  .| ",
"| | | | | |  .| | | | | | | | | ..{ @     <.e.*.m 5 $                                                     o 3 z F q.1.    X [ ..| | | | | | | | |  .| | | | | | ",
"| | | | | | | | | | | | | | | } X.(       o                                                                         .       / o.| | | |  .| | | | | | | | | | | ",
"| | |  .| | | | | | | | | | | } o.P                   o < 5 j m V A $.*.;.>.>.>.<.>.>.;.*.$.S C m j 5 < $                   H O.} | | | | | | | | |  .| |  .| | ",
"| | | | | | | | | | | | | | | | o.q       @ 7 N *.5.r.a.h.j.j.j.j.j.j.j.j.j.j.j.j.j.j.j.j.j.j.j.j.j.j.h.a.r.5.;.N 8 $       9 O.| | | | | | | | | | | | | | | | ",
"| | | | | | | | | | | | | | | | { #     3 a.j.j.j.j.j.j.j.j.j.h.h.h.f.h.h.f.h.h.f.h.h.h.f.h.h.h.h.j.j.j.j.j.j.j.j.j.f.7     @ { ..| | | | |  .| | | | | | | | | ",
" .| | | |  .| | | | | | | | | o.Q   .   Z j.h.h.h.h.h.j.j.j.j.j.j.j.j.j.j.j.j.j.j.j.j.j.j.j.j.j.j.j.j.j.j.h.h.h.h.h.j.F   .   Q o.| | | | | | | | |  .| | | |  .",
"| | | | | | | |  .| | | |  .} O.g   .   3.j.j.j.j.j.j.j.h.a.r.e.7.3.<.;.*.*.%.$.$.%.*.*.;.<.5.8.e.i.a.j.j.j.j.j.j.j.j.7.  .   f O.} | | | | | | | | | | | | | | ",
"| | | | | | | | | | | | | | | o.,     $ a.j.f.e.<.D b 5 % o .                                     . $ 3 j N *.3.r.f.j.a.$     , X.} | | | | | | | | | | | | | | ",
"| |  .| |  .| | | | | | | | X.` X     2 -.z $                     .       .   . .   .     .                       % l *.3     X ' X.| | | | | | | |  .|  .| | | ",
"| | | | | | |  .| | | | | } O.U   .               . .                                                       .               .   I o.| | | | | | | | | | | |  .| ",
"|  .| | | | | | | | | | | | X.^ #       . .                                                                         . .       . E o.| | | | | |  .| | | | | | | ",
"| | | | | | | | | | | | | | | o.} H :                                                                   .                 # d ` o.| | | | | | | | | | | | | | | ",
"| | | |  .| | | | | | | | | | | | O.X.( J w - .                                                                   # 9 h ~ | O...| | | |  .| | | | | |  .| | | | ",
"| | | |  .| | | |  .| | | |  .| | } | X.O.O.| ` Q K s q > * + .                                 . O # : 9 a H E ) } o.O.o.| } | | | | | |  .| | | | |  .| | | | ",
"|  .| | | | | | | | | | | | | | | | | | } } | X.O.O.O.O.X.| ] ` ( ~ W E Y I I P P I I U R W ~ ( _ ] } X.o.O.O.O.X.| | } | | | | | | | | | | | | | | | | | |  .| ",
"| | | | | | |  .|  .| | | |  .| | | | | | | | | } | } } } | X.X.X.o.o.O.O.O.O.O.O.O.O.O.O.o.o.X.X... .| | } } | | | | | | | | | | | | | | |  .|  .| | | | | | | ",
"| |  .| | | | | | | | | | | | | | | | | | | | | | | | | | | | | | | } | | } | } | | } } | } | | | | | | | | | | | | | | | | | | | | | | | | | | | | | | |  .| | ",
"| |  .| | | | | | | | |  .| | | | | | | | | | | | | | | | | | | | | | | | | | | | | | | | | | | | | | | | | | | | | | | | | | | | | | | | | | | | | | | |  .| | ",
"| | | | | | | | | | | | | | | | | | | | | | |  .| | | | | | | | | | | | | | | | | | | | | | |  .| | | | | | | | | | | | | | | | | | | | | | | | | | | | | | | | ",
" .| | | |  .| | | | | | | | | | | | | | | | | | | | | | | | | | | | | | | | | | | | | | | | | | | | | | | | | | | | | | | | | | | | | | | |  .| |  .| | | | | | ",
"| | | | | | | | |  .| | | |  .| | | | | | | | | | | | | | | | | | | | | | | | | | | | | | | | | | | | | | | | | | | | | | | | | | | | | | | | | | | | | | | |  ."
};
