/* XPM */
static char *kdl__[] = {
/* columns rows colors chars-per-pixel */
"88 88 139 2",
"   c #00DC00CC00BB",
".  c #07FF06C80553",
"X  c #0C74099F0638",
"o  c #0BB00B510AE0",
"O  c #0FDA0BD30700",
"+  c #12770E3F0930",
"@  c #169410ED0A25",
"#  c #1B2814480C08",
"$  c #1F7517990E2A",
"%  c #140213981318",
"&  c #183317A81701",
"*  c #1BB31B4A1ACC",
"=  c #217C18F00EAD",
"-  c #24E01B8A1057",
";  c #291A1E9C1205",
":  c #1FD11F561EC4",
">  c #2D4D21C013E4",
",  c #2088201A1F96",
"<  c #32E525E71650",
"1  c #359727EA177F",
"2  c #371C290A1828",
"3  c #3C8D2D181A8B",
"4  c #241723982300",
"5  c #2831278E26CB",
"6  c #282727BF2742",
"7  c #2BD82B4A2A9F",
"8  c #2FF12F682EC4",
"9  c #30C430322F82",
"0  c #338132F73252",
"q  c #37E1375E36C0",
"w  c #38A83819376E",
"e  c #3BDF3B513AA6",
"r  c #3FC02F7C1BF7",
"t  c #440232A61DD2",
"y  c #481B35B21F9B",
"u  c #4916366D2009",
"i  c #4D47398C21E0",
"p  c #52163D2223FD",
"a  c #3FDE3F463E8F",
"s  c #577A41232656",
"d  c #598242A9273E",
"f  c #5E0146012935",
"g  c #40BB40273F75",
"h  c #63644A032B8F",
"j  c #69DE4ED62E67",
"k  c #6BD050492F42",
"l  c #6DF751E43034",
"z  c #7388560832A2",
"x  c #771B58B33436",
"c  c #7B535BD8360E",
"v  c #7F9B5F0837F1",
"b  c #44FF446843B1",
"n  c #485347B846FF",
"m  c #489047FA4746",
"M  c #4B714AD54A19",
"N  c #50214F814EC1",
"B  c #50B950174F53",
"V  c #542B538452BB",
"C  c #584B57C45721",
"Z  c #590758605798",
"A  c #5C705BCF5B0E",
"S  c #60165F655E92",
"D  c #647663D06309",
"F  c #6917687867BA",
"G  c #6CF16C436B71",
"H  c #70376F9E6EE6",
"J  c #70D070476FA3",
"K  c #74AF74027332",
"L  c #789A77EA771A",
"P  c #7B907B017A54",
"I  c #808C5FBA3858",
"U  c #847462A33A0E",
"Y  c #8A0966CB3C7F",
"T  c #8D8169603E05",
"R  c #92B06D3C404B",
"E  c #970E707C4235",
"W  c #9C3E745A447B",
"Q  c #A10C77EE4696",
"!  c #A6427BCF48DF",
"~  c #A9C07E694A67",
"^  c #AD1580E54BDD",
"/  c #B2BB85194E56",
"(  c #B7C488D9508B",
")  c #BC388C2B5280",
"_  c #8111805D7F87",
"`  c #C4D992975648",
"'  c #CA6A96BC58B8",
"]  c #CF409A565AD7",
"[  c #D4349E065D02",
"{  c #D7D1A0B75E97",
"}  c #DA51A2935FB0",
"|  c #DDD5A532613B",
" . c #E0BDA75C6281",
".. c #E756AC456565",
"X. c #EBD4AF9E675D",
"o. c #ECE1B06667D3",
"O. c #EF06B1FF68C4",
"+. c #F3EEB5A66AEA",
"@. c #F7F2B8A46CAD",
"#. c #FB32BB106E19",
"$. c #FF7ABE3F6FFA",
"%. c #FFFFC80B75BD",
"&. c #FFFFC98A769E",
"*. c #84F6844A837D",
"=. c #884887658657",
"-. c #897288C887FD",
";. c #8CF48C418B6B",
":. c #90728FBB8EE0",
">. c #90C990338F7F",
",. c #954694A893EB",
"<. c #987297AE96BD",
"1. c #997398C097E7",
"2. c #9DAA9D099C48",
"3. c #A03B9F7F9E9E",
"4. c #A141A0929FC2",
"5. c #A465A3BBA2F0",
"6. c #A84BA7B0A6FB",
"7. c #ACA9AC0CAB4F",
"8. c #B4C9B42DB371",
"9. c #B862B7CCB718",
"0. c #BC45BBADBAF7",
"q. c #C11DC08BBFDD",
"w. c #C4CEC441C398",
"e. c #C8AEC82BC78D",
"r. c #C8FDC871C7C8",
"t. c #CD52CCC3CC16",
"y. c #D10ED092CFFD",
"u. c #D444D3C6D32E",
"i. c #DCC9DC50DBBD",
"p. c #E132E0BCE02F",
"a. c #E509E499E412",
"s. c #E87DE80CE786",
"d. c #E934E8BDE82F",
"f. c #ED8AED25ECAC",
"g. c #F11FF0CBF065",
"h. c #F628F5E9F59D",
"j. c #F890F841F7E1",
"k. c #F916F8BAF84C",
"l. c #FE99FE96FE93",
/* pixels */
"X.X.X.X.X.X.X.X.X.X.X.X.X.X.X.X.X.X.X.X.X.o.X.X.X.X.X.X.X.X.X.X.X.X.X.o.X.X.X.X.X.X.X.X.X.X.X.X.X.X.X.X.X.X.X.X.X.X.o.X.X.X.X.X.X.X.X.X.X.X.X.X.X.X.X.o.X.X.X.X.o.X.X.X.X.X.X.X.",
"X.X.X.X.X.X.X.o.X.X.X.X.X.X.X.o.X.X.X.X.X.X.o.X.X.X.X.X.X.o.X.X.X.X.X.X.X.X.X.X.X.X.X.X.X.X.X.o.X.X.X.X.X.X.X.X.X.o.X.X.X.X.X.X.X.X.o.X.X.X.X.X.X.X.X.X.X.X.X.X.X.X.X.X.X.X.o.X.",
"X.X.X.X.X.X.o.X.X.X.X.X.X.X.X.X.o.X.X.X.X.X.X.X.X.X.X.o.X.X.X.X.o.X.X.X.X.X.X.X.X.X.X.X.X.X.X.X.X.X.o.X.X.o.X.X.X.X.X.X.X.X.X.X.X.X.o.X.X.X.X.X.X.X.X.X.X.X.X.X.X.X.X.o.X.X.X.X.",
"o.X.X.X.X.X.X.X.X.X.X.o.X.X.X.X.X.X.X.X.X.X.X.X.X.X.X.X.X.X.X.X.X.X.X.X.X.X.o.X.X.X.X.X.X.X.X.X.X.X.X.X.X.X.X.X.X.X.X.X.X.X.X.o.X.X.X.X.X.X.o.X.X.X.X.X.X.o.X.X.X.X.X.X.X.X.X.X.",
"X.X.X.X.X.X.X.X.X.o.X.X.X.X.X.X.o.X.X.X.X.X.X.X.X.X.X.X.o.X.X.X.X.X.X.X.X.X.X.X.X.X.X.X.X.X.X.X.X.X.X.o.X.X.X.X.X.X.X.X.X.X.X.X.X.X.X.X.o.X.X.X.X.o.X.X.X.X.X.X.o.X.X.X.X.o.X.X.",
"X.X.X.X.X.X.X.X.X.X.X.X.o.X.X.X.X.X.X.X.X.X.X.X.X.X.X.X.X.X.X.o.X.X.X.X.X.X.o.X.X.X.X.....X.X.X.o.X.X.X.X.X.X.X.X.X.X.X.X.X.X.o.X.X.X.X.X.X.X.X.X.X.X.o.X.X.X.X.X.X.X.X.X.X.X.X.",
"X.X.X.o.X.X.X.X.X.X.X.X.X.o.X.X.X.X.X.X.X.X.o.X.X.X.X.X.X.X.X.X.X.X.X.o.X.X.X.X.X.X.+.#.#.O.X.X.X.X.X.X.X.X.X.o.X.o.o.X.X.X.X.X.o.X.X.X.X.X.X.X.X.X.X.X.X.X.o.X.X.X.X.X.X.X.X.X.",
"X.X.X.X.X.o.X.X.X.X.X.X.X.X.X.X.X.X.X.X.X.o.X.X.o.X.X.X.X.X.X.X.X.o.X.X.X.X.X.X.X.O.} k l | o.X.X.X.X.X.X.X.X.X.X.X.X.X.X.X.X.X.X.X.X.X.X.X.X.X.X.X.X.X.X.X.X.X.X.X.X.X.o.X.X.X.",
"X.X.X.X.X.X.X.X.X.X.X.X.o.X.X.X.X.o.X.X.X.X.X.X.X.X.X.X.X.X.X.X.X.X.X.X.X.X.X.X.X.#.x     U #.X.X.X.X.X.X.X.X.X.X.X.X.X.X.X.X.o.X.X.X.X.X.X.o.X.X.X.X.X.X.X.X.X.X.X.X.X.X.X.X.X.",
"X.X.X.X.X.X.o.X.X.X.X.X.X.X.X.X.X.X.X.X.X.X.X.X.X.X.X.o.X.o.X.X.X.X.X.X.X.X.X.X...#.j     z #...X.X.X.X.X.X.X.X.X.X.X.X.X.X.X.X.X.X.X.X.X.o.X.X.X.X.X.X.X.X.X.o.X.X.X.o.X.X.X.X.",
"X.X.X.o.X.X.X.X.X.X.X.X.X.X.X.X.X.X.X.X.X.X.X.X.X.X.X.X.X.X.X.X.X.X.X.X.X.X...X. .#.j     z @.......X.X.X.X.X.X.X.X.X.X.X.X.X.X.X.o.X.X.X.X.X.X.o.X.X.X.X.X.X.X.X.X.X.X.X.X.X.X.",
"X.o.X.X.X.X.X.X.o.X.X.X.X.o.X.X.X.X.X.X.X.o.X.X.X.X.X.X.X.X.X.X.X.X.X.o.X.o.#.#.#.&.z     v &.+.#.#.O.X.X.X.X.X.X.X.o.X.X.X.X.X.X.X.X.X.X.X.X.X.X.X.X.o.X.X.X.X.X.X.X.X.o.X.X.X.",
"X.X.X.X.X.o.X.X.X.X.X.X.X.X.X.X.X.X.X.o.X.X.X.X.o.X.X.X.X.X.X.X.X.X.X.X.o. .T I I Y 3     r Y U U Y | +.X.X.X.X.X.X.X.X.X.X.X.X.X.o.X.X.X.X.X.X.X.X.X.X.X.X.X.X.X.X.o.X.X.X.X.X.",
"X.X.X.X.X.X.X.X.X.X.X.o.X.X.X.X.X.X.X.X.X.X.o.X.X.X.X.X.X.X.o.X.X.X.X...#.x   .                     j #...X.X.X.X.o.X.X.o.X.X.X.X.X.X.X.X.X.X.X.X.X.X.X.o.X.X.X.X.o.X.X.X.X.X.X.",
"X.X.X.X.X.X.X.X.X.X.X.X.X.X.o.X.X.X.X.X.X.X.X.X.X.X.X.X.X.X.X.o.X.X.X.X.#.x                         k #.X.X.X.X.X.X.X.X.X.X.X.X.X.X.X.X.X.X.X.o.X.X.o.X.X.X.X.X.X.X.X.X.X.X.X.X.",
"X.X.X.o.X.X.X.X.o.X.X.X.X.X.X.X.X.X.o.X.X.X.X.X.X.o.X.X.X.X.X.X.o.X.X.X.O. .R U U T 3     3 U I U T  .O.X.o.X.X.X.X.X.X.X.o.X.X.X.X.X.X.o.X.X.X.X.X.X.X.X.X.X.X.X.X.X.X.X.X.X.o.",
"X.X.X.X.X.X.X.X.X.X.X.X.X.X.X.o.X.X.X.X.X.X.X.X.X.X.X.X.X.X.X.X.X.X.X.X.X.X.#.#.@.&.z     z &.#.#.#.o.X.X.X.X.X.X.X.X.X.X.X.X.X.o.X.X.X.X.X.X.X.X.X.X.X.X.X.X.X.X.X.X.X.X.X.o.X.",
"X.X.X.X.X.o.X.X.X.X.X.X.o.X.X.X.X.X.X.X.X.X.X.o.X.X.X.X.X.X.X.X.X.X.X.X.X.X.X... .@.j     l +. .X.X.X.X.X.X.X.o.X.X.X.X.X.X.X.o.X.X.X.X.X.X.X.X.X.o.X.X.X.X.o.X.X.X.X.X.X.X.X.X.",
"X.X.X.X.o.X.X.X.X.o.X.X.X.X.X.X.X.X.X.o.X.X.X.X.X.X.X.X.X.X.X.X.X.X.X.X.X.X.X.X.X.#.j     z #.X.X.X.X.X.X.X.X.X.X.X.X.X.X.X.X.X.X.X.X.X.X.X.X.X.o.X.X.X.X.X.X.o.X.X.o.X.X.X.X.X.",
"X.o.X.X.X.X.X.X.X.X.X.X.X.X.X.X.X.X.X.X.X.X.X.X.X.X.X.X.o.X.X.X.X.X.X.X.X.X.X.X...#.j     l #...X.X.X.X.X.o.X.X.X.X.X.o.X.X.X.X.X.X.X.X.X.o.X.X.X.X.X.X.X.X.X.X.X.o.X.X.X.X.X.X.",
"X.X.X.o.X.X.X.X.X.X.o.X.X.X.X.X.o.X.X.X.X.X.X.X.X.X.X.X.X.X.X.X.X.X.X.X.X.X.X...X.%.v     U &.o...X.X.X.X.X.X.X.X.o.X.X.X.X.X.X.X.X.X.X.X.X.X.X.X.X.X.X.X.X.X.X.X.X.X.X.X.o.X.X.",
"X.X.X.X.X.X.X.X.X.X.X.X.X.X.X.X.X.X.X.X.X.o.X.X.X.X.X.X.X.X.X.X.X.X.X.X.X.X.X.#.} T t # # 3 Y [ #.X.X.X.X.X.X.X.X.X.X.X.X.o.X.X.X.X.X.X.X.X.X.X.X.X.X.X.X.X.X.X.X.X.X.X.X.X.X.X.",
"X.X.X.X.X.X.X.o.X.X.X.X.X.X.X.X.X.X.X.X.o.X.X.X.X.X.X.X.X.X.X.X.X.X.X.o.X.X.+.Y X             X U +.o.X.X.X.X.X.X.X.X.X.X.o.X.X.X.X.X.X.X.X.X.X.X.X.X.X.X.X.X.X.X.X.X.X.X.X.X.X.",
"X.X.X.X.X.X.X.X.X.X.X.o.X.X.X.X.X.X.X.X.X.X.X.X.X.X.X.X.X.X.X.X.X.X.X.X.X.+.h                     f +.X.X.X.X.X.X.X.X.X.X.X.X.X.X.X.X.X.X.X.X.X.X.X.X.o.o.X.X.X.X.X.X.o.X.X.X.X.",
"X.X.X.X.o.X.X.X.X.X.X.X.X.X.X.X.X.X.X.X.X.X.X.X.X.X.X.X.X.X.X.X.X.X.X...#.z     . D 6.w.w.1.0   .   z @...X.X.X.X.X.X.X.X.X.X.X.X.X.X.X.X.X.X.X.X.X.X.X.X.X.X.X.X.X.X.X.X.X.X.X.",
"o.X.X.X.X.X.X.X.X.X.X.o.X.X.X.X.X.X...X.O.O.O.O.X.......X.X.X.X.X.X.X.+.)     o q.l.l.l.l.l.l.K   .   ` +.X.X.X.X.X.X.X.X...X.X.o.+.O.o.X.X...X.X.X.X.X.X.X.X.X.X.X.X.X.o.X.X.X.",
"X.o.X.X.X.X.X.X.X.X.X.X.X.X.X...+.#.#.+...| |  .O.#.#.#.O.X.X.X.X.X...#.s     -.l.k.l.l.l.k.l.l.V     h #.X.X.X.X.X...O.#.#.+.X.| { { | X.#.#.+.X.X.X.X.X.X.X.X.X.X.X.X.X.o.X.X.",
"X.X.X.X.X.X.X.X.X.X.X.X.X...+.#.[ T s < $ @ @ # > i v / | #.@.X.X.X.X...=   . i.l.l.a.<.,.a.l.l.t.    - ..X...X.O.#.#.} ^ z t - @ X X @ ; u U ' +.+...X.X.X.X.X.o.X.X.X.X.X.X.X.",
"X.X.X.X.X.X.X.o.o.X.X.X.X.#.` p .                       @ p ! X.$.+.O.] .   * j.l.k.7     4 f.l.j.4   X [ O.+.#. .Q i +                       . t ) #.X.X.X.X.X.X.X.X.X.X.X.X.X.",
"X.X.X.X.X.X.X.X.X.X.X.O.O.k               . o .               = z ` $.[     4 k.l.t.  . .   0.l.l.7   . | #.) j #                                   h X.O.X.X.X.X.X.X.o.X.X.X.X.",
"X.X.o.X.o.X.X.X.o.X.+. .3         7 P 8.u.a.s.a.y.8.*.M %           t W +   + a.l.i..       u.l.d.%   @ W 3           . q J 2.0.u.u.u.w.2.D *     .   2  .+.X.X.X.X.X.X.X.X.X.o.",
"X.X.X.X.X.X.X.X.X.O. .<   .   0 9.l.l.l.l.l.l.l.l.l.l.l.f.7.V o       .       5.l.l.b     e l.l.6.                e <.a.l.l.l.l.l.l.l.l.l.l.j.5.4   .   > ..o.X.o.X.X.X.X.X.X.X.",
"X.X.X.X.X.X.X.X.X.O.u   o o K l.l.l.k.k.l.l.l.l.l.l.l.l.l.l.l.a.K o   .       V l.l.5.    1.l.l.M   .       . Z t.l.l.l.l.l.l.l.l.l.l.l.k.k.l.l.j.D   .   u +.X.X.X.X.X.X.X.X.X.",
"X.X.X.X.X.X.X...$.x   o . Q l.l.k.l.l.l.f.t.6.1.2.8.i.k.l.l.k.l.l.a.Z         o p.l.j.* : j.l.i.o         n u.l.l.l.l.l.j.u.8.2.2.7.t.h.l.l.l.k.l.l.K   .   v #...X.X.X.X.X.X.X.",
"X.X.X.X.X.X...@.)       A k.k.l.l.k.5.n %             4 J u.l.l.k.l.l.5..   .   -.l.l.K K l.l.*.        ;.l.l.k.l.l.r.D *             & V 8.l.l.l.l.l.C     . ` +.X.X.X.X.X.X.X.",
"X.X.X.X.X.X.X.+.u     & s.l.l.l.w.5         .   .         . Z a.l.k.k.l.8..     4 j.l.t.t.l.h.4   .   2.l.k.l.l.u.M             .           e i.l.k.l.s.&     p #...X.X.X.X.X.X.",
"X.X.X.o.X.X.@.)   .   *.l.k.l.w.o     .                       o >.l.l.k.l.5.  .   2.l.k.l.l.<.  .   ;.l.k.l.k.K         .               .     * i.l.k.l.-.    . ` +.X.X.X.X.X.X.",
"X.X.X.X.X...#.k     . i.l.l.l.7   .                         .     S l.l.k.l.G     8 l.l.l.k.4     A l.k.l.k.b   . .                         .   M l.l.l.i.o     x #...X.X.X.X.X.",
"X.X.X.X.X.X.O.<     0 l.k.l.0.                                  .   G l.l.l.h.4     6.l.l.6.    * d.l.l.l.V   .                                   u.l.l.l.e     3 +.X.X.o.X.X.X.",
"X.X.X.X.X.O.| @     A l.j.l.*.  .                                     <.l.k.l.6.    b l.l.b     3.l.k.l.K   .                                 .   5.l.k.l.D     $ ..O.X.X.X.X.X.",
"X.o.X.X.X.+.[ X     K l.k.l.F                                         . t.l.l.l.e   . a.i.    0 l.l.l.7.                                          *.l.j.l.P     X } O.X.X.X.X.X.",
"X.X.X.o.X.O.} +     K l.k.l.Z                                           e l.l.l.6.    6.5.    1.l.l.f.,                                           P l.k.l.*.    O | O.X.X.X.X.X.",
"X.X.X.X.X.X...=     G l.k.l.G   .                                     .   1.l.l.h.4   V N   * f.l.l.K   .                                     .   -.l.k.l.P     = X.X.X.X.X.X.X.",
"X.X.X.X.X.X.+.3     V l.k.l.2.                                            4 k.l.l.G   o o   S l.l.a.%                                             0.l.k.l.A     3 +.X.X.X.X.X.X.",
"X.X.X.X.X...#.h     7 l.l.l.f.*                                             7.l.l.0.    .   6.l.l.;.  .                                         9 l.l.l.l.0     k #...X.X.X.X.X.",
"X.X.X.X.X...#.W       t.l.k.l.2.                                            K l.l.s.o     o s.l.l.M                                             8.l.l.l.i..     ! #.X.X.X.X.X.X.",
"X.X.X.X.X.X.+.} +     K l.l.l.l.L                                       .   b l.l.l.7     7 l.l.k.*                                       .   ;.l.l.k.l.*.    #  .o.X.X.X.X.X.X.",
"X.X.X.X.X.X...#.f     o i.l.k.l.l.G   .                                     4 l.l.l.b     n l.l.a.o                                         =.l.l.l.l.d.&     j #.X.X.X.X.X.X.X.",
"X.X.X.X.X.X.X.+.` .     b l.l.l.l.l.F   .                                   % f.l.l.V     Z l.l.t.                                        ,.l.l.l.l.l.C     X [ +.X.X.X.X.X.X.X.",
"X.X.X.X.X.X.X...#.l   .   A l.l.l.l.l.G                 .                   . i.l.l.A     D l.l.0.                    .                 2.l.l.l.l.l.F   .   v #...X.X.o.X.o.X.X.",
"X.X.X.X.X.X.X.X.o.X.<   .   B j.l.k.l.l.K   .                       o % * * 4 u.l.l.D     F l.l.0.& 4 * % o .                   .     6.l.k.l.l.j.V   .   t +.X.X.X.X.X.X.X.X.X.",
"X.X.X.X.X.X.X.O.X.+.[ =   .   8 i.l.k.k.l.D       % 0 C K ,.6.q.y.i.s.f.j.k.l.l.l.l.G     G l.l.l.k.j.h.f.a.i.t.0.6.;.J V 7 o       ;.l.k.l.l.u.7   .   > | O.X.X.X.X.X.X.X.X.X.",
"X.X.X.X.X.X.X.X.X.X.+.[ =   .   o 7.l.l.l.k.G *.r.f.l.l.l.l.l.l.l.l.l.l.l.l.l.l.k.l.K     J l.k.l.l.l.l.l.l.l.l.l.l.l.l.l.l.d.w.K P l.k.l.l.5.o   .   > | +...X.X.X.X.X.X.X.X.X.",
"X.X.X.X.X.X.X.X.X.o...+.| <   .     K l.l.k.l.l.l.l.l.k.l.l.l.l.l.l.l.l.l.l.l.l.l.l.K     K l.l.l.l.l.l.l.l.l.l.l.l.l.l.k.l.l.l.l.l.l.l.l.G     .   3 ..+...X.X.X.X.X.X.X.X.X.X.",
"X.X.X.X.o.X.X.X.X.X.X...+.X.i     .   n f.l.k.l.l.l.l.l.l.d.u.0.5.;.P G A V m g e e &     * n M M Z D G P >.5.8.t.s.k.l.l.l.l.l.k.k.l.h.m   . .   s +.O.X.X.X.X.X.X.X.X.X.X.X.X.",
"X.X.X.X.X.X.X.X.X.X.X.X.X.o.@.l     .   7 i.l.s.w.<.G n 4 %                                                       o * e Z *.7.u.h.l.s.0   .     v @.X.X.X.X.X.X.X.X.X.X.X.X.X.X.",
"X.X.X.X.X.X.X.X.X.X.X.X.X.X.X.#.^ >       * 0 o                   . .   . .     . . .           .     .   . .                   & n 4       3 ) #.X.X.X.X.X.o.X.X.X.X.o.X.X.X.X.",
"X.X.X.X.X.o.X.X.X.X.X.X.X.X.X...@.#.p   .         .   .                     . . . . . . . . .     .                       .           .   s #.+.X.X.X.X.X.X.X.X.X.X.X.X.X.X.X.X.",
"X.X.X.o.X.X.X.X.X.X.X.X.X.X.X.X. .#.W                   .                       o .                                   . .                 W @...X.X.o.X.X.X.X.X.X.X.X.X.X.X.X.X.",
"o.X.X.X.X.X.X.X.X.X.X.X.X.X.X.X.X.+.)         .                 % * 0 b B S F K _ Q *.*.=.*.*.P L G D C n w 4 & .               .         ) +.X.X.X.X.X.X.X.X.X.X.X.X.X.X.X.o.X.",
"X.X.X.X.X.X.o.X.X.X.X.X.X.X.X.X.X.O.} O           . 7 B P 5.q.i.f.k.l.l.l.l.l.l.l.l.l.l.l.l.l.l.l.l.l.l.l.l.l.h.i.t.7.-.A q +           X } o.X.X.X.X.X.o.X.X.X.X.X.X.X.X.X.X.X.",
"X.X.X.X.X.X.X.X.X.X.X.X.X.X.X.X.X.X.O.>     o K 8.a.l.l.l.l.l.l.l.l.l.l.l.k.l.k.l.k.k.l.k.l.k.k.l.k.k.l.l.l.l.l.l.l.l.l.l.l.f.w.*.%     ; X.X.X.X.X.X.X.X.X.X.X.X.X.X.X.X.X.o.X.",
"X.X.X.X.X.X.X.X.X.X.X.X.X.X.X.X.X...#.p     * h.l.l.l.l.k.l.k.k.k.l.l.l.l.l.l.l.l.l.l.l.l.l.l.l.l.l.l.l.l.l.k.l.k.k.k.k.l.l.l.l.l.4     u #.X.X.X.X.X.X.X.X.X.X.X.X.X.o.X.X.X.X.",
"X.X.o.X.X.X.X.o.X.X.X.X.X.X.X.X.X.X.#.c       u.l.k.k.l.l.l.l.l.l.l.l.l.l.k.h.h.f.s.s.a.a.s.d.d.g.j.k.l.l.l.l.l.l.l.l.l.l.l.k.l.i..     z #...X.X.X.X.X.X.X.X.X.X.o.X.X.X.X.X.X.",
"X.X.X.X.X.o.X.X.X.X.X.X.X.X.X.X.X.X.@.Q       9.l.l.l.l.h.u.9.1.P F M e 0 4 * & o o o o o o o % % & 4 7 q n A K ;.7.t.d.l.l.l.l.w.  .   W #...X.X.X.o.X.X.X.X.X.X.o.X.X.X.X.X.X.",
"X.X.X.X.X.X.X.X.X.X.X.X.X.X.X.X.X.X.+.`   .   -.i.;.A 0 %                                                             o 7 V _ t.;.      ) +.X.X.X.X.X.X.X.X.X.X.X.X.X.X.X.X.X.o.",
"X.o.X.X.o.X.X.X.X.X.X.X.X.X.X.X.X.X.#.W       o             .                                                     .             .       R #...X.X.X.X.X.X.o.X.X.X.X.X.X.X.X.o.X.",
"X.X.X.X.X.X.X.X.X.X.X.X.X.X.o.X.X...#.f                       . % 4 0 g M Z D G K K P P P P K K G D Z M a 0 4 % .                       s #...X.X.X.X.o.X.X.X.X.o.X.X.X.X.X.X.X.",
"X.X.o.X.X.X.X.X.X.X.X.X.X.X.X.X.X.X...-           * g F -.7.t.i.f.l.l.l.l.l.l.l.l.l.l.l.l.l.l.l.l.l.l.l.l.l.l.f.a.t.7.:.G n * .         = X.o.X.X.X.X.X.X.X.X.X.X.X.X.X.X.X.X.X.",
"X.X.X.X.X.X.X.X.X.X.X.X.X.X.X.X.X.+.`       o 4.i.j.l.l.l.l.l.l.l.l.l.l.l.k.l.l.k.l.l.k.l.k.l.k.l.k.l.l.l.l.l.l.l.l.l.l.l.l.k.i.6.&       ) +.X.X.X.X.X.X.X.o.X.X.X.X.X.X.X.X.X.",
"X.X.X.X.X.X.X.X.X.X.X.X.X.X.X.X...#.Y   .   b l.l.l.l.k.l.k.k.l.k.l.k.l.l.l.l.l.l.l.l.l.l.l.l.l.l.l.l.l.k.l.l.k.k.l.k.l.k.l.l.l.l.V   .   U #.X.X.X.X.X.X.X.X.X.X.X.X.o.X.X.X.X.",
"X.X.X.X.X.X.X.o.X.X.X.X.X.X.X.X...@.i   .   *.l.k.k.l.l.l.l.l.l.l.l.l.l.l.l.l.l.l.k.k.k.k.k.k.l.l.l.l.l.l.l.l.l.l.l.l.l.l.k.k.j.l.,.  .   y @...X.X.o.X.X.X.X.X.X.X.X.X.X.o.X.X.",
"X.X.X.X.X.X.o.X.X.X.X.X.X.X.X.X.O.| @       w.l.l.l.l.l.j.i.w.6.;.P F V b e 0 5 4 * 4 * * * 4 4 7 0 e M Z G *.2.8.u.d.l.l.l.l.l.l.t.      # | +.X.X.X.X.X.X.X.X.X.X.X.X.X.X.X.o.",
"X.o.X.X.X.X.X.X.X.X.X.X.X.X.X.X.#./   .   4 k.j.w.<.F e * .                                                         % 4 M G 2.t.j.l.4       / +...X.X.X.X.X.X.X.X.X.X.X.X.X.X.X.",
"X.o.X.X.X.X.X.o.X.X.o.X.X.X.X...#.x       4 Z &                   . .                                 .   . .                   & V 4       x #...X.X.X.X.X.X.X.X.o.X.X.X.X.X.X.",
"X.X.X.X.X.X.X.X.X.X.X.X.X.X.X.X.+.<   .           .                                                                       .             .   < +.X.X.X.X.X.X.X.X.X.X.o.X.X.X.X.X.",
"X.X.X.X.X.X.X.X.X.X.X.X.o.X.X.X.+.v         .                                                                                     .         f O.X.X.X.X.X.X.X.X.X.X.X.X.o.X.X.X.",
"X.X.X.X.X.X.X.X.X.X.X.X.X.X.X.X.X.#.' h #                                                                                             X i / +.X.X.X.X.X.X.X.X.X.X.X.X.X.X.X.X.X.",
"X.X.X.X.X.X.X.X.o.X.X.X.X.X.X.o.X...+.#. .^ k 2 O                             .                       .                       . ; f W [ #.+.X.X.X.X.X.X.X.X.X.X.X.X.X.o.X.X.X.X.",
"X.X.o.X.o.X.X.X.X.X.X.X.X.X.X.X.X.X.X.X.o.#.#.+.} ) R k t > + .                                                   O - r h Y ^ [ o.#.#.O...X.X.X.X.X.X.X.X.X.X.X.X.X.X.X.X.X.X.X.",
"X.X.o.X.o.X.X.X.X.X.X.X.X.X.X.X.X.X.X.X.X.X...X.O.+.#.#.#.X.| ] ) ~ E Y x k h s p i y y y u i i s h j z U R Q ) ' | X.+.#.#.@.+.X...X.X.X.X.X.X.X.X.X.X.X.X.X.X.X.X.X.o.X.X.X.o.",
"X.X.X.X.X.X.X.X.o.X.X.X.X.X.X.o.X.X.X.X.X.X.X.X.X.X.....X.X.O.+.+.#.#.#.#.#.#.#.#.@.#.@.+.#.#.#.#.#.#.#.#.#.#.+.+.O.X.X.....X.X.X.X.X.X.X.X.X.X.X.X.X.X.X.X.o.X.X.X.X.X.X.X.X.X.",
"X.X.X.X.X.X.X.X.X.X.X.X.X.X.X.X.X.X.X.X.X.X.X.X.X.X.X.X.X.X.X.X.X.....X.X...X.........X.....X.X.......X.X...X...X.X.X.X.X.X.X.X.X.X.X.X.X.X.o.X.X.X.X.o.X.X.X.X.X.X.X.X.X.X.X.X.",
"X.X.X.X.X.X.X.X.X.X.X.X.o.X.X.X.X.X.X.X.o.X.X.X.X.X.X.X.X.X.X.X.X.X.X.X.X.X.X.X.X.X.X.X.X.X.X.X.X.X.X.X.X.X.X.X.X.X.X.X.X.X.X.X.X.X.X.X.X.o.X.X.X.o.X.X.X.X.X.X.X.X.X.X.X.o.X.X.",
"X.X.X.X.X.X.X.o.X.X.X.X.X.X.X.X.X.X.X.X.X.X.X.X.X.X.X.X.X.X.X.X.X.X.X.X.X.X.X.X.X.X.X.X.X.X.X.X.X.X.X.X.X.X.X.X.X.X.X.X.X.X.X.X.X.X.X.X.X.X.X.X.X.X.X.X.X.o.X.X.o.X.X.X.X.X.X.X.",
"X.o.X.X.X.X.X.X.X.X.o.X.X.o.X.X.X.X.X.X.X.X.X.X.X.X.X.X.X.X.X.X.X.o.X.X.X.X.X.X.X.X.X.X.X.X.X.X.X.X.X.X.X.X.X.X.X.X.X.X.o.X.X.X.X.X.X.X.X.X.X.X.X.X.X.X.X.X.X.X.X.X.X.o.X.X.X.X.",
"o.X.X.X.X.X.X.X.X.X.X.X.X.X.X.X.X.X.X.X.X.X.X.X.X.X.X.X.X.X.X.X.X.X.X.X.o.X.X.X.X.X.X.X.X.X.X.X.X.X.X.X.X.X.X.X.X.X.X.X.X.X.X.X.X.X.X.X.o.X.X.X.X.X.X.X.X.X.X.X.X.X.X.X.X.X.o.X.",
"X.X.X.X.X.X.o.X.X.X.X.X.X.X.X.X.X.X.X.X.X.X.X.X.X.X.X.X.X.X.X.X.X.X.X.X.X.X.X.X.X.X.X.X.X.o.X.X.X.X.X.X.X.X.X.X.X.X.X.X.X.X.X.X.X.X.X.X.X.X.X.X.X.X.X.o.X.X.X.X.X.X.X.X.X.X.X.X."
};
