/* XPM */
static char *kld__[] = {
/* columns rows colors chars-per-pixel */
"21 21 221 2",
"   c #14100AD60000",
".  c #18C60F2B0375",
"X  c #1A5D104C040F",
"o  c #190D12D50B4D",
"O  c #1ABE1A811A37",
"+  c #325423FC1292",
"@  c #31F623DF12BD",
"#  c #3C6E2BB11744",
"$  c #269323D82083",
"%  c #26CD249921E9",
"&  c #2BF32BB92B72",
"*  c #319429F920B1",
"=  c #33482B0B20FC",
"-  c #36B833CC303B",
";  c #392F35D431BB",
":  c #326E37E83EAD",
">  c #39FB398138EC",
",  c #3D7D3E5A3F68",
"<  c #3E423ECE3F78",
"1  c #42762EE116FB",
"2  c #554C3DD1212C",
"3  c #55863EB422D9",
"4  c #56F73F1521F3",
"5  c #5DBC40351C2C",
"6  c #60DD42791D63",
"7  c #5A5F4040205F",
"8  c #5CD041FE2143",
"9  c #5C1C45222919",
"0  c #515C451E362C",
"q  c #55CA48A6389D",
"w  c #6F634C902210",
"e  c #6B254B182402",
"r  c #6C394BE7247C",
"t  c #70B74D6F2261",
"y  c #72E150E32768",
"u  c #72CC511127E7",
"i  c #791C57292DBD",
"p  c #7E025A9F2F70",
"a  c #348539E64083",
"s  c #39763C84403F",
"d  c #3A6F3D664104",
"f  c #412340C0404A",
"g  c #424B41E6416C",
"h  c #4B104AD74A92",
"j  c #5751571556CB",
"k  c #57EC57B05767",
"l  c #5E965E5B5E14",
"z  c #5F585F1D5ED6",
"x  c #6866647F5FBC",
"c  c #698064E05F3B",
"v  c #6453641363C6",
"b  c #664F661665D1",
"n  c #677D673B66EB",
"m  c #6987660561BB",
"M  c #6F686A5D6436",
"N  c #63A965C9685D",
"B  c #68CE688F6843",
"V  c #68F368B7686E",
"C  c #6DA96D676D17",
"Z  c #6A6F6DA67194",
"A  c #769C764E75EF",
"S  c #73F6756C7735",
"D  c #7696765D7617",
"F  c #771276C0765C",
"G  c #72BB76217A4B",
"H  c #738276D57AEA",
"J  c #772078AC7A8F",
"K  c #7A1679F379C8",
"L  c #7BF07B6D7ACE",
"P  c #80F65836267B",
"I  c #8247592926FB",
"U  c #82F05A8C294C",
"Y  c #849B5BD02A15",
"T  c #85AD5D702C55",
"R  c #8ABD5EF7298B",
"E  c #8D3760AE2A56",
"W  c #8E7B62342C2B",
"Q  c #8F8662F62C94",
"!  c #94C965FF2CE6",
"~  c #9567666F2D1F",
"^  c #8B06626530CF",
"/  c #8CC0639A3163",
"(  c #9FCC70AA3725",
")  c #A31470643289",
"_  c #A3D670DA32A3",
"`  c #A2E272F53879",
"'  c #A7AA75F73950",
"]  c #A9B877783A25",
"[  c #B7ED80293C1C",
"{  c #B8A480803BFC",
"}  c #B42E805C411F",
"|  c #B6D48252423E",
" . c #B4808280457D",
".. c #B578833445DD",
"X. c #BA138412422B",
"o. c #BBB3853442B3",
"O. c #BE3885E24120",
"+. c #C00887484204",
"@. c #BBDA87D14851",
"#. c #CA7292574DDF",
"$. c #CB4E92F44E2F",
"%. c #CCCB92C04BEC",
"&. c #CE5B93EB4C9A",
"*. c #CF5F95E54FC1",
"=. c #D07E96014EA0",
"-. c #D17996EB4F76",
";. c #D46497484CB5",
":. c #D54397D84CE4",
">. c #D2A1982850CE",
",. c #D2D2986B5125",
"<. c #D38298D25133",
"1. c #D40A994D519E",
"2. c #D4DD99ED5201",
"3. c #D5339A265217",
"4. c #D5D79A9B5253",
"5. c #D5949ACB530F",
"6. c #D6BB9B4052AA",
"7. c #D8A79CB4538B",
"8. c #D87A9CEB543D",
"9. c #D8D89D315465",
"0. c #DA949E095426",
"q. c #DAD79E39543F",
"w. c #DB8D9EDC54CC",
"e. c #DC239F2954C0",
"r. c #DBC39F0D54F7",
"t. c #DD8A9F9C540A",
"y. c #DD169FEA5541",
"u. c #DD6DA0335575",
"i. c #DF14A114556C",
"p. c #DCC9A046566F",
"a. c #DC9CA06F5701",
"s. c #DFF4A2B457F6",
"d. c #E03DA35158F9",
"f. c #E346A46657AB",
"g. c #E12AA37A5832",
"h. c #E06CA36E58FF",
"j. c #E1D3A4785997",
"k. c #E2CFA4895889",
"l. c #E33CA50B5927",
"z. c #E3DFA5745948",
"x. c #E5BDA64158C9",
"c. c #E4E8A6C25AEB",
"v. c #E629A79F5B4C",
"b. c #E728A79B5A0B",
"n. c #E70CA80B5B29",
"m. c #E825A9155C1F",
"M. c #E853A9365C31",
"N. c #E872A8CE5B25",
"B. c #EF76AE205E64",
"V. c #EFEFAE875EB5",
"C. c #7C87820688CB",
"Z. c #83D983B1837F",
"A. c #83E685908799",
"S. c #86A086768644",
"D. c #875F87368705",
"F. c #881887EE87BA",
"G. c #866D880489F5",
"H. c #889B8870883C",
"J. c #84F38A8B915B",
"K. c #8BE98E689175",
"L. c #8C958F109216",
"P. c #8E9A9141947E",
"I. c #90B3908A9058",
"U. c #91E991BF918C",
"Y. c #97839699957B",
"T. c #970E97819808",
"R. c #987B97979681",
"E. c #97CE983E98C1",
"W. c #9917998F9A26",
"Q. c #9F389F139EE5",
"!. c #A2D1A1709FC1",
"~. c #9B519FB2A509",
"^. c #9C2CA086A5D6",
"/. c #9F22A387A8E3",
"(. c #A135A10FA0E2",
"). c #A308A2D9A2A0",
"_. c #A34FA31FA2E5",
"`. c #A4B2A61EA7D4",
"'. c #A0D5A53CAA9C",
"]. c #A6C9A837A9EF",
"[. c #AD78ACBBABD4",
"{. c #AEBBADFAAD0F",
"}. c #AD3AB181B6BA",
"|. c #B10BB0E3B0B1",
" X c #B13BB112B0E0",
".X c #B70BB6E5B6B6",
"XX c #B8AEB88DB865",
"oX c #BC07BE7BC179",
"OX c #BF25C187C471",
"+X c #C463C47CC49B",
"@X c #C537C544C556",
"#X c #C6E0C650C59F",
"$X c #C883C7F0C73B",
"%X c #C09FC490C95E",
"&X c #D251D135CFDB",
"*X c #D606D4EDD397",
"=X c #D292D5EADA00",
"-X c #D483D7B1DB93",
";X c #DB68DB55DB3D",
":X c #DC7FDC6ADC50",
">X c #DDA3DD48DCD9",
",X c #DE5FDE25DDDE",
"<X c #DEBCDEA8DE8F",
"1X c #E986E8F8E84A",
"2X c #E9EDE95DE8AD",
"3X c #ECF6EC57EB94",
"4X c #F011F001EFEF",
"5X c #F41EF412F403",
"6X c #F1EEF3D2F622",
"7X c #F662F656F649",
"8X c #F840F837F82C",
"9X c #F977F96BF95D",
"0X c #F97EF973F966",
"qX c #FA5FFA3EFA14",
"wX c #FADFFADEFADC",
"eX c #FC16FC15FC13",
"rX c #FCEAFCE8FCE7",
"tX c #FE0AFE08FE06",
"yX c #FE84FE62FE3B",
"uX c #FF30FF35FF3C",
"iX c gray100",
/* pixels */
"4.4.4.4.4.4.4.4.4.,.q.4.4.4.4.4.4.4.4.4.4.",
"4.4.4.4.4.4.4.4.4.q.@.q.4.4.4.4.4.4.4.4.4.",
"4.4.4.4.4.4.4.4.4...# ..,.4.4.4.4.4.4.4.4.",
"4.4.4.4.4.4.4.8.$.4 o 4 $.8.4.4.4.4.4.4.4.",
"4.4.4.4.,.,.,.,.q.y.1 i.q.,.,.,.,.4.4.4.4.",
"4.4.,.i.m.x.m.d.=.9 > 4 -.h.m.x.N.i.,.4.4.",
"4.,.z.] 6 8 t +.U J.iXC.U +.w 7 5 ] z.,.4.",
",.z.T < }.OX/.m   E.iXW.  m '.%X}.d T z.,.",
"y.{ - 6XiXiXiXiX`.g iXg ].iXiXiXiX6X; o.i.",
"N.p Z iX7XiXqXqXiXS.v S.iXqXeXqX7XiXZ I m.",
"x.Q N iXqXiXqXqXiX;XO ;XiXqXqXiXqXiXN Q c.",
"q.%.* -XiXeXiXiXiX5Xh 7XiXiXiXiXiX-X= %.8.",
",.h.` $ OX[.D v l k & k l B K {.oX$ ` h.,.",
"4.,.z.} . D #X,X4X7XiX8X4X,X#XJ X | z.,.4.",
"4.4.*.B.y ^.*X(.I.F.Z.F.I.Q.*X~.u B.*.4.4.",
"4.4.,.h./ d R._.|..XXX.X|._.R.: ^ z.,.4.4.",
"4.4.,.x.r H (.F C B v B C D !.G e x.-.4.4.",
"4.4.,.i.+ : T.#X,X2X4X1X,X#XT., + i.4.4.4.",
"4.4.4.7.p q M L G.L.P.K.A.D x q i 4.4.4.4.",
"4.4.4.4.f.:.{ _ ! R R Q ! ) ] :.z.4.4.4.4.",
"4.4.4.4.,.4.i.d.c.c.m.c.c.z.a.5.,.4.4.4.4."
};
