/* XPM */
static char *kld__[] = {
/* columns rows colors chars-per-pixel */
"22 22 221 2",
"   c #1D28152B0B70",
".  c #1D8F157A0BA3",
"X  c #143013E41386",
"o  c #145C141D13D0",
"O  c #323723BD1212",
"+  c #34E1264E1485",
"@  c #3F8B2D1B16AE",
"#  c #17731E4326AB",
"$  c #19A8207028D2",
"%  c #3F2533A02590",
"&  c #379C347D30AF",
"*  c #38B7353E3100",
"=  c #3A76390B374F",
"-  c #4B152F280D14",
";  c #4C0A2FC10D4C",
":  c #41562E731766",
">  c #41E82EDB17CF",
",  c #4EE93475142D",
"<  c #520036A01537",
"1  c #597439E513A9",
"2  c #5B893B8514AF",
"3  c #51AD39C31CA0",
"4  c #52D73A911CFC",
"5  c #59623D7A1BC9",
"6  c #441238DF2B36",
"7  c #5CEB3FF51D0A",
"8  c #5C4E46662BAA",
"9  c #4EFD449037D5",
"0  c #4F6A45773953",
"q  c #55524A763D35",
"w  c #617C4A582E1B",
"e  c #72B852F12C2A",
"r  c #74B454602CEE",
"t  c #7A4058742F53",
"y  c #7B37594E3004",
"u  c #4008407240F5",
"i  c #41CF41EC4210",
"p  c #42184467474E",
"a  c #4B33479A4349",
"s  c #4CFE4919445E",
"d  c #4351458B484E",
"f  c #4578476A49CB",
"g  c #47AA49E24C98",
"h  c #499B494D48ED",
"j  c #49774A7C4BBA",
"k  c #4ADE4BBB4CC8",
"l  c #4D8C4D3A4CD7",
"z  c #4E9F4E4D4DE9",
"x  c #4EF84EA84E45",
"c  c #4F204ECF4E6C",
"v  c #5B204FA441A0",
"b  c #4FF84F984F24",
"n  c #5794530D4D86",
"m  c #4F074FE750F8",
"M  c #50C55080502C",
"N  c #508A50FF518D",
"B  c #5192514F50FE",
"V  c #51E151A45159",
"C  c #54925454540A",
"Z  c #552954A75409",
"A  c #555754DA5442",
"S  c #5D2A584E5260",
"D  c #582257ED57AB",
"F  c #54C05665585A",
"G  c #550C56A35886",
"H  c #588B58535810",
"J  c #5977593D58F7",
"K  c #5B695B325AEE",
"L  c #5BED5BB35B6C",
"P  c #5CD45C9C5C57",
"I  c #5D0A5CD15C8B",
"U  c #60E45FB55E43",
"Y  c #59875F5E66AC",
"T  c #5C1161F86950",
"R  c #622F61E6618D",
"E  c #647D63286187",
"W  c #640E63D86395",
"Q  c #644D641663D3",
"!  c #649E645463FA",
"~  c #65A46613669B",
"^  c #663366D6679E",
"/  c #690E68DA6899",
"(  c #692D68F968B8",
")  c #6A0869D7699C",
"_  c #698269F56A82",
"`  c #6AF06B556BD0",
"'  c #6CCE6CA56C73",
"]  c #710070846FED",
"[  c #6E4B6F527094",
"{  c #71AD713B70B0",
"}  c #759E757A754D",
"|  c #782A780577D9",
" . c #72A475B67985",
".. c #75CA780C7ACC",
"X. c #7690789E7B20",
"o. c #759D78BE7C9E",
"O. c #87415EBB2D4B",
"+. c #87CA5F1C2D7B",
"@. c #89415DF82926",
"#. c #8BB05FBA2A14",
"$. c #845F5FB332F0",
"%. c #925965482E4A",
"&. c #932665DB2E97",
"*. c #8650611A33B0",
"=. c #9B336B203073",
"-. c #9D8A6CF231A6",
";. c #9F5C6E4B326A",
":. c #A0266ECA328F",
">. c #A0766EFF32A1",
",. c #A35471D13566",
"<. c #A28671F136A8",
"1. c #A5DB73A53660",
"2. c #A45D733E374C",
"3. c #AACF76D1375D",
"4. c #AB3D77093755",
"5. c #A6B3762B3AF1",
"6. c #A80E77133B4D",
"7. c #A35075AE3DFD",
"8. c #A7B178CE3F96",
"9. c #B03B7CB33DD1",
"0. c #B1A37DBB3E63",
"q. c #BB3083663F52",
"w. c #BB8D837B3F0D",
"e. c #B9D583C641CF",
"r. c #BB5184DC4267",
"t. c #BB8885E14468",
"y. c #BC06864644AD",
"u. c #CF0992EA498E",
"i. c #CDB9928B4A53",
"p. c #CF1F93BB4B40",
"a. c #CB2A92064C4B",
"s. c #CB54922A4C68",
"d. c #CA9C927D4E00",
"f. c #D17897625080",
"g. c #D2EC9883513D",
"h. c #D3AA99075179",
"j. c #D4199953519A",
"k. c #D430997A51D7",
"l. c #D48599A451C8",
"z. c #D4C199DD51FF",
"x. c #D5389A285216",
"c. c #D5D59A9A5252",
"v. c #D64F9B7453A2",
"b. c #D6889BA353C3",
"n. c #D71B9C0153E3",
"m. c #D8B79CB1536E",
"M. c #D9809D4153BC",
"N. c #D9409D6B5467",
"B. c #DA089DED5494",
"V. c #DAB69E4A548F",
"C. c #DE7EA0E055AE",
"Z. c #DCAFA05156A7",
"A. c #DDEBA11456D5",
"S. c #DE3EA15056F6",
"D. c #DF01A1525609",
"F. c #DF8FA1B95641",
"G. c #DF2DA1CD56E7",
"H. c #E021A288575B",
"J. c #E1A6A2585516",
"K. c #E299A2FA5555",
"L. c #E29EA3D8573E",
"P. c #E47DA4B156D6",
"I. c #E061A2E957E6",
"U. c #E0E6A38E58B1",
"Y. c #E07DA36858DF",
"T. c #E1BFA41958DD",
"R. c #E22CA48E595C",
"E. c #E2E9A5425A06",
"W. c #E3FAA60F5A7F",
"Q. c #E513A5F858F4",
"!. c #E533A66159AA",
"~. c #E56CA68959C9",
"^. c #E55CA6F05AC3",
"/. c #E57EA7095AD0",
"(. c #E5CCA7585B20",
"). c #EAD5AA1D5B1E",
"_. c #EB05AA3D5B2A",
"`. c #EEDCAE415F62",
"'. c #EF9CAED35FBC",
"]. c #824E821F81E7",
"[. c #8378834A8312",
"{. c #853083BF81F9",
"}. c #856E83FB8233",
"|. c #8DDA8D7A8D03",
" X c #924791F19188",
".X c #931692EE92BD",
"XX c #944A942293F3",
"oX c #93C097509BAA",
"OX c #964F99E49E45",
"+X c #997E9B269D26",
"@X c #9A1B9BA19D77",
"#X c #95A99B8FA2CA",
"$X c #96919C7BA3C1",
"%X c #BD72BDA9BDED",
"&X c #BA7BBEE5C448",
"*X c #C63BCA8ECFD5",
"=X c #CBE2CB99CB3F",
"-X c #D052D03BD01E",
";X c #D169D152D136",
":X c #D42ED40ED3E6",
">X c #D613D5F4D5CF",
",X c #D72BD710D6EF",
"<X c #D9B4DAB9DBFA",
"1X c #E258E243E229",
"2X c #E37AE368E351",
"3X c #E54AE539E523",
"4X c #E70AE6F8E6E3",
"5X c #F947F999F9FD",
"6X c #F984F9CEFA27",
"7X c #F9ECFAE9FC1D",
"8X c #FB35FB2FFB28",
"9X c #FBF3FBE6FBD7",
"0X c #FC94FC74FC4B",
"qX c #FCABFC8DFC66",
"wX c #F8BAFAA1FCDA",
"eX c #F9DFFBADFDC4",
"rX c #FCF1FCEFFCEC",
"tX c #FE27FE24FE1F",
"yX c #FF17FEF1FEC2",
"uX c #FF9BFF4FFEF2",
"iX c #FFF5FFF5FFF4",
/* pixels */
"c.c.c.c.c.c.c.c.c.j.B.m.j.c.c.c.c.c.c.c.c.c.",
"c.c.c.c.c.c.c.c.c.B.a.a.B.c.c.c.c.c.c.c.c.c.",
"c.c.c.c.c.c.c.c.j.R.e r L.f.c.c.c.c.c.c.c.c.",
"c.c.c.c.c.c.c.j.V.*.. . $.D.j.c.c.c.c.c.c.c.",
"c.c.c.c.j.j.j.c.f.).t y ).f.c.j.j.j.c.c.c.c.",
"c.c.j.c.H.^.R.v.B.t.+ O t.B.v.R.^.D.j.j.c.c.",
"c.j.B.D.1.#.;.p.L.6 *X&X% R.p.-.#.<.D.B.j.c.",
"c.B.a.: N X.~ 9 - a iXiXs - 9 ~ ..m @ a.B.c.",
"j.D.@ #XiXqXiXwXoXX 2X2XX OXeXiXeXiX$X: D.c.",
"U.<.u iX9X9X9X9XiX.X{.[..XiXqXqX9X9XiXi 1.U.",
"^.%.F iX9XiXiXiX9XiXb N iX9XiXiXiX9XiXG %.^.",
"D.e.& 9XiX9XiXiX9XiX} } iX9XiXiX9XiX9X* r.Z.",
"f.R.5 T iXiX9X2X;X>X/ ' >X;X4X9XiXiXY 7 R.j.",
"c.c.D., j ] h N L Q / / W L N l { f < D.c.c.",
"c.j.c.`.1  .iXiXiXiXiXiXiXiXiXiXo.2 `.j.c.c.",
"c.c.j.U.5.j  XQ P J D D D J W |.j 5.L.j.c.c.",
"c.c.c.D.9.= %X=X:X>X>X>X>X:X=X%X= 9.D.j.c.c.",
"c.c.f.^.O.p }.A l l b l l n A }.d O.^.f.c.c.",
"c.c.j.^.4 # @X<XwXiXiXiXiX9X<X@X$ 3 R.j.c.c.",
"c.c.j.B.8.w v S W ` [ [ _ P n q 8 7.B.c.c.c.",
"c.c.c.c.D.L.u.w.3.>.-.;.;.3.w.p.L.D.j.c.c.c.",
"c.c.c.c.j.j.c.B.R.R.R.R.R.R.B.m.f.j.c.c.c.c."
};
