/* XPM */
static char *kld__[] = {
/* columns rows colors chars-per-pixel */
"24 24 243 2",
"   c #000001BE0509",
".  c #0000021705E9",
"X  c #1A7F0DFB0000",
"o  c #1AE50E480000",
"O  c #10500F570E27",
"+  c #125711430FF9",
"@  c #150D14CE1483",
"#  c #152714F114B1",
"$  c #1A2A15CE107A",
"%  c #24661A510E03",
"&  c #252A1ADE0E4F",
"*  c #2D9720340FEA",
"=  c #2E7120C31016",
"-  c #29C71FEA13E0",
";  c #2BAC21441492",
":  c #240C20971C5F",
">  c #2614222E1D6B",
",  c #3F442DBD1859",
"<  c #2D362B112873",
"1  c #2DB12B6C28A7",
"2  c #37FB2D2F2001",
"3  c #3C85315423AB",
"4  c #3A9333C52B77",
"5  c #3D80367E2DF1",
"6  c #2A372DDB324C",
"7  c #2C442FF53477",
"8  c #2D94310A356A",
"9  c #3F243A8134D7",
"0  c #300A33B93860",
"q  c #3A3139F439AB",
"w  c #3A593A1D39D4",
"e  c #451B2EB61363",
"r  c #4689302514D2",
"t  c #47F730D6149D",
"y  c #49C5327E1615",
"u  c #416B30B21C4B",
"i  c #42E231C11CDB",
"p  c #445932221BE6",
"a  c #49F333741801",
"s  c #4C90354F18ED",
"d  c #4A6D35641BB9",
"f  c #4C9E36F61C88",
"g  c #56083C791DDF",
"h  c #58B53B6A17DE",
"j  c #5CA13E491974",
"k  c #4077340D24F0",
"l  c #414135182641",
"z  c #50863B1B20F7",
"x  c #51313BAD216C",
"c  c #40543B9A35D5",
"v  c #42023E39399C",
"b  c #42313E6339BF",
"n  c #40AB3F6B3DE6",
"m  c #660645161CE4",
"M  c #678C461E1D53",
"N  c #5ACC41362232",
"B  c #5E46423D2006",
"V  c #40333FF53FAA",
"C  c #60DB446D21BC",
"Z  c #632A46442301",
"A  c #71A84D7A2153",
"S  c #751E4FFD22AD",
"D  c #753151B72671",
"F  c #7916548C2810",
"G  c #7DFC57752872",
"H  c #7D785AB7304E",
"J  c #7F365BFA30F9",
"K  c #367D3B53415B",
"L  c #38443D444367",
"P  c #40DE409A4047",
"I  c #4277413E3FC1",
"U  c #4261422041D0",
"Y  c #4377433742E8",
"T  c #4470442F43DF",
"R  c #453444F344A3",
"E  c #472A46E94699",
"W  c #47B6476D4716",
"Q  c #457346AF4855",
"!  c #4872482B47D5",
"~  c #4B4D4B8F4C00",
"^  c #4D994D614D1B",
"/  c #504C4F8C4EA3",
"(  c #50D950224F49",
")  c #537651504EB2",
"_  c #4FBB50C55209",
"`  c #500D509B514C",
"'  c #51C5518C5146",
"]  c #51E451285042",
"[  c #530152205132",
"{  c #54D0531E5100",
"}  c #606D5F545DFC",
"|  c #61E860CB5F70",
" . c #6232619E60E9",
".. c #636562D36220",
"X. c #66D366AB6679",
"o. c #609065816B88",
"O. c #698B6961692F",
"+. c #6DC96D5F6CDE",
"@. c #6EE16E666DCF",
"#. c #6FAA6F316E9B",
"$. c #707470056F80",
"%. c #741C73E873A9",
"&. c #746B743873FA",
"*. c #753474C07433",
"=. c #782477FA77C8",
"-. c #7044740E78AE",
";. c #7D837D4D7D0B",
":. c #7EB27E7E7E3F",
">. c #81975A1129D9",
",. c #82D15E95325C",
"<. c #84E96019332B",
"1. c #9F1272BC3CA1",
"2. c #A01B733C3C79",
"3. c #A27074FF3D89",
"4. c #A46876A93ED7",
"5. c #ACA578EE39D4",
"6. c #AEAC7AA63B2A",
"7. c #B3D17EC83E0E",
"8. c #B65180BF3F5F",
"9. c #B4DB806A406A",
"0. c #B57E80DF40A8",
"q. c #B45182634574",
"w. c #B581834A4602",
"e. c #BAB583B34093",
"r. c #BEE4870142CE",
"t. c #BF07871042C4",
"y. c #BDCA87AC45A0",
"u. c #BF4288B54623",
"i. c #C7738DC3475E",
"p. c #C20D8BA2493A",
"a. c #CCC4939D4DE0",
"s. c #D364975B4E17",
"d. c #D1639764509C",
"f. c #D20497DA50DE",
"g. c #D37298635051",
"h. c #D2C8986C5135",
"j. c #D36598D95167",
"k. c #D3FF993E518D",
"l. c #D400997A520F",
"z. c #D475992050B7",
"x. c #D47399815193",
"c. c #D4A199C751F5",
"v. c #D53C9A2D521A",
"b. c #D5D29A975250",
"n. c #D6639AFC527E",
"m. c #D6B89B3C52A5",
"M. c #D6FA9BAF5353",
"N. c #D9B39D6653CF",
"B. c #D9C59D93541E",
"V. c #D9D69E1A5533",
"C. c #DAE49E6D54A3",
"Z. c #DB879EB8547D",
"A. c #DC159F8B55AA",
"S. c #DBEC9FBF564F",
"D. c #DCFBA01055A3",
"F. c #DE33A035548F",
"G. c #DEA4A08854BC",
"H. c #DFF4A1A25596",
"J. c #DE29A13456D0",
"K. c #DCF5A08D56D8",
"L. c #DE4EA14E56DE",
"P. c #DE8EA1DB57CD",
"I. c #E027A2235676",
"U. c #E0DEA1E25505",
"Y. c #E1F1A2C455AC",
"T. c #E100A2C456D2",
"R. c #E0F8A2DA570E",
"E. c #E173A31A5703",
"W. c #E1BBA34E5721",
"Q. c #E2E9A4EA5938",
"!. c #E3D7A5785956",
"~. c #E545A624591A",
"^. c #E550A67E59CE",
"/. c #E597A662593F",
"(. c #E6CDA74459BA",
"). c #E5E7A6DD59EE",
"_. c #E6D7A76E5A0B",
"`. c #E7F6A8C75BAB",
"'. c #E8A3A9465BF2",
"]. c #F3EAB05A5DE6",
"[. c #F534B0CD5D54",
"{. c #F604B1A95E3F",
"}. c #80DA85F38C2D",
"|. c #8231874F8D8E",
" X c #88F088C68893",
".X c #892888FA88C2",
"XX c #8DFE8DD48DA1",
"oX c #8F638F398F06",
"OX c #9046901B8FE6",
"+X c #8F6C93D39932",
"@X c #95E495B6957F",
"#X c #91AE960E9B68",
"$X c #9BB29B8C9B5D",
"%X c #9CAB9C849C55",
"&X c #9E329E0B9DDB",
"*X c #A274A25CA23F",
"=X c #A583A599A5B4",
"-X c #A877A84FA81F",
";X c #A8B1A889A859",
":X c #ADE1B006B2A2",
">X c #B149B182B1BE",
",X c #B262B240B216",
"<X c #B3B1B3E0B410",
"1X c #B079B29AB530",
"2X c #B4C6B4A3B477",
"3X c #B56EB54AB51F",
"4X c #B605B9B1BE2C",
"5X c #B63AB9CFBE2E",
"6X c #B8B4BC85C12D",
"7X c #B92BBCF0C18B",
"8X c #C6E4C6C2C699",
"9X c #C7A4C782C758",
"0X c #C31DC63CCA0C",
"qX c #C35CC66DCA2B",
"wX c #D03DD399D7B9",
"eX c #D320D53AD7CB",
"rX c #D3D7D5CED833",
"tX c #D34BD6C4DB03",
"yX c #D9D8D99DD955",
"uX c #DABFDA84DA3C",
"iX c #DE27DD7EDCAF",
"pX c #E1C6E11EE051",
"aX c #E191E17CE163",
"sX c #E311E2FFE2E9",
"dX c #E13DE3C9E6E4",
"fX c #EB46EA72E971",
"gX c #EC31EB5AEA54",
"hX c #EFE7EFD7EFC5",
"jX c #EF9BF047F11A",
"kX c #F0A3F094F082",
"lX c #F78AF77EF76E",
"zX c #F7C7F7BBF7AC",
"xX c #F90FF972F9EB",
"cX c #FA3FFA3AFA34",
"vX c #FAB0FA6DFA15",
"bX c #F904FAADFC79",
"nX c #FAB1FAA1FA8B",
"mX c #FBF7FBEDFBDF",
"MX c #FAA1FC2AFDC5",
"NX c #FD36FD37FD39",
"BX c #FE0CFE07FE02",
"VX c #FEFBFEF4FEEB",
"CX c #FFF0FFF0FFF0",
/* pixels */
"b.b.b.b.b.b.b.b.b.b.b.b.b.b.b.b.b.b.b.b.b.b.b.b.",
"b.b.b.b.b.b.b.b.b.b.k.f.f.k.b.b.b.b.b.b.b.b.b.b.",
"b.b.b.b.b.b.b.b.b.f.].,.,.].f.b.b.b.b.b.b.b.b.b.",
"b.b.b.b.b.b.b.b.k.N.J % % H N.b.b.b.b.b.b.b.b.b.",
"b.b.b.b.b.b.b.b.b.b.q.x x q.b.b.k.b.b.k.b.b.b.b.",
"b.b.b.b.f.k.k.k.k.k.{.B C {.k.k.k.k.k.k.b.b.b.b.",
"b.b.b.b.`.`./.'.P.C.N _ Q g D.P.`././.`.b.b.b.b.",
"b.k.C.b.A y s M 7.6.` CXCX~ 6.7.m y r A b.C.k.b.",
"k.C.a.* o.4X7X+X) o ( CXCX` o { #X4X4Xo.* a.N.b.",
"k.Q.e }.CXCXCXCXCX:X@ sXsX@ 1XCXCXCXNXCX}.y Q.k.",
"C.y.: hXCXnXnXnXnXCXXX:.;.XXCXnXnXCXnXCXjX> u.C.",
"P.9.< xXCXCXCXCXCXCXnXR W nXCXCXCXCXCXCXnX< 9.P.",
"b.k.- eXCXnXnXCXCXnXCXX.O.CXnXCXCXnXnXCXtX- k.b.",
"k./.D L nXCXCXCXCXhXCX&.=.CXhXCXCXCXCXvXK F /.k.",
"b.k.Q.h 0 <X+.^ U U R w w R U R ` $.<X7 j Q.k.b.",
"b.b.b.`.G O *XyXlXCXCXCXCXCXCXzXyX=XO >.'.b.b.b.",
"b.b.k.k.E.k dXsX2X&XXX.X.XXX&X<XiXdXk E.k.b.b.b.",
"b.b.b.k.E.f 6 | *..X@X&X$X@X.X&.} 6 s E.k.b.b.b.",
"b.b.b.k.P.i qXgX9X3X;X*X*X;X3X9XfXqXu G.k.b.b.b.",
"b.b.k.C.p.$ V n / ..+.*.*.+...` V V $ p.C.k.b.b.",
"b.b.k.E.3.  -.tXMXCXCXCXCXCXCXnXwX-.  3.E.k.b.b.",
"b.b.b.b.b.3.Z p 3 5 c v v 9 4 2 , B 1.k.b.b.b.b.",
"b.b.b.b.b.P./.E.s.i.y.e.e.r.i.s.P./.P.b.b.b.b.b.",
"b.b.b.b.b.f.s.b.M.C.C.K.K.C.C.b.k.s.k.b.b.b.b.b."
};
