/* XPM */
static char *kld__[] = {
/* columns rows colors chars-per-pixel */
"32 32 116 2",
"   c #011601010184",
".  c #09C4059F0112",
"X  c #0D79095E05A9",
"o  c #000004A30B0F",
"O  c #06FF0810095E",
"+  c #0B680B960BD0",
"@  c #13360B180239",
"#  c #18A10DD600A9",
"$  c #13960F6B0A54",
"%  c #1BFB114804F4",
"&  c #153210DF0B97",
"*  c #1B0D13070965",
"=  c #0C9B0DFA0FB1",
"-  c #0F2D117D144E",
";  c #14D214C914B5",
":  c #17FA17C01779",
">  c #1B051B281B55",
",  c #24451652054D",
"<  c #2554192A0A9C",
"1  c #2AB71C770B39",
"2  c #29DD1E44101E",
"3  c #349D21F70B3E",
"4  c #3A7F25180AFB",
"5  c #3CBB29AD1349",
"6  c #1DA61EEE2087",
"7  c #1DD2217825EC",
"8  c #24AC24B324BD",
"9  c #27AA275626F3",
"0  c #264C27F92A04",
"q  c #2C3C2C162BE7",
"w  c #2E7031363498",
"e  c #3496351935B9",
"r  c #390F3708348F",
"t  c #36FB3A3A3E30",
"y  c #3B293B1E3B12",
"u  c #42ED2C77115D",
"i  c #41022F011907",
"p  c #43502FBD17D7",
"a  c #4895339919FD",
"s  c #56183E3F2125",
"d  c #5A21418F2393",
"f  c #6DC94C2F232F",
"g  c #6D474EDB29BA",
"h  c #732A4F212328",
"j  c #73EE5115268F",
"k  c #7CFF5658272C",
"l  c #7F155ADF2EA7",
"z  c #3B6D3EBC42C5",
"x  c #446843F5436A",
"c  c #415B45A14AD6",
"v  c #43EF481A4CEB",
"b  c #4A554A0A49B0",
"n  c #4CEF4F7B52A5",
"m  c #512F53E85744",
"M  c #520F552958EE",
"N  c #5D325CF95CB3",
"B  c #5CF7611C6638",
"V  c #6538650064BD",
"C  c #67EC67BB677F",
"Z  c #655C67836A24",
"A  c #6BD36C036C3D",
"S  c #74CA747F7426",
"D  c #7254769E7BD9",
"F  c #7A767B3A7C3F",
"G  c #81A259DC2953",
"H  c #8B1461172DDA",
"J  c #868E606331D0",
"K  c #99CA6C693508",
"L  c #9EF172673C0E",
"P  c #A47475CD3CDE",
"I  c #AC1E7AB63E6A",
"U  c #A44C77444065",
"Y  c #A65A7846400B",
"T  c #AC997C954203",
"R  c #B0AF7FBF4405",
"E  c #B37981C24518",
"W  c #BF4C8A424980",
"Q  c #C3768D4F4B38",
"!  c #C83991304DF5",
"~  c #CBAF93894EFF",
"^  c #CFC696435015",
"/  c #D19D978B50AE",
"(  c #D5889A625235",
")  c #DA8C9E295478",
"_  c #DF1FA196567B",
"`  c #E051A3025831",
"'  c #E16DA338574E",
"]  c #E56DA69259DE",
"[  c #E7C0A8505AE7",
"{  c #FDE3B79061BD",
"}  c #FF33B88C6254",
"|  c #7E65816C851F",
" . c #8429837E82A8",
".. c #8BFE8BBB8B69",
"X. c #956994F7946C",
"o. c #9DE19D399C69",
"O. c #A0469FA09ED2",
"+. c #9EA69F59A032",
"@. c #A4E6A4D3A4BD",
"#. c #A492A773AB04",
"$. c #AC03AC9FAD51",
"%. c #B6ADB681B64C",
"&. c #B865B841B813",
"*. c #C07EC056C024",
"=. c #C441C465C492",
"-. c #C8C4C886C83A",
";. c #CB63CC27CD15",
":. c #CF78D199D432",
">. c #D68AD666D63B",
",. c #DD04DCC3DC73",
"<. c #E507E502E4FC",
"1. c #EBFCEBDEEBB9",
"2. c #EEC3EF84F070",
"3. c #F4A5F492F47B",
"4. c #F8CFF876F809",
"5. c #FF27FF27FF26",
/* pixels */
"( ( ( ( ) ( ( ( ( ( ( ( ( ( ( / ( ( ( ( ( ( ( ( ( ( ( ( ( ( ( ( ",
"( ( ( ( ( ( ( ( ( ( ( ( ( ( ( ) ) ( ( ( ) ( ( ( ( ( ( ( ( ( ( ( ",
"( ( ( ( ( ( ( ( ( ( ( ( ) / ) E E ( ( ( ( ( ( ( ( ( ( ( ( ( ( ( ",
"( ( ( ( ( ( ( ( ( ) ( ( / ) { s d { ) ( ( ( ( ( ( ( ( ) ( ( ) ( ",
"( ( ( ( ( ( ( ( ( ( ( ( ) E g 2 2 g E ) / ( ( ( ( ( ( ( ( ( ( ( ",
") ( ( ( ) ( ( ( ( ( ( / _ Y p * * i U _ ( ( ( ( ( ( ( ( ( ( ( ( ",
"( ( ( ( ( ( ( ( ) ( ( ( / ) } d d } ( ( ( ( ( ( ) ( ( ( ( ( ( ( ",
"( ( ( ( ( ( ( ( / ( ( ( / ) ) 5 5 ` ) / ( ( ( ( / ( ( ( ( ( ) ( ",
"( ( ( ( / / ) ` ` ) / / ) W * q 9 * W ) / / ) ` ' ) / ( ( ( ( ( ",
"( ( ( ( ) ] ! I P Q ' [ ] 3 D 5.5.B 3 [ [ ` W P P Q [ ) ( ( ( ( ",
"( ( ( ) ^ u . : > & , h Q * ;.5.5.;.* Q f , $ : : . 5 ! ) ( ( ( ",
"( ( _ Q @ c ;.3.4.<.#.c X   $.5.5.$.  X c $.<.4.4.;.c @ Q ) ( ( ",
"( ( ` 1 m 5.5.5.5.5.5.5.=.O b 5.5.b + -.5.5.5.5.5.5.5.M 3 _ / ( ",
"/ ' L   ,.5.5.5.5.5.5.5.5.;.O >.>.O ;.5.5.5.5.5.5.5.5.,.O P ' / ",
"/ [ f 7 5.5.5.5.5.5.5.5.4.5.A A A A 5.5.5.5.5.5.5.5.5.5.7 f [ / ",
"/ [ j 7 5.5.5.5.5.5.5.5.5.5.,.9 9 ,.5.5.5.5.5.5.5.5.5.5.7 j [ / ",
"/ _ P O <.5.5.5.5.5.5.5.5.5.5.e r 5.5.5.5.5.5.5.5.5.5.<.O P ` / ",
"( ( ) % Z 5.5.5.5.5.5.5.5.5.5.N V 5.4.5.5.5.5.5.5.5.5.Z , ) ( ( ",
"( ( _ T   F 5.5.5.5.1.>.&.$.%.y y %.$.=.>.2.5.5.5.5.S   T _ / ) ",
"( ( / ' P   m +.d 6 : > 8 q q y y q 9 8 > > 9 x X.n   T ] / ( ( ",
"( ( ( / ] W , = | %.>.2.5.5.5.5.5.5.5.5.3.>.%. .+ < Q ] / ( ( ( ",
"( ( ( ) ^ [ T > 4.5.5.5.5.5.5.5.5.5.5.5.5.5.5.5.7 T [ / ( ( ( ( ",
"( ( ( ( ( ) Q & @.X.B b e q 9 8 9 9 9 e x N ..o.& Q ) / ( ) ( ( ",
"( ( ( ( ( / ) < - x V ..@.%.=.;.-.=.&.@...A x ; < ( ( ( ( ( ( ( ",
"( ( ( ( ( ( ^ * ;.5.5.5.4.<.>.>.>.,.<.4.5.5.4.;.% ^ ) ( ( ( ( ( ",
"( ( ( ( / ] P + S r : + + + ; ; ; ; = + + - z D + P ' / ( ( ( ( ",
"( ( ( ) / [ g   r S @.-.,.1.3.3.3.2.1.,.-.#.S s   g [ / ( ( ( ( ",
"( ( ( ( / ' a o | :.3.5.5.5.5.5.5.5.5.5.5.1.;.| o i ' / ( ( ( ( ",
"( ( ( ( ( ( ^ J 4 # & > 0 w z z z t w 8 : X @ 3 l ! ( ( ( ) ( ( ",
"( ( ) ( ( ( ( ] [ ) Q I K H k k k G H K I Q ( [ [ ) ( ( ( ( ( ( ",
"( ( ( ( ( ( ( / / ( ) ` ] ] [ [ [ [ ] ] ' ) ( / / ( ( ) ( ( ( ( ",
"( ( ( ( ( ( ( ( ( ( ( / / / / / / / / / / ( ( ( ( ( ( ( ( ( ( ( "
};
