/* XPM */
static char *kld__[] = {
/* columns rows colors chars-per-pixel */
"36 36 120 2",
"   c #027501AD0142",
".  c #099604540039",
"X  c #0B9D08660479",
"o  c #0A7E0AD20B3D",
"O  c #0FED06A20000",
"+  c #132A0B52026D",
"@  c #196B0D9100B4",
"#  c #10C00EFA0CD0",
"$  c #1BC3101D031C",
"%  c #0FD50F9C0F56",
"&  c #1B9E1357093D",
"*  c #0BB60E4E118B",
"=  c #0E3F10A313D9",
"-  c #12CB136B142F",
";  c #11E415431984",
":  c #165C19811D57",
">  c #1A6F1ACE1B40",
",  c #2A38195D04B0",
"<  c #249D18ED0B1B",
"1  c #29851C8C0D1D",
"2  c #29FB1E591029",
"3  c #33B123B91188",
"4  c #1AE11DA6210A",
"5  c #1E3720832370",
"6  c #2444240E23CB",
"7  c #27EC27AE2763",
"8  c #220226012AE1",
"9  c #2A1629DB2991",
"0  c #28CA2CAF316F",
"q  c #2F0430B332DC",
"w  c #334434C836AA",
"e  c #3B5E3B243ADC",
"r  c #44052D7C11D5",
"t  c #48542F7A112C",
"y  c #40D02EDD18F4",
"u  c #49BF309A11BE",
"i  c #449D319C1A6A",
"p  c #4B8A35C11B41",
"a  c #53FD3AB51BD9",
"s  c #57F73F9921DD",
"d  c #5D35435923CC",
"f  c #404440073FBC",
"g  c #62D2465C2380",
"h  c #6600490925B1",
"j  c #6C3D4BCE2418",
"k  c #71444E812415",
"l  c #6FEC50DB2AF0",
"z  c #431842C04255",
"x  c #4561476249D6",
"c  c #4699489E4B1D",
"v  c #4BA74B704B2A",
"b  c #485B4C3750ED",
"n  c #4F1A531A57DB",
"m  c #53B25375532A",
"M  c #581B57E05799",
"N  c #519E55885A3F",
"B  c #5DD25D955D4A",
"V  c #6765672566D8",
"C  c #6A756A9D6AD1",
"Z  c #6F5671AC7487",
"A  c #728B72B572E9",
"S  c #742876A479A5",
"D  c #760E79357D0E",
"F  c #7C1B7C607CB4",
"G  c #8E8566583550",
"H  c #95C36AB13630",
"J  c #9B346EF638F7",
"K  c #9E33712A3A34",
"L  c #A38B753C3CC5",
"P  c #A6C3788A402A",
"I  c #A8D57A1140FF",
"U  c #B60483534576",
"Y  c #B65B84BF4835",
"T  c #B8F0864C487D",
"R  c #BE9A8AAB4B4A",
"E  c #C51E8ED34C91",
"W  c #C64990274E09",
"Q  c #CA4F92BA4EE4",
"!  c #CE4595D650FA",
"~  c #D12D976450E0",
"^  c #D5949A6E5240",
"/  c #D9F89DA7540D",
"(  c #DE4DA0EB5602",
")  c #DF27A27A586E",
"_  c #E1FEA3835744",
"`  c #E4F3A60F5950",
"'  c #E7ADA8BF5BF5",
"]  c #E990A9A75BA9",
"[  c #FBFEB636610F",
"{  c #8443842383FC",
"}  c #835385988872",
"|  c #8BCE8BFA8C31",
" . c #8F2C916C942C",
".. c #9185922792EF",
"X. c #948296D499A8",
"o. c #A50BA4FCA4E9",
"O. c #A785A8F8AABD",
"+. c #AC52ACACAD19",
"@. c #B050AFD6AF40",
"#. c #B2AAB188B027",
"$. c #ADAAAED3B03E",
"%. c #B5FDB528B426",
"&. c #B878B84BB812",
"*. c #B7C4B8E4BA45",
"=. c #BD31BD3ABD46",
"-. c #C471C4ABC4F1",
";. c #CB0ACADCCAA3",
":. c #D339D2E4D27E",
">. c #D8ACD7C4D6A2",
",. c #DE16DDF3DDC9",
"<. c #E069E052E035",
"1. c #E42CE3E5E38D",
"2. c #E973E803E641",
"3. c #EAFFE993E7D9",
"4. c #EE88EE2FEDC1",
"5. c #F19EF0F8F02C",
"6. c #F52BF47BF3A3",
"7. c #F949F84CF70A",
"8. c #F9AAF8A3F756",
"9. c #FEFBFEF8FEF5",
/* pixels */
"^ ^ ^ ^ ^ ^ ^ ^ ^ ^ ^ ^ ^ ^ ^ ^ ^ ^ ^ ^ ^ ^ ^ ^ ^ ^ ^ ^ ^ ^ ^ ^ ^ ^ ^ / ",
"^ ^ ^ ^ / ^ ^ ^ ^ ^ ^ ^ / ^ ^ ^ ^ / ^ ^ ^ ^ ^ ^ ^ ^ ^ ^ ^ ^ ^ ^ ^ ^ ^ ^ ",
"^ ^ ^ ^ ^ ^ ^ ^ ^ ^ ^ ^ ^ ^ ^ ^ ^ ^ ^ ^ / ^ ^ ^ ^ ^ ^ ^ ^ ^ / ^ ^ ^ ^ ^ ",
"^ ^ ^ ^ ^ ^ ^ ^ ^ ^ ^ / ^ ^ ^ ~ ` a d ` ~ ^ ^ ^ / ^ ^ ^ ^ ^ ^ ^ ^ ^ ^ ^ ",
"^ ^ / ^ ^ ^ / ^ ^ ^ ^ ^ ^ / ^ ^ ] i i ] / ~ ^ ^ ^ ^ ^ ^ ^ ^ ^ ^ ^ ^ ^ ^ ",
"^ ^ ^ ^ ^ ^ ^ ^ ^ ^ ^ ^ ^ ~ _ g X X X X d _ ~ ^ ^ ^ ^ ^ ^ ^ ^ ^ ^ ^ ^ / ",
"^ ^ ^ ^ ^ ^ ^ ^ ^ ^ ^ ^ ^ ^ / I G 2 2 G I / ^ / ^ ^ ^ ^ ^ ^ ^ ^ ^ ^ ^ ^ ",
"^ ^ ^ ^ ^ ^ ^ ^ ^ ^ ^ ^ ^ ^ ^ / [ p p [ / ~ / ~ ^ / ^ ^ ^ ^ / ^ ^ ^ ^ ^ ",
"^ ^ ^ ^ ^ ^ ^ ^ ^ ^ ^ ^ ^ ^ ^ ( ^ 3 3 ^ ( ~ ^ ^ ^ ^ ^ ^ ^ ^ ^ ^ ^ ^ / ^ ",
"^ ^ / ^ ^ ^ ~ ^ / ^ ^ ~ ^ ~ ( L . > ; X I _ ~ ~ ~ ^ ^ ^ ^ ~ ^ ^ ^ ^ ^ ^ ",
"^ ^ ^ ^ ~ / ' _ ^ ~ ) ] _ ^ Q X } 9.8.C O ! / _ ] ( ! ! _ ` / ~ ^ ^ ^ ^ ",
"/ ^ ^ ~ ( ~ j $ . . @ u H ] L - 7.9.9.6.= L ' H t @ . . @ h ~ ( ~ / ^ ^ ",
"^ ^ ~ ( T + ; S O.$. .n * $ r ; 4.9.9.4.: r + = N X.$.O.S ; + T ( ~ ^ ^ ",
"^ ^ / Q + c 8.9.9.9.9.9.6.| =   +.9.9.+.  - ..6.9.9.9.9.9.8.c + ! / ^ ^ ",
"^ ~ ` a : 6.9.8.9.9.8.9.9.9.1.- z 9.9.z - 1.9.9.9.8.9.8.9.9.6.4 a ` ~ ^ ",
"^ / Q   F 9.8.9.9.9.9.9.9.8.9.-.  :.;.  ;.9.8.9.9.9.9.9.9.8.9.F   ! / ^ ",
"~ ( U   O.9.9.9.9.9.9.9.9.9.8.9.m C V m 9.8.9.9.9.9.9.9.9.8.9.O.  U / ^ ",
"^ / R   o.9.9.9.9.9.9.9.9.9.9.9.;.> > ;.9.9.9.9.9.9.9.9.9.9.9.O.  E / ^ ",
"^ ^ / X A 9.8.9.9.9.9.9.9.9.9.9.9.6 7 9.9.9.9.9.9.9.9.9.9.8.9.A O / ^ ^ ",
"^ ~ ` g * 3.9.9.9.9.9.8.9.9.9.9.9.z v 9.9.9.9.9.9.8.9.9.9.9.2.* j ` ~ ^ ",
"^ ^ / ! + w 6.9.9.9.9.9.9.9.9.6.9.v m 9.6.9.9.9.9.9.9.9.9.4.q & ~ / ^ ^ ",
"^ ^ ~ ( T + 5 :.8.&.} M e 6 > - -   . - - > 9 e B | =.8.:.> + R / ^ ^ ^ ",
"^ ^ ^ ^ ( W < o > X 7 m A | o.%.&.=.=.&.@.o.| A m 9 o > o 1 Q ( ~ ^ ^ ^ ",
"^ ^ ^ ^ ^ / _ p 4 5.9.9.9.9.9.9.9.9.9.9.9.9.9.9.9.9.6.5 p ` / ~ ^ ^ ^ / ",
"^ ^ ^ ^ ^ ~ ` K * 4.9.9.9.9.6.1.1.1.,.,.1.5.8.9.9.9.6.= J ` ~ ^ ^ ^ ^ ^ ",
"^ ^ ^ ^ ^ ^ / U . | A f 6 - % o     o o o o - 6 e C }   U / ^ ^ ^ ^ ^ ^ ",
"^ ^ ^ ^ ^ ^ / ~ + = f C ..+.-.:.,.1.,.,.:.-.#...C z = + ~ ^ ^ ^ ^ ^ ^ ^ ",
"^ ^ ^ / ^ ^ / E . -.9.9.9.9.9.8.5.4.4.6.8.9.9.9.9.9.-.. E / ^ ^ ^ ^ ^ ^ ",
"^ ^ ^ ^ ^ ~ ` G * %.D z 6 -             .   = 6 z S +.o G _ ~ ^ ^ ^ ^ / ",
"^ ^ ^ ^ ^ ~ ` g     o e V | O.&.=.-.-.-.&.O.| C e -     d ` ~ ^ ^ ^ ^ ^ ",
"^ ^ ^ ^ ^ ^ ^ & = %.9.9.9.9.9.9.9.9.9.9.9.9.9.9.9.9.%.: & ^ / ^ ^ ^ ^ ^ ",
"/ ^ ^ ^ ^ ^ / l & - 0 N D X.$.*.-.-.-.-.*.O. .A b 8 * + h ^ ^ ^ ^ ^ ^ ^ ",
"^ ^ ^ ^ ^ ^ ^ _ ~ L k t , @ O X . . . . . X @ , t j K Q _ / ^ ^ ^ ^ ^ ^ ",
"^ ^ ^ ^ ^ ^ ^ ^ ^ _ ` ] ` _ / Q Q E E W Q ^ / ` ` ' _ / ^ ^ ^ ^ ^ ^ ^ ^ ",
"^ ^ ^ ^ ^ ^ ^ ^ ^ ~ ~ ^ ~ ^ ^ / / / / / / ^ ^ ^ ~ ~ ^ ^ ^ ^ ^ ^ / ^ ^ ^ ",
"^ ^ ^ ^ ^ ^ ^ / ^ ^ ^ ^ ^ ^ ^ ^ ^ ^ ^ ^ ^ ^ ^ ^ ^ ^ ^ ^ ^ ^ ^ ^ ^ ^ ^ ^ "
};
