/* XPM */
static char *kld__[] = {
/* columns rows colors chars-per-pixel */
"33 33 116 2",
"   c #0187018A021A",
".  c #0987040800ED",
"X  c #0B9108D20576",
"o  c #03AA063E0979",
"O  c #053F08C60D3D",
"+  c #0CD00CEF0D15",
"@  c #14660BE401F6",
"#  c #1A5D0EBF0091",
"$  c #12040D9C083A",
"%  c #19EC12BD09FB",
"&  c #0BDD0E7F11B4",
"*  c #0C6B0FB513B9",
"=  c #142A13C81351",
"-  c #1208160E1AF8",
";  c #1A4C1A661A86",
":  c #22CB146902FE",
">  c #285B16CF01E8",
",  c #26091823075C",
"<  c #2CD11A17033D",
"1  c #28C019EE07E4",
"2  c #32A322910EF5",
"3  c #39CD24FC0B8F",
"4  c #3EB028850D77",
"5  c #3E4B2D0A17FB",
"6  c #1AF41D79208E",
"7  c #234F23A92417",
"8  c #24F1273D2A09",
"9  c #266028AE2B7F",
"0  c #2D2A2CEA2C9C",
"q  c #331832DC3294",
"w  c #3D093D463D8E",
"e  c #40ED2EF118FF",
"r  c #4E28336812C3",
"t  c #4B21354F1AE6",
"y  c #506A351513BB",
"u  c #522839E81C50",
"i  c #5A023E181C29",
"p  c #62D343091C3E",
"a  c #692547ED1F64",
"s  c #5E3142C621B1",
"d  c #40363FF83FAA",
"f  c #69734B3C26CB",
"g  c #6D774E1327CD",
"h  c #751854492C41",
"j  c #792B579B2EA5",
"k  c #7BCB59672F6A",
"l  c #446943B942E2",
"z  c #4B0D491246A8",
"x  c #4319461249B2",
"c  c #4B3C4B014AB8",
"v  c #4A084D6C5197",
"b  c #4CB650AF5580",
"n  c #4F285347584F",
"m  c #531A53435375",
"M  c #568158175A09",
"N  c #5B625AEF5A63",
"B  c #58C55C546097",
"V  c #5F0363216828",
"C  c #67FE67C3677B",
"Z  c #683967FF67B9",
"A  c #62AF66BA6BA9",
"S  c #73B77381733E",
"D  c #7CCB7C1C7B46",
"F  c #810A5BA52E01",
"G  c #82F55DEB30B4",
"H  c #8C7B65883601",
"J  c #92056740330E",
"K  c #95716AA03660",
"L  c #9A256D0D3605",
"P  c #94436AE33867",
"I  c #9BD86FDF3A37",
"U  c #9CC871163BC4",
"Y  c #A47A75CB3CD2",
"T  c #AD797D0D41F5",
"R  c #B31080A94327",
"E  c #BED38A8C4AC0",
"W  c #C2F18CF34B0F",
"Q  c #CA5192464DE3",
"!  c #CE1D95B250D8",
"~  c #D20297D250D1",
"^  c #D5839A5F5234",
"/  c #D9D19DBE546E",
"(  c #DE42A10B5656",
")  c #DFCEA2B45825",
"_  c #E1F7A398577B",
"`  c #E40BA56658F1",
"'  c #E7FDA8A55B57",
"]  c #E927A93B5B3B",
"[  c #F02EAF9960C9",
"{  c #F251B13861C6",
"}  c #86E386A98663",
"|  c #8E698E378DFA",
" . c #935D93AB940D",
".. c #949597CD9BB8",
"X. c #97849A1E9D4A",
"o. c #9B109AF89AD9",
"O. c #9B4C9E11A171",
"+. c #A3EAA483A53F",
"@. c #A494A6DAA9A0",
"#. c #AA41AA1AA9EA",
"$. c #B3C9B4F0B657",
"%. c #B8D4B82DB75A",
"&. c #BC08BC76BCFB",
"*. c #C08AC065C037",
"=. c #BF79C160C3B2",
"-. c #C4D6C489C42D",
";. c #C8A9C87AC83F",
":. c #C603C80ECA8C",
">. c #CCAECC72CC2A",
",. c #D069D00BCF98",
"<. c #D32ED27DD1A4",
"1. c #DCEDDCE0DCCF",
"2. c #E581E530E4CE",
"3. c #EC4AEC24EBF4",
"4. c #F55DF50BF4A7",
"5. c #FEC2FEBEFEBA",
/* pixels */
"^ ^ ^ ^ ^ ^ ^ ^ ^ ^ / / ^ ^ ^ ^ ^ ^ ^ ^ ^ ^ ^ ^ ^ ^ ^ ^ ^ ^ ^ ^ ~ ",
"^ ^ / ^ ^ ^ ^ ^ ^ ^ ^ ^ ^ ^ ^ ^ ( ^ ^ ^ ^ ^ ^ ^ ^ / ^ ^ / ^ ^ ^ ~ ",
"^ ^ ^ ^ ^ ^ ^ ^ ^ ^ ^ ^ ^ ^ ~ ! R ~ ^ ^ ^ ^ ^ ~ ^ ^ ^ ^ ^ ^ ^ ^ / ",
"^ ^ ^ ^ ^ / ^ ^ ^ ^ ^ ^ ^ ^ ] Q $ Q ] ^ ^ ^ / / ^ ^ ^ ^ / ^ ^ ^ ~ ",
"^ / ^ ^ ^ ^ ^ ^ ^ ^ / ^ ^ ^ U h . j U ~ ^ ^ ^ ^ ~ / ~ / ~ / ~ ^ / ",
"^ ^ ^ ^ ^ ^ ^ ^ ^ ^ ^ ^ ^ ~ e %   % 5 ~ / ^ ~ / ^ ~ / ~ ^ ^ / ^ ^ ",
"^ ^ ^ ^ ^ ^ ^ ^ ^ ^ ^ ^ ^ ^ ` W X W ` ^ ~ ^ / ^ / ~ ~ / ~ / ~ ^ ~ ",
"^ ^ ^ ^ ^ ^ / ^ ^ ^ ^ ^ ^ ~ ' E @ E ` ~ / ~ ~ ^ ^ ^ / ~ / ~ ~ / / ",
"^ ^ ^ ^ ^ ~ ~ ^ ^ ~ ~ ~ ~ _ K @ X . L ` ~ ~ ~ ~ / ~ ~ ~ ^ ^ ^ ^ ~ ",
"^ ^ / ^ ~ / ] ( / ` [ ( _ Y $ @.3. .X Y ( ` ] ` / ( ' ( ~ ^ ^ ^ / ",
"^ ^ ^ ^ ` T 4 # @ : r L { f n 5.4.5.b f { K y : @ @ 3 Y ` ^ ^ ^ ^ ",
"^ ^ ~ _ f   B @.$.O.V 6 1 # m 5.4.5.M : , 6 A O.$.+.N   f ` ^ ^ ^ ",
"^ ^ _ k O ;.5.5.5.5.5.4.O.+ = 3.5.3.= + O.5.5.5.5.5.5.;.O G ' ~ ^ ",
"^ / ! .  .5.4.5.5.5.5.5.5.1.X } 5.} X 1.5.5.5.4.5.5.4.5. .. ! ^ ^ ",
"~ ` J   2.5.5.5.5.5.5.5.4.5.+.7 4.7 +.5.4.5.5.5.5.5.5.5.2.o P ` ~ ",
"~ ` F & 4.5.5.5.5.5.5.5.5.5.5.l N l 5.5.5.5.5.5.5.5.5.5.4.& k ' ~ ",
"~ ` L o 2.5.5.5.5.5.5.5.5.5.5.o.  o.5.5.5.5.5.5.5.5.5.5.2.O U _ ~ ",
"^ ^ ! . o.5.4.5.5.5.5.4.5.4.5.>.  >.5.4.4.5.5.5.5.5.4.5.o.. ~ / ^ ",
"^ ~ ' g & <.5.5.5.5.5.5.5.5.5.1.= 1.5.5.5.5.5.5.5.5.5.<.o h ` ~ ^ ",
"^ ^ ~ ( t O &.5.3.*. .S M c w q   q l c N S o.;.3.5.%.o t ( ^ ^ ^ ",
"^ ^ ^ ^ _ i o l = ; q m C D } | o. .} D C c q ; ; d   s ' ^ ^ ^ ^ ",
"^ ^ ^ ^ ^ ' H   %.5.5.5.5.5.5.5.5.5.5.5.5.5.5.5.%.  P ] ~ ^ ^ ^ ^ ",
"^ ^ ^ ^ ^ ^ ( @ &.5.5.4.3.1.,.;.;.;.,.1.2.4.5.5.&.@ / ^ ^ ^ ^ ^ ^ ",
"^ ^ ^ ^ ^ ^ ( 2 x N 0 ; = = = ; ; = = = = ; 8 m x 2 ( ^ ^ ^ ^ ^ / ",
"^ ^ ^ / ^ ~ ' u - D #.<.3.4.5.5.5.5.5.5.3.,.#.D - u ' ~ ^ ^ ^ ^ ^ ",
"^ / ^ ^ ^ ^ ` : o.5.4.2.;.#.o. .|  .o.#.*.2.4.5.O.: ( ^ ^ ^ ^ / ^ ",
"^ ^ ^ ^ ~ / W X d ;   o + ; 8 0 q 0 9 ; +     ; w . E / ^ ^ ^ ^ ^ ",
"^ ^ ^ ^ ~ _ H   d  .>.3.5.5.5.5.5.5.5.5.5.3.,.o.c   H _ ~ ^ ^ ^ ^ ",
"^ / ^ ^ ^ _ k   v O.:.1.3.5.5.5.5.5.5.4.3.1.-...v   h ` ~ ^ ^ ^ ^ ",
"^ ^ ^ ^ ^ ^ / T p < @ $ = ; 7 8 9 9 7 ; $ X @ > i Y / ^ ^ ^ ^ / ^ ",
"^ ^ ^ ^ ^ ^ ^ ( ] ' / W R Y L J J J L Y R W / ' ] _ ^ ^ ^ ^ ^ ^ ^ ",
"^ ^ ^ ^ ^ ^ ^ ^ ~ ~ / / ( ` _ ` ` ` ` _ ( / ^ ~ ~ ~ ^ ^ ^ ^ ^ ^ ^ ",
"^ ^ ^ ^ ^ ^ / ^ ^ ^ ^ ^ ~ ^ ~ ~ ^ ~ ~ ^ ^ ^ ^ ^ ^ ^ ^ ^ ^ ^ ^ ^ ^ "
};
