/* XPM */
static char *kld__[] = {
/* columns rows colors chars-per-pixel */
"35 35 118 2",
"   c #015500E300F6",
".  c #098B065F0344",
"X  c #0BB2087A048E",
"o  c #0731083D0983",
"O  c #0BA60B530AED",
"+  c #1039076F0000",
"@  c #151D0AD00000",
"#  c #17C80D390056",
"$  c #0F9A0F440EDB",
"%  c #1D321084012D",
"&  c #1685104808AC",
"*  c #184B1191095A",
"=  c #0EC310D1134D",
"-  c #132A138013E3",
";  c #17F817A4173C",
":  c #1793187A1993",
">  c #1BFC1BBE1B72",
",  c #24851599035C",
"<  c #2A43196604D2",
"1  c #274B1B0C0C5E",
"2  c #34AD216409DF",
"3  c #326224011275",
"4  c #3C742B5F1685",
"5  c #16091A561FB1",
"6  c #1DAA2138258E",
"7  c #23B52378232D",
"8  c #281527DC2796",
"9  c #21F126892C37",
"0  c #24EC28C12D6E",
"q  c #2E412E3A2E33",
"w  c #2A3D2DFD3291",
"e  c #33A1339F339B",
"r  c #30833471392B",
"t  c #34EC39183E0A",
"y  c #3B493B083AB8",
"u  c #46C32E2F1032",
"i  c #4A55308F111B",
"p  c #58713C701A46",
"a  c #5D6540121C4A",
"s  c #649145021E7D",
"d  c #5B8F421D2327",
"f  c #63C6460C21C7",
"g  c #660C48EE259C",
"h  c #68FF49372292",
"j  c #6BB74DF129C3",
"k  c #74C650F72545",
"l  c #792553D82652",
"z  c #7ADF56242950",
"x  c #7D7E581D2A80",
"c  c #41A6416C4125",
"v  c #4C764C3A4BF1",
"b  c #47314B645084",
"n  c #4A134E48536D",
"m  c #52D1529A5256",
"M  c #51DC55CA5A95",
"N  c #5C7C5C765C5B",
"B  c #5B455DFD614F",
"V  c #63AC638C6366",
"C  c #651966866840",
"Z  c #665467F369EE",
"A  c #6BE46BA96B62",
"S  c #748874537413",
"D  c #77787A8A7E47",
"F  c #7AC27A8C7A4A",
"G  c #84A75F39317A",
"H  c #8B8B64A53518",
"J  c #8FF26813376B",
"K  c #927C68FD365A",
"L  c #98976CB53728",
"P  c #92B86A5B391B",
"I  c #9B196EA1385D",
"U  c #9CDF711D3BB8",
"Y  c #A5C277013DF4",
"T  c #A74F792B40DC",
"R  c #AC457C76421E",
"E  c #B46E823A44F5",
"W  c #B94F85A34695",
"Q  c #BE6B89C64987",
"!  c #C3718D754B93",
"~  c #C74E903D4D0A",
"^  c #CBCF935A4E76",
"/  c #CF129601505C",
"(  c #D1A6979450B5",
")  c #D5879A645239",
"_  c #DAD19E7054C1",
"`  c #DEEFA1555627",
"'  c #DF1AA254582B",
"]  c #E166A325572D",
"[  c #E40EA55258C3",
"{  c #E7D6A8605AEE",
"}  c #EA6DAA6B5C4F",
"|  c #F42DB1946050",
" . c #7B6B7DCE80B7",
".. c #8550851984D6",
"X. c #828485A58978",
"o. c #8BFC8BC58B82",
"O. c #922C91F991BB",
"+. c #9598981C9B3D",
"@. c #9CE89D139D4B",
"#. c #9DE89FEFA269",
"$. c #A4EFA499A430",
"%. c #A400A61FA8B5",
"&. c #AEA6AE01AD38",
"*. c #B1F1B112B006",
"=. c #B44EB41FB3E7",
"-. c #BC5ABC66BC74",
";. c #C2EEC162BF7E",
":. c #C26FC241C208",
">. c #C8FFC887C7F6",
",. c #CBCFCC89CD6C",
"<. c #D726D739D751",
"1. c #DD23DCF9DCC6",
"2. c #E133E01DDECA",
"3. c #E39CE376E348",
"4. c #EBAFEB08EA3C",
"5. c #F464F405F391",
"6. c #FAA3F963F7CF",
"7. c #FF12FF11FF0F",
/* pixels */
") ) ) ) _ ) ) ) _ ) ) ) ) ) ) ) ) ) ) ) ) ) ) ) ) ) ) ) ) ) ) ) ) ) ) ",
") ) ) ) ) ) ) ) ) ) ) ) ) ) ) ) ) _ ) ) ) ) ) ) ) ) ) ) ) ) ) _ ) ) ) ",
") ) ) ) ) ) ) ) ) ) ) ) ) ) ) ) ) ~ ) ) ) ) ) ) ) ) ) ) ) ) ) ) ) ) _ ",
") ) ) ) ) ) ) ) ) ) ) ) ) ) ) ] Q & ! ` ) ) ) ) _ ) ) ) ) ) ) ) ) ) ) ",
") ) ) _ ) ) ) ) ) ) ) ) ) ) ) / Y   T / ) ) ) ) ) _ ) ) ) ) ) ) ) ) ) ",
") ) ) ) ) _ ) ) ) ) ) ) ) _ ! * X   o # Q _ ) ) ) ) ) ) ) ) _ ) ) ) ) ",
") ) ) ) ) ) ) ) ) ) ) ) ) ) ( W P   P W ) ) ) ) ) ) ) ) ) ) ) ) ) ) ) ",
") ) ) ) ) ) ) ) ) ) ) ) ) ) ( { ^ X / { ( ) ) ) ) ) ) ) ) ) ) ) ) ) ) ",
") ) ) ) ) ) ) ) ( ) ) ) ) ) _ ) h   g ) _ ) ) ) ) ( ) ) ) ) ) ) ) ) ) ",
") ) ) ) ) ( ) ` ] ] _ ) ) ) / 1 9 C 5 1 / ) ( ) _ [ [ ` ) ( ) ) ) ) ) ",
") ) _ ) ( [ _ E L U Q ] [ } p t 7.7.6.0 s } [ ' W I K R ) [ ) ) ) ) ) ",
") ) ) ) ] H X   - - X # h ) 2 D 7.5.7. .2 ( s # X = -   X G ` ) ) ) ) ",
") ) ) ] g    .1.5.5.<.+.r .   N 7.6.7.B   . t #.1.5.5.1.F   g [ ) ) ) ",
") ( [ H   -.7.7.7.7.7.7.7.-.; O 4.7.4.$ : -.7.7.7.7.7.7.7.-.  P [ ( ) ",
") ) _ @ C 7.6.7.7.7.7.7.7.7.1.o ..7...o 3.7.6.7.7.7.7.7.6.7.C # _ ) ) ",
") ` R   =.7.7.7.7.7.7.7.7.6.7.@.> 5.; @.7.6.7.7.7.7.7.7.7.7.=.  E _ ) ",
") ` T   >.7.7.7.7.7.7.7.7.7.7.7.y N y 6.7.7.7.7.7.7.7.7.7.7.>.  Y ] ) ",
") _ Q   =.7.7.7.7.7.7.7.7.7.6.7.o.  o.7.6.7.7.7.7.7.7.7.7.7.*.  Q _ ) ",
") ) ` % B 7.6.7.7.7.7.7.7.6.6.7.;.  >.7.6.7.6.7.7.7.7.7.6.7.B , ] ) ) ",
") ( [ H   *.7.6.7.7.7.7.7.7.7.7.<.o 1.7.7.7.7.7.7.7.7.6.7.&.  J [ ) ) ",
") ) ) ` d   $.7.7.6.3.-.@...S Z m   m A S o.$.;.3.7.7.7.@.  f ' ) ) ) ",
") ) ) ) ] g   V N - X - 7 e c v m C m v y e 7 - O - N V   j [ ) ) ) ) ",
") ) ) ) ) { P   r &.<.5.7.7.7.7.7.7.7.7.7.7.7.5.<.=.r   U [ ) ) ) ) ) ",
") ) ) ) ) ( | p b 7.7.7.7.7.7.7.7.7.7.7.7.7.7.7.7.7.n p | / ) ) ) ) ) ",
") ) ) ) _ ( [ x 6 2.&...V v y e q q q e r b  .T $.1.7 z [ ( ) ) ) ) ) ",
") ) ) ) ) ) ` R   O ; e v C F ..o.O.o.X. .B b e ; O   Y ` ) ) ) ) ) ) ",
") ) ) ) ) ) ` Y o 1.7.7.7.7.7.7.7.7.7.7.6.6.7.7.7.1.o Y ` ) ) ) ) _ ) ",
") ) ) ) ) ( { h t 4.$.S m e 8 7 > > > 6 6 r v S $.4.r s { ) ) ) ) ) ) ",
") ) ) ) ) ( ] 4       > c V F o.O.O.O.o.F V c >       u ` ) ) ) ) ) ) ",
") ) ) ) ) _ !   q -.7.7.7.7.7.7.7.7.7.7.7.7.7.7.7.:.r   ! _ ) ) ) ) ) ",
") ) ) ) ) ) ~ 4 $ r B X.%.-.,.<.1.1.1.<.,.-.#. .M w O 3 ! ) ) ) ) ) ) ",
") _ ) ) ) ) _ ] E l u < # X X X O O o X . . @ < u k R _ _ ) ) ) ) ) ) ",
") ) ) ) ) ) ) ) _ { } [ _ ^ ! ! W W W Q ! ( _ [ } { _ ) ) ) ) ) ) ) ) ",
") ) ) ) _ ) ) ) ) ( ( ) ) _ _ _ _ _ _ _ _ ) ) ) ( ( ) ) ) ) ) ) ) ) ) ",
") ) ) ) ) ) ) ) ) ) ) ) ) ) ) ) ( ) ) ( ) ) ) ) ) ) ) ) ) ) ) ) ) _ ) "
};
