/* XPM */
static char *kld__[] = {
/* columns rows colors chars-per-pixel */
"45 45 116 2",
"   c #00CA00A1009B",
".  c #0BA6055400E0",
"X  c #0BC508AF04EB",
"o  c #01FC05320921",
"O  c #06FA0A040E29",
"+  c #0C150BF20BC9",
"@  c #15200E2505A1",
"#  c #0FA50F710F31",
"$  c #193B108C05F4",
"%  c #15AA0FC608C0",
"&  c #1B72137309CD",
"*  c #0CD10ECE117C",
"=  c #0F871245159E",
"-  c #12AA12DA131F",
";  c #1326162319C9",
":  c #1B851C231CE4",
">  c #217D18030C74",
",  c #2AF61C1E0A05",
"<  c #1FBC1F7E1F35",
"1  c #35EE23740D6F",
"2  c #38FC25E00ED7",
"3  c #333924621272",
"4  c #3B3B2A93163B",
"5  c #3F002D8C1841",
"6  c #24E724AA2461",
"7  c #233826612A6F",
"8  c #27652A972EA4",
"9  c #2D4C2D112CC9",
"0  c #2FDF2FA62F60",
"q  c #2BFC2EFD3290",
"w  c #362C35F735B6",
"e  c #358937593983",
"r  c #3CA13C0F3B5E",
"t  c #40702E9718CF",
"y  c #4D1836731B14",
"u  c #4E0338701E37",
"i  c #51B93A751E13",
"p  c #52C83C77213F",
"a  c #5B8742A42446",
"s  c #40073FC83F7B",
"d  c #639447AE25E1",
"f  c #69A54C4B2887",
"g  c #74B0545D2CEC",
"h  c #790457952EB9",
"j  c #7DB65B9431EE",
"k  c #441E43DD438C",
"l  c #4B424AFF4AAD",
"z  c #50224FDF4F8C",
"x  c #52C553765450",
"c  c #5D4E5D095CB5",
"v  c #60095FC75F76",
"b  c #5C255DD85FF0",
"n  c #62F76310632F",
"m  c #66E5683869CB",
"M  c #6C7D6C1A6BA1",
"N  c #70ED6F736DAF",
"B  c #70A970226F7D",
"V  c #768B767F7670",
"C  c #7CB47C8A7C57",
"Z  c #822D5EB5336C",
"A  c #867061D8352A",
"S  c #8B74654236A1",
"D  c #8EC367AD37FB",
"F  c #97036E453C79",
"G  c #99346F1E3BC2",
"H  c #9D5172363D97",
"J  c #A28E75A43ED4",
"K  c #A2C9769340A0",
"L  c #A53A789A4225",
"P  c #AB737C99436D",
"I  c #B0357FC744AD",
"U  c #AFCB8039462B",
"Y  c #B29F81EE4683",
"T  c #B63F84E248A4",
"R  c #BE698AA14B6F",
"E  c #C3A38DCB4C16",
"W  c #C60C90494EAD",
"Q  c #CAF193154EEC",
"!  c #CC7894B650A4",
"~  c #D11F973B5097",
"^  c #D5A49A785242",
"/  c #DA509DE0541F",
"(  c #DF16A15355F5",
")  c #E1F6A3635706",
"_  c #E476A56D587E",
"`  c #EBACAAA35B47",
"'  c #F44DB0A15E0D",
"]  c #F5AAB24B6013",
"[  c #836F833482EE",
"{  c #882287DD8788",
"}  c #8DE58D538CA2",
"|  c #950894BB945C",
" . c #9876975195ED",
".. c #9DA49D0F9C5A",
"X. c #A1389FED9E58",
"o. c #A50EA478A3C0",
"O. c #A850A6E5A52C",
"+. c #AB03A9A0A7EF",
"@. c #AC99AC4DABF1",
"#. c #B65FB5D8B534",
"$. c #B867B822B7CE",
"%. c #B970B83BB6C2",
"&. c #BD96BD28BCA1",
"*. c #C23EC0EDBF53",
"=. c #C4EEC431C349",
"-. c #C95BC844C6F0",
";. c #CE7BCE36CDE1",
":. c #D3D4D352D2B4",
">. c #DA98D95DD7DC",
",. c #DBB2DB4FDAD6",
"<. c #E0AAE06DE023",
"1. c #E4C2E44FE3C2",
"2. c #EC39EBB9EB1B",
"3. c #F0AEF074F02E",
"4. c #F4B2F43EF3B0",
"5. c #FF19FF17FF14",
/* pixels */
"^ ^ ^ ^ ^ ^ ^ ^ / ^ ^ ^ ^ ^ ^ ^ ^ ^ ^ ^ ^ ^ ^ ^ ^ ^ ^ ^ ^ ^ ^ ^ ^ ^ ^ ^ ^ ^ ^ ^ ^ ^ ^ ^ ^ ",
"^ ^ ^ ^ ^ ^ ^ ^ ^ ^ ^ ^ ^ ^ ^ ^ ^ / ^ ^ ^ ^ ~ ^ ^ ^ ^ ^ ^ ^ ^ ^ ^ ^ ^ ^ ^ ^ / ^ ^ ^ ^ ^ ^ ",
"^ ^ ^ ^ ^ ^ ^ ^ ^ ^ ^ ^ ^ ^ ^ ^ ^ ^ ^ ^ ^ / ( ^ ^ ^ ^ ^ ^ ^ ^ ^ ^ ^ ^ ^ ^ ^ ^ ^ ^ ^ ^ ^ ^ ",
"^ ^ ^ ^ ^ ^ ^ / ^ ^ ^ ^ ^ ^ ^ ^ ^ ^ ^ ^ ^ ~ P ~ / ^ ^ ^ / ^ ^ ^ / ^ ^ ^ ^ ^ ^ ^ ^ ^ ^ ^ ^ ",
"^ ^ ^ ^ ^ ^ ^ ^ ^ ^ ^ ^ ^ ^ ^ ^ ^ ^ ^ ~ / H   J / ~ ^ ^ ^ ^ ^ ^ ^ ^ ^ ^ ^ ^ ^ ^ ^ ^ ^ ^ ^ ",
"^ ^ ^ ^ ^ ^ ^ ^ ^ ^ ^ ^ ^ ^ ^ ^ ^ ^ ^ ) ' J   L ' ) ^ ^ ^ ^ ^ ^ ^ ^ ^ ^ ^ ^ ^ ^ ^ ^ ^ ^ ^ ",
"^ ^ / ^ ^ ^ ^ ^ ^ ^ ^ / ^ ^ ^ ^ ^ ^ / g i 5   5 i g / ^ ^ ^ ^ ^ ^ ^ ^ ^ ^ / ^ ^ ^ ^ ^ ^ ^ ",
"^ ^ ^ ^ ^ ^ ^ ^ ^ ^ ^ ^ ^ ^ ^ ^ ^ ^ / t . X   X . 4 / ^ ^ ^ ^ ^ ^ ^ ^ ^ ^ ^ ^ ^ ^ / ^ ^ ^ ",
"^ ^ ^ ^ ^ ^ ^ / ^ ^ ^ ^ ^ ^ ^ ^ ^ ^ ^ / ) G   F ( ^ ^ ^ ^ ^ ^ ^ ^ ^ ^ ^ ^ ^ ^ ^ ^ ^ ^ ^ ^ ",
"^ ^ ^ ^ ^ ^ ^ ^ ^ ^ ^ ^ ^ ^ ^ ^ ^ ^ ^ ~ ) H   H ) ~ ^ ^ ^ ^ ^ ^ ^ ^ ^ ^ / ^ ^ ^ ^ ^ ^ ^ ^ ",
"^ ^ ^ ^ ^ ^ ^ ^ ^ ^ ^ ^ ^ ^ ^ ^ ^ ^ ^ ^ ` F   H ` ^ ^ ^ ^ ^ ^ ^ ^ ^ ^ ^ ^ ^ ^ ^ ^ ^ ^ ^ ^ ",
"^ ^ ^ / ^ ^ ^ ^ ^ ^ ~ ^ ^ ^ ^ ^ ^ ^ / Q y       u ! / ^ ^ ^ ^ ^ ~ ^ ~ ^ ^ ^ ^ ^ ^ ^ ^ ^ ^ ",
"^ ^ ^ ^ ^ ^ ^ ~ ^ / ( ( / ^ ~ ^ ^ ^ ^ 3 O C o.M   3 / ^ ^ ^ ~ / ( ( ( / ~ ^ ^ ^ / ^ ^ ^ ^ ",
"^ ^ ^ ^ ^ ^ ~ ) ) ! T P R ^ _ _ ^ ( A   &.5.4.5.o.  S ) ^ _ _ ~ T P U W ) ) ~ ^ ^ ^ ^ ^ ^ ",
"^ ^ ^ ^ ^ ^ ) H 3           2 S ! ' y ; 5.5.5.5.5.; i ' Q A 1           , F ) ^ ^ ^ ^ ^ ^ ",
"^ ^ ^ ^ / / p   - n | o.| m 7     f 4 - 3.5.5.5.4.; 4 d     q M | o.| n ;   p / ^ ^ ^ ^ ^ ",
"^ ^ ^ ^ ) p   M 4.5.5.5.5.5.5.:.n o     $.5.5.5.$.    o M >.5.5.5.5.5.5.4.m   p ) ~ ^ ^ / ",
"^ ^ ~ ) A   M 5.5.5.5.5.5.5.5.5.5.,.w   n 5.4.5.v   r ,.5.5.5.5.5.5.5.5.5.5.N   S ) ^ ^ ^ ",
"^ ^ ^ ~ @ ; 2.5.5.5.5.5.5.5.5.5.5.5.3.9   ,.5.,.  w 2.5.5.5.5.5.5.5.5.5.5.5.4.: $ ~ ^ ^ ^ ",
"^ ^ ) J   M 5.5.5.5.5.5.5.5.5.5.5.5.5.:.  M 5.M   :.5.5.5.5.5.5.5.5.5.5.5.4.5.M   K ) ^ ^ ",
"^ ~ _ Z    .5.5.5.5.5.5.5.5.5.5.5.5.5.5.m + 1.+ M 5.5.5.5.5.5.5.5.5.5.5.5.5.5. .  Z _ ~ ^ ",
"^ ~ _ A   ..5.5.5.5.5.5.5.5.5.5.5.5.5.5.>.+ n + ,.5.5.5.5.5.5.5.5.5.5.5.5.5.5...  A _ ~ ^ ",
"^ ~ ) K   C 5.5.5.5.5.5.5.5.5.5.5.5.5.5.5.l   l 5.5.5.5.5.5.5.5.5.5.5.5.5.5.5.C   K ( ^ ^ ",
"^ ~ / Q   w 5.5.5.5.5.5.5.5.5.5.5.5.5.5.5.{   } 5.5.5.5.5.5.5.5.5.5.5.5.5.5.5.w . ! / ~ ^ ",
"^ ^ ^ _ p   +.5.5.5.5.5.5.5.5.5.5.4.5.5.5.+.  @.5.5.5.5.5.5.4.5.5.5.5.5.4.5.O.  a ) ^ ^ ^ ",
"^ ^ ^ / E @ X *.5.5.5.5.5.5.5.5.5.5.5.5.5.$.  *.5.5.5.5.5.5.5.5.5.5.5.5.5.&.o @ W / ^ ^ ^ ",
"^ ^ ^ ~ ) J o o O.5.5.5.4.<.&...[ M c l k 9   9 k l c B { O.=.1.5.5.5.5.X.o X P ) ^ ^ ^ ^ ",
"/ ^ ^ ^ ^ ) P %   V ..r +         X - : 6 w r 9 6 : - X         - k  .N   % I ) ~ ^ ^ ^ ^ ",
"^ ^ / ^ ^ ~ ) E 3     6 v | &.,.2.5.5.5.5.5.5.5.5.5.5.5.2.,.&. .n 6     4 E ) ~ ^ ^ ^ ^ ^ ",
"^ ^ ^ ^ ^ ^ ~ / _ u o 1.5.5.5.5.5.5.5.5.5.5.5.5.5.5.5.5.5.5.5.5.5.2.o i _ / ~ ^ ^ ^ / ^ ^ ",
"^ ^ ^ ^ ^ ^ ^ ~ _ D   =.5.5.5.5.5.5.5.5.5.5.5.5.5.5.5.5.5.5.5.5.5.=.  S _ ~ ^ ^ ^ ^ ^ ^ ^ ",
"^ ^ ^ ^ ^ ^ ^ ~ ( P   ..5.=.o.C v l w 8 6 < : < < 8 w k c C ..&.5.X.  P ( ^ ^ ^ ^ ^ ^ ^ ^ ",
"^ ^ ^ ^ ^ ^ ^ ^ / E X % o       - 6 w k l l x z l k w 6 -         + X E / ^ ^ ^ ^ ^ ^ ^ ^ ",
"^ ^ ^ ^ ^ ^ ^ ^ ^ / & ; } #.,.4.5.5.5.5.5.5.5.5.5.5.5.5.5.4.,.$.} : $ ~ ^ ^ ^ ^ ^ ^ ^ ^ ^ ",
"/ ^ ^ ^ ^ ^ ^ ^ / E   C 5.5.5.5.5.5.4.2.1.1.,.1.1.2.4.5.5.5.5.5.5.[   R / ^ ^ ^ ^ / ^ ^ ^ ",
"^ ^ ^ ^ ^ ^ ^ ~ _ S   %.;.| n k 6 % o               o + 6 r n } ;.#.  S ) ^ ^ ^ ^ ^ ^ ^ ^ ",
"^ ^ ^ ^ ^ ^ ^ ~ _ p   +       + 9 l c M C [ [ [ C N n l 9 +       X   p ) ~ ^ ^ ^ ^ ^ ^ ^ ",
"^ ^ ^ ^ ^ ^ ^ / ^ >   w C #.1.4.5.5.5.5.5.5.5.5.5.5.5.5.5.5.1.&.{ r   > ^ ^ ^ ^ ^ ^ / ^ ^ ",
"^ ^ ^ ^ ^ / ~ ( Y   + } 2.5.5.5.5.5.5.5.5.5.5.5.5.5.5.5.5.5.5.5.1.} =   I ( ~ ^ ^ ^ ^ ^ ^ ",
"^ ^ ^ ^ ^ ^ ^ ^ Q h &     * e b C | +.#.&.=.=.=.&.#.O.} V x q O     @ f Q / ^ ^ ^ ^ ^ ^ ^ ",
"^ ^ ^ ^ ^ ^ ^ ^ / _ ^ Y Z i , .                           . , y j P ^ _ / ^ ^ ^ ^ ^ ^ ^ / ",
"/ ^ ^ ^ ^ ^ ^ ^ ^ ~ ^ ( _ _ _ / ! E Y P K H H H J P Y E ! ^ ) _ _ ) ^ ~ ^ ^ ^ ^ ^ ^ ^ ^ ^ ",
"^ ^ ^ ^ ^ ^ ^ ^ ^ ^ ^ ^ ^ ~ ^ ^ / / ( ( ) ) ) ) ) ( / / / ^ ^ ~ ~ ^ ^ ^ ^ ^ ^ ^ ^ ^ ^ ^ ^ ",
"^ ^ ^ ^ ^ ^ / ^ ^ ^ ^ ^ ^ ^ ^ ^ ^ ^ ~ ^ ~ ~ ^ ~ ~ ~ ~ ^ ^ ^ ^ ^ ^ ^ ^ ^ ^ ^ ^ ^ ^ ^ ^ ^ ^ ",
"^ ^ ^ ^ ^ ^ ^ ^ ^ ^ ^ ^ ^ ^ ^ ^ ^ ^ ^ ^ ^ / ^ ^ ^ ^ ^ ^ ^ ^ ^ ^ ^ ^ ^ ^ ^ ^ ^ ^ ^ ^ ^ ^ ^ "
};
