/* XPM */
static char *kld__[] = {
/* columns rows colors chars-per-pixel */
"43 43 114 2",
"   c #00AF009100A2",
".  c #0A43055C019F",
"X  c #0D6409620483",
"o  c #021C057209E4",
"O  c #056707E00B89",
"+  c #0C5D0C520C4C",
"@  c #112F0BAF04F5",
"#  c #1B740F97011D",
"$  c #1AC913720A51",
"%  c #09FE0DC812A6",
"&  c #0DE31017131F",
"*  c #140E13DA139B",
"=  c #179D175E1711",
"-  c #19EA19B3196F",
";  c #2165141A043C",
":  c #2CFB1D1209FB",
">  c #32BD21370BC3",
",  c #369026C6137F",
"<  c #3D5829E6122D",
"1  c #390D29EB179D",
"2  c #229122522204",
"3  c #2504264C27DC",
"4  c #264629C52E10",
"5  c #2B852B9C2BB7",
"6  c #2A142DA431E6",
"7  c #2DAD30C7348F",
"8  c #340A33CF3384",
"9  c #3245357B3951",
"0  c #3BFE3BEE3BDB",
"q  c #42D12D2B12C0",
"w  c #406C2F621AA1",
"e  c #43D131081A1B",
"r  c #53F63B651DA5",
"t  c #5A1D3F8A1F1C",
"y  c #54CA3D942141",
"u  c #3FD13F923F45",
"i  c #5D7F438023C6",
"p  c #6510477C236D",
"a  c #6429486926A1",
"s  c #66C74AA12867",
"d  c #6C8E4E8B29ED",
"f  c #748953372A90",
"g  c #798E56EB2CA7",
"h  c #7BB558772D75",
"j  c #7DD25B613158",
"k  c #3C253E084065",
"l  c #3F314204458F",
"z  c #407B40403FF8",
"x  c #44C147474A5F",
"c  c #46D049234BF7",
"v  c #4D0D4CA94C2F",
"b  c #535951714F20",
"n  c #53A1534B52E3",
"m  c #59365723549D",
"M  c #5A535A355A11",
"N  c #5D865F0A60EB",
"B  c #634A631062CA",
"V  c #668467E1698B",
"C  c #664A68036A24",
"Z  c #6C666C156BB2",
"A  c #734072E8727D",
"S  c #7975792D78D6",
"D  c #83C05F0E3246",
"F  c #85C66132348F",
"G  c #8AF0649335C1",
"H  c #914E68DE3786",
"J  c #962D6CE23A81",
"K  c #992C6EF53B60",
"L  c #9DE672803D74",
"P  c #A22B75613EB8",
"I  c #A4A8775F401B",
"U  c #AAF87BD4424D",
"Y  c #B3A582A946E2",
"T  c #B6BB85184885",
"R  c #B94E86EB496E",
"E  c #BD34898D4A7C",
"W  c #C38C8E0C4CBB",
"Q  c #C6F690CF4EBB",
"!  c #CC1393B34EE7",
"~  c #CFBE966B5076",
"^  c #D20097E150F2",
"/  c #D5959A6C523A",
"(  c #DB559EB054AE",
")  c #DE87A10855FC",
"_  c #DF1AA24D581B",
"`  c #E231A388570F",
"'  c #E4C6A5B558BF",
"]  c #F2C9AFA95DBF",
"[  c #853984AC8400",
"{  c #88D387308531",
"}  c #89CB8A368AB8",
"|  c #93C993C493BE",
" . c #98BB986E980F",
".. c #9CD69C709BF4",
"X. c #A2C3A18BA010",
"o. c #A579A48DA36D",
"O. c #AD0EACD3AC89",
"+. c #B5CAB586B535",
"@. c #BC53BBC3BB13",
"#. c #C298C167BFF2",
"$. c #C55DC506C49B",
"%. c #C8EBC854C798",
"&. c #CB70CADCCA28",
"*. c #D4D3D3F9D2EF",
"=. c #D97ED885D755",
"-. c #DCBFDC37DB90",
";. c #E09BE05DE012",
":. c #E4D0E410E321",
">. c #ECC2EC1FEB58",
",. c #F0F8F00FEEF2",
"<. c #F21DF0CDEF33",
"1. c #F301F2D2F297",
"2. c #F8ACF881F84C",
"3. c #FF32FF31FF2F",
/* pixels */
"/ / / / / / / / / / / / / / / / / / / / / / / / / / / ( / / / / / ( / / / / / / / / / ",
"/ / / / / / / / / / / / / / / ( / / / / / ^ / / / / / / / / / / / / / / / / / / / / ( ",
"/ / / / / / / / / / / / / / / / / / / / / ` ( / / / / / / / / / / / / / / / / / / / / ",
"/ / / / ( / / / ( / / / / / / / / / / ( ! G ~ / / / / / / / / / / / / / / / / / / / / ",
"/ ( / / / / / / / / / / / / / / / / ^ ` I   I ` / / / / / / / / / / / / / / / / / / / ",
"/ / / / / / / / / / / / / / / / / / / ` P   I ` ( / / / / / / ( / / / / / / / / / / / ",
"/ / / / / / / / / / / / / / / / ^ ` i . @   @ . i ) ^ / / / / / / / / ( / / / / / / / ",
"/ / / / / / / / / / / / / ( / / / ) G i e   e y G ( / / / / / / / / / / / / / / / / / ",
"/ / / / / / / / / / / / / / / / / / ( ] U   U ] ) ^ / / / / / / / / / / / / / / / / / ",
"/ / / / / / / / / / / / / / / / / / ! ` U   U ` ~ / / / / / / / / / / / / / / / / / / ",
"/ / / / / / / / / / / / / / / / / / ` W r   r W ) ^ / / / / / / / / / / / / ( / / / / ",
"/ / / / / / / / ^ / / / ^ ^ / / / ` K   % 8 +   L ) ^ / / ^ / / / / ^ ^ / / / / / / / ",
"/ / / / / / ^ ( ' ' ` ` ' ' _ ^ / W . M 3.3.>.k . Q / ^ ) ' ' ` _ ` ' ( / / / / / / / ",
"/ / / / / / ' R d > ; ; q g R ` ] D   ;.3.2.3.=.  G ] _ R f < ; # > s T ` / / / / / / ",
"( / / / / ( s   o 4 c x 4 O   ; L d o >.3.3.3.>.O d L $   O 6 x c 4     a ( / / / / / ",
"/ / / / ` y   B :.3.3.3.3.>.O.0   .   +.3.2.3.+.  .   z O.,.3.3.3.3.:.B   y ` / / / / ",
"/ / ^ ' j   [ 3.3.3.3.3.3.3.3.3.$.5   B 3.2.3.N   5 %.3.3.3.3.3.3.3.3.3.{   j ' ^ / / ",
"/ / ( W   0 3.3.2.3.3.3.3.3.2.3.3.>.5 o :.3.-.o 5 <.3.3.2.3.3.3.3.3.2.3.3.0   ~ ( / / ",
"/ ^ ' D   X.3.2.3.3.3.3.3.3.3.3.2.3.*.  A 3.Z   -.3.3.3.3.3.3.3.3.3.3.2.3.o.  G ' ^ / ",
"/ ^ ' i   &.3.3.3.3.3.3.3.3.3.3.3.3.3.A + >.+ S 3.2.3.3.3.3.3.3.3.3.3.3.3.&.  i ' ^ / ",
"/ ^ ' a   *.3.3.3.3.3.3.3.3.3.3.3.3.3.:.* N * :.3.3.3.3.3.3.3.3.3.3.3.3.3.*.  i ' ^ / ",
"/ ^ ' j   +.3.3.3.3.3.3.3.3.3.3.3.3.3.3.m   M 3.3.3.3.3.3.3.3.3.3.3.3.3.3.@.  D ' ^ / ",
"/ / ) Y   A 3.2.3.3.3.3.3.3.3.3.3.3.2.3.|    .3.2.3.3.3.3.3.3.3.3.3.3.2.3.A   T ( / / ",
"/ / ^ ) , o =.3.2.3.3.3.3.2.3.2.3.3.3.3.+.  @.3.3.3.3.2.3.2.3.3.3.3.3.3.*.  < ` / / / ",
"/ / ^ ) U   2 -.3.2.3.3.3.3.3.3.3.3.3.3.@.  %.3.2.3.3.3.3.3.3.3.3.2.3.=.-   T ( / / / ",
"/ / / / ' K   * #.3.3.>.$. .A n 0 5 2 - *   + - 2 5 z m S ..%.1.3.3.@.*   P ` ^ / / / ",
"/ / / / ^ ' I X O Z 8       + 3 0 v M B Z A Z B M v 0 3 +       8 B o @ U ' ^ / / / / ",
"/ / / / / ^ ' E 1   5 | %.:.3.3.3.3.3.3.3.3.3.3.3.3.3.3.3.>.%.| 8   w W ` ^ / / / / / ",
"/ / / / / / ^ ) ) . B 3.3.3.3.3.3.3.3.3.3.3.3.3.3.3.3.3.3.3.3.3.V . ) ( / ( / / / / / ",
"/ / / / / / / ^ ` > 7 3.3.3.3.2.>.-.*.%.%.$.$.%.*.=.>.1.3.3.3.3.9 : ` ^ / / / / / / / ",
"/ / / / / / / ^ ' t % o.Z 0 - o                     o   % k B ..% t ' ^ / / / / / / / ",
"/ / / / / / / ^ ` G     = 0 B [  .O.@.$.%.%.%.$.@.O. .[ C i =     D ' / / / / / / / / ",
"/ / / / / / / ^ ' D   &.3.3.3.3.3.3.3.3.3.3.3.3.3.3.3.3.3.3.3.&.  j ' ^ / / / / / / / ",
"/ / / / / / / / ' < 4 3.2.-.@.X.[ A B M n n n M B A [ ..@.-.2.3.4 < ' / / / / / / / / ",
"/ / / / / / / / ^ @ 5 b +           + * = - - * +           + v 3 @ ^ / / / / / / / / ",
"/ / / / / / / ) U     o 0 S o.%.;.1.2.3.3.3.3.3.2.1.:.&.O.S 0 +     U ` / / / / / / / ",
"/ / / / / / ^ ' d   b :.3.3.3.3.3.3.3.3.3.3.3.3.3.3.3.3.3.3.3.:.m   d ' ^ / / / / / / ",
"( / / / / / / ` K $   % 9 C | +.%.-.:.>.<.<.<.>.:.-.%.O.} N 6 O   @ G ) ^ / / / ( / / ",
"/ / / / / / ( / ) / L p > .           o o O o             . : p K ! ` / / / / / / / / ",
"/ / / / / / / / ^ / ` ' ' ( Q Y I H D h f f g h D H L Y Q / ` ' ` / / / / / / / / / / ",
"/ / / / / / / / / / / ^ / / / ` ` ` ' ' ' ' ' ' ' ' ` ) ( / / / / / / / / / / / / / / ",
"/ / / / / / / / / / / / / / / / ^ / ^ ^ / / ^ ^ ^ ^ ^ / / / / / / / / / / / / / / / / ",
"/ / / / / / / / / / / / / / / / / / / / / / / / / / / / / / / / / / ( / / / / / / / / "
};
