/* XPM */
static char *kld__[] = {
/* columns rows colors chars-per-pixel */
"46 46 121 2",
"   c #00A3007A0062",
".  c #0B8B04D80053",
"X  c #0CE608890337",
"o  c #04D206C10931",
"O  c #067209BD0DF6",
"+  c #0A820AB60B08",
"@  c #12780A4001F0",
"#  c #19E70F1B0255",
"$  c #127E0DCC0831",
"%  c #1E6312E00574",
"&  c #168B104C08AE",
"*  c #1C2D14CE0BF6",
"=  c #0E830F0A0FC7",
"-  c #0D38104A1464",
";  c #139813B713DE",
":  c #17ED1797172E",
">  c #1B961B5F1B1C",
",  c #2124174C0B99",
"<  c #23AA19730CFC",
"1  c #2AE31C6F0A76",
"2  c #29361DCC0FDE",
"3  c #1FBB1F7C1F2E",
"4  c #36B124DF0EED",
"5  c #2E8B22261307",
"6  c #31F524961445",
"7  c #37AB2840156F",
"8  c #3B842A7815AE",
"9  c #3F1D2D5D17B5",
"0  c #1AF31E8A230E",
"q  c #1D8621082567",
"w  c #2439240023BF",
"e  c #275B293D2B8C",
"r  c #2C262C212C17",
"t  c #2F802F972FB3",
"y  c #2DBE3023333B",
"u  c #31803269337F",
"i  c #37F237B43768",
"p  c #333A35843871",
"a  c #3CA83C233B89",
"s  c #40002D1A15FD",
"d  c #45D731621885",
"f  c #4B3D35021A02",
"g  c #546E3DAB21E3",
"h  c #3FE23F913F2F",
"j  c #5C06434F252D",
"k  c #645F49382821",
"l  c #6A664DD52AF8",
"z  c #6F90501A29C0",
"x  c #72F653332C70",
"c  c #78FE57542E3F",
"v  c #7AF058E32F54",
"b  c #7C4159D62FD5",
"n  c #3CDF3F034198",
"m  c #3E2840154269",
"M  c #4447442E440F",
"N  c #495347C045D1",
"B  c #45AE473F492B",
"V  c #4CD94D2E4D98",
"C  c #4DBA4F1350B8",
"Z  c #53A753FD5466",
"A  c #56C8575257FF",
"S  c #5CFC5C965C1A",
"D  c #641F63C6635C",
"F  c #65E266DA6808",
"G  c #6A6A6A2C69E1",
"H  c #745A73F0736F",
"J  c #7C727C437C09",
"K  c #81825DA231DB",
"L  c #868D614833CC",
"P  c #89A0643D3684",
"I  c #8F44689C3970",
"U  c #92276A8D3A2B",
"Y  c #998C6FA03C6F",
"T  c #9D3272703E41",
"R  c #9E9C7418403D",
"E  c #A2DB76994098",
"W  c #A65278D4414B",
"Q  c #ACF77DAC43F3",
"!  c #80517F677E44",
"~  c #B318825146CB",
"^  c #B9D4865B478A",
"/  c #B57484424839",
"(  c #B95E86D74927",
")  c #BD6289E64B10",
"_  c #C3C08DE94C34",
"`  c #C6EB907F4E15",
"'  c #CA7292754E22",
"]  c #CE85965C51D2",
"[  c #D198978A50B1",
"{  c #D5A09A755241",
"}  c #DA499DF55456",
"|  c #DECDA12C55F6",
" . c #E23AA38E5712",
".. c #E47DA57E589E",
"X. c #ECA3AB2C5B48",
"o. c #83D483C983BB",
"O. c #8D0C8CC08C63",
"+. c #904C90058FAE",
"@. c #9623959F94FE",
"#. c #9CF49CA59C43",
"$. c #A0CCA0679FE4",
"%. c #A562A4EFA464",
"&. c #AC9EAC0BAB59",
"*. c #B24AB0FCAF65",
"=. c #B3EDB389B30F",
"-. c #B949B88AB79F",
";. c #BC8DBBE5BB17",
":. c #C335C2DCC270",
">. c #CE2DCDE9CD95",
",. c #D0EBD02ACF3E",
"<. c #D5BFD510D43C",
"1. c #D905D7CFD652",
"2. c #DC69DC11DBA7",
"3. c #E0BDE082E039",
"4. c #E573E4F9E463",
"5. c #EC8EEC53EC0A",
"6. c #F29CF19CF05D",
"7. c #F3F5F38BF309",
"8. c #F952F85FF729",
"9. c #F8E7F8A9F85A",
"0. c #FF3FFF3DFF3B",
/* pixels */
"{ { { { { { { { { { } { { { { { { { { { { { { { { { { { { { { { { { { { { { } { { { { { { } ",
"{ { { { { { { { { { { { { { { { { } { { { { { { { { { { { { { { { { { { { { { { { { { { { { ",
"{ { { { { { } { { { { { { { { { { { { { { [ } } { { { { { { { { } { { { { { { { { { { { { { ",
"{ { { { { { { { { { { { { { { { { { { { { } _ _ } { { { { { { { { { { { { { { { { { { { { { ",
"{ { { { { { { { { { { { { { { { { { { { [ } 5 6 } [ { { } { { { { { { { { { { { { { { { { { ",
"{ { { { { { { { { { { { { { { { { { { } ..X.2 1 X...} { { { { { { { { { { { { { { { { { { { ",
"{ { { { } { { { { { { { { { { { { { } ^ x v $ & v x ^ } { { { { { { { { { { { { { { { { { { ",
"{ { { { { { { { } { { { { { { { { { ..L             K ..[ { { { { { { { { } { { { } { { { { ",
"{ { { } { { { { { { { { { { { { { { { { _ ` , , ' _ { { { { { { { { { { { { { { { { { { { { ",
"{ { { { { { { { { { { { { { { { { { { { } | < <  .} { { { { { { { { { { { { { { { { { { { { ",
"{ { { { { { { { } { { { { { { { { { { [ } X.6 6 ..} [ { { { { { { { { { { { { { { { { { { { ",
"{ { { { { { { { { { { { { { { { { { { | ( d     f ^  .[ } { { { { { { { { } { { { { { { { { ",
"{ { { { { { { { { [ { { { { { { { [ | Q . = C V o X Q | [ { [ [ { { { { { [ { { { { { { { { ",
"{ { { { { { { {  ...} } } ....| { { } , e 7.0.0.1.; 1 } [ {  ... .} { }  ...{ { } { { { { { ",
"{ { { { { [ | { I d , @ % 4 x / | X.~   @.0.9.9.0.O.  / X.| ~ z 4 # X # 9 P { | { { { { { { ",
"{ { { } {  .Q ,   O y M n 0     , U T   %.0.0.0.0.&.  E P %     q m M u O   * W  .{ { { { { ",
"{ { { { ..E . + @.6.0.0.0.0.4.#.y   $   F 0.0.9.0.G   +   p %.4.0.0.0.0.6.@.+ . E  .{ { { { ",
"{ { { } _ X ; <.0.0.0.0.0.0.0.0.0.-.w   5 7.0.0.7.q   w ;.0.0.0.0.0.0.0.0.0.<.: X ` } { { { ",
"{ { { | g   &.0.9.0.0.0.0.0.0.9.0.0.7.a   %.0.0.$.  h 7.0.0.9.0.0.0.0.0.0.9.0.*.  j | { { { ",
"{ { | )   r 0.0.0.0.0.0.0.0.0.0.0.9.0.4.; r 0.0.e ; 5.0.9.0.0.0.0.0.0.0.0.0.0.0.t   _ } { { ",
"{ [  .Y   G 0.0.0.0.0.0.0.0.0.0.0.0.9.0.%.  :.:.  %.0.0.0.0.0.0.0.0.0.0.0.0.0.0.G   T  .[ { ",
"{ { ..I   J 0.9.0.0.0.0.0.0.0.0.0.0.0.0.0.w D D w 0.0.0.0.0.0.0.0.0.0.0.0.0.9.0.J   U ..{ { ",
"{ { | E   H 0.9.0.0.0.0.0.0.0.0.0.0.0.9.0.O.+ + O.0.9.0.0.0.0.0.0.0.0.0.0.0.0.0.H   E  .[ { ",
"{ { } _   M 0.0.0.0.0.0.0.0.0.0.0.0.0.0.0.1.  o 2.0.0.0.0.0.0.0.0.0.0.0.0.0.0.0.M   _ } { { ",
"{ { [ | 7   <.0.9.0.0.0.0.0.0.0.0.0.0.0.0.9.> > 9.0.0.0.0.0.0.0.0.0.0.0.0.0.0.,.  9 | { { { ",
"{ { { | T   a 9.0.0.0.0.9.0.0.9.0.0.0.0.0.0.w r 0.0.0.0.0.0.9.0.9.0.0.0.9.0.9.p   E  .{ { } ",
"{ { { {  .j   N 6.0.0.0.0.0.0.0.0.0.7.4.4.4.w r 4.4.4.7.0.0.0.0.0.0.0.9.0.6.j o k  .[ { { { ",
"{ { { { { } g   r 1.0.5.;.O.S a > +                     + w a D +.:.5.0.<.w o g } { { { { { ",
"{ { { { { {  .l   > M o     + e M D H o.+.@.#.#.@.@.o.H D M r +     o M :   x  .{ { { { { { ",
"{ { { { { { {  .U *   S ;.3.9.0.0.0.0.0.0.0.0.0.0.0.0.0.0.0.0.0.4.;.D   * T  .{ { { { { { { ",
"{ { { { { { { ] X.E   &.0.0.0.0.0.0.0.0.0.0.0.0.0.0.0.0.0.0.9.0.0.0.&.  E X.[ { { { { { { { ",
"{ { { { { { { { } )   H 0.9.0.0.0.9.7.4.3.1.1.1.2.2.4.5.9.0.0.0.9.0.J   ) } { { { { { { { { ",
"{ } { { { { { { { { X M ,.O.S u > X                     o : t Z o.:.B X { { { { { { { { { { ",
"{ { { { { { } { { | 8       = u V G J O.@.#.$.$.#.@.O.J G C t &       7 | [ { { { { { { { { ",
"{ { { { { { { { [ ..d o ;.4.0.0.0.0.0.0.0.0.0.0.0.0.0.0.0.0.0.9.4.;.O s  .{ { { { { { { { { ",
"{ { { { { { { { { { . V 0.0.0.9.5.2.>.:.;.*.&.*.=.-.:.>.2.5.0.0.0.0.C . { { { { { { { { { { ",
"{ { { { { { { [  .Q   J =.G a >                             : a D =.H   Q  .{ { { { { { { { ",
"{ { { { { { { [ ..x         o e Z H O.#.&.=.-.-.=.&.%.O.H Z t +         x ..[ { { { { { { { ",
"{ { { { { { { { | 8   M #.<.8.0.0.0.0.0.0.0.0.0.0.0.0.0.0.0.0.9.2.%.V   9 } { { { { { { } { ",
"{ { } { { { { } ' $   A -.4.0.0.0.0.0.0.0.0.0.0.0.0.0.0.0.0.0.9.2.=.Z   $ ' } { { { { { { { ",
"{ { { { { { { { } W d .     = p Z G o.@.#.%.&.%.%.#.+.! F B e O       7 Y { { { { { { { { { ",
"{ { { { { { { { {  . .' W c f 1 @                         @ 1 f x R '  . .} { { { { { { { { ",
"{ { } { { { { { { { [ }  .......} ] _ ) / ~ Q Q Q / ) ` ] } | .... .} [ { { { { } { { { { { ",
"{ { { { { { { { { { { { { [ ] { { } } } } | | | | | } } } { { { [ { { { { { { { { { { { { { ",
"{ { { { { { { { { { { { { { { { { { { { { [ { [ { { { { { { { { { { { { { { { { { { { { { } ",
"{ { { { { { { { { { { { { { { { { { { { { { { { { { { { } { { { { { { { { { { { { { { { { { "
};
