/* XPM */
static char *kld__[] = {
/* columns rows colors chars-per-pixel */
"52 52 119 2",
"   c #00AC009D00B1",
".  c #0AD20648017F",
"X  c #0B3C0967073B",
"o  c #06AB09530C91",
"O  c #0A710A9A0AD3",
"+  c #12600C650588",
"@  c #13F60EA80833",
"#  c #18B7105706C8",
"$  c #1494101B0AA6",
"%  c #1AD4135A0A51",
"&  c #0B540DE61134",
"*  c #13E2136C12E2",
"=  c #180E173C163D",
"-  c #17E717B21773",
";  c #166217F019F3",
":  c #1B5E1B5F1B64",
">  c #254F1B010E6F",
",  c #292C1C660CC4",
"<  c #25D31C13102D",
"1  c #2A8B1E9D1009",
"2  c #2FFA213F0F00",
"3  c #2D26213712A7",
"4  c #21151FD51E4F",
"5  c #339D254213BC",
"6  c #369E27E91606",
"7  c #3CDA2B8F166B",
"8  c #3C0B2C02185D",
"9  c #1D2D1F1A218A",
"0  c #1E611FA82147",
"q  c #2376233722E9",
"w  c #27C9278B273F",
"e  c #2A8B2A832A76",
"r  c #2E502F3F3059",
"t  c #33FB337832D9",
"y  c #388737073532",
"u  c #39EA38B83743",
"i  c #3C873C753C5F",
"p  c #41062E3B174C",
"a  c #441B311D19E3",
"s  c #49BB355A1C7C",
"d  c #4DDD387D1E68",
"f  c #52193B261F25",
"g  c #4EB93A1C20FA",
"h  c #53313C262006",
"j  c #3FEC3F903F20",
"k  c #5BEA428A2392",
"l  c #62DC47DA26EB",
"z  c #658A4A50291A",
"x  c #6BCC4E312A11",
"c  c #6E7750A92C46",
"v  c #73B653E12D01",
"b  c #7AD558CF2F4A",
"n  c #770A57173024",
"m  c #7D4A5B4E31D5",
"M  c #44B4447C4436",
"N  c #4C5C4C0F4BB0",
"B  c #51BD50794EEC",
"V  c #545D540D53AC",
"C  c #5867579B56A6",
"Z  c #5C1A5BC65B5F",
"A  c #60805F405DBA",
"S  c #64F7647963DE",
"D  c #6D336CB76C21",
"F  c #71296F686D48",
"G  c #732872CA7256",
"H  c #789F784677DA",
"J  c #7C367BCD7B49",
"K  c #81545E273339",
"L  c #854660C23436",
"P  c #8A42642F35B9",
"I  c #8DDB673E3820",
"U  c #93DA6B5F39F9",
"Y  c #9E0D727E3D55",
"T  c #A12474B23E75",
"R  c #A35276C34063",
"E  c #A66F79364206",
"W  c #AD027DB74401",
"Q  c #B62683B14620",
"!  c #B859854946F8",
"~  c #BEB089EA4982",
"^  c #80CB803E7F91",
"/  c #C3C48E1D4CA4",
"(  c #C72F90704D9D",
")  c #CBC893A84F2B",
"_  c #CECB95E65079",
"`  c #D21797F150FB",
"'  c #D5A69A795242",
"]  c #DA2C9DC65410",
"[  c #DEE9A13A55F5",
"{  c #E23AA3975726",
"}  c #E51AA5B45856",
"|  c #856984728345",
" . c #8C668BC28AFA",
".. c #93F0934A9280",
"X. c #984497739673",
"o. c #995B984896F8",
"O. c #9D409C789B84",
"+. c #A19CA0469EA4",
"@. c #A424A3B8A335",
"#. c #A82DA6CDA51F",
"$. c #AC9DABD8AAE8",
"%. c #B56DB4CEB40C",
"&. c #B85EB809B7A1",
"*. c #B91DB83DB72C",
"=. c #BC96BC41BBD9",
"-. c #C13EBFF1BE5B",
";. c #C448C3C6C326",
":. c #C933C7D5C62D",
">. c #CD5ECCD8CC34",
",. c #D0D6CF96CE0F",
"<. c #D401D37BD2D7",
"1. c #DD7CDCF5DC4F",
"2. c #E4FAE465E3B0",
"3. c #E899E7CDE6D3",
"4. c #EA74E937E7B4",
"5. c #ED86ED18EC91",
"6. c #F18BF0D1EFEF",
"7. c #F4EAF4A0F444",
"8. c #FF2EFF2BFF29",
/* pixels */
"' ' ' ' ' ' ' ' ' ' ' ' ' ' ' ' ' ' ' ' ' ' ' ' ' ' ' ' ' ' ' ' ' ' ' ' ' ' ' ' ' ' ' ' ' ' ' ] ' ' ' ' ",
"' ' ' ' ' ' ] ' ' ' ] ' ' ' ' ' ' ' ' ] ' ' ' ' ' ' ' ' ' ' ' ' ' ' ' ' ' ' ' ' ' ' ' ' ' ' ' ' ' ' ' ' ",
"' ' ' ' ' ' ' ' ' ' ' ' ' ' ' ' ' ' ' ' ' ' ' ' ] ` ` ' ' ' ' ' ' ' ' ' ' ' ' ' ] ' ' ' ' ' ' ' ' ' ' ' ",
"' ' ' ' ' ' ' ' ' ' ' ' ' ' ' ' ' ' ' ' ' ' ' ' ' { { ' ' ' ' ] ' ' ' ' ] ' ' ' ' ' ' ' ' ' ' ' ' ' ' ' ",
"' ' ' ' ' ' ' ' ' ' ' ' ' ' ' ' ' ' ' ' ] ' ' ' ] v v [ ' ' ' ' ' ' ] ' ' ' ' ' ' ' ' ' ' ' ' ' ' ' ' ' ",
"' ' ' ' ' ' ' ' ' ' ] ' ' ' ' ] ' ' ' ' ' ' ` ' ) @ % ` ` ` ' ' ' ' ' ' ' ' ' ' ' ' ' ' ' ' ' ' ' ] ' ' ",
"' ' ' ' ' ' ' ' ' ' ' ' ' ' ' ' ' ' ' ' ' ' { } { % % } } { ' ' ' ' ' ' ' ' ] ' ' ' ' ' ' ' ' ' ' ' ' ' ",
"' ' ' ] ' ' ' ' ' ' ' ' ' ' ' ' ' ' ' ' ' ] m f k . . k h b ] ' ' ' ' ' ' ' ' ' ' ' ' ' ' ] ' ' ' ' ' ' ",
"' ' ' ' ' ' ' ' ' ' ' ' ' ' ' ' ' ' ' ' ` ] 1             < ' ' ' ' ' ' ' ' ' ' ' ' ' ' ' ' ' ' ' ' ' ' ",
"' ' ' ' ' ' ' ' ' ' ' ' ' ' ' ' ' ' ' ' ' ] ( ! Q @ @ Q Q ( ] ' ' ' ' ' ' ' ' ' ' ' ' ' ' ' ' ' ' ' ' ' ",
"' ' ' ' ' ] ' ' ' ' ' ' ' ' ' ' ' ' ' ' ' ' ] [ ' @ # ' [ ] ' ' ] ' ' ' ' ' ' ' ' ' ' ' ' ' ' ' ' ' ' ' ",
"' ' ' ] ' ' ' ' ' ' ' ' ' ' ' ' ' ' ' ' ' ' ` ' ] # # [ ` ` ' ' ' ' ' ' ' ' ' ' ' ' ' ] ' ' ' ' ' ' ' ' ",
"' ' ' ' ' ' ' ' ] ' ' ' ' ' ' ' ' ' ' ] ' ' ] [ R > < T ] ] ' ' ' ' ' ' ' ' ' ' ' ' ' ' ' ' ' ' ] ' ' ' ",
"' ' ' ' ' ' ' ' ' ' ' ' ' ' ' ' ' ' ' ' ' ] ( 6         6 ( ] ' ' ' ' ' ' ' ' ' ' ' ' ' ' ' ' ' ' ' ' ' ",
"' ' ' ' ] ' ' ' ' ` ' ' ] ] ] ` ` ' ' ' ' ` 1   D $.$.B   3 ' ' ' ' ` ` ` ] ] ] ] ' ' ' ' ' ' ' ' ' ' ' ",
"' ' ' ' ' ' ' ` ' } { ` ( / ` [ } { ' ) { m   ..8.8.8.8.F   K { ) ' { } [ _ / / ) [ } ' ' ' ' ' ' ' ' ' ",
"' ' ' ' ' ' ` { ` L 6 +     . 5 z E ] } } 6   3.8.8.7.8.2.  7 } } ' E l , .     . 6 m _ { ` ' ' ] ' ' ' ",
"' ' ' ' ' ` { T %     ; u j e O     > v ( 3 O 5.8.8.8.8.6.& 5 _ c #     & e j u :     % Y } ` ' ' ' ' ' ",
"' ' ' ' ` } I     S <.8.8.8.8.7.:.J ;   @ @   ;.8.8.8.8.:.  @ X   9 ^ :.7.8.8.8.8.<.S     I { ` ' ' ' ' ",
"' ' ' ` [ W   X $.8.8.8.8.8.8.8.8.8.7.+.:     G 8.8.8.8.D     : @.8.8.8.8.8.8.8.8.8.8.$.X   W [ ` ' ' ' ",
"' ] ' ' ' 3   X.8.8.8.8.8.8.8.8.8.8.8.8.5.N   : 5.8.8.5.:   N 7.8.8.8.8.8.8.8.8.8.8.7.8.o.  5 ] ' ' ' ' ",
"' ' ` { I   u 8.8.8.8.8.8.8.8.8.8.8.8.8.8.7.i   o.8.8...  M 8.8.8.8.8.8.8.8.8.8.8.8.8.8.8.i   U { ` ' ' ",
"' ' ' { s    .8.8.8.8.8.8.8.8.8.8.8.8.8.8.8.1.X q 8.7.q X 1.8.8.8.8.8.8.8.8.8.8.8.8.8.8.8. .  g } ' ' ' ",
"' ' ' ' <   %.8.8.8.8.8.8.8.8.8.8.8.8.8.8.8.8. .  =.=.   .8.8.8.8.8.8.8.8.8.8.8.8.8.8.8.8.*.  3 ' ' ' ' ",
"' ' ' ] >   ;.8.8.8.8.8.8.8.8.8.8.8.8.8.8.8.8.5.X S S X 5.8.8.8.8.8.8.8.8.8.8.8.8.8.8.8.8.;.  1 ' ' ' ' ",
"' ' ` [ 6   %.8.8.8.8.8.8.8.8.8.8.8.8.8.8.8.8.8.S o O S 8.8.8.8.8.8.8.8.8.8.8.8.8.8.8.8.8.%.  8 [ ' ' ' ",
"' ' ` } l   | 8.8.8.8.8.8.8.8.8.8.8.8.8.8.8.8.8.%.    &.8.8.8.8.8.8.8.8.8.8.8.8.8.8.8.8.8.|   z } ` ' ' ",
"' ' ` { Y   t 8.8.8.8.8.8.8.8.8.8.8.8.8.8.8.8.8.1.X O 2.8.8.8.8.8.8.8.8.8.8.8.8.8.8.8.8.8.t   T { ` ' ' ",
"' ' ' ' ' 3    .8.8.8.8.8.8.8.8.8.8.8.8.8.8.7.8.7.O : 7.8.8.8.7.8.8.8.8.8.8.8.8.8.8.8.8. .  5 ] ' ' ' ' ",
"' ' ' ' { T     @.8.8.8.8.8.8.8.8.8.8.8.8.8.8.8.8.= q 8.8.8.8.8.8.8.8.8.8.8.8.8.8.8.8.o.    E { ' ' ' ' ",
"' ' ' ' ` } m      .8.8.8.8.8.8.4.>.&.O. .J G S Z O O S S G J ..#.=.<.6.8.8.8.8.8.8.|     L } ` ' ' ' ' ",
"' ' ' ' ' ` } K     A 5.;.J M -                                         : M | ;.4.C     P } ` ' ' ' ' ' ",
"' ' ' ' ' ' ' } Y X   O       q N G ..$.=.:.<.1.1.1.1.1.1.<.:.=.$...G N q X     O   @ T } ` ' ' ' ' ' ' ",
"' ' ' ' ' ' ' ` { ~ s   r ;.5.8.8.8.8.8.8.8.8.8.8.8.8.8.8.8.8.8.8.8.8.8.8.5.:.t   g / { ` ' ' ' ' ' ' ' ",
"' ' ' ' ' ' ' ' ` { '   r 8.8.8.8.7.7.8.8.8.8.8.8.8.8.8.8.8.8.8.7.8.8.7.8.8.8.t   ` { ` ' ' ' ' ' ' ' ' ",
"' ' ' ' ' ' ' ' ` ` ] , o 4.8.8.8.8.8.8.8.8.8.7.7.7.7.7.7.8.8.8.8.8.8.8.8.8.5.O > ] ` ' ' ' ' ' ' ' ' ] ",
"' ] ' ' ' ' ' ' ' ` } d   ,.7.;.O.H C i w : * O X   X   O * : q u V F ..=.5.,.  s { ' ' ' ' ' ' ' ' ' ' ",
"' ' ' ' ' ' ' ' ' ` } v   :           O : w t i M M M M i t w : O           *   x } ` ' ' ' ' ' ' ' ' ' ",
"' ' ' ' ' ' ' ' ' ` } U   = Z  .&.>.2.7.8.8.8.8.8.8.8.8.8.8.8.8.7.2.<.%. .Z :   U { ` ' ' ' ] ' ' ' ' ' ",
"' ' ' ' ' ' ' ] ' ` } m   o.8.8.8.8.8.8.8.8.8.8.8.8.8.8.8.8.8.8.8.8.8.8.8.8.O.  m } ` ' ' ' ' ' ' ' ' ' ",
"' ' ' ' ' ' ' ' ' ` } p   1.8.8.2.>.&.O. .J D S Z C C Z S D H  .O.%.:.2.7.8.1.  7 { ` ' ' ' ' ' ' ' ' ' ",
"' ' ' ' ' ' ' ' ' ] ( . : X.C q X                                     X q V ..: . ( ] ' ' ' ' ' ' ' ' ' ",
"' ' ' ' ' ' ' ' ` { T           : M D  .@.&.;.>.<.<.<.<.>.;.*.#. .D N :           Y { ` ' ' ' ' ' ] ' ' ",
"' ' ' ' ] ' ' ' ` } x   : S #.1.7.8.8.8.8.8.8.8.8.8.8.8.8.8.8.8.8.8.8.8.1.%.G 4   x } ` ] ' ' ' ' ' ' ' ",
"' ' ' ' ' ' ' ' ' ] 5   t %.6.8.8.8.8.8.8.8.8.8.8.8.8.8.8.8.8.8.8.8.8.8.8.4.$.u   5 ] ' ' ' ' ' ' ' ' ' ",
"' ' ] ' ' ' ' ' ' ] U >       9 N H o.%.:.<.1.2.3.4.3.3.2.1.,.-.$. .D M -       % K ] ' ' ' ' ' ' ' ' ' ",
"' ' ' ' ' ' ' ' ' ' { ] W n p +                                         + 7 v T ' { ' ' ' ' ' ' ' ' ' ' ",
"' ' ' ' ' ' ' ' ' ' ` ' { } { ] / Q U K c k g s g p 8 s s f k x m U W ~ ` { } { ' ` ' ' ' ' ' ' ] ' ' ' ",
"' ' ' ' ] ' ' ' ' ' ' ' ' ` ` ' ] { } } } } } } } { { { } } } } } { [ ] ] ` ` ` ' ' ' ' ' ' ' ' ' ' ' ' ",
"' ' ' ' ' ' ' ' ] ' ' ' ' ' ' ' ' ` ` ` ` ` ` ` ` ` ` ' ` ` ` ` ` ` ' ' ' ' ' ' ' ' ' ' ' ' ' ] ' ' ' ' ",
"' ' ' ' ' ' ' ' ' ' ' ' ' ' ' ' ' ' ' ' ' ' ' ' ' ' ' ' ' ' ' ' ' ' ' ' ' ' ' ' ' ' ' ] ' ' ' ' ' ' ' ' ",
"' ' ' ' ' ' ' ' ' ' ' ' ' ' ' ' ' ' ' ' ' ' ' ' ] ' ' ' ' ' ' ' ' ' ' ' ' ' ' ' ' ' ' ' ' ' ' ' ' ' ' ' "
};
