/* XPM */
static char *kld__[] = {
/* columns rows colors chars-per-pixel */
"60 60 117 2",
"   c #00C300A70087",
".  c #08FF062302B5",
"X  c #0AE20856053C",
"o  c #06BD07FF097E",
"O  c #0B590B150AC5",
"+  c #10E00BD405AC",
"@  c #12C40E5E0903",
"#  c #149010740B73",
"$  c #1CB915150BC6",
"%  c #137B133E12F5",
"&  c #1808173D1647",
"*  c #199618A31779",
"=  c #1BEE1B6F1AD5",
"-  c #2269190C0DA5",
";  c #256B1BEB1053",
":  c #2C4520901244",
">  c #320E248B1412",
",  c #39B029EE16BA",
"<  c #3E562D121800",
"1  c #2304229C221C",
"2  c #2BC42B4B2AB8",
"3  c #2FB92F702F16",
"4  c #311D30242EF6",
"5  c #351534A33418",
"6  c #3877374135C7",
"7  c #385037FE3799",
"8  c #3AF63A5A399B",
"9  c #440431A71B3F",
"0  c #496D357F1D2D",
"q  c #4EF9395D1EFD",
"w  c #53BC3D662224",
"e  c #5BE2433D252A",
"r  c #415A40803F76",
"t  c #618847AD2820",
"y  c #66D14B212954",
"u  c #6A934D7529ED",
"i  c #6EC850C62C28",
"p  c #750355102E11",
"a  c #7A89589B2F33",
"s  c #7DC25AED306A",
"d  c #44FB442F4335",
"f  c #48DA479A4616",
"g  c #4ADA4A44498C",
"h  c #5145506F4F6A",
"j  c #559B54CF53D7",
"k  c #580C57A55727",
"l  c #59A358A95778",
"z  c #5D115C925BF7",
"x  c #60495FC05F17",
"c  c #610A60615F93",
"v  c #64E76451639C",
"b  c #6C946BF96B3C",
"n  c #726671326FBA",
"m  c #74C57406731D",
"M  c #787B7764760C",
"N  c #797C78287689",
"B  c #7C937C027B52",
"V  c #80FA5D5931DB",
"C  c #863E61BB352C",
"Z  c #89CD646236B9",
"A  c #8E7268053921",
"S  c #940A6BA63A5A",
"D  c #994E6EE83B29",
"F  c #9CCF71873CB6",
"G  c #A26A757F3EAF",
"H  c #A4D577C240C0",
"J  c #A72F78F6408F",
"K  c #AD0A7D80437D",
"L  c #80A37F937E47",
"P  c #B559834D463A",
"I  c #B96C86114766",
"U  c #BABF870547E5",
"Y  c #BDCD8946492C",
"T  c #C4568E194BE9",
"R  c #C79290794D3B",
"E  c #CC3793B64EC2",
"W  c #D1B397A150C3",
"Q  c #D5AE9A7E5243",
"!  c #DA729DF1541B",
"~  c #DF28A15855EA",
"^  c #E26DA3B4572B",
"/  c #E4D9A576581A",
"(  c #EBA4AA5E5AB7",
")  c #F275AF4B5D56",
"_  c #84E183F382D1",
"`  c #8C018B1D8A04",
"'  c #908A8FBC8EC2",
"]  c #941E93A49310",
"[  c #98E5987297E4",
"{  c #9D8B9CFE9C52",
"}  c #A0659FE59F47",
"|  c #A159A0609F31",
" . c #A605A570A4BA",
".. c #A88BA827A7AC",
"X. c #AB46AAA4A9E0",
"o. c #B0ABAFE6AEF5",
"O. c #B0C1B05BAFDE",
"+. c #B46BB3FEB379",
"@. c #B96AB8B7B7DF",
"#. c #BD6BBCFDBC78",
"$. c #C10DC0A9C02F",
"%. c #C54CC4DBC450",
"&. c #C896C812C771",
"*. c #C9F8C925C823",
"=. c #CCBCCC45CBB5",
"-. c #D0C7D072D00B",
";. c #D439D3C1D32E",
":. c #D888D835D7D0",
">. c #D91ED89FD805",
",. c #DD45DCD5DC4D",
"<. c #E106E051DF74",
"1. c #E163E0D5E020",
"2. c #E588E52EE4C0",
"3. c #E903E86CE7B3",
"4. c #ED42ECE5EC73",
"5. c #F453F3FEF396",
"6. c #FF25FF24FF23",
/* pixels */
"Q Q Q Q Q Q Q Q Q Q Q Q Q Q Q Q Q Q Q Q Q Q Q Q Q Q Q Q Q Q Q Q Q Q Q Q Q Q Q Q Q Q Q Q Q Q Q Q Q Q Q Q Q Q Q Q Q Q Q Q ",
"Q Q Q Q Q Q Q Q Q Q Q Q Q Q Q Q Q Q Q Q ! Q Q Q Q Q Q Q Q Q ! Q Q Q Q Q Q Q Q Q Q Q Q ! Q Q Q Q Q Q Q Q Q Q Q Q Q Q Q Q ",
"Q Q Q Q Q Q Q Q Q Q Q Q Q Q Q ! Q Q Q Q Q Q Q Q Q Q Q Q Q Q Q Q Q ! Q Q Q Q Q Q Q Q Q Q Q Q Q Q Q Q Q Q Q Q Q Q Q Q Q Q ",
"Q Q Q Q Q Q Q Q Q Q Q Q Q Q Q Q Q Q Q Q Q Q Q Q Q Q Q Q Q Q Q Q Q Q Q Q Q Q Q Q Q Q Q Q Q Q Q Q ! Q Q Q Q Q Q Q Q Q Q Q ",
"Q Q Q Q ! Q Q Q Q Q ! Q Q Q Q Q Q Q Q Q Q Q Q Q Q Q Q Q ! Q Q Q Q Q Q Q Q Q Q Q Q Q Q Q Q Q Q Q Q Q Q Q Q Q ! Q Q Q Q Q ",
"Q Q Q Q Q Q Q Q Q Q Q Q Q Q Q Q Q Q Q Q Q Q Q Q Q Q Q Q W : > Q Q Q Q Q Q Q Q Q Q Q Q Q Q Q Q Q Q Q Q Q Q Q Q Q Q Q Q Q ",
"Q Q Q Q Q Q Q Q Q Q Q Q Q Q Q Q Q Q Q Q Q Q Q Q Q Q W ! Y   . T Q W Q Q Q Q Q Q Q Q Q Q Q Q Q Q Q Q Q Q Q Q Q Q Q Q Q ! ",
"! Q Q Q Q Q Q Q Q Q Q Q Q Q Q Q Q Q Q ! Q Q Q Q Q ! / ( E . . W ( ^ ! Q Q Q Q Q Q Q Q Q ! Q Q Q Q Q Q Q Q Q Q Q Q Q Q Q ",
"Q Q Q Q Q Q Q Q Q Q Q Q Q Q ! Q Q Q Q Q Q Q Q Q ! T a V p     p V a Y ! Q Q Q ! ! Q Q Q Q Q Q Q Q ! Q Q Q Q Q Q Q Q Q Q ",
"Q Q Q Q Q Q Q ! Q Q Q Q Q Q Q Q Q Q Q Q Q Q Q W ^ p                 p ^ W Q Q Q Q Q Q Q Q Q Q Q Q Q Q Q Q Q Q Q Q ! Q Q ",
"Q Q Q Q Q Q Q Q Q Q Q Q Q Q Q Q Q ! Q Q Q Q Q Q ! U y u t     e y y U ! W Q Q Q Q Q Q Q Q Q Q Q Q Q Q Q Q Q Q Q Q Q Q Q ",
"Q Q Q Q Q Q Q Q Q Q Q Q Q Q Q Q Q Q Q Q Q Q Q Q Q ! / ( E . . E ( / ! Q Q Q Q Q Q Q Q Q Q Q Q Q Q Q Q Q Q Q Q Q Q Q Q Q ",
"Q Q Q ! Q Q Q Q Q Q Q Q Q Q Q Q Q Q Q Q Q Q Q Q Q Q W ! U   . Y Q W Q Q Q ! Q Q Q Q Q Q Q Q Q Q Q Q Q Q Q Q Q Q Q Q Q Q ",
"Q Q Q Q Q Q Q Q Q Q ! Q Q Q Q Q Q Q Q Q Q Q Q Q Q Q W ! E . X W ! W Q Q Q Q Q Q Q Q Q Q Q Q Q Q Q Q Q Q ! Q Q Q Q Q Q Q ",
"Q Q Q Q Q Q Q Q Q Q Q Q Q Q Q Q Q Q Q Q Q Q Q Q Q W ^ W Z $ $ C W ^ Q Q Q Q Q Q Q Q Q Q Q Q Q Q Q Q Q Q Q Q Q Q Q Q Q Q ",
"Q Q Q Q Q Q Q Q Q Q Q Q Q Q Q Q Q Q Q Q Q Q Q Q Q ^ D #         # S ~ Q Q Q Q Q Q Q Q Q Q Q Q Q Q Q Q Q Q Q Q Q Q Q Q Q ",
"Q Q Q Q Q Q Q Q Q Q Q Q W Q W Q Q W Q Q Q Q Q W ~ D     g B N 5     D ^ Q Q Q Q Q Q W W W W W Q Q Q Q Q Q Q Q Q Q Q Q Q ",
"Q Q Q Q Q Q Q Q Q W Q Q ^ / ^ / / ^ ! Q W Q Q ! E &   X.6.6.6.6.M   $ E Q Q Q Q Q ! ^ / ^ ^ / ^ ! W Q Q Q Q Q Q Q Q Q Q ",
"Q Q Q Q Q Q Q Q W ! ^ T S p t t p A U Q / ~ W ~ A   f 6.6.5.6.6.6.6   S ~ W ~ / Q P Z u e e u A U ^ ! Q Q Q Q Q Q Q Q Q ",
"Q Q Q Q Q Q Q W ^ U w X               - y P ! ) i   N 6.6.6.6.6.6.B   p ) ! K y $               o 0 P ^ Q Q Q Q Q Q Q Q ",
"Q Q Q Q Q Q Q ^ C .     2 c L _ M j 1       > F y   m 6.6.6.6.6.6.M   i S :       2 k M _ L c 2     . V ^ Q Q Q Q Q Q Q ",
"Q ! Q Q Q W ^ a     d &.6.6.6.6.6.6.6.;._ 1     @   3 6.6.6.6.6.6.5   O     2 ` >.6.6.6.6.6.6.6.&.d     s ^ W Q Q Q Q Q ",
"Q Q Q Q Q ^ D     m 6.6.6.6.6.6.6.6.6.6.6.6.| :       &.6.6.6.6.%.  .   1 X.6.6.6.6.6.6.6.6.6.6.6.6.M     F ^ Q ! Q Q Q ",
"Q Q Q Q ! R $   z 6.6.6.6.6.6.6.6.6.6.6.6.6.6.5.l     b 6.6.5.6.b     v 5.6.6.6.6.6.6.6.6.6.6.6.6.6.6.c   $ W Q Q Q Q Q ",
"Q Q Q Q ^ u   & 2.6.6.6.6.6.6.6.6.6.6.6.6.6.6.6.6.z   % 2.6.6.2.%   v 6.6.6.6.6.6.6.6.6.6.6.6.6.6.6.6.2.*   p / Q Q Q Q ",
"Q Q Q Q W ;   b 6.6.6.6.6.6.6.6.6.6.6.6.6.6.6.6.6.5.5   _ 6.6.N   5 5.6.6.6.6.6.6.6.6.6.6.6.6.6.6.6.6.6.b   : Q Q Q Q Q ",
"Q Q Q ~ P     ..6.6.6.6.6.6.6.6.6.6.6.6.6.6.6.6.6.6.&.  * 5.5.&   &.6.6.6.6.6.6.6.6.6.6.6.6.6.6.6.6.6.6.X.  . P ! Q Q Q ",
"Q Q Q ~ F     &.6.6.6.6.6.6.6.6.6.6.6.6.6.6.6.6.6.6.6.z   @.+.  v 6.6.6.6.6.6.6.6.6.6.6.6.6.6.6.6.6.6.6.&.    H ~ W Q Q ",
"Q Q Q ~ J     =.6.6.6.6.6.6.6.6.6.6.6.6.6.6.6.6.6.6.6.&.  v v   =.6.6.6.6.6.6.6.6.6.6.6.6.6.6.6.6.6.6.6.&.    J ~ Q Q Q ",
"Q Q Q ! U .   @.6.6.6.6.6.6.6.6.6.6.6.6.6.6.6.6.6.6.6.6.5 o o 5 6.6.6.6.6.6.6.6.6.6.6.6.6.6.6.6.6.6.6.6.@.  . Y ! Q Q Q ",
"Q Q Q Q W ;   ` 6.6.6.6.6.6.6.6.6.6.6.6.6.6.6.6.6.6.6.6.B     _ 6.6.6.6.6.6.6.6.6.6.6.6.6.6.6.6.6.6.6.6.`   ; Q Q Q Q Q ",
"Q Q Q W ^ e   8 6.6.6.6.6.6.6.6.6.6.6.6.6.6.6.6.6.6.6.6.@.    #.6.6.6.6.6.6.6.6.6.6.6.6.6.6.6.6.6.6.6.6.8   e ^ Q Q Q Q ",
"Q Q Q Q ~ G     X.6.6.6.6.6.6.6.6.6.6.6.6.6.6.6.6.6.6.6.;.    ,.6.6.6.6.6.6.6.6.6.6.6.6.6.6.6.6.6.6.6...    J ~ Q Q Q Q ",
"Q Q Q Q Q ~ 9   % ;.6.6.6.6.6.6.6.6.6.6.6.6.6.6.6.6.6.6.<.o O 3.6.6.6.6.6.6.6.5.6.6.6.6.6.6.6.6.6.6.&.@   q ~ Q Q Q Q Q ",
"Q Q Q Q Q ! T #   & &.6.6.6.6.6.6.6.6.6.6.6.6.6.6.6.6.6.1.X O 2.6.6.6.6.6.6.6.6.6.6.6.6.6.6.6.6.6.&.&   $ R ! Q Q Q Q Q ",
"Q Q Q Q Q W ^ K +   O X.6.6.6.6.6.2.&..._ b l d 5 2 1 * %     & * 1 2 7 f z M ] X.;.4.6.6.6.6.6.{ .   # P ~ Q Q Q Q Q Q ",
"Q Q Q Q Q Q Q ~ I $     N 2.{ c 2 o                     o o o o                     o 2 z { 2.m     - Y ^ W Q Q Q Q Q ! ",
"Q Q Q Q Q Q Q W ~ R >     o       % 5 z B [ X.%.=.:.>.2.3.3.3.3.2.,.>.=.$.+.{ B x 8 %             , E ~ W ! Q Q Q Q Q Q ",
"Q Q Q Q Q Q Q ! W ! ! u X   2  .-.5.6.6.6.6.6.6.6.6.6.6.6.6.6.6.6.6.6.6.6.6.6.6.6.6.5.;.X.5   @ p ! ! W Q Q Q Q Q Q Q Q ",
"Q Q Q Q Q Q Q Q Q Q Q ( C   d 6.6.6.6.5.6.6.5.6.6.5.6.6.6.5.6.5.6.5.6.5.6.5.6.5.6.6.6.6.6.g   C ) W Q Q Q Q Q Q Q Q Q Q ",
"Q Q Q Q Q Q Q Q Q Q W ! K   = 5.6.6.6.6.6.6.6.6.6.6.6.6.6.6.6.6.6.6.6.6.6.6.6.6.6.6.6.6.5.1   K ! Q Q Q Q Q Q Q Q Q Q Q ",
"Q Q Q Q Q Q Q Q Q Q Q ! R X   ,.6.6.6.6.5.2.-.%.+.X.{ [ ] ] ` ] [ [ ..O.#.=.<.5.6.6.6.6.,.  . T ! Q Q Q Q Q Q Q Q Q Q Q ",
"Q Q Q Q Q Q Q Q Q Q Q Q ! ;   } #.B j 5 %                                     O 1 g m X.{   ; ! Q Q Q Q Q Q Q Q Q Q Q Q ",
"Q Q Q ! Q Q Q Q Q Q Q Q / 0   .         o : 7 g l v m N B L _ B M m b l g 7 1 O             9 ^ W Q Q Q Q Q Q Q Q Q Q Q ",
"Q Q Q Q Q Q Q Q Q Q Q W / p   & v ] @.>.4.6.6.6.6.6.6.6.6.6.6.6.6.6.6.6.6.6.6.4.>.@.[ v =   u / W Q Q Q Q Q Q Q Q Q Q Q ",
"Q Q Q Q Q Q Q Q Q Q Q Q / w   _ 6.6.6.6.6.6.6.6.6.6.6.6.6.6.6.6.6.6.6.6.6.6.6.6.6.6.6.6.`   w ^ Q Q Q Q Q Q Q Q Q Q Q Q ",
"Q Q Q Q Q Q Q Q Q Q Q Q W $   &.6.6.6.6.5.2.;.%.@.X. .[ ] ] ] ] [ { X.@.%.;.2.5.6.6.6.6.=.  # W Q Q Q Q Q Q Q Q Q Q ! Q ",
"! Q Q Q Q Q Q Q Q Q Q ~ K   1 2.#.` z 8 1 o                                 o = 7 z _ @.1.;   K ^ Q Q Q Q Q Q Q Q Q Q Q ",
"Q Q Q Q Q Q Q Q Q Q W ^ a   % &             % 1 5 r g l z x v z l j d 5 1 %             % @   p / W Q Q Q Q Q Q Q Q Q Q ",
"Q Q Q Q Q Q Q Q Q Q Q ^ <       o 2 v ] @.:.3.6.6.6.6.6.6.6.6.6.6.6.6.6.6.4.,.#.[ v 5 o       < ~ Q Q Q Q Q Q Q ! Q Q Q ",
"Q Q Q Q ! Q Q Q Q Q ! T @   5  .2.6.6.6.6.6.6.6.6.6.6.6.6.6.6.5.6.6.5.6.6.6.6.6.6.6.6.4.+.d   @ R ! Q Q Q Q Q Q Q Q Q Q ",
"Q Q Q Q Q Q Q Q Q W ^ G     4 ' &.4.6.6.6.6.6.6.6.6.6.6.6.6.6.6.6.6.6.6.6.6.6.6.6.6.2.$._ 4     F ^ W Q Q Q Q Q Q Q Q Q ",
"Q Q Q Q Q Q Q Q Q Q Q E u @       O 5 z _ } @.=.>.2.3.4.4.5.5.5.4.3.<.;.&.o.] m h 2 o       . w T ! Q Q Q Q Q Q Q Q Q Q ",
"Q Q Q Q Q Q Q Q Q Q Q ! / R S e : .                 O @ % % % % O o                   ; w Z T ^ ! Q Q Q Q Q Q Q Q Q Q Q ",
"Q Q Q Q Q Q Q Q Q Q Q Q W ! ^ ^ ! T K A p e 9 > - @ + X .   .   X + # - : 9 w i Z H Y Q ^ ^ ! Q Q Q Q Q Q Q Q Q Q Q Q Q ",
"Q ! Q Q Q Q Q Q Q Q Q Q Q Q W Q Q ! ~ ^ ^ ^ ^ ! ! W W R R R R T R W Q Q ! ^ / / / ^ ! Q Q W Q Q Q Q Q Q Q Q Q Q Q Q Q Q ",
"Q Q Q Q Q Q Q Q Q Q Q Q Q Q ! Q Q Q Q W Q W Q Q Q Q Q ! ! ! ! Q ! ! Q Q Q Q W W Q W Q Q Q Q Q Q Q Q Q Q Q Q Q Q Q Q Q Q ",
"Q Q Q Q Q Q ! Q Q Q Q Q Q Q Q Q Q Q Q Q Q Q Q Q Q Q Q Q Q Q Q Q Q Q Q Q Q Q Q Q Q Q Q Q Q Q Q Q Q Q Q Q Q Q Q Q Q Q Q Q ",
"Q Q Q Q Q Q Q Q Q Q Q Q Q Q Q Q Q Q Q Q Q Q Q Q Q Q Q Q Q Q Q Q Q Q Q Q Q Q Q Q Q Q Q Q Q Q Q Q Q Q Q Q Q Q Q Q Q Q Q ! ",
"Q Q Q Q Q Q Q Q Q Q Q Q Q Q Q Q Q Q Q Q Q Q Q Q Q Q Q Q Q Q Q Q Q Q Q Q Q Q Q Q Q Q Q Q Q Q Q Q Q Q Q ! Q Q Q Q Q Q Q Q "
};
