/* XPM */
static char *kll__[] = {
/* columns rows colors chars-per-pixel */
"22 22 221 2",
"   c #145F141913C4",
".  c #205B182E0E63",
"X  c #379D28E41739",
"o  c #3A502B7E19B5",
"O  c #14ED1BCF2437",
"+  c #17211E06265D",
"@  c #38C6359931CB",
"#  c #3A03367A323D",
"$  c #3AFE398C37D1",
"%  c #463533911D33",
"&  c #46A333C41D36",
"*  c #4861352C1E1F",
"=  c #490235A31E83",
"-  c #557F39191705",
";  c #569639D2174D",
":  c #58C63DDF1D97",
">  c #436D37BA29AA",
",  c #483A3CDB2F32",
"<  c #5C36405E1EF6",
"1  c #653945201ECE",
"2  c #5A984246251E",
"3  c #5BE54332259D",
"4  c #52E048463B8E",
"5  c #532049023CDE",
"6  c #677E46E52003",
"7  c #63D94766258D",
"8  c #67C84A3B2726",
"9  c #647A4E323376",
"0  c #6A1D52953658",
"q  c #7E915E413779",
"w  c #3FE3404C40CE",
"e  c #41C641E24205",
"r  c #414043924674",
"t  c #427F44BF477E",
"y  c #4C8C48E1447F",
"u  c #4E734A7B45BF",
"i  c #44BE46B94919",
"p  c #46D649184BCD",
"a  c #49B849694909",
"s  c #49164A1F4B5D",
"d  c #4A8C4B6C4C7A",
"f  c #4DAA4D574CF4",
"g  c #4EBD4E6A4E06",
"h  c #4F164EC44E62",
"j  c #4F3E4EEC4E89",
"k  c #595F4E544113",
"l  c #4FF44F934F1F",
"z  c #5F6853BA45B6",
"x  c #50414FE14F6D",
"c  c #594554A94F22",
"v  c #4EB34F9750A8",
"b  c #50DF50985044",
"n  c #505E50D55164",
"m  c #51AB51665115",
"M  c #51F851BA516F",
"N  c #54A8546A541F",
"B  c #557054EE5452",
"V  c #542255D157C7",
"C  c #5836580057BE",
"Z  c #5EF95A09541B",
"A  c #5474561257F9",
"S  c #589F58675824",
"D  c #598D5952590B",
"F  c #5B7E5B465B02",
"G  c #5C035BC85B81",
"H  c #5CE95CB05C6B",
"J  c #5D1F5CE55C9F",
"K  c #615560215EAF",
"L  c #57625D456484",
"P  c #59E55FDD6726",
"I  c #624B620061A7",
"U  c #64FC63A16200",
"Y  c #642363EB63A9",
"T  c #648D644C63FE",
"R  c #657A65EB6673",
"E  c #65F6669C6764",
"W  c #693168FC68BB",
"Q  c #6A1A69E969AD",
"!  c #695769CC6A59",
"~  c #6ACA6B316BAC",
"^  c #6CDD6CB46C82",
"/  c #6DCD6EDB701E",
"(  c #6E046F0E704E",
")  c #712E70B07019",
"_  c #71D8716470D9",
"`  c #75AB7586755A",
"'  c #7838781277E6",
"]  c #717F749E7868",
"[  c #74F3773E79FF",
"{  c #75CB77E37A65",
"}  c #7473779F7B7D",
"|  c #80C25FE2386F",
" . c #86DF647A3B4E",
".. c #87E0655E3C0C",
"X. c #965F6D273BB6",
"o. c #96F66D963BF4",
"O. c #99636D60388E",
"+. c #9C146F6039BA",
"@. c #A32875523E54",
"#. c #A40A75FA3EB5",
"$. c #920C6CC13FFE",
"%. c #94306E5940F0",
"&. c #AD117C31418A",
"*. c #AD307C474196",
"=. c #AFA87E3E42F2",
"-. c #B1A77FC243E1",
";. c #B2BB807B442E",
":. c #B5D183704705",
">. c #B4A4833C47F3",
",. c #B6AD84B948C8",
"<. c #B45585EC4E3B",
"1. c #B89B8584483F",
"2. c #B8CC87714C37",
"3. c #BE33895249DF",
"4. c #BEB4899E49EA",
"5. c #BA5288824CBC",
"6. c #B92C897E5046",
"7. c #C3728F0B5028",
"8. c #C4FE903450DC",
"9. c #CFFD9741532D",
"0. c #CDFD9704550C",
"q. c #CF9F983E55C9",
"w. c #CF8A98FA5780",
"e. c #D011996857CF",
"r. c #D07697705302",
"t. c #E3CDA79B5F63",
"y. c #E5AEA8655EDA",
"u. c #E538A83C5F0E",
"i. c #DF8AA67761FA",
"p. c #E08EA67060B1",
"a. c #E547A8DE6064",
"s. c #E721AC0F652C",
"d. c #E842AD0B65FB",
"f. c #E86FAD1865E3",
"g. c #E879AD2065E8",
"h. c #E8D7AD656610",
"j. c #E996ADF2665F",
"k. c #EA1AAE526696",
"l. c #EA50AE9D66F8",
"z. c #EA9AAEB166CC",
"x. c #EADDAEEF6705",
"c. c #EB4EAF3C6725",
"v. c #EBECAFB06768",
"b. c #EC41B0676895",
"n. c #EC7EB09968BA",
"m. c #ED24B10A68EB",
"M. c #EF1BB20E68CC",
"N. c #EFCBB2BC6976",
"B. c #F0D4B3936A0A",
"V. c #F18EB3FB6A17",
"C. c #F52FB6BA6B99",
"Z. c #F589B6D86B9F",
"A. c #F304B5B56C23",
"S. c #F3B7B6176C25",
"D. c #F4C9B6DE6C91",
"F. c #F5CEB72A6BFD",
"G. c #F609B76F6C3F",
"H. c #F69DB7BC6C44",
"J. c #F73BB8AD6D9C",
"K. c #F744B9266E9D",
"L. c #F783B9316E69",
"P. c #F80BB9976EA5",
"I. c #F941B8E06B9F",
"U. c #FA29B99F6BFA",
"Y. c #F9EBBA1C6D8A",
"T. c #FA20BA446DA1",
"R. c #FC1FBB666D8B",
"E. c #F8BCBA0A6ECF",
"W. c #F926BA7D6F4B",
"Q. c #FC9ABC6E6F6B",
"!. c #F9E6BB346FF7",
"~. c #FB11BC197089",
"^. c #FC6EBC986FF1",
"/. c #FCC4BCD97020",
"(. c #FCA2BD2870FB",
"). c #FCFCBD787140",
"_. c #FFFFC1267229",
"`. c #FFFFC14C723A",
"'. c #FFFFC5407663",
"]. c #FFFFC5E376CD",
"[. c #825F823081F7",
"{. c #8389835B8322",
"}. c #85D98461829B",
"|. c #8DFE8D9C8D26",
" X c #9268921091A6",
".X c #932492FC92CC",
"XX c #945894309401",
"oX c #926D960B9A65",
"OX c #94F9989D9CFE",
"+X c #98E09A909C91",
"@X c #998A9B169CEF",
"#X c #93749976A0AC",
"$X c #945D9A60A1A1",
"%X c #BD5DBD95BDD9",
"&X c #B8D6BD52C2B6",
"*X c #C49FC904CE4B",
"=X c #CBFECBB3CB59",
"-X c #D05BD043D026",
";X c #D171D15AD13E",
":X c #D43AD419D3F1",
">X c #D61ED5FFD5DA",
",X c #D735D719D6F9",
"<X c #D952DA53DB88",
"1X c #D953DA66DBB1",
"2X c #E25FE24AE231",
"3X c #E381E36FE358",
"4X c #E551E53FE529",
"5X c #E710E6FEE6E9",
"6X c #F801F9F6FC37",
"7X c #F948F998F9F6",
"8X c #F934FA45FB8C",
"9X c #F9E9FAD9FBFA",
"0X c #FB37FB31FB2A",
"qX c #FBF7FBEBFBDC",
"wX c #FCAEFC8FFC69",
"eX c #F92EFB09FD2C",
"rX c #FCF2FCF0FCED",
"tX c #FE29FE25FE20",
"yX c #FF25FEFEFED0",
"uX c #FFB7FF6AFF0D",
"iX c #FFF5FFF5FFF4",
/* pixels */
"v.v.v.v.v.v.v.v.v.v.M.M.v.v.v.v.v.v.v.v.v.v.",
"v.v.v.v.v.v.v.v.v.N.i.i.M.v.v.v.v.v.v.v.v.v.",
"v.v.v.v.v.v.v.v.d.W.q | I.v.v.v.v.v.v.v.v.v.",
"v.v.v.v.v.v.v.d.Z.%.. . X.V.v.v.v.v.v.v.v.v.",
"v.v.v.v.v.s.v.v.d.`. ...).d.l.d.v.v.v.v.v.v.",
"v.v.v.v.J.^.W.b.N.e.o X w.N.b.!.).J.v.d.v.N.",
"v.v.N.Z.,.+.-.a.I., *X&X> W.a.=.O.:.V.N.v.v.",
"v.N.i.* n { R 4 - u iXiXu - 5 E { v & p.N.v.",
"v.D.% OXiXwXiX6XoX  3X3X  OXeXiXeXiX$X* Z.v.",
"J.>.w iXqXqXwXqXiX X[.[.XXiXwXwXqXqXiXe ,.W.",
"^.&.V iXqXiXiXwXqXiXj n iXqXiXiXiXqXiXA #.).",
"D.8.@ qXiXqXiXiXqXiX` ' iXqXiXiXqXiXqX# 0.V.",
"d.^.7 P iXiXqX5X-X>XQ ^ >X;X5XqXiXiXL 8 Q.d.",
"l.l.J.: p ) a n G Y Q R Y G n j ) i < J.v.v.",
"b.l.l.].1 ] iXwXiXiXiXiXiXiXiXiX{ 6 '.v.v.v.",
"l.b.d.J.5.d  XY F F F B F F K |.a <.G.d.v.v.",
"N.v.v.V.8.$ %X=X;X>X>X>X>X:X=X%X$ 7.Z.v.v.v.",
"v.v.v.).o.t }.B j j x l j n N {.r X.W.v.v.v.",
"v.v.s.W.3 O +X1X6XiXiXiXiXqX<X+XO 3 Q.d.v.v.",
"v.v.v.N.6.0 z Z U ! / / Q K c k 9 <.V.v.v.v.",
"v.v.l.v.G.I.u.r.3.;.=.=.;.3.9.t.I.Z.v.v.v.v.",
"v.N.l.l.v.s.N.V.J.!.!.!.!.J.V.N.d.d.v.v.v.v."
};
