/* XPM */
static char *kll__[] = {
/* columns rows colors chars-per-pixel */
"38 38 131 2",
"   c #0089007500FD",
".  c #0B3E0593006D",
"X  c #0DB808BE02E6",
"o  c #048C070909F3",
"O  c #06ED0A820EEA",
"+  c #0B1F0B080AEF",
"@  c #13660B570258",
"#  c #18E10DF0016C",
"$  c #12B20DEC0831",
"%  c #1C2B118D04D0",
"&  c #121A10DE0F62",
"*  c #1C53144F0AF9",
"=  c #054D0A050FC0",
"-  c #09FE0D5D1175",
";  c #0F4511AB148D",
":  c #15B615AE15A4",
">  c #194E182616C4",
",  c #1C851CB11CE0",
"<  c #211013E30414",
"1  c #24131A4E0E95",
"2  c #2C8D1C820942",
"3  c #307A1F9C0B5E",
"4  c #326021250C78",
"5  c #1FDE1FA91F69",
"6  c #32A324AB13FC",
"7  c #38EB2741120E",
"8  c #3693281416BC",
"9  c #3C91290D11A4",
"0  c #3A302B551981",
"q  c #13BD19111FA5",
"w  c #17AC1BFD212B",
"e  c #1D3C202B23D3",
"r  c #1F1423412840",
"t  c #223821F721A9",
"y  c #21C126132B26",
"u  c #2515293C2E2F",
"i  c #2C432BF52B96",
"p  c #27532B302FCA",
"a  c #330D33D134BD",
"s  c #378839103AE7",
"d  c #3BC53BCD3BD7",
"f  c #40E02E4518A2",
"g  c #44F632951CA0",
"h  c #554B3BAA1CE9",
"j  c #48F036792010",
"k  c #4D693ABD2455",
"l  c #52FF3DCE2460",
"z  c #67B84A2D2673",
"x  c #65C14B802BEA",
"c  c #6AB24E542C30",
"v  c #6C5A50B02F7E",
"b  c #73CD54272E30",
"n  c #783C56B42E78",
"m  c #797F57F02FAD",
"M  c #730755BE3292",
"N  c #779E59E03639",
"B  c #79ED5A4B3456",
"V  c #37DE3BD0408E",
"C  c #3E774274473F",
"Z  c #443343F343A6",
"A  c #443F460B4831",
"S  c #4BBB4B774B26",
"D  c #524451FB51A4",
"F  c #584757EB577C",
"G  c #547357F05C1F",
"H  c #5B4F5BD15C71",
"J  c #5BA05ECF62A1",
"K  c #64BC64EC6525",
"L  c #684C680F67C6",
"P  c #6C176C386C60",
"I  c #6B856E787202",
"U  c #6EEC71EC7586",
"Y  c #71CA7182712A",
"T  c #7A6F7A6A7A63",
"R  c #94A56D583E2E",
"E  c #94DD6EF44176",
"W  c #9CF0744A4382",
"Q  c #A17B77234452",
"!  c #A43D79A8468F",
"~  c #A9A67DCF4935",
"^  c #ACA880964BB6",
"/  c #C9359643591F",
"(  c #CD7E993A5A86",
")  c #D48F9ED55E54",
"_  c #D6C1A0605F1E",
"`  c #D7A4A16A6044",
"'  c #DE0AA5C4623B",
"]  c #E703AC3965AF",
"[  c #EBABAF80674B",
"{  c #E72CAD82685D",
"}  c #EB29AFE268BD",
"|  c #ECCAB05567C8",
" . c #EEA7B1EA6907",
".. c #F353B5676B19",
"X. c #F76AB94A6EBF",
"o. c #FB23BB476EA2",
"O. c #FDB2BDC970E1",
"+. c #FFFFC7A97634",
"@. c #FFFFC8C17629",
"#. c #FFFFCD5D78DF",
"$. c #7C2E7EB681C0",
"%. c #7DDE80708384",
"&. c #84988477844E",
"*. c #852487678A23",
"=. c #8707894F8C0C",
"-. c #89B689F88A47",
";. c #8BF88DF0904B",
":. c #8EC890659254",
">. c #922F93C595AA",
",. c #9EF59EBE9E7D",
"<. c #A0299FF59FB6",
"1. c #A555A556A556",
"2. c #ACCAAC91AC4C",
"3. c #AFCCB038B0B9",
"4. c #B37EB374B368",
"5. c #B866B72DB5B5",
"6. c #B87BB849B80D",
"7. c #BCADBC1FBB75",
"8. c #C12DBFCEBE2C",
"9. c #C291C131BF8C",
"0. c #C38AC34FC309",
"q. c #CD1FCD02CCE0",
"w. c #D61AD5B3D536",
"e. c #D999D83CD699",
"r. c #DC08DB73DAC0",
"t. c #E6A7E5FBE52D",
"y. c #EC15EBB1EB36",
"u. c #F113F0C1F063",
"i. c #F482F41FF3A9",
"p. c #FA0AF8F5F7A8",
"a. c #FF1DFF1BFF1A",
/* pixels */
"[ [ [ | [ | [ [ [ [ | [ | [ | [ [ [ [ [ [ | [ [ | [ [ [ [ [ [ [ [ | [ [ | [ ",
"[ [ [ [ [ [ [ [ [ [ [ [ [ [ [ [ [ | [ [ [ [ [ [ [ [ | [ [ | [ | [ [ [ [ [ [ ",
"[ [ [ [ [ [ | [ [ | [ [ [ [ [ [ [ | ....[ [ [ [ | [ [ [ [ [ [ [ [ | | [ | [ ",
"[ | [ | [ | [ [ [ [ | [ | [ [ | ] ..M M ..] [ [ [ [ | [ [ [ | [ [ [ [ [ [ [ ",
"[ [ [ [ [ [ [ | [ [ [ [ [ [ [ [ o.#.j j #...[ [ | [ | [ | [ | [ [ [ [ [ [ [ ",
"[ | [ [ | [ [ [ [ [ [ [ [ [ [ ..B l * * l N | [ [ [ [ [ [ [ [ [ | [ [ | [ [ ",
"| [ [ | [ [ [ [ [ [ [ [ [ [ [ ..v 0 @ $ 0 c ..[ [ [ | [ [ | [ | [ [ [ [ [ [ ",
"[ [ [ [ | [ [ | [ [ [ [ [ [ [ | ..#.g j #...[ [ [ [ [ [ [ [ [ [ | [ [ | [ [ ",
"[ [ [ | [ [ [ [ [ [ [ [ [ { | | ] +.k k +.] [ [ [ | [ [ [ [ [ [ [ [ [ [ [ [ ",
"| [ [ [ [ [ [ [ ] [ ] [ | | | | | v . . b [ | [ [ [ [ ] ] [ [ [ [ [ [ [ [ [ ",
"[ | [ [ [ [ [ ..o.o.o...| ] [ ..g : &.T o g ..[ [ { ..o.o.o...] [ [ [ [ [ [ ",
"[ [ [ | ] ..o.` ~ R ! ( ..o.O.W o t.a.a.w.  ! O.O...( Q R ! ) o...[ | | [ [ ",
"[ [ [ [ .._ g     - o   # c { n p a.p.p.a.u m ] z #   o O     f ) ..{ | [ [ ",
"[ | [ ../ @ e 1.t.i.y.q.*.y   @ > u.a.a.i., @   u =.w.y.i.t.1.w . ( ..[ [ [ ",
"[ [ | ] % s p.a.a.a.a.a.a.a.4.,   2.a.a.2.  w 5.a.a.a.a.a.a.a.p.d * [ [ [ [ ",
"| [ o.M   r.a.p.a.a.a.a.p.a.a.t.: C a.a.d : y.a.p.a.a.a.a.a.p.a.r.  B o.[ [ ",
"{ | | % A a.a.a.a.a.a.a.a.a.p.a.9.  q.q.  0.a.p.a.a.a.a.a.a.a.a.a.A < ..{ { ",
"[ | ]   P a.p.a.a.a.a.a.a.a.a.p.a.S K K S a.a.a.a.a.a.a.a.a.a.p.a.P   ] ..[ ",
"[ | { . K a.p.a.a.a.a.a.a.a.a.a.a.7.> : 7.a.a.a.a.a.a.a.a.a.a.a.a.K . | [ [ ",
"| { O.7 a a.a.a.a.a.a.a.a.a.a.a.a.p., , a.a.a.a.a.a.a.a.a.a.a.p.a.a 0 o.[ [ ",
"| [ o.E   9.a.p.a.a.a.a.p.p.a.a.a.a.s k a.a.a.p.a.p.a.a.a.a.a.a.8.  W o.[ | ",
"[ [ [ | 6 : r.a.p.a.a.a.a.p.a.a.a.a.Z D a.p.a.a.a.a.a.a.a.p.a.e.; 8 | [ [ [ ",
"[ [ [ ..) * - 0.a.p.r.2.^ J S s i i o + u i d S K -.4.r.p.a.7.O 1 _ ..[ [ [ ",
"[ [ [ [ ..] 6   F ,   o , s D K Y T &.&.T U K D s t +   , D   8 ] ..] [ [ [ ",
"[ [ [ | [ ..| M   P w.u.a.a.a.a.a.a.a.a.a.a.a.a.a.a.u.e.Y   N ..| [ [ [ [ [ ",
"[ [ [ [ [ [ [ o.@ ;.a.a.a.a.a.a.a.a.a.a.a.a.a.a.a.a.a.a.>.@ X.| [ | [ [ [ [ ",
"[ [ [ [ [ [ [ ..2 J a.q.1.&.P F S Z d d Z S F K &.1.0.a.J 2 X.[ | [ [ [ | [ ",
"[ [ [ [ [ { [ O.c   &   + t a Z S H H H H S Z a , +   +   x o.] [ [ [ [ [ [ ",
"[ [ [ [ [ [ [ O.B O 5.t.a.a.a.a.a.a.a.a.a.a.a.a.a.a.y.7.- M O.[ [ [ [ [ [ [ ",
"[ [ [ [ [ [ [ o.4 J a.p.r.7.1.-.T Y P P Y T -.,.7.r.i.a.J 4 o.[ [ [ [ [ [ | ",
"[ [ [ [ [ [ | ' . s a         + : t t t e > +         i a . ' | [ [ [ | | [ ",
"[ [ [ [ [ [ o.^   : Z &.4.w.y.p.a.a.a.a.a.a.a.y.e.5.-.S >   ~ o.[ [ [ [ [ [ ",
"[ [ [ [ [ [ o.M   H e.a.a.a.a.a.a.a.a.a.a.a.a.a.a.a.a.w.K   M o.[ [ [ [ [ [ ",
"[ [ [ [ [ [ | ) M *   o y C J U $.=.;.;.=.$.I G V w     @ x ( | [ [ [ [ [ [ ",
"| [ [ [ [ [ [ ..o. .( Q m h 9 2 < % # # % < 2 7 h n W ( | o...[ [ [ [ [ [ | ",
"[ [ [ [ [ [ [ [ [ [ ..o.O.O.O.o.X.....| ..X.o.O.O.O.o...[ ] [ [ [ [ [ [ [ [ ",
"[ [ [ | [ [ [ [ [ [ [ ] [ ] [ [ [ [ [ [ [ [ [ ] ] ] [ [ [ [ [ [ [ [ | [ [ [ ",
"| [ [ [ [ [ [ | [ [ [ [ [ [ [ [ [ [ [ [ [ [ [ [ | | | { [ [ [ [ [ [ [ [ | [ "
};
