/* XPM */
static char *kll__[] = {
/* columns rows colors chars-per-pixel */
"34 34 130 2",
"   c #016B00F100B4",
".  c #0A85061C016B",
"X  c #0C4708FE050E",
"o  c #035A05FF096D",
"O  c #05AE088F0C18",
"+  c #0BBA0B250A72",
"@  c #13DF0CFC04D0",
"#  c #19C30F390295",
"$  c #109F0E620BB2",
"%  c #1ADD107A0405",
"&  c #126610BB0ECB",
"*  c #06B70AC60FA6",
"=  c #07C60CF6134F",
"-  c #0D80115315EB",
";  c #0EFE12EC17A2",
":  c #129F12A312A8",
">  c #1E221DCD1D63",
",  c #233519000D0F",
"<  c #2AA31BC00A63",
"1  c #30DD1F420A21",
"2  c #2ACB1E731048",
"3  c #30D322E712D2",
"4  c #3F572F2B1BC3",
"5  c #173D1CE723B2",
"6  c #1DAB20C62484",
"7  c #2257224D223F",
"8  c #237426A42A77",
"9  c #2C1F2BB52B37",
"0  c #347C34EB3574",
"q  c #33A4366539BF",
"w  c #34C037CB3B73",
"e  c #3BFA3BBE3B76",
"r  c #43E82ED21585",
"t  c #46EF3049151B",
"y  c #48E331D21621",
"u  c #43F9312F1AA4",
"i  c #4ABC34461951",
"p  c #53F439CF1A6F",
"a  c #59B73D6F1B80",
"s  c #4A55375A2094",
"d  c #594B427E2723",
"f  c #5C89459A29CD",
"g  c #5E9447D02BE9",
"h  c #6395462922DA",
"j  c #6698483723C3",
"k  c #6A5E4B6A2646",
"l  c #6DB64FF12C38",
"z  c #70EA52C82E9F",
"x  c #7B755AF833FB",
"c  c #3A393E3242E5",
"v  c #438B432942B4",
"b  c #488B475D45F3",
"n  c #484C480F47C4",
"m  c #47474A5D4E49",
"M  c #4BC34C034C55",
"N  c #479A4BB4509F",
"B  c #48624C815174",
"V  c #53825385538F",
"C  c #5860581E57D1",
"Z  c #5668577158C7",
"A  c #543A582E5CF0",
"S  c #5C225BE75BA0",
"D  c #5A585E63633C",
"F  c #620261C4617A",
"G  c #620765E16A80",
"H  c #65A0696B6DF9",
"J  c #6B866B496AFF",
"K  c #7C167BDD7B99",
"L  c #870D626A3675",
"P  c #853763343A64",
"I  c #8A8D658B3922",
"U  c #8F1F69343BBB",
"Y  c #95656CAB3BCD",
"T  c #994C6F823D5A",
"R  c #9B9171643EC7",
"E  c #A5C57AD84756",
"W  c #A5D67B1947D0",
"Q  c #ACD17FE049F3",
"!  c #AE5681764B9E",
"~  c #B612869A4DA3",
"^  c #BB558A1D4F0C",
"/  c #BAD78B545250",
"(  c #C06D900155E7",
")  c #C3A290A45373",
"_  c #C59B93DF5832",
"`  c #CADE974A5964",
"'  c #CF8C9A9A5B11",
"]  c #D4529E7D5DD4",
"[  c #D6E9A0485EBD",
"{  c #D99EA2085F57",
"}  c #D7BEA15C6001",
"|  c #DCF5A4E36199",
" . c #E742AC396566",
".. c #EBA1AF786747",
"X. c #ECA9B03D67BA",
"o. c #EF50B257692C",
"O. c #F3CFB5B16B28",
"+. c #F7CBB8C66D26",
"@. c #FAD7BB1B6EA3",
"#. c #F838BA70704D",
"$. c #FE71BEA871C1",
"%. c #FFFFC47874B3",
"&. c #FFFFCE577A30",
"*. c #861585E185A2",
"=. c #8856881E87DA",
"-. c #87D38AF38EB3",
";. c #8F38927A9663",
":. c #9458948394B7",
">. c #9473967898E3",
",. c #98119A1F9C96",
"<. c #9B779C639D7E",
"1. c #A726A6F4A6BB",
"2. c #AAF1AAC2AA89",
"3. c #AE7FAFA8B10B",
"4. c #B380B2F4B24E",
"5. c #B95CB84AB700",
"6. c #B3D1B5E2B85D",
"7. c #BC45BB2AB9D6",
"8. c #BFBEC031C0BB",
"9. c #C53AC50EC4D9",
"0. c #CB4FCBC1CC4B",
"q. c #D515D4F4D4CB",
"w. c #D846D8EED9B5",
"e. c #DC9BDC4EDBEE",
"r. c #E449E43CE42C",
"t. c #E868E847E81F",
"y. c #E8A0E884E861",
"u. c #EC82EC31EBCB",
"i. c #F3FFF3A5F338",
"p. c #FF37FF35FF32",
/* pixels */
"........X.X.........X...X...X.X...X.X.X.X...X...X...X.........X...X.",
"......X.....X...X.......X...X.X.X.X.X.X.X.X...............X.........",
"........X...........X.........X.{ { X...X.X...X.X.X...X.......X...X.",
"X...X.........X.X...........X.%.d f %.X. .X...............X.......X.",
"..............X.X.........X.] ` 4 u ` [ X.X.......X...X.X...X.......",
"X...X.X...X...........X...@.P . X X X x #. .X...............X.....X.",
"..............X...X......... .X.s s X. .X.X.X.....X.X...X...........",
"..X...X...X................. .&.f g &. .X.X.X.X.............X...X...",
"........X..... . ... .......O.L . . L O......... . . . .............",
"..X...X. ...+.$.%.$.$.X. .+.l 5 <.:.* z O. .O.@.$.%.%.+.............",
"....X...O.O.Q k p j T } %. .X 0.p.p.8.@  .%.] Y h p h E O.O.........",
"......O.] < o c A N 8 X i U & r.p.p.r.& U u X 8 N A c o , ] O. .....",
"....X.| @ m u.p.p.p.p.q.G o   2.p.p.2.  O H e.p.p.p.p.u.m @ | O.....",
"....@.u q p.p.p.p.p.p.p.p.w.: n p.p.b : e.p.p.p.p.p.p.p.p.q i @. ...",
" .O.`   4.p.p.p.p.p.p.p.p.p.0.  q.q.  0.p.i.p.p.p.p.p.p.p.4.  ' O...",
" .@.E   e.p.p.p.p.p.p.p.p.i.p.F J J F p.p.p.p.p.p.p.p.p.p.e.  W +...",
" .+.!   e.p.p.p.p.p.p.p.p.p.p.q.> 7 q.p.p.p.p.p.p.p.p.p.p.e.  ! #...",
"..O.]   2.p.p.p.p.p.p.p.p.p.p.p.9 9 p.p.p.p.p.p.p.p.p.i.p.4.  } X...",
"....@.r q p.p.p.p.p.p.p.p.p.p.p.M V p.p.p.p.p.p.p.p.p.p.p.q i #. .X.",
"....O.]   Z p.p.p.p.p.p.i.r.w.r.n n t.q.t.i.p.p.p.p.p.p.V . ] O.....",
".... .+./ . q e.1.S 0 2 - - - & : : : & : : 7 e F 1.q.0 . _ O...X...",
"...... .+.] 2   > V *.2.9.q.r.r.u.u.t.r.q.9.2.*.C >   3 ] @. .......",
"..X...X. .O.+.# ;.p.p.p.p.p.p.p.p.p.p.p.p.p.p.p.p.<.# @.O.......X...",
".......... .%.u G p.r.9.2.;.-.W K K K *.:.2.9.e.p.H r $. ...........",
"X.....X... .@.x O 9 + : > 9 0 e v v e 0 9 > : + 7 O x @. .........X.",
"............$.U ; 5.u.p.p.p.p.p.p.p.p.p.p.p.p.y.7.; I $.............",
"X...X.X.....$.t G p.q.2.*.J S V M M V C J *.1.q.p.G t $...........X.",
"..........X.X., ; X   O 7 e M C S S C M e 7 O   O : , ............X.",
"X...X.....+./   v 4.u.p.p.p.p.p.p.p.p.p.p.p.p.i.6.b   / O...........",
"........ .O./ @ 7 G :.6.0.e.u.u.i.i.u.y.e.0.3.-.D 6 . ~ O.........X.",
"..X.........X. .T a 1 % $ & & : > : : : X X # < p Y  .X.............",
"..............X.@.%.@.O.{ ] ( ^ ~ ~ ^ ) `  ...@.%.@.X...........X...",
"......X.....X..... .....X.O.O.+.+.+.+.O.O.X..... . .....X...........",
"X.........X................... ... . .................X.....X...X..."
};
