/* XPM */
static char *kll__[] = {
/* columns rows colors chars-per-pixel */
"44 44 121 2",
"   c #007600720087",
".  c #0AFA06650195",
"X  c #0C0708B104B2",
"o  c #022F04F708E4",
"O  c #06CD085E0A5C",
"+  c #0B6D0B8B0BBE",
"@  c #1207092B001A",
"#  c #18DC0F120353",
"$  c #1AFF1221077C",
"%  c #0F0B11BF153D",
"&  c #12F412E512D8",
"*  c #137016171962",
"=  c #154C19371DEA",
"-  c #1CB01C741C2C",
";  c #1FDB15C809B0",
":  c #2F3D1FE10D24",
">  c #32FF226A0E1B",
",  c #2ECB22D91488",
"<  c #33502608161B",
"1  c #354C27B0175C",
"2  c #367828A21850",
"3  c #3AF72BCA19A4",
"4  c #1E591F51207E",
"5  c #1F362092223C",
"6  c #2353231622CE",
"7  c #27D427AF2784",
"8  c #26EC27A1287A",
"9  c #2C532C0F2BBD",
"0  c #318C30732F21",
"q  c #2AF92E2A31EF",
"w  c #3298325A3210",
"e  c #38803816379A",
"r  c #32F636463A27",
"t  c #3C5E3BFF3B8C",
"y  c #4418323A1CF3",
"u  c #4ADB3766200D",
"i  c #4D9F39CE2207",
"p  c #51F83C8C22D8",
"a  c #5DA744062549",
"s  c #587242B228A0",
"d  c #635648032726",
"f  c #63A048A12850",
"g  c #6F4B51E82EA3",
"h  c #7166537E2F9B",
"j  c #6CDE51D6316B",
"k  c #7483568C32A7",
"l  c #7A8E5B343595",
"z  c #4551449143AC",
"x  c #488047E74730",
"c  c #460C473948A1",
"v  c #4C164BBE4B54",
"b  c #4FE54F364E63",
"n  c #533852F452A2",
"m  c #5679579258E4",
"M  c #5C0C5C3F5C7E",
"N  c #602F5FB45F20",
"B  c #63BF63786324",
"V  c #69D1688166EF",
"C  c #661A673B6894",
"Z  c #6B986BF96C6B",
"A  c #70346FE36F80",
"S  c #707970316FDA",
"D  c #74D074A87479",
"F  c #781B77DE7796",
"G  c #7D697CFB7C78",
"H  c #871D658A3D41",
"J  c #893966113BDE",
"K  c #8CCC69493EAB",
"L  c #92466CB43F9F",
"P  c #8E8E6AE5401B",
"I  c #91716CAC408C",
"U  c #95EC702742D4",
"Y  c #9B6F73D84456",
"T  c #A36479B347AB",
"R  c #A81E7D2A499E",
"E  c #AE1F824A4DB0",
"W  c #B39886725044",
"Q  c #B6DC88DC51A9",
"!  c #BC048CD65438",
"~  c #C364919A55DA",
"^  c #C62C946A587A",
"/  c #CA2B976B5A43",
"(  c #CDC799E15B95",
")  c #D3F59E405DCD",
"_  c #DD22A5BD6344",
"`  c #E75AAC5F6598",
"'  c #EBB2AF84674E",
"]  c #EAA8AFA768DA",
"[  c #ECDAB06067CF",
"{  c #ED0EB0EA68BF",
"}  c #F401B5B86AF9",
"|  c #F7E2B8B36CE1",
" . c #FB6ABB536E69",
".. c #FE05BD92703A",
"X. c #FFFFC3237317",
"o. c #855B85488532",
"O. c #8A3B8AD68B91",
"+. c #950594BE9468",
"@. c #9CDA9C969C45",
"#. c #A45DA3E3A34F",
"$. c #A854A804A7A3",
"%. c #AD0DACAEAC3C",
"&. c #B0C4AF96AE2B",
"*. c #B435B3C9B349",
"=. c #B898B800B748",
"-. c #BC33BBA5BAFB",
";. c #C0D0C08EC03E",
":. c #C4B7C44BC3C9",
">. c #C93DC866C764",
",. c #CCA9CBCFCAC8",
"<. c #D08FCF3DCDAB",
"1. c #D38ED31DD295",
"2. c #D870D839D7F8",
"3. c #DCEADC0DDB04",
"4. c #E131E086DFB9",
"5. c #E4F6E49CE431",
"6. c #EA4BE912E79A",
"7. c #EC05EB41EA56",
"8. c #F4CCF489F439",
"9. c #F8F1F870F7D4",
"0. c #FF3EFF3BFF36",
/* pixels */
"' ' ' ' [ ' ' ' [ ' ' [ ' ' [ ' ' [ ' ' ' ' [ ' ' ' ' ' ' ' ' ' ' ' ' ' ' ' [ ' ' [ ' ' ",
"' ' ' ' ' ' ' [ ' ' ' ' ' ' ' ' ' ' ' ' ' ' ' ' ' ' [ ' ' [ ' ' [ ' ' [ ' ' ' ' ' ' ' ' ",
"' ' ' [ ' ' ' ' ' ' ' ' [ ' ' ' ' ' ' { [ } } [ ' ' ' ' ' [ [ ' ' ' ' ' [ ' ' ' ' [ [ ' ",
"' [ ' ' ' ' [ ' [ ' ' ' ' ' [ ' ' ' ' ' { ~ ~ { ' ' ' ' ' ' ' ' ' [ ' ' ' ' [ ' ' ' ' ' ",
"' [ ' ' [ ' ' [ ' ' { ' ' ' ' ' ' ' ' ` | , < | ` ' ' ' ' ' ' ' [ ' ' [ ' ' [ ' ' ' ' ' ",
"' ' ' [ ' ' ' ' ' ' ' ' ' ' ' ' ' ' } | .., < X.| { ' ' ' [ [ ' ' ' ' ' [ ' ' ' ' [ ' [ ",
"' ' ' ' ' ' ' ' ' ' ' ' ' ' ' ' ' } ~ 1 2 . X 3 < ~ } ' ' ' ' ' ' ' ' ' ' ' ' ' ' [ ' ' ",
"' [ ' ' [ ' ' [ ' { ' ' ' ' ' ' ' | ~ 1 3 X X 1 < ~ } ' ' [ ' ' [ ' ' [ ' ' ' [ ' ' ' ' ",
"' ' [ ' ' ' [ ' ' ' ' ' ' ' ' ' ' ' } | .., , X.| } ' ' ' ' [ ' ' ' ' ' ' ' ' ' ' ' ' ' ",
"' ' ' ' ' ' ' ' [ ' ' [ ' ' ' ' ' ' ' `  ., < ..` ' ' ' ' ' ' ' ' ' ' ' ' ' ' ' ' [ ' ' ",
"[ ' ' [ ' ' ' ' ' ' ' ' ' ' ' ' ' ' ] | ) , < ) } ' ' ' ' ' ' [ ' ' ' ' ' ' ' [ ' [ ' [ ",
"' ' ' ' ' ' ' ' ' ` ` ' ` ' ' ' ' ' | k         k } ' ' ' ' ' ` ` ` ` ' ' [ ' ' ' ' ' ' ",
"' ' ' ' ' ' ' ` } |  . . .| { ' ` | J   o.3.2.V   K | ` ` { |  . . . .| ' ' ' ' ' ' ' ' ",
"[ ' ' ' ' ' } | ( Y l k L ~ ] ..} ] @ m 0.0.0.0.c $ [ |  .[ ! K h k I / | } ` ' ' [ [ ' ",
"' ' [ ' ` | ( y       o     . d / `   o.0.9.9.0.O.  ` ^ a .     o       3 / | ' [ ' ' ' ",
"' ' ' ' | Q X O F ,.6.7.3.*.C &   1   C 0.9.0.0.C   1   * Z =.3.7.6.,.F O . W | ' [ ' ' ",
"' ' ' } ( . 6 3.0.0.0.0.0.0.0.9.@.&   5 8.0.0.8.-   * @.0.0.0.0.0.0.0.0.3.6 . ) | ' ' ' ",
"' ' ' | y   ,.0.9.0.0.0.0.9.0.0.0.6.e   $.0.0.$.  e 7.0.0.9.0.0.0.0.0.9.0.,.  y | ' ' ' ",
"' ' | !   N 0.9.0.0.0.0.0.0.0.0.0.0.6.& w 0.0.9 * 7.0.0.0.0.0.0.0.0.0.0.9.0.B   ~ | ' ' ",
"' `  .H   #.0.0.0.0.0.0.0.0.0.0.0.9.0.%.  :.:.  &.0.9.0.0.0.0.0.0.0.0.0.0.0.#.  K | ` ' ",
"' `  .l   -.0.9.0.0.0.0.0.0.0.0.0.0.0.0.7 C B 9 0.0.0.0.0.0.0.0.0.0.0.0.0.0.-.  l ..` ] ",
"' ` | K   &.0.0.0.0.0.0.0.0.0.0.0.0.0.0.@.+ + @.0.0.0.0.0.0.0.0.0.0.0.0.9.0.&.  I | ` ' ",
"' ' | !   G 0.9.0.0.0.0.0.0.0.0.0.0.0.0.4.. O 5.0.0.0.0.0.0.0.0.0.0.0.0.0.0.G   ! | ] ' ",
"' ' ' ' $ 6 9.0.0.0.0.0.0.0.0.0.0.0.9.0.0.- 6 0.0.9.0.0.0.0.0.0.0.0.0.0.0.9.5 ; [ [ ' ' ",
"' ' ` | P   V 0.9.0.0.9.0.0.0.0.0.0.0.0.0.9 w 0.0.0.0.0.0.0.0.9.0.0.9.0.0.B   I | ' ' ' ",
"' ' ' ' | i   V 0.9.0.0.0.0.0.8.5.1.:.-.-.6 7 -.-.:.1.5.9.0.0.0.0.0.0.0.N   s | ' ' ' ' ",
"' ' ' ' { { p   s 7.5.@.B r &                             * e V #.3.5.t   s } ' ' ' ' ' ",
"' ' ' ' ' { | j   & +   + r N o.@.*.;.,.1.1.1.1.,.:.*.@.o.B t &   X &   k | [ ' ' ' ' ' ",
"' ' ' ' ' ' ' | E . 7 4.0.0.0.0.0.0.0.0.0.0.0.0.0.0.0.0.0.0.0.0.5.9 . !  .' ' ' ' ' ' ' ",
"' ' ' ' ' [ ' ` X.i * 0.0.0.0.0.0.0.0.0.0.0.0.0.0.0.0.0.0.0.0.0.0.= p X.` ' ' ' ' ' ' ' ",
"' ' ' ' ' ' ' ` | H   5.0.9.4.:.%.+.O.G D S A D G o.+.$.:.3.8.0.5.  l  .` ' ' [ ' ' ' ' ",
"' ' ' ' ' ' ' ' | R   v q .           . + + + + .             6 x   T | ` ' ' ' ' ' ' ' ",
"[ ' ' [ ' ' ' ' } /   & v G #.:.2.6.8.9.0.0.0.9.9.8.5.2.:.#.G v *   ^ | ' ' ' ' ' ' ' ' ",
"' ' ' ' ' ' ' ` | Q   &.0.0.0.0.0.0.0.0.0.0.0.0.0.0.0.0.0.0.0.0.*.  W | ' ' ' ' ' ' ' ' ",
"' ' ' ' ' ' ' `  .h o 6.6.=.+.Z n t w 6 - - - - 6 9 t n Z +.=.5.6.o g  .` ' ' ' ' ' ' ' ",
"[ ' ' [ ' ' ' ' | 1 o 7         + - w t c v v c i w 6 +         , o < | ' ' ' ' ' ' ' ' ",
"' ' [ ' ' ' ' } ) X   - M +.:.5.9.0.0.0.0.0.0.0.0.0.0.9.5.>.@.B 5 o X ) | ' ' ' ' ' ' ' ",
"' ' ' ' [ ' ` | T   9 :.0.0.0.0.0.0.0.0.0.0.0.0.0.0.0.0.0.0.0.0.:.0   Y | ` ' ' ' ' ' ' ",
"[ ' ' ' ' ' ' } ( i X   + r C O.$.-.,.2.2.3.3.2.1.>.=.#.o.M q +   o y ~ } ' ' ' ' ' ' ' ",
"' ' [ ' ' ' ' ' } | ) Y f > .                             . ; d I ( | } ' ' ' ' ' ' ' ' ",
"' ' ' ' ' ' ' { ' ' [ |  .| { _ / ! E T Y Y Y Y T E ! / _ { | | | } ' ' [ ' ' ' [ ' ' [ ",
"' ' [ ' ' ' ' ' ' ' ' ' ' ' { } } | | |  . . .| | | | } } { ] ' ' ' ' ' ' ' ' [ ' ' ' ' ",
"[ ' ' ' [ ' ' ' ' ' ' ' ' ' ' ' ' ` ' ` ' ' ` ` ` ' ` ' ' ' ' ' ' ' [ ' ' [ ' ' ' ' ' ' ",
"' ' [ ' ' ' ' [ ' ' ' ' ' ' ' ' ' ' ' ' ' ' ' ' ' ' ' ' ' ' [ ' ' ' ' ' ' ' ' ' [ ' ' [ "
};
