/* XPM */
static char *kll__[] = {
/* columns rows colors chars-per-pixel */
"64 64 127 2",
"   c #009C0084006A",
".  c #078805B40383",
"X  c #0D8E0A8606E9",
"o  c #0B8F0B200A9F",
"O  c #12610E22090E",
"+  c #1B2614810C89",
"@  c #1F5E17D80ED1",
"#  c #157A14F51458",
"$  c #17DF172E165B",
"%  c #1C4818321349",
"&  c #1B7A1AF61A5A",
"*  c #21BE19200ECA",
"=  c #22CD1AA510DA",
"-  c #28591EFE13C1",
";  c #1FF11EB11D32",
":  c #2CEC21EC14B8",
">  c #20451FB51F06",
",  c #31A52553168A",
"<  c #3229263217D7",
"1  c #365A28FA18EF",
"2  c #3CA72D891B65",
"3  c #3F0E2FB51D4A",
"4  c #24A024122366",
"5  c #2834272825E7",
"6  c #28C927FD2707",
"7  c #2BD92B442A91",
"8  c #301B2F262E01",
"9  c #31F430AF2F29",
"0  c #351E349233EA",
"q  c #39A7386736E7",
"w  c #3D633CA33BBD",
"e  c #4349328D1E7A",
"r  c #467235752112",
"t  c #49A136DB2053",
"y  c #4DCB3ABB23DC",
"u  c #51143D7025E0",
"i  c #55FB40B62731",
"p  c #567C416D2827",
"a  c #5C32456E2A03",
"s  c #63644AE02D51",
"d  c #69264E852E91",
"f  c #6BA350252F29",
"g  c #6E3E52823139",
"h  c #740856A3335D",
"j  c #778859043467",
"k  c #7CAA5D06370E",
"l  c #7E6D5E9B386A",
"z  c #439142E1420E",
"x  c #4D124C4B4B5B",
"c  c #50344FCC4F4F",
"v  c #557D54EB543C",
"b  c #588D57835644",
"n  c #585A581357BE",
"m  c #5B615ACD5A1B",
"M  c #60535F005D69",
"N  c #607F60045F70",
"B  c #648B63FE6355",
"V  c #682967B36726",
"C  c #699C6880672D",
"Z  c #6CCF6C266B5B",
"A  c #700A6F756EC5",
"S  c #74F7747073CE",
"D  c #78FF779B75F0",
"F  c #78AD783777AA",
"G  c #7D467C8F7BB2",
"H  c #84BB637E3B9B",
"J  c #8A2167123CFD",
"K  c #8F016A953EE1",
"L  c #8EC96B14403D",
"P  c #94446ED641EB",
"I  c #9646706242E9",
"U  c #9B98741644AC",
"Y  c #A5257B534924",
"T  c #A9ED7EEB4B4F",
"R  c #80377FBD7F2C",
"E  c #AE3881E04CA9",
"W  c #B1AB84604E07",
"Q  c #B76F88F05124",
"!  c #BBA88BD2526B",
"~  c #C50792C7567B",
"^  c #C812953D583E",
"/  c #CA25969958BF",
"(  c #CDDB99565A50",
")  c #D3939D9C5CDA",
"_  c #D7CAA0AB5E87",
"`  c #D99AA2175F79",
"'  c #DC13A3EC6086",
"]  c #E185A7F662E2",
"[  c #E732AC2C6558",
"{  c #EBC6AF936757",
"}  c #ECC5B05167C6",
"|  c #EF08B20168C5",
" . c #F44CB5EC6B13",
".. c #F80FB8B76CB3",
"X. c #FAF0BADF6DFD",
"o. c #FFFFBEDB7054",
"O. c #FFFFC3E2734B",
"+. c #842083588268",
"@. c #898688A9879F",
"#. c #8CA68C0B8B51",
"$. c #919E90558ECA",
"%. c #94FA94439369",
"&. c #9B3C9ACF9A4C",
"*. c #A142A01E9EBF",
"=. c #A122A0AEA01E",
"-. c #A660A5EBA560",
";. c #A959A865A742",
":. c #ABE9AB65AAC7",
">. c #B063AFEDAF5F",
",. c #B599B51AB482",
"<. c #B84EB7D7B748",
"1. c #B919B8A1B813",
"2. c #BD74BCEABC44",
"3. c #C04CBFE2BF61",
"4. c #C564C4F2C469",
"5. c #C850C7ECC772",
"6. c #C8E7C87FC800",
"7. c #CBD1CB54CABE",
"8. c #D5B3D544D4BF",
"9. c #D981D8DED81B",
"0. c #DBF1DB8FDB17",
"q. c #E4C3E463E3F0",
"w. c #ED13ECC6EC6A",
"e. c #F0E9F0A3F04F",
"r. c #F404F3BCF366",
"t. c #F8A8F86CF825",
"y. c #FF2CFF2BFF2A",
/* pixels */
"{ { { { { { { { } { { { { { } { { { } { { { { { } { { { { { { { { { { { { { { { } { { { { } } { { { { } { { } { { { { { } { { { ",
"{ { { { } { { { { { } { { { { { { { { { } { { { { { } { { { { { { { { { { { { { { { { { { { { { { { { { { { { { { } { { { { } { ",
"{ { { } { { } { { { { { { { { { { { { { { { { { } { { { { { { { { { { { { { { { { { { { { { } { { { { { { { { { { { { { { } { { ",
"{ { { { { { { { { } { { { { } { } { { { { { } { { { { { { { { { { { { { { { { { { { } { { { { { { } { { } { { { { { } { { { { { ",
"} { } { { { { { { { } { { { { { { { { { } { { { { { { { { { } X.X.{ { { { { { { { { { { { { { { { { { { } { } { { } { { { { } { ",
"{ { { { { { { { { { { { } { { { { { { } { { { { { { { { { } { h j { { { { { { { { { } { { } { { } { { { { { { { { { { { { { { { ",
"{ } { { } { { } { } { { { { } { { } { } { { { } { { { { {  .^     ) | { { { { { } { { { { { { { { { { { { } { { { { } { { { { { ",
"{ { { { { { { { { { { { } { { { { { { { { { { { } { { { {  .^   . ( ..{ { { { } { { { { } { } { { { { } { { { { } { { { { { } { ",
"{ } { { { { { } { { { { { { { { { { { } { { { { { { {  .{  .^     (  .{ ..{ { { { { { { { } { { { { { } { { { { { { { { { { } { ",
"{ { { { { { { { } { { { } { { { { } { { { { { } { { ..h + - *     * - + f  .{ { { { { { { { { { { { { { { } { { { { } { { { { { ",
"{ { } { } { { { { { { { { { } { { { { } { { { { { [ ..e                 2 ..{ { { { { { { { { { } { { { { { { { { { { { { { { { ",
"{ { { { { { { { { { { } } { { { { { { { { } { { { {  .' W ! U     I ! W _ { { { { { { { { } { { { { { { { } } { { } { { { { } { ",
"} { { { { { { { } { { { { { { } } { { { { { { { { { { } ..X.)     ) o. . .{ { { { { { { { { { { { } { { } { { { { { } { { { { { ",
"{ { } { { { { } { { { { { { { { { { { { { { { { { { { { [  .~     ~ | [ { { { { { { { { { { } { { { { { { { { { { { { { } { { { ",
"} { { { { } { { { { { } { { { { { { { { { { { { { { { { [ X._   . _ X.[ { { { { { { { { { { { { { { { { { { { { } { { { { { } { ",
"{ { { { { { { } { { { { { } { { { { { { { { { { { { { { X._ J % * H _ X.{ { { { { { { { { { { { { { { } { { } { { { { { } { { { ",
"{ { { { { { { { { { { { { } { { { { { { { { { { { { {  .L X         X J  .[ { { { { { { { { { { } { { { { { { { { { { { { { } { ",
"{ { { { { } { { { { { { { { [ { [ { [ { { { { { { [ o.k     q B M 4     l o.[ { { { { { { { { [ { [ { { { { { { { { { { { { { { ",
"} { { } { { { } { { { { {  .X.X.X.X. .| [ { { { [  .!   . ;.y.y.y.y.S   . !  .[ { { { [ {  .X.X.X.X. .{ [ { { { { { { { { { { { ",
"{ { { { } { { { { [ | X.| / E U U T ^ [ X.X.| [ [ o.a   V y.y.t.t.y.y.x   s o.[ [  .X.X.' ~ Y P P Y ~ { X. .[ { { { { { { { { } ",
"{ } { { { { } { [ X.' k : .           + u I ' X...} :   ;.y.y.y.y.t.y.;.  < | ..X._ I y +             - h ) X.{ { { { { { { { { ",
"{ { { { { { { { X.U O       # 6 7 5 o       O s Q | -   ,.y.t.y.y.y.y.1.  : | W p X       o 4 8 6 #       X P X.{ { { { } { { { ",
"{ { { { { { [ X.j     # G 7.r.y.y.y.w.4.@.q .     2 =   +.y.t.y.y.y.y.@.  = 2     . z $.7.w.y.y.y.r.7.G $     h X.[ { { { { } { ",
"} { { { { [ X.J     x w.y.y.y.y.y.y.y.y.y.y.8.B .   .   0 y.y.y.y.y.y.0   .   X Z 9.y.y.y.y.y.y.y.y.y.y.w.x     J X.{ { } { { { ",
"{ { { { { ..Q .   b y.y.y.t.y.y.y.y.y.y.y.y.y.y.9.z   .   5.y.y.y.y.5.      x 0.y.y.y.y.t.y.y.y.y.y.t.y.y.y.m   . ! ..[ { { { { ",
"{ { { { { } 1   5 w.y.y.y.y.y.y.y.y.y.y.y.y.t.y.y.y.Z     B y.y.y.y.B     S y.y.t.y.y.y.y.y.y.y.y.y.y.y.y.y.r.6   e  .{ { { { { ",
"{ { } { X.Y     -.y.t.y.y.y.y.y.y.y.y.y.y.y.y.y.y.y.y.m   # 0.y.y.9.o   N y.y.y.y.y.y.y.y.y.y.y.y.y.y.y.y.t.y.-.    E X.{ { { { ",
"{ { { [ X.i   # w.y.y.y.y.y.y.y.y.y.y.y.y.y.y.y.y.y.y.r.7   F y.y.Z   0 r.y.y.y.y.y.y.y.y.y.y.y.y.y.y.y.y.y.y.w.$   a X.[ { { { ",
"{ { { { } :   w y.y.y.y.y.y.y.y.y.y.y.y.y.y.y.y.y.y.t.y.,.  # w.w.#   1.y.y.y.y.y.y.y.y.y.y.y.y.y.y.y.y.y.y.y.y.w   < | { { { { ",
"{ { { } [ %   v y.t.y.y.y.y.y.y.y.y.y.y.y.y.y.y.y.y.y.y.y.x   ,.,.  x y.y.y.y.y.y.y.y.y.y.y.y.y.y.y.y.y.y.y.y.y.v   = ] { { { { ",
"{ { { { { -   b y.y.y.y.y.y.y.y.y.y.y.y.y.y.y.y.y.y.y.y.y.,.  B B   ,.y.y.y.y.y.y.y.y.y.y.y.y.y.y.y.y.y.y.y.y.y.b   - { { { { { ",
"{ { { {  .2   z y.y.y.y.y.y.y.y.y.y.y.y.y.y.y.y.y.y.y.y.y.r.4 o . 4 t.y.y.y.y.y.y.y.y.y.y.y.y.y.y.y.y.y.y.y.y.y.z   e ..{ { { { ",
"{ { { [ X.d   ; r.y.y.y.y.y.y.y.y.y.y.y.y.y.y.y.y.y.y.y.y.y.B     V y.y.y.y.y.y.y.y.y.y.y.y.y.y.y.y.y.y.y.y.y.r.;   g X.{ { { { ",
"{ { { { X.Y     1.y.y.y.y.y.y.y.y.y.y.y.y.y.y.y.y.y.y.y.t.y.&.    -.y.y.y.y.y.y.y.y.y.y.y.y.y.y.y.y.y.y.y.t.y.1.    E ..[ { { { ",
"{ { { { } [ =   z y.y.y.y.y.y.y.y.y.y.y.y.y.y.y.y.y.y.y.y.y.4.    7.y.y.y.y.y.y.y.y.y.y.y.y.y.y.y.y.y.y.y.y.y.z   : { { { { { { ",
"{ { { { [ X.J     +.y.t.y.y.y.y.y.y.y.y.y.y.y.y.t.y.t.y.t.y.7.    9.y.t.t.y.t.y.y.y.y.y.y.y.y.y.y.y.y.y.t.y.G     P X.[ { { { { ",
"{ { { { { { | e     @.y.y.y.y.y.y.t.y.y.y.y.y.y.y.y.y.y.y.y.9.  . q.y.y.y.y.y.y.y.y.y.y.y.y.t.y.y.y.y.y.y.+.    t  .{ { { { { { ",
"{ { { { { {  ._ =     A y.y.t.y.y.y.y.y.t.q.7.1.;.%.@.G S Z m . . m Z S G #.&.:.3.9.w.t.y.y.y.y.y.y.y.t.B     : ] | { { { { { } ",
"{ { { } { { [ .._ :     z w.y.r.5.%.B w & .                                         o 4 z Z &.7.r.y.q.w     1 ]  .{ } { { } { { ",
"{ { { { { { { [ ..[ e     6 B $           . & 7 z v m Z S G G G G R G S Z m v z 7 $ .           # m 5     t }  .[ { { { { { { { ",
"} { } { { { { } [ |  .d         & x G -.5.q.r.y.y.y.y.y.y.y.y.y.y.y.y.y.y.y.y.y.y.r.q.7.;.+.x &         h ..} { { { { { } { { { ",
"{ { { { { { { { { { { X.Q -   x y.y.y.y.y.y.y.y.y.y.y.t.t.y.y.t.y.t.t.y.t.y.y.y.y.y.y.y.y.y.y.y.v   : ~ X.{ { { { { { { { { { } ",
"{ } { { { { { } { { { [ O.J   q y.t.t.y.t.y.y.t.y.t.y.t.y.y.t.y.y.y.y.t.y.t.y.t.t.y.y.t.y.t.y.y.w   J O.] { { { { { { { { } { { ",
"{ { { { { { { { { { { [ ..T   # w.y.y.y.y.y.y.y.y.y.y.y.y.y.y.y.y.y.y.y.y.y.y.y.y.y.y.y.y.t.y.w.&   Y ..{ { { { { { { { { { { { ",
"{ { { { } { { { { { { {  .( .   8.y.y.y.r.9.5.;.&.+.G Z B m v v v v m B Z S +.%.;.2.9.w.y.y.y.9.    /  .{ { { { { { { { { { } { ",
"} { { } { { } { { { { { } [ +   +.&.m 0 #                                             o 7 x #.G   + ] | { { { { { } { { { { { { ",
"{ { { { { } { { { { { { { ..2             # 7 z v Z S +.#.%.&.&.&.%.%.#.+.S Z v z 7 #             1 ..{ { } { { { { } { { { { { ",
"{ { { { { { { { { { { { [ X.s   $ C %.2.9.r.y.y.y.y.y.y.y.y.y.y.y.y.y.y.y.y.y.y.y.y.r.9.2.%.Z &   a X.[ { { { { } { { { { { } { ",
"{ { { { { { { } { { { { { ..r   G y.y.y.y.y.y.y.y.y.y.y.y.y.y.y.y.y.y.y.y.y.y.y.y.y.y.y.y.t.y.+.  e ..{ { { { { { { { { { { { { ",
"{ } { { { } { { { { { { | _ O   1.y.y.y.y.y.y.r.q.9.7.2.1.:.:.;.;.;.,.,.2.5.8.q.r.y.y.y.y.y.y.2.  X _ | { { { { { { { { { { { { ",
"{ { { } { { { } { { { [ X.T   & r.w.1.$.B z 7 & o                             o # 6 z B @.,.q.r.&   Y X.[ { { { { { { { { { { { ",
"} { { { { { { { { } { { X.g   & z o                 o # & 4 5 6 6 6 5 & # o                 o w $   g X.{ { { { { { { { { { { } ",
"{ { { { { { { { { { { {  .<           $ z B #.:.4.9.q.w.r.y.y.y.y.y.t.r.w.q.9.5.:.%.Z z &           : } { { { { { { { } } { { { ",
"{ { } { { { { { { { {  .( .   o u +.4.w.y.y.y.y.y.y.y.y.y.y.y.y.y.y.y.y.y.y.y.y.y.y.y.y.w.5.#.x #   . )  .{ { { { { { { { { } { ",
"{ { { { } { { { { { [ X.K     m q.y.y.y.y.y.y.t.t.t.t.t.t.t.y.t.y.t.t.y.t.y.y.t.y.y.y.y.y.y.y.q.M     K X.[ { { } { { { } { { { ",
"{ } { { { { { } { { { ..U       . 9 Z =.7.q.t.y.y.y.y.y.y.y.y.y.y.y.y.y.y.y.y.y.y.r.0.1.%.M 6         J ..{ { { { { { { { { { { ",
"{ { { { { { { { { { { { ..( d *           o 4 0 x M Z G +.#.$.%.%.$.@.+.D C b z 8 $             + p !  .{ { { { { { { { } { { { ",
"{ } { { } { { } { { { { [  .X.{ ~ P s 2 +                                             + 1 a J Q [ X...{ { { { } { } { { { { } { ",
"{ { } { { { { { { { { { { { { {  .X.X. .[ ( ! Y P H h s a i u y y y p a s h l L Y W ( ]  .X.X. .{ [ { { { { { { { { { { { } { { ",
"} { { { { { { { { { { { { { { { { [ { { |  . .X.X.X.X.X.X.X.X. .X...X.X.X.X.X.X.......} { [ [ { { { } { { { { { { { } { { { { { ",
"{ { { { { { { { { } { { { { { { { { { { { { [ { [ [ { [ [ { [ { { [ { [ { [ [ { { [ { { { { { } { { { { { { { { { } { { { { } { ",
"{ { { } { { } { { { { { { { { { { { { { { { { { { { { { { { { { { { { { { { { { { { { { { { { { { { { { { { } { { { { { { { { { ",
"{ } { { } { { { { { { { { { { { { { { { { { { { { { { { { { { { { { { { { { { { { { { { { { { { { { { { } { { { { { } { { { { { ",
"{ { { { { { { } { { { { { { { { { { { { { { { { { { { { { { { { { { { { { { { { } { { { { } { { } { { { { { { { } { { { { { } { "
};
