/* XPM */
static char *kll__[] = {
/* columns rows colors chars-per-pixel */
"72 72 127 2",
"   c #00B800A50093",
".  c #08220738061E",
"X  c #0C51098F064F",
"o  c #0BDC0B5D0AC9",
"O  c #0FB60BB506E5",
"+  c #10CF0DC60A26",
"@  c #1363101C0C2E",
"#  c #1AFB14D30D6F",
"$  c #1403137312C5",
"%  c #17A516DA15E7",
"&  c #1CD117E71201",
"*  c #1B5F1AF11A6D",
"=  c #211E18E50F04",
"-  c #23FA1B9C1191",
";  c #28311E36123B",
":  c #1FA51F4B1EDF",
">  c #2C6321A814C7",
",  c #323B259E1664",
"<  c #313C25A117B1",
"1  c #35B0287B18A4",
"2  c #3B4B2C8B1ACC",
"3  c #2416239322F5",
"4  c #2879272F25A4",
"5  c #293928362700",
"6  c #2DB82D272C7A",
"7  c #2FBC2F4E2ECB",
"8  c #352D349333DC",
"9  c #389337A1367E",
"0  c #3D463C7A3B84",
"q  c #42AA31E61DC6",
"w  c #459834791FEE",
"e  c #496336A7202A",
"r  c #4D1839EC22EB",
"t  c #50F03C7823E7",
"y  c #56AE40B0264C",
"u  c #580441BC2700",
"i  c #5BA7446D288C",
"p  c #40343FC03F34",
"a  c #601447A12A4A",
"s  c #63DB4AB42C86",
"d  c #68BC4E052DF5",
"f  c #6B3B50082F65",
"g  c #6DD252383119",
"h  c #72FB55B63296",
"j  c #76A7588C346B",
"k  c #7C3E5CC53701",
"l  c #4527448F43D9",
"z  c #47ED477546E5",
"x  c #49F148B14732",
"c  c #4BE54B134A17",
"v  c #50214F4A4E49",
"b  c #510A505E4F8A",
"n  c #549B5403534E",
"m  c #58AB582B5790",
"M  c #5D2D5C8B5BCA",
"N  c #6093600D5F6B",
"B  c #64B564006327",
"V  c #6837679C66E2",
"C  c #693E688467A6",
"Z  c #6CCE6C186B3C",
"A  c #70476F5A6E3C",
"S  c #73C473247262",
"D  c #7811778976E5",
"F  c #7D267C8A7BCF",
"G  c #830561AD39A9",
"H  c #8E7C6A2C3E99",
"J  c #908E6BA63F5B",
"K  c #95C36FCB423C",
"L  c #96DB7054421A",
"P  c #9B7C73D94448",
"I  c #A5D67B8848C5",
"U  c #AA187EB04A9B",
"Y  c #ACCB80AD4BBD",
"T  c #B2DC85344E6A",
"R  c #B66487D24FF1",
"E  c #B79388B6507A",
"W  c #BC238C195274",
"Q  c #808E80177F89",
"!  c #C0F88FCA54A1",
"~  c #C54092E55677",
"^  c #CAB196F158D8",
"/  c #CEE79A145AB1",
"(  c #D3A59D9B5CC3",
")  c #D78FA0845E78",
"_  c #D930A1BD5F32",
"`  c #DD01A49460DF",
"'  c #E164A7D962CB",
"]  c #E6D6ABE6652C",
"[  c #EBCCAF98675A",
"{  c #ECDCB06267D0",
"}  c #EEB6B1C468A1",
"|  c #F3ACB5786ACF",
" . c #F7D8B8906CA1",
".. c #FADBBACF6DF3",
"X. c #FFFFC20E7237",
"o. c #8436839A82DF",
"O. c #882B87A086F9",
"+. c #88B488318794",
"@. c #8CA38C0B8B55",
"#. c #94D8943A937C",
"$. c #984097BB971C",
"%. c #9D509CB59BFA",
"&. c #A0409FD59F55",
"*. c #A15FA0B09FDF",
"=. c #A477A3B9A2D5",
"-. c #AC1DAB93AAEE",
";. c #B120B09EB003",
":. c #B5E7B566B4CD",
">. c #BD8CBD1ABC90",
",. c #C08EC016BF86",
"<. c #C13BC0B9C01D",
"1. c #C43FC3CBC33F",
"2. c #C939C8BEC82B",
"3. c #CE57CDE1CD53",
"4. c #D06BD00ACF97",
"5. c #D0E8D060CFBC",
"6. c #D595D52BD4AC",
"7. c #D928D8C3D849",
"8. c #DD68DD05DC8E",
"9. c #E106E0A5E033",
"0. c #E566E506E492",
"q. c #E891E816E780",
"w. c #E8D5E883E820",
"e. c #ED89ED37ECD4",
"r. c #F5A0F55AF507",
"t. c #F8EDF8A6F852",
"y. c #FF35FF35FF34",
/* pixels */
"[ [ [ [ [ [ [ [ { [ [ [ [ [ [ [ { [ [ [ [ [ [ [ [ [ { [ [ [ [ [ [ [ [ { [ [ [ [ { [ [ [ [ [ [ [ [ [ { [ [ [ [ [ [ [ [ [ [ { [ [ [ [ [ [ [ [ [ [ ",
"[ [ [ [ [ [ [ [ [ [ [ [ { [ [ [ [ [ [ [ { [ [ [ [ [ [ [ { [ [ [ [ { [ [ [ [ [ [ [ [ [ [ { [ [ [ [ [ [ [ { [ [ [ [ { [ [ [ [ [ [ { [ [ [ [ { [ [ ",
"[ [ [ [ [ { [ [ [ [ [ [ [ [ [ [ [ [ [ { [ [ [ { [ { [ [ [ [ [ { [ [ [ [ [ [ { [ [ [ [ { [ [ [ { [ { [ [ [ [ [ [ [ [ [ [ [ [ [ [ [ [ [ [ [ [ [ [ ",
"[ [ { [ [ [ [ [ [ [ { [ [ [ [ { [ [ [ [ [ [ [ [ [ [ [ [ [ [ [ [ [ [ [ [ [ [ [ [ [ [ [ [ [ [ [ [ [ [ [ [ [ [ [ { [ [ [ { [ { [ [ [ [ [ { [ [ [ { ",
"[ [ [ [ [ [ { [ [ [ [ { [ { [ [ [ [ [ [ [ [ [ [ [ [ { [ [ [ [ [ [ [ [ { { [ { [ [ [ [ [ [ [ { [ [ [ { [ [ [ [ [ [ [ { [ [ [ [ { [ [ [ [ [ [ { [ ",
"[ [ { [ [ [ [ [ [ [ [ [ [ [ [ [ [ { [ [ [ [ { [ [ [ [ [ [ [ [ [ [ [ | [ [ } [ [ [ { [ [ [ [ [ [ [ [ [ [ [ [ [ [ [ [ [ [ [ [ [ [ [ [ [ [ [ [ [ [ ",
"{ [ [ [ [ [ [ [ [ { [ [ [ [ [ [ [ [ [ [ [ [ [ [ [ [ [ [ [ { [ [ [ } ( ; > _ } [ [ [ [ [ [ [ [ [ [ [ [ [ [ { [ [ [ [ [ [ [ { [ [ [ { [ [ [ [ [ [ ",
"[ [ [ [ [ { [ [ [ [ [ [ [ { [ [ [ [ [ [ { [ [ [ [ { [ [ [ [ [ [ [ | U     T | [ [ [ [ [ { [ [ [ [ { [ [ [ [ [ [ { [ [ [ [ [ [ [ [ [ [ [ [ { [ [ ",
"[ [ [ [ [ [ [ { [ [ [ { [ [ [ [ [ [ { [ [ [ { [ [ [ { [ [ [ [ [ ] | U     T | ] [ [ [ [ [ [ [ [ [ [ [ [ [ [ [ [ [ [ [ [ [ [ [ [ [ { [ [ [ [ [ [ ",
"[ [ { [ [ [ [ [ [ [ [ [ [ [ [ [ [ [ [ [ [ [ [ [ [ [ [ [ [ [ } ..| X.T     E X.| ..} [ [ [ [ { [ [ { [ [ [ [ { [ [ [ [ [ { [ [ [ [ [ [ [ [ [ { [ ",
"[ [ [ [ [ [ [ [ [ [ [ [ [ [ { [ [ [ [ [ [ [ [ [ [ [ [ [ [ } ( r q e ,     , r q r ^ | [ [ [ [ [ [ [ [ [ [ [ [ [ [ [ { [ [ [ [ { [ [ { [ { [ [ [ ",
"[ [ [ [ [ { [ [ [ { [ [ [ [ [ [ [ { [ [ { [ [ [ { [ { { ] ..L                     H ..] [ [ [ [ [ [ [ { [ [ [ [ [ [ [ [ [ [ [ [ [ [ [ [ [ [ [ [ ",
"{ [ [ [ [ [ { [ [ [ [ [ { [ [ [ [ { [ [ [ { [ [ [ [ [ [ [ } _ d u a q     2 i y s ( { [ [ [ [ [ [ [ [ [ [ [ [ [ [ [ [ [ [ [ [ [ { [ [ [ [ [ [ [ ",
"[ [ [ [ [ [ [ [ { [ [ [ [ [ [ [ [ [ [ [ [ [ [ [ [ [ [ [ [ [ } ....X.R     E X. ...| [ [ [ [ [ [ { [ [ [ [ [ [ { [ [ [ { [ { [ [ [ [ [ [ [ { [ [ ",
"[ [ { [ [ [ [ [ [ [ { [ [ [ [ { [ [ { [ [ [ [ [ [ [ { [ [ [ [ ] ] | U     Y | ] [ [ [ [ [ [ [ [ [ [ [ [ [ [ [ [ [ { [ [ [ [ [ [ [ [ [ { [ [ [ [ ",
"[ [ [ [ [ { [ [ [ [ [ [ [ [ [ [ [ [ [ [ [ [ [ { [ [ [ [ [ [ [ [ ]  .U     Y | [ [ [ [ [ [ [ [ [ [ [ [ { { [ [ [ [ [ [ [ [ [ { [ [ [ [ [ [ [ [ [ ",
"[ { [ [ [ { [ [ [ [ [ [ [ [ [ [ [ [ [ [ [ [ [ [ [ [ [ [ [ [ [ [ ] ..E     W ..] [ [ [ [ [ [ [ [ [ { [ [ [ [ [ [ [ [ [ [ [ [ [ { [ [ [ [ [ [ [ { ",
"[ [ [ [ [ [ [ [ [ [ [ [ [ [ [ [ { [ [ [ [ [ [ [ [ [ [ { [ { [ } ..~ g # # d ~  .} [ [ [ [ [ [ [ [ [ [ [ [ [ [ [ [ [ [ [ [ [ [ [ [ [ [ { [ [ [ [ ",
"[ [ [ [ [ [ [ [ [ [ [ [ [ [ [ [ [ [ [ [ [ [ [ [ [ [ [ [ [ ] | ] y             t ' | [ [ [ [ [ [ [ { [ [ [ [ [ [ [ [ [ [ { [ [ [ [ [ [ [ [ { [ [ ",
"[ [ [ { [ [ { [ [ [ [ [ [ [ [ { [ [ [ [ [ [ [ { { [ [ { [ } ' <     % 9 8 o     , ' } [ [ [ [ [ [ [ [ [ [ [ [ [ [ [ [ [ [ [ [ [ { [ [ [ [ [ [ [ ",
"[ [ [ [ [ [ { [ [ [ [ [ [ [ ] ] [ { } [ [ ] [ [ [ [ [ { [  .y   o %.r.y.y.0.B     u ..] [ [ [ [ [ [ [ [ [ [ { [ ] [ [ [ [ [ [ [ [ [ { [ [ [ [ [ ",
"[ [ [ { [ [ [ [ [ [ { [ [  .....} ] [ }  ... .} [ ] [ ] | !     %.y.y.y.y.y.y.V   . ~ | [ [ ] [ |  ... .[ ' ] [  ...| [ [ [ [ [ [ [ [ [ [ [ [ [ ",
"[ { [ [ [ [ [ [ [ [ ]  . .~ G t 1 ; - < r j U ` ....} ] ..k   % e.y.y.y.y.y.y.0.o   G ..' } ....( I f q > & = > w j E  . .] [ [ [ [ [ [ [ [ [ [ ",
"[ [ [ [ [ [ [ { [ [ ..W q                     + r U ] ....i   8 y.y.y.y.y.y.y.y.9   s X...] P r +                     2 T ..[ [ [ [ [ [ [ [ [ [ ",
"[ [ [ [ [ [ { [ [ ..j       . 5 c V Z B x 3 .       - g ` s   6 y.y.y.y.y.y.y.y.9   g _ s #       . 5 c B Z V c 4         h | [ [ [ [ [ [ [ [ [ ",
"[ [ [ { [ [ [ [ | i     . C 3.t.y.y.y.y.y.t.6.$.l .     X -   . 8.y.y.y.y.y.y.8..   = X     . c %.8.y.y.y.y.y.y.y.5.C .     i | [ [ [ [ [ [ [ [ ",
"[ [ [ [ [ [ [ ..h     3 3.y.y.y.t.y.t.y.y.y.y.y.y.6.C o     .   @.y.t.y.y.t.y.@.        o S 8.y.y.y.y.y.t.y.y.y.y.y.y.3.3     j ..[ [ [ [ [ [ [ ",
"{ [ [ [ [ ]  .I     3 0.y.t.y.y.y.y.y.y.y.y.y.y.y.y.y.8.x   .   9 y.y.y.y.y.y.9   .   n 0.y.y.y.t.y.y.y.y.y.y.y.y.y.t.y.0.4     U  .] [ [ [ [ [ ",
"[ [ [ [ [ { ' =   . 2.y.t.y.y.y.y.y.y.y.y.y.y.y.y.y.y.y.y.o.      1.y.t.y.y.>.  .   +.y.y.y.y.y.y.y.y.y.y.y.y.y.y.y.y.t.y.3..   - [ [ [ [ [ [ [ ",
"[ [ [ [ [ ..G     A y.t.y.y.y.y.y.y.y.y.y.y.y.y.y.y.y.y.t.y.F     n y.y.y.y.v     o.y.t.y.y.y.y.y.y.y.y.y.y.y.y.y.y.y.y.y.y.S     H ..[ [ [ [ [ ",
"[ [ { [ [ [ >     6.y.y.y.y.y.y.y.y.y.y.y.y.y.y.y.y.y.y.y.y.y.n   . 3.y.y.2.    m y.t.y.y.y.y.y.y.y.y.y.y.y.y.y.y.y.y.y.y.y.6..   2 } [ [ [ [ [ ",
"[ [ [ [ | ^ .   6 y.y.y.y.y.y.y.y.y.y.y.y.y.y.y.y.y.y.y.y.y.y.0.%   B y.y.M   * 0.y.y.y.y.y.y.y.y.y.y.y.y.y.y.y.y.y.y.y.y.y.y.6   X ^ | [ [ [ [ ",
"[ [ [ ] ..U     b y.y.y.y.y.y.y.y.y.y.y.y.y.y.y.y.y.y.y.y.y.t.y.@.  $ w.0.$   #.y.y.y.y.y.y.y.y.y.y.y.y.y.y.y.y.y.y.y.y.y.t.y.n     T | [ [ [ [ ",
"[ [ [ [ ..I     B y.t.y.y.y.y.y.y.y.y.y.y.y.y.y.y.y.y.y.y.y.y.y.r.3   -.-.  3 r.y.y.y.y.y.y.y.y.y.y.y.y.y.y.y.y.y.y.y.y.y.y.y.B     U  .[ [ [ [ ",
"[ [ [ [ | T     M y.y.y.y.y.y.y.y.y.y.y.y.y.y.y.y.y.y.y.y.y.y.y.y.Q   B M   o.y.t.y.y.y.y.y.y.y.y.y.y.y.y.y.y.y.y.y.y.y.y.t.y.M     E | ] [ [ [ ",
"[ [ { [ | ^ .   x y.y.y.y.y.y.y.y.y.y.y.y.y.y.y.y.y.y.y.y.y.y.y.y.6.  o o   6.y.y.y.y.y.y.y.y.y.y.y.y.y.y.y.y.y.y.y.y.y.y.y.y.z   X ^ | [ [ [ [ ",
"[ [ [ [ { ] -   3 r.y.y.y.y.y.y.y.y.y.y.y.y.y.y.y.y.y.y.y.y.y.y.y.y.8     9 y.y.y.y.y.y.y.y.y.y.y.y.y.y.y.y.y.y.y.y.y.y.y.y.r.3   - [ [ [ [ [ [ ",
"[ [ [ [ ] ..u     ,.y.y.y.y.y.y.y.y.y.y.y.y.y.y.y.y.y.y.y.y.y.y.y.y.C     S y.y.y.y.y.y.y.y.y.y.y.y.y.y.y.y.y.y.y.y.y.y.y.y.<.    i ..[ [ [ [ [ ",
"[ [ [ [ ] ..U     n y.t.y.y.y.y.y.y.y.y.y.y.y.y.y.y.y.y.y.y.y.y.t.y.#.    =.y.t.y.y.y.y.y.y.y.y.y.y.y.y.y.y.y.y.y.y.y.y.t.y.n     T  .[ [ [ [ [ ",
"[ [ [ [ [ [ [ ,     -.y.t.y.y.y.y.y.y.y.y.y.y.y.y.y.y.y.y.y.y.y.y.y.-.    :.y.y.y.y.y.y.y.y.y.y.y.y.y.y.y.y.y.y.y.y.y.t.y.&.    2 } [ [ { [ [ [ ",
"[ [ [ [ { [  .Y     . 1.y.t.y.y.y.y.y.y.y.y.y.y.y.t.y.y.t.y.y.y.t.y.:.    1.y.y.y.y.y.y.t.y.t.y.y.y.y.y.y.y.y.y.y.y.t.y.:..     E  .[ [ [ [ [ [ ",
"[ [ [ [ [ [ [ ..h     X :.y.t.y.y.y.t.y.y.y.y.y.y.y.y.y.y.y.y.y.t.y.:.    1.y.t.y.y.y.y.y.y.y.y.y.y.y.y.t.y.y.y.y.y.y.-.. .   k ..] [ [ [ [ [ [ ",
"[ { [ [ [ [ [ [ | i       #.y.y.y.y.y.y.y.r.8.>.=.o.S M c l 9 6 3 3 % .   % 3 3 6 9 l n B F #.-.2.0.y.y.y.y.y.y.y.y.o.  .   d ..[ [ [ [ [ [ [ [ ",
"[ [ [ [ [ [ [ ] {  .d   .   B r.y.0.=.A l * .                                                     . 5 x S -.8.y.r.n   .   h  .[ [ { [ [ [ [ [ [ ",
"[ [ [ [ [ [ [ [ [ [ ..G       9 z .             o 3 9 z n V S F o.@.@.@.@.@.@.o.F S V n z 9 3 @             . 0 6       H ..[ [ { [ [ [ [ [ [ [ ",
"[ [ { [ [ [ [ [ [ [ [ ..I X         . 6 m o.-.3.0.t.y.y.y.y.y.y.y.y.y.y.y.y.y.y.y.y.y.y.y.y.t.0.6.;.@.M 9 o         # T ..] [ [ [ [ [ [ { [ [ [ ",
"[ [ [ [ { [ [ [ [ { [ ] .._ i .   x 0.t.y.y.y.y.y.y.y.y.y.t.t.y.y.y.t.t.y.t.t.t.t.y.t.y.y.y.y.y.y.y.y.y.y.e.n   . d ' ..[ [ [ [ [ [ [ [ [ [ { [ ",
"[ [ [ [ [ [ [ [ [ [ [ [ ] | ..<   x y.y.y.t.y.y.y.y.y.y.y.y.y.y.y.t.y.y.y.y.y.y.y.y.y.y.y.y.y.y.y.y.t.y.t.y.b   , ..} ] [ [ [ [ [ { [ [ [ [ [ [ ",
"{ [ [ [ [ [ [ [ [ [ [ { [ ] | i   3 t.y.y.y.y.t.y.t.y.y.y.y.y.y.y.y.y.y.y.y.y.y.y.y.y.y.y.y.t.y.t.y.y.y.y.t.5   u  .] [ [ [ [ [ [ [ [ [ { [ [ [ ",
"[ [ [ [ [ [ { [ [ [ [ [ [ [ ..G   . 8.y.y.y.y.y.y.y.y.y.t.r.w.0.8.8.6.6.6.6.6.8.0.w.e.r.y.y.y.y.y.y.y.y.y.0.+   k ..] [ [ [ [ [ [ { [ [ [ [ [ [ ",
"[ [ { [ [ [ [ [ [ [ [ [ [ ] ..U     >.y.r.8.:.$.S M z 8 3 % $ . .             . . $ % 3 7 p n Z @.-.3.e.y.1.    I ..] [ [ [ [ [ [ [ [ [ [ [ [ [ ",
"[ [ [ [ [ { [ [ [ { [ [ [ [ | ^ .   c m 3 .                                                           % z z     ~  .[ [ { [ [ [ [ [ [ [ [ [ { [ ",
"[ { [ [ [ [ [ [ [ [ [ [ [ [ { ' #           . 3 0 c C F @.%.-.:.>.>.2.2.2.1.>.>.:.-.%.@.F C n 0 3 .           @ ` { [ [ [ [ [ [ [ [ [ { [ [ [ { ",
"[ [ [ [ { [ [ { [ [ [ [ [ [ [ | 2   $ V $.1.8.r.y.y.y.y.y.y.y.y.y.y.y.y.y.y.y.y.y.y.y.y.y.y.y.y.r.0.1.$.C $   , | [ [ [ [ [ { [ [ [ [ [ [ [ [ [ ",
"[ [ [ [ [ [ [ [ [ [ [ [ [ [ } ' &   V y.t.y.y.y.t.t.t.t.y.y.y.y.y.y.y.y.y.y.y.y.y.y.y.y.t.t.t.t.y.y.y.y.y.Z   # ' } [ [ [ [ [ [ { [ [ [ [ { [ [ ",
"[ [ [ { [ [ [ [ [ [ [ [ [ [ ..E     -.y.t.y.y.y.y.y.y.y.y.r.w.0.8.8.6.6.6.6.8.8.0.e.r.t.y.y.y.y.y.y.y.t.y.-.    T  .[ { [ [ [ [ [ [ [ [ [ [ [ [ ",
"[ [ [ { [ [ [ [ [ [ [ [ [ ] ..k   $ w.y.y.0.1.%.F N x 9 5 * % o . . .     . . . o % * 5 8 z M F %.<.0.t.y.0.+   j ..] [ [ [ [ [ { [ [ [ [ [ [ [ ",
"[ [ [ [ [ [ [ [ [ [ [ [ [ [  .q   8 =.m 6 o                                                         . 5 n %.5   2  .[ [ [ [ [ [ [ [ [ [ { [ [ { ",
"[ [ [ [ { [ [ { [ [ [ [ [ } _ X                 . % 6 l m C F @.$.%.%.=.%.=.%.#.+.F A m z 7 % .             .   X ( | [ [ [ [ [ [ [ [ { [ [ [ [ ",
"[ { [ [ [ [ [ [ [ [ [ [ [  .U         . * c o.;.6.e.y.y.y.y.y.y.y.y.y.y.y.y.y.y.y.y.y.y.y.y.r.7.:.o.n 3           U ..] [ [ [ [ [ [ [ [ [ [ [ [ ",
"[ [ [ [ [ { [ [ [ [ [ [ ] ..f     7 P 1.r.y.y.y.y.y.y.y.y.t.y.t.y.t.y.t.y.t.y.t.t.y.t.y.y.y.y.y.y.y.y.t.3.#.0     d ..] } [ [ [ [ [ [ [ [ [ [ [ ",
"[ [ [ { [ [ [ [ [ [ [ [ [ [ ;     M 7.t.y.y.y.y.y.y.y.y.t.y.t.y.t.y.t.y.t.y.t.y.t.t.y.t.y.y.y.y.y.y.y.y.r.2.M     ; } [ [ [ [ [ { [ [ [ [ [ { [ ",
"[ [ [ [ [ [ [ [ [ [ [ [ [ [ t         % x F -.6.e.t.y.y.y.y.y.y.y.y.y.y.y.y.y.y.t.t.y.y.y.y.t.0.2.%.A 0 +         2 ] [ [ [ [ [ [ [ [ [ [ [ [ [ ",
"{ [ [ [ [ [ [ [ [ [ [ [ [ } | U r +             $ 4 0 n V S o.@.$.%.*.*.=.&.%.$.#.P A M x 8 * .             . 2 K [ } [ [ [ [ [ [ [ [ { [ [ [ [ ",
"[ [ [ [ [ [ [ [ [ [ [ [ { [ [ | .._ U h w - .                                                     . # 2 d P /  ...[ [ [ [ [ [ [ [ [ [ [ [ [ [ [ ",
"[ [ [ [ { [ [ [ { [ [ [ [ [ [ [ [ } ....| ] ^ T K k s r 2 < - & # @ + + + + + # # - > 2 r i h H U ~ ` | ....| [ [ [ [ [ [ [ [ [ [ [ [ [ [ { [ [ ",
"[ [ { [ [ [ [ [ [ [ [ [ [ [ [ [ [ [ [ ] [ [ | | ......| | | [ ' ' _ _ _ ( ( _ ` ' ] } |  .........| } [ ] [ ] [ [ [ [ { [ [ [ [ [ [ [ [ [ [ [ [ ",
"[ [ [ [ [ [ [ { [ [ [ { [ [ [ [ [ [ [ [ [ [ [ [ [ ] [ [ [ [ { } { { | } | | | } } } [ [ [ [ ] [ [ ] [ [ [ [ [ [ [ [ [ [ [ [ [ [ [ [ [ { [ [ { [ ",
"[ [ [ [ [ [ [ [ [ [ [ [ [ [ [ { [ [ [ [ [ [ [ [ [ [ [ [ [ [ [ [ [ [ [ ] [ [ [ [ [ [ [ [ [ [ [ [ [ [ [ { [ [ [ [ [ [ [ [ [ [ [ [ [ [ [ { [ [ { [ ",
"[ [ [ { [ { [ [ [ [ [ [ [ [ [ [ [ [ [ [ [ [ { [ [ [ [ [ [ [ [ [ [ [ [ [ [ [ [ [ [ { [ [ [ [ [ [ [ [ [ [ [ [ [ [ [ { [ [ [ [ { [ [ [ [ [ [ [ [ [ ",
"[ { [ [ [ [ [ [ [ { [ [ [ [ [ [ [ [ [ [ [ [ [ [ [ [ [ [ [ [ [ [ [ [ [ [ [ [ [ [ [ [ [ [ [ [ [ [ [ [ [ [ [ [ [ [ [ [ [ [ [ [ [ [ [ [ [ [ [ { [ [ ",
"[ [ [ [ [ [ { [ [ [ [ [ [ { [ [ [ [ [ [ [ [ [ [ [ [ [ [ [ [ [ [ [ [ [ [ [ [ [ [ [ [ [ { [ [ { [ [ { [ [ [ [ [ [ [ [ [ { [ [ [ [ [ { [ [ [ [ [ [ "
};
