/* XPM */
static char *kll__[] = {
/* columns rows colors chars-per-pixel */
"80 80 135 2",
"   c #00A800950083",
".  c #086D06EA051E",
"X  c #0CD909FF0697",
"o  c #0C450BCE0B41",
"O  c #10270C050710",
"+  c #11EC0DE60910",
"@  c #138310550C87",
"#  c #1AAA14050C0B",
"$  c #13A5134212CA",
"%  c #17B0175316E6",
"&  c #190E17F416A3",
"*  c #1C271BB31B29",
"=  c #20B818630E65",
"-  c #23C91B2710CA",
";  c #285A1EA312F7",
":  c #2D2E21E41459",
">  c #20371FCA1F47",
",  c #313924EC1627",
"<  c #3615284817B7",
"1  c #3B342C301A2C",
"2  c #23CE235722C8",
"3  c #280C278A26EE",
"4  c #287027F82766",
"5  c #2CFB2C642BAF",
"6  c #313030602F67",
"7  c #345533CF3330",
"8  c #380437233614",
"9  c #38FA3837374E",
"0  c #3D403CAC3BFB",
"q  c #452A33831E52",
"w  c #4A23376320E3",
"e  c #4DA639E4222E",
"r  c #52FB3DE32493",
"t  c #569A408E2618",
"y  c #586341D326BF",
"u  c #5C2144A42874",
"i  c #40793FF43F55",
"p  c #600C47872A1B",
"a  c #63F54A7A2BE7",
"s  c #69894E972E41",
"d  c #6E4A52343080",
"f  c #720454E531F4",
"g  c #774B58D8344C",
"h  c #7B745BF23622",
"j  c #7FA05F0637E9",
"k  c #43C64331427F",
"l  c #4D194C7E4BC3",
"z  c #505B4FA04EC3",
"x  c #53F65352528C",
"c  c #57DC57205641",
"v  c #58F858415768",
"b  c #5B1F5A8759CF",
"n  c #64EE644B6387",
"m  c #683667B06713",
"M  c #6C686BD26B1F",
"N  c #711C70866FD1",
"B  c #74E474467389",
"V  c #785D77C3770A",
"C  c #78C878247760",
"Z  c #7CDD7C447B8D",
"A  c #80175F623824",
"S  c #86A764473B08",
"D  c #8A5267023CA2",
"F  c #8DB669893E1F",
"G  c #90966BA03F45",
"H  c #94B26EBD4131",
"J  c #972A70944246",
"K  c #9C2E74504477",
"L  c #A10477EB4699",
"P  c #A2EF7955476A",
"I  c #A6A17C17490B",
"U  c #A9577E1B4A3A",
"Y  c #AD2E80F54BE6",
"T  c #B2D4852C4E62",
"R  c #B67187E04FFE",
"E  c #B70F8851503C",
"W  c #BAE68B2C51E7",
"Q  c #811E806D7F99",
"!  c #C0F58FB25494",
"~  c #C476924D561D",
"^  c #CA11967A5893",
"/  c #CE8799CD5A87",
"(  c #D4429E115D09",
")  c #D7EAA0CA5EA3",
"_  c #D949A1CF5F3D",
"`  c #DD50A4D76105",
"'  c #E13CA7BB62B9",
"]  c #E785AC686579",
"[  c #EBCEAF99675A",
"{  c #ECE4B06867D4",
"}  c #EEADB1BD689D",
"|  c #F3F1B5A86AEB",
" . c #F804B8B26CB5",
".. c #FB20BB026E11",
"X. c #FFFFBFD470E8",
"o. c #FFFFC5227407",
"O. c #FFFFC8A37617",
"+. c #83DD8343828A",
"@. c #88DD884A8799",
"#. c #8D3A8CA48BF0",
"$. c #907B8FF18F4A",
"%. c #94CE94369380",
"&. c #986097D19725",
"*. c #991C989097E8",
"=. c #9BEA9B509A97",
"-. c #A14BA0B9A009",
";. c #A517A484A3D3",
":. c #A83FA7B1A708",
">. c #A91CA888A7D5",
",. c #AD68ACCDAC12",
"<. c #B0A8AFFEAF31",
"1. c #B138B0A4AFF3",
"2. c #B4F6B45AB39F",
"3. c #B91BB87FB7C4",
"4. c #BC1ABB94BAF2",
"5. c #C05CBFC9BF1A",
"6. c #C57BC4FBC461",
"7. c #C85DC7D6C734",
"8. c #C948C8CCC839",
"9. c #CC60CBE0CB45",
"0. c #D06ECFFECF77",
"q. c #D138D0C6D03C",
"w. c #D4DCD464D3D4",
"e. c #D880D804D771",
"r. c #D8DBD876D7FC",
"t. c #DCE2DC79DBFA",
"y. c #E0C7E057DFC9",
"u. c #E10FE0A3E022",
"i. c #E587E522E4A9",
"p. c #E88FE82CE7B7",
"a. c #ECB8EC5EEBF3",
"s. c #F110F0BFF05E",
"d. c #F52EF4F8F4B8",
"f. c #F8BCF86FF813",
"g. c #FF37FF36FF34",
/* pixels */
"[ [ [ [ [ { [ [ [ [ { [ [ [ [ [ [ [ [ [ [ [ [ [ [ [ { [ [ [ [ [ [ [ [ [ { [ [ [ [ [ [ [ [ [ [ [ [ [ [ [ [ [ [ [ [ [ [ [ [ [ [ [ [ [ [ [ [ [ [ [ { [ [ [ [ [ [ [ ",
"[ [ [ [ [ [ [ [ [ [ [ [ [ [ { [ [ { [ [ [ { [ [ [ [ [ [ [ [ { [ [ [ [ [ [ [ [ [ [ [ [ [ [ [ [ [ [ [ [ [ [ [ [ { [ [ [ [ { [ [ [ [ [ { [ [ [ [ [ [ [ [ [ { [ [ [ ",
"[ [ [ [ [ [ [ { { [ [ [ [ [ [ [ [ [ [ [ [ [ [ { { [ [ [ [ [ [ [ [ [ [ [ [ [ [ { [ [ [ [ [ [ [ [ [ [ [ [ [ [ [ [ [ [ { [ [ [ [ [ [ [ [ [ [ { [ [ [ [ [ [ [ [ [ [ ",
"[ { [ [ [ [ [ [ [ [ [ [ [ [ [ [ [ [ [ [ [ [ [ [ [ [ [ [ [ [ { [ [ { [ [ [ [ [ [ [ [ [ [ [ [ [ [ { [ [ [ { [ [ [ [ [ [ [ [ [ [ { [ { [ [ [ [ [ [ [ [ [ { [ [ [ [ ",
"[ [ { [ [ [ [ [ [ [ [ [ { [ [ [ [ [ [ { [ [ [ [ [ [ [ [ [ { [ [ [ [ [ [ [ [ [ [ ] [ [ [ [ [ [ [ [ [ [ [ [ [ [ [ [ [ [ [ [ [ { [ [ { [ [ [ [ [ [ [ [ [ [ [ [ [ { ",
"[ [ [ [ [ [ [ [ [ [ [ [ [ [ [ [ [ [ [ [ [ [ [ [ [ [ [ [ [ [ [ [ [ [ [ [ [ { [  . .[ [ [ [ [ [ [ [ [ [ [ [ { [ [ [ [ { [ [ [ [ [ [ [ [ [ [ { [ [ { [ { [ [ [ [ [ ",
"[ [ [ [ [ [ { [ [ { [ { [ [ [ [ { [ [ [ { [ [ { [ { [ [ [ [ [ [ [ [ [ [ [ [ } E E | [ [ [ [ [ [ [ [ [ [ [ [ [ { [ [ [ [ [ { [ [ [ [ [ { [ [ [ [ [ [ [ [ [ [ [ [ ",
"{ [ [ [ [ [ [ [ [ [ [ [ [ [ [ { [ [ [ [ [ [ [ [ [ [ [ [ [ [ [ { [ [ [ [ [  .U     T  .[ [ [ [ [ [ [ { [ [ [ [ [ [ [ [ [ [ [ [ [ [ [ [ [ [ [ [ [ [ [ [ [ [ { [ [ ",
"[ [ [ [ [ [ [ [ [ [ [ { [ [ [ [ [ [ [ [ { [ [ [ [ [ [ { [ [ [ [ [ [ [ [ [ ..D     H ..] [ [ [ [ [ [ [ [ [ [ [ { { [ [ [ [ { [ [ [ [ { [ [ [ { [ { [ [ [ [ [ [ [ ",
"[ [ [ { { [ [ [ [ [ [ [ [ [ [ [ [ [ [ [ [ [ [ [ [ [ [ [ [ [ [ [ [ [ [ ] '  .D     H ..' ] [ [ [ [ { [ [ [ [ [ [ [ [ [ [ [ [ [ [ [ [ [ [ [ [ [ [ [ [ [ [ [ [ { [ ",
"[ { [ [ [ [ [ [ [ [ [ [ [ [ [ { [ { [ [ [ [ [ [ [ [ [ [ { [ [ [ [ [  .....O.H     L O. .....[ [ [ [ [ [ [ [ [ [ [ [ [ [ [ [ [ [ [ [ { [ [ [ [ [ [ [ [ [ [ [ [ [ ",
"[ [ [ [ [ [ { [ [ { [ [ [ [ [ [ [ [ [ [ [ [ { [ [ { [ [ [ [ [ [ [ | L u p s 1     1 s p u J | [ [ [ [ [ [ { [ [ [ [ [ { [ { [ [ [ [ [ [ { [ [ [ [ [ [ { [ [ [ [ ",
"[ [ [ [ [ [ [ [ [ [ [ { [ [ [ [ [ [ [ [ { [ [ [ [ [ [ [ [ [ [ [ { ' #                     + _ | [ [ [ [ [ { [ [ [ { [ [ [ [ [ [ [ [ [ [ [ [ { [ [ { [ [ [ [ [ [ ",
"[ [ { [ [ { [ [ [ [ [ [ [ { [ [ [ [ { [ [ [ [ [ [ [ [ [ [ { [ [ [ } e . O O .       X X . q [ [ [ [ [ [ [ [ [ [ [ [ [ [ [ [ [ { { [ [ [ [ [ [ [ [ [ [ [ [ [ [ { ",
"[ [ [ [ [ [ [ [ [ [ [ [ [ [ [ [ [ [ [ [ [ [ [ [ [ [ { [ [ [ [ [ [ } [ ( ( ] j     j ' ( ( [ { [ { [ [ [ [ [ { [ [ [ [ [ [ [ [ [ [ [ [ [ [ [ [ [ [ { [ [ [ [ [ [ ",
"[ [ [ [ [ [ [ [ [ { [ [ [ { [ [ [ { [ [ [ [ { [ [ [ [ [ [ [ [ [ [ [ [ | } X.F     H X.{ | [ [ [ [ [ [ [ [ [ [ [ [ [ [ [ { [ [ [ [ [ [ [ { [ [ [ [ [ [ [ [ { [ [ ",
"{ [ [ [ [ { [ [ [ [ [ [ [ [ [ [ [ { [ [ [ [ { [ [ [ [ [ [ [ [ { [ [ [ [ ] ..D     F ..] [ [ [ [ [ [ [ [ [ [ { [ [ [ [ { [ [ [ [ [ [ [ [ [ [ [ [ [ [ [ [ [ { [ [ ",
"[ [ [ [ [ [ [ [ [ [ [ { [ [ [ [ [ [ [ [ [ [ [ [ [ [ [ [ [ [ [ [ [ [ [ [ ] ..D     F  .] [ [ [ [ [ [ { [ [ [ [ [ [ [ [ [ [ [ [ [ [ [ [ [ [ [ [ [ [ [ [ [ [ [ [ [ ",
"[ [ [ [ [ { [ [ [ [ [ [ [ { [ [ [ [ [ [ [ { [ [ [ [ [ [ [ [ [ [ [ [ [ ] ] o.K     P o.] [ [ [ [ [ [ [ [ [ [ [ [ [ [ [ [ [ [ [ { [ [ [ [ [ [ [ [ [ [ [ [ [ [ [ { ",
"[ [ [ { [ [ [ [ [ { [ [ [ [ [ [ [ [ [ { [ [ [ [ [ [ [ [ { [ [ [ [ [ ]  .} I r # # r P [  .] [ [ [ [ [ [ [ [ [ [ [ { [ [ [ [ [ [ [ [ [ [ [ [ [ [ [ { [ [ [ [ [ [ ",
"[ { [ [ [ [ [ [ [ [ [ [ [ [ [ [ [ [ [ [ [ [ [ [ [ [ [ [ [ [ [ [ [ ] ..W :             ; W ..[ [ [ { [ [ [ [ [ [ [ [ [ [ [ [ [ [ [ [ [ [ [ [ [ [ [ [ { [ [ [ [ [ ",
"[ [ [ [ [ [ [ { [ [ [ [ [ [ [ [ [ [ [ [ [ [ [ { [ [ [ [ [ [ [ [ [  .Y         $ o         U ..] [ [ [ [ [ [ [ [ [ [ [ [ [ { [ [ [ [ [ [ [ [ [ [ [ [ [ [ [ [ [ [ ",
"[ [ [ [ [ [ [ [ [ [ [ [ [ [ [ [ [ ] [ ] ] ] [ [ [ [ [ [ [ [ [ [ | ^ X   o +.w.a.p.6.l     X / | [ [ [ [ [ [ [ [ [ ] [ [ ] ] [ [ [ [ [ [ [ [ [ [ [ [ [ [ [ [ { [ ",
"[ [ [ [ { [ [ [ [ [ [ [ [ [ ] [ |  ......... .| [ ] ] [ [ [ [ ]  .r     2.g.g.g.g.g.g.B     r ..[ [ [ [ [ ] ] { | .......... .| [ [ [ [ [ [ [ [ { [ [ [ [ [ [ [ ",
"[ [ [ [ [ [ [ [ [ [ [ [ ] } ..| ( T H S S G U / [ ....} [ [ ] | / X   l g.f.g.g.g.g.g.g.7   + ( | ] ] [ } .. .] ~ P D h h D I / } ..| ] [ [ [ [ [ [ [ [ [ [ [ [ ",
"[ { [ [ [ [ [ [ [ { [ [ ..' F 1 X             . ; u K ` .. .]  .I     #.g.g.g.g.g.g.f.g.#.    Y | [  ...` K r -                 , A ` ..[ [ [ [ [ [ [ { { [ [ [ ",
"[ [ [ [ [ [ [ [ [ [ [  .J #                           @ a E [ O.H     ;.g.f.g.g.g.g.g.g.,.    K O.] Y t +                           + F  .{ [ [ [ [ [ [ [ [ { [ ",
"[ { [ [ [ [ [ [ [ } } t         5 m %.>.<.;.#.m 9 o         : J H     #.g.g.g.g.g.g.f.g.%.    J F -         @ 0 M %.;.,.:.%.M 5         e [ } [ [ { [ [ [ [ [ [ ",
"[ [ { [ [ [ [ [ [ } q   .   l 8.g.g.g.g.g.g.g.g.g.i.;.l .       +     l g.g.g.g.g.g.g.g.l   . +       o c ,.a.g.g.g.g.g.g.g.g.g.8.z       q | [ [ [ [ [ [ [ [ [ ",
"[ [ [ [ [ [ [ ]  .y     . ;.g.g.g.f.f.g.f.g.f.g.g.g.g.g.t.M o         o t.g.g.g.g.g.g.t.o         + V i.g.g.g.g.g.f.g.g.g.f.f.g.g.g.;.o     u ..[ [ [ [ [ { [ [ ",
"[ [ [ [ [ [ ] ..F     . 3.g.g.g.g.g.g.g.g.g.g.g.g.g.f.g.g.g.i.z   . .   #.g.g.g.g.g.g.#.  .     c i.g.g.g.f.g.g.g.g.g.g.g.g.g.g.g.f.g.4..     H ..[ [ [ [ [ [ [ ",
"{ [ [ [ [ [ | ( O     %.g.f.g.g.g.g.g.g.g.g.g.g.g.g.g.g.g.f.g.g.%.      7 g.g.g.g.g.g.5       =.g.g.g.g.g.g.g.g.g.g.g.g.g.g.g.g.g.g.f.g.=.    + ) } [ [ [ [ [ [ ",
"[ [ [ [ [ ] ..a     k g.g.g.g.g.g.g.g.g.g.g.g.g.g.g.g.g.g.g.g.f.g.=.  .   ,.g.g.g.g.,.  .   ;.g.f.g.g.g.g.g.g.g.g.g.g.g.g.g.g.g.g.g.g.g.g.k     d ..] [ [ [ [ [ ",
"[ [ [ [ [ | ) +     2.g.g.g.g.g.g.g.g.g.g.g.g.g.g.g.g.g.g.g.g.g.f.g.Z     k g.g.g.g.9     Z g.f.g.g.g.g.g.g.g.g.g.g.g.g.g.g.g.g.g.g.g.g.g.2.    # ` } [ [ [ [ [ ",
"[ [ [ [ ] ..J     * s.g.g.g.g.g.g.g.g.g.g.g.g.g.g.g.g.g.g.g.g.g.g.g.g.0     3.g.g.2.    k g.g.g.g.g.g.g.g.g.g.g.g.g.g.g.g.g.g.g.g.g.g.g.g.d.*     I ..] [ [ [ [ ",
"[ [ [ [ ] ..s     k g.g.g.g.g.g.g.g.g.g.g.g.g.g.g.g.g.g.g.g.g.g.g.g.g.8..   z g.g.l   . 9.g.g.g.g.g.g.g.g.g.g.g.g.g.g.g.g.g.g.g.g.g.g.g.g.g.k     f ..] [ [ [ [ ",
"[ [ [ [ ] ..r     n g.f.g.g.g.g.g.g.g.g.g.g.g.g.g.g.g.g.g.g.g.g.g.g.g.g.n   o i.i.o   m g.g.g.g.g.g.g.g.g.g.g.g.g.g.g.g.g.g.g.g.g.g.g.g.g.g.n     y ..] [ [ [ [ ",
"[ { [ [ [ ..r     M g.g.g.g.g.g.g.g.g.g.g.g.g.g.g.g.g.g.g.g.g.g.g.g.g.g.q..   ,.;.  o w.g.g.g.g.g.g.g.g.g.g.g.g.g.g.g.g.g.g.g.g.g.g.g.g.f.g.M     r ..[ [ [ [ [ ",
"[ [ [ [ ] ..s     n g.g.g.g.g.g.g.g.g.g.g.g.g.g.g.g.g.g.g.g.g.g.g.g.g.g.g.l   b v   x g.g.g.g.g.g.g.g.g.g.g.g.g.g.g.g.g.g.g.g.g.g.g.g.g.g.g.m     s ..] [ [ [ [ ",
"[ { [ [ ] ..S     l g.g.g.g.g.g.g.g.g.g.g.g.g.g.g.g.g.g.g.g.g.g.g.g.g.g.g.;.  o o   ;.g.f.g.g.g.g.g.g.g.g.g.g.g.g.g.g.g.g.g.g.g.g.g.g.g.g.g.l     D ..[ [ [ [ [ ",
"[ [ [ { [  .T     2 f.g.g.g.g.g.g.g.g.g.g.g.g.g.g.g.g.g.g.g.g.g.g.g.g.g.g.i.o     o a.g.g.g.g.g.g.g.g.g.g.g.g.g.g.g.g.g.g.g.g.g.g.g.g.g.g.f.2     E  .] [ [ [ [ ",
"[ [ [ [ [ { _ @     8.g.g.g.g.g.g.g.g.g.g.g.g.g.g.g.g.g.g.g.g.g.g.g.g.g.g.g.9     k g.g.g.g.g.g.g.g.g.g.g.g.g.g.g.g.g.g.g.g.g.g.g.g.g.g.g.8.    # ' [ [ [ [ { [ ",
"[ [ [ [ [ ] ..y     n g.f.g.g.g.g.g.g.g.g.g.g.g.g.g.g.g.g.g.g.g.g.g.g.g.g.g.n     N g.g.g.g.g.g.g.g.g.g.g.g.g.g.g.g.g.g.g.g.g.g.g.g.g.g.g.m     p ..[ [ [ [ [ [ ",
"[ { [ [ [ ] ..T       6.g.g.g.g.g.g.g.g.g.g.g.g.g.g.g.g.g.g.g.g.g.g.g.g.f.g.Z     #.g.f.g.g.g.g.g.g.g.g.g.g.g.g.g.g.g.g.g.g.g.g.g.g.f.g.5.      W  .[ [ [ [ [ [ ",
"[ [ [ [ [ [ [  .e     2 i.g.f.g.g.g.g.g.g.g.g.g.g.g.g.g.g.g.g.g.g.g.g.g.f.g.#.    =.g.f.g.g.g.g.g.g.g.g.g.g.g.g.g.g.g.g.g.g.g.g.g.f.g.t.*     y ..] [ [ [ [ [ [ ",
"[ [ [ [ [ [ [ } / +     5 i.g.g.g.g.g.g.g.g.g.g.f.g.g.f.g.g.g.g.g.g.g.g.f.g.&.    :.g.g.g.g.g.g.g.g.g.g.g.f.g.f.g.g.g.g.g.g.g.g.g.g.i.2     # ) | [ [ [ [ [ [ { ",
"{ [ [ { [ [ [ ] ..I       2 w.g.f.g.g.g.f.g.g.g.g.g.g.g.g.g.f.a.i.w.q.7.4.8.B     Z 7.4.7.w.w.i.d.f.g.g.g.g.g.g.g.g.g.f.g.g.g.f.g.8.*       T ..] [ [ [ [ [ [ [ ",
"[ [ [ [ [ [ [ [ ] ..K   .   o 1.g.g.g.g.g.g.f.t.3.&.V v k 5 * % o .           .             . o % 2 7 l n +.;.6.i.g.g.g.g.g.g.g.;..     . Y ..[ [ [ [ [ [ { [ [ ",
"[ [ [ { [ [ [ [ [ [ ..U X       Q g.f.7.+.l 2 .                                                                 o 5 x @.6.d.g.B   .   + T ..] [ [ [ [ [ [ { [ [ ",
"[ [ [ [ [ [ [ { [ [ ] ..! #   .   0 2                 $ 2 9 l v M V +.#.%.=.=.=.=.=.=.%.#.+.V M v l 9 2 % .               2 7       = ^ ..[ [ [ [ [ [ [ [ [ [ [ ",
"[ [ [ [ [ [ [ [ [ [ [ ]  .( <             % 0 m %.3.w.a.f.g.g.g.g.g.g.g.g.g.g.g.g.g.g.g.g.g.g.g.g.g.g.g.a.w.3.&.M k *             q `  .] [ [ [ [ [ [ [ [ [ [ { ",
"{ [ [ [ [ { [ [ [ [ [ [ [ | | S @     k 8.a.g.g.g.g.g.g.g.g.g.g.g.f.g.f.g.f.f.g.f.g.g.f.g.f.f.g.f.g.g.g.g.g.g.g.g.g.s.w.l     # H | | [ [ [ [ [ [ { [ [ [ [ [ [ ",
"[ [ [ [ [ [ [ [ [ [ [ [ [ [ ] o.T     b g.f.g.g.f.g.g.g.g.g.g.g.g.g.g.g.g.g.g.g.g.g.g.g.g.g.g.g.g.g.g.g.g.f.f.g.f.g.f.g.n     E o.] ] [ [ [ [ [ [ [ [ { [ [ [ [ ",
"[ [ [ [ [ { [ [ [ [ [ [ [ [ ] [ ` @   6 g.g.g.g.g.g.g.g.g.g.g.f.f.g.f.g.g.f.g.f.g.f.f.g.g.f.g.f.f.g.g.g.g.g.g.g.g.g.g.g.8   + ` [ [ [ [ [ [ [ [ [ [ [ [ [ [ [ [ ",
"[ [ { [ [ [ [ { [ [ [ [ [ [ [ [ } ,   % a.g.f.g.f.g.g.g.g.g.g.g.g.g.g.g.g.g.g.g.g.g.g.g.g.g.g.g.g.g.g.g.g.g.g.g.g.f.g.d.&   : } [ [ [ [ [ [ [ [ [ [ [ [ [ [ { [ ",
"[ [ [ [ [ [ [ [ [ [ [ [ [ [ [ ] ..r     9.g.g.g.g.g.g.d.t.9.4.,.=.#.+.C N M m m m M M M V Z @.&.;.2.8.t.a.g.g.g.g.g.g.w.    r ..[ [ { [ [ [ [ [ { [ [ [ [ [ [ [ ",
"[ [ [ [ [ [ [ { [ [ [ [ [ [ [ [ ..j     :.g.7.=.B l 7 * o                                             . % 2 k m #.3.d.,.    g ..] [ [ [ [ [ [ [ { [ [ [ [ [ [ [ ",
"[ { [ [ [ [ [ [ [ [ [ [ [ { [ [ ..I     2 *                         . o o $ $ $ $ $ o o o .                         $ *     K ..] [ [ [ [ [ [ [ [ [ [ [ [ [ { [ ",
"[ [ [ [ [ [ [ [ [ [ [ [ [ [ [ ]  .^             o 2 i v B #.;.2.6.9.r.y.i.i.a.a.a.a.i.i.t.t.9.6.2.;.#.V v k 2 $             ~  .[ [ [ [ [ [ [ [ [ [ [ [ [ [ [ [ ",
"[ [ [ [ { [ [ [ [ [ [ [ [ [ [ [ } ' @   o m *.6.i.f.g.g.g.g.g.g.g.g.g.g.g.g.g.g.g.g.g.g.g.g.g.g.g.g.g.g.g.g.f.i.7.=.m o   O ` } [ [ [ [ [ [ [ [ [ [ { [ [ [ [ [ ",
"[ [ [ [ [ [ { [ [ [ [ [ [ [ [ [  .~ .   x g.g.g.g.g.g.f.f.f.f.f.f.f.g.g.g.g.g.g.g.g.g.g.g.g.g.f.f.f.f.f.f.g.g.g.g.f.g.v     ~ | [ [ [ [ [ [ { [ [ [ { [ [ [ [ [ ",
"{ [ [ [ [ [ [ [ [ [ [ [ [ [ [ ] ..F     %.g.d.f.g.g.g.g.g.g.g.g.g.g.g.g.g.f.f.f.f.f.f.g.g.g.g.g.g.g.g.g.g.g.g.g.f.f.g.=.    S ..] [ [ [ [ [ [ [ [ [ [ [ [ [ [ { ",
"[ [ [ [ [ [ { [ [ [ [ [ [ [ [ ] ..e     w.g.g.g.g.a.w.3.=.@.M b l 0 8 5 3 2 2 2 2 2 2 2 5 8 0 l v M +.=.2.w.a.g.g.g.g.w.    w  .[ [ [ [ [ [ [ [ [ { [ [ [ [ [ [ ",
"[ [ { [ [ [ [ [ [ [ [ [ [ [ [ { ' #   7 a.6.#.v 7 %                                                         $ 5 x @.4.a.5   # ' } [ [ { [ [ [ [ [ [ [ [ [ { [ [ ",
"[ [ { [ [ [ [ [ [ [ { [ [ [ [  .T     $ *                         o & * 2 5 5 5 5 5 5 2 * % o .                       % @     T  .[ [ [ [ [ [ [ [ [ [ [ [ [ [ [ ",
"[ [ [ [ [ [ { [ [ [ [ [ [ [ ] ..h                 $ 7 c C *.2.7.t.i.a.f.f.g.g.g.g.g.g.g.f.d.a.t.9.2.=.Z b 9 %                 g ..] [ [ [ [ [ [ [ { [ [ [ { [ [ ",
"{ [ [ [ [ [ [ [ [ [ [ [ [ [ [  .q         $ z $.7.a.g.g.g.g.g.g.g.g.g.g.g.g.g.g.g.g.g.g.g.g.g.g.g.g.g.g.g.g.a.9.=.v *         1 | [ [ [ [ [ [ [ [ [ [ [ [ [ [ { ",
"[ [ [ [ [ [ [ [ [ [ [ [ { [ | ( X     b 7.f.g.g.g.g.g.f.f.g.f.g.g.g.g.g.g.g.g.g.g.g.g.g.g.g.g.g.g.f.g.f.f.g.g.g.g.g.g.w.N .   o ) | [ [ [ [ [ [ [ [ [ [ [ [ [ [ ",
"[ [ [ [ [ [ [ [ [ [ [ [ [ ] ..K       z >.t.f.g.g.g.g.g.g.g.g.f.f.g.f.g.f.g.g.f.g.f.g.f.g.f.f.g.f.g.g.g.g.g.g.g.g.f.9.=.l .     J ..[ [ [ [ [ [ [ [ [ { [ [ [ [ ",
"[ [ [ [ { [ [ [ [ [ [ [ [ ]  .W #         . 5 b #.2.t.d.g.g.g.g.g.g.g.g.g.g.g.g.g.g.g.g.g.g.g.g.g.g.g.f.i.9.>.Z l *           . U  .] [ [ [ [ [ [ [ [ [ [ [ [ [ ",
"[ { [ { [ [ [ [ [ [ [ [ [ [ [  .[ D ,                 & 5 k v M Z #.&.-.,.,.2.1.2.2.,.;.=.&.@.B n l 8 2 o                 # f (  .[ [ [ [ [ [ [ [ [ [ [ { [ [ { ",
"[ [ [ [ [ [ [ { [ [ [ [ [ [ [ [ { ..} ~ D r ; X                                                                 . # q j E [ ..} [ [ [ [ [ [ [ [ { [ [ [ [ [ [ [ ",
"[ [ [ [ [ [ [ { [ [ [ [ [ [ [ { [ ] [ | ....[ ( T F d r < ; @ o .                               . @ = < w a S U ^ ]  ... .[ ] [ [ [ [ [ [ [ [ [ [ [ [ [ [ [ [ [ ",
"[ [ [ { [ [ [ [ [ [ [ [ [ [ [ [ [ [ [ [ ] ] [ | ........| [ ) ( ~ E Y U L K J H J J J K I Y E ~ ( ) ] } ........| } [ ] [ [ [ [ [ [ [ [ [ [ [ [ { [ [ [ { [ [ [ ",
"[ [ [ [ [ [ [ [ [ [ { [ [ { [ [ [ [ [ [ [ [ [ [ [ ] ] ] [ [ | | |  . ..................... . .| | } } [ ] ] ] [ ] [ [ [ [ { [ [ [ [ [ [ [ { [ [ [ [ [ [ [ [ [ [ ",
"[ [ [ [ { [ [ [ [ [ [ [ [ [ [ [ [ [ [ [ [ [ [ { [ [ [ [ [ [ ] [ ] [ ] [ ] ] ] [ ] [ [ ] ] [ [ [ [ [ [ [ [ [ [ [ [ [ [ [ [ [ [ [ [ [ [ [ [ [ [ [ [ [ [ { [ [ [ { ",
"{ [ [ [ [ [ [ [ [ { [ [ [ [ { [ [ [ [ [ [ [ [ [ [ [ [ [ [ [ [ [ [ [ [ [ [ [ [ [ [ [ [ [ [ [ [ [ [ [ [ [ [ [ [ [ [ [ [ [ [ [ { [ [ [ [ [ [ [ [ [ [ [ [ [ [ [ [ [ ",
"[ [ [ [ [ { [ { [ [ [ [ [ [ [ [ [ [ [ [ [ [ [ [ [ [ [ [ [ [ [ [ [ [ [ [ [ [ [ [ [ [ [ [ [ [ [ [ [ [ [ [ [ [ [ [ [ [ [ [ [ [ [ [ [ [ [ [ [ [ [ [ [ [ { [ [ [ [ [ ",
"[ [ [ [ [ [ [ [ [ [ [ { { [ [ [ [ [ [ [ [ [ [ [ [ [ [ [ [ [ [ [ { [ [ [ [ { [ [ [ [ [ [ [ [ [ [ [ [ [ [ [ [ [ [ [ [ [ [ [ [ [ [ [ [ [ [ [ [ [ [ { [ [ [ [ [ [ [ ",
"[ [ { [ [ [ [ [ [ [ [ [ [ [ [ [ [ [ [ [ [ [ [ [ [ [ [ [ [ [ [ [ [ [ [ [ [ [ [ [ [ [ [ [ [ [ [ [ [ [ [ [ [ [ [ [ [ [ [ [ { [ [ [ [ [ [ [ [ [ [ [ [ [ [ [ [ { [ [ "
};
