/* XPM */
static char *ndd__[] = {
/* columns rows colors chars-per-pixel */
"23 23 204 2",
"   c #000B000B000A",
".  c #00A700780040",
"X  c #014400EA007D",
"o  c #007B007E0081",
"O  c #00F700EE00E4",
"+  c #01BE015D00E7",
"@  c #024C01B70101",
"#  c #02C302070121",
"$  c #021C021D021D",
"%  c #031E03200323",
"&  c #047D00300000",
"*  c #059204830339",
"=  c #06B604DA0295",
"-  c #03CB03C603C1",
";  c #04C6045A03D7",
":  c #071807100707",
">  c #0DD506750000",
",  c #0BB208750481",
"<  c #0818080D0800",
"1  c #0976095D093E",
"2  c #0F040EA00E26",
"3  c #10CF0B0303F1",
"4  c #0FBC0B4F05E8",
"5  c #121F0D1D0700",
"6  c #1F0311AC0165",
"7  c #160B12A10E76",
"8  c #0CEC0EEA115A",
"9  c #18E517281546",
"0  c #17B0179B177E",
"q  c #1D7A19371403",
"w  c #18BB18BC18BD",
"e  c #1B6D1A03184A",
"r  c #1832195C1AC7",
"t  c #1ED01EAF1E87",
"y  c #1FDD15D1098E",
"u  c #1FAD16530AEB",
"i  c #28261A1F0909",
"p  c #2B011F191092",
"a  c #35ED23350C5D",
"s  c #2CE4211012A2",
"d  c #2F77228F12CF",
"f  c #30F9236812DA",
"g  c #3360252513C7",
"h  c #39FC29ED1653",
"j  c #3B752AFD16E3",
"k  c #3C7D2B9316EE",
"l  c #3E6A2E9D1B56",
"z  c #239322D121E5",
"x  c #26AA25BB2498",
"c  c #25DE25FA261C",
"v  c #233D256027FB",
"b  c #278D28552959",
"n  c #290628E428BB",
"m  c #2C1D2BFC2BD5",
"M  c #2D752D0A2C86",
"N  c #31002DA32988",
"B  c #3C4F3194247C",
"V  c #28D72BFA2FCE",
"C  c #30A734F23A5E",
"Z  c #3A7139C538F5",
"A  c #3DA93D013C32",
"S  c #431B2B650E76",
"D  c #4B5C31D812C8",
"F  c #4CBB31440FC0",
"G  c #423331F11E1A",
"H  c #4DC937C91CEF",
"J  c #4FC839C31EF0",
"K  c #5155368F16ED",
"L  c #569239DE16D6",
"P  c #58C0402B222B",
"I  c #5D71438F23F9",
"U  c #65D4499F2734",
"Y  c #6BD249C52038",
"T  c #68D54BCB285B",
"R  c #757151C9266F",
"E  c #7012510B2B2F",
"W  c #7336534C2C5A",
"Q  c #740653E52CB0",
"!  c #790F577D2E85",
"~  c #7FDA59382A12",
"^  c #38243D354401",
"/  c #452D43FD428B",
"(  c #430348234E84",
")  c #4D0D4CE84CBC",
"_  c #5647560F55CB",
"`  c #57445B235FDD",
"'  c #67F567CB6797",
"]  c #68B56C097025",
"[  c #68DB6C99712C",
"{  c #770C770176F4",
"}  c #797A790A787F",
"|  c #7A207A5B7AA3",
" . c #7B237ABE7A42",
".. c #81C45DD231F5",
"X. c #863060E63365",
"o. c #881761753250",
"O. c #8A0763CB3523",
"+. c #8AC66456356D",
"@. c #8CC964C033E4",
"#. c #96666B42369B",
"$. c #93946B1439AB",
"%. c #92D86AD83A07",
"&. c #A4E277313F6F",
"*. c #AAC17BDB42A0",
"=. c #B71082944288",
"-. c #B3BB81EA451F",
";. c #B5D2836945E5",
":. c #BDEB871A4436",
">. c #BD4D882D4757",
",. c #BBC587C64852",
"<. c #BDCF89434922",
"1. c #BE3B8A214A8D",
"2. c #BE7F8A3E4A79",
"3. c #BF5C8ACE4AAC",
"4. c #C3738D584B50",
"5. c #C4948DE14B20",
"6. c #C3BC8DF64C57",
"7. c #C39C8E564D52",
"8. c #C51F8F704DED",
"9. c #C96E91A24D8C",
"0. c #CAE992F04EA2",
"q. c #CA6592CB4EF1",
"w. c #CECB95874FA5",
"e. c #D29496A54D81",
"r. c #CF6495F24FD7",
"t. c #D170976C50A1",
"y. c #D24D980950EF",
"u. c #D255980950E4",
"i. c #D2AB984F5118",
"p. c #D39098F4516E",
"a. c #D3DB992E5192",
"s. c #D3D199875267",
"d. c #D479999C51C6",
"f. c #D49399C75206",
"g. c #D5479A35521F",
"h. c #D5D39A985251",
"j. c #D5409A8F52F0",
"k. c #D6C09B4352AC",
"l. c #D72D9B9252D6",
"z. c #D7919BE75318",
"x. c #D8D79CC7537B",
"c. c #D9F19D9B53F9",
"v. c #DA8A9E105442",
"b. c #DAF59E555458",
"n. c #DB5B9EA95498",
"m. c #DC409F3E54CB",
"M. c #DC4E9F895560",
"N. c #DD4A9F6853E3",
"B. c #DDF9A00E5480",
"V. c #DC829F7B5502",
"C. c #DE1DA0895565",
"Z. c #DDA9A0C8567E",
"A. c #DF34A16155EE",
"S. c #DF8CA1A15612",
"D. c #DF38A2555807",
"F. c #E0E6A2925680",
"G. c #E1D5A3705749",
"H. c #E2FDA41D5763",
"J. c #E322A4385771",
"K. c #E3ADA498579E",
"L. c #E420A518582D",
"P. c #E434A56958C9",
"I. c #E509A5AE585C",
"U. c #E52BA66959D2",
"Y. c #E670A6A858D1",
"T. c #E4FBA6975A5B",
"R. c #E5BAA6CD5A02",
"E. c #E71BA7E05AAF",
"W. c #E7D1A8A75B91",
"Q. c #E96AA8C359DC",
"!. c #EA4BA9515A07",
"~. c #EC1FAAA45ABB",
"^. c #E91EA9B35C4E",
"/. c #EA3AAA625C79",
"(. c #8AE889278702",
"). c #90EB90BA907F",
"_. c #957899C39EFF",
"`. c #A120A146A175",
"'. c #A0F9A3A1A6DE",
"]. c #A357A637A9BA",
"[. c #AF5FAF2BAEEB",
"{. c #B209B197B10D",
"}. c #B9D4B8BFB76D",
"|. c #BD4FBD18BCCE",
" X c #C1F3C195C123",
".X c #C090C232C430",
"XX c #C142C3EEC72F",
"oX c #C834C7B2C712",
"OX c #CAAFC979C801",
"+X c #CBD5CBF9CC25",
"@X c #CA93CB96CCD2",
"#X c #CC4BCCB0CD2C",
"$X c #CCE1CD8ACE58",
"%X c #DAC5DA7ADA1F",
"&X c #DD31DCE3DC83",
"*X c #DE93DE29DDA8",
"=X c #DEB7DF7AE06A",
"-X c #E56BE4EAE44D",
";X c #E5E7E69FE77F",
":X c #FAAAF9F2F910",
">X c #FC1CFC91FCF6",
",X c #FAE8FD18FFC3",
"<X c #FFFFFEF0FDA4",
"1X c gray100",
/* pixels */
"h.h.h.h.h.x.h.i.h.h.i.i.h.h.h.h.h.h.h.h.h.h.h.",
"h.h.h.h.h.9.v.S.i.h.K.v.i.h.h.h.h.h.h.h.h.h.h.",
"h.h.h.i.I.U p -.I.v.E ;.L.h.i.h.h.h.h.h.h.h.h.",
"h.h.h.y.I.Q   * @.o.  f :.e.^.S.i.h.h.h.h.h.h.",
"h.h.h.i.S.&.    0 q     N B F =.^.i.h.k.h.h.h.",
"h.h.h.i.L.$.  z OXn     | ,X_.e Y L.i.k.h.h.h.",
"h.h.h.v.<.4   M t         Z @X:X^ K I.i.h.h.h.",
"h.h.y.L.X.  }.[.              | 1XC R W.i.h.h.",
"h.h.i.~.L ` 1X)   ;   < _ ; ;   {.;X7 >.v.h.h.",
"h.i.v.9.4 e 2         9 |.;     m 1X] F W.i.h.",
"h.i.H.J     %     ;   | ).  ; %   .X=X4 5.v.h.",
"i.L.+.  %       %     / e     -   ' 1XV ~ I.i.",
"h.h.u 8 A         5 ! J   %   %   n 1X[ S ^.i.",
"v.8.  `.|   ;   I r.~.d           < :X'.6 S.h.",
"h.i.u v c (.  E I.!.Q               -X.X> i.h.",
"i.H.$.  b ( i S.L...                *X@X% 9.x.",
"h.h.S.7.#.a *.!.@.                  &X#X  7.x.",
"h.h.i.v.H.I.H.,.,                   %X#X  4.V.",
"h.h.h.h.i.r.G.T   = %   * %   * %   *X#X  <.V.",
"h.h.h.h.h.h.v.f                     XX].  <.V.",
"h.h.h.h.h.h.x.P g j h h h h h h h h G l l 5.x.",
"h.h.h.h.h.h.h.S.S.S.S.S.S.S.S.S.S.S.N.V.S.h.h.",
"h.h.h.h.h.h.h.i.i.h.i.h.i.i.i.i.i.h.i.h.h.h.h."
};
