/* XPM */
static char *ndd__[] = {
/* columns rows colors chars-per-pixel */
"20 20 195 2",
"   c #000500050004",
".  c #008200650041",
"X  c #00F500AB0051",
"o  c #00000000012A",
"O  c #010700FD00F0",
"+  c #020A017900C8",
"@  c #025501A200C7",
"#  c #031F02420134",
"$  c #038002880159",
"%  c #023202340236",
"&  c #02FD029B0223",
"*  c #02FC02EB02D6",
"=  c #056B02A00000",
"-  c #03A702A40168",
";  c #03B203B203B1",
":  c #0502050104FF",
">  c #08A303250000",
",  c #080405CC0310",
"<  c #0A21075203E6",
"1  c #0B24085504E8",
"2  c #085007CC072C",
"3  c #091D085C076F",
"4  c #0C6608F704C6",
"5  c #058D06BB0833",
"6  c #0E640B6F07D4",
"7  c #0B5F0C290D2D",
"8  c #0DE30DD20DBE",
"9  c #0F200F440F71",
"0  c #12B30CD005A7",
"q  c #136E0DA1068D",
"w  c #0D7E0FE112CB",
"e  c #142B1505161C",
"r  c #132F153C17BD",
"t  c #165E17AC1943",
"y  c #1CCE1D241D8C",
"u  c #23A7180209CC",
"i  c #244F1C12121E",
"p  c #21631CA8176A",
"a  c #29AE1E0A0FC2",
"s  c #20291D4419BA",
"d  c #20D61DEC1A5E",
"f  c #2EF821FD1226",
"g  c #257A221E1E04",
"h  c #3923270A10F4",
"j  c #39B127BE12A0",
"k  c #3B822B0616E7",
"l  c #3C092B6E172B",
"z  c #3D0D2C241781",
"x  c #3C202BC317CC",
"c  c #3D852D231925",
"v  c #270427A02860",
"b  c #236627222BB1",
"n  c #2A2729EE29A8",
"m  c #2D742CA12BA0",
"M  c #2A0D2B152C57",
"N  c #2FB92F9E2F7D",
"B  c #28BA2C1F3044",
"V  c #29D82D373155",
"C  c #2BD92E7531A4",
"Z  c #31C930F62FF4",
"A  c #35713513349F",
"S  c #365E36443625",
"D  c #371C37543799",
"F  c #37C237973762",
"G  c #3AA23A8D3A74",
"H  c #44312D7011DA",
"J  c #4C5536EF1CD3",
"K  c #4CFE37AA1DA4",
"L  c #517B35861367",
"P  c #507638851B4E",
"I  c #507B3A301EFC",
"U  c #54A33CC21FE3",
"Y  c #58B5401E221D",
"T  c #5BCF42C2242F",
"R  c #40173FE63FA9",
"E  c #645048D32747",
"W  c #6C3F4A5020E6",
"Q  c #6FC14CC9221D",
"!  c #428D424F4203",
"~  c #4513444C435C",
"^  c #493A490448C1",
"/  c #4DE04DB24D7A",
"(  c #4A374DF05289",
")  c #5B8A5A5C58EC",
"_  c #5F2D5D645B36",
"`  c #5F425EEA5E80",
"'  c #679E63EF5F76",
"]  c #638E646A6576",
"[  c #84B95CE42C49",
"{  c #85315D0E2C13",
"}  c #89C5604E2DB5",
"|  c #9A916A4C2F65",
" . c #8A43641F3599",
".. c #8FF9672B355C",
"X. c #934767383172",
"o. c #931068DE3561",
"O. c #97A46D933A3D",
"+. c #9E5672763CEB",
"@. c #A28B729B381B",
"#. c #A585750D39E6",
"$. c #A12D741E3D21",
"%. c #A0D6744C3DF1",
"&. c #A4EF75AB3BFD",
"*. c #A89177163AB4",
"=. c #A9A477F53B54",
"-. c #B33E7CFA3AC2",
";. c #B7AC829C41DA",
":. c #B26580E24477",
">. c #B50882E345B2",
",. c #BC21865144A7",
"<. c #BA4C86B147B8",
"1. c #BFB0897B4754",
"2. c #BE6B89B1495A",
"3. c #BFF38A0F484C",
"4. c #C2CE8B834822",
"5. c #C0738B244A17",
"6. c #C2BA8CCA4AF7",
"7. c #C3BF8D844B57",
"8. c #C49B8E634C38",
"9. c #C5C28F924D72",
"0. c #C7EF90A54D2B",
"q. c #C91F916A4D6D",
"w. c #CD5B94F05017",
"e. c #CFA996234FF2",
"r. c #D02E96E250F5",
"t. c #D08B96F250A9",
"y. c #D1D797AB50AD",
"u. c #D23F980250F2",
"i. c #D28A981C50CE",
"p. c #D2E998775124",
"a. c #D38898F15170",
"s. c #D414995351A1",
"d. c #D41A997A51EF",
"f. c #D4A399945181",
"g. c #D4BE99D051E7",
"h. c #D53D9A2C5218",
"j. c #D5D49A9A5253",
"k. c #D6FE9B6752B0",
"l. c #D7D69C145327",
"z. c #D84B9C705364",
"x. c #D91F9D0953B5",
"c. c #D9829D4253BA",
"v. c #D9F79D9953EC",
"b. c #DA869DFA5416",
"n. c #DAD29E365440",
"m. c #DBEC9F0154A8",
"M. c #DBAD9F105518",
"N. c #DB889F225567",
"B. c #DCAB9FFD55F0",
"V. c #DD92A03B555B",
"C. c #DE14A13156E4",
"Z. c #E014A2015641",
"A. c #E00AA291578C",
"S. c #DEC7A2335846",
"D. c #E123A2C656AC",
"F. c #E10FA2E15700",
"G. c #E362A45D5775",
"H. c #E0FDA3B658EE",
"J. c #E223A433589E",
"K. c #E3EFA4DB57E0",
"L. c #E447A55B5892",
"P. c #E2AFA4B45911",
"I. c #E355A53C5974",
"U. c #E466A55C586D",
"Y. c #E573A5E45854",
"T. c #E48EA5FB599E",
"R. c #E578A62758E2",
"E. c #E72DA72358FC",
"W. c #E4ECA64A59DC",
"Q. c #E58CA6AA59E6",
"!. c #E65DA7575A6E",
"~. c #E6F2A7BA5A95",
"^. c #E829A8BF5B5D",
"/. c #E8DEA86E59CC",
"(. c #E9B2A9125A35",
"). c #EBB2AB125C36",
"_. c #87DA89918BA7",
"`. c #84AF885C8CD8",
"'. c #8D358E5E8FC8",
"]. c #8E4C8E438E3A",
"[. c #95789411925F",
"{. c #9C2C9B809AAE",
"}. c #9C979C5E9C19",
"|. c #9F50A370A894",
" X c #A8E5A85DA7B7",
".X c #AF85AE43ACB9",
"XX c #B7B8BBD5C0DA",
"oX c #CBACCA92C933",
"OX c #C795CB9ED08C",
"+X c #D724D6ACD61B",
"@X c #D7EAD7B1D76D",
"#X c #D6F1D945DC1C",
"$X c #DDF0E097E3C5",
"%X c #E6FEE5FAE4BD",
"&X c gray100",
/* pixels */
"j.j.j.j.v.A.y.j.p.j.j.j.j.j.j.j.j.j.j.j.",
"j.j.j.v.2.>.U.j.x.v.j.y.j.j.j.j.j.j.j.j.",
"j.j.p.D.%.X E ^.O.f p.).H.p.p.j.j.j.j.j.",
"j.j.j.v.<., X h a X z Q | D.A.p.j.j.j.j.",
"j.j.j.x.w.q e _.w X v XX] h ;.I.p.j.j.j.",
"j.j.p.A.T X m ~ X X 3 ) +XOXg #.I.p.j.j.",
"j.j.z.w.> '. XX X X X X X [.$Xp 5.v.p.j.",
"j.p.A.=.n @X^ X : X / m X X oX|.H E.p.j.",
"j.p.I.J X 3 X X ; X {.G X X ! &XZ #.H.p.",
"p.D. .X X ; X X X y '.X X X X %X`.L ).y.",
"x.q.q 5 3 X X X X c 6 X X : X {.#Xu v.l.",
"E.o.w .X8 X X l 2.:.X X X X X ` &Xd ,.v.",
"A.#.t D ` r P U.E.k X X X ; X R &XM @.H.",
"p.B.U X ( i j.D.K X X X X X X D &XC X.E.",
"j.l.v.9.W +.(.Y X X X X X ; X S &XB } E.",
"j.j.j.v.E.(.+.X - X X X X X X S &XB [ E.",
"j.j.j.p.w.A.I X X X X X X X X G &Xb { E.",
"j.j.j.j.j.A.l X 4 < < < 1 1 - y ' 7 o.U.",
"j.j.j.j.j.j.q.6.8.8.8.8.6.9.9.4.-.5.t.j.",
"j.j.j.j.j.j.x.v.B.x.x.v.v.v.x.v.A.v.j.j."
};
