/* XPM */
static char *ndd__[] = {
/* columns rows colors chars-per-pixel */
"22 22 193 2",
"   c #000900070007",
".  c #00A9007A0041",
"X  c #0000004F00EA",
"o  c #010C010A0107",
"O  c #01EE016600BF",
"+  c #0219019E0107",
"@  c #02BA01F8010B",
"#  c #01D601C601B0",
"$  c #032A03180301",
"%  c #03CA030F022C",
"&  c #04E5038A01E3",
"*  c #063004790262",
"=  c #05DE04A0031B",
"-  c #03D303D103CE",
";  c #0507047303BF",
":  c #057D05710562",
">  c #05FA055C049B",
",  c #060E060E060F",
"<  c #0808061503C4",
"1  c #08C006AD0426",
"2  c #0F5709FA036D",
"3  c #0F230A68054D",
"4  c #0D090A2806A3",
"5  c #0BD50C1A0C7D",
"6  c #108C0B3504B0",
"7  c #1DAC118802B7",
"8  c #1E2B135C062B",
"9  c #13B610A70DD4",
"0  c #1A3F11EC07CB",
"q  c #1E23148B08D5",
"w  c #13E6134F1297",
"e  c #138B13B113E0",
"r  c #14F114D514B3",
"t  c #1EA01F0F1F97",
"y  c #2465184D09CD",
"u  c #23F219C90D61",
"i  c #25C51AC60D5B",
"p  c #27881C950F38",
"a  c #27931C9D0F3C",
"s  c #27C21CBF0F4F",
"d  c #28121D130FA7",
"f  c #2B321F371097",
"g  c #3475213609BA",
"h  c #34E926BA156B",
"j  c #361E272214D9",
"k  c #36FC27C1152C",
"l  c #3952296615F7",
"z  c #3AC42A7C169F",
"x  c #32CE29161D3A",
"c  c #29A728862732",
"v  c #3CEA31C22423",
"b  c #2DA530303366",
"n  c #32A23283325D",
"m  c #377C36A3359A",
"M  c #3BD23AD539A0",
"N  c #3BCE3BA33B6F",
"B  c #3D603CB73BE8",
"V  c #3DFA3E693EF3",
"C  c #43B62BBB0E76",
"Z  c #489430EB140D",
"A  c #465232D01B01",
"S  c #45EC33E11DDB",
"D  c #4FAE39A21EBA",
"F  c #5FFB3F8A17F3",
"G  c #4EBE39C22025",
"H  c #41B3368928E9",
"J  c #50823ABA2049",
"K  c #5F4E44DD2499",
"L  c #6CFF4ABD20F0",
"P  c #69B24B8326AD",
"I  c #6B944E332A59",
"U  c #6D1F4EE52A02",
"Y  c #7495544A2CE2",
"T  c #7C4759EE3003",
"R  c #7E0E5B283091",
"E  c #458E45644531",
"W  c #47674AFE4F5F",
"Q  c #49C249A74985",
"!  c #5451542653F2",
"~  c #54DC54B65488",
"^  c #507253E5581F",
"/  c #59CA5998595B",
"(  c #5BF25BA65B4A",
")  c #571E5B145FF8",
"_  c #6435638162A4",
"`  c #6A456A1069CF",
"'  c #6E5A6D306BC4",
"]  c #78A078047745",
"[  c #76787A377ECA",
"{  c #882D5F202D0E",
"}  c #81E65E3B32B4",
"|  c #8ED363A12EEA",
" . c #84CA60BD34B5",
".. c #99F56F513B47",
"X. c #9F9373613D72",
"o. c #AE0778A3377B",
"O. c #ADFA7D764242",
"+. c #AF8B7E6A4277",
"@. c #B2597F8E4193",
"#. c #B284811B44CE",
"$. c #B3C782004541",
"%. c #B56282A144B2",
"&. c #B48082694549",
"*. c #B68982DA43F8",
"=. c #B61E83B3461C",
"-. c #B65283D44636",
";. c #B91485D04740",
":. c #BA48874D4916",
">. c #BCA98855487B",
",. c #BE368914483D",
"<. c #C0728B364A3F",
"1. c #CB4292E04E11",
"2. c #D01595244D36",
"3. c #D2FA96E24D8D",
"4. c #D41A98024EAC",
"5. c #D0069680504E",
"6. c #D09C96D55054",
"7. c #D1A7979550B6",
"8. c #D21F97EB50E3",
"9. c #D264980350C4",
"0. c #D260981550F2",
"q. c #D2C998675127",
"w. c #D38C98E75155",
"e. c #D3F59941519D",
"r. c #D45C998951C1",
"t. c #D4DE99E851F3",
"y. c #D5469A32521B",
"u. c #D5CD9A955250",
"i. c #D6679B035289",
"p. c #D6D59B5252B4",
"a. c #D6BB9B9F537B",
"s. c #D7D59C375376",
"d. c #D8F99CDF5385",
"f. c #D93F9D1F53BD",
"g. c #D98C9D4453B3",
"h. c #D9279D555450",
"j. c #D9699D5453FF",
"k. c #DB3D9E835466",
"l. c #DB9F9ECA548D",
"z. c #DAB59E9D5548",
"x. c #DC4F9FF25649",
"c. c #DC719F6F54FC",
"v. c #DDA8A03D5549",
"b. c #DE75A0D555A1",
"n. c #DE54A0F65611",
"m. c #DEF1A168564C",
"M. c #DFC2A1F85691",
"N. c #E006A2865779",
"B. c #E152A2E956BF",
"V. c #E178A30456CD",
"C. c #E101A2D956FE",
"Z. c #E2BBA3EE574B",
"A. c #E3C1A4AB57AE",
"S. c #E128A3C458DA",
"D. c #E245A43F5890",
"F. c #E5ABA60A5864",
"G. c #E62FA66E58A1",
"H. c #E4D2A62A59B2",
"J. c #E6AAA6C758D1",
"K. c #E6ABA7A85AC1",
"L. c #E768A81A5ADA",
"P. c #E7C4A8905B6F",
"I. c #E95CA8B659D5",
"U. c #E914A9A75C40",
"Y. c #F04FADBD5C80",
"T. c #EFFAAE255DCF",
"R. c #793E7DDD837F",
"E. c #802882198478",
"W. c #8ABB8A898A4C",
"Q. c #8CC28C2E8B79",
"!. c #9A3A9A3A9A3A",
"~. c #A444A404A3BC",
"^. c #A38DA513A6EF",
"/. c #A596A562A524",
"(. c #A770A712A6A0",
"). c #AA03A9AEA947",
"_. c #AF12B268B67D",
"`. c #B820B7ABB71D",
"'. c #BB4FBACEBA30",
"]. c #B9D2BC41BF3A",
"[. c #C7E7C7DCC7CD",
"{. c #C2C0C5E1C996",
"}. c #D8E0D7DBD697",
"|. c #D653D7B6D966",
" X c #DB55DAA3D9CA",
".X c #DB9BDDAFE037",
"XX c #E08EE1C7E345",
"oX c #E6FFE5A3E3FF",
"OX c #EE64EEE6EF85",
"+X c #F195F156F10B",
"@X c #F1A4F1ACF1B6",
"#X c #F16BF364F5CC",
"$X c gray100",
/* pixels */
"u.u.u.u.u.d.u.u.u.q.q.u.u.u.u.u.u.u.u.u.u.u.",
"u.u.u.u.u.<.b.c.4.c.Z.q.q.u.u.u.u.u.u.u.u.u.",
"u.u.u.u.c.j z ,.T.X.K Z.N.u.q.u.u.u.u.u.u.u.",
"u.u.u.q.Z.S   6 | f   P o.4.U.u.u.u.u.u.u.u.",
"u.u.u.8.L.T   5 B =   e _ x F q.b.q.u.u.u.u.",
"u.u.u.u.d.S   ' Q.    r [.#XR.q @.S.q.u.u.u.",
"u.u.q.Z.}   m N       -   B oX{.9 -.N.q.u.u.",
"u.u.8.L.Z W $XE   -         - }._.y z.u.q.u.",
"u.q.u.z.y E.] -   -   ` ~     n $X^ L P.q.u.",
"u.8.L.R       -   -   ~.Q   -   '.|.0 2.s.u.",
"q.b.#.1     -   -   t !.    -   ! $Xb { L.q.",
"u.z.z   1           j 4         r $X[ C L.8.",
"b.:.  W./   -   z -.-.             X].7 z.u.",
"z.,.1 ] c N   I Z.Y.J   -     -   `.XX3 1.d.",
"u.b.G   / ( g L.Z.I           -   ).OX1 ,.c.",
"u.u.8. .J 3 -.I.Y   %         -   ).+X  -.b.",
"u.q.u.L.c.5.L...              -   (.+X  +.N.",
"u.u.u.q.u.u.d.j   = %     %   -   (.+X  O.b.",
"u.u.u.u.u.d.>.=               %   (..X  +.b.",
"u.u.u.u.u.l.;.s s s s s s s s f i v H u -.b.",
"u.u.u.u.u.u.u.d.s.s.d.d.d.d.d.d.z.8.4.z.u.u.",
"u.u.u.u.u.u.u.u.u.u.u.u.u.u.u.u.u.u.u.u.u.u."
};
