/* XPM */
static char *ndd__[] = {
/* columns rows colors chars-per-pixel */
"31 31 251 2",
"   c #000400040004",
".  c #00E5004E0029",
"X  c #013B00E30079",
"o  c #0045008500D3",
"O  c #0114010800F9",
"+  c #01F400000000",
"@  c #01D8015D00C6",
"#  c #025F01B400E3",
"$  c #02E9021C0122",
"%  c #000000410235",
"&  c #016801B4021D",
"*  c #020F020B0205",
"=  c #02AE025C01F8",
"-  c #03380341034C",
";  c #045302FB0158",
":  c #0439032001CD",
">  c #057103EF0218",
",  c #04E703FB02DE",
"<  c #059C040E0229",
"1  c #06C804D30275",
"2  c #0239049B0784",
"3  c #04130410040D",
"4  c #052104F204BA",
"5  c #05CD05C805C1",
"6  c #091E06970380",
"7  c #0CC004940000",
"8  c #0B9508600475",
"9  c #0DD30A0C0570",
"0  c #0A610A4B0A30",
"q  c #0E370D440C1C",
"w  c #11ED0CF606E7",
"e  c #13680E080779",
"r  c #15270CFD03C9",
"t  c #14490EAF07D9",
"y  c #0FA60F8B0F6B",
"u  c #166E103808A3",
"i  c #16A4105A08AF",
"p  c #19151200095A",
"a  c #18CE11F0098D",
"s  c #193B126F0B4C",
"d  c #1E7415EE0B88",
"f  c #106610401011",
"g  c #128D1269123E",
"h  c #13B5138D135D",
"j  c #14D0144F13B1",
"k  c #14DE14B8148B",
"l  c #15C1159F1574",
"z  c #1A7119941885",
"x  c #203B17440C54",
"c  c #2B1F1E770F05",
"v  c #371724E60EB4",
"b  c #2C64207C11BE",
"n  c #2E81219E11B8",
"m  c #31C823EF1309",
"M  c #348624AA114E",
"N  c #398426AF0FC4",
"B  c #3A01272E1035",
"V  c #39412965160B",
"C  c #3A3E2A1C166C",
"Z  c #3F292DA71849",
"A  c #1AE31E2621E7",
"S  c #20FB20D320A2",
"D  c #24DF259A267F",
"F  c #264F262C2602",
"G  c #2776274D271C",
"H  c #28D127D3269E",
"J  c #20D42416280F",
"K  c #28D92BE92FA9",
"L  c #2E712E4F2E27",
"P  c #28322C1C30EB",
"I  c #2D0C2FA132CE",
"U  c #31AB31823151",
"Y  c #30A831F33387",
"T  c #33B833933366",
"R  c #3820372F3607",
"E  c #3A913BA93CFE",
"W  c #41D82F9B1959",
"Q  c #430B2FD31860",
"!  c #467233A01CA8",
"~  c #4D8A35871862",
"^  c #491334D51C23",
"/  c #4AFF36771D6A",
"(  c #4E1138711E0E",
")  c #4EA738CC1E20",
"_  c #52A936411397",
"`  c #513D37531847",
"'  c #50F63A891F2B",
"]  c #52CE3BDF1FE1",
"[  c #56D43EC7216D",
"{  c #3FD83EED3DCF",
"}  c #59B941532398",
"|  c #40193FDD3F92",
" . c #60424598250F",
".. c #62DD477B260F",
"X. c #65CA49A32747",
"o. c #7A54582C2E7E",
"O. c #7A65586F2F14",
"+. c #407E406D405A",
"@. c #49EF49B74973",
"#. c #4CB24BE64AEE",
"$. c #564057DA59CF",
"%. c #634B631062C8",
"&. c #66DD66986644",
"*. c #6AD66AAB6A78",
"=. c #6CDC6C9C6C4E",
"-. c #6DBF71ED7713",
";. c #73D2746B7526",
":. c #7B8F7B4C7AF9",
">. c #7D587D047C9D",
",. c #7EA27E6B7E29",
"<. c #7F5E7F1B7EC9",
"1. c #7F6C7F4E7F29",
"2. c #86155E3A2D98",
"3. c #80325CB0315A",
"4. c #80865DDB338D",
"5. c #81735E0332C4",
"6. c #83675EF43279",
"7. c #81615E8B3409",
"8. c #839A601D34CE",
"9. c #86BE616C33E0",
"0. c #8982645D3709",
"q. c #8DE566EB375B",
"w. c #8DA2678C3911",
"e. c #9181699738E1",
"r. c #93E76AE73903",
"t. c #92C66B143AA2",
"y. c #94A36B773939",
"u. c #974E6D653A40",
"i. c #9CC671593C5B",
"p. c #9DE172263CC8",
"a. c #9E8B739B3F35",
"s. c #A06F73FE3DC3",
"d. c #A1AD75593F41",
"f. c #AC5F7C984247",
"g. c #AD1B7D2842A4",
"h. c #ADA57E99452F",
"j. c #AE9C7E8443D2",
"k. c #B1F680AE448A",
"l. c #B48C822644A5",
"z. c #B49682A245AD",
"x. c #B6F38446466E",
"c. c #B78984B246A8",
"v. c #BA3386A047AF",
"b. c #BA4F86C547E0",
"n. c #BB3187574810",
"m. c #BC3889194AB7",
"M. c #BC4488D84A17",
"N. c #BE038A424B19",
"B. c #809C80517FF5",
"V. c #C32B8D1B4B22",
"C. c #C3BA8D834B5A",
"Z. c #C1A28D274D1B",
"A. c #C753901C4CBC",
"S. c #C9C392824F14",
"D. c #CDF194E34F41",
"F. c #CA8393715019",
"G. c #CFB9962F4FF8",
"H. c #D05B96A45036",
"J. c #D14A97515092",
"K. c #D1AF979450AC",
"L. c #D23E980250F0",
"P. c #D25F981450F1",
"I. c #D09E97EC52BB",
"U. c #D2BD985C511E",
"Y. c #D39498F95174",
"T. c #D41B995A51A7",
"R. c #D466999151C5",
"E. c #D4F699F951FC",
"W. c #D53E9A2D5218",
"Q. c #D5D69A9B5253",
"!. c #D65F9AFD5287",
"~. c #D6E19B5C52BA",
"^. c #D7899BD552FA",
"/. c #D80B9C34532F",
"(. c #D5FC9BC454B6",
"). c #D8D09CD0539A",
"_. c #D9A69D5A53C4",
"`. c #D9AC9D6D53E7",
"'. c #D9F09E0C54F6",
"]. c #DB069E5B5452",
"[. c #DBAD9ED55492",
"{. c #DC579F4F54D3",
"}. c #DBA49F14552C",
"|. c #DC229F4554FE",
" X c #DCEC9FBB550E",
".X c #DDD7A0645567",
"XX c #DE6FA0D255A3",
"oX c #DD9AA07B55E3",
"OX c #DF43A16B55F4",
"+X c #DFE5A1E05633",
"@X c #E0BCA27F568B",
"#X c #E17BA30756D1",
"$X c #E12EA2E256DC",
"%X c #E1B5A33056E4",
"&X c #E2CCA3FB5752",
"*X c #E3D3A4BA57B8",
"=X c #E291A47C58B6",
"-X c #E41EA4FD57F5",
";X c #E394A52B5902",
":X c #E4B4A561581A",
">X c #E4E9A5F6591E",
",X c #E5D4A62B587B",
"<X c #E5B2A682595B",
"1X c #E6B7A6D158D7",
"2X c #E704A70758F0",
"3X c #E7AEA7995965",
"4X c #E7DBA8705B0D",
"5X c #EBB9AA5B5A96",
"6X c #EB1AAB285D1F",
"7X c #8148817681B1",
"8X c #826B823481F1",
"9X c #800C8117825C",
"0X c #8586852884B5",
"qX c #876086FB866D",
"wX c #872E8804890B",
"eX c #89A889BD89D6",
"rX c #8AAB8A718A29",
"tX c #929691939056",
"yX c #95F4940E91A9",
"uX c #947C943A93EA",
"iX c #9639960295BE",
"pX c #96D1965895C4",
"aX c #9B379ACE9A4D",
"sX c #9EA59E6B9E25",
"dX c #A16CA02D9EA9",
"fX c #A132A0FCA0BB",
"gX c #A4E5A3B8A249",
"hX c #A510A43CA33A",
"jX c #A76EA65AA50A",
"kX c #A798A6A3A578",
"lX c #A733A705A6CD",
"zX c #A827A798A6EA",
"xX c #AA50A9B6A8FB",
"cX c #B48AB3E0B311",
"vX c #B77FB743B6F9",
"bX c #C053C027BFF0",
"nX c #BEFFBFCAC0BF",
"mX c #C0E4C0AAC065",
"MX c #C4C8C496C458",
"NX c #CCBECC7CCC2B",
"BX c #D1D6D11ED03D",
"VX c #D169D11BD0BD",
"CX c #D792D68DD54F",
"ZX c #E44FE437E419",
"AX c #E58FE556E512",
"SX c #E710E6F0E6CA",
"DX c #EF0BEEEDEEC8",
"FX c #EF75F104F2EA",
"GX c #F2CDF2BAF2A2",
"HX c #FE2AFDBBFD33",
"JX c gray100",
/* pixels */
"Q.Q.Q.Q.Q.Q.Q.U.U.Q.Q.Q.Q.Q.Q.Q.Q.Q.Q.Q.Q.Q.Q.Q.Q.Q.Q.Q.Q.Q.Q.",
"Q.Q.Q.Q.Q.Q.Q.XX XU.Q.Q.Q.Q.U.U.Q.Q.Q.Q.Q.Q.Q.Q.Q.Q.Q.Q.Q.Q.Q.",
"Q.Q.Q.Q.Q.Q.].p.x.:X).U.Q.].&X).Q.Q.Q.Q.Q.Q.Q.Q.Q.Q.Q.Q.Q.Q.Q.",
"Q.Q.Q.Q.Q.U.*X(   X.U. X Xg.C C.].G.P.Q.Q.Q.Q.Q.Q.Q.Q.Q.Q.Q.Q.",
"Q.Q.Q.Q.Q.P.*X .    x m.].d   m  X6X:X].U.U.Q.Q.Q.Q.Q.Q.Q.Q.Q.",
"Q.Q.Q.Q.Q.U.&X6.  1   r ~   ;   m _ 2.S.4X].U.Q.Q.Q.Q.Q.Q.Q.Q.",
"Q.Q.Q.Q.Q.U. Xv.      E T       G -.A   ` F.;XU.Q.Q.Q.Q.Q.Q.Q.",
"Q.Q.Q.Q.Q.U.:X6.&   &.JX#.  5   R JXJXmXP   y.:XP.Q.Q.Q.Q.Q.Q.",
"Q.Q.Q.Q.U. Xg.3     L G           k 9XGXJXwX  o.:XU.Q.Q.Q.Q.Q.",
"Q.Q.Q.Q.U.&X/   q iX%.  3       3     f jXJXzX  w.:XU.Q.Q.Q.Q.",
"Q.Q.Q.Q.Q.].c 5 VXJXE   3           3     sXJX9X  N.].U.Q.Q.Q.",
"Q.Q.Q.U.].I.  9XJXvXq           &.T   3   k ZXJXI B ;XQ.Q.Q.Q.",
"Q.Q.Q.P.:X6.  { H           3   NX*.  3 3   =.JXcX  s.&XU.(.Q.",
"Q.Q.U.].C.e                   f SXR         f SXJXK v ;XU.Q.Q.",
"Q.Q.Q. XW     & 3         3   iXmX        3   iXJXrX  m.XXU.Q.",
"Q.U.:XO.  3             1     +.S         3   @.JXCX  o.:XU.Q.",
"Q.].C.u                     ( Q               k DXJXJ B ;XU.Q.",
"P.$Xe.  z VX+.  3     1 ] z.5X!   ;         3   MXJX$.7 ).Q.(.",
"P.;Xw.  tXmX  ;     r s.;X;Xb.1             3   fXJX9X  C.].U.",
"U.XXj.  H k G xX  8 z.:XP. XQ               3   rXJXaX  h.XXU.",
"Q.U.]./     qXyX  0.:XD.&X'   1             3   9XJXgX  a.XXU.",
"Q.Q./.P.} b s   b /.Q.&X[   ;               3   9XJXjX  t.;XU.",
"Q.Q.U.].&XXXz.X.b.].&X..                    3   ,.JXzX  0.;XU.",
"Q.Q.Q.Q.U.Q.XX:X/.XXp.  ;                   3   ,.JXjX  8.:XU.",
"Q.Q.Q.Q.Q.Q.Q.P.U.XXC   ;                   3   a.HXfX2 8.:XU.",
"Q.Q.Q.Q.Q.Q.Q.U. Xx.1               ;       3   wXHXfX& 8.:XU.",
"Q.Q.Q.Q.Q.Q.Q.U.*Xy.                        &   ;.FX:.& O.:XP.",
"Q.Q.Q.Q.Q.Q.Q.U.&Xu.8 p u u u u u u u u u u u u u u s 3 9.&XP.",
"Q.Q.Q.Q.Q.Q.Q.Q.Q.U.D.D.D.D.D.D.G.G.D.D.D.G.G.D.G.G.D.D.P.Q.Q.",
"Q.Q.Q.Q.Q.Q.Q.Q.Q.Q.).Q./.)././.).Q./././.Q././.(.).].Q.Q.Q.Q.",
"Q.Q.Q.Q.Q.Q.Q.Q.Q.Q.Q.Q.Q.Q.Q.U.Q.Q.U.Q.Q.Q.Q.U.U.Q.Q.Q.Q.Q.Q."
};
