/* XPM */
static char *ndd__[] = {
/* columns rows colors chars-per-pixel */
"35 35 105 2",
"   c #00EC00C900A6",
".  c #090B049C015A",
"X  c #0E0508BE027F",
"o  c #0C3D0C310C23",
"O  c #119D0A900337",
"+  c #138D0E5D0807",
"@  c #1B5511AC0662",
"#  c #16BD10A50934",
"$  c #1AB0130C09D1",
"%  c #09740C590FFE",
"&  c #13AA14051473",
"*  c #1764195A1BC0",
"=  c #1A901A4119E0",
"-  c #2051176C0C91",
";  c #267F1AB90C60",
":  c #32171F3F0849",
">  c #26A71C5E0FD0",
",  c #2ED620790EF2",
"<  c #2D5020C51178",
"1  c #359326BB149D",
"2  c #3B202A34158D",
"3  c #1D361EC820B1",
"4  c #1F2620C222BE",
"5  c #22EB23062327",
"6  c #2C522BCB2B26",
"7  c #37B138C03A09",
"8  c #3D9D3D923D8F",
"9  c #4EA533FA1371",
"0  c #45CD32771ADF",
"q  c #4BA836781C9F",
"w  c #4DDD37EF1D2D",
"e  c #51C43703165E",
"r  c #52083B4F1F94",
"t  c #596A3EC11E39",
"y  c #4EB039911FCB",
"u  c #53DA3C8D2029",
"i  c #5D1742E42304",
"p  c #60AA45E8253F",
"a  c #6440488026A2",
"s  c #6C4F4E4E29B2",
"d  c #762C55CC2E49",
"f  c #793956202B47",
"g  c #7B5E59322F7F",
"h  c #7CA45AAD313B",
"j  c #433F42F44299",
"k  c #41DC457449D7",
"l  c #4CEB4C8A4C23",
"z  c #4D9D52025761",
"x  c #51C851AC5189",
"c  c #57DC579B574D",
"v  c #55FA59885DE0",
"b  c #5A5B5A1C59CF",
"n  c #6292625061FF",
"m  c #69EF690367E2",
"M  c #6E026D966D12",
"N  c #70026FB76F5C",
"B  c #740873C57372",
"V  c #7BB17BA17B8D",
"C  c #82B55E803251",
"Z  c #8768628E3595",
"A  c #897463D835F1",
"S  c #908D688237A6",
"D  c #97666DCF3B0D",
"F  c #9DD872203CC7",
"G  c #A224753A3E68",
"H  c #9FF374A73FD0",
"J  c #A30876994061",
"K  c #A67D78ED4153",
"L  c #A9B87AB64159",
"P  c #BBC487D04868",
"I  c #BDEF89EF4A79",
"U  c #C34E8D644B98",
"Y  c #C7A790B64DAB",
"T  c #CAA492934E28",
"R  c #CEA695C85063",
"E  c #D19F97B55105",
"W  c #D56C9A4F522B",
"Q  c #DAAB9E1D5437",
"!  c #DED2A1365606",
"~  c #DF94A2885809",
"^  c #E286A3C75734",
"/  c #E561A5EA5878",
"(  c #E8DCA9055B1D",
")  c #81FB81DF81BA",
"_  c #88D088108726",
"`  c #8A958A718A45",
"'  c #98B797D496C0",
"]  c #9E7E9E4A9E0B",
"[  c #A12FA01B9ECA",
"{  c #A08DA0439FEA",
"}  c #A472A4BAA512",
"|  c #AA6EA9F2A95B",
" . c #B3C5B340B29E",
".. c #BD17BCDFBC9A",
"X. c #CA79CA1BC9A8",
"o. c #D480D429D3BF",
"O. c #D9C6D8CBD799",
"+. c #DC0ADB81DADA",
"@. c #E0A1E077E044",
"#. c #E7A9E6A6E569",
"$. c #EDDAED20EC39",
"%. c #F11CF0B6F039",
"&. c #F6B5F655F5E0",
"*. c #F8A6F857F7F7",
"=. c #FEF4FEE9FEDB",
/* pixels */
"W W W W W W W W W W W W W W W W W W W W W W W W W W W W Q W W W W W W ",
"W W W Q W W W W Q W E W W W W W W W W W W W W W Q W W W W W W W W W W ",
"W W W W W W W Q U ! ^ E W W W Q ^ W W W Q W W W W W W W W Q W W W W W ",
"W W W W W W E ^ 0 < K ^ Q E Q U D ^ W W W W W W W W W W W W W W W W Q ",
"W W W W W W W / q     u E Q E 1   C / E W E E W W W W Q W W W W W W W ",
"Q W W W W W E / p   .   > W d       K ! / / Q E W W W W W W W W W W W ",
"W W W W W W E / A     .   $ $       . O : f Y / Q E W W W W W Q W W Q ",
"W W W W W W W Q U .     = V o   .   = } v %   i E ^ E W W W W W W W W ",
"W W W W W W E / g     5 &.o..       * $.=.*.` % X J / E W W W W W W W ",
"W W W W W W ^ G       & x             & n +.=.$.l   A ^ E W Q W W W W ",
"W W Q W W E Q 1     y V                   . B *.=.M   D / E W W W W W ",
"W W W W W Q Y +   V *. .                      k &.=.x   I Q W W W W W ",
"W W W W W Q U   z =.=.x   .         o o     .   N =.#.& 2 ! E W W W W ",
"W W W W E / A   } | v &             } }           X.=.'   D / E W W Q ",
"Q W W W Q E -   . .             .   ..]   .       c =.&.4 ; Q W W W W ",
"W W W E / p                       & &.l           o O.=._   H ^ W W W ",
"W W E ^ D                     .   } o.              _ =.O.  q ^ E W W ",
"W W W R #   .                     7 5               8 =.=.7 . R Q W W ",
"W W ^ a   .                     2 2                 o #.=.V   K ^ E W ",
"W W R $   6  .*             0 F / r                    .=. .  d / E W ",
"W Q U o   +...          $ G / / Y +                   ` =.+.  w ^ W W ",
"W W R @   | 5   l .   < Y / T ( s                 .   N =.$.% , ! E W ",
"W E ^ u   .   _ X.  # U ! T / S                       n =.*.* @ Q W W ",
"W E Q U $     ) l   A / T / D                     .   b =.*.= O E W W ",
"W W W Q U i u $   < W E / F .                         b =.*.5 . T Q E ",
"Q W W W Q / ( I g U Q ! K .                       .   b =.*.5   U Q W ",
"W W W W W E E Q ( Q W W ;                         %   b =.*.4   U Q W ",
"W W W W W W W W E T / A                               c =.*.3   U Q E ",
"W W W Q W W W W W W ! 2                               b =.&.=   P Q W ",
"W W W W W W W W W W Y +   .             .       . .   m =.&.=   U Q W ",
"W W W W W W W Q W ! P .                               3 z k     P Q W ",
"W W W W W W W W W W Y a p i p p p p p p p p i p p i p t e e i a Y Q W ",
"W W W W W W W W W W Q ^ / / / / / / / / / / / / / / / / ( ( / / W W W ",
"W Q W W W W W W W W W E E E E E E E E E E E E W E E E W E W E W W W W ",
"W W W W W Q W W Q W W W W Q W W W W W W W W W W W W W W W W W W W W W "
};
