/* XPM */
static char *ndd__[] = {
/* columns rows colors chars-per-pixel */
"32 32 91 1",
"  c #00B00098007F",
". c #09510717045F",
"X c #0D35098D0516",
"o c #0BFC0BD40BA3",
"O c #13840BFF0389",
"+ c #19380E9B01A5",
"@ c #1D6C12D805EF",
"# c #176110D508D8",
"$ c #1BB014230AEA",
"% c #13F613C41388",
"& c #17A4177E174F",
"* c #12B115F51A0D",
"= c #19D81B6C1D5A",
"- c #24A8174306EB",
"; c #203417410C55",
": c #25311AA20DC5",
"> c #2AB21EDF1070",
", c #3947250E0D6E",
"< c #2CD6206A1143",
"1 c #318C23D31313",
"2 c #3C6C2A1713B8",
"3 c #1E6B2198254E",
"4 c #2322236623BB",
"5 c #2B8E2B5E2B22",
"6 c #2B132DAD30D9",
"7 c #33BA3484357E",
"8 c #3CF23CAF3C5E",
"9 c #4A66348C1A38",
"0 c #541F3B371D75",
"q c #54763D032066",
"w c #5B6F42462390",
"e c #63E5483A2675",
"r c #69DB4C9728D8",
"t c #70F64E84247C",
"y c #74DE53D52B85",
"u c #7DB75AE43064",
"i c #3F9C403540F0",
"p c #43A146344950",
"a c #4BBA4BF14C33",
"s c #4CF84E85506A",
"d c #4FBB4FD14FEB",
"f c #5437538052A8",
"g c #5B405B085AC5",
"h c #65B364F16404",
"j c #69A469D26A0B",
"k c #77E976E275A0",
"l c #7C7F7BF57B46",
"z c #80935CF63180",
"x c #8664614533F9",
"c c #8D266595354D",
"v c #936C6B853AD5",
"b c #9B0470753C85",
"n c #A42A76AC3F2A",
"m c #A1B9761940DD",
"M c #A7A47A2642A2",
"N c #AB6D7C734313",
"B c #B45D82AE460D",
"V c #BA5D86BF47C2",
"C c #B7F6862D496C",
"Z c #813780317EEE",
"A c #C5058E8C4C13",
"S c #C7AA90FF4E49",
"D c #CC7693D44EB6",
"F c #CE63959D504F",
"G c #D181977950A7",
"H c #D5939A6C523C",
"J c #DA6E9E07544E",
"K c #DF26A1785632",
"L c #E248A39B5720",
"P c #E524A5E458B5",
"I c #F296AFBC5E28",
"U c #F43DB1195F2B",
"Y c #8428839C82F1",
"T c #862987B889A0",
"R c #8A548A1B89D5",
"E c #9C9E9C0D9B5D",
"W c #A57DA53CA4EC",
"Q c #AED6AE4FADAB",
"! c #B066B022AFD0",
"~ c #B3E8B38CB31C",
"^ c #BBB7BB72BB19",
"/ c #C4EEC4A7C44E",
"( c #C783C9F3CCEC",
") c #CB7DCB43CAFC",
"_ c #D29DD18AD03A",
"` c #D61BD5CED56C",
"' c #DAE6DAAEDA6A",
"] c #E3FEE3ACE348",
"[ c #ED6DECC6EBFA",
"{ c #F8C1F7D9F6BD",
"} c #FFF5FFEAFFDE",
/* pixels */
"HHHHHHHHHHHHHHHHHHHHHHHHHHHHHHHH",
"HHHHJHHJJGHHHHHGHHHHHHHHHHHHHHHH",
"HHHHHHJBBPJGHHLKHHHHHHHHJHHHHHJH",
"HHHHHGPz wSLGLrxPDHHHHHJHHHHHHHH",
"HHHHHGPc  ObUu .nILJGHHHHHHHHHHH",
"HHHHHHKN    y$  ;tcAPKGHHHHHHHHH",
"HHHHHHHG$   4.   73 ,NPHHHHHHHHH",
"HJHHHGJD$ %`/    Q}/p qJJHHHHJHH",
"HHHHHHJ2  4Y%    =Z[}^*:FJGJHHHH",
"HHHHGLc  5g        oY}[6-HHHHHHH",
"HHHHGPw f}~        . a}[*9PGHHHH",
"HHHHGP24{}f     o4  . l}~ vPGHHH",
"HHHHJD aE7o     8].   o`}sOJJHHH",
"HJHGPw          g'   . j}/ xPGHH",
"HHGLb           )R     &[}7-KHHH",
"HHJS#          5/%      W}R BKHH",
"HHL0           +        h}_ yPGH",
"HJC. 87      $uN.       4}}=2PGH",
"GLb 7}g    XuGUc        o]}pOJHH",
"GKM hW 5% $CPHJ<         (}h SJH",
"HJD$  5]% BLDPw          ^}l CJH",
"HHLc  pk yPFPe         . ~}Y NLG",
"HHGLMr9 ;GHPr            ~}Y mLG",
"HHHGKPKNAHLu             ~}Y bLG",
"HHHHHGHKJJVX             ~}Y vPG",
"HHHHHHHGGPr              Q}Z vPG",
"HHHHHHHHHH> .          . ^}l vLG",
"HJHHHHHHJSX              T(a vPG",
"HHHHHHJHJS1;:::::::::::::@+:$bLG",
"HHHHHHHHHJHJJJJHJHJJJHJHJJJJHHHH",
"JHHHHHHHHHHHGHHHHHHHHHHHHHHHHHHH",
"HHHHHHHHHHHHHHHHHHHHHHHHHHHHHHHH"
};
