/* XPM */
static char *ndd__[] = {
/* columns rows colors chars-per-pixel */
"72 72 119 2",
"   c #007F006F005D",
".  c #099606E7039F",
"X  c #0C47095A05C8",
"o  c #0DAC0D520CE5",
"O  c #10F30C3F0681",
"+  c #13890E3807C4",
"@  c #168D104C08AC",
"#  c #1C8714A50B07",
"$  c #14B2145F13FC",
"%  c #180717AC173C",
"&  c #1BFE1B7C1ADE",
"*  c #1FF7171C0C4E",
"=  c #233719DD0E73",
"-  c #2B431F4510A2",
";  c #2D4020B7116C",
":  c #33F5259A1416",
">  c #3794282F1566",
",  c #3B7B2B0116E6",
"<  c #3E982D411819",
"1  c #251324B62444",
"2  c #27BD277F2734",
"3  c #28A628222782",
"4  c #2C032B982B16",
"5  c #30542FF12F77",
"6  c #348A341C3395",
"7  c #3800378D3702",
"8  c #388538163791",
"9  c #3CC23C513BC7",
"0  c #40A32EBB18E2",
"q  c #44B831B01A76",
"w  c #4A7B35E11CBD",
"e  c #4F0D39291E71",
"r  c #51653ADC1F59",
"t  c #547A3D142086",
"y  c #57EA3F9021D8",
"u  c #40003F803EE6",
"i  c #5BF4427D236A",
"p  c #607F45C42526",
"a  c #641C4861268A",
"s  c #67B44AFB27EC",
"d  c #6B9C4DCD296E",
"f  c #6FB350C32B00",
"g  c #725F52C42C34",
"h  c #788757252E66",
"j  c #7BDD598E2FAF",
"k  c #7DB65AE43065",
"l  c #44AE441F4371",
"z  c #483447A546F5",
"x  c #489E482B479E",
"c  c #4DB84D154C4E",
"v  c #509050114F75",
"b  c #54C2543C5399",
"n  c #5D195C8A5BDB",
"m  c #649F64136368",
"M  c #688F67B366A4",
"N  c #68E0685A67B8",
"B  c #6EDB6E306D5F",
"V  c #700D6F836EDC",
"C  c #76EC765875A2",
"Z  c #7BF27B667ABC",
"A  c #81EC5DEF3204",
"S  c #877961F23427",
"D  c #8DA1666D3694",
"F  c #903B68483787",
"G  c #95546BF7397D",
"H  c #99E96F473B40",
"J  c #9CB9714F3C55",
"K  c #A18474C73E2E",
"L  c #A62778223FFB",
"P  c #ABC77C324222",
"I  c #B06C7F8D43EA",
"U  c #80307F9E7EEA",
"Y  c #B538830545C5",
"T  c #B92585DD4749",
"R  c #BB558771481E",
"E  c #BC5A882E4883",
"W  c #80CF80467FA0",
"Q  c #C32F8D1E4B24",
"!  c #C83390BE4D12",
"~  c #CA41923B4DDD",
"^  c #CFAA96254FF2",
"/  c #D22497EF50E6",
"(  c #D5B69A835246",
")  c #DA919E075425",
"_  c #DEEDA12D55D2",
"`  c #E26FA3B7572C",
"'  c #E52CA5B2583A",
"]  c #EECCACA75BEE",
"[  c #F138AE685CDD",
"{  c #838B82E88222",
"}  c #886587DD8739",
"|  c #88EC886687C3",
" . c #8DC68D3C8C93",
".. c #95A795229480",
"X. c #98F5986297B2",
"o. c #9F039E129CEC",
"O. c #A0F9A06D9FC4",
"+. c #A4E6A455A3A6",
"@. c #A870A7E5A73B",
"#. c #ABFAAB74AACF",
"$. c #B0DBB050AFA5",
"%. c #B595B51AB485",
"&. c #B8D3B883B822",
"*. c #BEEDBE6EBDD5",
"=. c #C0C3C052BFCA",
"-. c #C593C51BC489",
";. c #CCDBCC74CBF6",
":. c #D095D02CCFA8",
">. c #D3E3D385D310",
",. c #D88BD815D785",
"<. c #D923D8BCD83E",
"1. c #DD79DD0CDC87",
"2. c #E278E22DE1D2",
"3. c #E894E838E7C6",
"4. c #E905E86CE7B1",
"5. c #ED38ECEAEC8B",
"6. c #F0BBF068F002",
"7. c #F4BBF475F41F",
"8. c #FEB2FEAEFEA9",
/* pixels */
"( ( ( ( ( ( ( ( ( ( ( ( ) ( ( ( ( ( ( ( ( ( ( ( ( ( ( ( ( ( ( ( ( ( ( ( ( ( ( ( ( ( ( ( ( ( ( ( ( ( ) ( ( ( ( ( ( ( ( ( ( ) ( ( ( ( ( ( ( ( ( ( ",
"( ( ( ( ( ( ( ( ( ( ( ( ( ( ( ( ( ( ( ( ( ( ( ( ( ( ( ( ( ( ( ( ( ( ( ( ( ( ( ( ( ( ( ( ( ( ( ( ( ( ( ( ( ( ( ( ( ( ( ( ( ( ( ( ( ( ( ( ( ( ( ( ",
"( ( ( ( ( ( ( ( ( ( ( ( ( ( ( ( ( ( ( ( ( ( ( ( ( ( ( ( ( ( ( ( ( ( ( ( ( ( ( ( ( ( ( ( ( ( ( ( ( ( ( ( ( ( ( ( ( ( ( ( ( ( ( ( ( ( ( ( ( ( ( ( ",
"( ( ( ( ( ( ( ( ( ( ( ( ( ( ( ( ( ( ( ( ( ( ( ( ( ( ( ( ( ( ( ( ( ( ) ( ( ( ( ( ( ( ( ( ( ( ( ( ( ( ( ( ( ( ( ( ( ( ( ( ( ( ( ( ( ( ( ( ( ( ( ) ",
"( ( ( ( ( ( ( ( ( ( ( ( ( ( ( ( ( ) ( / ( ( ( ( ( ) ( ( ( ( ( ( ( ( ( ( ( ( ( ( ( ( ( ( ( ( ( ( ( ( ( ( ( ( ( ( ) ( ( ( ( ( ( ( ( ( ( ( ( ( ( ( ",
"( ( ( ( ( ( ( ( ( ( ( ( ( ( ( ( / Q _ ` ( / ( ( ( ( ( ( ( ( ( ( ( / ( ( ( ( ( ( ( ( ) ( ( ( ( ( ( ( ( ( ( ( ( ) ( ( ( ( ( ( ( ( ( ( ( ( ( ( ( ( ",
"( ( ( ( ( ( ) ( ( ( ( ( ( ( ( ) ( = > H ) ` ( / ( ( ( ( ( ( ( / ) ` ) / ( ( ( ( ( ( ( ( ( ( ( ( ( ( ( ( ( ( ( ( ( ( ( ( ( ( ( ( ( ( ) ( ( ( ( ( ",
"( ( ( ( ( ( ( ( ( ( ( ( ( ( ( ( / #     - H ` ) / ( ( ( ( ( ( ` Y w E ` / ) ( ( ( ( ( ( ( ( ( ( ( ( ( ( ( ( ( ( ( ( ( ( ( ( ( ( ( ( ( ( ( ( ( ( ",
"( ( ( ( ( ( ( ( ( ( ( ( ( ( ( ) / *   .     < E ' / ( ( ( / ) Y +   + Y ` / ( ( ( ( ( ( ( ( ( ( ( ( ( ( ( ( ( ( ( ( ( ( ( ( ( ( ) ( ( ( ( ( ( ( ",
"( ( ( ( ( ( ( ( ( ( ( ( ( ( ( ( ) -           X A ` ( / ( ) Q #   .   @ E ) ( ( ( ( ( ( ( ( ( ( ( ( ( ( ( ( ( ( ( ( ( ( ( ( ( ( ( ( ( ( ( ( ( ( ",
"( ( ( ( ( ( ( ( ( ( ( ( ( ( ( / ` <               t ) ) / ` w   .       : ) / / / / ( ( ( ( ( ( ( ( ( ( ) ( ( ( ( ( ( ( ( ( ( ( ( ( ( ( ( ( ( ( ",
"( ( ( ( ( ( ( ( ( ( ( ( ( ( ( / ' i                 > ^ ' H               k [ ` ` _ ) / / ( ( ( ( ( ( ( ( ( ( ( ( ( ( ( ( ( ( ( ( ( ( ( ( ( ( ( ",
"( ( ( ( ) ( ( ( ( ( ( ( ( ( ( / ' A                   : ( q               O i g F P ^ ` ` ) / ( ( ( ( ( ( ( ( ( ( ( ( ( ( ( ( ( ( ( ( ( ( ( ( ( ",
"( ) ( ( ( ( ( ( ( ( ( ( ( ( ( ( ` P                     ; O                       . # w D ! ' ) / ( ( ( ( ( ( ( ( ( ( ( ) ( ( ( ( ( ( ( ( ( ( ( ",
"( ( ( ( ( ( ( ( ( ( ( ( ( ( ( ( ( ~ #                                       X &           O i Y ' ) / ( ( ( ( ( ( ( ( ( ( ( ( ( ( ( ( ( ( ( ) ( ",
"( ( ( ( ( ( ( ( ( ( ( ( ( ( ( ( / ` i           .   %  .o.                  % 3.>. .l X       . i Q ` ( / ) ( ( ( ( ( ( ( ( ( ( ( ( ( ( ( ( ( ( ",
"( ( ( ( ( ( ( ( ( ( ( ( ( ( ( ( / ' p             M 5.8.&.                  $ 7.8.8.8.1.{ %       X A ` ( / ( ( ( ( ( ( ( ( ( ( ( ( ( ( ( ( ( ( ",
"( ( ( ( ( ( ( ( ( ( ( ( ( ( ( / ' A             ..8.8.8.+.                  % 7.8.8.8.8.8.7. .$       q ^ _ / ( ( ( ( ( ) ( ( ( ( ( ( ( ( ( ( ( ",
"( ( ( ( ( ( ( ( ( ( ( ( ( ( ( ` J               %.8.-.x .                     x @.7.8.8.8.8.8.5.m       # Y ` / ( ( ( ( ( ( ( ( ( ( ( ( ( ( ( ( ",
"( ( ( ( ( ( ( ) ( ( ( ( ( ( ) ~ #           .   & c .                             % Z 3.8.8.7.8.8.%.$     X L ` / ( ( ( ( ( ( ( ( ( ( ( ( ( ( ( ",
"( ( ( ( ( ( ( ( ( ( ( ( ( / ` i                                                 .     o Z 7.8.8.8.8.2.6     . P ` / ( ( ( ( ( ( ( ( ( ( ( ( ( ( ",
"( ( ( ( ( ( ( ( ( ( ( ( ( ) Y               9 C $                                   .     & +.8.8.8.8.7.9     O T _ / ( ( ( ( ( ) ( ( ( ( ( ( ( ",
"( ( ( ( ( ( ( ( ( ( ( ( / ' j       .   4 *.8.8.|                                             n 7.8.8.8.7.7     = / ) ( ( ( ( ( ( ( ( ( ( ( ( ( ",
"( ( ( ( ( ( ( ( ( ( ( ( / ' i     .   b 8.8.8.5.b   .                                       .   9 7.8.8.8.2.%     t ` / ( ( ( ( ( ( ( ( ( ( ( ( ",
"( ( ( ( ( ( ( ( ( ( ( ( / ` w   .   v 8.8.8.8.c   .                           .               .   b 8.8.8.8.%.  .   F ` / ( ( ( ( ( ( ( ( ) ( ( ",
"( ) ( ( ( ( ( ( ( ( ( ( / _ 0     % 3.8.8.7.8.M                                                 .   X.8.8.8.8.B     # ~ ) / ( ( ( ( ( ( ( ( ( ( ",
"( ( ( ( ( ( ( ( ( ( ( ( ( / #     | 8.8.8.8.8.8                           . b c                     $ 2.8.8.8.5.1     i ' / ( ( ( ( ( ( ( ( ( ( ",
"( ( ( ( ( ( ( ( ( ( ( ( ` J       ;.8.%.C %.m                             9 8.8.c                     n 8.8.8.8.o.      P _ / ( ( ( ( ( ( ( ( ( ",
"( ( ( ( ( ( ( ( ( ( ( ( _ <   .   N <.7                                   6 8.8.m                     . ;.8.8.8.8.7     w _ / ( ( ( ( ( ( ( ( ( ",
"( ( ( ( ( ( ( ( ( ( / ` J                 .                               l 8.8.z   .                   n 8.8.8.8.@.      P _ / ( ( ( ( ( ( ( ( ",
"( ( ( ( ( ( ( ( ( ( ( ( =                                             .   B 8.7.1                       . ,.8.8.8.8.4     w ` / ( ( ( ( ( ( ( ( ",
"( ( ( ( ( ( ( ) ( / ' s                                                   -.8.;.                      .   C 8.8.8.8. .    . T _ ( ( ( ( ( ( ( ( ",
"( ( ( ( ( ( ( ( / ` K                                               .   b 8.8.V   .                       1 7.8.8.8.2.o     s ' / ( ( ( ( ( ( ( ",
"( ( ( ( ( ( ( / ) ~ #                                                 $ ,.8.1.o                             &.8.8.8.8.c     * / ( ( ( ( ( ( ( ) ",
"( ( ( ( ( ( ( ( _ q                                               .   Z 8.8.b                           .   m 8.8.8.8.+.  .   K ` / ( ( ( ( ( ( ",
"( ) ( ( ( ( / ' A                                                     & @.Z                                 ; 7.8.8.8.2.o     p ' / ( ( ( ( ( ( ",
"( ( ( ( ( ( ) Q X                                                                                             *.8.8.8.8.l     = ( ( ( ( ( ( ( ( ",
"( ( ( ( ( / ` t           .                                           : X                                 .   Z 8.8.8.8.}   .   Y ) ( ( ( ( ( ( ",
"( ( ( ( ( ) Y .                                                   # F T                                       l 8.8.8.8.-.      S ` / ( ( ( ( ( ",
"( ( ( ( / ' d   .       & b o                                 , F ^ ] J                                       $ 5.8.8.8.7.$     i ' / ( ( ( ( ( ",
"( ( ( ( ( ) >         u 3.8.+.                            e I ` ` ( ` g                                         ;.8.8.8.8.9     : ) / ( ( ( ( ( ",
"( ( ( ( ( / #       & 5.8.8.C                         : P ' _ / / / ) >                                         +.8.8.7.8.M     O ~ ) ( ( ( ( ( ",
"( ( ( ( ( / #   .   { 8.8.n     .                   f _ _ / ( ( / _ Y                                       .   Z 8.8.8.8. .      Y ) ( ( ( ( ( ",
"( ( ( ( ( ) ;   .   #.8.>..                     X J ' / / ( ( ( / ' t                                           n 8.8.8.8.#.  .   J ` / ( ( ( ( ",
"( ( ( ( / ` r   .   v -.b   .   9 o.$         X P ' / ( ( ( ( / ` L                                             x 8.8.8.8.-.  .   A ' / ( ( ( ( ",
"( ( ( ( ( ` A   .             o 1.8.8         J ' / ( ( ( ( / _ Q #                                         .   8 8.8.8.8.>.      s ' / ( ( ( ( ",
"( ( ( ( ( ) ! +       . .     { 8.>..       g ' / ( ( ( ( ( _ ~ -                                               5 8.8.8.8.1.      i ' / ( ( ( ( ",
"( ( ( ( ( / ' k             4 8.8.Z   .   ; ) ( ( ( ( ( / ) ~ ;                                             .   4 8.8.8.8.1..     w ` ( ( ( ( ( ",
"( ( ( ( ( ( ( ` r       .   . Z +.o       J ` / ( ( ( / ) / :                                                   4 8.8.8.8.1..     < _ ( ( ( ( ( ",
"( ( ( ( ( ( ( ( ) i                     , _ / ( ( ( / ) ( >                                                     4 8.8.8.8.2..     > ) ( ( ( ( ( ",
"( ( ( ( ( ( ( ( ( ` P t > i e   .       P _ / ( ( ( ) ) <                                                       4 8.8.8.8.2..     - ) ( ( ( ( ( ",
"( ( ( ( ( ( ( ( ( / ` ` _ ' _ e       h _ / ( ) ( ( ) <                                                     .   2 8.8.8.8.2.X     = ( ( ( ( ( ( ",
"( ( ( ( ( ( ( ( ( ( / / / / ( _ P G E ` ( ( ( ( / ` t                                                           2 8.8.8.8.2..     # / ( ( ( ( ( ",
"( ( ( ( ( ) ( ( ( ( ( ( ( ( ( ( _ ` ) ( ( ( ( / ` k   .                                                         2 8.8.8.8.2..     # ~ ) ( ( ( ( ",
"( ( ( ( ( ( ( ( ( ( ( ( ( ( ( ( ( / / ( ( ( ( ) Q O                                                             2 8.8.8.8.2..     + ~ ) ( ( ( ( ",
"( ( ( ( ( ( ( ( ( ( ( ( ( ( ( ( ( ( ( ( ( ( / ` i                                                               1 8.8.8.8.1..     O ~ ) ( ( ( ( ",
"( ( ( ( ( ( ( ( ( ( ( ( ( ( ( ( ( ( ) ( ( ( ) Q X                                                               1 8.8.8.8.1..     O ~ ( ( ( ( ( ",
"( ( ( ( ( ( ( ( ( ( ( ) ( ( ( ( ( ( ( ( ( / ' g                                                                 2 8.8.8.8.1.      O ! ) ( ( ( ( ",
"( ( ( ( ) ( ( ( ( ( ( ( ( ( ( ( ( ( ( ( ( ( ) :                                                                 4 8.8.8.8.<.      O Q ) ( ( ( ( ",
"( ( ( ( ( ( ( ( ( ( ( ( ( ( ( ( ( ( ( ( / _ Y                                                                   5 8.8.8.8.>.      O ~ ) / ( ( ( ",
"( ( ( ( ( ( ( ( ( ( ( ( ( ( ( ( ( ( ( ( / ` D                                                                   8 8.8.7.8.-.      O ~ ) ( ( ( ( ",
"( ( ( ( ( ( ( ( ( ( ( ) ( ( ( ( ( ( ( ( / ' g   .                                                           .   x 8.8.8.8.*.  .   O Q ) ( ( ( ( ",
"( ( ( ( ( ( ( ( ( ( ( ( ( ( ( ( ( ( ( ( / ' a   .                                                               & V M M B c       O ! ) / ) ) / ",
"( ( ( ( ( ( ( ( ( ( ( ( ( ( ( ( ( ( ( ( / ' i                                                                                     O ! ) ( / ( ( ",
"( ( ( ( ( ( ( ( ( ( ( ( ( ( ( ( ( ( ( ( ( ` k O * # # # # # # # # # # # # # # # # # # # # # # # # # # # # # # # * * = = = % # # # - ~ ) / ( ( ( ",
"( ( ( ( ( ( ( ( ( ( ( ( ( ( ) ( ( ( ( ( ( ( ( / / / / / / / / ( / / / / / ( / / / / / ( / / ( / / / / / ( / / / / / / / / / / / / / ( ( ) / ( ( ",
"( ( ( ( ( ( ( ( ( ( ( ( ( ( ( ( ( ( ( ( ( ( ( ( ( ( ) ( ( ( ( ) ( ( ) ( ( ) ( ( ( ( ( ) ( ( ( ) ) ( ( ( ( ( ) ( ( ( ( ) ) ) ( ) ( ) / ( ( ( ( ) ",
") ( ( ( ( ( ( ( ( ( ( ( ( ( ( ( ( ( ( ( ( ( ( ( ( ( ( ( ( ( ( ( ( ( ( ( ( ( ( ( ( ( ( ( ( ( ( ( ( ( ( ( ( ( ( ( ( ( ( ( / ( / ( / ( ( ( ( ( ( / ",
"( ( ( ( ( ( ( ( ( ( ( ( ( ( ( ( ( ( ( ( ( ( ( ( ( ( ( ( ( ( ( ( ( ( ( ( ( ( ( ( ( ( ( ( ( ( ( ( ( ( ( ( ( ( ( ( ( ( ( ( ( ( ( ( ( / ( ( ( ) / ( ",
"( ( ( ( ( ( ( ( ( ( ( ( ( ( ( ( ( ( ( ( ( ( ( ( ( ( ( ( ( ( ( ( ( ( ( ( ( ) ( ( ( ( ( ( ( ( ( ( ( ( ( ( ( ( ( ( ( ( ( ( ( ( ( ( ( ) ( ( ( ( ( ( ",
"( ( ( ( ( ) ( ( ( ( ( ( ( ( ( ( ( ( ( ( ( ( ( ( ( ( ( ( ( ( ( ( ( ( ( ( ( ( ( ( ( ( ( ( ( ( ( ( ( ) ( ( ( ( ( ( ( ( ( ( ( ( ( ( ( ( ( ( ) ( ( ( ",
"( ( ( ( ( ( ( ( ) ( ( ( ( ( ( ( ( ( ( ( ) ( ( ( ( ( ( ( ( ( ( ( ( ( ( ( ( ( ( ( ( ( ( ( ( ( ( ( ( ( ( ( ( ( ( ( ( ( ( ( ( ( ( ( ( ( ( ( / ( ( ( "
};
