/* XPM */
static char *ndl__[] = {
/* columns rows colors chars-per-pixel */
"22 22 198 2",
"   c #000A00080008",
".  c #00BB008C0052",
"X  c #0000003700FD",
"o  c #010D010B0108",
"O  c #01CE015800CB",
"+  c #022D01AB010E",
"@  c #02E602280144",
"#  c #01DC01CC01B6",
"$  c #0331031F0308",
"%  c #040F0352026E",
"&  c #05670406025E",
"*  c #06D4051502FE",
"=  c #03D403D103CF",
"-  c #053E04A803F4",
";  c #058105750566",
":  c #06540511038D",
">  c #05F8056B04C2",
",  c #067305BE04E5",
"<  c #060D060E060F",
"1  c #091F06DE0446",
"2  c #086806AC0498",
"3  c #0986076A04E3",
"4  c #0E1D0B2E07AA",
"5  c #0BB80BFF0C5D",
"6  c #11580BE30556",
"7  c #11080C0A06B3",
"8  c #128A0D1B0697",
"9  c #14F011B20E81",
"0  c #1D5914E30ABE",
"q  c #141E138512CD",
"w  c #137D13A413D3",
"e  c #14FB14DF14BD",
"r  c #1E761EE71F6F",
"t  c #223315DA0709",
"y  c #223317350A04",
"u  c #21B717F50C3F",
"i  c #28E71C9B0DFE",
"p  c #27BD1D6710FF",
"a  c #29DF1EB01144",
"s  c #2BA3207F1320",
"d  c #2BCE209F1333",
"f  c #2C0D20D61360",
"g  c #2FAA237B14DB",
"h  c #3BA2280F1094",
"j  c #3A332BC61A77",
"k  c #3BB52C781A2E",
"l  c #3CA92D2D1A97",
"z  c #3F422F0C1B98",
"x  c #3F422F151BAB",
"c  c #2A1328ED2792",
"v  c #366D2C8C20AF",
"b  c #2CB22F483271",
"n  c #32AE328E3268",
"m  c #37CD36F035E8",
"M  c #3C303B2F39FA",
"N  c #3BDE3BB23B7E",
"B  c #3DA03CF33C25",
"V  c #3DD13E413ECA",
"C  c #4CA8344416FF",
"Z  c #40D730481C6A",
"A  c #516639571C78",
"S  c #4D9839C121F3",
"D  c #4CA63A4D2448",
"F  c #411435BB281C",
"G  c #45DD3A832CE2",
"H  c #5692413A279E",
"J  c #580C417B2693",
"K  c #58A7427827F9",
"L  c #6C194B16237F",
"P  c #692A4E462E02",
"I  c #79C556EE2D20",
"U  c #74F35641316C",
"Y  c #76A158A834CE",
"T  c #786459A734C4",
"R  c #459E45734540",
"E  c #461149B74E18",
"W  c #49CC49B1498F",
"Q  c #4F2952AB56DE",
"!  c #546154355401",
"~  c #54EB54C35495",
"^  c #55A459AB5E8B",
"/  c #59DC59AA596D",
"(  c #5C0E5BC15B65",
")  c #647963C162E4",
"_  c #6A596A2369E2",
"`  c #6EC96D9A6C2E",
"'  c #78DA783B777D",
"]  c #751278E27D75",
"[  c #80A05FC93860",
"{  c #882766273C3C",
"}  c #8B1267943CFC",
"|  c #8F336AED3F66",
" . c #977C6DBC3BA6",
".. c #9EEE73013E4A",
"X. c #923A6D92418E",
"o. c #A9DB7E7E4A75",
"O. c #B00D831C4D2D",
"+. c #BFEC8E845339",
"@. c #C0368EF353D5",
"#. c #C1F18BA44A7C",
"$. c #C1DC8FE753F3",
"%. c #C54991A253A7",
"&. c #C4F092B25664",
"*. c #C65093B856F8",
"=. c #C6AE943D571D",
"-. c #C84E94B256C2",
";. c #C9D1953E5644",
":. c #C90795BA5822",
">. c #CC31980F597F",
",. c #CD4A99725B3B",
"<. c #CFE59AD15B1F",
"1. c #D0729B1A5B16",
"2. c #D2069BFD5B26",
"3. c #D4109E0D5D3C",
"4. c #D4899E455D27",
"5. c #E048A6F16223",
"6. c #E60AAA1F6231",
"7. c #E591AAE86484",
"8. c #E628AB6664E4",
"9. c #E562AB0B650A",
"0. c #E710AC116546",
"q. c #E7FFACBC65A1",
"w. c #E963AC4662F1",
"e. c #EA83AD666410",
"r. c #E8EAAD716612",
"t. c #E9A8ADFD665E",
"y. c #EA10AE50669D",
"u. c #EA88AEA766CC",
"i. c #EB18AF106708",
"p. c #EB5EAF47672B",
"a. c #EBE8AFAD6767",
"s. c #EC77B01867A7",
"d. c #ECF7B07667DA",
"f. c #ECD9B0A2685E",
"g. c #EE12B16F68AE",
"h. c #EF1BB20E68CC",
"j. c #EF59B23A68E1",
"k. c #EF9FB27D6920",
"l. c #F11DB4016AAB",
"z. c #F1E2B4206A04",
"x. c #F211B4416A15",
"c. c #F302B4FB6A8D",
"v. c #F366B5416AAE",
"b. c #F310B5316AF3",
"n. c #F2D1B56E6BC5",
"m. c #F45DB5FD6B25",
"M. c #F48FB61E6B31",
"N. c #F52FB69C6B85",
"B. c #F5C0B7016BB7",
"V. c #F5C1B76C6C98",
"C. c #F6CCB7F66C8F",
"Z. c #F6DDB86A6D5D",
"A. c #F832B90C6D0A",
"S. c #F80CB99E6EB4",
"D. c #F8C2B93F6D08",
"F. c #F9EBBA1B6D8A",
"G. c #FA63BA776DC2",
"H. c #F965BA536EA3",
"J. c #FB48BB206E23",
"K. c #FD65BCB06F0A",
"L. c #FDF4BD1F6F53",
"P. c #FE4BBD856F8E",
"I. c #FC2FBC777000",
"U. c #FE2BBE16712F",
"Y. c #FFFFBFB970D7",
"T. c #FF2DBECF718F",
"R. c #FF53BF24721F",
"E. c #FFFFC03A72D3",
"W. c #FFFFC56F7432",
"Q. c #FFFFC594753D",
"!. c #77857C3881DB",
"~. c #7F6E816883C7",
"^. c #8ACD8A9B8A5E",
"/. c #8CF98C638BAE",
"(. c #9A3A9A3A9A3A",
"). c #A45EA41AA3D1",
"_. c #A2FCA489A665",
"`. c #A5A9A574A536",
"'. c #A76BA725A6D0",
"]. c #A7BBA742A6B2",
"[. c #AA23A9CCA965",
"{. c #ADD4B138B54A",
"}. c #B84CB7D5B746",
"|. c #BB80BAFCBA5E",
" X c #B8EABB63BE5C",
".X c #C7ECC7E0C7D1",
"XX c #C194C4C5C887",
"oX c #D942D838D6F6",
"OX c #D5CFD737D8E8",
"+X c #DB96DAE2DA09",
"@X c #DAD5DCF2DF7B",
"#X c #E019E158E2D6",
"$X c #E782E61FE479",
"%X c #EE33EEB8EF56",
"&X c #F1ACF16DF121",
"*X c #F1A1F1A9F1B3",
"=X c #F0AFF2B0F518",
"-X c gray100",
/* pixels */
"a.a.a.a.a.z.a.a.a.a.q.a.a.a.a.a.k.a.a.a.a.a.",
"a.a.a.a.a.3.M.v.8.z.G.a.a.a.a.a.p.p.a.a.a.a.",
"a.a.a.a.v.k x 3.W.O.P Z.Z.k.8.a.p.p.a.a.a.a.",
"a.a.a.a.G.S   8 ..g   U #.6.T.d.q.a.a.a.a.a.",
"a.a.a.q.L.{   5 B =   w ) v L q.C.q.p.a.f.p.",
"a.a.a.a.k.D   ` /.    e .X=X!.u %.G.q.k.p.p.",
"a.a.8.G.|   m N       $   B $XXX9 =.C.a.p.f.",
"a.a.8.T.A E -XR   =         = oX{.i k.p.a.a.",
"p.p.f.k.0 ^.' =   =   _ !     n -XQ I T.q.a.",
"f.8.T.}   &       =   ).W   =   |.OX0 8.k.a.",
"a.v.*.1     =   =   c (.    =   ! -Xb  .G.q.",
"a.v.x   1     %     j 1         e -X] C T.q.",
"v.,.  ^./   =   Z =.:.            +X Xt z.a.",
"v.<.1 ' c M   Y Z.W.J   &     =   |.#X8 5.k.",
"a.M.H   / ^ h I.G.T           =   [.%X1 1.v.",
"a.k.8.X.H 8 :.L.{   %         =   `.*X% =.M.",
"a.a.a.L.v.9.G.o.              =   `.*X  $.C.",
"a.a.a.8.a.a.v.l   & %     % % =   ].*X  +.C.",
"a.a.a.a.a.z.<.&               &   _.@X  $.Z.",
"a.a.a.a.q.z.<.f s f s s f f f f a F G a :.v.",
"a.a.a.a.a.a.a.k.d.k.k.d.k.k.k.k.k.a.w.k.p.a.",
"a.a.a.a.a.a.a.a.a.a.a.a.a.a.a.a.a.p.k.a.a.a."
};
