/* XPM */
static char *ndl__[] = {
/* columns rows colors chars-per-pixel */
"24 24 222 2",
"   c #000A00080007",
".  c #009900710041",
"X  c #00CF00970052",
"o  c #012701240122",
"O  c #01B900000000",
"+  c #030900000000",
"@  c #01CB015200C7",
"#  c #026801CC010F",
"$  c #02F302360154",
"%  c #035F02830177",
"&  c #01E201DC01D6",
"*  c #0345029701C3",
"=  c #02D502D202CD",
"-  c #074D00810000",
";  c #03AE02BF01A0",
":  c #048A036101FD",
">  c #0450039402B2",
",  c #05080422030D",
"<  c #067904D202D6",
"1  c #03CD03CC03CB",
"2  c #057A04BD03D8",
"3  c #054605430540",
"4  c #0A9803760000",
"5  c #0956071D0473",
"6  c #0C7609A70649",
"7  c #09A509A609A6",
"8  c #0B790AAE09BA",
"9  c #0BAE0B840B52",
"0  c #15DB0BC10000",
"q  c #14850CA9033A",
"w  c #109A0A8503E7",
"e  c #10150BFA070C",
"r  c #16460F4A074B",
"t  c #134C0F510A8B",
"y  c #0FD10F670EE8",
"u  c #1F23167F0C21",
"i  c #1CB316350E6C",
"p  c #0BA00E6811BE",
"a  c #1051103E1027",
"s  c #1233120011C4",
"d  c #139B13761348",
"f  c #103A124A14C4",
"g  c #1412143E1474",
"h  c #152C150D14E7",
"j  c #17E817CD17AD",
"k  c #19B918CC17A0",
"l  c #1A2C199918E9",
"z  c #17D618B019B6",
"x  c #1E831E6A1E4C",
"c  c #29A51A3C07BE",
"v  c #28251DF511C8",
"b  c #29B31F08123A",
"n  c #278920051702",
"m  c #2C6D21151379",
"M  c #2DF022351423",
"N  c #316F250E1633",
"B  c #30ED255A1786",
"V  c #3A1026D10FB8",
"C  c #3CFF28B41059",
"Z  c #3D502DA81ADF",
"A  c #1CEB1FE22370",
"S  c #204D20D22171",
"D  c #24EE24CF24A6",
"F  c #2115249D28DA",
"G  c #29AC2B462D31",
"H  c #2BCC2BEE2C17",
"J  c #2E262E012DD4",
"K  c #2FF6315532FA",
"L  c #3A563A353A0E",
"P  c #3E803E3B3DE8",
"I  c #475531811756",
"U  c #453832E21CE0",
"Y  c #4EF3364918B1",
"T  c #5451399A198A",
"R  c #4FED39BF1F22",
"E  c #403F31801FCD",
"W  c #4B43380C20FD",
"Q  c #4EFB39B3202B",
"!  c #55673F73251C",
"~  c #55EC3FF925A3",
"^  c #55FC400925B3",
"/  c #5AD3410C221C",
"(  c #587241F526FC",
")  c #606D47ED2A87",
"_  c #6ACF4FC82EFD",
"`  c #6F69518B2DB3",
"'  c #712454413197",
"]  c #74D757BB34CB",
"[  c #78A559D734E1",
"{  c #41D841024002",
"}  c #452044F544C3",
"|  c #55D655B75593",
" . c #55D459B55E5C",
".. c #5D055CC55C78",
"X. c #69CB68D667B1",
"o. c #700B6EFA6DB3",
"O. c #68F86C9A710A",
"+. c #6A186D6E717D",
"@. c #778A77537711",
"#. c #77207A1D7DB4",
"$. c #7A8B7B957CDE",
"%. c #7FF17FBD7F7E",
"&. c #89F363F83663",
"*. c #838B621439E3",
"=. c #8E5867CB3989",
"-. c #9B27738A4401",
";. c #9D6F753B44FC",
":. c #9FE577124615",
">. c #A41B7A3547EE",
",. c #A5F17B9348BB",
"<. c #ABA77E4E47E3",
"1. c #AB457F554A97",
"2. c #ADD77FD948A8",
"3. c #80137FE67FB1",
"4. c #AD0680D94BD6",
"5. c #B032804646CC",
"6. c #B1A7844C4DDE",
"7. c #B344857F4E94",
"8. c #B5B0874C4FA0",
"9. c #BA758ADD51C2",
"0. c #BC648C4A5292",
"q. c #BECE8E545429",
"w. c #C27290CC5537",
"e. c #C71594775743",
"r. c #CA45963B57CD",
"t. c #C985967E5943",
"y. c #CED899C45A11",
"u. c #D5749EF55D8F",
"i. c #DC8EA43E60AC",
"p. c #DE79A5C361B6",
"a. c #DF94A6B26272",
"s. c #DF38A7056393",
"d. c #E07CA81E647A",
"f. c #E220A85E630E",
"g. c #E0DEA85D648F",
"h. c #E422A9DE63F3",
"j. c #E43BAADF660A",
"k. c #E5ADAB0864A8",
"l. c #E653ABA86542",
"z. c #E812AC51649D",
"x. c #E744AC38655D",
"c. c #E838ACED65C6",
"v. c #E861AD1765F2",
"b. c #E826ADCD67C9",
"n. c #E87EAD2065E4",
"m. c #E8BCAD4165E5",
"M. c #E8FDAD846627",
"N. c #E9A1ADFA6665",
"B. c #E880AD9F66F8",
"V. c #EA29AE6066A2",
"C. c #EAA3AEBB66D8",
"Z. c #EAD4AEDF66ED",
"A. c #EB5EAF466729",
"S. c #EBEFAFB26768",
"D. c #E9E1AF156885",
"F. c #ECE7B06C67D8",
"G. c #ED39B0B16810",
"H. c #EDBCB10A6834",
"J. c #EE3BB168686B",
"K. c #EED4B1DB68AF",
"L. c #F030B2DC6946",
"P. c #F0AFB349699B",
"I. c #F15EB3F56A33",
"U. c #F1D1B41469FD",
"Y. c #F0B9B4346B94",
"T. c #F2D0B4E66A99",
"R. c #F3BAB5806AD4",
"E. c #F41AB5C56AF9",
"W. c #F526B6786B66",
"Q. c #F5D7B7106BB9",
"!. c #F65CB7A96C6C",
"~. c #F69DB7A56C16",
"^. c #F752B8426C95",
"/. c #F851B8EA6CD6",
"(. c #F720B8616D16",
"). c #F906B9766D2F",
"_. c #F9E1BA166D8A",
"`. c #FAA7BAA76DDC",
"'. c #FC29BB1A6D18",
"]. c #F905BA046E57",
"[. c #F982BA346E3C",
"{. c #F91FBA8B6F73",
"}. c #FAE6BAD76DF9",
"|. c #FC14BBCA6EA5",
" X c #FBFFBBF86F22",
".X c #FC6BBC6B6F9D",
"XX c #FD0DBC716EE9",
"oX c #FF47BE0D6FC7",
"OX c #FC12BC9D7076",
"+X c #FCA5BD3570DE",
"@X c #FD88BD697076",
"#X c #FDB7BE357176",
"$X c #FFD1BEC170AE",
"%X c #FFE8BF0A7133",
"&X c #FF80BF417228",
"*X c #FFFFC9147657",
"=X c #80D48177823B",
"-X c #8252855288EB",
";X c #82A987068C3D",
":X c #8F958E868D41",
">X c #9B6E9AC699FD",
",X c #996A9B8E9E20",
"<X c #9FBD9F859F42",
"1X c #9FC2A053A105",
"2X c #9FD4A175A368",
"3X c #A088A185A2B4",
"4X c #A1CEA30CA489",
"5X c #A110A40FA7AF",
"6X c #A4CBA4D0A4D7",
"7X c #A5C5A9FCAF0C",
"8X c #ABECABA3AB4D",
"9X c #B26CB209B192",
"0X c #B936B7AEB5D8",
"qX c #BE62BD41BBE5",
"wX c #C363C72BCBB4",
"eX c #CBAACB79CB3D",
"rX c #CF55CF07CEAA",
"tX c #D369D5FED917",
"yX c #E02DE094E110",
"uX c #FA62F9C2F900",
"iX c #FCF7FC00FACB",
"pX c gray100",
/* pixels */
"S.S.S.S.S.S.S.x.S.S.S.x.S.S.S.S.S.S.S.S.S.S.S.S.",
"S.S.S.S.L.k.L./.x.S.T./.S.S.S.S.S.S.S.S.S.S.S.S.",
"S.S.S.S._.,.m 8._.~.w.;._.S.k.S.S.S.S.S.S.S.S.S.",
"S.S.S.x./.6.    ] S.b   1._.OX/.k.S.S.S.S.S.S.S.",
"S.S.S.x.L.u.e     B ,   t Z T 5..XU.x.L.S.S.S.S.",
"S.S.S.S.L.h.i   :X$.    s tX7XG C p./.x.S.S.S.S.",
"S.S.S.S.W.(   2 ..l       { qXpX-X6 t.~.S.S.S.S.",
"S.S.S.U.t.  H 9Xn   1         P pX5Xq p.L.S.S.S.",
"S.S.S._.1.f iXeX1 1     s s     L pX+.I OXx.S.S.",
"S.S.k.%X/ F o.h     2   @.%.  7   <XpXl 4._.x.S.",
"S.x./.0.            1   8X|   2   K pX#.V _.S.S.",
"S.L.k.b   : 2     1   S 6X    1     eXyX5 y.T.S.",
"k._.'                 N 8       2   %.pXF &.OXS.",
"L.x.q K >X    ,   Z 9.e.        2   } pX .Y %Xx.",
"S.S.: =XX.8 s   *.~.*X_   :         D pX-Xc _.D.",
"S.).(   7 0Xp ` %X_.;.              j pX,X0 Y.S.",
"S.S.p.U v A i k._.>.:               h pX2X4 D.L.",
"S.S.L.~.k.=.q.%X8.,                 h pX4X  h.L.",
"S.S.S.c.L.OX~.S.M                   h pX3X  d.L.",
"S.S.S.S.S.k.~.1.  , , : : : : : 2   l pX3X  s.L.",
"S.S.S.S.S.S._.[   :                 s wX+.: p.U.",
"S.S.S.S.S.k.~.;.W ( ! ^ ^ ^ ^ ^ ! ! ! ! ! ( f.S.",
"S.S.S.S.S.S.D.W.|._._._._.|._._._._._.|._.).S.S.",
"S.S.S.S.S.S.S.S.k.S.k.S.k.S.c.c.x.S.c.k.S.S.S.S."
};
