/* XPM */
static char *ndl__[] = {
/* columns rows colors chars-per-pixel */
"33 33 108 2",
"   c #00DD00BB00A0",
".  c #09C107440448",
"X  c #08EF07EA06B4",
"o  c #075107D5087B",
"O  c #09DF09E809F3",
"+  c #18970F530443",
"@  c #10100E540C41",
"#  c #1B9A116A0573",
"$  c #160A107209BC",
"%  c #1B5B145F0BFE",
"&  c #0C330FAC13D6",
"*  c #11C4123212AA",
"=  c #13E9176C1BA3",
"-  c #1D661D221CD2",
";  c #2B981CA10AEC",
":  c #22271A0B1051",
">  c #347F22A20D9A",
",  c #2C36210C13B3",
"<  c #32762594161D",
"1  c #39FB29DB1682",
"2  c #370729741934",
"3  c #3D252D891ACD",
"4  c #239423672330",
"5  c #2CBB2C8B2C51",
"6  c #330E335F33C0",
"7  c #36F938C13AE4",
"8  c #3A7E3AD13B38",
"9  c #43FA32121C96",
"0  c #488434041B6A",
"q  c #489B36111FD3",
"w  c #4C6538D22154",
"e  c #52013D8D247C",
"r  c #5F1F46DE29C3",
"t  c #6009477D2A08",
"y  c #610C48452A89",
"u  c #6A344F172E8D",
"i  c #744C566C3291",
"p  c #7645581133D4",
"a  c #7C085C2035D6",
"s  c #7FE25F57384A",
"d  c #3EE0411C43E4",
"f  c #43CC43C843C2",
"g  c #4D0F4E134F4C",
"h  c #5060500A4FA3",
"j  c #5757571E56DA",
"k  c #59C758865704",
"l  c #513554675835",
"z  c #5D955D635D27",
"x  c #610D604E5F68",
"c  c #640163A56335",
"v  c #673267CD688D",
"b  c #6FC26F7B6F25",
"n  c #701B6FDC6F91",
"m  c #78DA78977849",
"M  c #81145FA53784",
"N  c #802B5F5237EC",
"B  c #837B61E939A1",
"V  c #8A25672B3D30",
"C  c #8F836ADA3EDC",
"Z  c #94386EFB4247",
"A  c #9B1B73AF4466",
"S  c #A25D788D4648",
"D  c #A9CC7D864855",
"F  c #ADD781744C31",
"G  c #B3E1858D4DF5",
"H  c #B4358729511B",
"J  c #B7D7894B5171",
"K  c #BC458CA3538E",
"L  c #C0BC8F87547A",
"P  c #C463928756B0",
"I  c #C6FF94DE589C",
"U  c #CA47972259C0",
"Y  c #CDE199505A3C",
"T  c #D55A9F545E7F",
"R  c #D78EA0855E7A",
"E  c #D8ECA1835F02",
"W  c #DC90A483613F",
"Q  c #E6E5ABFF6550",
"!  c #EB84AF62673B",
"~  c #ECBCB04B67C3",
"^  c #EEBCB1EC68F4",
"/  c #F4EEB6656B59",
"(  c #F7B0B8A16CF5",
")  c #FBAFBB876E89",
"_  c #FE0ABDFC7082",
"`  c #844B83F88399",
"'  c #81FF84C18811",
"]  c #8BFC8BA38B39",
"[  c #957C952994C6",
"{  c #99B1987A9706",
"}  c #97C89AFB9ED3",
"|  c #9E509DC09D15",
" . c #AD11ACD3AC8A",
".. c #B35CB313B2BC",
"X. c #B9CFB999B957",
"o. c #C6CBC688C638",
"O. c #CAA7CA7CCA48",
"+. c #D237D11ECFCD",
"@. c #D228D1F7D1BC",
"#. c #D859D729D5BD",
"$. c #DE57DE2DDDFB",
"%. c #E070DFCBDF00",
"&. c #E0A1E076E042",
"*. c #E4B3E481E445",
"=. c #E8EBE7E1E6A3",
"-. c #EC99EC42EBD9",
";. c #F408F3B5F351",
":. c #FFC6FFC4FFC0",
/* pixels */
"! ! ! ! ~ ! ! ! ! ! ! ! ! ! ! ! ! ! ! ! ! ~ ! ! ! ~ ! ! ~ ~ ! ! ! ",
"! ! ~ ! ! ~ ! ^ / Q ! ! ! ! ! ! ! ! ! ! ! ~ ! ~ ! ! ~ ! ! ! ! ~ ! ",
"~ ~ ! ! ! ! ^ W P ) / ! ! ! ^ ) ! ! ! ! ! ! ! ! ~ ~ ! ! ! ! ! ~ ~ ",
"! ! ! ~ ! ! / L   e T ) Q / Y i ! ! ! ! ! ~ ! ! ! ! ! ~ ~ ~ ! ! ! ",
"~ ! ! ! ! ! / U     . C ) Q ,   t ) / / Q Q ! ! ~ ! ! ! ! ! ! ~ ! ",
"! ! ~ ~ ! ! ~ W @       M B       M J W ) ) ! Q ! ! ~ ~ ! ~ ! ! ! ",
"! ~ ! ! ~ ! ! / 9       o @       X *   > S ( ( ! ! ! ! ~ ! ~ ! ! ",
"! ! ~ ! ! ! ! ) t     h -.6   o   5 :.O.l   ; I _ Q ~ ! ! ! ~ ! ! ",
"~ ~ ! ! ! Q ) A       ..' o       X ] -.:.*.d   Z _ Q ! ! ! ! ! ! ",
"! ! ! ~ ! / T $     - X               o b -.:.`   Z _ Q ! ! ! ~ ! ",
"! ! ! ~ Q ) A   X ] ;.6             o     - O.:.`   J ) ! ! ! ~ ! ",
"~ ~ ! ! Q ) V   { :...                  o   - =.:.f + Q ^ ! ! ! ! ",
"! ! ! ! Q ) 0 = =. .j             ] v     o   v :.#.  i _ Q ! ! ! ",
"! ~ ! ! / P   o 4                 o.'   o     o @.:.v   W ^ ! ! ! ",
"! ! ! ! / 1       o             & -.r           b :.+.  a _ Q ! ! ",
"~ ! ! ) i                       | O.            4 ;.:.7 + ^ ~ ! ! ",
"! ! ( G                         d 4               X.:.]   K / ! ! ",
"! ! / 9                       w q                 m :.O.  s ) Q ! ",
"! / U     ' [             r J _ e                 f :.;.& 0 ) ! ! ",
"Q / K   7 :.f         % G ( ) T X                 4 :.:.6 # ^ ! ! ",
"! ~ T   4 v   c f   : T ) Q ) r                   * -.:.g   Q ~ ! ",
"! ! / e     - -.7   L ) Q ) s                     X &.:.z   T / ! ",
"! ! / E 1   O 8   t ) Q ) B                       X &.:.x   I / Q ",
"! ! ! / ^ J D + , E ! ( V                         o &.:.x   K ( ! ",
"! ! ~ ! ! ( ) ! ! ^ ( F                           o $.:.c   J ( ! ",
"! ! ! ! ! ! ! ! ! ! ^ <                           o $.:.x   H ( Q ",
"! ! ! ! ! ! ! ! Q ) F                             X $.:.z   H ( Q ",
"! ! ! ! ! ! ! ! Q ) u         .                   O =.:.k   H ( ! ",
"! ! ! ~ ! ! ! ! ! ( 0                             X ' } 5   G ( ! ",
"~ ~ ! ! ! ! ! ! Q / i < 9 3 3 3 3 3 3 3 3 3 3 3 3 3 ; ; 1 2 K / ! ",
"! ! ~ ! ! ! ! ~ ! ! / ( / / / / / / / / ( / / / ( ( ) ( ( / ^ ! ! ",
"! ~ ! ! ~ ~ ! ! ! ! ! Q ! ! ! ! ! ! ! ! ! Q ! ! ! Q ! Q ! ! ! ! ! ",
"! ~ ! ! ~ ! ! ~ ! ! ~ ! ! ! ! ~ ! ! ! ! ~ ! ! ! ! ~ ! ! ! ! ~ ! ~ "
};
