/* XPM */
static char *ndl__[] = {
/* columns rows colors chars-per-pixel */
"31 31 101 2",
"   c #00D700B800A1",
".  c #0A10077D0466",
"X  c #0E010A740631",
"o  c #0C7E0BF70B55",
"O  c #0FCD077D0000",
"+  c #13C70EBA08AB",
"@  c #18420FE1064D",
"#  c #13D310110B8F",
"$  c #194912D40B21",
"%  c #13C2138C134D",
"&  c #1AC419E218D4",
"*  c #229F19B60F0B",
"=  c #315324A21552",
"-  c #3C282AD81610",
";  c #36F328DD17F7",
":  c #3F2B2F0B1BB0",
">  c #19AF1CFA20E1",
",  c #1F9D22ED26E6",
"<  c #24D624EA2501",
"1  c #27B12782274A",
"2  c #2930282E26F8",
"3  c #26C72AB72F88",
"4  c #2B192C962E61",
"5  c #2C152EB631E0",
"6  c #31E4323A32A1",
"7  c #38793786365E",
"8  c #3A293B453C9A",
"9  c #40C72DA216AC",
"0  c #42F931DE1D58",
"q  c #4A3536AA1F37",
"w  c #48A536191FD7",
"e  c #4BE73A53235B",
"r  c #53423D4C22F7",
"t  c #40303F413E23",
"y  c #5D40405D1DB3",
"u  c #5677405B25D4",
"i  c #5A1B41882423",
"p  c #5D8745B02904",
"a  c #401C3FD83F88",
"s  c #62D24A022C43",
"d  c #6A334F162E8C",
"f  c #6D13513A2FCF",
"g  c #704A53A8314C",
"h  c #4064403F4013",
"j  c #4B814AFD4A5F",
"k  c #55A75748593D",
"l  c #649364536408",
"z  c #6BED6BB76B76",
"x  c #6C2F7071758F",
"c  c #7399743574F0",
"v  c #7E277DEA7D9F",
"b  c #871064743AF6",
"n  c #8E0D69FA3EB0",
"m  c #92F86C2B3D9D",
"M  c #8E106AB24040",
"N  c #92BF6DBA414C",
"B  c #975C71964441",
"V  c #9C2274F245ED",
"C  c #A06377CC4716",
"Z  c #A331797E4785",
"A  c #A42A7A8B489A",
"S  c #ADE781CD4CE2",
"D  c #B19A84774E4E",
"F  c #BEC98E63544F",
"G  c #C08B8FA254F1",
"H  c #C676939356B5",
"J  c #CA2B968D589C",
"K  c #CE289A115B37",
"L  c #D3419E425EA7",
"P  c #D7A3A0945E83",
"I  c #DDC7A5A9624F",
"U  c #E5F1AB3F64D1",
"Y  c #EB90AF6B673F",
"T  c #ECE8B06C67D7",
"R  c #EEA2B1C268B5",
"E  c #F3F1B5AF6AF9",
"W  c #F805B8B76CC0",
"Q  c #FB8BBB6E6E7D",
"!  c #FF8ABEB670E9",
"~  c #FFFFC1C472DD",
"^  c #7FA980B881FD",
"/  c #832382FC82CA",
"(  c #86DD87B988C1",
")  c #8A318A1D8A06",
"_  c #958094B893C3",
"`  c #9D0D9CBA9C56",
"'  c #A1E2A09E9F1A",
"]  c #A5C4A507A424",
"[  c #A85DA790A699",
"{  c #AA89A9EDA932",
"}  c #B630B5BAB52E",
"|  c #C064C036C000",
" . c #BEB1BF82C077",
".. c #C2EAC2B3C271",
"X. c #CCD6CC93CC43",
"o. c #D3DCD32BD257",
"O. c #E5B3E58CE55F",
"+. c #EF17EEF8EED3",
"@. c #EEE0F076F25C",
"#. c #F2D5F2C0F2A9",
"$. c #FFECFFE7FFE2",
/* pixels */
"Y Y T Y Y Y T Y Y Y Y Y Y Y Y Y Y Y Y Y Y Y Y T Y T Y Y Y Y T ",
"Y Y Y Y Y Y Y E E U Y Y Y Y Y Y Y Y Y Y Y Y Y Y Y Y T Y Y T Y ",
"Y Y T Y Y Y E S J ! R Y Y E W R Y Y Y Y T Y T T T Y Y Y Y Y Y ",
"T T Y Y Y Y W u   f U E E F 0 L R U Y Y Y Y Y Y Y Y T Y T Y Y ",
"Y Y Y T Y Y ! d     * K T *   ; W ~ Q W U Y Y Y Y Y Y T Y Y T ",
"T Y Y Y Y U W n   .   @ r       - r m P ! E U Y Y T Y Y T Y Y ",
"Y T Y T Y Y E J       8 6       1 x >   i I W Y Y Y Y Y Y T Y ",
"Y Y Y Y Y Y W m     l $.j   .   7 $.$.| 3   A Q Y Y Y Y Y Y Y ",
"Y Y Y Y Y E F .     4 1           & ^ @.$.(   b ! U Y Y T Y Y ",
"T Y Y Y Y E r   o _ l                 % [ $.[   B ! U Y Y Y Y ",
"Y Y Y Y Y E =   o.$.a                     ` $./   L E Y Y Y Y ",
"T Y Y Y Y U   / $.} o           l 6       % O.$.5 9 W Y Y T Y ",
"Y Y T U ! n   8 1               X.z   . .   z $.}   D W Y Y Y ",
"Y T Y E P +                   # O.7         % O.$.3 - W U Y Y ",
"Y Y Y E 0                 .   _ }             _ $.)   L E Y Y ",
"Y U ! b   .                   h <             j $.o.  b ! U Y ",
"Y R I #                     u q               % +.$.< 9 W Y Y ",
"U W V   & o.t           p H ~ e                 ..$.k . Y R Y ",
"Y ! B   _ ..        # D Q W L                   ' $./   L E Y ",
"Y E F   1 % 1 {   X H Q U W q               .   ( $.`   G E Y ",
"Y Y W e     ( _   B Q U W i                     / $.]   S W Y ",
"Y Y T Y s = $   = T Y W s                   .   / $.]   A W U ",
"Y Y Y T W W H g K E W f                         v $.[   B ! U ",
"Y Y Y Y U Y W Q T W S                           v $.[   N W Y ",
"Y Y Y Y Y Y Y U Y E :                       .   v $.]   M W Y ",
"Y Y T Y Y Y Y Y E J                             ( $.'   N Q U ",
"Y Y Y Y Y Y Y Y Q A                             c @.v   M Q U ",
"T Y T Y Y Y Y Y Q A X $ $ $ @ # $ $ $ @ @ $ $ + $ $ @ . N W Y ",
"Y Y T Y Y Y T Y T Y U U U U U U U U U U I U U U U U U I U R Y ",
"T Y Y Y Y T Y Y Y Y R T Y Y T Y Y Y R Y R Y R T T T R T R Y Y ",
"Y Y T Y Y Y T Y Y Y Y Y Y Y Y Y Y Y Y Y Y Y Y Y Y Y Y Y Y Y Y "
};
