/* XPM */
static char *ndl__[] = {
/* columns rows colors chars-per-pixel */
"44 44 94 2",
"   c #00A800910077",
".  c #08FC06B303F5",
"X  c #0CFB09C605F3",
"o  c #0988098D0999",
"O  c #11390CBF0760",
"+  c #11950D9308C6",
"@  c #18AB0FFC0679",
"#  c #145C104B0B6D",
"$  c #1CBC15650C94",
"%  c #144C142013EB",
"&  c #12C715411872",
"*  c #1C081BAF1B47",
"=  c #1FED18500F2C",
"-  c #28A51E891268",
";  c #2E3C226E1444",
":  c #3CD12DBE1BA7",
">  c #1C64202E24B7",
",  c #2480244A240A",
"<  c #280827BB275E",
"1  c #2D732D532D34",
"2  c #33B1333832A6",
"3  c #37E3379E374C",
"4  c #3CF53C9F3C38",
"5  c #445632701CDC",
"6  c #4993351C1C8D",
"7  c #47333610217E",
"8  c #4A78377520A3",
"9  c #4C86389520A7",
"0  c #50983C0E2368",
"q  c #3FC03F693F00",
"w  c #55F640DB278A",
"e  c #5DB645C92913",
"r  c #625249D02C69",
"t  c #68C04E4C2E8E",
"y  c #6DE8521530A9",
"u  c #71AD54EF3272",
"i  c #77B559253478",
"p  c #7D5D5D4F36D7",
"a  c #7CF05E0F3901",
"s  c #442843A44305",
"d  c #4B644ADC4A3B",
"f  c #543753AD5306",
"g  c #5BC05B695B00",
"h  c #6288614D5FD4",
"j  c #655E64E2644E",
"k  c #6B406B1B6AEF",
"l  c #733E723F710F",
"z  c #79A7786D76F4",
"x  c #7C887C307BC6",
"c  c #8506630F3A4D",
"v  c #89A566DF3D23",
"b  c #8EB46AF04006",
"n  c #93B66DFF40BE",
"m  c #9E4475E74578",
"M  c #A160787C476A",
"N  c #A5DE7BB94925",
"B  c #A9C27E884AA8",
"V  c #AEED82644CF2",
"C  c #B4AE868E4F34",
"Z  c #BB738BB95243",
"A  c #C53C92FD56B1",
"S  c #C769951758B8",
"D  c #C89C956457ED",
"F  c #CDCD998D5ADA",
"G  c #D3289D585CC4",
"H  c #D7C9A0B35E99",
"J  c #DC64A42E60BB",
"K  c #E703AC066540",
"L  c #EB92AF6D6740",
"P  c #ECBAB05767E0",
"I  c #EEB9B1CF68B6",
"U  c #F3CBB58C6ADA",
"Y  c #F7F0B8A56CB1",
"T  c #FB1ABB076E1E",
"R  c #FFFFBF087070",
"E  c #FFFFC2997294",
"W  c #821381F581C8",
"Q  c #8B628AD68A2E",
"!  c #960F95209405",
"~  c #9D189CC69C62",
"^  c #A678A5ECA546",
"/  c #AE8CAE17AD8A",
"(  c #B42BB3B4B324",
")  c #BCA2BC12BB65",
"_  c #C53FC4B0C403",
"`  c #CCA5CC44CBCF",
"'  c #D102D093D00E",
"]  c #D376D32CD2D2",
"[  c #DAA2DA50D9EF",
"{  c #E48CE446E3F3",
"}  c #EC6BEC21EBCA",
"|  c #F099F044EFDE",
" . c #F62EF5FFF5C6",
".. c #FFB3FFAEFFA9",
/* pixels */
"L L L P L L L L L L L L L L L L L L L L L L P P L L L L L L P L L L P L P L P L L L L P ",
"L L L L L P L P L L L L L L L L L L L L L P L L P L P L P L L L P L L L P L L L P L L L ",
"P L P P L P L P L L Y U K L L L L L L L L L P L L L L L L L P L L L P L L P L L L L L P ",
"L L L L L L L L K U Z D T Y K L L L L P Y L L L L P L P P P L L P L L L L L L P L P L L ",
"L P P L L L P L L T t   e F Y L L L U J v L P L L L L L L P L L P L L L L P L P P L P L ",
"L L L L P L L L L T u     . c Y P L P 5   8 U L K L L P L L L P L L L P L L L L P L L L ",
"L P P L L L P L K Y v   .     5 K R y   .   y E Y U P L L L L L L P L L P L P L L P L L ",
"L L L L P L P L L Y B       .   : A O       . p B F P T U K L P L L P P L L L L L L L P ",
"P L P L L L L L L U G .           O                 @ y S Y U K L L L L L L P L L L L P ",
"L L L L L L L L L L Y 5         l k           2 ` W 1     0 G R L L L L L L L L L P L L ",
"L L P L L L L L L U D #     % ` ..Q   .       2 ......_ d   . b Y L L L P P L L P L L L ",
"P L P L L L L L L K -       , ` f             . d (  .....( *   r U L L L L L P P L L L ",
"L L L L P L L L Y t   .                             1 / ....} s   w Y L L L L L L P L L ",
"L P P L L L L P G O     & ~ _ o                 .       d } ....d   y Y L P L P L L P L ",
"L L L L P L L Y Z     2 { ..^                         .   < { ..| 1   M Y K L L P L L L ",
"L P P L L L L Y V   + [ ....s                           .   d ...._   # J U L L L L L P ",
"L L L L L L L T a   z ..` ` *                 ^ k         .   ~ ....l   t Y K L L L P L ",
"L L L L L L L K $   s x                       } (             <  ...{ %   D U L L L P L ",
"P L L L L K R i                             % ..Q           .   ~ ....z   r Y L P L L L ",
"P L L L L Y Z .       .                     h ..4   .           3 ....]   X G U L L P L ",
"L P L L P L -                             -  ._                   ` ....s   v R K L L L ",
"L L L L Y e                               2 ' 1                   W ....!   : U L L L L ",
"L L L Y V                                                         2 ....[   . F U L L L ",
"L L L U :   .                           : M o                     . { ....1   M Y L L L ",
"L L Y D       z /                 . e Z E Z                         ( ....j   y Y K P L ",
"L K Y B     g ..^               : D T U T u                     .   Q ....Q   7 Y L L L ",
"L K Y C     ( }               u Y Y K P K $                         j ..../   - P P L L ",
"L L U G X   2 3   * _ ,     p R L K L T r                       .   f ...._   O J U L L ",
"L L L Y 0   .     / } o   0 Y L L L T p                         .   s ....`   . F U L L ",
"L L L P G $       ^ j   X F U L K T c                               s ....`     A U L L ",
"L L L L U G 5 X $ .     y T L K T v                             .   s ....]     C Y K L ",
"L L L L L U Y J P u O 6 K P L T n                                   4 ....]     V Y L L ",
"L L L P P L L P P Y K U P K Y C                                     q ....]     B Y K L ",
"L P L L L L L L L L P L L L L ;                                 .   4 ....]     M Y L L ",
"L L L P L P L L L L L L K Y m                                       s ....`     m T L L ",
"P P L L L P L P L L L L L U 5                                       s ....`     m Y L L ",
"L L L L L P L L L L L L U G X                                   .   d ...._     M Y L L ",
"P L P L L L P L L L L L Y C         .   .               .   .   .   f ....)     M Y K L ",
"L L L L L L L L L L L K Y B                                         o > > &     m Y K L ",
"L P P L P L P L L L L L U D 9 0 0 0 0 0 0 9 0 0 0 0 0 0 0 0 9 0 9 0 9 5 5 6 0 6 Z Y L L ",
"L P L P L L L L L L L L L U Y Y Y Y T Y Y Y Y Y Y Y Y Y Y Y Y Y Y Y T Y T Y Y Y P L L L ",
"L L L L P L P L L L P L L L L L K L L L L L L L L L L L L L L L L L L L L L L L L L P L ",
"P L P L L L L L L L L L L L L L L P L L L L L L L L L L L L L L L L L L L P L L L L L L ",
"L L L L L P L L L P P L L L L L L P L L L L L L L L L L L L L P L L P L L L L P L L P L "
};
