/* XPM */
static char *ndl__[] = {
/* columns rows colors chars-per-pixel */
"56 56 112 2",
"   c #00990084006B",
".  c #08AE06BA0462",
"X  c #0C7B098F060D",
"o  c #0C450B700A71",
"O  c #131F0E52089A",
"+  c #15851006096F",
"@  c #1B39148F0C8E",
"#  c #1F7B18000F12",
"$  c #13501347133D",
"%  c #17B1175E16FB",
"&  c #1BB71B361A9D",
"*  c #2075182C0E3A",
"=  c #25831BEF1070",
"-  c #29F01EF611CC",
";  c #2CE3219113FB",
":  c #20191FD51F84",
">  c #3239258F165D",
",  c #3C592CF11A73",
"<  c #231C22C82264",
"1  c #282527D1276B",
"2  c #2C662BEF2B61",
"3  c #2FCB2F912F4B",
"4  c #30312FD72F6B",
"5  c #33B73305322F",
"6  c #37C536FC360F",
"7  c #3C213B863ACD",
"8  c #450733791E68",
"9  c #499237312120",
"0  c #4BE238982173",
"q  c #51A63CCE23CA",
"w  c #5607402825E8",
"e  c #59174258270D",
"r  c #5BEC44A628B8",
"t  c #64744AFC2C6C",
"y  c #69334E572E1C",
"u  c #6B8450102F20",
"i  c #6DA351A5300E",
"p  c #735955F532AE",
"a  c #7B1B5BAE35F7",
"s  c #7EE15F8039D9",
"d  c #458844B143B1",
"f  c #47F6471B4616",
"g  c #49EF48C54760",
"h  c #4B954B2C4AAF",
"j  c #514150D85059",
"k  c #585357DF5756",
"l  c #5E345DBC5D2C",
"z  c #600E5FA45F25",
"x  c #624161A360E7",
"c  c #6C8D6C0C6B71",
"v  c #71C4713F70A1",
"b  c #78D477547589",
"n  c #7DF97D917D14",
"m  c #80705FA43849",
"M  c #84D062F03A49",
"N  c #8971665C3C40",
"B  c #8DAA69B93E98",
"V  c #940D6E4240E8",
"C  c #9673700C41F7",
"Z  c #9D3E751944EC",
"A  c #A0677773464E",
"S  c #A344798E477F",
"D  c #A5857B45488F",
"F  c #A9637E244A3F",
"G  c #ADD781744C2F",
"H  c #B38785B14EAF",
"J  c #B4B486EB4FF9",
"K  c #B816891650AF",
"L  c #BA4C8ABB51A7",
"P  c #808D80187F8D",
"I  c #C14E8FF354BA",
"U  c #C572931C56B4",
"Y  c #C98F96195858",
"T  c #CE5499D45A8A",
"R  c #D28F9CDC5C6A",
"E  c #D711A0285E43",
"W  c #DA47A28C5FAC",
"Q  c #DE71A5A6617E",
"!  c #E12AA7A462AB",
"~  c #E7A7AC826589",
"^  c #EBC0AF8F6754",
"/  c #ECB7B04667C0",
"(  c #EE93B1AA6892",
")  c #F3C9B58B6ADA",
"_  c #F7F4B8A66CAE",
"`  c #FBD1BB866E5F",
"'  c #FFFEBF6D70AB",
"]  c #85B884EF83FF",
"[  c #8DE58D488C8C",
"{  c #90488FC58F29",
"}  c #91FB90AB8F17",
"|  c #940A93929301",
" . c #986397FE9783",
".. c #9D8B9CDE9C0F",
"X. c #A058A0049F9F",
"o. c #A0ECA08AA016",
"O. c #A55AA4EFA46C",
"+. c #ACD5AC4DABAA",
"@. c #B07FB021AFAF",
"#. c #B34AB2EEB27F",
"$. c #BE83BE26BDB7",
"%. c #C44FC3EEC379",
"&. c #CDB5CD5ACCEC",
"*. c #D37ED327D2C0",
"=. c #D8CDD880D822",
"-. c #DDB6DD55DCE0",
";. c #E5EEE5A2E546",
":. c #E87CE837E7E4",
">. c #EB8FEB4EEB00",
",. c #F57DF54FF518",
"<. c #F8BEF887F846",
"1. c #FEE5FEE3FEE0",
/* pixels */
"^ ^ / ^ ^ ^ / ^ ^ ^ ^ ^ ^ ^ ^ ^ ^ ^ ^ ^ ^ ^ ^ ^ ^ ^ ^ ^ ^ ^ ^ ^ ^ ^ ^ ^ ^ ^ / ^ ^ ^ / ^ ^ ^ ^ ^ ^ ^ / ^ ^ ^ / ^ ",
"^ ^ ^ ^ ^ ^ ^ ^ ^ ^ ^ ^ ^ ^ ^ ^ ^ ^ ^ ^ ^ / ^ / / ^ ^ ^ ^ ^ ^ ^ ^ ^ / ^ / ^ ^ ^ ^ ^ ^ ^ ^ ^ / ^ / ^ ^ ^ ^ ^ ^ ^ ",
"^ ^ / ^ ^ ^ ^ / ^ ^ ^ ^ ^ ^ ^ ^ ^ ^ ^ ^ ^ ^ ^ ^ ^ ^ ^ ^ ^ ^ ^ ^ ^ / / ^ ^ ^ ^ ^ ^ ^ ^ ^ ^ / / ^ ^ ^ ^ ^ ^ ^ ^ ^ ",
"^ ^ ^ ^ / ^ ^ ^ ^ ^ ^ ^ ^ ) ) ~ ^ / ^ ^ ^ ^ ^ ^ ^ ^ ^ ^ ^ ^ / ^ ^ ^ ^ ^ ^ ^ / ^ / ^ ^ / ^ ^ ^ ^ ^ ^ / ^ / ^ ^ / ",
"^ ^ / ^ ^ ^ ^ / ^ ^ ^ ^ ) G T ` ) ^ ^ ^ ^ ^ ^ / ~ ) ) ^ / ^ ^ ^ ^ ^ / ^ ^ ^ ^ ^ ^ ^ ^ ^ ^ / ^ ^ ^ ^ / ^ ^ ^ ^ / ",
"^ ^ ^ ^ ^ ^ ^ ^ ^ ^ ^ ^ ` 8   r Y ` / ^ / ^ ^ ^ _ T U ` ^ ^ ^ ^ ^ ^ ^ ^ ^ ^ ^ ^ ^ ^ ^ ^ ^ ^ ^ / ^ ^ ^ ^ ^ ^ ^ ^ ",
"/ ^ ^ ^ ^ ^ ^ ^ ^ ^ ^ ~ ) 0       y ^ ) ^ ^ ^ ) Y O X K _ ~ ^ ^ ^ ^ ^ / ^ ^ ^ ^ ^ ^ ^ / ^ ^ ^ ^ / ^ ^ ^ ^ ^ ^ ^ ",
"^ ^ ^ / ^ ^ ^ / ^ ^ ^ ^ ` e   .     * K ` ~ / W *     X U ) ~ ^ ^ ^ ^ ^ ^ ^ ^ ^ / ^ ^ ^ ^ / ^ ^ ^ ^ / ^ ^ ^ / ^ ",
"^ ^ ^ ^ ^ / ^ ^ / ^ ^ ^ ` p           . V ` _ r         > ) ` ) ( ^ ~ ^ / ^ ^ ^ ^ ^ ^ ^ ^ ^ / ^ ^ ^ ^ ^ ^ / ^ ^ ",
"/ ^ / ^ ^ ^ ^ ^ ^ ^ ^ ~ ` C               B R             t H U ! ) ` ( ~ ^ ^ ^ ^ / ^ ^ ^ ^ ^ ^ ^ / ^ ^ ^ ^ ^ ^ ",
"^ / ^ ^ ^ ^ ^ ^ ^ ^ ^ ^ ) U               . ;                   O 9 B R ` ) ~ ^ / ^ / ^ / ^ ^ ^ ^ / / ^ ^ ^ ^ ^ ",
"^ ^ ^ ^ / ^ ^ ^ ^ ^ ^ ^ ^ ^ =             % %               g 7 .     X r U ' ^ ~ ^ ^ ^ ^ ^ / ^ ^ ^ ^ ^ / ^ ^ / ",
"^ ^ / ^ ^ ^ ^ / ^ ^ ^ ^ ~ ' r         . n 1.x               #.1.-...7     . t ~ ` ~ ^ ^ ^ / ^ ^ ^ ^ / ^ ^ ^ ^ ^ ",
"/ ^ ^ ^ ^ ^ ^ ^ ^ ^ ^ ~ _ H .   .   $ *.1.1.h   .       .   @.1.1.1.1.%.d     * J ` ~ ^ ^ ^ ^ ^ / ^ ^ ^ ^ ^ ^ ^ ",
"^ ^ / ^ / ^ ^ ^ ^ ^ ^ ) T O         < >.+.2                 < ] -.1.1.1.1.+.%     B ` ^ ^ / ^ ^ ^ ^ ^ ^ / ^ ^ ^ ",
"^ ^ ^ ^ ^ ^ / ^ ^ ^ ^ ) 8       .     o                         . l -.1.<.1.>.d     s ` ~ ^ ^ ^ ^ ^ / ^ ^ ^ ^ / ",
"^ ^ / ^ ^ ^ ^ / ^ ~ ` Z           < 2     .                   .     . v ,.1.1.1.x     N ` ~ ^ ^ ^ ^ / ^ ^ ^ ^ / ",
"^ ^ ^ ^ / ^ ^ ^ ^ ~ ` q   .   o { <.<.&                                 & &.1.<.1.l     G _ ~ ^ ^ ^ ^ ^ / ^ ^ ^ ",
"/ ^ ^ ^ ^ ^ ^ ^ ^ ^ ) >     % &.1.1.| .                               .   o %.1.1.<.6   # Q ( ^ / ^ ^ ^ ^ ^ ^ ^ ",
"^ ^ / ^ ^ ^ ^ ^ ^ ^ ^ -     $.1.,.1.3                                       : >.1.1.*.o   q ` ~ ^ ^ / ^ ^ ^ ^ ^ ",
"^ ^ ^ ^ ^ ^ ^ ^ ^ ( Q o   x 1.1.1.,.<                     : g .           .   x 1.<.1.]     F ` ^ ^ ^ ^ ^ ^ ^ / ",
"^ / / ^ ^ ^ ^ ^ ~ ` V     O.1.v ] h                        .1.k                 %.1.1.<.2   > ( ^ ^ ^ ^ ^ ^ ^ ^ ",
"^ / ^ ^ ^ ^ ^ ^ ^ ( ;     < l                         .    .1.l   .         .   g 1.<.1.O.    V ` ~ ^ ^ ^ ^ ^ ^ ",
"^ ^ ^ ^ ^ ^ ^ ^ ` N           .   .                       #.1.7                   %.1.1.,.1   ; ^ ^ ^ ^ ^ ^ ^ ^ ",
"^ ^ / ^ ^ ^ ^ ) T o                                     < <.>.o                   l 1.<.1.[     D ` ~ ^ ^ ^ ^ ^ ",
"/ ^ ^ ^ ^ ^ ^ ) ,                                       { 1.[                     $ >.1.1.-.o   9 _ ^ ^ ^ ^ ^ ^ ",
"^ ^ ^ ^ ^ ^ ` p                                       h 1.:.&                       O.1.<.1.g   . T ) ~ ^ ^ ^ ^ ",
"^ ^ / ^ ~ ) H                                         4 %.j                         j 1.<.1. .    V ` ~ ^ ^ ^ ^ ",
"^ ^ ^ ^ ^ ^ -       .                             .                                 % >.1.1.-..   9 _ ~ ^ ^ ^ ^ ",
"^ ^ ^ ~ ` N                                         + p o                         .   $.1.1.1.5   @ ! ( ^ ^ ^ ^ ",
"^ ^ ^ ^ ^ ;       . <                           # p ! T                               n 1.<.1.c     K _ ^ ^ ^ ^ ",
"^ ^ ^ ) I       . #.1.l                     - C ^ ` ` V                           .   h 1.<.1...    V ` ~ ^ ^ / ",
"^ ^ ^ _ G   .   | 1.*.1   .             X M / ` ^ ! ` q                               1 1.1.1.%.    t ` ~ ^ ^ ^ ",
"^ ^ ^ ) H     . :.1.2                 = Y ` ^ ~ ^ ) T .                               $ >.1.1.;.o   9 _ ~ ^ ^ ^ ",
"^ ^ ^ ) R .     O...    $ v $       ; ! ) ~ ^ ^ ^ ` q                                   -.1.1.,.&   ; / ^ ^ ^ ^ ",
"^ ^ ^ ^ ( >             [ 1.1     @ W ) ^ ^ ^ ~ ` N                                     &.1.1.1.<   @ Q ( ^ ^ ^ ",
"^ ^ ^ ^ ` V   .   .   d 1.%.      G ` ~ ^ ^ ^ ` V                                       %.1.1.1.2   O Q ( ^ / ^ ",
"^ ^ ^ ^ ^ ) q     .   f ;.g     0 ` ~ ^ ^ ~ ` Z                                         %.1.1.1.2   . Y ) ^ ^ ^ ",
"^ ^ ^ ^ ^ ^ ^ e                 U ) ^ ^ ^ ` S                                           %.1.1.1.2     U _ ~ ^ ^ ",
"^ ^ ^ ^ ^ ^ ^ ` L a S t   .   i ` ~ ^ ^ ` D                                             $.1.1.1.3     K _ ~ ^ / ",
"^ / ^ ^ ^ ^ ^ ^ _ ' ' ( M 9 s ^ ^ ^ ~ ` H                                               %.1.1.1.2     G ` ~ ^ ^ ",
"^ ^ ^ ^ ^ ^ ^ ^ ~ ~ ~ ^ ` ` ` ^ ^ ^ ) R +                                               $.1.1.1.5     F _ ^ ^ ^ ",
"^ ^ ^ ^ ^ ^ ^ ^ ^ ^ ^ ^ ~ ^ ~ ^ ^ ~ ` e                                                 $.1.<.1.2     S ` ~ / / ",
"/ ^ ^ ^ ^ ^ ^ ^ ^ ^ ^ ^ ^ ^ ^ ^ ^ ) U                                                   $.1.1.1.2     S _ ~ ^ ^ ",
"^ ^ ^ / ^ ^ ^ / ^ ^ ^ ^ ^ ^ ^ ^ ^ ` r                                                   %.1.1.1.2     Z ` ~ ^ ^ ",
"^ ^ ^ ^ / ^ ^ ^ ^ ^ ^ ^ ^ ^ ^ ^ ( ! +                                                   %.1.1.1.1     Z ` ^ ^ ^ ",
"^ ^ ^ ^ ^ ^ ^ ^ ^ ^ ^ ^ ^ ^ ^ ^ ` G                                                     &.1.<.<.<     Z _ ~ ^ ^ ",
"^ ^ ^ / ^ ^ / ^ ^ ^ ^ ^ ^ ^ ^ ~ ` M                                                     *.1.1.,.%     Z ` ~ ^ ^ ",
"/ ^ ^ ^ ^ ^ ^ ^ ^ ^ ^ ^ ^ ^ ^ ~ ` p   .     .     .     .     .   .   .     .     .   . b { [ ] o     A ` ~ ^ ^ ",
"^ ^ ^ / / ^ / ^ ^ / ^ / / ^ ^ ~ ` i                                                                   Z ` ~ ^ ^ ",
"^ ^ ^ ^ ^ / ^ ^ ^ ^ / ^ ^ ^ ^ ^ ) K p s a a a a a a a a a a a a a a a a a a a a a a a a s m s M a m p Y ) ^ ^ ^ ",
"^ / ^ ^ ^ ^ ^ ^ ^ ^ ^ ^ ^ ^ / ^ ^ ) ` ` ` ` ` ` ` ` ` ` ` ` ` ` ` ` ` ` ` ` ` ` ` ` ` ` ` ` ` ` ` ` ` ) ^ ^ ^ ^ ",
"^ / ^ ^ ^ ^ ^ ^ ^ ^ / ^ ^ ^ / ^ ^ ^ ~ ^ ^ ^ ~ ~ ~ ^ ~ ~ ~ ^ ~ ~ ~ ~ ~ ^ ^ ^ ~ ~ ^ ~ ~ ~ ~ ~ ~ ^ ~ ^ ~ ^ ^ ^ ^ ^ ",
"^ ^ ^ / ^ / ^ ^ ^ ^ ^ ^ / ^ ^ ^ ^ ^ ^ ^ ^ ^ ^ ^ ^ ^ ^ ^ ^ ^ ^ ^ ^ ^ ^ ^ ^ ^ ^ ^ ^ ^ ^ ^ ^ ^ ^ ^ ^ ^ ^ ^ ^ ^ ^ ^ ",
"^ ^ ^ ^ / ^ / ^ ^ / ^ / ^ ^ ^ ^ ^ ^ ^ ^ ^ ^ ^ ^ ^ ^ ^ ^ ^ ^ ^ ^ ^ ^ ^ ^ ^ ^ ^ ^ ^ ^ ^ ^ ^ ^ ^ ^ ^ ^ ^ ^ ^ ^ ^ ^ ",
"/ ^ ^ ^ ^ ^ ^ ^ ^ ^ ^ ^ ^ ^ ^ ^ ^ ^ ^ ^ ^ ^ ^ ^ ^ ^ ^ ^ ^ ^ ^ ^ ^ ^ ^ ^ ^ ^ ^ ^ ^ ^ ^ ^ ^ ^ ^ ^ ^ ^ ^ ^ ^ ^ ^ ^ "
};
