/* XPM */
static char *nld__[] = {
/* columns rows colors chars-per-pixel */
"21 21 218 2",
"   c black",
".  c #12C60E96097A",
"X  c #10F10FC40E5C",
"o  c #0E150F16107A",
"O  c #0CB50F6112A4",
"+  c #12C114EB178C",
"@  c #1A40165F11A1",
"#  c #135D159D185D",
"$  c #169417EE1995",
"%  c #19AE19641909",
"&  c #22F7176A0951",
"*  c #20D81C0D1633",
"=  c #2DB91FAC0E8D",
"-  c #3F5A27D60B23",
";  c #301C245315F2",
":  c #394B29C416D7",
">  c #24CB22C9209F",
",  c #2EF12BFC2860",
"<  c #3A83310525A7",
"1  c #3F55359F2A92",
"2  c #3C8A365F2ED8",
"3  c #3311344D35CF",
"4  c #33833574380D",
"5  c #43622EAA1562",
"6  c #483F2FE4122D",
"7  c #49B9307C11B0",
"8  c #47CF315D15F9",
"9  c #4D5837BB1D5B",
"0  c #50E636631609",
"q  c #599B3B2315F5",
"w  c #53CC391F1894",
"e  c #51D439051B81",
"r  c #56173A2C18B9",
"t  c #4EF93B502354",
"y  c #4DB33C2026BC",
"u  c #42E43E29386C",
"i  c #42783E6E398C",
"p  c #6825474C1F3F",
"a  c #738F4D611ECB",
"s  c #583042122715",
"d  c #4D1645FB3D50",
"f  c #53E046BE36BC",
"g  c #780351EB236F",
"h  c #7869538C268F",
"j  c #7CC859522E0C",
"k  c #4EB248093FE9",
"l  c #4F5148A94089",
"z  c #454E474B49B9",
"x  c #448548494CE3",
"c  c #507949C8419F",
"v  c #55764DF544CE",
"b  c #50D24D00486C",
"n  c #51A24E884B3C",
"m  c #5AC851DF46FC",
"M  c #57CE53B24EB5",
"N  c #53795452555D",
"B  c #5F5B5F215ED9",
"V  c #65315AD44E2F",
"C  c #61ED60995F1D",
"Z  c #59B55F59667A",
"A  c #6B3A6C326D60",
"S  c #7422758D7749",
"D  c #7A5E7B8E7D3F",
"F  c #86F35D562A8F",
"G  c #8DEB61012A71",
"H  c #8DB06507336A",
"J  c #95DD692E32A6",
"K  c #96E76A2F33B2",
"L  c #98A06A0B3132",
"P  c #9F436EBA3380",
"I  c #9A536DD53789",
"U  c #9AEC6E3737A8",
"Y  c #9A8D6E3D3829",
"T  c #9D4C6FED388F",
"R  c #A51675903B90",
"E  c #A4DB76453D97",
"W  c #A52C772A3F05",
"Q  c #AAA976E437BA",
"!  c #AC4B7ABE3E46",
"~  c #B06B7DEB404A",
"^  c #B74F80FE3EB5",
"/  c #B52582024399",
"(  c #BB1783DD40A2",
")  c #B8D184B74522",
"_  c #C35B89CD4392",
"`  c #C22C89C044E3",
"'  c #C4088A834453",
"]  c #C5F88B954457",
"[  c #C4E88B5C4522",
"{  c #C32A8C374929",
"}  c #C3E78CD4499F",
"|  c #C7748E0247E7",
" . c #CA378FB5485F",
".. c #CC58903746D6",
"X. c #CE0392E34AB9",
"o. c #CEB7953E4F1B",
"O. c #CF0F95E45020",
"+. c #D1B3979B50B4",
"@. c #D252980850E6",
"#. c #D30698955146",
"$. c #D3A498FE516D",
"%. c #D403994A51A1",
"&. c #D3AE994651FF",
"*. c #D48C99A051BA",
"=. c #D7C09B5C51AB",
"-. c #D4C699E85212",
";. c #D5509A425230",
":. c #D5D49A995252",
">. c #D5FD9AF652ED",
",. c #D6719AFE5271",
"<. c #D7599BA952D2",
"1. c #D7889BCC52E7",
"2. c #D8159C495350",
"3. c #D7049C0E541A",
"4. c #DC8B9E7B52BE",
"5. c #DA0C9DFD54B1",
"6. c #D93E9DC2552B",
"7. c #D9BD9DED54EF",
"8. c #DA349E675568",
"9. c #DA829E205471",
"0. c #DAD19EC05574",
"q. c #DB619EE45512",
"w. c #DC2F9F7F556E",
"e. c #DAA89EE255F0",
"r. c #DB319F2D55EE",
"t. c #DDA6A07155C0",
"y. c #DD82A07655F7",
"u. c #DF26A1CC56EF",
"i. c #E002A25D5718",
"p. c #DFFEA2EB5862",
"a. c #E1A6A2595519",
"s. c #E0E0A2A956BC",
"d. c #E22AA36456CA",
"f. c #E06EA29F5732",
"g. c #E1BCA3A057D4",
"h. c #E446A43F561C",
"j. c #E4BBA4C756BC",
"k. c #E0C5A3675884",
"l. c #E196A39057E0",
"z. c #E302A498586D",
"x. c #E376A4E35884",
"c. c #E444A5455858",
"v. c #E2F8A4CD58EF",
"b. c #E36BA5205917",
"n. c #E45FA5D05977",
"m. c #E65DA6445817",
"M. c #E48AA6575A71",
"N. c #E59AA6F05A78",
"B. c #E55EA7195B1C",
"V. c #E5DBA7485AEC",
"C. c #E753A8335B10",
"Z. c #E809A8D35BB0",
"A. c #E751A8955BF9",
"S. c #EA1DAA765CBD",
"D. c #EB1FAB985E12",
"F. c #EDD5AD255E33",
"G. c #F1AAAF965EF3",
"H. c #78C17C92813A",
"J. c #7A4B7E798393",
"K. c #7B5F801E85EC",
"L. c #7E6684888C04",
"P. c #848B8458841A",
"I. c #868089E28E03",
"U. c #8BD68AAD8942",
"Y. c #88A58C4490AD",
"T. c #8BED8F7C93DA",
"R. c #8F57923595B5",
"E. c #92EA91D49080",
"W. c #961796329646",
"Q. c #9B5A9B8B9BC8",
"!. c #9C709C279BCD",
"~. c #9D4A9CB89BF1",
"^. c #9A269C1D9E84",
"/. c #9AE99EA8A33B",
"(. c #A520A546A56A",
"). c #A684A664A63D",
"_. c #A88CAC09B04A",
"`. c #AAD9AFB1B5C9",
"'. c #B5CCB534B47C",
"]. c #B496B71CBA35",
"[. c #BFBCBF98BF6E",
"{. c #B43FBBB0C4B5",
"}. c #BAFABEA3C31A",
"|. c #BC96BEE2C1B0",
" X c #C8B4C84FC7D3",
".X c #C91CC902C8E1",
"XX c #C877CB6DCF0A",
"oX c #D24CD205D1B1",
"OX c #D640D5D5D545",
"+X c #D6B7D67ED63B",
"@X c #D703DB1DE020",
"#X c #DBDBDBBEDB9A",
"$X c #DAA0DCFCDFDA",
"%X c #DF1CDEDCDE8B",
"&X c #E416E4FEE618",
"*X c #E9B0E956E8E9",
"=X c #E9D6EC2BEEF8",
"-X c #EAEAECE4EF47",
";X c #EFCDEF3FEE8E",
":X c #EDF5F2C2F85F",
">X c #F41BF434F454",
",X c #F4BFF43BF39B",
"<X c #F7F9F7B7F767",
"1X c #F7B1F7AAF7A1",
"2X c #F8A3F7CCF6A7",
"3X c #F892F81CF78B",
"4X c #F797F949FB4F",
"5X c #FA70FA79FA85",
"6X c #FB73FB7BFB84",
"7X c #FC1CFC15FC09",
"8X c #FC99FC86FC6D",
"9X c #FDC2FD12FC3A",
"0X c #FD00FCFFFCFE",
"qX c #FE1DFE15FE0B",
"wX c #FF2AFEE6FE71",
"eX c #FEF7FEEDFEDF",
"rX c #FFFEFFC0FF4C",
"tX c #FFF6FFF6FFF6",
/* pixels */
":.:.:.:.:.i.&.:.:.&.&.:.:.:.:.:.:.:.:.:.:.",
":.:.:.:.O./ s.9.&.l.i.+.&.:.:.:.:.:.:.:.:.",
":.:.:.9.} * 9 ' n.5 H G.l.:.+.:.:.:.:.:.:.",
":.:.:.9.] m {.f q L.M a P :.N.+.:.:.:.:.:.",
":.:.:.&.h.t XXN o tXQ.z A ; F N.:.&.:.:.:.",
":.:.&.i.E > W.;X%XtX X'.tX$Xx 0 l.:.:.:.:.",
":.:.&.4.y @XE.).tX7XtXtX7XtXtXZ r C.+.:.:.",
":.:.3...V ^.  [.tXtX1X#XtX7XtXtX3 K n.&.:.",
":.+.A.G D OXOXtX9XtX%XB tXtX7XtX].& i.:.:.",
"&.9. .1 =XtXtX9X7XtX^.P.tX7XtXtXtX3 K N.&.",
"&.n.w `.tX7X7XtX4X/.. .XtX0XtX7XtXJ.7 C.+.",
"p.Q B (.oXtXtX_.2 h 8 }.tX8XtX7XtX|.& 9.:.",
"n.K S U.*XtXR.7 X.j.< =XtXtXtXtXtX&X@ } 9.",
"9.' i :X!.T.s s.D.- I.tX0XtXtXtXtX,X% ~ p.",
"+.s.U : i n ( D.w J.tX7XtXtXtXtXtX1X$ R n.",
":.&.i.s.) ! F.p K.tX7XtXtXtXtX0XtX1X# U n.",
":.:.:.&.9.N.^ n tX0XtXtXtXtXtXtXtX1X# U n.",
":.:.:.:.+.N.g I.tX8XtXtXtXtXtXtXtX,XO Y n.",
":.:.:.:.+.N.j , v l l l d l l l d d . E i.",
":.:.:.:.:.:.:.| ' ' ' ' ' ' ' ' ] [ o.:.:.",
":.:.:.:.:.:.:.4.e.e.e.e.e.9.9.9.9.9.:.:.:."
};
