/* XPM */
static char *nld__[] = {
/* columns rows colors chars-per-pixel */
"26 26 249 2",
"   c #003000010000",
".  c #016F014B011E",
"X  c #02B2022D018B",
"o  c #09D305320000",
"O  c #0D480780011C",
"+  c #0E190B1D0819",
"@  c #17720C4E0000",
"#  c #173F0CAC0000",
"$  c #16AA0F3B0629",
"%  c #17A60C840000",
"&  c #1A040E1F0000",
"*  c #1AD80EEA005E",
"=  c #1D0810A702E4",
"-  c #12F510FB0F29",
";  c #12B8113D1091",
":  c #1D9619A41530",
">  c #138216F21B23",
",  c #1DE31E831F8B",
"<  c #206212B7020A",
"1  c #206C15330781",
"2  c #237F1650066F",
"3  c #2A5019ED05ED",
"4  c #22FF16DD082F",
"5  c #21BA18DC0E09",
"6  c #27F719BD0860",
"7  c #2DCD1E950C02",
"8  c #27081D30116B",
"9  c #24691BED1234",
"0  c #31EC21EB0EF2",
"q  c #39E525610C58",
"w  c #3AC5268E0E47",
"e  c #2DAA236B177D",
"r  c #2A2F234F1B60",
"t  c #390E27BE129C",
"y  c #3C5F2AA51502",
"u  c #380829B6183E",
"i  c #37E02A891A41",
"p  c #1B971F4A23CD",
"a  c #279827CF2813",
"s  c #2713292A2BC9",
"d  c #38AE2F24237E",
"f  c #30962DFA2ACB",
"g  c #3EE235CE2ABA",
"h  c #3EB836DA2D41",
"j  c #299B2D3131A1",
"k  c #2E8431C435BC",
"l  c #30F63094301C",
"z  c #32BE33733450",
"x  c #331433DE34D5",
"c  c #352334EF34B0",
"v  c #325B365F3B45",
"b  c #31A337D93F6E",
"n  c #456A2FDD1591",
"m  c #4C29311E1029",
"M  c #50E837591828",
"N  c #55663A0818A3",
"B  c #51313A7D1EC8",
"V  c #49F037952191",
"C  c #474B3947282B",
"Z  c #5FE041071B72",
"A  c #656E44211B7F",
"S  c #606241791BC7",
"D  c #644743F71C88",
"F  c #659644551BC2",
"G  c #6898457F1AA9",
"H  c #6DBB48301AC9",
"J  c #66A8472020AB",
"K  c #69A0485C1FC3",
"L  c #691449362253",
"P  c #6F124C5A21F5",
"I  c #6E714E4E2715",
"U  c #74424F1421B4",
"Y  c #6BE650BC2F95",
"T  c #74964FD022F0",
"R  c #751851172526",
"E  c #7F885A222C7F",
"W  c #38213CB8428E",
"Q  c #435845A54873",
"!  c #46F149C04D30",
"~  c #48614BFC5062",
"^  c #4AAD4EDB53EA",
"/  c #4F825127531B",
"(  c #4D185050543E",
")  c #55FD550353D2",
"_  c #5131537D564A",
"`  c #5038535D5734",
"'  c #570F56D75694",
"]  c #51B954E958CE",
"[  c #5266553558A2",
"{  c #532755A758B4",
"}  c #5B295A5A595E",
"|  c #5FA6633F67A4",
" . c #6008629765CA",
".. c #60CA64A5695C",
"X. c #6338669F6AC4",
"o. c #617366ED6D9D",
"O. c #6A1F69426835",
"+. c #6E906E596E15",
"@. c #67086BB07175",
"#. c #6CE76F6672DA",
"$. c #72F775E57992",
"%. c #755079717E7D",
"&. c #806F58372741",
"*. c #87155BAB26B1",
"=. c #86BF5DA92B85",
"-. c #906E64912F0B",
";. c #8694613933A3",
":. c #8ABD649D3617",
">. c #A18572EE3A44",
",. c #ABDA7A463DDF",
"<. c #AC7C7A9E3DC3",
"1. c #B0477DAD3FF5",
"2. c #B2D480864322",
"3. c #B1FA80A54471",
"4. c #BCA886614424",
"5. c #BC4F86D645C7",
"6. c #BFE989C247BC",
"7. c #C04F8AA7492D",
"8. c #C2758CE84B6D",
"9. c #C2C68D3C4BED",
"0. c #C5848F2F4CE2",
"q. c #C84F8FA54A90",
"w. c #C7B5902B4C64",
"e. c #CD0A92554AB1",
"r. c #D32B96E34D53",
"t. c #CFE5963D4FE1",
"y. c #D1CD978A5071",
"u. c #D21F97ED50E7",
"i. c #D2A6984C5116",
"p. c #D37A98E8516E",
"a. c #D3F8993F5196",
"s. c #D368993D5241",
"d. c #D469999251C3",
"f. c #D7FB9AF25077",
"g. c #D4C399DC51FB",
"h. c #D5429A445247",
"j. c #D5D49A9A5252",
"k. c #D7119B6D52A5",
"l. c #D6FF9B8452EF",
"z. c #D7789BF65354",
"x. c #DA6A9D5652CC",
"c. c #DA879D7452ED",
"v. c #D8F39D0153DA",
"b. c #DA739E1D547D",
"n. c #DAB89E3A5467",
"m. c #DAF89EB35523",
"M. c #DB8C9F225569",
"N. c #DB239F67567D",
"B. c #DC10A00956C8",
"V. c #DD1E9F5F5406",
"C. c #DC9B9F96551F",
"Z. c #DD40A03D55C9",
"A. c #DE2AA0C155D1",
"S. c #DEBDA0D65553",
"D. c #DDCCA09955E9",
"F. c #DCCAA0A05736",
"G. c #DDD4A10C56DF",
"H. c #DE0DA173577F",
"J. c #DF4CA1A75673",
"K. c #DFD1A1FF568F",
"L. c #DFE6A22356C3",
"P. c #E0E5A25A55FF",
"I. c #E1C6A32A56C4",
"U. c #E064A291571E",
"Y. c #E2B4A3E95749",
"T. c #E0B7A37958BB",
"R. c #E36BA4C65853",
"E. c #E268A4935920",
"W. c #E3A1A57C59A0",
"Q. c #E436A60D5A2A",
"!. c #E55FA650595B",
"~. c #E6BDA72D599B",
"^. c #E4CAA63D59E8",
"/. c #E61AA7105A22",
"(. c #E630A75F5AB6",
"). c #E720A7C45A72",
"_. c #E77BA8115AAD",
"`. c #E7E3A8955B53",
"'. c #E837A9335C4C",
"]. c #E8D7A9505BCA",
"[. c #E8EEA9905C39",
"{. c #EA86AAAA5CBC",
"}. c #EDB2ADB75F8D",
"|. c #F091AF355F65",
" X c #FF11BAEB67C0",
".X c #788A7C8B816F",
"XX c #79D27DDE82CF",
"oX c #7BA27EFE8320",
"OX c #7EB780C6834C",
"+X c #7F3F82FA8787",
"@X c #83C885DD8870",
"#X c #824D86028A89",
"$X c #8E038DD28D97",
"%X c #8C1C90FF96F6",
"&X c #8DE991A59643",
"*X c #8F4F94AF9B53",
"=X c #9991987296FC",
"-X c #972E99229B86",
";X c #A0C6A327A610",
":X c #A586A55EA52D",
">X c #AAD1AA2EA96C",
",X c #B374B2B8B1D2",
"<X c #B7B1B6F1B604",
"1X c #B362B650B9E4",
"2X c #B7D8B857B8F2",
"3X c #B81AB99ABB5D",
"4X c #B8A5BAC8BD7E",
"5X c #B846BB9BBFAE",
"6X c #BF8FBF5EBF24",
"7X c #B885BC70C139",
"8X c #BE48BFD1C1AF",
"9X c #BDE1C0A1C3FD",
"0X c #BF25C1F1C55C",
"qX c #C188C14BC102",
"wX c #C087C326C65A",
"eX c #C567C4E4C445",
"rX c #C645C865CAF4",
"tX c #CD7CCD53CD20",
"yX c #CDF3CDCCCD9D",
"uX c #CE6CCE0ACD94",
"iX c #CC71CDEACFA6",
"pX c #D05CD04BD036",
"aX c #D4B1D3A7D25F",
"sX c #D4DAD45AD3B9",
"dX c #D5D0D5A2D56B",
"fX c #D87CD85DD836",
"gX c #DC67DCB1DCFB",
"hX c #DE5BDFEBE1CA",
"jX c #DF56E1ECE513",
"kX c #E96EE799E553",
"lX c #ECD1EC1CEB3A",
"zX c #EC91EC84EC75",
"xX c #F207F268F2DE",
"cX c #F1FEF280F31F",
"vX c #F346F333F31C",
"bX c #F3B0F3A5F396",
"nX c #F615F615F616",
"mX c #F80AF808F805",
"MX c #FA54FA33FA0B",
"NX c #FB9BFAB5F99C",
"BX c #FAFDFB02FB08",
"VX c #FC00FC00FC00",
"CX c #FCE5FCE0FCDB",
"ZX c #FD80FD7AFD72",
"AX c #FCE4FD70FE1A",
"SX c #FDFEFDFFFDFE",
"DX c #FEEAFEEBFEEC",
"FX c #FFA3FF70FF33",
"GX c #FFF9FFF9FFF9",
/* pixels */
"j.j.j.j.j.j.j.u.j.j.j.j.i.j.j.j.j.j.j.j.j.j.j.j.j.j.",
"j.j.j.j.j.j.M.).j.i.i.M.C.i.j.j.j.j.j.j.j.j.j.j.j.j.",
"j.j.j.j.j.j.B R J.M.M.6.2.J.u.i.i.v.z.i.j.j.j.j.j.j.",
"j.j.j.j.j.x.i b 7 4.J.e ; 5.|.R.v.i.i.z.j.j.j.j.j.j.",
"j.j.j.j.i.R.n 0X7Xd m OX4X4 P -.u.'.s.i.j.j.j.j.j.j.",
"j.j.j.j.u.{.U %.kX,   sXGXl  .Q = G F.F.i.j.j.j.j.j.",
"j.j.j.j.j.j.0 s <XeX<XlXGX} uXGXiXW = 8.J.i.j.j.j.j.",
"j.j.j.i.).S @.aXdXxXGXGXGXxXmXGXGXGXXXO 8.J.i.j.j.j.",
"j.j.j.j.x.u jX,X  qXGXVXGXGXGXGXVXNXGX$.1 M.j.j.j.j.",
"j.j.j.j.e.h 9X  x GXGXGXGXdXuXGXGXGXCXGXk L ).u.j.j.",
"j.j.u.].&. .lX6XGXGXGXNXGX$X+.GXNXGXVXGX3Xo 0.M.i.z.",
"j.j.M.q.r hXGXGXGXGXNXNXGX' :XGXCXGXGXGXGXj J ).i.j.",
"j.i.R.w %XGXNXCXGXCXGXGX-Xa GXGXGXGXGXNXGX#X# M.j.j.",
"i.).=.! GXNXGXGXCXGX0X( # f NXGXGXGXGXNXGXpX  3.J.i.",
"i.P.y 1X' tXGXGXxX] 6 -.,.l GXGXGXGXGXGXGXNX> E ).i.",
"j.j.C ;XO.GXNXxXl F H. XS | GXVXGXGXGXGXGXGXv N ).i.",
"i.).M %XGX>X=X#.H }.).>.; gXGXCXGXGXGXGXNXGX~ w '.i.",
"j.M.6.9 ^ x *XV P.R.,.+ 3XGXGXGXGXGXGXGXCXGX( 3 R.i.",
"j.i.J.w.*.Y g 1.].<.: rXGXCXGXGXGXGXGXGXCXGX] < H.j.",
"j.j.i.x.'.M.r.J.i.9 4XGXNXGXGXGXGXGXGXGXNXGX] * J.i.",
"j.j.j.i.i.i.i.`.T X.GXbXCXNXVXNXVXNXNXNXNXGX` # F.j.",
"j.j.j.j.j.j.i.J.t 0XGXGXGXGXGXGXGXGXGXGXVXGX/ * F.j.",
"j.j.j.j.j.j.z.j.5 o.+XXXXXXXXXXXXXXXXXXXXX#Xp 1 M.j.",
"j.j.j.j.j.j.j.j.;.D F F D D A A D D A A A F I :.j.j.",
"j.j.j.j.j.j.j.j.R.].{.'.{.`.'.{.{.].{.`.{.'.).P.j.j.",
"j.j.j.j.j.j.j.j.i.u.u.u.u.u.u.u.u.u.u.u.u.u.u.u.j.j."
};
