/* XPM */
static char *nld__[] = {
/* columns rows colors chars-per-pixel */
"35 35 131 2",
"   c #011D0068004D",
".  c #09C3047800E0",
"X  c #0E9B094002DE",
"o  c #0000030B084E",
"O  c #071D08670A6A",
"+  c #0D6C0D200CDB",
"@  c #14E10CB50341",
"#  c #197A0F32035A",
"$  c #1B3411550549",
"%  c #0A2C0D2F10F2",
"&  c #0D82131719C5",
"*  c #1324139C142E",
"=  c #1769195F1BC5",
"-  c #1B451B1A1AE7",
";  c #262317410518",
":  c #2894186F04BA",
">  c #262919810A13",
",  c #31F61F1F0834",
"<  c #2ED620790EF2",
"1  c #32FA20C10AFB",
"2  c #3D0626AD0B62",
"3  c #2C3B1FBB10A0",
"4  c #2E1926881D7D",
"5  c #338A24201229",
"6  c #399E283612F9",
"7  c #1C5A1E5B20CD",
"8  c #1F3E20DB22D7",
"9  c #207F20ED2173",
"0  c #21EC257129D3",
"q  c #2BD82B502AAB",
"w  c #27992C013188",
"e  c #2C57302C34F7",
"r  c #319531533104",
"t  c #329635E039E3",
"y  c #3A283A6E3AC3",
"u  c #45242E7D12D7",
"i  c #4739302714DA",
"p  c #4FB434FA145F",
"a  c #47453238188D",
"s  c #4A6A35B81C77",
"d  c #4DDD37EF1D2D",
"f  c #5035357E14E5",
"g  c #53C03980197F",
"h  c #58D93D101B29",
"j  c #6A3848491EDE",
"k  c #5C96421621F6",
"l  c #648E48D72703",
"z  c #69674A4A2459",
"x  c #7819534D2665",
"c  c #778157132F80",
"v  c #7A9256A12AC1",
"b  c #7F4159372ACC",
"n  c #7EB75C993322",
"m  c #3C003EE7427B",
"M  c #412042F54534",
"N  c #42FD46A54B1D",
"B  c #467F4A7E4F60",
"V  c #4D224D1E4D26",
"C  c #47524B5D504F",
"Z  c #48914C6A511D",
"A  c #4D55514B5622",
"S  c #4D8154B05DA8",
"D  c #50F350F95102",
"F  c #587C582D57CC",
"G  c #53E756245900",
"H  c #59B35B8D5DD9",
"J  c #57CF5B936023",
"K  c #5AC95E15620E",
"L  c #60D7607B6007",
"P  c #670168FE6B79",
"I  c #6D306CDD6C76",
"U  c #711170716FAD",
"Y  c #71DE71AD7171",
"T  c #748776D0799A",
"R  c #7DCC7D7D7D1E",
"E  c #808B5AB82C90",
"W  c #82275E0A321F",
"Q  c #8B1E6573377D",
"!  c #96756D4E3B20",
"~  c #99876F803C37",
"^  c #9C5170973B34",
"/  c #A20174903D1C",
"(  c #9FF374A73FD0",
")  c #A31076A1406A",
"_  c #A6DC7917413C",
"`  c #AC537CF14323",
"'  c #80247F837EC0",
"]  c #B70D839D44D9",
"[  c #BC11877A474F",
"{  c #BBF38800489A",
"}  c #BDD189B94A25",
"|  c #C3628D744BA4",
" . c #C77390B14DDE",
".. c #CB7093244E70",
"X. c #CD1F9545511C",
"o. c #D19F97B55107",
"O. c #D56D9A51522F",
"+. c #DA9D9E1F544D",
"@. c #DEFCA1805679",
"#. c #DF82A2935836",
"$. c #E1A6A3345700",
"%. c #E53BA61E5917",
"&. c #E7AEA88A5B7D",
"*. c #E926A98D5BF2",
"=. c #EECEAEAD6077",
"-. c #81CE82108250",
";. c #875188158914",
":. c #8C518C1E8BDE",
">. c #959A95919585",
",. c #968B97529843",
"<. c #9A029A0099FD",
"1. c #A02C9FDC9F7C",
"2. c #9C539E1DA068",
"3. c #A006A080A128",
"4. c #A100A09BA022",
"5. c #A867A82FA7EC",
"6. c #AB9EABACABBC",
"7. c #B0B8B02CAF81",
"8. c #B374B39CB3CD",
"9. c #BA91B967B7FC",
"0. c #BAFDBACEBA94",
"q. c #C06BBFE4BF3F",
"w. c #C42FC466C4A9",
"e. c #CCF1CD13CD3D",
"r. c #D56DD508D48B",
"t. c #DBEADB9CDB3D",
"y. c #E90EE78FE5B0",
"u. c #EBF5EB9CEB2D",
"i. c #F4EFF4B0F461",
"p. c #FA2CF91EF7D4",
"a. c #FF35FF32FF2E",
/* pixels */
"O.O.O.O.O.O.O.O.O.O.O.O.O.O.O.O.O.O.O.O.O.O.O.O.+.O.O.O.O.O.O.O.O.+.O.",
"O.O.O.O.O.O.O.O.+.O.O.O.O.O.O.O.O.O.O.O.O.O.O.O.O.O.+.O.O.O.O.O.O.O.O.",
"O.O.O.+.O.O.O.+.| @.$.O.O.O.O.+.@.O.O.O.O.O.O.O.O.O.O.O.O.O.O.O.O.O.O.",
"O.O.O.O.O.O.O.$.s > / &.O.O.+. .~ @.O.O.O.O.O.O.O.O.O.O.O.O.+.O.O.O.O.",
"O.O.O.O.O.O.O.$.a & O i O.@.O.5   W %.O.O.X.O.O.O.O.O.O.O.O.O.O.+.O.O.",
"O.+.O.O.O.O.O.*.f J y.0 @ O.z e 6.. _ #.%.%.+.O.O.O.O.O.O.O.O.O.O.O.O.",
"O.O.O.O.O.O.o.%.v 0 a.a.H $ @ 6.a.L   # 1 v  .&.+.O.O.O.O.O.+.O.O.O.O.",
"O.O.O.O.O.O.O.+.| . t.e.q   = u.a.8.+ 2.J %   k X.@.O.O.O.O.O.O.O.O.O.",
"O.O.O.O.O.O.o.$.n   -.4.Y w.Y a.a.r.* y.a.i.>.% X / %.o.O.O.O.O.O.O.O.",
"O.O.O.+.O.O.$./ + I y a.a.a.a.a.a.i.<.i.a.a.a.u.V   Q %.O.O.O.O.O.+.O.",
"O.O.O.O.O.O.@.; P a.a.,.5.a.p.a.a.a.a.a.a.a.p.a.a.I   ! $.O.O.O.O.O.O.",
"O.O.O.O.O.+. .+ r.a.V   >.a.a.a.a.a.a.a.a.a.a.a.a.a.D   } +.O.O.O.O.O.",
"O.O.O.O.O.+.} X y.I   * y.a.a.a.a.a.i.i.a.a.a.a.a.a.y.* 6 @.O.O.O.O.O.",
"+.O.O.O.O.%.v 0 p.r R 7.a.a.a.a.a.a.F I a.a.a.a.a.a.a.<.  ! $.O.O.O.O.",
"O.O.O.O.O.O.@ <.a.i.a.a.a.a.a.a.a.a.M Y a.p.a.a.a.a.a.p.8 > +.O.O.O.O.",
"O.O.O.O.*.h m a.a.a.p.a.a.a.a.a.a.u.+ 0.a.a.a.a.a.a.a.a.;.  ( $.O.O.O.",
"O.O.o.%.! O r.a.a.a.a.a.a.a.a.a.a.H r a.a.a.a.a.a.a.a.a.t.  s %.O.O.O.",
"O.O.+.X.. ;.a.a.a.a.a.a.a.a.a.u.H   I a.p.a.a.a.a.a.a.a.a.y . X.O.O.O.",
"O.o.&.h t a.u.a.a.a.a.p.a.r.J o 5 1 M a.a.a.a.a.a.a.a.p.a.R   _ $.o.O.",
"O.O.O.. 8.7.* i.a.a.a.a.-.  1 ~ =.2 A a.a.a.a.a.a.a.a.a.a.0.  c %.O.O.",
"O.+.| X t.q ;.a.a.a.a.G . ^ *.%.X.  ,.a.a.a.a.a.a.a.a.a.a.t.  d %.o.O.",
"O.+.X.@ w.q.u.p.8.a.I @ o.%.X.*.z % u.a.a.a.a.a.a.a.a.a.a.i.% 1 @.O.O.",
"O.o.%.u Z a.a.:.D e.. | @...%.!   <.a.a.a.a.a.a.a.a.a.a.a.p.= $ O.O.O.",
"O.+.+.| @ w J + r.M x *...&.!   -.a.a.a.a.a.a.a.a.a.a.a.a.a.7 X O.O.O.",
"O.O.O.+. .g 2 4 S 3 +.O.%.^   ,.a.a.a.a.a.a.a.a.a.a.a.a.a.a.7 .  .+.O.",
"O.O.O.O.+.%.*.] j | O.+.`   4.a.p.a.a.a.a.a.a.a.a.a.a.a.a.a.9   | +.O.",
"O.+.O.O.O.O.O.+.*.+.O.+.# T a.p.a.a.a.a.a.a.a.a.a.a.a.a.a.a.9   | +.O.",
"O.O.O.O.O.O.O.O.o.o.%.E 7 p.a.a.a.a.a.a.a.a.a.a.a.a.a.a.a.p.8   [ +.O.",
"O.O.O.O.O.O.O.O.O.O.$.: T a.i.a.a.a.p.a.a.p.a.a.p.a.p.a.a.i.-   [ +.O.",
"O.O.O.O.O.O.O.O.O.+.X.  8.a.a.a.a.a.a.a.a.a.a.a.a.a.a.a.a.i.-   | +.O.",
"O.O.+.O.O.O.O.O.O.+.}   t Z C C C C C C C C C C Z C Z B Z N O   [ +.O.",
"+.O.O.O.O.O.O.O.O.+. .l g p f f f p f p f f f f f f f f f f k l  .+.O.",
"O.O.O.O.O.O.O.O.O.O.O.%.&.*.*.*.*.*.*.*.*.*.*.*.*.*.*.*.*.&.%.%.O.O.O.",
"O.O.O.O.O.O.O.O.O.+.O.O.o.o.o.O.o.O.o.o.o.o.o.O.o.o.o.o.O.O.o.o.O.O.O.",
"O.O.O.O.O.O.+.O.O.O.O.O.O.O.O.O.O.O.O.O.O.O.O.O.O.O.O.O.O.O.O.O.O.O.O."
};
