/* XPM */
static char *nld__[] = {
/* columns rows colors chars-per-pixel */
"39 39 134 2",
"   c #0084004E005C",
".  c #09AB042E0000",
"X  c #037D06680A08",
"o  c #05FA087F0BA4",
"O  c #0D780CE60C35",
"+  c #12020A1B01D9",
"@  c #18CA0DD00069",
"#  c #0F920F6F0F44",
"$  c #1F4712960501",
"%  c #1C7313D7096F",
"&  c #0B0D0E0511D7",
"*  c #0D52103113B2",
"=  c #1300136013E2",
"-  c #135615E218FE",
";  c #173219DC1D30",
":  c #1B731C2A1D0D",
">  c #222E156F05E1",
",  c #2FAD1D080646",
"<  c #229116C608F3",
"1  c #243318BC0B14",
"2  c #2A5B1DA30E91",
"3  c #28BC1D730FAE",
"4  c #20121F6A1EAF",
"5  c #2F9520370D6D",
"6  c #358423630D66",
"7  c #383323030928",
"8  c #3C2027B00EBE",
"9  c #2C821FD4105A",
"0  c #331023DA114E",
"q  c #3B4429AF144F",
"w  c #3CD72D1519DB",
"e  c #1CDE1F442254",
"r  c #1F3722B226FE",
"t  c #2361231B22CB",
"y  c #283827F527A3",
"u  c #23BC267629CC",
"i  c #2590281C2B3B",
"p  c #2BC52C9A2DA7",
"a  c #2FFA28EB2059",
"s  c #26242C5633EE",
"d  c #28652C693150",
"f  c #326E322331C8",
"g  c #39493BED3F2A",
"h  c #40272F8A1B44",
"j  c #46D1300A143E",
"k  c #458133681D53",
"l  c #4F2A38641CF8",
"z  c #5BF23F1F1BF3",
"x  c #4DF539852094",
"c  c #541C3CB52066",
"v  c #5BA9424A2354",
"b  c #621645B62314",
"n  c #663E498F26A4",
"m  c #6CAF4BFD2416",
"M  c #65FE4AE729D9",
"N  c #6E7B4E9E27BD",
"B  c #6E4350C42CC6",
"V  c #7425530A2A9A",
"C  c #793156912C50",
"Z  c #779857A130A0",
"A  c #3C9A3E394035",
"S  c #3E084077436B",
"D  c #44094441448B",
"F  c #45EC474E4915",
"G  c #4CA44C434BCB",
"H  c #5302543655AC",
"J  c #553056A75871",
"K  c #56D65818599E",
"L  c #5CCB5CEE5D1E",
"P  c #610E626B6416",
"I  c #6A1D691567D4",
"U  c #621C65426919",
"Y  c #6A356B606CCE",
"T  c #6F026F807020",
"R  c #7637753F7413",
"E  c #7D857CF47C44",
"W  c #82D85C5E2D6B",
"Q  c #873462C13647",
"!  c #883D61FF331F",
"~  c #8DE6678538AF",
"^  c #8FA268C7395E",
"/  c #902D67503572",
"(  c #926369C93836",
")  c #98DA6EC53B6A",
"_  c #9C2270BA3BC3",
"`  c #A05074AA3F68",
"'  c #ADE27E1C43D0",
"]  c #B0BD7FF24467",
"[  c #80647F547E09",
"{  c #B0DA803444D5",
"}  c #B99C85CB468F",
"|  c #BE3E8A684B26",
" . c #815D80247EA6",
".. c #C4628EE24D9F",
"X. c #C81F91284E15",
"o. c #CDF295094F95",
"O. c #CDB6958850F7",
"+. c #D1EC97C750D2",
"@. c #D5829A615239",
"#. c #DAC39E42546C",
"$. c #DEBEA12555F9",
"%. c #DF95A298582B",
"&. c #E29CA3E15751",
"*. c #E56CA6525952",
"=. c #E757A8745BBD",
"-. c #E9D8A96B5ACF",
";. c #86F9864E857D",
":. c #8CB88BF68B0A",
">. c #917A904A8ED8",
",. c #956E95769581",
"<. c #9AF49ACB9A98",
"1. c #A082A0449FF9",
"2. c #A8DDA967AA0E",
"3. c #B0A3B067B01E",
"4. c #B419B3F9B3D3",
"5. c #B91FB836B719",
"6. c #BC43BBCDBB3D",
"7. c #C078C02DBFD1",
"8. c #C646C5BAC514",
"9. c #CA80CA2EC9CA",
"0. c #D196D0B4CFA2",
"q. c #D7DFD75ED6C2",
"w. c #D8A7D7A7D669",
"e. c #D965D8A5D7BA",
"r. c #DDBCDCE4DBDB",
"t. c #E1B6E0CADFA1",
"y. c #E4B1E445E3BC",
"u. c #EA11E90DE7D0",
"i. c #EC57EBB9EAF9",
"p. c #F1F8F0C1EF45",
"a. c #F467F3FFF37F",
"s. c #F8D5F86DF7EE",
"d. c #FAD4F961F791",
"f. c #FF44FF41FF3E",
/* pixels */
"@.@.@.#.@.@.@.@.+.@.@.#.+.@.@.@.@.@.@.@.@.@.@.@.@.@.@.@.@.@.@.@.@.@.@.@.@.@.@.",
"@.@.@.@.@.@.@.@.#.+.+.@.#.@.@.@.@.@.@.@.@.@.@.@.@.@.@.@.@.@.#.@.@.@.@.@.@.@.@.",
"@.@.@.@.@.@.@.@.+.$.*.#.+.@.@.@.@.@.@.@.@.@.@.@.@.@.@.@.@.@.@.@.@.@.@.@.@.@.@.",
"@.@.@.@.@.@.@.@.%.v C #.*.O.@.@.@.#.#.#.@.@.@.@.@.#.@.@.@.@.@.@.@.#.@.@.#.@.@.",
"@.@.@.#.@.#.@.+.&.q   + ^ *.@.@.&.c 1 O.@.+.+.@.@.@.@.@.@.@.@.@.@.@.@.@.@.@.@.",
"@.@.@.@.@.@.@.+.*.8 S T   x #.-.V & e 6 $.&.#.@.+.@.@.@.@.@.@.@.@.@.@.@.@.@.@.",
"@.@.@.@.@.@.@.@.-.z d f.5.o q |   ,.i.o v ] ..$.*.#.@.@.@.@.#.@.@.@.#.@.@.@.@.",
"@.@.@.@.@.@.@.+.&.~ X y.f.r.= . t a.f.E   X   > V ..*.@.@.@.@.@.@.@.@.@.@.@.@.",
"@.@.@.@.@.@.@.@.#.O.  2.i.f O   H f.f.8.  4.2.D     n @.$.+.@.@.@.@.@.@.@.@.@.",
"@.@.#.@.@.@.@.@.&.C   G q.G r.:.<.f.f.y.  8.f.f.t.L   % ' *.+.@.#.@.@.@.@.@.@.",
"@.@.@.@.@.@.@.&.) X Y = r.f.f.f.f.f.f.s.;.u.f.f.f.f.8.:   ) *.+.@.@.@.@.@.@.@.",
"@.@.@.@.@.@.@.@.@ K f.i.y.4.d.f.f.f.f.f.f.f.f.f.f.d.f.u.f   ` &.+.@.@.@.@.@.#.",
"@.@.@.@.@.@.&.'   9.f.4.O = i.f.f.f.f.f.d.d.f.f.f.f.d.f.i.t . ..#.@.@.@.@.@.@.",
"@.@.@.@.@.@.&._ o s.8.    :.f.d.f.f.f.f.f.f.f.f.f.f.f.f.f.8.  q $.+.@.@.@.@.@.",
"@.@.#.@.@.+.*.V - d.f = ; 6.f.f.f.f.f.f.4.,.f.f.f.f.f.f.d.f.R   ~ *.+.@.@.@.@.",
"@.@.@.@.@.@.$.@ Y f.E 9.f.f.f.f.f.f.f.f.I y f.f.f.f.f.f.f.f.u.= % +.#.@.@.@.@.",
"@.@.@.@.+.=.C * u.f.f.f.f.f.f.f.f.f.d.f.G G f.d.f.f.f.f.f.d.f.E   ! *.+.@.@.@.",
"@.@.@.+.$.|   <.f.f.d.f.f.f.f.f.f.f.f.y.  2.f.f.f.f.f.f.f.f.f.r.  3 #.@.@.@.@.",
"@.@.@.@.#.1 F f.f.f.f.f.f.f.f.f.f.f.f.G t d.f.f.f.f.f.f.f.f.f.f.D   ' &.+.@.@.",
"@.@.+.*.n o r.f.f.f.f.f.f.f.f.f.f.t.F   G f.f.f.f.f.f.f.f.f.d.f.>.  N *.+.@.#.",
"#.@.#.|   ,.f.d.f.f.f.f.f.d.f.9.H   2 2 u f.f.f.f.f.f.f.f.f.f.f.q.  0 $.@.@.@.",
"@.+.*.b e f.E D f.f.f.f.f.a.K   < ! =.j d f.f.f.f.f.f.f.f.f.f.f.d.:   X.#.@.@.",
"@.+.*., U r.  <.f.f.f.f.r.e + ) *.*.@.. P f.f.f.f.f.f.f.f.f.f.f.f.D   ' $.@.@.",
"@.@.*.7 T 9.D f.f.d.f.t.= q @.*.O.&.^   6.f.d.f.f.f.f.f.f.f.f.d.f.I   ( &.+.@.",
"@.+.*.m r f.f.f.6.G f.A 0 *.#.O.$.X.. S f.f.f.f.f.f.f.f.f.f.f.f.f. .  Z *.+.@.",
"@.@.#.... L d.d.d E 4.  +.#.+.#.O.> ; r.f.f.f.f.f.f.f.f.f.f.f.d.f.:.  n *.+.@.",
"@.@.@.&.)   & X 9 a.u C =.O.#.+.< ; w.f.f.f.f.f.f.f.f.f.f.f.f.d.f.:.  v *.+.@.",
"@.@.@.@.&...N V a d 2 @.@.#.+.1 p u.f.f.f.f.f.f.f.f.f.f.f.f.f.f.f.:.  l &.+.@.",
"@.@.@.@.+.#.*.-.} W o.#.+.#.0 i p.f.d.f.f.f.f.f.f.f.f.f.f.f.f.f.f.:.  k &.+.@.",
"@.@.@.#.@.@.+.+.#.=.@.+.*.V X r.f.f.f.f.f.f.f.f.f.f.f.f.f.f.f.d.f.:.  k $.@.@.",
"@.@.@.@.@.@.@.@.@.+.@.#.O.  :.f.d.f.f.f.f.f.f.f.f.f.f.f.f.f.f.d.f.:.  w $.@.@.",
"@.@.@.@.@.@.@.@.@.@.+.*.W o u.f.f.d.f.f.d.f.f.d.f.f.d.f.f.f.f.d.f.;.  w &.+.@.",
"@.@.@.#.@.@.@.@.@.#.+.*.8 g f.f.f.f.f.f.f.f.f.f.f.f.f.f.f.f.f.d.f.[   w $.@.@.",
"@.@.@.@.@.@.@.@.@.@.@.$.> g w.8.9.9.9.9.9.9.9.9.9.9.9.9.9.9.9.8.r.K   w $.+.@.",
"@.@.@.@.@.@.@.@.@.@.@.#.2                                             q $.@.@.",
"@.@.@.@.@.@.@.@.@.@.@.@.} ' { ] { { { { ] { ] { ] { { ] { { ] ] { ' ' } #.@.@.",
"@.@.@.@.@.@.@.#.#.@.@.@.#.$.$.$.$.$.$.$.$.$.$.$.$.$.$.$.$.$.$.$.$.$.$.#.@.@.@.",
"@.@.@.@.@.@.@.@.@.@.@.@.@.+.+.@.@.@.@.+.+.@.+.@.@.+.+.@.+.@.@.@.@.+.@.@.@.@.@.",
"@.@.#.@.@.@.@.@.@.@.@.@.@.@.@.@.@.@.@.@.@.@.@.@.@.@.@.@.@.@.@.@.@.@.@.@.@.@.@."
};
