/* XPM */
static char *nld__[] = {
/* columns rows colors chars-per-pixel */
"33 33 114 2",
"   c #00AD006B00CC",
".  c #0B0304800000",
"X  c #00B804730AD0",
"o  c #059108000C00",
"O  c #07B909130ADA",
"+  c #14140CD60409",
"@  c #18910E6001F1",
"#  c #108D0F950E66",
"$  c #05BC0A9D10CC",
"%  c #0B4D0E9912D3",
"&  c #0D61109314BE",
"*  c #131712E012A4",
"=  c #18C817341546",
"-  c #1B061B891C1A",
";  c #263A16D70411",
":  c #28D219500663",
">  c #2568188F09AD",
",  c #2BA41B5D07E5",
"<  c #360822C60B33",
"1  c #3AF326030D34",
"2  c #2B122052139D",
"3  c #3361248F127B",
"4  c #3A4426BD10C6",
"5  c #3F0C2B371309",
"6  c #23CF235E22D5",
"7  c #2478277B2B33",
"8  c #2B1B2B252B3B",
"9  c #3BCA31F825FC",
"0  c #2F54323535C0",
"q  c #32EE33C334C3",
"w  c #31FD35CD3A90",
"e  c #3AE13B0E3B44",
"r  c #45AA2DD910D3",
"t  c #4F5E34AE141D",
"y  c #4F7B373019AB",
"u  c #54803C7C1F61",
"i  c #60AB43111F10",
"p  c #687646B41D81",
"a  c #65754839248C",
"s  c #6AD24B6C252A",
"d  c #6CAD4EAA2A09",
"f  c #709B4FBF280B",
"g  c #765D55322CD8",
"h  c #7A1E55F12A3A",
"j  c #7FF459432A0C",
"k  c #3C60402C44CF",
"l  c #41E742D34400",
"z  c #4671478E48EB",
"x  c #4D3E4C824BA7",
"c  c #47444BD95197",
"v  c #4AFE4DD25138",
"b  c #530B55FA5997",
"n  c #55D6595B5DA1",
"m  c #5CED5C5C5BAB",
"M  c #631363366358",
"N  c #62A265336861",
"B  c #64AD685F6CE2",
"V  c #6AA46ACC6B02",
"C  c #7260721271B3",
"Z  c #7A507ABC7B41",
"A  c #869B61FE354A",
"S  c #8B2A64723540",
"D  c #951E6A6E3641",
"F  c #9D616EAE35B3",
"G  c #9DD071673B3C",
"H  c #A43675D83D3B",
"J  c #A3B177654157",
"K  c #A74179CB4250",
"L  c #ACF37D7A4387",
"P  c #B0557E69417D",
"I  c #B4538248452B",
"U  c #BABB868946D7",
"Y  c #B76D85B34903",
"T  c #BC4B884748B2",
"R  c #C3B58E144CA4",
"E  c #C70290584DA4",
"W  c #CD0493E94E37",
"Q  c #CD25954D5127",
"!  c #D1F597C650C5",
"~  c #D56E9A51522D",
"^  c #DA679E16547A",
"/  c #DEC5A12155E8",
"(  c #DFC4A2C25851",
")  c #E0D9A2BA56EC",
"_  c #E3ECA5825956",
"`  c #E7DCA8A05B73",
"'  c #E94AA99E5BE3",
"]  c #F1BCB0E861D6",
"[  c #7EEA81358402",
"{  c #838C833182CD",
"}  c #8908884A8765",
"|  c #851088A38D07",
" . c #8B2A8AD58A6D",
".. c #8B018E2B9207",
"X. c #8EA3918D951A",
"o. c #966099779D3B",
"O. c #9CEA9D399D86",
"+. c #9B759DDAA0C4",
"@. c #A48AA3E5A31C",
"#. c #AC0CAD1CAE69",
"$. c #AE3BAF79B0F5",
"%. c #B286B293B2A0",
"&. c #BE34BDE7BD8B",
"*. c #C074C015BF97",
"=. c #C551C57AC5AA",
"-. c #C9B1C8EDC7F2",
";. c #CC95CC1BCB87",
":. c #D54CD4ACD3E3",
">. c #DD4EDCFADC92",
",. c #E3BAE3A3E387",
"<. c #ED2AECD2EC65",
"1. c #F079F03CEFF3",
"2. c #F4C3F462F3EB",
"3. c #FF11FF10FF0E",
/* pixels */
"~ ~ ~ ~ ~ ~ ~ ~ ! ~ ~ ~ ~ ~ ~ ~ ~ ~ ~ ~ ~ ~ ~ ~ ~ ~ ~ ^ ~ ~ ~ ~ ~ ",
"~ ~ ~ ~ ~ ~ ~ ^ / ! ~ ~ ~ ^ ! ! ~ ~ ~ ^ ~ ~ ~ ~ ~ ^ ~ ~ ~ ~ ~ ~ ~ ",
"~ ~ ~ ^ ~ ~ ^ R I ` ^ ! ~ ! ^ ` ~ ~ ~ ~ ~ ~ ~ ~ ~ ~ ~ ~ ~ ~ ~ ~ ~ ",
"~ ~ ~ ~ ~ ~ / P   1 T ` ! / U a ^ ~ ! ~ ~ ~ ~ ~ ~ ~ ~ ~ ~ ~ ^ ~ ~ ",
"~ ~ ^ ~ ~ ~ / I * c   h ` ! 2 X u ' _ ^ ~ ! ~ ~ ~ ~ ~ ~ ~ ~ ~ ~ ~ ",
"~ ~ ~ ~ ~ ~ ^ E + >.=.$ g s k 1.= s H R ` ) ~ ~ ~ ~ ~ ^ ~ ~ ~ ~ ~ ",
"~ ~ ~ ~ ~ ~ ! ) , X.3.%.    %.3.}   -   , D ) / ! ~ ~ ~ ~ ~ ^ ~ ~ ",
"~ ~ ~ ~ ~ ~ ~ ' r c >.= x = >.3.=.= 2.=.n   > I ` ~ ~ ~ ~ ~ ~ ~ ~ ",
"~ ^ ~ ~ ~ ! ` S * * &.<.3.:.2.3.:.e 3.3.3.,.l   S ) ! ~ ~ ~ ~ ~ ~ ",
"~ ~ ~ ~ ! ^ R . #.-.,.<.3.3.3.3.3.3.3.3.3.3.3.{   A ` ! ~ ~ ~ ~ ~ ",
"~ ~ ~ ~ ! ` j 0 3.,.q e 3.3.3.3.3.3.3.3.3.3.2.3.{   K ) ~ ~ ~ ~ ~ ",
"~ ~ ~ ~ ! ` p n 3.6   O.3.3.3.3.3.3.3.3.3.3.3.3.3.z + ! ^ ~ ~ ~ ~ ",
"~ ^ ~ ~ ! ' < ..@.= M >.3.3.3.3.3.C @.3.3.3.3.3.3.>.  s _ ~ ~ ~ ~ ",
"~ ~ ~ ! ) L * ,.1.,.3.3.3.3.3.3.3.e  .3.3.3.3.3.3.3.V   R ^ ~ ~ ~ ",
"~ ~ ~ ~ ) : | 3.3.3.3.3.3.3.3.3.1.= -.3.3.3.3.3.3.3.:.  f _ ! ~ ~ ",
"~ ~ ~ ` i q 3.3.3.3.3.3.3.3.3.3.N e 3.3.3.3.3.3.3.3.3.e @ ^ ~ ~ ~ ",
"~ ~ _ H O ;.3.3.3.3.3.3.3.3.1.N   Z 3.3.3.3.3.3.3.3.3. .  L / ! ~ ",
"~ ~ _ , [ 3.,.3.3.3.3.3.>.N o 1 < b 3.3.3.3.3.3.3.3.3.:.  g ` ! ~ ",
"~ ^ H # <.e V 3.3.3.3.O.X < H ] < B 3.2.3.3.3.3.3.3.3.2.& r ) ! ~ ",
"~ ) F q ;.- 2.3.3.3.Z   H ' _ R   %.3.3.3.3.3.3.3.3.3.3.w @ ^ ~ ~ ",
"~ ^ U = >.<.3.O.;.#.. R _ ! ' y 7 3.3.3.3.3.3.3.3.3.3.3.v   Q ^ ~ ",
"~ ~ ) r c 3.>.6 =.8 H ` W ' d   -.3.3.3.3.3.3.3.3.3.2.3.m   R ^ ~ ",
"~ ~ ^ E > %   Z | r ` W ` d X &.3.3.3.3.3.3.3.3.3.3.3.3.M   Y / ~ ",
"~ ~ ~ ^ ~ H D 9 2 R ~ ` h & :.3.3.3.3.3.3.3.3.3.3.3.3.3.M   L / ! ",
"~ ~ ^ ~ ~ ) _ W ~ ^ / G o ;.3.3.3.3.3.3.3.3.3.3.3.3.3.3.M   K ) ~ ",
"~ ~ ~ ~ ~ ~ ~ ~ ~ ~ ^ ; X.3.2.3.3.3.3.3.3.3.3.3.3.3.3.3.m   K ) ! ",
"~ ~ ~ ~ ~ ~ ~ ~ ! _ D - 2.3.3.3.3.3.3.3.3.3.3.3.3.3.2.3.m   J / ~ ",
"~ ~ ~ ~ ~ ~ ~ ~ ! ` t n 3.3.3.3.3.3.3.3.3.3.3.3.3.3.3.3.m   J ) ! ",
"^ ~ ~ ~ ~ ~ ~ ~ ! _ 3 w +.X.X.X...X.X.X.X.X.X.X.X.X...o.8   H / ~ ",
"~ ~ ~ ~ ~ ~ ~ ~ ~ / d > ; ; ; ; ; ; ; ; ; ; > ; ; ; ; ; 3 3 L / ~ ",
"~ ~ ~ ~ ~ ~ ~ ~ ~ ~ / / _ _ _ _ _ _ _ _ _ ( _ _ _ _ _ _ ) / ^ ! ~ ",
"~ ~ ~ ~ ~ ^ ~ ~ ~ ~ ~ ! ~ ! ~ ~ ! ! ~ ! ~ ! ~ ~ ~ ! ~ ! ~ ! ~ ~ ~ ",
"~ ~ ~ ~ ~ ~ ~ ^ ~ ~ ~ ~ ~ ~ ~ ~ ~ ~ ~ ~ ~ ~ ~ ~ ~ ~ ^ ~ ~ ~ ~ ~ ~ "
};
