/* XPM */
static char *nld__[] = {
/* columns rows colors chars-per-pixel */
"42 42 129 2",
"   c #00710058006A",
".  c #0C0E046B0000",
"X  c #0CAA090A0491",
"o  c #0512089B0CEE",
"O  c #0B7C0B530B28",
"+  c #0FBF05FB0000",
"@  c #121808760046",
"#  c #1A4F107F04E1",
"$  c #16BE106F08B6",
"%  c #1D6215030B21",
"&  c #0BE70E1110C3",
"*  c #0D7A10911470",
"=  c #127113C81569",
"-  c #17AE175916F1",
";  c #13F116EA1A8C",
":  c #166418711B08",
">  c #1CE31CA91C60",
",  c #22B015770555",
"<  c #1FF517710D10",
"1  c #25451A030C5E",
"2  c #33D022300CAD",
"3  c #2DD921161180",
"4  c #35A924D01067",
"5  c #376628791649",
"6  c #3AAE297A14C1",
"7  c #17831B492015",
"8  c #1CA01F49228E",
"9  c #242723D5237A",
"0  c #280126CF255A",
"q  c #2963284026DF",
"w  c #21A324C828A2",
"e  c #2B012AC02A71",
"r  c #29842E46343E",
"t  c #319F34D838BF",
"y  c #366B39623D01",
"u  c #3BAA3B4E3AE8",
"i  c #422F2D0D1341",
"p  c #40392EB81924",
"a  c #46AE304A14FA",
"s  c #46C533E31CD8",
"d  c #48DB35B31E53",
"f  c #4EB839691F69",
"g  c #54673B291C70",
"h  c #598B3EDE1E52",
"j  c #4D1E38BD1FE0",
"k  c #52D83CE22221",
"l  c #401A3F7E3EC1",
"z  c #5DBF43AF23F1",
"x  c #654047632309",
"c  c #61CC47A027B2",
"v  c #642D49892907",
"b  c #6C404E812A31",
"n  c #702B4F2526D7",
"m  c #6EA150B32C2C",
"M  c #74D0546B2CE4",
"N  c #793E56162B39",
"B  c #7C2D59F03028",
"V  c #3C723EE841E9",
"C  c #456C457A458F",
"Z  c #4D344C5B4B54",
"A  c #4FD04EDF4DBA",
"S  c #5A905B035B91",
"D  c #5F4C614663AF",
"F  c #610063046578",
"G  c #6A1D690967B4",
"H  c #657A67196913",
"J  c #6D506CEC6C72",
"K  c #743073EC7398",
"L  c #746B762C784F",
"P  c #7B4B7B867BD2",
"I  c #82B45CFE2EF9",
"U  c #82665EC73344",
"Y  c #8D8B66433654",
"T  c #8E29675537F2",
"R  c #94326B7939CC",
"E  c #98716ED73C13",
"W  c #9C7E71D43DC4",
"Q  c #A0CE74B03ED9",
"!  c #9E44746E4136",
"~  c #A31E76E640EE",
"^  c #ACFE7DD54448",
"/  c #B30581F44613",
"(  c #B96386E2493A",
")  c #BD5489AD4AA0",
"_  c #C5678EE74C67",
"`  c #CAE292D74E72",
"'  c #CC3B944C500A",
"]  c #D1D097B550CD",
"[  c #D5979A6E523C",
"{  c #DA749E7E5552",
"}  c #DED4A151563F",
"|  c #DFE5A2D85856",
" . c #E239A3A35743",
".. c #E510A5E458CC",
"X. c #E823A8475A57",
"o. c #EA2EA9F65B97",
"O. c #F438B0F75EDE",
"+. c #84D8848A842A",
"@. c #890587BE8630",
"#. c #8CA48C468BD3",
"$. c #916990548F02",
"%. c #965D95DC9540",
"&. c #981C97CA9765",
"*. c #9BBA9B619AF5",
"=. c #A0A09F759E09",
"-. c #A5B0A4E9A3F7",
";. c #A92AA884A7BA",
":. c #AC5DAB8FAA9A",
">. c #B1AEB0B6AF8A",
",. c #B582B4DAB40C",
"<. c #BD3DBA6BB6FB",
"1. c #BC9EBC34BBB3",
"2. c #C0D3C031BF67",
"3. c #C3DAC210BFE5",
"4. c #C559C481C37B",
"5. c #C8C1C881C831",
"6. c #CE28CD56CC57",
"7. c #D58FD53FD4DE",
"8. c #DCB4DC4ADBC8",
"9. c #E12FE036DF06",
"0. c #E249E117DF9D",
"q. c #E599E555E502",
"w. c #EC6BEBE2EB3A",
"e. c #F095F034EFBC",
"r. c #F25BF0B3EEA4",
"t. c #F57FF511F487",
"y. c #F894F791F656",
"u. c #F9F0F91FF820",
"i. c #FF4AFF48FF45",
/* pixels */
"[ [ [ [ [ [ [ [ [ [ [ [ [ [ [ [ [ [ [ [ [ [ [ [ [ [ { [ [ [ [ [ [ [ [ [ [ [ [ [ [ [ ",
"[ [ [ [ [ [ [ [ [ [ ] [ [ [ [ [ [ [ [ [ [ [ [ [ [ [ [ [ [ [ [ [ [ [ [ [ [ [ [ [ [ [ ",
"[ [ [ [ [ [ [ [ [ [ ..{ ] [ [ [ [ [ [ ] [ [ [ [ [ [ [ [ [ [ [ [ [ { [ [ [ [ [ { [ [ ",
"[ [ [ [ [ [ [ [ { _ B _ o.[ [ [ [ [ [ X.[ [ [ [ [ [ [ [ [ [ [ [ [ [ [ [ [ [ [ [ [ [ ",
"[ [ [ [ [ [ { [ { _ X   c [ | ] [ | _ j ( | [ [ [ [ [ [ [ [ [ [ [ [ [ [ [ [ [ [ [ [ ",
"[ [ [ [ [ [ [ [ [ ` @ e & @ ~ ..] ] 3   < _ [ ] ] [ [ [ [ { [ [ [ [ [ [ [ [ [ [ [ [ ",
"[ [ [ [ [ [ [ [ [ { + L e.y   N O.x o <.8 6 X.X.X.{ [ [ [ [ [ [ [ [ [ [ [ [ [ [ [ { ",
"[ [ [ [ [ [ [ [ ] X.2 y i.i.P   m . P i.:.  3 i N ^ { X.[ [ [ [ [ [ { [ [ [ [ [ [ [ ",
"[ [ [ [ [ [ [ [ ] X.M o w.i.q.9   O 8.i.i.e O r     % U [  .] ] [ [ [ [ [ [ [ [ { [ ",
"[ [ [ [ [ [ [ [ ] X.~   ,.7.  e e > i.i.i.S e i.0.$.9   % W X.[ [ [ [ [ [ [ { [ [ [ ",
"[ [ [ [ [ [ [ [ { _ %   u q.*.i.7.;.i.u.i.J > i.i.i.i.*.-   c { [ [ [ [ [ [ [ [ [ [ ",
"[ [ [ [ [ [ [ [  .4 w *.- w.i.i.i.i.i.i.i.7.4.i.i.u.i.i.w.Z   d [ [ ] [ [ [ [ [ [ [ ",
"[ [ [ [ [ [ ]  .E   ;.i.i.8.%.t.i.u.i.i.i.i.i.i.i.i.i.i.i.i.J   k | ] [ [ [ [ [ [ [ ",
"{ [ [ [ [ [ ] X.g w i.i.%.  O 8.i.i.i.i.i.i.u.i.i.i.i.i.i.u.i.S   N X.] [ [ [ [ [ [ ",
"[ [ [ [ [ [ [ X.i V i.&.    @.i.i.i.i.i.i.i.i.i.i.i.i.i.i.i.i.r.9   ^ | [ [ [ [ [ [ ",
"[ [ [ [ [ [ [ ..# S u.O O   ;.i.u.i.i.i.i.i.%.7.i.i.i.i.i.i.i.i.,.  5 | [ [ [ [ [ [ ",
"[ [ [ [ [ ] | ^   ,.t.u 5.q.i.i.i.i.i.i.i.t.o +.i.u.i.i.i.i.i.i.i.Z   R ..' [ [ [ [ ",
"[ [ [ [ [ ] | 2 y i.i.i.i.i.i.i.i.i.i.i.i.w.  =.i.i.i.i.i.i.i.i.i.3.  3 { [ [ [ [ [ ",
"[ [ [ [ ] X.U   6.i.i.i.u.i.i.i.i.i.i.u.i.;.  8.i.i.i.i.i.i.i.i.i.i.u   W  .] [ [ [ ",
"[ [ [ [ { (   P i.u.i.i.i.i.i.i.i.i.i.i.t.> C i.i.i.i.i.i.i.i.i.i.i.&.  j  .] [ [ [ ",
"[ [ [ [ [ 1 e u.i.i.i.i.i.i.i.i.i.i.i.t.Z   ,.i.i.i.i.i.i.i.i.i.i.i.8.  @ _ [ [ [ [ ",
"[ [ [ X.M   4.i.i.i.i.i.i.i.i.i.i.t.&.>     &.i.u.i.i.i.i.i.i.i.i.i.i.u   E  .] [ [ ",
"[ [ [ `   J i.5.q.i.i.i.i.i.i.t.P *   6 ~   #.i.i.i.i.i.i.i.i.i.i.u.i.P   v X.] [ [ ",
"[ ] X.T   q.1.  *.i.u.i.u.i.5.7   g ( o.^   ;.i.i.i.i.i.i.i.i.i.i.i.i.>.  5  .[ [ [ ",
"[ ] X.n & i.e C i.i.i.u.i.;.  4 ) o.[ ..z   8.i.i.i.i.i.i.i.i.i.i.i.i.7.  $ ` [ [ [ ",
"[ ] X.I o t.K 1.i.t.w.i.,.  z ..{ ] [ '   C i.i.i.i.i.i.i.i.i.i.i.i.i.w.=   ) [ [ [ ",
"[ [ } /   ,.i.u.i.S L i.= g X.[ ] [  .s   3.i.i.i.i.i.i.i.i.i.i.i.i.i.u.>   ^ | [ [ ",
"[ [ [ | i & 4.i.3.  6.P @ | [ ] [ X.k   #.i.i.i.i.i.i.i.i.i.i.i.i.i.i.i.0   E  .] [ ",
"[ [ [ { _ 1   7   G w.  R X.] [  .z   @.i.i.i.i.i.i.i.i.i.i.i.i.i.i.i.i.e   T  .] [ ",
"[ [ [ [ { [ M z i t r 4 | ] ] ..z   -.i.i.i.i.i.i.i.i.i.i.i.i.i.i.i.i.i.e   U  .] [ ",
"[ [ [ [ [ [ ..X. .N x ` [ ]  .b   :.i.u.i.i.i.i.i.i.i.i.i.i.i.i.i.i.i.i.e   B  .[ [ ",
"[ [ [ [ [ [ ] ' [ X.o.[ ]  .W   %.i.u.i.i.i.i.i.i.i.i.i.i.i.i.i.i.i.i.i.e   M X.] [ ",
"[ [ [ [ [ [ [ [ [ [ ] [ [ { , C i.i.i.i.i.i.i.i.i.i.i.i.i.i.i.i.i.i.i.i.q   m ..] [ ",
"[ [ [ [ { [ [ [ [ [ [ [  .Q   1.i.i.i.i.i.i.i.i.i.i.i.i.i.i.i.i.i.i.i.i.q   m ..] [ ",
"[ [ [ [ [ [ [ [ [ [ [ [ X.g ; t.i.u.u.i.i.u.i.i.u.i.i.u.u.i.i.i.i.u.i.t.3   b X.[ [ ",
"[ [ [ [ [ [ [ [ [ [ [ [ { , V i.i.i.i.i.i.i.i.i.i.i.i.i.i.i.i.i.i.i.i.t.>   m  .] [ ",
"[ [ [ [ [ [ [ [ [ [ ] { ] # ; H D D D D D D D D D D D D D D D D D D F S o   m X.] [ ",
"[ [ [ [ [ [ [ [ [ [ [ [ [ p @ @ @ @ @ @ @ @ @ @ @ @ @ @ @ @ @ @ @ . @ @ 1 $ B ..[ [ ",
"[ [ [ [ { [ [ [ [ [ [ [ [ { { } { { { { { { } { { } { { { { } { { } { { { [ [ [ [ [ ",
"[ [ [ [ [ [ [ [ [ [ [ [ [ [ [ [ [ [ [ { [ [ [ [ [ [ [ [ [ [ [ [ [ [ [ [ [ [ [ [ [ [ ",
"[ [ [ [ [ [ [ [ [ [ [ [ [ [ [ [ [ [ [ [ [ [ [ [ [ [ [ [ [ [ [ [ [ [ [ [ [ [ [ [ [ [ ",
"[ [ [ [ [ [ { [ { [ [ ] [ [ [ [ [ [ [ [ [ [ [ [ [ [ [ [ [ [ [ [ [ [ [ [ [ [ [ [ [ [ "
};
