/* XPM */
static char *nld__[] = {
/* columns rows colors chars-per-pixel */
"44 44 120 2",
"   c #006100520074",
".  c #0A6A056C01E5",
"X  c #0E730A1704C5",
"o  c #002B03EA087D",
"O  c #06A608F10BBD",
"+  c #0C0A0BC90B81",
"@  c #13030B6902BF",
"#  c #13780E4807F8",
"$  c #16C20FDD0774",
"%  c #1CF2128605DE",
"&  c #1EF414E908C5",
"*  c #0BF50E5F1174",
"=  c #136513AC1401",
"-  c #13B1162B1964",
";  c #1DD71D671CE8",
":  c #206514D506B8",
">  c #2DE71EA90C0F",
",  c #2FD01F8C0BB3",
"<  c #24991B541003",
"1  c #201D1EFA1D97",
"2  c #30161FCB0BEA",
"3  c #348925711356",
"4  c #3775291B1796",
"5  c #3EF62B0E12D7",
"6  c #3DAC2CFE18A2",
"7  c #15F81A671FD2",
"8  c #1C121F9323DA",
"9  c #1CAF204324A0",
"0  c #239823F0245E",
"q  c #238C2613292A",
"w  c #2BE42BFB2C17",
"e  c #2FF72FAA2F4B",
"r  c #2B512DAF309E",
"t  c #327A330833B6",
"y  c #32DD35E53999",
"u  c #3E983E433DDA",
"i  c #42112DF21563",
"p  c #40272E7218EC",
"a  c #442D2FC416DC",
"s  c #444C317F1A8D",
"d  c #4BA336651CA0",
"f  c #52283AB91E1F",
"g  c #4E393978202E",
"h  c #567E3E852154",
"j  c #57D0407623F7",
"k  c #5E3843BE236F",
"l  c #623346C82544",
"z  c #67004A0B26B5",
"x  c #6AD64C832781",
"c  c #60FE476B2836",
"v  c #64BC49B928C7",
"b  c #6A904D6329D1",
"n  c #754654F92D94",
"m  c #772D57A43129",
"M  c #7CC25B2F3238",
"N  c #43D9430B4211",
"B  c #4BD64B084A10",
"V  c #52A452CA52F9",
"C  c #5D2E5CB55C25",
"Z  c #621560DF5F66",
"A  c #642963EE63AE",
"S  c #6BC16C076C5B",
"D  c #7061700E6FA9",
"F  c #73EC733F726B",
"G  c #7945781C76B2",
"H  c #776077BF7834",
"J  c #7D267C8C7BD3",
"K  c #817D5E7C33C5",
"L  c #8CD2663E372C",
"P  c #8FE7681F3793",
"I  c #92D86A6C3917",
"U  c #996D6F303BA4",
"Y  c #9C39719A3D8F",
"T  c #A38B76C84028",
"R  c #A6C878E940EE",
"E  c #A9357AD74241",
"W  c #AF6E80044613",
"Q  c #B27A817545A4",
"!  c #B5EB849A4870",
"~  c #BAA1877B490F",
"^  c #BE578A404AA8",
"/  c #C3608E234D2C",
"(  c #C79B90D44DFC",
")  c #CAF692E34E74",
"_  c #CE0D958D507D",
"`  c #D1A897A950E2",
"'  c #D57E9A5C5233",
"]  c #DAFC9E605469",
"[  c #DEC9A12655EE",
"{  c #E2A3A3E2574D",
"}  c #E50FA600590C",
"|  c #EB8BAA8B5B3C",
" . c #86948627859C",
".. c #887A878C8664",
"X. c #872F8791880A",
"o. c #8BC98B5A8AD3",
"O. c #936992EF9259",
"+. c #9DDE9CD49B8F",
"@. c #A0DC9F7C9DD4",
"#. c #A3A3A359A2FD",
"$. c #AC61AC03AB90",
"%. c #B21EB13DB02E",
"&. c #B41FB3CEB36C",
"*. c #B85DB72DB5B7",
"=. c #BD12BCCEBC7F",
"-. c #C053BF51BE1A",
";. c #C1CCC10CC022",
":. c #C56AC4D8C426",
">. c #C84DC71AC5A5",
",. c #CAD8C97FC7D7",
"<. c #CE01CD72CCC5",
"1. c #D212CFD1CD0B",
"2. c #D101D094D010",
"3. c #D4B2D41CD364",
"4. c #D9EDD8E7D7A9",
"5. c #DD9FDD2ADC9B",
"6. c #E5B5E563E4FF",
"7. c #ED80ED17EC95",
"8. c #F4F9F4B0F454",
"9. c #FF6DFF6AFF67",
/* pixels */
"' ' ' ] ' ' ' ' ' ' ' ' ' ' ' ' ' ' ' ' ' ' ' ' ' ' ' ' ' ' ' ' ' ' ' ' ' ' ' ' ' ' ' ' ",
"' ' ' ' ' ' ' ' ' ' ' ' ' ' ' ' ' ' ' ' ' ' ' ' ' ' ' ' ' ' ] ' ' ' ' ' ' ] ' ' ' ] ' ' ",
"' ' ' ' ' ' ' ' ' ' [ ] ` ' ' ' ' ' ] ' ` ' ' ' ' ' ' ' ' ' ' ' ' ' ] ' ' ' ' ' ' ' ' ' ",
"' ' ' ' ] ' ' ' ' ] E Q } [ ` ' ' ' ' ' } ' ' ' ' ] ' ' ' ' ' ' ' ' ' ' ' ' ' ' ' ' ' ' ",
"' ' ' ' ' ' ' ' ` } l   f / } ' ' ' ] ` M ' ] ' ' ' ' ' ' ' ' ' ' ' ' ' ' ' ' ' ' ' ' ' ",
"' ' ' ' ' ' ' ' ' } z   +   n { ' ' ' 6   s ] ' ` ' ' ' ' ' ] ' ' ' ' ' ' ' ' ' ] ' ' ' ",
"' ' ' ' ' ' ' ' ` } n o <.C   p ` | l o D o l | { ] ' ' ` ' ' ' ' ' ] ' ' ' ] ' ' ' ' ' ",
"] ' ' ' ] ' ' ' ` { Y   :.9.@.  3 Q   S 9.G   n U ~ ] } ] ' ' ' ' ' ' ' ' ' ' ' ' ' ' ' ",
"' ' ' ' ' ] ' ' ' ] /   X.9.9.-.  X + 5.9.7.-       @ c ! { ] ` ' ' ' ' ' ' ' ' ' ] ' ' ",
"' ' ' ' ' ' ' ' ' ` } 2 y 9.*.q     t 9.9.9.B 1 1. .w     d ^ } ` ' ' ' ' ] ' ' ' ' ' ' ",
"' ' ' ' ' ' ' ' ` [ ~ #   5.J 1 <.C C 9.8.9.D O 9.9.9.>.B   O K { ' ' ' ' ' ' ' ' ' ' ' ",
"] ' ' ' ' ' ' ' ] ` & 0 O C 9.9.9.9.9.9.9.9.O.u 9.9.9.9.9.*.1   j [ ' ` ' ' ' ' ' ' ' ' ",
"' ' ' ] ' ' ' ` { k   3.$.#.9.9.9.9.9.9.9.9.9.9.9.9.9.9.9.9.7.j   f ] ' ' ' ' ' ' ' ' ' ",
"' ' ' ' ' ' ' ] (   A 9.9.6.V V 9.9.9.9.9.9.9.9.9.9.9.9.9.9.9.8.B   v { ' ' ' ' ' ' ' ' ",
"' ' ' ' ' ' ' [ E   ;.9.&.+   S 9.9.9.9.9.9.9.9.9.9.9.9.9.9.9.9.8.w   I { ' ' ' ' ' ' ] ",
"' ' ' ' ' ' ` { Y   3.7.+     3.9.9.9.9.9.9.9.9.9.9.9.9.9.9.9.9.9.>.  @ ( ] ' ' ' ' ' ' ",
"' ' ' ' ' ' ' } z o 9.S   w N 8.9.9.9.9.9.9.9.C #.9.9.9.9.9.9.9.9.9.D   k { ` ' ' ' ' ' ",
"' ' ' ' ' ' ' ' . V 9.#.o.9.9.9.9.9.9.9.9.9.9.+ A 9.9.9.9.9.9.9.9.9.6.=   Q ] ' ' ' ' ' ",
"' ' ' ' ' ' } x   4.9.9.9.9.9.9.9.9.9.9.9.9.8.  X.9.9.9.9.9.9.9.9.9.9.G   j } ` ' ' ] ' ",
"' ' ' ' ' [ Q    .9.9.9.9.9.9.9.9.9.9.9.9.9.@.  <.9.9.9.9.9.9.9.9.9.9.3.o . / ] ' ' ' ' ",
"' ] ' ' ] ` % t 9.9.9.9.9.9.9.9.9.9.9.9.9.7.= u 9.9.9.9.9.9.9.9.9.9.9.9.N   M } ` ' ' ' ",
"' ' ' ` { h   ,.9.9.9.9.9.9.9.9.9.9.9.9.7.u   $.9.9.9.9.9.9.9.9.9.9.9.9.O.  4 [ ' ' ' ' ",
"' ' ' [ T   J 9.9.9.9.9.9.9.9.9.9.9.8.O.= o   ..9.9.9.9.9.9.9.9.9.9.9.9.4.    ^ ] ' ' ' ",
"' ' ' [ > q 9.7.5.9.9.9.9.9.9.9.7.F +   3 Y   H 9.9.9.9.9.9.9.9.9.9.9.9.9.e   I } ` ' ' ",
"' ' ] !   O.9.q e 9.9.9.9.9.9.&.=   d W | W   O.9.9.9.9.9.9.9.9.9.9.9.9.9.C   v } ` ' ' ",
"' ' { Y   5.O.  :.9.9.9.9.9.X.  3 ^ } ] { x   >.9.8.9.9.9.9.9.9.9.9.9.9.9.o.  p { ' ' ' ",
"' ' [ T   5...V 9.9.9.9.9. .  x { ] ` ' ` @ q 9.9.9.9.9.9.9.9.9.9.9.9.9.9.$.  < ' ' ' ' ",
"' ' ] /   O.9.8.9.6.u 8.:.  n } ' ` ` } c   +.9.9.9.9.9.9.9.9.9.9.9.9.9.9.>.  # ( ' ' ' ",
"' ' ' { s * 4.9.9.S ; 9.r 5 } ` ' ' } m   V 9.9.9.9.9.9.9.9.9.9.9.9.9.9.9.1.    ~ ] ' ' ",
"' ' ' ] / @ O S V   :.$.  / [ ' ` } M   B 8.9.9.9.9.9.9.9.9.9.9.9.9.9.9.9.2.    Q { ` ' ",
"' ' ' ` [ ^ 5   . = =.7 k } ` ` } K   C 9.9.9.9.9.9.9.9.9.9.9.9.9.9.9.9.9.3.    R { ' ' ",
"' ' ' ' ` ] [ _ ] c   5 ` ' ` { L   F 9.9.9.9.9.9.9.9.9.9.9.9.9.9.9.9.9.9.3.    Y { ` ' ",
"' ' ' ' ' ' ` ] ' { _ [ ] ` { R   A 9.9.9.9.9.9.9.9.9.9.9.9.9.9.9.9.9.9.9.3.    U { ' ' ",
"' ' ' ' ' ] ' ' ' ` ] ' ` ' ] & e 8.9.9.9.9.9.9.9.9.9.9.9.9.9.9.9.9.9.9.9.3.    I { ` ' ",
"' ' ] ' ' ' ' ' ' ' ' ' ` { L   *.9.9.9.9.9.9.9.9.9.9.9.9.9.9.9.9.9.9.9.9.<.    L { ` ' ",
"' ' ' ' ' ' ' ' ' ' ' ' ' { > r 9.9.9.9.9.9.9.9.9.9.9.9.9.9.9.9.9.9.9.9.9.<.    P { ' ' ",
"' ' ' ' ' ' ' ' ' ' ' ' ] /   F 9.9.9.9.9.9.9.9.9.9.9.9.9.9.9.9.9.9.9.9.9.>.    P { ` ' ",
"' ' ' ' ' ' ' ' ' ' ' ` [ E   O.9.9.9.9.9.9.9.9.9.9.9.9.9.9.9.9.9.9.9.9.9.*.    P { ' ' ",
"' ' ] ' ' ' ] ' ' ' ' ' { U   = 9 9 8 8 9 9 9 9 9 8 8 8 9 8 8 8 8 8 9 8 9 -     P { ` ' ",
"' ' ' ' ' ' ' ' ' ] ' ` ] Q s a 5 5 5 i 5 5 6 i 5 i 5 5 5 i 5 5 5 5 5 5 i i d p R [ ' ' ",
"' ' ' ' ' ' ' ' ' ' ' ] ' ] { { } } } } } } } } } } } } } } } } } } } } } } { } ] ' ' ' ",
"' ' ' ' ' ' ' ' ' ' ' ' ' ' ` ` ` ` ' ` ' ` ` ` ' ` ` ' ` ' ` ` ' ` ` ' ` ' ` ' ' ' ' ' ",
"' ' ' ' ' ' ' ' ' ' ' ' ' ' ' ' ` ' ' ' ' ` ' ' ' ' ' ' ' ' ' ' ' ' ' ' ' ' ' ' ' ' ' ' ",
"' ' ] ' ' ' ] ' ' ' ' ' ' ' ' ' ] ' ' ` ' ] ' ' ] ' ' ' ' ' ] ' ' ' ' ' ' ' ' ' ' ' ' ' "
};
