/* XPM */
static char *nll__[] = {
/* columns rows colors chars-per-pixel */
"38 38 135 2",
"   c #0044006C0139",
".  c #090802C80000",
"X  c #0438064A08C7",
"o  c #099A09F60A6F",
"O  c #14280C3C02E9",
"+  c #18B00EE60327",
"@  c #166E0F9E0770",
"#  c #1F3913DD063E",
"$  c #170011300A2F",
"%  c #1F1414A00894",
"&  c #0AF10D41101B",
"*  c #0E19118915B3",
"=  c #15EA17BD19EB",
"-  c #1EF41E2B1D45",
";  c #24E115430284",
":  c #253018540A03",
">  c #2BF01C850A20",
",  c #30161F2A0ADC",
"<  c #2B0920AD1450",
"1  c #30E125421750",
"2  c #394427741232",
"3  c #3990280712FC",
"4  c #31F1261617DC",
"5  c #35292868191A",
"6  c #3B4E2C7D1AB7",
"7  c #19241CAA20E5",
"8  c #1E50210A246D",
"9  c #246D24782485",
"0  c #220C254C2932",
"q  c #26D32ABB2F6C",
"w  c #292E29A82A39",
"e  c #2FB92F672F04",
"r  c #2B272F57344A",
"t  c #2FA2327135CF",
"y  c #32DA333A33B0",
"u  c #388237AD36AD",
"i  c #353E3737399D",
"p  c #3AA23B5C3C66",
"a  c #4695300D1502",
"s  c #444D32371C87",
"d  c #4C0C35D91B35",
"f  c #4FA539761ED7",
"g  c #56CD3D371E83",
"h  c #448333D61FD3",
"j  c #4BFF38F32218",
"k  c #52E63DD72498",
"l  c #5985404A224F",
"z  c #5B0E445D292B",
"x  c #61E24733272D",
"c  c #6056489E2C28",
"v  c #6CF54E462974",
"b  c #71D9527B2CE7",
"n  c #733E555C31B2",
"m  c #76BB593A35D1",
"M  c #7D645BF433D3",
"N  c #7E295EA738D7",
"B  c #3C1E3E764157",
"V  c #3E1A4088438C",
"C  c #433E43AA442F",
"Z  c #4807478F46FF",
"A  c #442846114898",
"S  c #4C024BB14B51",
"D  c #4DF154635C20",
"F  c #547753BB52D4",
"G  c #587F57F15748",
"H  c #5C495C235BF6",
"J  c #5BB95EFD62E7",
"K  c #5E2760CC63FC",
"L  c #648F65FB67B2",
"P  c #64A467D06BA0",
"I  c #658B685D6BC0",
"U  c #693969ED6AC4",
"Y  c #715871D27266",
"T  c #7C087C3E7C7E",
"R  c #81225E953520",
"E  c #85A160EB34DD",
"W  c #838662393A42",
"Q  c #8E27696B3D3B",
"!  c #92B66D444055",
"~  c #961970D74421",
"^  c #9FD9766D44B9",
"/  c #A1E8779744D0",
"(  c #A244787C4657",
")  c #A59E7BAC4956",
"_  c #ABAE7F4C4A09",
"`  c #AE4181F64C80",
"'  c #B124845D4EA0",
"]  c #B5BD87975021",
"[  c #B8248ACF5455",
"{  c #BA878B325266",
"}  c #825E81407FF1",
"|  c #C223914456A4",
" . c #C53D939C580F",
".. c #CAC297B25A6B",
"X. c #CCD199415B62",
"o. c #D2269D6C5E26",
"O. c #D5C7A05E6040",
"+. c #DD23A538621E",
"@. c #E0C8A75F627B",
"#. c #E6CEABFD6568",
"$. c #EB90AF6B673F",
"%. c #E9C2AEE66850",
"&. c #ED02B07667CF",
"*. c #EF10B2276911",
"=. c #F470B61B6B4F",
"-. c #F794B8DD6D9A",
";. c #FA72BAB76E3A",
":. c #FD95BDAD70D0",
">. c #FFFFC7677637",
",. c #839E835382FA",
"<. c #882A87FF87CC",
"1. c #8B1D89B187FD",
"2. c #8D7E8D258CBB",
"3. c #92ED91698F9C",
"4. c #8D878EBC902E",
"5. c #9451945D946C",
"6. c #9A0398E19785",
"7. c #9D359C679B6F",
"8. c #9FDAA11BA29D",
"9. c #A4C2A4A2A479",
"0. c #AD14AC5DAB82",
"q. c #B0CCAFE6AED3",
"w. c #B47DB445B402",
"e. c #BB15BA91B9F1",
"r. c #C543C4F1C48F",
"t. c #C879C838C7EB",
"y. c #CEF3CE4ECD86",
"u. c #D088CF69CE04",
"i. c #D577D4DAD41D",
"p. c #DA5EDA2DD9F2",
"a. c #E54EE4A6E3DC",
"s. c #EDA2ECF7EC26",
"d. c #F46CF3C9F305",
"f. c #F992F854F6D8",
"g. c #FF43FF3EFF37",
/* pixels */
"$.$.$.$.&.$.&.$.$.$.&.&.$.$.$.$.&.$.$.$.$.$.&.$.&.$.$.%.&.$.$.$.$.&.$.&.$.$.",
"$.$.$.&.$.$.$.$.$.$.#.$.$.&.$.$.$.$.$.$.$.&.$.$.$.$.$.&.$.&.$.&.$.$.$.$.&.$.",
"&.$.&.$.$.&.&.$.&.=.;.%.#.&.$.$.$.*.$.$.$.$.$.$.&.$.&.$.&.$.$.$.$.&.$.$.$.&.",
"$.$.$.$.$.$.$.*.+.s ! =.;.#.$.$.=.+.=.&.$.&.$.$.$.$.$.$.$.$.$.&.$.$.&.$.$.$.",
"$.$.$.&.$.$.$.*.+.$   : { ;.#.-.{   n -.#.#.#.$.$.$.$.$.$.$.$.&.$.&.$.&.$.$.",
"$.&.$.$.&.$.$.&.*.+ T L   n ;.+.O C & Q >.-.=.$.$.$.$.$.&.$.$.$.$.&.$.$.$.&.",
"&.$.$.$.$.$.$.$.:., I g.9.  m b 7 g.2.. W / o.-.;.&.#.$.$.$.$.&.$.$.$.$.&.$.",
"$.$.&.$.$.$.$.#.;.v q g.g.6.    5.g.d.- X o   : Q $.;.$.$.&.$.$.$.&.$.&.$.$.",
"&.$.&.$.$.$.$.#.;.`   a.2.  u   t.g.g.Z F g.9.V   O / ;.&.$.$.$.$.$.&.$.&.$.",
"$.$.$.$.$.$.$.*.@.<   Y t.w.g.7.s.g.g.H Z g.g.g.u.p   z *.*.$.%.$.&.$.$.$.$.",
"$.$.&.$.$.$.$.;.s i 6.F g.g.g.g.g.g.g.p.p.g.f.g.g.g.2.  6 $.*.$.$.$.$.$.&.$.",
"$.&.$.$.$.$.-.{   e.g.f.,.2.g.f.g.g.g.g.g.g.g.g.g.f.g.0.  j =.$.$.$.&.$.$.$.",
"&.$.&.$.$.$.:.E 0 g.a.y   ,.g.g.g.g.g.g.g.g.g.g.g.g.f.g.3.  N ;.#.$.$.&.&.$.",
"$.$.$.$.$.#.:.b r g.C   o a.g.g.g.g.g.g.f.g.g.g.g.g.g.g.g.S    .=.$.$.$.$.$.",
"*.$.$.$.$.$.;.> U a.o U 1.g.g.g.g.g.g.s.9 y.g.g.g.g.g.g.g.i.  s -.$.$.$.$.$.",
"$.$.$.$.#.;.'   i.g.i.g.g.g.g.g.g.g.g.a.  t.g.g.g.g.g.g.g.g.U   ` -.$.$.$.&.",
"$.$.$.$.&.*.% Y g.f.g.g.g.g.g.g.g.g.g.0.o d.g.g.g.g.g.g.g.g.i.  s -.$.$.$.$.",
"$.$.$.$.:.x 8 f.g.g.g.g.g.g.g.g.f.g.g.9 G g.g.g.g.g.g.g.g.g.g.p   ..=.$.$.$.",
"$.$.#.;.)   e.g.g.g.g.g.g.g.g.g.g.g.H   y.g.g.g.g.g.g.g.g.g.g.5.  W ;.#.$.$.",
"$.$.*.#.O I g.f.g.g.g.g.g.g.g.f.9.8 .   e.g.g.g.g.g.g.g.g.g.g.i.  6 =.$.$.$.",
"$.#.;.E * f.r.e.g.g.g.g.g.g.5.*   l [   0.g.f.g.g.g.g.g.g.g.g.g.9 . +.*.$.$.",
"$.$.:.> I s.  T g.f.g.g.s.B   b +.>.`   u.g.g.g.g.g.g.g.g.g.g.g.G   { -.#.$.",
"*.%.-.; 5.6.9 g.g.g.g.a.8 > o.>.%.:.k - g.g.g.g.g.g.g.g.g.g.f.g.}   ~ ;.#.$.",
"$.#.:.a J f.i.g.r.0.g.i 2 -.=.@.;.{   <.g.g.g.g.g.g.g.g.g.g.g.g.7.  M ;.$.$.",
"$.$.-.^   y.g.g.e 5.9.O *.=.#.=.O.O i f.g.g.g.g.g.g.g.g.g.g.g.g.0.  c ;.#.$.",
"$.$.$.-.l   K t y s.= / ;.@.=.+.O w s.g.g.g.g.g.g.g.g.g.g.g.g.g.q.  k ;.$.$.",
"$.$.$.&.*.M > ; C D 3 -.#.=.+.O B d.g.g.g.g.g.g.g.g.g.g.g.g.f.g.q.  s =.$.$.",
"$.$.$.$.%.:.:.-.M g +.*.&.#.% A g.g.g.g.g.g.g.g.g.g.g.g.g.g.g.g.q.  6 =.$.$.",
"$.$.$.$.%.$.$.$.:.:.*.#.;.d 0 f.g.g.g.g.g.g.g.g.g.g.g.g.g.g.g.g.q.  5 &.$.$.",
"*.$.&.$.&.%.$.$.#.$.$.-.{   t.g.f.g.g.g.g.g.g.g.g.g.g.g.g.g.g.g.0.  4 =.$.$.",
"$.$.$.$.$.$.$.$.&.%.#.:.d B g.g.g.g.g.g.g.g.g.g.g.g.g.g.g.g.f.g.0.  1 *.$.$.",
"$.$.$.$.$.$.$.$.%.&.*.#.. 2.g.f.g.g.g.g.g.g.g.g.g.g.g.g.g.g.g.g.9.  1 =.$.$.",
"$.$.$.&.$.&.$.&.$.$.=.X.  6.d.a.a.a.a.a.a.a.a.a.a.a.a.a.a.a.a.f.<.  5 *.$.$.",
"$.$.$.$.$.$.$.$.$.$.=. .                  X     X     X             < *.$.$.",
"$.&.$.&.$.&.$.$.$.$.*.@.` _ _ _ _ _ _ _ _ _ _ ) _ _ _ _ _ _ _ _ _ _ { $.$.$.",
"$.$.$.$.$.$.&.$.$.$.$.$.;.-.-.:.-.;.;.-.:.-.-.:.-.-.:.-.-.;.;.;.;.;.-.$.$.$.",
"$.&.$.$.$.*.$.$.$.$.$.$.$.#.$.#.#.$.#.$.$.$.#.$.%.#.%.#.$.#.$.#.%.#.$.$.$.$.",
"$.$.&.$.$.$.$.$.*.$.$.%.$.$.$.$.$.$.$.$.$.$.$.$.$.$.$.$.$.$.$.$.$.$.$.$.$.$."
};
