/* XPM */
static char *nll__[] = {
/* columns rows colors chars-per-pixel */
"35 35 124 2",
"   c #00EC007D007F",
".  c #0B10056900B9",
"X  c #0F7209E6033E",
"o  c #06B007E909C2",
"O  c #0CC20CF50D4A",
"+  c #12A80C620512",
"@  c #108B0CE60886",
"#  c #1A98110805AF",
"$  c #1EE214D908CC",
"%  c #092B0C411018",
"&  c #0EE21167146F",
"*  c #0B6A111C17D8",
"=  c #13FC13F413E8",
"-  c #16AD18AC1B12",
";  c #1BAA1C031C6E",
":  c #2C031DB00C81",
">  c #38FC25D30ED6",
",  c #328B24E11487",
"<  c #39BE273B1133",
"1  c #389927C514B4",
"2  c #3A332B5C19BC",
"3  c #1AE11D9320CF",
"4  c #1EA420482242",
"5  c #1F7A2357282D",
"6  c #205620C6214C",
"7  c #212D249C28BA",
"8  c #2C0A2B802ADB",
"9  c #30ED293A201C",
"0  c #26032A6D2FE5",
"q  c #2AEF2EC9338D",
"w  c #31AE316B311B",
"e  c #315D34B338B7",
"r  c #379738AC39F6",
"t  c #3C843BFE3B5E",
"y  c #446C2EA11358",
"u  c #401B2E68192B",
"i  c #4D97368D1AE7",
"p  c #4FE338541CA1",
"a  c #5A073EDE1E45",
"s  c #4F733AB221CC",
"d  c #55443F1F248B",
"f  c #5BCC4135214C",
"g  c #61F2461224A1",
"h  c #64CB49BD2985",
"j  c #682A4D4B2D0A",
"k  c #761454662C01",
"l  c #6EE552B530E1",
"z  c #74BF564B31C0",
"x  c #3AEB3DDF416C",
"c  c #3F364277465D",
"v  c #4110423943A3",
"b  c #419F455849D0",
"n  c #45D949ED4ED4",
"m  c #4D234D1F4D24",
"M  c #47144B415045",
"N  c #4A384E66536A",
"B  c #4DE8515F5608",
"V  c #4AD5521E5B09",
"C  c #50F050F750FF",
"Z  c #53155554582E",
"A  c #56A65A375E7A",
"S  c #596F5A6A5B9F",
"D  c #598B5CE960E6",
"F  c #60F9609C602C",
"G  c #664368496ABC",
"H  c #6D506CFA6C94",
"J  c #714D70AA6FE6",
"K  c #71F071BE7182",
"L  c #73AD760078CA",
"P  c #7DE97D997D3A",
"I  c #85D26066337E",
"U  c #899E6435374F",
"Y  c #84F762A1396D",
"T  c #8D7066C13856",
"R  c #8DE569463D63",
"E  c #992D72DA44E1",
"W  c #A5CE7BF349C0",
"Q  c #AB3D7F3B4A9E",
"!  c #805F7FBC7EF9",
"~  c #AE4082304D5B",
"^  c #B2F384BD4D47",
"/  c #B3A186725038",
"(  c #B65688CE522A",
")  c #BBC08BE25271",
"_  c #CA2F95EC5727",
"`  c #CF879A7D5AD8",
"'  c #D2A79D3A5D1D",
"]  c #D717A0B95EE7",
"[  c #D8B8A1555EDE",
"{  c #DCA6A4C361B3",
"}  c #E191A7EA62BB",
"|  c #E76FAC7765B4",
" . c #EBA2AF796747",
".. c #ECC3B05367CC",
"X. c #EE8FB1D368F0",
"o. c #F30DB51B6AC5",
"O. c #F78BB8A86D33",
"+. c #FB1EBB246E5D",
"@. c #FF38BF2171C4",
"#. c #FFFFC36F752C",
"$. c #81B581F98242",
"%. c #870887CF88CA",
"&. c #8C638C318BF1",
"*. c #95D39610965C",
"=. c #9A589AB29B25",
"-. c #A04A9FF99F98",
";. c #9FDAA053A0F8",
":. c #A125A0BFA045",
">. c #A87CA843A7FF",
",. c #AB9AABA7ABB7",
"<. c #B0ECB05DAFB3",
"1. c #B365B38EB3BE",
"2. c #BB07BA58B985",
"3. c #C09EC014BF6F",
"4. c #C41BC453C495",
"5. c #CCE3CD07CD31",
"6. c #D4DCD470D3EF",
"7. c #D871D81FD7B2",
"8. c #DC0BDBB8DB59",
"9. c #E99DE817E63C",
"0. c #EC16EBBBEB4D",
"q. c #F506F4C6F478",
"w. c #FA90F97EF834",
"e. c #FF36FF33FF2F",
/* pixels */
" . . . . . . ... ... . . . . . . . . . . ... ... . . ... ... . . . ...",
" . ... ... . . ... . . . . . . . . . . . . . . ... . . . . ... . ... .",
" . . . . . . ...[ o.O.|  ... ...O.|  . . ... . . ... ... . . . . . . .",
".. ... . . . .O.d : ( @...| o.{ Q O. . . . ... . . . . ... ... . ... .",
" . . . . ... .O.p * o p ..o. .2   R +. . .|  ... ..... . ... . . . ...",
".. ... . . .| #.a A 9.5 # ..k q ,.. ( O.@.+...|  . . . . . . . . . . .",
" . . . . . .| +.T 7 e.e.A $ # ,.e.F   # > Y { @... ... . . ... . ... .",
".. . . . . . .o.[ o 7.5.8   - 0.e.1.O ;.D %   h | O.|  ..... . . . ...",
" ... . . . .| O.R   $.-.K 4.K e.e.6.= 9.e.q.*.% + ^ O. . . . . . ... .",
" . ... . .| O.^ = H t e.e.e.e.e.e.q.=.q.e.e.e.0.m   E @. . . . . . . .",
" . . . . . .O.: G e.w.=.>.e.w.e.e.e.e.e.e.e.w.e.e.H   W O.|  . . ... .",
".. ... . .o.{ + 6.e.m   *.e.e.e.e.e.e.e.e.e.e.e.w.e.C   ' o. . . . . .",
" . . . . .o.` o 9.H   = 9.e.e.e.e.e.q.q.e.e.e.e.e.e.0.* u O. . . . . .",
".. . . . .+.U 7 w.q P 1.e.e.e.e.e.e.S H e.e.e.e.e.w.e.=.  W O.|  . . .",
" ... . . ...# =.e.q.e.e.e.e.e.e.w.w.f L e.w.e.e.e.e.e.w.4 : o. . . . .",
" . . . .@.g x e.e.e.w.e.e.e.e.e.e.0.* 2.e.e.e.e.e.e.w.e.&.  ^ O. . . .",
".... .O.W o 7.e.e.e.e.e.e.e.w.e.e.S w e.e.e.e.e.e.e.e.e.8.  d O. . . .",
" .....} . %.e.e.e.e.e.e.e.e.e.9.A   H e.w.e.e.e.e.e.e.e.e.r . | .. . .",
"..| @.g e e.0.e.e.e.e.w.e.7.S o 1 1 c e.e.e.e.e.e.e.e.w.e.P   ( O. . .",
" ...| X 1.<.= q.e.e.e.e.$.  < ~ #.y B e.e.e.e.e.e.e.e.e.e.2.  Y O. . .",
" .o.' @ 8.8 &.e.e.e.e.Z . ~ @.O.}   *.e.e.e.e.e.e.e.e.e.e.8.  f +. . .",
" ...| # 4.3.0.q.1.e.G # | @.} @.z % 0.e.e.e.e.e.e.e.e.e.e.q.% , o. . .",
"..| @.i M e.e.&.C 5.+ [ O.{ @.W   =.e.e.e.e.e.e.e.e.e.e.e.w.- $ .... .",
" . .o.' # 0 A O 6.v I +.} @.W   $.e.e.e.e.e.e.e.e.e.e.e.e.e.3 + | .. .",
" ... .o.{ f y 9 V , .. .O.~   *.e.e.e.e.e.e.e.e.e.e.e.e.e.e.; . } .. .",
" . . . ...@.#._ k ' o.o.)   :.e.w.e.e.e.e.e.e.e.e.e.e.e.e.e.6   [ X. .",
" . . . . .| | o.@.o.....: L e.w.e.e.e.e.e.e.e.e.e.e.e.e.e.e.6   ' o.| ",
".. ... . . . . .| | @.T - q.e.e.e.e.e.e.e.e.e.e.e.e.e.e.e.w.6   ' X. .",
" . . . . . . . . . .O.: L e.q.e.e.e.w.e.e.w.e.e.w.e.e.w.e.q.;   ' o. .",
".. ... . . . . . .o.{ . <.e.e.e.e.e.e.e.e.e.e.e.e.e.e.e.e.q.- . ' o. .",
" . . ... . . . . .o.`   e N n n n n n n n n M n n n n n M c   . ' o. .",
".. . . ... ... . ...{ z f d a a a a a a a a a a a a a d f f j l [ .. .",
" ... . . ... ... . ...O.#.@.@.@.@.@.@.@.@.@.@.@.#.@.@.@.@.@.+.O... ...",
" . ... . . . . . . . . .|  .|  . .| |  . .| | | | | |  .|  . .| .... .",
".. . . . ... . ... . . . . . . . . . . . . . . . . . . . . . . . . ..."
};
