/* XPM */
static char *nll__[] = {
/* columns rows colors chars-per-pixel */
"31 31 127 2",
"   c #00E1004A0017",
".  c #0B3405CA0233",
"X  c #0CB909720583",
"o  c #0C730CCA0D3F",
"O  c #0FCD077D0000",
"+  c #1CDC10A40203",
"@  c #158511080BD0",
"#  c #193D12BE0AF2",
"$  c #0D420E800FFC",
"%  c #117D11A111DC",
"&  c #1A3115440FA9",
"*  c #1BD0183013E1",
"=  c #15AC18F51CE8",
"-  c #1C231CF31E03",
";  c #2D0E1E8C0D28",
":  c #209D1A2D1318",
">  c #201B1F9A1EDB",
",  c #31E721B90E4D",
"<  c #27FB1FC3161B",
"1  c #27DA20BD1836",
"2  c #352D243A1033",
"3  c #3907273B10CF",
"4  c #3D352A271348",
"5  c #35A027F517CB",
"6  c #38392BF01D2E",
"7  c #1E6621AE258D",
"8  c #2280237D24C4",
"9  c #20C32414280F",
"0  c #2A6F2A1229A2",
"q  c #29F32D96320B",
"w  c #2D99303B3368",
"e  c #2E75350C3D2B",
"r  c #35573502349D",
"t  c #31D536373BB1",
"y  c #41252D6D15C8",
"u  c #47FC307C1435",
"i  c #472232C31A5C",
"p  c #4B10349E19E2",
"a  c #52E53A5E1D1A",
"s  c #5751415426EB",
"d  c #5B9440C920B6",
"f  c #617E450F2309",
"g  c #7CE958C82D6D",
"h  c #7D445AD53182",
"j  c #360F3BF24319",
"k  c #3EDE3FA8409F",
"l  c #43384442457F",
"z  c #41AB44F748F9",
"x  c #49224B914E85",
"c  c #4B154ED45354",
"v  c #50D851855255",
"b  c #555F596A5E48",
"n  c #584D59F05BE7",
"m  c #5F03621A65EF",
"M  c #6294658B691B",
"N  c #64F468966CF3",
"B  c #6DCE6D656CE6",
"V  c #6AF26E9172F6",
"C  c #6FD977237FF8",
"Z  c #718371847189",
"A  c #764879367CC5",
"S  c #7E087D777CC8",
"D  c #829A5C662E9B",
"F  c #80275C2D3118",
"G  c #8F5566C53617",
"H  c #8726647C3AF3",
"J  c #94CD6C463BA4",
"K  c #8E106AB24040",
"L  c #928D6D894129",
"P  c #9764719E444A",
"I  c #9C52738E42A3",
"U  c #A50B7A14468D",
"Y  c #AB777E1447AC",
"T  c #A4447AC648FA",
"R  c #AE40822E4D4C",
"E  c #B498859E4D3D",
"W  c #B8AD88004D92",
"Q  c #BEDC8E8F549E",
"!  c #C1B08EFA5287",
"~  c #C5DA927D5408",
"^  c #CA1295AD56CC",
"/  c #CB2F97745961",
"(  c #CF489B4B5CE9",
")  c #D36F9DFA5DD6",
"_  c #D82EA1365F38",
"`  c #DB4CA3295FCC",
"'  c #DF2DA69162A2",
"]  c #E5AEAAFF6493",
"[  c #EB8EAF6A673F",
"{  c #EAD7AF92686E",
"}  c #ECE8B06C67D7",
"|  c #EEB5B1DA68D3",
" . c #F364B55A6AE9",
".. c #F7A6B8F86DC0",
"X. c #FB1FBB4C6EB3",
"o. c #FDDEBDF6712B",
"O. c #FFFFC14B736E",
"+. c #FFFFC9B779F3",
"@. c #7ACD7DEC8239",
"#. c #848A84B984F3",
"$. c #88DA887487F2",
"%. c #8AA68ADF8B23",
"&. c #96F795E4949A",
"*. c #9B15993F96FB",
"=. c #9366971B9B8E",
"-. c #967198E99BDB",
";. c #9ECC9E759E0D",
":. c #A4BAA46FA417",
">. c #A98DA888A750",
",. c #AC7AABAFAABB",
"<. c #B407B3E7B3BE",
"1. c #B9B3B9F2BA3B",
"2. c #C253C2BEC33B",
"3. c #CAF6CB3ACB8C",
"4. c #D267D16AD03C",
"5. c #CE69CFF4D1CF",
"6. c #D2BFD3ABD4C5",
"7. c #DA48D93BD7F8",
"8. c #DDAADDD2DDFE",
"9. c #E0A0E034DFB3",
"0. c #DFFBE176E33D",
"q. c #E7B0E7AEE7AC",
"w. c #EE0CEDC0ED64",
"e. c #F0C7EFC6EE76",
"r. c #F09BF083F067",
"t. c #F5D3F5C0F5A8",
"y. c #FF1CFF1AFF17",
/* pixels */
"[ [ } [ [ [ [ [ [ [ [ [ [ [ [ [ [ } [ } [ [ } [ [ [ [ } } [ [ ",
"[ [ [ [ [ [ [  . .] [ [ [ [ [ [ [ [ [ [ } [ [ [ [ } [ [ [ [ [ ",
"[ [ } [ [ [  .R ^ O.} [ [  .X.| [ { [ [ [ [ [ [ [ } [ } } [ [ ",
"} } [ [ [ [ X.s   f {  . .Q 2 _  .] ] [ [ } [ } [ [ [ [ [ [ } ",
"[ [ } [ [ [ o.d b n . ^ [ : t 5  .O.o.| ] [ [ [ [ } } [ [ } [ ",
"} [ [ [ [ ] o.g c y.=.< a v y.l , f J ' o.| [ { [ [ [ [ [ [ [ ",
"[ } [ [ [ [  .~ > t.<.$   <.y.:.% V 9   d ' X.] [ [ [ [ [ [ [ ",
"[ [ [ } } [ X.L   >.Z :.S 6.y.2.0 y.y.1.q   U o.[ [ [ [ } [ } ",
"[ } } [ [ ..W - Z S y.y.y.y.y.w.1.y.y.y.y.%.  H X.[ [ [ [ } [ ",
"[ [ [ [ [ o.y A y.3.v 8.y.y.y.y.y.y.y.y.t.y.,.  I X.] [ [ [ [ ",
"[ } [ [ [ | ; 5.2.  r t.y.y.y.y.y.y.y.y.y.t.y.#.  )  .[ } [ } ",
"[ [ [ [ } ' * 6.r o %.y.y.y.y.y.;.6.y.y.y.y.y.y.w 4 X.[ [ [ [ ",
"[ [ } [ O.F z y.<.t.y.y.y.y.y.y.r :.y.y.y.y.y.y.1.  E ..] [ [ ",
"} [ [  .) & 5.y.y.y.y.y.y.y.y.w.8 6.y.y.y.y.y.y.y.q 4 ..[ [ [ ",
"{ [ [ .., S y.y.t.y.y.y.y.t.y.Z l y.y.y.y.y.y.y.y.%.  (  .[ { ",
"[ ] o.g q y.y.y.y.y.y.y.y.t.V   %.y.t.y.y.y.y.y.y.7.  H X.[ [ ",
"[  .' @ 3.8.w.y.y.t.y.q.N $ p 4 M y.t.y.y.y.y.y.y.y.9 y o.] { ",
"] X.G l 4.o 6.y.y.y.<.$ u Q +.3 @.y.y.y.y.y.y.y.y.y.n O } | { ",
"[ o.D M &.B y.t.y.:.  Y O.o.(   3.y.y.y.y.y.y.y.t.y.#.  ' | { ",
"[ ..E 8 t.y.7.B 9.@ ! o.] o.3 x y.y.y.y.y.y.y.y.y.y.;.  Q  .] ",
"[ [ ..i j 2.k *.m D O.] o.p 9 w.y.y.y.y.y.y.y.y.t.y.,.  R X.[ ",
"[ { | ] d + * @.6 | [ o.a q e.y.y.y.y.y.y.y.y.y.y.y.,.  T X.] ",
"[ [ [ } ..o.^ d /  .o.d t t.y.y.y.y.y.y.y.y.y.y.t.y.,.  P X.] ",
"[ [ { { { {  .O.| X.U - w.y.y.y.y.y.y.y.y.y.y.y.y.y.,.  K X.[ ",
"} [ } [ [ [ [ ] [ .., -.y.t.y.y.y.y.y.y.y.y.y.y.t.y.>.  K X.] ",
"[ [ [ [ } [ [ [  .~ * w.y.y.y.y.y.y.y.y.y.y.y.y.y.y.:.  K ..] ",
"[ [ } [ } [ } ] X.I = 6.5.6.6.6.6.6.6.6.6.5.5.6.5.0.S   J o.] ",
"} [ } [ [ [ [ [ X.U o # # # # @ @ # # @ # # # # # # # X L X.[ ",
"[ [ } [ [ [ } [ [ [ ] ] ] ] ] ] ] ] ] ] ] ' ] ] ] ] ] ' ] } [ ",
"} [ [ [ [ } [ [ [ [ } } [ [ } [ [ [ } } } [ } } | [ | } } [ [ ",
"[ [ [ } [ [ } [ [ [ [ [ [ [ [ [ [ [ [ [ [ [ [ [ [ [ [ [ [ } [ "
};
