/* XPM */
static char *pdd__[] = {
/* columns rows colors chars-per-pixel */
"25 25 87 1",
"  c #000600040002",
". c #00A40076003F",
"X c #00F600B2005F",
"o c #015800F90084",
"O c #01DE015900B8",
"+ c #025F01B700EA",
"@ c #03140239012F",
"# c #037B02840157",
"$ c #0388028E015C",
"% c #04B4036601D0",
"& c #0503039F01EE",
"* c #06E604FD02A8",
"= c #17BA11280922",
"- c #1982127109D2",
"; c #1A4212FC0A1C",
": c #1B1213930A6C",
"> c #1C2514590AD6",
", c #1CB214BF0B0C",
"< c #238019AB0DAB",
"1 c #24F31AB70E3A",
"2 c #26591BBA0EC3",
"3 c #3F622DD31867",
"4 c #40702E9718CF",
"5 c #4ACE36151CCC",
"6 c #4D3E37D81DBC",
"7 c #5D69438923F6",
"8 c #5E36441D2445",
"9 c #5FDB454D24E7",
"0 c #5FF8456324F2",
"q c #60C645F82542",
"w c #6285473B25ED",
"e c #65CA49982730",
"r c #65EA49B0273C",
"t c #68124B3E2811",
"y c #6CF14EC429F1",
"u c #703D51262B36",
"i c #7869570F2E5B",
"p c #793F57AA2EAD",
"a c #7AAB58B02F3A",
"s c #7B0B58F62F5E",
"d c #7D9F5AD3305C",
"f c #7E945B8530BB",
"g c #80ED5D3731A2",
"h c #82CD5E91325B",
"j c #9EFE72F43D36",
"k c #9F9E73673D73",
"l c #B21580C1448F",
"z c #B41282314553",
"x c #B464826D4572",
"c c #B65A83D74633",
"v c #BC3A88174877",
"b c #BDB8892B490A",
"n c #C0A28B474A29",
"m c #C5AE8EED4C1A",
"M c #C7258FFC4CAB",
"N c #CBC693544E73",
"B c #CE6B953E4F78",
"V c #CF7295FC4FDD",
"C c #D1E397C050CD",
"Z c #D20C97DE50DC",
"A c #D2C998665126",
"S c #D37598E35168",
"D c #D422995F51AB",
"F c #D477999D51CB",
"G c #D4E899EF51F7",
"H c #D5309A235213",
"J c #D5D59A9A5252",
"K c #D6949B24529C",
"L c #D7B19BF25309",
"P c #D7ED9C1E5321",
"I c #D9059CE9538D",
"U c #DA4D9DD5540A",
"Y c #DAA29E13542B",
"T c #DB239E70545D",
"R c #DD6CA017553E",
"E c #DE13A090557E",
"W c #DE86A0E355AB",
"Q c #DEE5A12755CF",
"! c #E019A2065646",
"~ c #E0FAA2A9569D",
"^ c #E1C4A33B56EB",
"/ c #E2E3A40B5759",
"( c #E443A50957E0",
") c #E50AA599582D",
"_ c #E59DA6025865",
"` c #E62FA66C589D",
"' c #EE55AC505BC0",
/* pixels */
"JJJJJJJJJJJDCDJJJJJJJJJJJ",
"JJJJJJJJJJJE_EJJJJJJJJJJJ",
"JJJJJJJJJJEjyjEJJJJJJJJJJ",
"JJJJJJJJD~i   p~DJJJJJJJJ",
"JJJJJJJDPB; * ;VPJJJJJJJJ",
"JJJJJJJJJN= % ;NJJJJJJJJJ",
"JJJJJJJJD'u & u'CJJJJJJJJ",
"JJJJJJJJEa>   :aRDJJJJJJJ",
"JJJJJJD(f     % f(DJJJJJJ",
"JJJJJJJJ2 &   % 2JJJJJJJJ",
"JJJJJJJV;       ;BJJJJJJJ",
"JJJJJJDE3       4EJJJJJJJ",
"JJJJJJDYx:     >cYJJJJJJJ",
"JJJJJJDYE9   % qEYDJJJJJJ",
"JJJJJDEb1       1bEDJJJJJ",
"JJJJJYm>       % >mIJJJJJ",
"JJJJDE5 %       % 6~DJJJJ",
"JJJDRl            %xRDJJJ",
"JJJC_a &           f(DJJJ",
"JJJC(9 %         % q(CJJJ",
"JJJC_9 & &%%%%& %& w_CJJJ",
"JJJD(g %         % g(CJJJ",
"JJJDYnetttttttttttenYJJJJ",
"JJJJJI__(__(__(____PJJJJJ",
"JJJJJDCCCCCCCCDCCCCJJJJJJ"
};
