/* XPM */
static char *pdd__[] = {
/* columns rows colors chars-per-pixel */
"21 21 78 1",
"  c #000500040002",
". c #009E0072003D",
"X c #00FE00B70062",
"o c #0174010D008F",
"O c #018D011F0099",
"+ c #026B01C000EE",
"@ c #02DE0213011A",
"# c #037F02870159",
"$ c #0385028B015B",
"% c #047B033E01B9",
"& c #04C4037301D5",
"* c #056C03EC0216",
"= c #05DF043F0242",
"- c #08E2066C036B",
"; c #0A6F078B0404",
": c #0B50082E045B",
"> c #12700D540719",
", c #13CF0E5207A0",
"< c #15750F830843",
"1 c #16D9108508CC",
"2 c #172210BA08E8",
"3 c #18C711EA098A",
"4 c #19F412C309FE",
"5 c #1AC4135A0A4E",
"6 c #1B4F13BF0A83",
"7 c #57BC3F6E21C6",
"8 c #58F44050223F",
"9 c #59A240CE2282",
"0 c #5E4144252449",
"q c #766C559F2D97",
"w c #775056432DEF",
"e c #789F57352E70",
"r c #797357CF2EC1",
"t c #79A057EF2ED3",
"y c #7BAE596C2F9D",
"u c #81A25DBA31E8",
"i c #83975F2432A8",
"p c #8F7D67BE373D",
"a c #912368EF37E0",
"s c #93546A8538B8",
"d c #955B6BFC3980",
"f c #9D1571923C79",
"g c #A33B76043ED7",
"h c #A8B679FB40F3",
"j c #AE647E164323",
"k c #AF2F7EA84371",
"l c #B7FB850546D4",
"z c #B86F85584700",
"x c #C6FB8FDD4C9A",
"c c #C7D7907D4CEF",
"v c #D1D097B250C6",
"b c #D21A97E750E2",
"n c #D2C698645125",
"m c #D37598E25167",
"M c #D41D995C51A9",
"N c #D47A999F51CC",
"B c #D4EA99F051F8",
"V c #D5409A2E5218",
"C c #D5D59A9A5252",
"Z c #D6E09B5B52B9",
"A c #D7419BA152DE",
"S c #D7B69BF5530B",
"D c #D94A9D1A53A7",
"F c #D94F9D1D53A9",
"G c #D9979D5153C4",
"H c #DC819F6D54E3",
"J c #DE42A0B25590",
"K c #DEB9A10855BE",
"L c #DF2EA15C55EB",
"P c #E014A2035644",
"I c #E0BCA27C5684",
"U c #E251A3A15720",
"Y c #E2D8A4025754",
"T c #E3DAA4BD57B8",
"R c #E442A50857E0",
"E c #E467A52357EE",
"W c #E4D8A5755819",
"Q c #E76DA7535918",
/* pixels */
"CCCCCCCCCnCnCCCCCCCCC",
"CCCCCCCCCYCYCCCCCCCCC",
"CCCCCCCCn838CCCCCCCCC",
"CCCCCCnTw = wRnCCCCCC",
"CCCCCCnY0 : 0YbCCCCCC",
"CCCCCCbQh   hQnCCCCCC",
"CCCCCnPf3$  3fPnCCCCC",
"CCCCCDc<     1cDCCCCC",
"CCCCbYg =   = gYnCCCC",
"CCCCnHl$     =zHnCCCC",
"CCCCCnPw     rPbCCCCC",
"CCCCCCYp:   :pYCCCCCC",
"CCCCCH7       8PCCCCC",
"CCCnTw $     = rTbCCC",
"CCCDx> $       <cDCCC",
"CCbYd $         dYbCC",
"CCbQr $   $  $= yQbCC",
"CCbTu $         uTbCC",
"CCnPj16636666661kPnCC",
"CCCCCnbnbbbnnnbnDCCCC",
"CCCCCCDCCSSCDCSSCCCCC"
};
