/* XPM */
static char *pdd__[] = {
/* columns rows colors chars-per-pixel */
"23 23 72 1",
"  c #000600040002",
". c #011900CB006C",
"X c #019D012B009F",
"o c #027D01CD00F5",
"O c #02DB0210011A",
"+ c #03BF02B50171",
"@ c #0442031401A4",
"# c #054303CE0207",
"$ c #083005EB0327",
"% c #109D0C030665",
"& c #11FA0CFF06EC",
"* c #1689104B08AD",
"= c #1831117D0950",
"- c #1D3915200B40",
"; c #1EB416330BD2",
": c #2F16220A1220",
"> c #32F424D6139E",
", c #35152660146E",
"< c #3948296A160D",
"1 c #3AE72A9616AE",
"2 c #3CF82C151779",
"3 c #3E4E2D0C17FC",
"4 c #40592E8618C5",
"5 c #41F72FB21965",
"6 c #4340309F19E4",
"7 c #440931311A31",
"8 c #45A4325A1ACF",
"9 c #5A50414C22C4",
"0 c #65D3499F2734",
"q c #6C114E23299B",
"w c #6E784FDF2A87",
"e c #6F0A50482ABF",
"r c #721F52832BEF",
"t c #72A852E62C24",
"y c #793D57A82EAC",
"u c #7A8F589C2F2F",
"i c #7B8E59542F91",
"p c #7C845A072FF0",
"a c #7E8A5B7D30B7",
"s c #7F6A5C1F310D",
"d c #8C3C656435FD",
"f c #8E79670236D9",
"g c #C68E8F8E4C70",
"h c #C7EC908B4CF7",
"j c #CCBF94084ED2",
"k c #CE0C94F94F53",
"l c #D0469695502E",
"z c #D0C096EE505D",
"x c #D1A1979050B3",
"c c #D22697F050E7",
"v c #D2F498855136",
"b c #D38798F0516F",
"n c #D40C995051A2",
"m c #D473999A51CA",
"M c #D4D599E151EF",
"N c #D54B9A36521D",
"B c #D5D29A985251",
"V c #D6EF9B6552BF",
"C c #D7B39BF3530A",
"Z c #D8279C485337",
"A c #D9079CEA538E",
"S c #D9919D4D53C2",
"D c #D9F29D9453E8",
"F c #DCC79FA054FE",
"G c #DE52A0BD5596",
"H c #DE73A0D555A3",
"J c #DF1EA15055E5",
"K c #E027A210564B",
"L c #E0A6A26C567C",
"P c #E2D9A4035755",
"I c #E3E4A4C457BC",
"U c #E47AA53057F5",
/* pixels */
"BBBBBBBBBBzvvBBBBBBBBBB",
"BBBBBBBBBBPIPBBBBBBBBBB",
"BBBBBBBBBSi4pDBBBBBBBBB",
"BBBBBBBvPr # rPvBBBBBBB",
"BBBBBBBBG, $ >FBBBBBBBB",
"BBBBBBBzU0 # 0UzBBBBBBB",
"BBBBBBBDBq   qBSBBBBBBB",
"BBBBBBBz:     :lBBBBBBB",
"BBBBBvUi #   # iUvBBBBB",
"BBBBBvU9     + 9UvBBBBB",
"BBBBBvIp +     dIzBBBBB",
"BBBBBBBv7     6kBBBBBBB",
"BBBBBvSGi     pPSvBBBBB",
"BBBBBDz1       1zSBBBBB",
"BBBBBD6 +     + 6FBBBBB",
"BBBvPd #       # fPvBBB",
"BBBBG1         + 3GBBBB",
"BBBBj*           =kZBBB",
"BBBSg& #+++  ++# &hDvBB",
"BBBBz;           ;vBBBB",
"BBBvGe,433333334,eGvBBB",
"BBBBBGGPGPPGGPGPPGBBBBB",
"BBBBBBvvvvvvvBvvvvBBBBB"
};
