/* XPM */
static char *pdd__[] = {
/* columns rows colors chars-per-pixel */
"27 27 89 1",
"  c #000600040002",
". c #009100690038",
"X c #00F700B3005F",
"o c #0174010D008F",
"O c #01BE014200AC",
"+ c #026801BE00ED",
"@ c #02E20215011C",
"# c #03E002CD017E",
"$ c #041E02FA0196",
"% c #056303E50213",
"& c #0729052D02C1",
"* c #078A057302E7",
"= c #087B06220344",
"- c #08F7067B0373",
"; c #0E460A52057F",
": c #0F330AFD05DA",
"> c #10320BB6063C",
", c #15240F490823",
"< c #165110220897",
"1 c #189D11CC097A",
"2 c #1A71131E0A2E",
"3 c #1EEE165C0BE9",
"4 c #218D18420CEB",
"5 c #22A6190D0D57",
"6 c #248A1A6B0E11",
"7 c #26BE1C030EEA",
"8 c #3E7D2D2E180E",
"9 c #41012EFF1906",
"0 c #50723A2A1EF8",
"q c #6A9A4D13290A",
"w c #6D594F0F2A19",
"e c #84D160073322",
"r c #87BF62253442",
"t c #887562A93488",
"y c #8980636A34EF",
"u c #8D95665D3681",
"i c #9200698F3835",
"p c #92FB6A453896",
"a c #97816D893A53",
"s c #98716E373AB0",
"d c #9DA271F73CAF",
"f c #A22C75403E6F",
"g c #A41A76A63F2D",
"h c #A46676DD3F4A",
"j c #A60578083FEA",
"k c #A82C799740BE",
"l c #A8FE7A2F410F",
"z c #AC0B7C63423C",
"x c #B2B7813644CD",
"c c #B4F382D345A9",
"v c #BB92879D4836",
"b c #BD3088C848D5",
"n c #BD6A88F348EC",
"m c #BDFD895C4924",
"M c #BF158A274990",
"N c #C21F8C5A4ABB",
"B c #C2E28CE74B07",
"V c #C4298DD34B85",
"C c #C8EC91444D5A",
"Z c #CA7892634DF2",
"A c #CECD95854F9D",
"S c #CFFF96625012",
"D c #D05896A35035",
"F c #D2D0986B5128",
"G c #D38598EE516E",
"H c #D4009947519E",
"J c #D46C999551C7",
"K c #D4CE99DC51ED",
"L c #D5D69A9B5252",
"P c #D65F9AFE5287",
"I c #D6949B24529C",
"U c #D7C69C015312",
"Y c #D9099CEB538E",
"T c #D9729D3753B6",
"R c #DA109DAA53F3",
"E c #DA759DF2541A",
"W c #DB379E7E5465",
"Q c #DBCB9EE9549D",
"! c #DD59A0095537",
"~ c #DDC8A0595561",
"^ c #DE5EA0C5559B",
"/ c #DEEBA12B55D1",
"( c #DF2EA15C55EB",
") c #DF6EA18B5604",
"_ c #E0ECA29E5697",
"` c #E234A38B5715",
"' c #E29AA3D5573D",
"] c #E37DA47A5795",
"[ c #E49AA5475801",
/* pixels */
"LLLLLLLLLLLLGGLLLLLLLLLLLLL",
"LLLLLLLLLLLGQ_QGLLLLLLLLLLL",
"LLLLLLLLLLL_nsn)LLLLLLLLLLL",
"LLLLLLLLLG)t$.$t_GLLLLLLLLL",
"LLLLLLLLGQV>.$.>VQLLLLLLLLL",
"LLLLLLLLG)z.....k)GLLLLLLLL",
"LLLLLLLLLLD4...4SLLLLLLLLLL",
"LLLLLLLLG!D0.$.0S!GLLLLLLLL",
"LLLLLLLL)j>.....>k)GLLLLLLL",
"LLLLLLLLS3.......3AULLLLLLL",
"LLLLLLG)d.......$.d_GLLLLLL",
"LLLLLLG_a.$.......s_GLLLLLL",
"LLLLLLLQV:.......>VYLLLLLLL",
"LLLLLLLG)e.......r)GLLLLLLL",
"LLLLLLLG)L8.....9Y)GLLLLLLL",
"LLLLLLG_g,.......<j]DLLLLLL",
"LLLLLG_g&.........&g)GLLLLL",
"LLLLGYC<...........2CYLLLLL",
"LLLLG]q.$.........$.w[DLLLL",
"LLLLLL6.............7LLLLLL",
"LLLGQn&.............-NQGLLL",
"LLLG!x...............c!LLLL",
"LLLLQv&.$.$.......$.*nQGLLL",
"LLLLLG4.............4LLLLLL",
"LLLLGQkupppppppppppukQGLLLL",
"LLLLLL)__]_____]]__]!LLLLLL",
"LLLLLLGGGGGGGGGDGGGGGLLLLLL"
};
