/* XPM */
static char *pdd__[] = {
/* columns rows colors chars-per-pixel */
"22 22 70 1",
"  c #000700050003",
". c #0096006C0039",
"X c #00BB00870048",
"o c #017901110091",
"O c #01AE013700A6",
"+ c #0234019800D9",
"@ c #031A023E0131",
"# c #03AC02A8016A",
"$ c #050D03A701F2",
"% c #0AD207D3042A",
"& c #17F91155093B",
"* c #184D1192095B",
"= c #1A3012EF0A15",
"- c #20C817B40C9F",
"; c #233619750D8E",
": c #24201A1E0DE9",
"> c #24F91ABB0E3C",
", c #26F01C270EFE",
"< c #2B6F1F6710B9",
"1 c #2C782026111F",
"2 c #3A8F2A56168B",
"3 c #3AF52AA016B3",
"4 c #3E642D1C1805",
"5 c #3FEC2E37189C",
"6 c #42522FF31988",
"7 c #47FA340A1BB5",
"8 c #49EF35741C76",
"9 c #5E6F4446245B",
"0 c #5FD9454C24E6",
"q c #6520491D26EE",
"w c #66DC4A5F2799",
"e c #770A56112DD4",
"r c #7E775B7030B0",
"t c #7FD55C6C3136",
"y c #80A85D053188",
"u c #A45576D03F44",
"i c #A62A78233FF8",
"p c #AAB47B6B41B8",
"a c #AB7C7BFC4204",
"s c #B0707F9143ED",
"d c #B20C80BB448B",
"f c #B2E1815544DD",
"g c #B49F82974589",
"h c #C87A90F24D2E",
"j c #D00096635013",
"k c #D2F998895138",
"l c #D39898FC5175",
"z c #D408994D51A1",
"x c #D46D999551C7",
"c c #D4E299EA51F5",
"v c #D5419A2F5219",
"b c #D5D39A985251",
"n c #D6829B175295",
"m c #D6C99B4A52B0",
"M c #D79D9BE45302",
"N c #D8129C38532F",
"B c #D8F29CDA5385",
"V c #DA9D9E0F5429",
"C c #DB869EB75483",
"Z c #DD039FCB5515",
"A c #DD60A00E5539",
"S c #DDD0A05F5564",
"D c #DE8EA0E855AD",
"F c #DFFCA1F1563B",
"G c #E047A2275657",
"H c #E0F2A2A35699",
"J c #E23CA3925718",
"K c #E2DDA4065756",
"L c #E3E7A4C657BD",
"P c #E545A5C45844",
/* pixels */
"bbbbbbbbbkkkbbbbbbbbbb",
"bbbbbbbbbDDKAkbbbbbbbb",
"bbbbbbbkDp22pDbbbbbbbb",
"bbbbbbbBh&  &hNbbbbbbb",
"bbbbbbkDp $$ pDkbbbbbb",
"bbbbbbbbD1  1Dbbbbbbbb",
"bbbbbbbCy&  &tCbbbbbbb",
"bbbbbkKe      eLkbbbbb",
"bbbbbbb; $    :bbbbbbb",
"bbbbbbk-    $ -bbbbbbb",
"bbbbbkKw $    wKkbbbbb",
"bbbbbbbL5  $ 6Pbkbbbbb",
"bbbbkbB0%    %0Bbbbbbb",
"bbbbbA8 $    $ 8Abbbbb",
"bbbkLr $      $ yLkbbb",
"bbbbb:          :bbbbb",
"bbkDf            gAkbb",
"bbkKu $   $  $ $ pKkbb",
"bbkDf            fDkbb",
"bbbbj4,1<<<<111,4jbbbb",
"bbbbbCCBCCCCCCCCCbbbbb",
"bbbbbbbbkbkbkbkkbbbbbb"
};
