/* XPM */
static char *pdd__[] = {
/* columns rows colors chars-per-pixel */
"47 47 122 2",
"   c #000500040002",
".  c #009100690038",
"X  c #010D00C30068",
"o  c #015D00FD0086",
"O  c #01DB015700B7",
"+  c #024701A500E0",
"@  c #02DB0210011A",
"#  c #039302950160",
"$  c #03FB02E10188",
"%  c #04D3037D01DC",
"&  c #061F046C025B",
"*  c #0702051102B2",
"=  c #09E2072503CE",
"-  c #0B5A0834045F",
";  c #0BE208970493",
":  c #0DF20A15055E",
">  c #0FC00B630610",
",  c #122F0D260700",
"<  c #1B3613AD0A7A",
"1  c #1D20150F0B36",
"2  c #1FA016DD0C2D",
"3  c #235E19920D9D",
"4  c #281C1D000F71",
"5  c #2A981ECC1066",
"6  c #2B7D1F7110BE",
"7  c #2C8D20361127",
"8  c #2CE92078114A",
"9  c #2E70219311E0",
"0  c #312F238F12EF",
"q  c #318023CA130F",
"w  c #33A9255913E3",
"e  c #33BB256713EB",
"r  c #342825B61414",
"t  c #351626621470",
"y  c #357826A91496",
"u  c #37B128441571",
"i  c #383628A415A5",
"p  c #385528BA15B0",
"a  c #38E9292615E9",
"s  c #416D2F4E1930",
"d  c #49DF35691C70",
"f  c #4AAF35FF1CC0",
"g  c #4EB038E41E4B",
"h  c #4F1F39341E76",
"j  c #56D33EC6216D",
"k  c #56D73EC9216E",
"l  c #577E3F4221AF",
"z  c #640748522682",
"x  c #66634A07276B",
"c  c #6B614DA32957",
"v  c #6D134EDD29FE",
"b  c #7191521C2BB9",
"n  c #73D753C12C98",
"m  c #768455B02DA0",
"M  c #7771565B2DFB",
"N  c #871161A733FF",
"B  c #8BAF64FE35C6",
"V  c #8EA6672436EA",
"C  c #90746871379C",
"Z  c #90DA68BB37C4",
"A  c #96206C8A39CB",
"S  c #97C46DBA3A6D",
"D  c #98B96E6C3ACC",
"F  c #9A0C6F603B4E",
"G  c #9A7D6FB23B7A",
"H  c #9DBF720D3CBB",
"J  c #9E70728D3CFF",
"K  c #A5EC77F73FE0",
"L  c #A6E978AD4042",
"P  c #A7C3794B4096",
"I  c #A9127A3E4117",
"U  c #AB5D7BE541F8",
"Y  c #ABAF7C214218",
"T  c #AD187D2542A3",
"R  c #AD337D3942AD",
"E  c #AE487E024318",
"W  c #AF8F7EEE4396",
"Q  c #B0007F3F43C1",
"!  c #B0CE7FD44411",
"~  c #B17A80504453",
"^  c #B700844F4674",
"/  c #B8B3858A471B",
"(  c #BA6886C647C3",
")  c #BAFA873047FB",
"_  c #BB4487654818",
"`  c #BE8289BD4957",
"'  c #C1078B8F4A50",
"]  c #C3628D434B38",
"[  c #CDB994BD4F33",
"{  c #D0F097105070",
"}  c #D0FC97195074",
"|  c #D18A978050AB",
" . c #D23897FD50EE",
".. c #D2D3986D5129",
"X. c #D3A89907517C",
"o. c #D3EC99385196",
"O. c #D46A999351C6",
"+. c #D4DD99E651F2",
"@. c #D5419A2F5219",
"#. c #D5D49A9A5252",
"$. c #D65C9AFC5286",
"%. c #D7C19BFE530F",
"&. c #D9929D4E53C3",
"*. c #D9E09D8653E1",
"=. c #DA919E065424",
"-. c #DB119E635456",
";. c #DBA99ED15490",
":. c #DC1A9F2354BC",
">. c #DCDB9FAE5506",
",. c #DDF7A07B5574",
"<. c #DE9BA0F255B3",
"1. c #DEF3A13155D5",
"2. c #DF36A16255EE",
"3. c #DFA5A1B25619",
"4. c #E0D9A2915690",
"5. c #E181A30A56D0",
"6. c #E1E9A35556F8",
"7. c #E2B8A3EC5748",
"8. c #E31AA432576E",
"9. c #E3AFA49E57A7",
"0. c #E4DDA578581B",
"q. c #E571A5E35854",
/* pixels */
"#.#.#.#.#.#.#.#.#.#.#.#.#.#.#.#.#.#.#.#.#.#.#.#.#.#.#.#.#.#.#.#.#.#.#.#.#.#.#.#.#.#.#.#.#.#.#.",
"#.#.#.#.#.#.#.#.#.#.#.#.#.#.#.#.#.#.#.#.#.#.#.#.#.#.#.#.#.#.#.#.#.#.#.#.#.#.#.#.#.#.#.#.#.#.#.",
"#.#.#.#.#.#.#.#.#.#.#.#.#.#.#.#.#.#.#.#.#.#...#.#.#.#.#.#.#.#.#.#.#.#.#.#.#.#.#.#.#.#.#.#.#.#.",
"#.#.#.#.#.#.#.#.#.#.#.#.#.#.#.#.#.#.#.#...#.,.8.>.#...#.#.#.#.#.#.#.#.#.#.#.#.#.#.#.#.#.#.#.#.",
"#.#.#.#.#.#.#.#.#.#.#.#.#.#.#.#.#.#.#...,.-.~ J ~ -.,. .#.#.#.#.#.#.#.#.#.#.#.#.#.#.#.#.#.#.#.",
"#.#.#.#.#.#.#.#.#.#.#.#.#.#.#.#.#.#.#.,.W 6       8 W 7...#.#.#.#.#.#.#.#.#.#.#.#.#.#.#.#.#.#.",
"#.#.#.#.#.#.#.#.#.#.#.#.#.#.#.#.#...,.W =           ; ! ,...#.#.#.#.#.#.#.#.#.#.#.#.#.#.#.#.#.",
"#.#.#.#.#.#.#.#.#.#.#.#.#.#.#.#.#.#.>.i   %       &   i >.#.#.#.#.#.#.#.#.#.#.#.#.#.#.#.#.#.#.",
"#.#.#.#.#.#.#.#.#.#.#.#.#.#.#.#.#.-._ &               * _ >.#.#.#.#.#.#.#.#.#.#.#.#.#.#.#.#.#.",
"#.#.#.#.#.#.#.#.#.#.#.#.#.#.#.#...,.W                   W ,...#.#.#.#.#.#.#.#.#.#.#.#.#.#.#.#.",
"#.#.#.#.#.#.#.#.#.#.#.#.#.#.#.#.#.-.` =               ; ` -...#.#.#.#.#.#.#.#.#.#.#.#.#.#.#.#.",
"#.#.#.#.#.#.#.#.#.#.#.#.#.#.#.#.#...,.s   &           s >.#.#.#.#.#.#.#.#.#.#.#.#.#.#.#.#.#.#.",
"#.#.#.#.#.#.#.#.#.#.#.#.#.#.#.#.#. .0.[ 1           1 [ 0. .#.#.#.#.#.#.#.#.#.#.#.#.#.#.#.#.#.",
"#.#.#.#.#.#.#.#.#.#.#.#.#.#.#.#.#.7.K k 1           1 l K 7.#.#.#.#.#.#.#.#.#.#.#.#.#.#.#.#.#.",
"#.#.#.#.#.#.#.#.#.#.#.#.#.#.#.#.,.x                       z >.#.#.#.#.#.#.#.#.#.#.#.#.#.#.#.#.",
"#.#.#.#.#.#.#.#.#.#.#.#.#.#...7.x     %               &     x 7.#.#.#.#.#.#.#.#.#.#.#.#.#.#.#.",
"#.#.#.#.#.#.#.#.#.#.#.#.#...,.U                               U ,...#.#.#.#.#.#.#.#.#.#.#.#.#.",
"#.#.#.#.#.#.#.#.#.#.#.#.#...7.k   %                       &   k 8. .#.#.#.#.#.#.#.#.#.#.#.#.#.",
"#.#.#.#.#.#.#.#.#.#.#.#.#.#.&.8   %                       %   8 &.#.#.#.#.#.#.#.#.#.#.#.#.#.#.",
"#.#.#.#.#.#.#.#.#.#.#.#.#.#.#.3                               3 #.#.#.#.#.#.#.#.#.#.#.#.#.#.#.",
"#.#.#.#.#.#.#.#.#.#.#.#.#.#.>.y                               y >.#.#.#.#.#.#.#.#.#.#.#.#.#.#.",
"#.#.#.#.#.#.#.#.#.#.#.#.#...9.c   &                       %   v 8. .#.#.#.#.#.#.#.#.#.#.#.#.#.",
"#.#.#.#.#.#.#.#.#.#.#.#.#...-.' >                       %   > ] -.#.#.#.#.#.#.#.#.#.#.#.#.#.#.",
"#.#.#.#.#.#.#.#.#.#.#.#.#.#. .7.Z                           A 0...#.#.#.#.#.#.#.#.#.#.#.#.#.#.",
"#.#.#.#.#.#.#.#.#.#.#.#.#.#.#. .7.P 1                   3 U 7.{ #.#.#.#.#.#.#.#.#.#.#.#.#.#.#.",
"#.#.#.#.#.#.#.#.#.#.#.#.#.#. .>.&.A 5                   5 F -.-...#.#.#.#.#.#.#.#.#.#.#.#.#.#.",
"#.#.#.#.#.#.#.#.#.#.#.#.#...7.( 0   %                       y ( 7. .#.#.#.#.#.#.#.#.#.#.#.#.#.",
"#.#.#.#.#.#.#.#.#.#.#.#. .9.F =                         %     - J 8. .#.#.#.#.#.#.#.#.#.#.#.#.",
"#.#.#.#.#.#.#.#.#.#.#...7.H     %                           %   & J 7. .#.#.#.#.#.#.#.#.#.#.#.",
"#.#.#.#.#.#.#.#.#.#.#.>.^ ;   %                                   ; _ >.#.#.#.#.#.#.#.#.#.#.#.",
"#.#.#.#.#.#.#.#.#.#.#.-.y                                       %   u -.#.#.#.#.#.#.#.#.#.#.#.",
"#.#.#.#.#.#.#.#.#...8.N                                               B 7. .#.#.#.#.#.#.#.#.#.",
"#.#.#.#.#.#.#.#.#.#.#.6                                               8 &.#.#.#.#.#.#.#.#.#.#.",
"#.#.#.#.#.#.#.#...,.P                                                   W ,...#.#.#.#.#.#.#.#.",
"#.#.#.#.#.#.#.#...0.b   &                                           &   n 0. .#.#.#.#.#.#.#.#.",
"#.#.#.#.#.#.#.#...7.f   %                                           %   h 7...#.#.#.#.#.#.#.#.",
"#.#.#.#.#.#.#.#...>.w                                               %   i ,...#.#.#.#.#.#.#.#.",
"#.#.#.#.#.#.#.#.#.-.8                                                   q >.#.#.#.#.#.#.#.#.#.",
"#.#.#.#.#.#.#.#.#.>.y   %                                               i ,.#.#.#.#.#.#.#.#.#.",
"#.#.#.#.#.#.#.#...7.f   %                                           %   h 8...#.#.#.#.#.#.#.#.",
"#.#.#.#.#.#.#.#. .0.n   &   % %   %   %   %   % %   %   %   %   %   &   M 0. .#.#.#.#.#.#.#.#.",
"#.#.#.#.#.#.#.#...,.Y                                                   W ,...#.#.#.#.#.#.#.#.",
"#.#.#.#.#.#.#.#.#.#.#.A V Z C C C C C Z Z Z Z C Z Z C C Z Z Z C Z Z V F ..#.#.#.#.#.#.#.#.#.#.",
"#.#.#.#.#.#.#.#.#.#.#.7.8.8.8.7.8.8.8.8.8.8.8.8.8.8.8.8.8.8.8.8.8.8.8.7.#.#.#.#.#.#.#.#.#.#.#.",
"#.#.#.#.#.#.#.#.#.#.#...................................................#.#.#.#.#.#.#.#.#.#.#.",
"#.#.#.#.#.#.#.#.#.#.#.#.#.#.#.#.#.#.#.#.#.#.#.#.#.#.#.#.#.#.#.#.#.#.#.#.#.#.#.#.#.#.#.#.#.#.#.",
"#.#.#.#.#.#.#.#.#.#.#.#.#.#.#.#.#.#.#.#.#.#.#.#.#.#.#.#.#.#.#.#.#.#.#.#.#.#.#.#.#.#.#.#.#.#.#."
};
