/* XPM */
static char *pdd__[] = {
/* columns rows colors chars-per-pixel */
"42 42 111 2",
"   c #000400030001",
".  c #008500600034",
"X  c #00E600A60059",
"o  c #01670103008A",
"O  c #01D9015600B6",
"+  c #0226018E00D3",
"@  c #030B0233012C",
"#  c #0476033A01B8",
"$  c #04C1037001D4",
"%  c #054C03D4020A",
"&  c #05BD04270236",
"*  c #078B057502E8",
"=  c #080505CC0317",
"-  c #0AC707CB0427",
";  c #0D5B09A70524",
":  c #0E880A820598",
">  c #0EB70AA305AA",
",  c #15BB0FB6085E",
"<  c #1D77154D0B58",
"1  c #1EA416270BCC",
"2  c #217518310CE1",
"3  c #225E18D90D3B",
"4  c #22EA193F0D71",
"5  c #25701B110E6A",
"6  c #25E91B690E98",
"7  c #26311B9D0EB4",
"8  c #29631DEC0FEF",
"9  c #29C61E341015",
"0  c #2AA31ED4106A",
"q  c #2AD01EF5107B",
"w  c #2B9D1F8910CA",
"e  c #2BAD1F9410D0",
"r  c #346D25E7142F",
"t  c #384228AC15A8",
"y  c #3A912A58168C",
"u  c #3B832B0716EA",
"i  c #3D822C7917AE",
"p  c #3E612D1A1804",
"a  c #3FE72E34189A",
"s  c #41522F3A1925",
"d  c #439A30E01A06",
"f  c #449231941A66",
"g  c #4853344B1BD8",
"h  c #4A0F358C1C83",
"j  c #4B9836A81D1A",
"k  c #57083EEC2182",
"l  c #5EFB44AC2490",
"z  c #630D479D2622",
"x  c #67E54B1E27FF",
"c  c #69B14C6A28B0",
"v  c #6AF24D53292C",
"b  c #6DA24F442A35",
"n  c #6DEF4F7C2A53",
"m  c #6ED2501F2AAA",
"M  c #6FE850E92B15",
"N  c #713851DB2B96",
"B  c #723D52992BFB",
"V  c #769755BE2DA8",
"C  c #7B4B59242F77",
"Z  c #7DBD5AE93068",
"A  c #80AA5D063188",
"S  c #8A8464263554",
"D  c #9F8973583D6B",
"F  c #A347760D3EDB",
"G  c #A7C179494095",
"H  c #A90D7A3A4114",
"J  c #AB6B7BF041FE",
"K  c #AD107D2042A0",
"L  c #AD9A7D8342D5",
"P  c #AE5F7E124321",
"I  c #B5EC83874609",
"U  c #BC6788374887",
"Y  c #C09D8B424A27",
"T  c #C16A8BD74A76",
"R  c #C2B58CC64AF5",
"E  c #C33B8D274B29",
"W  c #C43C8DE14B8C",
"Q  c #C77090314CC7",
"!  c #CDAA94B24F2D",
"~  c #CE98955F4F89",
"^  c #D20697D950DA",
"/  c #D25C981750FC",
"(  c #D2AF9853511C",
")  c #D39098F65172",
"_  c #D3FF9946519D",
"`  c #D473999A51CA",
"'  c #D4D899E351F1",
"]  c #D5319A245213",
"[  c #D5D49A995251",
"{  c #D6BF9B4352AC",
"}  c #D73E9B9F52DD",
"|  c #D77E9BCE52F6",
" . c #D8199C3E5332",
".. c #D8D79CC7537A",
"X. c #D9BC9D6E53D3",
"o. c #D9FD9D9C53EC",
"O. c #DA879E005421",
"+. c #DAEE9E4A5448",
"@. c #DBA19ECB548E",
"#. c #DCE79FB7550B",
"$. c #DD6FA019553F",
"%. c #DE3FA0AF558F",
"&. c #DEBCA10A55BF",
"*. c #DEECA12C55D2",
"=. c #DF37A16355EF",
"-. c #DFEBA1E55634",
";. c #E0B3A2765681",
":. c #E351A45A5783",
">. c #E39FA49257A1",
",. c #E4F7A58B5825",
"<. c #E5B0A610586C",
/* pixels */
"[ [ [ [ [ [ [ [ [ [ [ [ [ [ [ [ [ [ [ [ [ [ [ [ [ [ [ [ [ [ [ [ [ [ [ [ [ [ [ [ [ [ ",
"[ [ [ [ [ [ [ [ [ [ [ [ [ [ [ [ [ [ [ [ [ [ [ [ [ [ [ [ [ [ [ [ [ [ [ [ [ [ [ [ [ [ ",
"[ [ [ [ [ [ [ [ [ [ [ [ [ [ [ [ [ [ [ ^ _ _ ^ [ [ [ [ [ [ [ [ [ [ [ [ [ [ [ [ [ [ [ ",
"[ [ [ [ [ [ [ [ [ [ [ [ [ [ [ [ [ [ [ ,.;.&.,. ._ [ [ [ [ [ [ [ [ [ [ [ [ [ [ [ [ [ ",
"[ [ [ [ [ [ [ [ [ [ [ [ [ [ [ [ _ #.! m u u N ~ @._ [ [ [ [ [ [ [ [ [ [ [ [ [ [ [ [ ",
"[ [ [ [ [ [ [ [ [ [ [ [ [ [ [ _ @.E 2         2 W @._ [ [ [ [ [ [ [ [ [ [ [ [ [ [ [ ",
"[ [ [ [ [ [ [ [ [ [ [ [ [ [ [ _ &.f   & $ $ &   f &._ [ [ [ [ [ [ [ [ [ [ [ [ [ [ [ ",
"[ [ [ [ [ [ [ [ [ [ [ [ [ [ _ @.U &             = U @.[ [ [ [ [ [ [ [ [ [ [ [ [ [ [ ",
"[ [ [ [ [ [ [ [ [ [ [ [ [ [ _ &.K                 K &._ [ [ [ [ [ [ [ [ [ [ [ [ [ [ ",
"[ [ [ [ [ [ [ [ [ [ [ [ [ [ [ @.Y ;             - Y @._ [ [ [ [ [ [ [ [ [ [ [ [ [ [ ",
"[ [ [ [ [ [ [ [ [ [ [ [ [ [ [ ^ &.k   $         k &._ [ [ [ [ [ [ [ [ [ [ [ [ [ [ [ ",
"[ [ [ [ [ [ [ [ [ [ [ [ [ [ _ @.,.I ,     $   , I ,..._ [ [ [ [ [ [ [ [ [ [ [ [ [ [ ",
"[ [ [ [ [ [ [ [ [ [ [ [ [ _ &.W h = $         $ & h Q &._ [ [ [ [ [ [ [ [ [ [ [ [ [ ",
"[ [ [ [ [ [ [ [ [ [ [ [ _ @.E 1                     1 E @._ [ [ [ [ [ [ [ [ [ [ [ [ ",
"[ [ [ [ [ [ [ [ [ [ [ [ [ #.p   &                 &   p #._ [ [ [ [ [ [ [ [ [ [ [ [ ",
"[ [ [ [ [ [ [ [ [ [ [ _ &.H                             H &._ [ [ [ [ [ [ [ [ [ [ [ ",
"[ [ [ [ [ [ [ [ [ [ [ _ ,.Z   $                         Z ,._ [ [ [ [ [ [ [ [ [ [ [ ",
"[ [ [ [ [ [ [ [ [ [ [ ^ ,.N                         $   N ,.^ [ [ [ [ [ [ [ [ [ [ [ ",
"[ [ [ [ [ [ [ [ [ [ [ ^ ;.S   $                     $   S ;._ [ [ [ [ [ [ [ [ [ [ [ ",
"[ [ [ [ [ [ [ [ [ [ [ _ @.E ;                         ; E @._ [ [ [ [ [ [ [ [ [ [ [ ",
"[ [ [ [ [ [ [ [ [ [ [ [ _ ;.N                     $   V ,.^ [ [ [ [ [ [ [ [ [ [ [ [ ",
"[ [ [ [ [ [ [ [ [ [ [ [ [ _ @.z $                   x @._ [ [ [ [ [ [ [ [ [ [ [ [ [ ",
"[ [ [ [ [ [ [ [ [ [ [ [ [ _ ,.[ u             $   p [ ,._ [ [ [ [ [ [ [ [ [ [ [ [ [ ",
"[ [ [ [ [ [ [ [ [ [ [ _  .&.Z >                     ; A &.[ [ [ [ [ [ [ [ [ [ [ [ [ ",
"[ [ [ [ [ [ [ [ [ [ _ [  .h                             j @.[ [ [ [ [ [ [ [ [ [ [ [ ",
"[ [ [ [ [ [ [ [ [ _ [ @.p   &                         &   f @.[ [ [ [ [ [ [ [ [ [ [ ",
"[ [ [ [ [ [ [ [ [ _ ,.l   &                             &   z ,._ [ [ [ [ [ [ [ [ [ ",
"[ [ [ [ [ [ [ [ _ ;.D                                         F &._ [ [ [ [ [ [ [ [ ",
"[ [ [ [ [ [ [ [ [ @.r                                         u &.[ [ [ [ [ [ [ [ [ ",
"[ [ [ [ [ [ [ _ &.G                                             H &._ [ [ [ [ [ [ [ ",
"[ [ [ [ [ [ [ ^ ,.c   $                                     $   b ,.^ [ [ [ [ [ [ [ ",
"[ [ [ [ [ [ [ _ &.p   &                                         d &._ [ [ [ [ [ [ [ ",
"[ [ [ [ [ [ [ [ [ 7                                             w ..[ [ [ [ [ [ [ [ ",
"[ [ [ [ [ [ [ [ _ 1                                         $   2 [ [ [ [ [ [ [ [ [ ",
"[ [ [ [ [ [ [ [ [ 7                                             w ..[ [ [ [ [ [ [ [ ",
"[ [ [ [ [ [ [ _ ;.p   &   $   $   $       $   $     $   $   &   a &._ [ [ [ [ [ [ [ ",
"[ [ [ [ [ [ [ ^ ,.c                                             b ,.^ [ [ [ [ [ [ [ ",
"[ [ [ [ [ [ [ _ &.K 5 w e e w w w w w w w w w w e e w w w w w 5 K &._ [ [ [ [ [ [ [ ",
"[ [ [ [ [ [ [ [ [ @.@.@.@.@.@.@...@...@...@.@.@.@...@.........@...[ [ [ [ [ [ [ [ [ ",
"[ [ [ [ [ [ [ [ [ _ _ _ _ _ _ _ [ _ [ _ [ _ _ [ [ [ [ _ [ [ [ [ [ [ [ [ [ [ [ [ [ [ ",
"[ [ [ [ [ [ [ [ [ [ [ [ [ [ [ [ [ [ [ [ [ [ _ [ _ [ [ [ [ [ [ _ [ [ [ [ [ [ [ [ [ [ ",
"[ [ [ [ [ [ [ [ [ [ [ [ [ [ [ [ [ [ [ [ [ [ [ [ [ [ [ [ [ [ [ [ [ [ [ [ [ [ [ [ [ [ "
};
