/* XPM */
static char *pdd__[] = {
/* columns rows colors chars-per-pixel */
"48 48 122 2",
"   c #000800060003",
".  c #0099006F003B",
"X  c #00E300A40057",
"o  c #016201000089",
"O  c #01D2015100B4",
"+  c #024801A600E1",
"@  c #031D02400133",
"#  c #03D702C7017B",
"$  c #054903D20209",
"%  c #09DC072103CC",
"&  c #0A7907930408",
"*  c #0C7E090804CF",
"=  c #0CFD09640500",
"-  c #0DAA09E10543",
";  c #11EE0CF706E7",
":  c #13DB0E5B07A5",
">  c #189811C80978",
",  c #196E126309CA",
"<  c #1BA713FE0AA5",
"1  c #1CDC14DE0B1C",
"2  c #1E1215BE0B94",
"3  c #270D1C3B0F08",
"4  c #354C26881485",
"5  c #3B0D2AB216BC",
"6  c #3F162D9C1849",
"7  c #3F622DD41867",
"8  c #420E2FC2196E",
"9  c #438730D219FF",
"0  c #44D531C41A7F",
"q  c #4DAB38271DE7",
"w  c #4E20387C1E13",
"e  c #53AA3C7D2035",
"r  c #564A3E632138",
"t  c #57A23F5C21BC",
"y  c #5BE3426F2360",
"u  c #5CFA433923CC",
"i  c #5DC443CB2419",
"p  c #6013457624FC",
"a  c #617E467C2588",
"s  c #623D470725D2",
"d  c #633847BC2633",
"f  c #682D4B52281B",
"g  c #69C14C7628B6",
"h  c #7058513A2B40",
"j  c #70FB51B02B7F",
"k  c #763755782D83",
"l  c #795157B62EB4",
"z  c #7A9758A22F32",
"x  c #7B54592B2F7B",
"c  c #7DE55B063078",
"v  c #7E985B8730BC",
"b  c #80335CB0315A",
"n  c #82EE5EA93267",
"m  c #84265F8B32E0",
"M  c #8561606F3359",
"N  c #885F62993480",
"B  c #8A4C63FD353E",
"V  c #8F2B6783371E",
"C  c #90D768B937C3",
"Z  c #912168EE37DF",
"A  c #922F69B13847",
"S  c #93AE6AC638DB",
"D  c #95276BD6396C",
"F  c #97296D4A3A32",
"G  c #98706E373AAF",
"H  c #99AA6F1A3B28",
"J  c #9A906FC03B81",
"K  c #9BAB708C3BEE",
"L  c #9E2672583CE2",
"P  c #A07F740B3DCA",
"I  c #A3C476683F0C",
"U  c #A47D76EE3F53",
"Y  c #A74478EF4064",
"T  c #AA257B044181",
"R  c #AFED7F3243BA",
"E  c #B0F57FF1441F",
"W  c #B4AC82A1458E",
"Q  c #B75D84924697",
"!  c #BADB871947EF",
"~  c #BEE38A03497D",
"^  c #C2288C604ABF",
"/  c #C6FC8FDE4C9B",
"(  c #C8FF91524D61",
")  c #CBBD934E4E6F",
"_  c #CC5E93C24EAD",
"`  c #CDCB94CA4F3A",
"'  c #D10B9724507A",
"]  c #D1BF97A650BF",
"[  c #D23997FE50EE",
"{  c #D25A981550FB",
"}  c #D2AD9852511B",
"|  c #D38298EC516D",
" . c #D3FF9946519D",
".. c #D46B999451C6",
"X. c #D4E299EA51F5",
"o. c #D5409A2E5219",
"O. c #D5D59A9A5252",
"+. c #D7169B8252CD",
"@. c #D7549BAF52E5",
"#. c #D7829BD152F7",
"$. c #D8329C50533C",
"%. c #D8709C7C5353",
"&. c #D97F9D4053BB",
"*. c #D9BE9D6E53D4",
"=. c #DAA59E15542C",
"-. c #DB559E945470",
";. c #DC099F1654B5",
":. c #DCFC9FC65513",
">. c #DD66A012553C",
",. c #DDD7A0645567",
"<. c #DE65A0CB559E",
"1. c #DF26A15655E8",
"2. c #DFD6A1D6562C",
"3. c #E094A25F5675",
"4. c #E173A30056CB",
"5. c #E208A36C5704",
"6. c #E2BBA3ED5749",
"7. c #E34FA4585782",
"8. c #E3A7A49857A4",
"9. c #E44CA50F57E3",
"0. c #E4E0A57A581C",
"q. c #F2C5AF875D76",
/* pixels */
"O.O.O.O.O.O.O.O.O.O.O.O.O.O.O.O.O.O.O.O.O.O.O.O.O.O.O.O.O.O.O.O.O.O.O.O.O.O.O.O.O.O.O.O.O.O.O.O.",
"O.O.O.O.O.O.O.O.O.O.O.O.O.O.O.O.O.O.O.O.O.O.O.O.O.O.O.O.O.O.O.O.O.O.O.O.O.O.O.O.O.O.O.O.O.O.O.O.",
"O.O.O.O.O.O.O.O.O.O.O.O.O.O.O.O.O.O.O.O.O.O.O.| | O.O.O.O.O.O.O.O.O.O.O.O.O.O.O.O.O.O.O.O.O.O.O.",
"O.O.O.O.O.O.O.O.O.O.O.O.O.O.O.O.O.O.O.O.O.| O.>.,.O.| O.O.O.O.O.O.O.O.O.O.O.O.O.O.O.O.O.O.O.O.O.",
"O.O.O.O.O.O.O.O.O.O.O.O.O.O.O.O.O.O.O.O.| 8.| W W [ 8.O.O.O.O.O.O.O.O.O.O.O.O.O.O.O.O.O.O.O.O.O.",
"O.O.O.O.O.O.O.O.O.O.O.O.O.O.O.O.O.O.O.O.>.l , #   , z ,.O.O.O.O.O.O.O.O.O.O.O.O.O.O.O.O.O.O.O.O.",
"O.O.O.O.O.O.O.O.O.O.O.O.O.O.O.O.O.O.| 4.y             i ,.| O.O.O.O.O.O.O.O.O.O.O.O.O.O.O.O.O.O.",
"O.O.O.O.O.O.O.O.O.O.O.O.O.O.O.O.O.| 4.H   #       # #   K 4.| O.O.O.O.O.O.O.O.O.O.O.O.O.O.O.O.O.",
"O.O.O.O.O.O.O.O.O.O.O.O.O.O.O.O.O.[ 4.w   $         #   w 8.| O.O.O.O.O.O.O.O.O.O.O.O.O.O.O.O.O.",
"O.O.O.O.O.O.O.O.O.O.O.O.O.O.O.O.O.O.>.4             #   4 ,.| O.O.O.O.O.O.O.O.O.O.O.O.O.O.O.O.O.",
"O.O.O.O.O.O.O.O.O.O.O.O.O.O.O.O.O.| 4.9   #         #   9 ,.| O.O.O.O.O.O.O.O.O.O.O.O.O.O.O.O.O.",
"O.O.O.O.O.O.O.O.O.O.O.O.O.O.O.O.O.[ 0.v                 c 8.| O.O.O.O.O.O.O.O.O.O.O.O.O.O.O.O.O.",
"O.O.O.O.O.O.O.O.O.O.O.O.O.O.O.O.O.O.| ,.9             9 ,.| | O.O.O.O.O.O.O.O.O.O.O.O.O.O.O.O.O.",
"O.O.O.O.O.O.O.O.O.O.O.O.O.O.O.O.| %.,.E a             a W ,.*.| O.O.O.O.O.O.O.O.O.O.O.O.O.O.O.O.",
"O.O.O.O.O.O.O.O.O.O.O.O.O.O.O.| >.) 0                     0 ) *.| O.O.O.O.O.O.O.O.O.O.O.O.O.O.O.",
"O.O.O.O.O.O.O.O.O.O.O.O.O.O.O.%.) 3   # #             #     3 ` %.O.O.O.O.O.O.O.O.O.O.O.O.O.O.O.",
"O.O.O.O.O.O.O.O.O.O.O.O.O.O.| ,.w   $                     $   w 4.| O.O.O.O.O.O.O.O.O.O.O.O.O.O.",
"O.O.O.O.O.O.O.O.O.O.O.O.O.| ,.W                                 E ,.| O.O.O.O.O.O.O.O.O.O.O.O.O.",
"O.O.O.O.O.O.O.O.O.O.O.O.O.| 0.z   #                         #   z 0.| O.O.O.O.O.O.O.O.O.O.O.O.O.",
"O.O.O.O.O.O.O.O.O.O.O.O.O.[ 0.a   #                         #   a 0.| O.O.O.O.O.O.O.O.O.O.O.O.O.",
"O.O.O.O.O.O.O.O.O.O.O.O.O.[ 0.g   #                         #   g 0.| O.O.O.O.O.O.O.O.O.O.O.O.O.",
"O.O.O.O.O.O.O.O.O.O.O.O.O.| 4.Z                             #   Z 4.| O.O.O.O.O.O.O.O.O.O.O.O.O.",
"O.O.O.O.O.O.O.O.O.O.O.O.O.O.%._ <                             < ` %.O.O.O.O.O.O.O.O.O.O.O.O.O.O.",
"O.O.O.O.O.O.O.O.O.O.O.O.O.O.| 8.B   #                         V 4.[ O.O.O.O.O.O.O.O.O.O.O.O.O.O.",
"O.O.O.O.O.O.O.O.O.O.O.O.O.O.O.| 4.j                         k 4.| O.O.O.O.O.O.O.O.O.O.O.O.O.O.O.",
"O.O.O.O.O.O.O.O.O.O.O.O.O.O.O.| %.q.n                     N q.%.[ O.O.O.O.O.O.O.O.O.O.O.O.O.O.O.",
"O.O.O.O.O.O.O.O.O.O.O.O.O.O.[ 4./ e -                     - r ) 4.| O.O.O.O.O.O.O.O.O.O.O.O.O.O.",
"O.O.O.O.O.O.O.O.O.O.O.O.O.[ 9.H ;                             ; L 8.| O.O.O.O.O.O.O.O.O.O.O.O.O.",
"O.O.O.O.O.O.O.O.O.O.O.O.[ 0.M     #                         #     N 0.| O.O.O.O.O.O.O.O.O.O.O.O.",
"O.O.O.O.O.O.O.O.O.O.O.[ 8.Z   #                                 #   F 4.| O.O.O.O.O.O.O.O.O.O.O.",
"O.O.O.O.O.O.O.O.O.O.| ,.Q %                                         - ! >.| O.O.O.O.O.O.O.O.O.O.",
"O.O.O.O.O.O.O.O.O.O.O.>.5   #                                         8 ,.| O.O.O.O.O.O.O.O.O.O.",
"O.O.O.O.O.O.O.O.O.| 4.F   #                                             K 4.| O.O.O.O.O.O.O.O.O.",
"O.O.O.O.O.O.O.O.O.| ,.8                                             #   0 ,.| O.O.O.O.O.O.O.O.O.",
"O.O.O.O.O.O.O.O.| *.^ &                                                 - ^ *.| O.O.O.O.O.O.O.O.",
"O.O.O.O.O.O.O.O.| 4.Z   #                                                 H 4.| O.O.O.O.O.O.O.O.",
"O.O.O.O.O.O.O.O.[ 0.j   #                                             #   k 0.| O.O.O.O.O.O.O.O.",
"O.O.O.O.O.O.O.O.| 0.u   #                                             #   a 0.[ O.O.O.O.O.O.O.O.",
"O.O.O.O.O.O.O.O.[ 8.y                                                 #   u 0.[ O.O.O.O.O.O.O.O.",
"O.O.O.O.O.O.O.O.| 0.d   $                                             $   f 0.| O.O.O.O.O.O.O.O.",
"O.O.O.O.O.O.O.O.[ 9.c   #                                             #   n 8.[ O.O.O.O.O.O.O.O.",
"O.O.O.O.O.O.O.O.O.,.Y         #       #         #       #       #         T ,.| O.O.O.O.O.O.O.O.",
"O.O.O.O.O.O.O.O.O.O.[ <                                                 2 | O.O.O.O.O.O.O.O.O.O.",
"O.O.O.O.O.O.O.O.O.O.%.W I U I Y I I I I Y U U I U U I I U U U U U U I I W %.O.O.O.O.O.O.O.O.O.O.",
"O.O.O.O.O.O.O.O.O.O.O.>.,.4.4.,.4.,.4.4.4.,.,.4.4.4.,.4.,.4.4.,.4.,.4.4.>.O.O.O.O.O.O.O.O.O.O.O.",
"O.O.O.O.O.O.O.O.O.O.O.O.| | | | | | | | | | O.| | | | | | | | | | | | | | O.O.O.O.O.O.O.O.O.O.O.",
"O.O.O.O.O.O.O.O.O.O.O.O.O.O.O.O.O.O.O.O.O.O.O.O.O.O.O.O.O.O.O.O.O.O.O.O.O.O.O.O.O.O.O.O.O.O.O.O.",
"O.O.O.O.O.O.O.O.O.O.O.O.O.O.O.O.O.O.O.O.O.O.O.O.O.O.O.O.O.O.O.O.O.O.O.O.O.O.O.O.O.O.O.O.O.O.O.O."
};
