/* XPM */
static char *pdd__[] = {
/* columns rows colors chars-per-pixel */
"41 41 110 2",
"   c #000500040002",
".  c #00A10074003E",
"X  c #00E000A20056",
"o  c #016F0109008D",
"O  c #01B9013F00AA",
"+  c #024501A400DF",
"@  c #02F902260125",
"#  c #03BE02B40171",
"$  c #04A9035F01CC",
"%  c #053303C20200",
"&  c #05F4044D024A",
"*  c #0791057802EA",
"=  c #07B4059202F7",
"-  c #09DF072303CD",
";  c #0C1F08C404AB",
":  c #0D06096B0503",
">  c #14850ED607E6",
",  c #170B10A908DF",
"<  c #1A3312F10A16",
"1  c #1D2A15160B3A",
"2  c #1E98161E0BC7",
"3  c #21AB18580CF6",
"4  c #24911A700E14",
"5  c #26751BCE0ECE",
"6  c #29C91E361016",
"7  c #310E237712E2",
"8  c #3389254313D7",
"9  c #350526551469",
"0  c #35DB26F014BC",
"q  c #386928C815B8",
"w  c #38E2292115E6",
"e  c #4591324C1AC8",
"r  c #473D33811B6D",
"t  c #4A6935CD1CA5",
"y  c #4E9438D01E40",
"u  c #4F9F39911EA7",
"i  c #509C3A481F08",
"p  c #53343C282008",
"a  c #56C63EBD2168",
"s  c #56CA3EBF2169",
"d  c #5C3742AC2380",
"f  c #5D53437A23EE",
"g  c #5E61443C2455",
"h  c #5F5F44F424B7",
"j  c #61DB46C025AC",
"k  c #65CF499C2732",
"l  c #68B24BB2284E",
"z  c #69374C122881",
"x  c #6A584CE328F1",
"c  c #6C004E152994",
"v  c #6C6E4E6629BE",
"b  c #775C564C2DF3",
"n  c #7BF1599C2FB7",
"m  c #7C6359EE2FE3",
"M  c #7D045A633021",
"N  c #835E5EFB3293",
"B  c #8FFA6818376D",
"V  c #914A690B37EF",
"C  c #923869B7384A",
"Z  c #951E6BD03968",
"A  c #96D56D0D3A11",
"S  c #98146DF43A8C",
"D  c #9BCF70A63BFC",
"F  c #9CA871433C4F",
"G  c #A85379B340CD",
"H  c #A8FD7A2E410F",
"J  c #AA227B01417F",
"K  c #B11D800E442F",
"L  c #B36581B44510",
"P  c #B7BF84D946BD",
"I  c #BAEE872747F7",
"U  c #BB8487934830",
"Y  c #BE9389C9495E",
"T  c #C1008B8A4A4D",
"R  c #C3AB8D784B54",
"E  c #CAE592B14E1C",
"W  c #CD08943D4EEF",
"Q  c #D0C896F35060",
"!  c #D2D2986C5129",
"~  c #D39D98FF5177",
"^  c #D40A994E51A2",
"/  c #D467999151C5",
"(  c #D4CA99D951EB",
")  c #D53C9A2C5217",
"_  c #D5D49A995252",
"`  c #D67D9B145293",
"'  c #D6CF9B4F52B2",
"]  c #D7649BBB52EC",
"[  c #D83F9C585340",
"{  c #D8C99CBD5375",
"}  c #DA569DDC540E",
"|  c #DAED9E495448",
" . c #DBD69EF254A2",
".. c #DC249F2A54C0",
"X. c #DD159FD8551D",
"o. c #DDD8A0655567",
"O. c #DEDDA12255CC",
"+. c #DF23A15555E7",
"@. c #DFDFA1DC562F",
"#. c #E0CDA288568B",
"$. c #E178A30356CD",
"%. c #E19DA31F56DB",
"&. c #E22FA3885713",
"*. c #E2CEA3FB5751",
"=. c #E33CA44B577B",
"-. c #E3A3A49557A2",
";. c #E451A51357E6",
":. c #E465A52157ED",
">. c #E4E3A57C581E",
",. c #EBE8AA8F5AD2",
/* pixels */
"_ _ _ _ _ _ _ _ _ _ _ _ _ _ _ _ _ _ _ _ _ _ _ _ _ _ _ _ _ _ _ _ _ _ _ _ _ _ _ _ _ ",
"_ _ _ _ _ _ _ _ _ _ _ _ _ _ _ _ _ _ _ _ _ _ _ _ _ _ _ _ _ _ _ _ _ _ _ _ _ _ _ _ _ ",
"_ _ _ _ _ _ _ _ _ _ _ _ _ _ _ _ _ _ ! _ _ _ ! _ _ _ _ _ _ _ _ _ _ _ _ _ _ _ _ _ _ ",
"_ _ _ _ _ _ _ _ _ _ _ _ _ _ _ _ _ _ #.@._ @.-.! _ _ _ _ _ _ _ _ _ _ _ _ _ _ _ _ _ ",
"_ _ _ _ _ _ _ _ _ _ _ _ _ _ _ _ _ @.V q 4 q C @._ _ _ _ _ _ _ _ _ _ _ _ _ _ _ _ _ ",
"_ _ _ _ _ _ _ _ _ _ _ _ _ _ _ ! #.z X X X X X z #.! _ _ _ _ _ _ _ _ _ _ _ _ _ _ _ ",
"_ _ _ _ _ _ _ _ _ _ _ _ _ _ ! @.G X X X X X # X G #.! _ _ _ _ _ _ _ _ _ _ _ _ _ _ ",
"_ _ _ _ _ _ _ _ _ _ _ _ _ _ ! :.l X # X X X # X z :.Q _ _ _ _ _ _ _ _ _ _ _ _ _ _ ",
"_ _ _ _ _ _ _ _ _ _ _ _ _ _ ! :.h X X X X X X X h -.! _ _ _ _ _ _ _ _ _ _ _ _ _ _ ",
"_ _ _ _ _ _ _ _ _ _ _ _ _ _ ! -.N X X X X X X X N -.! _ _ _ _ _ _ _ _ _ _ _ _ _ _ ",
"_ _ _ _ _ _ _ _ _ _ _ _ _ _ ! _ [ 8 X X X X X 8 { _ ! _ _ _ _ _ _ _ _ _ _ _ _ _ _ ",
"_ _ _ _ _ _ _ _ _ _ _ _ _ _ _ #.I d X X X X X d I #._ _ _ _ _ _ _ _ _ _ _ _ _ _ _ ",
"_ _ _ _ _ _ _ _ _ _ _ _ _ _ | h X X X X X X X X X h | _ _ _ _ _ _ _ _ _ _ _ _ _ _ ",
"_ _ _ _ _ _ _ _ _ _ _ _ ! #.a X X X X X X X X X X X a @.! _ _ _ _ _ _ _ _ _ _ _ _ ",
"_ _ _ _ _ _ _ _ _ _ _ ! #.F X % X X X X X X X X X # X F #.! _ _ _ _ _ _ _ _ _ _ _ ",
"_ _ _ _ _ _ _ _ _ _ _ ! -.i X X X X X X X X X X X # X i -.! _ _ _ _ _ _ _ _ _ _ _ ",
"_ _ _ _ _ _ _ _ _ _ _ _ | 8 X X X X X X X X X X X X X 7 | _ _ _ _ _ _ _ _ _ _ _ _ ",
"_ _ _ _ _ _ _ _ _ _ _ _ X.0 X X X X X X X X X X X X X 0 X.! _ _ _ _ _ _ _ _ _ _ _ ",
"_ _ _ _ _ _ _ _ _ _ _ ! ;.h X # X X X X X X X X X # X h :.! _ _ _ _ _ _ _ _ _ _ _ ",
"_ _ _ _ _ _ _ _ _ _ _ _ #.J X X X X X X X X X X X X # L @.! _ _ _ _ _ _ _ _ _ _ _ ",
"_ _ _ _ _ _ _ _ _ _ _ _ ! -.b X X X X X X X X X X X M :.Q _ _ _ _ _ _ _ _ _ _ _ _ ",
"_ _ _ _ _ _ _ _ _ _ _ _ _ Q ,.C % X X X X X X X = A ,.Q _ _ _ _ _ _ _ _ _ _ _ _ _ ",
"_ _ _ _ _ _ _ _ _ _ _ ! ! :.G r # X X X X X X X % r G :.! _ _ _ _ _ _ _ _ _ _ _ _ ",
"_ _ _ _ _ _ _ _ _ _ _ _ @.z X X X X X X X X X X X X X v @._ _ _ _ _ _ _ _ _ _ _ _ ",
"_ _ _ _ _ _ _ _ _ _ _ @.y X X X X X X X X X X X X X X X p @.! _ _ _ _ _ _ _ _ _ _ ",
"_ _ _ _ _ _ _ _ _ ! -.j X # X X X X X X X X X X X X X # X k -.! _ _ _ _ _ _ _ _ _ ",
"_ _ _ _ _ _ _ _ ! #.S X X X X X X X X X X X X X X X X X X X D #.! _ _ _ _ _ _ _ _ ",
"_ _ _ _ _ _ _ _ _ _ 5 X X X X X X X X X X X X X X X X X X X 6 _ _ _ _ _ _ _ _ _ _ ",
"_ _ _ _ _ _ _ ! -.C X X X X X X X X X X X X X X X X X X X X X A -.! _ _ _ _ _ _ _ ",
"_ _ _ _ _ _ _ ! #.t X X X X X X X X X X X X X X X X X X X # X y #.! _ _ _ _ _ _ _ ",
"_ _ _ _ _ _ _ _ ! 2 X X X X X X X X X X X X X X X X X X X X X 3 _ _ _ _ _ _ _ _ _ ",
"_ _ _ _ _ _ _ | T = X X X X X X X X X X X X X X X X X X X X X ; R | _ _ _ _ _ _ _ ",
"_ _ _ _ _ _ ! @.P X X X X X X X X X X X X X X X X X X X X X X % I X._ _ _ _ _ _ _ ",
"_ _ _ _ _ _ _ | I % X X X X X X X X X X X X X X X X X X X X X % Y | ! _ _ _ _ _ _ ",
"_ _ _ _ _ _ _ { E > X X X X X X X X X X X X X X X X X X X X X < W { _ _ _ _ _ _ _ ",
"_ _ _ _ _ _ _ ! @.0 X X X X X X X X X X X X X X X X X X X X X q @.! _ _ _ _ _ _ _ ",
"_ _ _ _ _ _ _ ! -.M : 2 < < < < < < < < < < < < < < < < < 1 : M #.! _ _ _ _ _ _ _ ",
"_ _ _ _ _ _ _ _ _ _ Q Q Q Q Q Q Q Q Q Q Q Q Q Q Q Q Q Q Q Q Q _ _ _ _ _ _ _ _ _ _ ",
"_ _ _ _ _ _ _ _ _ _ _ _ { _ _ _ _ _ { _ { _ _ _ _ _ _ [ _ _ { _ _ _ _ _ _ _ _ _ _ ",
"_ _ _ _ _ _ _ _ _ _ _ _ _ _ _ _ _ _ _ _ _ _ _ _ _ _ _ _ _ _ _ _ _ _ _ _ _ _ _ _ _ ",
"_ _ _ _ _ _ _ _ _ _ _ _ _ _ _ _ _ _ _ _ _ _ _ _ _ _ _ _ _ _ _ _ _ _ _ _ _ _ _ _ _ "
};
