/* XPM */
static char *pdd__[] = {
/* columns rows colors chars-per-pixel */
"64 64 147 2",
"   c #000200010001",
".  c #009F0073003D",
"X  c #010900C00066",
"o  c #0171010B008E",
"O  c #01D4015200B4",
"+  c #024901A700E1",
"@  c #0318023C0131",
"#  c #03B102AB016C",
"$  c #041502F40192",
"%  c #04C0036F01D4",
"&  c #050703A301F0",
"*  c #06B404D80295",
"=  c #07F605C10310",
"-  c #097906D903A6",
";  c #0A31075E03EC",
":  c #0A6C07880403",
">  c #0BEE08A00497",
",  c #14570EB507D4",
"<  c #14E30F1A080A",
"1  c #16FF10A008DA",
"2  c #180F11650943",
"3  c #1923122D09AE",
"4  c #1B09138C0A69",
"5  c #1B20139C0A71",
"6  c #1B8813E80A99",
"7  c #1BC214110AAF",
"8  c #1D6915430B52",
"9  c #1DEF15A50B86",
"0  c #1F7016BB0C1A",
"q  c #204017510C6B",
"w  c #25281ADD0E4E",
"e  c #26221B920EAE",
"r  c #26711BCB0ECC",
"t  c #29721DF70FF4",
"y  c #2B311F3A10A1",
"u  c #2CFC20861151",
"i  c #2D5F20CE1177",
"p  c #2F73224E1244",
"a  c #305522F2129B",
"s  c #325E246A1363",
"d  c #331624EF13AB",
"f  c #354E268A1486",
"g  c #374E27FC154B",
"h  c #391F294C15FD",
"j  c #3E8C2D391814",
"k  c #490634CC1C1D",
"l  c #4A1635901C85",
"z  c #4B1336471CE7",
"x  c #4CF837A71DA2",
"c  c #4F9439891EA3",
"v  c #502439F11EDA",
"b  c #51B03B0F1F72",
"n  c #545F3D00207B",
"m  c #59E84100229D",
"M  c #5A41414122BF",
"N  c #5E1844082439",
"B  c #6127463E2567",
"V  c #626E472A25E5",
"C  c #677A4AD027D6",
"Z  c #69004BEB286C",
"A  c #6DBB4F562A3E",
"S  c #6F8750A22AEF",
"D  c #726D52BB2C0D",
"F  c #72E0530E2C39",
"G  c #758C54FD2D41",
"H  c #798757DE2EC9",
"J  c #7C8D5A0C2FF3",
"K  c #7DF15B0F307C",
"L  c #7FD95C6E3138",
"P  c #86A7615A33D7",
"I  c #887662AA3489",
"U  c #88D762EF34AE",
"Y  c #8C9065A1361D",
"T  c #8EC2673736F5",
"R  c #8F6E67B43738",
"E  c #90DF68BE37C5",
"W  c #918669373806",
"Q  c #945A6B43391D",
"!  c #95BF6C4539A6",
"~  c #9A256F733B58",
"^  c #9CBA71503C56",
"/  c #A1B874ED3E42",
"(  c #A1E8750F3E55",
")  c #A254755D3E7E",
"_  c #A60E780F3FEE",
"`  c #AD847D7342CD",
"'  c #B1F680AB4483",
"]  c #B2D8814E44DA",
"[  c #B5A0835145EC",
"{  c #B64F83CF462F",
"}  c #B873855C4702",
"|  c #BAA586F247DA",
" . c #BB5A87754820",
".. c #BD6988F148EA",
"X. c #BD8E890C48F9",
"o. c #BEFE8A164987",
"O. c #C0DA8B6F4A3E",
"+. c #C19F8BFD4A8A",
"@. c #C1F18C394AAA",
"#. c #C2D98CE04B03",
"$. c #C3CC8D904B61",
"%. c #C4C78E464BC1",
"&. c #C5478EA24BF2",
"*. c #CB3092E84E39",
"=. c #CBF593764E85",
"-. c #CDD294D04F3D",
";. c #CE3B951B4F65",
":. c #CECC95844F9C",
">. c #CF5E95ED4FD5",
",. c #D117972C507E",
"<. c #D1BE97A550BF",
"1. c #D251980F50F7",
"2. c #D2BF985F5122",
"3. c #D37898E55169",
"4. c #D3FD9945519C",
"5. c #D46F999751C8",
"6. c #D4DD99E751F2",
"7. c #D5379A285215",
"8. c #D5D59A9A5252",
"9. c #D65F9AFE5287",
"0. c #D6D69B5452B5",
"q. c #D74D9BAA52E3",
"w. c #D7BA9BF9530D",
"e. c #D8059C2F532A",
"r. c #D8CB9CBE5376",
"t. c #D94F9D1E53A9",
"y. c #DA279DBA53FC",
"u. c #DA769DF3541A",
"i. c #DB149E655457",
"p. c #DBBB9EDE5497",
"a. c #DC449F4154CC",
"s. c #DCEE9FBC550D",
"d. c #DD70A01A5540",
"f. c #DDF1A0775571",
"g. c #DE9DA0F355B4",
"h. c #DEE1A12555CE",
"j. c #DFC4A1C85625",
"k. c #E04EA22C565A",
"l. c #E0F2A2A35699",
"z. c #E191A31656D6",
"x. c #E1E1A35056F5",
"c. c #E2C8A3F6574E",
"v. c #E32AA43E5774",
"b. c #E3AFA49E57A7",
"n. c #E458A51857E8",
"m. c #E4CBA56B5815",
"M. c #EB19A9FA5A82",
/* pixels */
"8.8.8.8.8.8.8.8.8.8.8.8.8.8.8.8.8.8.8.8.8.8.8.8.8.8.8.8.8.8.8.8.8.8.8.8.8.8.8.8.8.8.8.8.8.8.8.8.8.8.8.8.8.8.8.8.8.8.8.8.8.8.8.8.",
"8.8.8.8.8.8.8.8.8.8.8.8.8.8.8.8.8.8.8.8.8.8.8.8.8.8.8.8.8.8.8.8.8.8.8.8.8.8.8.8.8.8.8.8.8.8.8.8.8.8.8.8.8.8.8.8.8.8.8.8.8.8.8.8.",
"8.8.8.8.8.8.8.8.8.8.8.8.8.8.8.8.8.8.8.8.8.8.8.8.8.8.8.8.8.8.8.8.8.8.8.8.8.8.8.8.8.8.8.8.8.8.8.8.8.8.8.8.8.8.8.8.8.8.8.8.8.8.8.8.",
"8.8.8.8.8.8.8.8.8.8.8.8.8.8.8.8.8.8.8.8.8.8.8.8.8.8.8.8.8.8.8.8.8.8.8.8.8.8.8.8.8.8.8.8.8.8.8.8.8.8.8.8.8.8.8.8.8.8.8.8.8.8.8.8.",
"8.8.8.8.8.8.8.8.8.8.8.8.8.8.8.8.8.8.8.8.8.8.8.8.8.8.8.8.8.4.4.4.4.,.4.8.8.8.8.8.8.8.8.8.8.8.8.8.8.8.8.8.8.8.8.8.8.8.8.8.8.8.8.8.",
"8.8.8.8.8.8.8.8.8.8.8.8.8.8.8.8.8.8.8.8.8.8.8.8.8.8.8.8.,.a.m.m.m.c.a.4.8.8.8.8.8.8.8.8.8.8.8.8.8.8.8.8.8.8.8.8.8.8.8.8.8.8.8.8.",
"8.8.8.8.8.8.8.8.8.8.8.8.8.8.8.8.8.8.8.8.8.8.8.8.8.8.8.8.v.#.P Z Z I #.m.8.8.8.8.8.8.8.8.8.8.8.8.8.8.8.8.8.8.8.8.8.8.8.8.8.8.8.8.",
"8.8.8.8.8.8.8.8.8.8.8.8.8.8.8.8.8.8.8.8.8.8.8.8.8.4.8.s.S -         - D s.8.4.8.8.8.8.8.8.8.8.8.8.8.8.8.8.8.8.8.8.8.8.8.8.8.8.8.",
"8.8.8.8.8.8.8.8.8.8.8.8.8.8.8.8.8.8.8.8.8.8.8.8.8.8.j.n   $ $ & $       n j.4.8.8.8.8.8.8.8.8.8.8.8.8.8.8.8.8.8.8.8.8.8.8.8.8.8.",
"8.8.8.8.8.8.8.8.8.8.8.8.8.8.8.8.8.8.8.8.8.8.8.8.4.m.H   &           $ &   L v.4.8.8.8.8.8.8.8.8.8.8.8.8.8.8.8.8.8.8.8.8.8.8.8.8.",
"8.8.8.8.8.8.8.8.8.8.8.8.8.8.8.8.8.8.8.8.8.8.8.8.8.;.7                     7 ;.8.8.8.8.8.8.8.8.8.8.8.8.8.8.8.8.8.8.8.8.8.8.8.8.8.",
"8.8.8.8.8.8.8.8.8.8.8.8.8.8.8.8.8.8.8.8.8.8.8.4.c./                         / c.4.8.8.8.8.8.8.8.8.8.8.8.8.8.8.8.8.8.8.8.8.8.8.8.",
"8.8.8.8.8.8.8.8.8.8.8.8.8.8.8.8.8.8.8.8.8.8.8.4.v.I                     $   P v.,.8.8.8.8.8.8.8.8.8.8.8.8.8.8.8.8.8.8.8.8.8.8.8.",
"8.8.8.8.8.8.8.8.8.8.8.8.8.8.8.8.8.8.8.8.8.8.8.,.c.Y   $                     Y c.,.8.8.8.8.8.8.8.8.8.8.8.8.8.8.8.8.8.8.8.8.8.8.8.",
"8.8.8.8.8.8.8.8.8.8.8.8.8.8.8.8.8.8.8.8.8.8.8.4.j.`                         ` j.4.8.8.8.8.8.8.8.8.8.8.8.8.8.8.8.8.8.8.8.8.8.8.8.",
"8.8.8.8.8.8.8.8.8.8.8.8.8.8.8.8.8.8.8.8.8.8.8.8.8.t.a                 $   s a.8.8.8.8.8.8.8.8.8.8.8.8.8.8.8.8.8.8.8.8.8.8.8.8.8.",
"8.8.8.8.8.8.8.8.8.8.8.8.8.8.8.8.8.8.8.8.8.8.8.8.,.s./                     / a.4.8.8.8.8.8.8.8.8.8.8.8.8.8.8.8.8.8.8.8.8.8.8.8.8.",
"8.8.8.8.8.8.8.8.8.8.8.8.8.8.8.8.8.8.8.8.8.8.8.4.8.c.M.J                 J M.c.8.4.8.8.8.8.8.8.8.8.8.8.8.8.8.8.8.8.8.8.8.8.8.8.8.",
"8.8.8.8.8.8.8.8.8.8.8.8.8.8.8.8.8.8.8.8.8.8.4.a.t.P d 1 $               , s P t.a.4.8.8.8.8.8.8.8.8.8.8.8.8.8.8.8.8.8.8.8.8.8.8.",
"8.8.8.8.8.8.8.8.8.8.8.8.8.8.8.8.8.8.8.8.8.4.j...p                             p ..j.4.8.8.8.8.8.8.8.8.8.8.8.8.8.8.8.8.8.8.8.8.8.",
"8.8.8.8.8.8.8.8.8.8.8.8.8.8.8.8.8.8.8.8.4.j.} ,   $                       $ $   , } j.,.8.8.8.8.8.8.8.8.8.8.8.8.8.8.8.8.8.8.8.8.",
"8.8.8.8.8.8.8.8.8.8.8.8.8.8.8.8.8.8.8.4.8.,.e   $                             $   e ,.8.8.8.8.8.8.8.8.8.8.8.8.8.8.8.8.8.8.8.8.8.",
"8.8.8.8.8.8.8.8.8.8.8.8.8.8.8.8.8.8.8.4.m.A   $                                 $   S n.4.8.8.8.8.8.8.8.8.8.8.8.8.8.8.8.8.8.8.8.",
"8.8.8.8.8.8.8.8.8.8.8.8.8.8.8.8.8.8.8.e.>.7                                         7 ;.8.8.8.8.8.8.8.8.8.8.8.8.8.8.8.8.8.8.8.8.",
"8.8.8.8.8.8.8.8.8.8.8.8.8.8.8.8.8.8.4.j._                                             _ j.4.8.8.8.8.8.8.8.8.8.8.8.8.8.8.8.8.8.8.",
"8.8.8.8.8.8.8.8.8.8.8.8.8.8.8.8.8.8.4.v.P   $                                         Y v.4.8.8.8.8.8.8.8.8.8.8.8.8.8.8.8.8.8.8.",
"8.8.8.8.8.8.8.8.8.8.8.8.8.8.8.8.8.8.,.m.P   $                                     $   P m.,.8.8.8.8.8.8.8.8.8.8.8.8.8.8.8.8.8.8.",
"8.8.8.8.8.8.8.8.8.8.8.8.8.8.8.8.8.8.4.c.E                                             Y c.4.8.8.8.8.8.8.8.8.8.8.8.8.8.8.8.8.8.8.",
"8.8.8.8.8.8.8.8.8.8.8.8.8.8.8.8.8.8.4.j.`                                             ' j.4.8.8.8.8.8.8.8.8.8.8.8.8.8.8.8.8.8.8.",
"8.8.8.8.8.8.8.8.8.8.8.8.8.8.8.8.8.8.8.8.a.p                                         s a.4.8.8.8.8.8.8.8.8.8.8.8.8.8.8.8.8.8.8.8.",
"8.8.8.8.8.8.8.8.8.8.8.8.8.8.8.8.8.8.8.,.c.Y   $                                 $   R c.4.8.8.8.8.8.8.8.8.8.8.8.8.8.8.8.8.8.8.8.",
"8.8.8.8.8.8.8.8.8.8.8.8.8.8.8.8.8.8.8.8.4.j.k   &                             =   v j.4.8.8.8.8.8.8.8.8.8.8.8.8.8.8.8.8.8.8.8.8.",
"8.8.8.8.8.8.8.8.8.8.8.8.8.8.8.8.8.8.8.8.8.t.4.g                                 j 8.8.8.8.8.8.8.8.8.8.8.8.8.8.8.8.8.8.8.8.8.8.8.",
"8.8.8.8.8.8.8.8.8.8.8.8.8.8.8.8.8.8.8.8.8.4.8.t.D :                         > H a.8.4.8.8.8.8.8.8.8.8.8.8.8.8.8.8.8.8.8.8.8.8.8.",
"8.8.8.8.8.8.8.8.8.8.8.8.8.8.8.8.8.8.8.8.4.4.c.8.E 3                         7 Q 8.c.4.8.8.8.8.8.8.8.8.8.8.8.8.8.8.8.8.8.8.8.8.8.",
"8.8.8.8.8.8.8.8.8.8.8.8.8.8.8.8.8.8.8.4.8.c.E q                                 q Q c.e.4.8.8.8.8.8.8.8.8.8.8.8.8.8.8.8.8.8.8.8.",
"8.8.8.8.8.8.8.8.8.8.8.8.8.8.8.8.8.8.4.a.,.k                                   $     v 4.a.4.8.8.8.8.8.8.8.8.8.8.8.8.8.8.8.8.8.8.",
"8.8.8.8.8.8.8.8.8.8.8.8.8.8.8.8.8.4.j.O.r   &                                     $   y #.s.4.8.8.8.8.8.8.8.8.8.8.8.8.8.8.8.8.8.",
"8.8.8.8.8.8.8.8.8.8.8.8.8.8.8.8.4.j.O.5   &                                         $   0 %.a.4.8.8.8.8.8.8.8.8.8.8.8.8.8.8.8.8.",
"8.8.8.8.8.8.8.8.8.8.8.8.8.8.8.4.8.;.r   &                                             $   y 4.t.4.8.8.8.8.8.8.8.8.8.8.8.8.8.8.8.",
"8.8.8.8.8.8.8.8.8.8.8.8.8.8.8.4.c.k   &                                                 $   v v.4.8.8.8.8.8.8.8.8.8.8.8.8.8.8.8.",
"8.8.8.8.8.8.8.8.8.8.8.8.8.8.4.v.I   &                                                     &   Y c.4.8.8.8.8.8.8.8.8.8.8.8.8.8.8.",
"8.8.8.8.8.8.8.8.8.8.8.8.8.4.t.*.3                                                             7 ;.8.4.8.8.8.8.8.8.8.8.8.8.8.8.8.",
"8.8.8.8.8.8.8.8.8.8.8.8.8.4.v.D                                                             &   H m.4.8.8.8.8.8.8.8.8.8.8.8.8.8.",
"8.8.8.8.8.8.8.8.8.8.8.8.8.8.,.q                                                             $   e 8.8.8.8.8.8.8.8.8.8.8.8.8.8.8.",
"8.8.8.8.8.8.8.8.8.8.8.8.4.c.^                                                                     / j.4.8.8.8.8.8.8.8.8.8.8.8.8.",
"8.8.8.8.8.8.8.8.8.8.8.8.,.m.V   &                                                             &   C m.,.8.8.8.8.8.8.8.8.8.8.8.8.",
"8.8.8.8.8.8.8.8.8.8.8.8.4.s.f   $                                                                 h j.8.8.8.8.8.8.8.8.8.8.8.8.8.",
"8.8.8.8.8.8.8.8.8.8.8.8.8.;.1   $                                                             $   7 ,.8.8.8.8.8.8.8.8.8.8.8.8.8.",
"8.8.8.8.8.8.8.8.8.8.8.4.a...=                                                                     > #.a.8.8.8.8.8.8.8.8.8.8.8.8.",
"8.8.8.8.8.8.8.8.8.8.8.8.s.}                                                                       &  .a.4.8.8.8.8.8.8.8.8.8.8.8.",
"8.8.8.8.8.8.8.8.8.8.8.4.s.}                                                                       $  .a.4.8.8.8.8.8.8.8.8.8.8.8.",
"8.8.8.8.8.8.8.8.8.8.8.4.a...&                                                                     : #.a.4.8.8.8.8.8.8.8.8.8.8.8.",
"8.8.8.8.8.8.8.8.8.8.8.8.e.*.1                                                                     3 >.8.8.8.8.8.8.8.8.8.8.8.8.8.",
"8.8.8.8.8.8.8.8.8.8.8.8.8.a.a   $                                                             $   f s.4.8.8.8.8.8.8.8.8.8.8.8.8.",
"8.8.8.8.8.8.8.8.8.8.8.8.,.m.N   & $ $   $ $ &   $   & $ $   & $ $ &   $ &   $ &   $ $ $ &   $ &   V m.4.8.8.8.8.8.8.8.8.8.8.8.8.",
"8.8.8.8.8.8.8.8.8.8.8.8.4.c.~                                                                     ^ j.4.8.8.8.8.8.8.8.8.8.8.8.8.",
"8.8.8.8.8.8.8.8.8.8.8.8.4.8.;.M c v v c c c c c c c c c c c v v v v c c c c c c c v c c c c c c M ;.8.4.8.8.8.8.8.8.8.8.8.8.8.8.",
"8.8.8.8.8.8.8.8.8.8.8.8.8.8.8.v.v.v.v.v.v.c.v.v.v.v.v.v.v.v.v.v.v.c.v.v.v.v.v.v.v.v.v.v.v.c.v.v.v.8.8.8.8.8.8.8.8.8.8.8.8.8.8.8.",
"8.8.8.8.8.8.8.8.8.8.8.8.8.8.8.4.,.4.4.,.4.4.4.,.4.4.4.,.4.4.,.4.4.4.4.,.4.,.4.4.,.4.4.4.4.4.4.,.4.8.8.8.8.8.8.8.8.8.8.8.8.8.8.8.",
"8.8.8.8.8.8.8.8.8.8.8.8.8.8.8.8.8.8.8.8.8.8.8.8.8.8.8.8.8.8.8.8.8.8.8.8.8.8.8.8.8.8.8.8.8.8.8.8.8.8.8.8.8.8.8.8.8.8.8.8.8.8.8.8.",
"8.8.8.8.8.8.8.8.8.8.8.8.8.8.8.8.8.8.8.8.8.8.8.8.8.8.8.8.8.8.8.8.8.8.8.8.8.8.8.8.8.8.8.8.8.8.8.8.8.8.8.8.8.8.8.8.8.8.8.8.8.8.8.8.",
"8.8.8.8.8.8.8.8.8.8.8.8.8.8.8.8.8.8.8.8.8.8.8.8.8.8.8.8.8.8.8.8.8.8.8.8.8.8.8.8.8.8.8.8.8.8.8.8.8.8.8.8.8.8.8.8.8.8.8.8.8.8.8.8.",
"8.8.8.8.8.8.8.8.8.8.8.8.8.8.8.8.8.8.8.8.8.8.8.8.8.8.8.8.8.8.8.8.8.8.8.8.8.8.8.8.8.8.8.8.8.8.8.8.8.8.8.8.8.8.8.8.8.8.8.8.8.8.8.8."
};
