/* XPM */
static char *pdl__[] = {
/* columns rows colors chars-per-pixel */
"21 21 77 1",
"  c #000600040003",
". c #009900720043",
"X c #00D0009B005B",
"o c #01640109009C",
"O c #01AA013D00BB",
"+ c #02C0020D0135",
"@ c #037602940184",
"# c #03C102CC01A5",
"$ c #051A03CD023C",
"% c #05FC0475029F",
"& c #067904D202D6",
"* c #09CD074C044C",
"= c #0B830893050C",
"- c #0C7C094C0579",
"; c #14570F2608EA",
": c #15DA10460994",
"> c #17AC11A10A61",
", c #195D12E30B1D",
"< c #1B57145C0BFB",
"1 c #1CA115520C8C",
"2 c #1CA215520C8D",
"3 c #1D7315EE0CE8",
"4 c #1DED16490D1D",
"5 c #60CB48152A6D",
"6 c #627A49552B2A",
"7 c #62F949B42B61",
"8 c #67FD4D702D94",
"9 c #82A8614C3944",
"0 c #83A3620739B2",
"q c #8514631A3A54",
"w c #85FE63C83ABB",
"e c #863063ED3AD0",
"r c #8874659D3BCF",
"t c #8F066A823EB0",
"y c #912E6C1D3FA2",
"u c #9E4F75E44563",
"i c #A020773E462F",
"p c #A28B790B473E",
"a c #A4C87AB64839",
"s c #AD4F810E4BF6",
"d c #B417861C4EEF",
"f c #BA238A9D5195",
"g c #C0688F485455",
"h c #C1478FEE54B6",
"j c #CAFB972858F8",
"k c #CB7B9787592F",
"l c #DC02A3D6606E",
"z c #DCF5A48B60D8",
"x c #E743AC38655D",
"c c #E7E8ACB365A5",
"v c #E870AD1765E1",
"b c #E8F9AD7E661D",
"n c #E9D4AE20667D",
"m c #EA27AE5F66A1",
"M c #EA8BAEA966CD",
"N c #EAF6AEF966FC",
"B c #EB4CAF396721",
"V c #EBEBAFAF6767",
"C c #ECCDB05767CA",
"Z c #ED22B09767EF",
"A c #ED8BB0E5681D",
"S c #EE29B15A6862",
"D c #EFD2B297691D",
"F c #F347B52A6AA1",
"G c #F537B69B6B7A",
"H c #F5BBB6FD6BB4",
"J c #F630B7546BE7",
"K c #F646B7656BF1",
"L c #F73AB81A6C5C",
"P c #F7F2B8A46CAD",
"I c #F9D4BA0B6D80",
"U c #FA6EBA7D6DC3",
"Y c #FB4ABB216E24",
"T c #FB78BB436E38",
"R c #FBEFBB9C6E6C",
"E c #FC8BBC106EB0",
"W c #FF54BE246FE9",
/* pixels */
"VVVVVVVVVcVcVVVVVVVVV",
"VVVVVVVVDPDIDVVVVVVVV",
"VVVVVVVCV5<5VVVVVVVVV",
"VVVVVVcI9 % 9IxVVVVVV",
"VVVVVVVI8 - 8IcVVVVVV",
"VVVVVVcWf   fWcVVVVVV",
"VVVVVVGs1   1sLVVVVVV",
"VVVVVDl:     :lDVVVVV",
"VVVVVLd %   % dIcVVVV",
"VVVVVFk%     %kFVVVVV",
"VVVVVxGw     wGVVVVVV",
"VVVVVVPu- # -uLVVVVVV",
"VVVVVG5 #     5PVVVVV",
"VVVxI9 %     % wIcVVV",
"VVVDz;         :zDVVV",
"VVcPp %         pIcVV",
"VVxIe %   # # % rWxVV",
"VVVIt #         uIxVV",
"VVVFf:111111111,fFVVV",
"VVVVFVxVxcxxVccVVVVVV",
"VVVVVCDVDVCDCVDCVVVVV"
};
