/* XPM */
static char *pdl__[] = {
/* columns rows colors chars-per-pixel */
"34 34 105 2",
"   c #000300020001",
".  c #00A9007E004A",
"X  c #00D900A1005F",
"o  c #015600FF0096",
"O  c #01CE015800CA",
"+  c #0229019B00F2",
"@  c #02D7021E013F",
"#  c #036A028B017F",
"$  c #03B202C1019F",
"%  c #04A103720207",
"&  c #04DE03A00222",
"*  c #059A042C0275",
"=  c #065604B802C7",
"-  c #077A05910347",
";  c #0AA907F104AC",
":  c #0C0F08FB0549",
">  c #0DE40A590617",
",  c #1B5B145F0BFE",
"<  c #1D4315CA0CD3",
"1  c #20A718500E50",
"2  c #237F1A6F0F8F",
"3  c #25E31C37109B",
"4  c #28641E1411B4",
"5  c #2C442106136F",
"6  c #348A27201707",
"7  c #34C12749171F",
"8  c #35AB27F71786",
"9  c #3D2D2D8F1AD0",
"0  c #3FE62F961C02",
"q  c #407630001C41",
"w  c #426731731D1B",
"e  c #59A342C02749",
"r  c #59B442CD2751",
"t  c #5ABD439227C5",
"y  c #5AE243AE27D5",
"u  c #5B5244012805",
"i  c #5DCD45DA291D",
"p  c #5E79465A2968",
"a  c #5EEB46AF299A",
"s  c #5F8B472629E0",
"d  c #61C148CC2AD8",
"f  c #6E2752073047",
"g  c #70BA53F23168",
"h  c #7449569932F8",
"j  c #79685A693537",
"k  c #7D585D5736F0",
"l  c #85C2639B3AA0",
"z  c #874664BC3B4A",
"x  c #8830656A3BB1",
"c  c #8BEE68343D54",
"v  c #8EBC6A4B3E8F",
"b  c #95F76FAE41BA",
"n  c #997E724D4347",
"m  c #9DC4757C4526",
"M  c #9F8076C745E9",
"N  c #9FD67707460E",
"B  c #A1E5788F46F5",
"V  c #A2D879444760",
"C  c #A4BF7AAF4835",
"Z  c #A6207BB648D0",
"A  c #A6C87C334919",
"S  c #AC2380304B72",
"D  c #AF9482C04CF5",
"F  c #B866895250D2",
"G  c #B96D8A155146",
"H  c #C9BF963D586D",
"J  c #D740A04B5E58",
"K  c #D75EA0615E65",
"L  c #DA4AA28E5FAD",
"P  c #DBC8A3AB6054",
"I  c #DE26A56E615E",
"U  c #DEBBA5DD619F",
"Y  c #E07AA72A6263",
"T  c #E5BAAB1364B0",
"R  c #E815ACD465B9",
"E  c #E871AD1965E1",
"W  c #E8F2AD80661E",
"Q  c #E97EADE16657",
"!  c #EA09AE486694",
"~  c #EAA9AEBF66DA",
"^  c #EB10AF0C6707",
"/  c #EB53AF3C6723",
"(  c #EBEBAFAF6767",
")  c #ED5BB0C16808",
"_  c #EDCDB116683A",
"`  c #EE1FB153685E",
"'  c #F013B2C76939",
"]  c #F091B3256971",
"[  c #F0FDB37569A0",
"{  c #F19BB3EB69E5",
"}  c #F1C3B40969F7",
"|  c #F350B5326AA5",
" . c #F3A0B56D6AC8",
".. c #F657B7726BF9",
"X. c #F756B8306C68",
"o. c #F7C6B8836C99",
"O. c #F8B7B9376D03",
"+. c #F8F5B9656D1E",
"@. c #FA0FBA376D9A",
"#. c #FA2BBA4C6DA6",
"$. c #FB79BB456E38",
"%. c #FBBDBB776E56",
"&. c #FCBFBC376EC7",
"*. c #FCCEBC426ECE",
"=. c #FD90BCD36F23",
/* pixels */
"( ( ( ( ( ( ( ( ( ( ( ( ( ( ( ( ( ( ( ( ( ( ( ( ( ( ( ( ( ( ( ( ( ( ",
"( ( ( ( ( ( ( ( ( ( ( ( ( ( ( ( R R R ( ( ( ( ( ( ( ( ( ( ( ( ( ( ( ",
"( ( ( ( ( ( ( ( ( ( ( ( ( ( R ..*.*...R ( ( ( ( ( ( ( ( ( ( ( ( ( ( ",
"( ( ( ( ( ( ( ( ( ( ( ( ( ( ..F f f G X.( ( ( ( ( ( ( ( ( ( ( ( ( ( ",
"( ( ( ( ( ( ( ( ( ( ( ( ( O.l         x O.( ( ( ( ( ( ( ( ( ( ( ( ( ",
"( ( ( ( ( ( ( ( ( ( ( ( } H =   = =   - H } ( ( ( ( ( ( ( ( ( ( ( ( ",
"( ( ( ( ( ( ( ( ( ( ( R O.b   =     $   b O.( ( ( ( ( ( ( ( ( ( ( ( ",
"( ( ( ( ( ( ( ( ( ( ( ( O.B             N O.( ( ( ( ( ( ( ( ( ( ( ( ",
"( ( ( ( ( ( ( ( ( ( ( ( ( R 5     $   5 R ( ( ( ( ( ( ( ( ( ( ( ( ( ",
"( ( ( ( ( ( ( ( ( ( ( ( o.P s   $     d L X.R ( ( ( ( ( ( ( ( ( ( ( ",
"( ( ( ( ( ( ( ( ( ( R o.v =             = v O.( ( ( ( ( ( ( ( ( ( ( ",
"( ( ( ( ( ( ( ( ( ( O.C   $                 C O.R ( ( ( ( ( ( ( ( ( ",
"( ( ( ( ( ( ( ( ( ( [ 7   $             =   7 [ R ( ( ( ( ( ( ( ( ( ",
"( ( ( ( ( ( ( ( ( ` K >                     > K ` ( ( ( ( ( ( ( ( ( ",
"( ( ( ( ( ( ( ( ( ` J >                     > K [ ( ( ( ( ( ( ( ( ( ",
"( ( ( ( ( ( ( ( ( ( ` 7   $             $   8 ` ( ( ( ( ( ( ( ( ( ( ",
"( ( ( ( ( ( ( ( ( R O.V                     C O.( ( ( ( ( ( ( ( ( ( ",
"( ( ( ( ( ( ( ( ( ( ( O.n >             > N o.R ( ( ( ( ( ( ( ( ( ( ",
"( ( ( ( ( ( ( ( ( ( [ } C <             1 A } [ R ( ( ( ( ( ( ( ( ( ",
"( ( ( ( ( ( ( ( R } I q                     w Y } ( ( ( ( ( ( ( ( ( ",
"( ( ( ( ( ( ( ( [ P 3   =                 =   4 I [ ( ( ( ( ( ( ( ( ",
"( ( ( ( ( ( ( ( [ 9   =                     =   0 ` ( ( ( ( ( ( ( ( ",
"( ( ( ( ( ( ( O.x   $                         =   c O.( ( ( ( ( ( ( ",
"( ( ( ( ( ( ` R 1                                 1 R ( ( ( ( ( ( ( ",
"( ( ( ( ( R X.A                                     D O.( ( ( ( ( ( ",
"( ( ( ( ( R *.j   $                             =   k *.R ( ( ( ( ( ",
"( ( ( ( ( R *.s   $                             $   d *.R ( ( ( ( ( ",
"( ( ( ( ( ( O.u   $                             $   s O.R ( ( ( ( ( ",
"( ( ( ( ( R O.g   - = $ $ $ $ $ $ $ $   $ $ $ $ -   h *.R ( ( ( ( ( ",
"( ( ( ( ( ( O.N                                     V O.( ( ( ( ( ( ",
"( ( ( ( ( ( [ P s e u u y y u u u u s e s e e s u s P ` ( ( ( ( ( ( ",
"( ( ( ( ( ( ( ` *.*.O.&.*.O.&.*.O.&.*.O.O.&.O.*.*.O.( ( ( ( ( ( ( ( ",
"( ( ( ( ( ( ( ( R R R R R ( R R R R R R R R R R ( R ( ( ( ( ( ( ( ( ",
"( ( ( ( ( ( ( ( ( ( ( ( ( ( ( ( ( ( ( ( ( ( ( ( ( ( ( ( ( ( ( ( ( ( "
};
