/* XPM */
static char *pdl__[] = {
/* columns rows colors chars-per-pixel */
"30 30 97 2",
"   c #000600040003",
".  c #0090006C0040",
"X  c #010900C50074",
"o  c #0166010A009D",
"O  c #01AC013F00BC",
"+  c #026101C5010B",
"@  c #02F20232014B",
"#  c #03DC02E001B1",
"$  c #04DE039F0222",
"%  c #0CB609770592",
"&  c #0E380A96063B",
"*  c #0EDA0B0E0682",
"=  c #12F90E210851",
"-  c #13900E910893",
";  c #182311FA0A94",
":  c #18CB12760ADE",
">  c #1AF714140BD1",
",  c #283B1DF611A3",
"<  c #3BFF2CAD1A4C",
"1  c #3D4B2DA51ADD",
"2  c #3DC32DFE1B12",
"3  c #404B2FE11C2E",
"4  c #48C536311FE5",
"5  c #4B54380E20FE",
"6  c #4E5E3A49224E",
"7  c #6C7650C52F8A",
"8  c #6CEC511C2FBD",
"9  c #6D4D51652FE8",
"0  c #6E3B52173051",
"q  c #7565576D3375",
"w  c #75EA584533F4",
"e  c #76BC586C340B",
"r  c #798A5A823545",
"t  c #7A095AE0357D",
"y  c #7AC05B6935CD",
"u  c #7CA75CD336A2",
"i  c #7D345D3C36E0",
"p  c #7E2E5DF7374E",
"a  c #80005F51381A",
"s  c #94A76EB34127",
"d  c #97EA71214295",
"f  c #9A91731A43BF",
"g  c #9D60753244FA",
"h  c #AEE8823F4CA9",
"j  c #B38C85B54EB2",
"k  c #B67387DE4FF8",
"l  c #B800890650A6",
"z  c #BDF48D755342",
"x  c #BEA38DF7538E",
"c  c #BF7F8E9B53EF",
"v  c #C4C09284563C",
"b  c #C769947F5767",
"n  c #CE2599835A5A",
"m  c #CF259A425ACA",
"M  c #D8DDA17E5F0E",
"N  c #D9B2A21D5F6B",
"B  c #D9DDA23D5F7E",
"V  c #DCC3A46660C2",
"C  c #DD31A4B760F2",
"Z  c #E17EA7EC62D5",
"A  c #E3F4A9C163EA",
"S  c #E611AB5364D6",
"D  c #E66BAB8164F1",
"F  c #E806ACC965B2",
"G  c #E872AD1A65E1",
"H  c #E87DAD2165E6",
"J  c #E8E8AD716615",
"K  c #E98FADEE665E",
"L  c #EA35AE6866A6",
"P  c #EAA3AEBA66D7",
"I  c #EB16AF10670A",
"U  c #EB4CAF386721",
"Y  c #EBEBAFAF6767",
"T  c #ECE3B07867DE",
"R  c #ED41B0AE67FD",
"E  c #EDBBB1096832",
"W  c #EE09B17A6875",
"Q  c #EE96B1AB6892",
"!  c #F03FB2F36953",
"~  c #F09CB32D6975",
"^  c #F2C0B4C66A66",
"/  c #F387B55A6ABD",
"(  c #F427B5D16B03",
")  c #F481B6146B2A",
"_  c #F4B8B63D6B43",
"`  c #F5BFB7016BB6",
"'  c #F742B8216C60",
"]  c #F812B8BC6CBB",
"[  c #F879B9096CE8",
"{  c #F936B9956D3A",
"}  c #F9C2B9FE6D78",
"|  c #FA4EBA666DB6",
" . c #FAAABAAA6DDE",
".. c #FB2BBB0A6E16",
"X. c #FB78BB436E38",
"o. c #FCE5BC546ED8",
"O. c #FD95BD326F5B",
/* pixels */
"Y Y Y Y Y Y Y Y Y Y Y Y Y Y Y Y Y Y Y Y Y Y Y Y Y Y Y Y Y Y ",
"Y Y Y Y Y Y Y Y Y Y Y Y Y F R Y F Y Y Y Y Y Y Y Y Y Y Y Y Y ",
"Y Y Y Y Y Y Y Y Y Y Y Y T | S S | R Y Y Y Y Y Y Y Y Y Y Y Y ",
"Y Y Y Y Y Y Y Y Y Y Y T R 8 : : 8 T Y Y Y Y Y Y Y Y Y Y Y Y ",
"Y Y Y Y Y Y Y Y Y Y F | 7     #   8 | Y Y Y Y Y Y Y Y Y Y Y ",
"Y Y Y Y Y Y Y Y Y Y R S >   # #   > A R Y Y Y Y Y Y Y Y Y Y ",
"Y Y Y Y Y Y Y Y Y Y R Z :         : Z R Y Y Y Y Y Y Y Y Y Y ",
"Y Y Y Y Y Y Y Y Y Y S O.e   # #   e O.Z Y Y Y Y Y Y Y Y Y Y ",
"Y Y Y Y Y Y Y Y Y Y ( V q       $ e C ` Y Y Y Y Y Y Y Y Y Y ",
"Y Y Y Y Y Y Y Y Y ( v -             = x ` F Y Y Y Y Y Y Y Y ",
"Y Y Y Y Y Y Y Y Y F ,   $         $   , F R Y Y Y Y Y Y Y Y ",
"Y Y Y Y Y Y Y F ' h                 $   h ] Y Y Y Y Y Y Y Y ",
"Y Y Y Y Y Y Y F | g   #             #   g | F Y Y Y Y Y Y Y ",
"Y Y Y Y Y Y Y F ' x   #                 x ( Y Y Y Y Y Y Y Y ",
"Y Y Y Y Y Y Y Y Y ( 4   $         $   5 ( Y Y Y Y Y Y Y Y Y ",
"Y Y Y Y Y Y Y Y Y Y R 5             5 R Y Y Y Y Y Y Y Y Y Y ",
"Y Y Y Y Y Y Y Y Y | j <             < l | Y Y Y Y Y Y Y Y Y ",
"Y Y Y Y Y Y Y Y | e                     y | Y Y Y Y Y Y Y Y ",
"Y Y Y Y Y Y F | y   $               $ $   u | F Y Y Y Y Y Y ",
"Y Y Y Y Y F ' j   #                     #   j ` S Y Y Y Y Y ",
"Y Y Y Y Y Y ( <   #                     #   3 ` Y Y Y Y Y Y ",
"Y Y Y Y Y ( v                                 b ^ Y Y Y Y Y ",
"Y Y Y Y Y | s   #                         #   f | Y Y Y Y Y ",
"Y Y Y Y S O.y   $                         $   u o.S Y Y Y Y ",
"Y Y Y Y F o.u   #     #                   $   a O.S Y Y Y Y ",
"Y Y Y Y F | f                                 g | Y Y Y Y Y ",
"Y Y Y Y Y ^ n = * * * * * * * * * * * * * * = n ^ Y Y Y Y Y ",
"Y Y Y Y Y Y R C B B B B B B B B B B B V B B C Y Y Y Y Y Y Y ",
"Y Y Y Y Y Y Y R R ^ R ^ R ^ R R R ^ R ^ R ^ R Y Y Y Y Y Y Y ",
"Y Y Y Y Y Y Y Y Y Y F Y Y Y Y Y Y Y F Y Y Y Y Y Y Y Y Y Y Y "
};
