/* XPM */
static char *pdl__[] = {
/* columns rows colors chars-per-pixel */
"33 33 104 2",
"   c #000500040002",
".  c #009F00760046",
"X  c #00EE00B10069",
"o  c #013300E50086",
"O  c #01D0015900CB",
"+  c #024001AD00FD",
"@  c #0318024E015C",
"#  c #037702950185",
"$  c #03A502B70199",
"%  c #053A03E4024A",
"&  c #05AC0439027D",
"*  c #05D10455028D",
"=  c #0721054F0320",
"-  c #0A8307AC0484",
";  c #0D3809D905CB",
":  c #11920D1607B4",
">  c #13D30EC408B1",
",  c #152E0FC60949",
"<  c #16D811020A03",
"1  c #1D8815FD0CF1",
"2  c #1F46174A0DB5",
"3  c #205518140E2C",
"4  c #2BC620991330",
"5  c #2EE122E9148C",
"6  c #2F13230E14A2",
"7  c #32BB25C7163C",
"8  c #35CB280F1794",
"9  c #396C2AC3192B",
"0  c #3A832B9319A6",
"q  c #3AF72BE919D8",
"w  c #3C192CC11A57",
"e  c #3E012E2C1B2D",
"r  c #40D8304A1C6C",
"t  c #43F9329E1DCB",
"y  c #448933091E0A",
"u  c #46A134981EF5",
"i  c #4E493A4C2250",
"p  c #4F593B1722C7",
"a  c #51353C792398",
"s  c #54C73F222528",
"d  c #63A74A352BAD",
"f  c #65404B672C61",
"g  c #663D4C232CD0",
"h  c #6CA650E82F9F",
"j  c #6F0E52B430AD",
"k  c #734055D33284",
"l  c #7445569632F6",
"z  c #7CBD5CE436AC",
"x  c #806B5FA13849",
"c  c #8CA368BB3DA4",
"v  c #90476B713F3C",
"b  c #956D6F6C4195",
"n  c #997072C8438F",
"m  c #A4C97AB6483A",
"M  c #A82B7D3B49B5",
"N  c #A8A97D9949EC",
"B  c #B0B9839A4D75",
"V  c #B4CC86A34F3E",
"C  c #B57D87264F8B",
"Z  c #C58593165693",
"A  c #C9E097B45949",
"S  c #D6C59FF05E22",
"D  c #D799A08D5E7F",
"F  c #DA75A2AE5FC0",
"G  c #DBE5A3C06061",
"H  c #E1CAA82462F6",
"J  c #E2DCA8F0636E",
"K  c #E516AA996469",
"L  c #E6E8ABE8652E",
"P  c #E847ACF965CE",
"I  c #E869AD1265DD",
"U  c #E906AD876622",
"Y  c #E990ADE9665C",
"T  c #EA3BAE7166AC",
"R  c #EA9EAEB766D5",
"E  c #EAFCAEFD66FE",
"W  c #EB57AF406726",
"Q  c #EBEAAFAF6767",
"!  c #EC7AB01967A6",
"~  c #EE6BB18B687F",
"^  c #EE9EB1B26896",
"/  c #F013B2C76939",
"(  c #F085B31C696B",
")  c #F114B38669AA",
"_  c #F194B3E669E2",
"`  c #F2BDB4C36A64",
"'  c #F3C1B5866AD7",
"]  c #F40EB5BF6AF8",
"[  c #F51EB6896B6F",
"{  c #F630B7556BE7",
"}  c #F66CB7826C02",
"|  c #F682B7926C0B",
" . c #F773B8456C75",
".. c #F7C6B8836C99",
"X. c #F8FEB96C6D22",
"o. c #F9A7B9EA6D6C",
"O. c #FA4BBA906DCF",
"+. c #FA86BA8F6DCE",
"@. c #FB0ABAF26E08",
"#. c #FB6EBB3C6E34",
"$. c #FBEEBB9C6E6C",
"%. c #FD0ABC6F6EE8",
"&. c #FFFFC64474B1",
"*. c #FFFFC64E74B8",
/* pixels */
"Q Q Q Q Q Q Q Q Q Q Q Q Q Q Q Q Q Q Q Q Q Q Q Q Q Q Q Q Q Q Q Q Q ",
"Q Q Q Q Q Q Q Q Q Q Q Q Q Q Q P P P Q Q Q Q Q Q Q Q Q Q Q Q Q Q Q ",
"Q Q Q Q Q Q Q Q Q Q Q Q Q Q ~ #.#.#.~ Q Q Q Q Q Q Q Q Q Q Q Q Q Q ",
"Q Q Q Q Q Q Q Q Q Q Q Q P ' F k p k G ' P Q Q Q Q Q Q Q Q Q Q Q Q ",
"Q Q Q Q Q Q Q Q Q Q Q Q ) D 1       3 D ) Q Q Q Q Q Q Q Q Q Q Q Q ",
"Q Q Q Q Q Q Q Q Q Q Q L #.g   - $ =   g #.P Q Q Q Q Q Q Q Q Q Q Q ",
"Q Q Q Q Q Q Q Q Q Q Q Q ' 0           q ' Q Q Q Q Q Q Q Q Q Q Q Q ",
"Q Q Q Q Q Q Q Q Q Q Q Q ..p   $   $   a | Q Q Q Q Q Q Q Q Q Q Q Q ",
"Q Q Q Q Q Q Q Q Q Q ! L #.A -       - A #.L Q Q Q Q Q Q Q Q Q Q Q ",
"Q Q Q Q Q Q Q Q Q ! Q { D l ,   $   < l S { P Q Q Q Q Q Q Q Q Q Q ",
"Q Q Q Q Q Q Q Q Q Q ' Z ,               > Z ' Q Q Q Q Q Q Q Q Q Q ",
"Q Q Q Q Q Q Q Q Q Q Q 5   -           *   5 Q Q Q Q Q Q Q Q Q Q Q ",
"Q Q Q Q Q Q Q Q L | B                       B #.P Q Q Q Q Q Q Q Q ",
"Q Q Q Q Q Q Q Q P #.b   $               $   b %.L Q Q Q Q Q Q Q Q ",
"Q Q Q Q Q Q Q Q Q ..M   $               $   M ..Q Q Q Q Q Q Q Q Q ",
"Q Q Q Q Q Q Q Q Q ! H 1                   1 J Q Q Q Q Q Q Q Q Q Q ",
"Q Q Q Q Q Q Q Q Q L ..m *               $ M ..P Q Q Q Q Q Q Q Q Q ",
"Q Q Q Q Q Q Q Q Q Q Q *.b               n *.Q Q Q Q Q Q Q Q Q Q Q ",
"Q Q Q Q Q Q Q Q Q ~ ~ j -             $ - k ) ~ Q Q Q Q Q Q Q Q Q ",
"Q Q Q Q Q Q Q Q ~ K q   $                   w L ~ Q Q Q Q Q Q Q Q ",
"Q Q Q Q Q Q Q Q ~ t   *                   *   y ) Q Q Q Q Q Q Q Q ",
"Q Q Q Q Q Q P #.z   *                       *   z #.P Q Q Q Q Q Q ",
"Q Q Q Q Q Q ~ F >                               , G ~ Q Q Q Q Q Q ",
"Q Q Q Q Q P %.c                               *   v #.L Q Q Q Q Q ",
"Q Q Q Q Q L #.p   $                           *   s #.P Q Q Q Q Q ",
"Q Q Q Q Q Q ) 7   $                               8 ~ Q Q Q Q Q Q ",
"Q Q Q Q Q Q ~ 4                               $   7 ~ Q Q Q Q Q Q ",
"Q Q Q Q Q Q ' 0   * *   $   *   $   $ *   $   *   w { Q Q Q Q Q Q ",
"Q Q Q Q Q P #.d   $                           $   g #.P Q Q Q Q Q ",
"Q Q Q Q Q P { C q u y y y y y t u y y y y y y u q C | P Q Q Q Q Q ",
"Q Q Q Q Q Q Q ~ ..| | { ....{ | | { ....{ | | { #.~ Q Q Q Q Q Q Q ",
"Q Q Q Q Q Q Q Q P P Q Q P Q Q P Q Q P Q Q P Q P Q Q Q Q Q Q Q Q Q ",
"Q Q Q Q Q Q Q Q Q Q Q Q Q Q Q Q Q Q Q Q Q Q Q Q Q Q Q Q Q Q Q Q Q "
};
