/* XPM */
static char *pdl__[] = {
/* columns rows colors chars-per-pixel */
"56 56 148 2",
"   c #000300020001",
".  c #009A00730044",
"X  c #00D6009F005E",
"o  c #014900F50090",
"O  c #01C4015100C6",
"+  c #022E01A000F5",
"@  c #02FC0238014F",
"#  c #037402920183",
"$  c #03C102CC01A5",
"%  c #04F203AF022B",
"&  c #059F042F0277",
"*  c #05CA0450028A",
"=  c #070F05420318",
"-  c #07E305DF0375",
";  c #093606DC040A",
":  c #09F6076A045D",
">  c #0AE0081904C4",
",  c #0C80094F057B",
"<  c #0DAA0A2D05FD",
"1  c #0EA80AEA066D",
"2  c #102D0C0C0717",
"3  c #10C90C80075B",
"4  c #13BD0EB308A7",
"5  c #168E10CC09E3",
"6  c #17C111B00A69",
"7  c #1A53139B0B8A",
"8  c #1D6B15E80CE5",
"9  c #280F1DD5118F",
"0  c #29781EE1122D",
"q  c #2C562105136F",
"w  c #2D06218713BC",
"e  c #2D5421C113DE",
"r  c #2DF6223A1425",
"t  c #3096242E154C",
"y  c #311B24921586",
"u  c #343926E416E4",
"i  c #35E0281E179D",
"p  c #3AC12BC119C0",
"a  c #3D0D2D781AC3",
"s  c #4245315A1D0C",
"d  c #467A347B1EE4",
"f  c #4C9739092192",
"g  c #4CBB392421A2",
"h  c #4F2A3AF322B2",
"j  c #50963C022352",
"k  c #54983EFF2514",
"l  c #5A3E4334278D",
"z  c #5ECC4698298D",
"x  c #5F2746DC29B4",
"c  c #620749002AF7",
"v  c #63D34A562BC1",
"b  c #64CC4B102C2E",
"n  c #65854B9A2C7F",
"m  c #66D24C912D11",
"M  c #67534CF22D4A",
"N  c #6AAE4F712EC2",
"B  c #6CF751252FC3",
"V  c #6EA852683080",
"C  c #70DB540B3177",
"Z  c #7109542D318B",
"A  c #733C55D03282",
"S  c #742A568132EA",
"D  c #7B035B9B35EB",
"F  c #7CB15CDB36A7",
"G  c #7CB65CDE36A9",
"H  c #7E7C5E303770",
"J  c #835561CE3991",
"K  c #84F763043A47",
"L  c #878164E93B64",
"P  c #886C65983BCC",
"I  c #8B7567DA3D20",
"U  c #91886C603FC9",
"Y  c #95B86F7E419F",
"T  c #9724707D4235",
"R  c #9A0D72B84385",
"E  c #9A4A72E643A0",
"W  c #9D7C75454505",
"Q  c #A0647771464D",
"!  c #A33479894788",
"~  c #A3E87A0F47D7",
"^  c #A4707A744813",
"/  c #A9077DDF4A16",
"(  c #AF5E82984CDD",
")  c #B00883174D27",
"_  c #B202848F4E05",
"`  c #B53186EE4F6A",
"'  c #BA168A935190",
"]  c #BF0F8E4753BD",
"[  c #C203907A5509",
"{  c #C346916A5596",
"}  c #C3DC91DA55D8",
"|  c #C435921C55FF",
" . c #C4ED92A55650",
".. c #C54792E85677",
"X. c #C5F1936756C2",
"o. c #C713943F5741",
"O. c #C8EF95A25812",
"+. c #C9C896435871",
"@. c #CAB496F358D8",
"#. c #CBF197DF5963",
"$. c #CCC7987E59C1",
"%. c #CDD899495A38",
"&. c #CEA099DE5A90",
"*. c #DBBFA3A46051",
"=. c #DECEA5EB61A8",
"-. c #DF7FA66E61F5",
";. c #E092A73C626E",
":. c #E175A7E562D2",
">. c #E5F5AB3F64CA",
",. c #E71EAC1B654C",
"<. c #E825ACE065C0",
"1. c #E86FAD1765E0",
"2. c #E889AD2A65EB",
"3. c #E8D4AD64660E",
"4. c #E9A9ADFF6669",
"5. c #EA18AE53669A",
"6. c #EA99AEB366D3",
"7. c #EB06AF046703",
"8. c #EB54AF3E6725",
"9. c #EBEBAFAF6767",
"0. c #ECC8B05367C8",
"q. c #ED55B0BC6806",
"w. c #EDEAB12C6847",
"e. c #EE16B14D685B",
"r. c #EEE9B1EA68B7",
"t. c #EFD3B298691D",
"y. c #F075B3106964",
"u. c #F0F6B371699D",
"i. c #F314B5046A8A",
"p. c #F3C2B5866AD7",
"a. c #F430B5D76B07",
"s. c #F49BB6286B36",
"d. c #F507B6786B65",
"f. c #F5BCB6FE6BB5",
"g. c #F635B7596BEA",
"h. c #F6E8B7DD6C38",
"j. c #F76BB83F6C71",
"k. c #F7B1B8736C90",
"l. c #F8FFB96C6D23",
"z. c #F9A9B9EB6D6D",
"x. c #FA64BA766DBF",
"c. c #FA84BA8E6DCD",
"v. c #FB1EBB006E10",
"b. c #FC04BBAC6E75",
"n. c #FC94BC176EB4",
"m. c #FD3BBC946EFE",
"M. c #FFFFC1BA7206",
"N. c #FFFFC24B725B",
/* pixels */
"9.9.9.9.9.9.9.9.9.9.9.9.9.9.9.9.9.9.9.9.9.9.9.9.9.9.9.9.9.9.9.9.9.9.9.9.9.9.9.9.9.9.9.9.9.9.9.9.9.9.9.9.9.9.9.9.",
"9.9.9.9.9.9.9.9.9.9.9.9.9.9.9.9.9.9.9.9.9.9.9.9.9.9.9.9.9.9.9.9.9.9.9.9.9.9.9.9.9.9.9.9.9.9.9.9.9.9.9.9.9.9.9.9.",
"9.9.9.9.9.9.9.9.9.9.9.9.9.9.9.9.9.9.9.9.9.9.9.9.9.9.9.9.9.9.9.9.9.9.9.9.9.9.9.9.9.9.9.9.9.9.9.9.9.9.9.9.9.9.9.9.",
"9.9.9.9.9.9.9.9.9.9.9.9.9.9.9.9.9.9.9.9.9.9.9.9.9.9.9.>.>.9.9.9.9.9.9.9.9.9.9.9.9.9.9.9.9.9.9.9.9.9.9.9.9.9.9.9.",
"9.9.9.9.9.9.9.9.9.9.9.9.9.9.9.9.9.9.9.9.9.9.9.9.9.9.d.z.z.d.9.9.9.9.9.9.9.9.9.9.9.9.9.9.9.9.9.9.9.9.9.9.9.9.9.9.",
"9.9.9.9.9.9.9.9.9.9.9.9.9.9.9.9.9.9.9.9.9.9.9.9.u.d.X.! W X.i.i.<.9.9.9.9.9.9.9.9.9.9.9.9.9.9.9.9.9.9.9.9.9.9.9.",
"9.9.9.9.9.9.9.9.9.9.9.9.9.9.9.9.9.9.9.9.9.9.<.h.#.p         a #.k.9.9.9.9.9.9.9.9.9.9.9.9.9.9.9.9.9.9.9.9.9.9.9.",
"9.9.9.9.9.9.9.9.9.9.9.9.9.9.9.9.9.9.9.9.9.9.d.[ <     $ $     2 [ d.<.9.9.9.9.9.9.9.9.9.9.9.9.9.9.9.9.9.9.9.9.9.",
"9.9.9.9.9.9.9.9.9.9.9.9.9.9.9.9.9.9.9.9.9.9.9.r   %         %   r 9.0.9.9.9.9.9.9.9.9.9.9.9.9.9.9.9.9.9.9.9.9.9.",
"9.9.9.9.9.9.9.9.9.9.9.9.9.9.9.9.9.9.9.9.<.z.!   $             %   ^ z.9.9.9.9.9.9.9.9.9.9.9.9.9.9.9.9.9.9.9.9.9.",
"9.9.9.9.9.9.9.9.9.9.9.9.9.9.9.9.9.9.9.9.<.z.C                 $   C z.<.9.9.9.9.9.9.9.9.9.9.9.9.9.9.9.9.9.9.9.9.",
"9.9.9.9.9.9.9.9.9.9.9.9.9.9.9.9.9.9.9.9.9.m.M   %             $   M m.<.9.9.9.9.9.9.9.9.9.9.9.9.9.9.9.9.9.9.9.9.",
"9.9.9.9.9.9.9.9.9.9.9.9.9.9.9.9.9.9.9.9.>.z.K   %             $   K z.<.9.9.9.9.9.9.9.9.9.9.9.9.9.9.9.9.9.9.9.9.",
"9.9.9.9.9.9.9.9.9.9.9.9.9.9.9.9.9.9.9.9.9.i.#.%                 $ #.d.9.9.9.9.9.9.9.9.9.9.9.9.9.9.9.9.9.9.9.9.9.",
"9.9.9.9.9.9.9.9.9.9.9.9.9.9.9.9.9.9.9.9.9.>.z.H   $             H z.>.9.9.9.9.9.9.9.9.9.9.9.9.9.9.9.9.9.9.9.9.9.",
"9.9.9.9.9.9.9.9.9.9.9.9.9.9.9.9.9.9.9.9.9.k.i.%.r             t #.i.h.<.9.9.9.9.9.9.9.9.9.9.9.9.9.9.9.9.9.9.9.9.",
"9.9.9.9.9.9.9.9.9.9.9.9.9.9.9.9.9.9.9.9.z._ u                 $   i _ z.9.9.9.9.9.9.9.9.9.9.9.9.9.9.9.9.9.9.9.9.",
"9.9.9.9.9.9.9.9.9.9.9.9.9.9.9.9.9.9.<.h.H                             H k.<.9.9.9.9.9.9.9.9.9.9.9.9.9.9.9.9.9.9.",
"9.9.9.9.9.9.9.9.9.9.9.9.9.9.9.9.9.9.z.I   % %                     % $   I z.9.9.9.9.9.9.9.9.9.9.9.9.9.9.9.9.9.9.",
"9.9.9.9.9.9.9.9.9.9.9.9.9.9.9.9.9.i.%.>                                 > %.i.9.9.9.9.9.9.9.9.9.9.9.9.9.9.9.9.9.",
"9.9.9.9.9.9.9.9.9.9.9.9.9.9.9.9.>.z.V   $                             %   V z.<.9.9.9.9.9.9.9.9.9.9.9.9.9.9.9.9.",
"9.9.9.9.9.9.9.9.9.9.9.9.9.9.9.9.9.t.t                                 $   t t.9.9.9.9.9.9.9.9.9.9.9.9.9.9.9.9.9.",
"9.9.9.9.9.9.9.9.9.9.9.9.9.9.9.9.t.;.6                                     6 ;.t.9.9.9.9.9.9.9.9.9.9.9.9.9.9.9.9.",
"9.9.9.9.9.9.9.9.9.9.9.9.9.9.9.9.t.-.5                                     5 -.t.<.9.9.9.9.9.9.9.9.9.9.9.9.9.9.9.",
"9.9.9.9.9.9.9.9.9.9.9.9.9.9.9.9.9.t.r                                     r t.9.9.9.9.9.9.9.9.9.9.9.9.9.9.9.9.9.",
"9.9.9.9.9.9.9.9.9.9.9.9.9.9.9.9.<.z.b   %                             %   N z.<.9.9.9.9.9.9.9.9.9.9.9.9.9.9.9.9.",
"9.9.9.9.9.9.9.9.9.9.9.9.9.9.9.9.9.i.[ $                                 % X.d.9.9.9.9.9.9.9.9.9.9.9.9.9.9.9.9.9.",
"9.9.9.9.9.9.9.9.9.9.9.9.9.9.9.9.9.<.m.S   %                         %   D z.<.9.9.9.9.9.9.9.9.9.9.9.9.9.9.9.9.9.",
"9.9.9.9.9.9.9.9.9.9.9.9.9.9.9.9.9.9.9.i.l                             v d.9.9.9.9.9.9.9.9.9.9.9.9.9.9.9.9.9.9.9.",
"9.9.9.9.9.9.9.9.9.9.9.9.9.9.9.9.9.9.<.9.M.T ;                     > W M.<.9.9.9.9.9.9.9.9.9.9.9.9.9.9.9.9.9.9.9.",
"9.9.9.9.9.9.9.9.9.9.9.9.9.9.9.9.9.<.t.z._ h %                     % h _ z.t.<.9.9.9.9.9.9.9.9.9.9.9.9.9.9.9.9.9.",
"9.9.9.9.9.9.9.9.9.9.9.9.9.9.9.9.<.h.-.j                                 k ;.h.<.9.9.9.9.9.9.9.9.9.9.9.9.9.9.9.9.",
"9.9.9.9.9.9.9.9.9.9.9.9.9.9.9.>.z.] 7     %                         $ $   8 X.z.<.9.9.9.9.9.9.9.9.9.9.9.9.9.9.9.",
"9.9.9.9.9.9.9.9.9.9.9.9.9.9.<.z.` >   %                                 %   < ' z.<.9.9.9.9.9.9.9.9.9.9.9.9.9.9.",
"9.9.9.9.9.9.9.9.9.9.9.9.9.<.d.o.<                                             2 #.i.<.9.9.9.9.9.9.9.9.9.9.9.9.9.",
"9.9.9.9.9.9.9.9.9.9.9.9.9.t.<.0   %                                         $   r 9.t.9.9.9.9.9.9.9.9.9.9.9.9.9.",
"9.9.9.9.9.9.9.9.9.9.9.9.<.z.N   $                                             %   C z.9.9.9.9.9.9.9.9.9.9.9.9.9.",
"9.9.9.9.9.9.9.9.9.9.9.9.i.X.%                                                     % #.i.<.9.9.9.9.9.9.9.9.9.9.9.",
"9.9.9.9.9.9.9.9.9.9.9.<.z.z   $                                                 $   M z.>.9.9.9.9.9.9.9.9.9.9.9.",
"9.9.9.9.9.9.9.9.9.9.9.u.*.5                                                         5 -.t.9.9.9.9.9.9.9.9.9.9.9.",
"9.9.9.9.9.9.9.9.9.9.<.z.!                                                         $   / z.9.9.9.9.9.9.9.9.9.9.9.",
"9.9.9.9.9.9.9.9.9.9.9.z.V   %                                                     $   C m.<.9.9.9.9.9.9.9.9.9.9.",
"9.9.9.9.9.9.9.9.9.9.<.h.d                                                         %   h z.>.9.9.9.9.9.9.9.9.9.9.",
"9.9.9.9.9.9.9.9.9.9.9.t.t   $                                                         i i.9.9.9.9.9.9.9.9.9.9.9.",
"9.9.9.9.9.9.9.9.9.9.9.9.0                                                             r t.9.9.9.9.9.9.9.9.9.9.9.",
"9.9.9.9.9.9.9.9.9.9.9.t.r                                                             t t.9.9.9.9.9.9.9.9.9.9.9.",
"9.9.9.9.9.9.9.9.9.9.9.i.a   %                                                     %   s d.9.9.9.9.9.9.9.9.9.9.9.",
"9.9.9.9.9.9.9.9.9.9.9.n.z   $                                                     %   b z.>.9.9.9.9.9.9.9.9.9.9.",
"9.9.9.9.9.9.9.9.9.9.<.z.U   ; $ $ $ $ $ $ $ $ $ $ $ $ $ $ $ $ $ $ $ $ $ $ $ $ $ $ -   T z.9.9.9.9.9.9.9.9.9.9.9.",
"9.9.9.9.9.9.9.9.9.9.9.u.%.%                                                         % %.u.9.9.9.9.9.9.9.9.9.9.9.",
"9.9.9.9.9.9.9.9.9.9.9.9.t.R J P L L L L L L L L L L L L L L L L L L L L L L L L P K R 9.9.9.9.9.9.9.9.9.9.9.9.9.",
"9.9.9.9.9.9.9.9.9.9.9.9.9.z.n.z.m.n.n.n.n.n.n.n.n.n.n.n.n.n.n.n.m.n.n.n.n.n.n.n.z.n.z.9.9.9.9.9.9.9.9.9.9.9.9.9.",
"9.9.9.9.9.9.9.9.9.9.9.9.9.<.<.>.<.<.<.<.<.<.<.<.<.<.<.<.<.<.<.<.<.<.<.<.<.<.<.<.<.<.9.9.9.9.9.9.9.9.9.9.9.9.9.9.",
"9.9.9.9.9.9.9.9.9.9.9.9.9.9.9.9.9.9.9.9.9.9.9.9.9.9.9.9.9.9.9.9.9.9.9.9.9.9.9.9.9.9.9.9.9.9.9.9.9.9.9.9.9.9.9.9.",
"9.9.9.9.9.9.9.9.9.9.9.9.9.9.9.9.9.9.9.9.9.9.9.9.9.9.9.9.9.9.9.9.9.9.9.9.9.9.9.9.9.9.9.9.9.9.9.9.9.9.9.9.9.9.9.9.",
"9.9.9.9.9.9.9.9.9.9.9.9.9.9.9.9.9.9.9.9.9.9.9.9.9.9.9.9.9.9.9.9.9.9.9.9.9.9.9.9.9.9.9.9.9.9.9.9.9.9.9.9.9.9.9.9."
};
