/* XPM */
static char *pld__[] = {
/* columns rows colors chars-per-pixel */
"20 20 112 2",
"   c #2BCF17590000",
".  c #4528280806F0",
"X  c #479129B307A1",
"o  c #4393381A2A1A",
"O  c #443E38C52AC6",
"+  c #5AC044F02A52",
"@  c #5C5545FE2ABB",
"#  c #5BEE464A2BE1",
"$  c #5DE847B62CA1",
"%  c #4C1D45A73DC4",
"&  c #4C3045F73E5D",
"*  c #4CE346863EC2",
"=  c #6294472E25BE",
"-  c #699148D920ED",
";  c #6B524A0E2178",
":  c #68E048D921C4",
">  c #6A1849A6220F",
",  c #6AE24B312484",
"<  c #6CBD4C3C2490",
"1  c #6CCE4C8D2532",
"2  c #7AFB58B52EE2",
"3  c #7BEA59592F2C",
"4  c #4E5048194083",
"5  c #479B480D489A",
"6  c #47CC483F48CD",
"7  c #5FA156234A8C",
"8  c #57C3573656AC",
"9  c #57C657745739",
"0  c #616057E04C47",
"q  c #612B5DF15A01",
"w  c #62275F045B30",
"e  c #650C618B5D46",
"r  c #65D962585E12",
"t  c #6C9A683562DA",
"y  c #636B66426A5C",
"u  c #65DF6757693B",
"i  c #668467BC6967",
"p  c #8E8264B131A9",
"a  c #8F0164FF31BC",
"s  c #92AB668930BB",
"d  c #93DA675D312B",
"f  c #AAF1779538FD",
"g  c #AC7878B6399F",
"h  c #B58D7E953B82",
"j  c #B61A7F2D3C27",
"k  c #B836817D3EB5",
"l  c #B846818B3EC2",
"z  c #C51B8B5444D3",
"x  c #C58A8BBE4536",
"c  c #C7B98D74465A",
"v  c #C5E98D42481F",
"b  c #D2E398895155",
"n  c #D38B98F0516C",
"m  c #D409994B519B",
"M  c #D34598F051D4",
"N  c #D3C0995E521F",
"B  c #D596996D5001",
"V  c #D475998C51A8",
"C  c #D4DF99F95219",
"Z  c #D52F9A225212",
"A  c #D5D39A995251",
"S  c #D6849B175294",
"D  c #D6A19B2C529E",
"F  c #D8699D2354CE",
"G  c #D8769D3154DC",
"H  c #D9FC9E42555F",
"J  c #DB099ED5555E",
"K  c #DF7EA09353CC",
"L  c #DFC7A0C953E9",
"P  c #E059A14F5462",
"I  c #DDABA12F5761",
"U  c #DE22A1B757FB",
"Y  c #DF8BA287580D",
"T  c #E0ADA192548E",
"R  c #E08EA26F569F",
"E  c #E0D6A2E4574B",
"W  c #E413A4E957D4",
"Q  c #E252A47158E6",
"!  c #E416A4ED57D9",
"~  c #E27EA48E58F5",
"^  c #E4D6A55B57E3",
"/  c #E61CA6DE59B2",
"(  c #F2F0B101603A",
")  c #F358B1576079",
"_  c #78E67E268488",
"`  c #7A377F888600",
"'  c #9AE19D3AA017",
"]  c #9B739DCCA0A9",
"[  c #A36BA89AAEED",
"{  c #A3D6A904AF56",
"}  c #B09CB29AB512",
"|  c #B2A7B4ACB723",
" . c #B1EEB5FEBAF4",
".. c #B240B653BB48",
"X. c #C73ECB66D078",
"o. c #C74BCB6FD07C",
"O. c #D2E4D2CDD2B1",
"+. c #D919DD1CE202",
"@. c #D9C9DD4FE19C",
"#. c #D9FDDD75E1B2",
"$. c #D9B5DDABE282",
"%. c #F431F39AF2E2",
"&. c #F496F3FEF344",
"*. c #F797FA12FD0B",
"=. c #FC50FC01FBA1",
"-. c #F937FBA4FE8B",
";. c #FD2EFD19FCFF",
":. c #FEC2FE8EFE51",
">. c #FDC1FEDAFFFF",
",. c #FE78FF93FFFF",
"<. c #FEB3FEA3FE90",
"1. c #FFFAFFFAFFFB",
/* pixels */
"A A A A A A A A m G G m A A A A A A A A ",
"A A A A A A A A E c c E A A A A A A A A ",
"A A A A A A A E p * * p E m A A A A A A ",
"A A A A A A G x 4 -.*.% x G A A A A A A ",
"A A A A A A G c 0 ,.,.7 c G A A A A A A ",
"A A A A A m G B   } }   B G A A A A A A ",
"A A A A A G v O ] %.%.' o c G A A A A A ",
"A A A A m / < { ,.;.,.,.{ < / m A A A A ",
"A A A A m ^ = o.,.,.=.,.o.= ^ A A A A A ",
"A A A A m W d y ,.,.:.,.i d E b A A A A ",
"A A A A A b ) . y ,.,.y X ( m A A A A A ",
"A A A A A P - q O.,.,.O.q - E A m A A A ",
"A A A b / < ` ,.:.,.,.,.,._ ; / b A A A ",
"A A m Y g 9 ,.,.:.,.,.:.=.,.8 g Y m A A ",
"A A b / 1 ..,.=.,.,.,.,.:.,...< / m A A ",
"A A A J $ O.,.=.:.=.=.:.=.,.#.$ P m A A ",
"A A m P + #.,.,.,.,.,.,.,.,.#.# P m A A ",
"A A m ^ 2 5 t e w u e e e t 5 3 ~ m A A ",
"A A A A b k h h j j j j h h l m A A A A ",
"A A A A C Y Y P I I Y Y P Y P C A A A A "
};
