/* XPM */
static char *pld__[] = {
/* columns rows colors chars-per-pixel */
"48 48 241 2",
"   c black",
".  c #00000000009C",
"X  c #037F00AE0000",
"o  c #018D01200097",
"O  c #0000000001FF",
"+  c #01DD01D301C3",
"@  c #067602EC0000",
"#  c #0571036E01FA",
"$  c #061303E60230",
"%  c #0000000003D2",
"&  c #0000021505F0",
"*  c #000001DC06BF",
"=  c #041D03DA0388",
"-  c #053A04E30479",
";  c #02810597095D",
":  c #021705FB0ABB",
">  c #07860A7F0E20",
",  c #08FD0BD20F46",
"<  c #0F860F510F18",
"1  c #11470A4A01C4",
"2  c #135B0BC7028E",
"3  c #0F9409EA03E9",
"4  c #10CB0AD80481",
"5  c #11D20CEE0709",
"6  c #13DC0E7A07EC",
"7  c #1CDC14DE0B22",
"8  c #1E1215BE0B99",
"9  c #0E7D115014C2",
"0  c #106010250FE4",
"q  c #121314E41854",
"w  c #1AB91AA61AA5",
"e  c #1D541D3F1D28",
"r  c #2A791BC409D1",
"t  c #2B431C860A8A",
"y  c #28981DB7106F",
"u  c #3B43290412C0",
"i  c #3C0329C3137D",
"p  c #3992293E154F",
"a  c #3A9A292C13E7",
"s  c #3F3C2C9415CF",
"d  c #3E2A2CA01737",
"f  c #2468246B246F",
"g  c #277927582730",
"h  c #22A725532894",
"j  c #256A267227BE",
"k  c #25BF26B427E1",
"l  c #26DC296B2C8A",
"z  c #2B942C172CCC",
"x  c #2EB82F4C3011",
"c  c #32BF31F83104",
"v  c #361735283404",
"b  c #3EF73E5C3DA8",
"n  c #3F653EB03DD3",
"m  c #3F543EFE3E97",
"M  c #430F30CC1A83",
"N  c #434F310C1AC2",
"B  c #4518322D1B48",
"V  c #4A5D34CE1A7F",
"C  c #4B6235C01B58",
"Z  c #4E7A38FB1EC0",
"A  c #533E3B061D79",
"S  c #58AB3EF51F95",
"D  c #54023CBC2085",
"F  c #56EF3EEB21C2",
"G  c #3FC43F5F3EE3",
"H  c #59783FC6206A",
"J  c #5E094313222C",
"K  c #5F79444E2327",
"L  c #5D82440824F0",
"P  c #5F64456725AD",
"I  c #60C3455223D4",
"U  c #65E5491425E9",
"Y  c #68484B072754",
"T  c #64B94A2329B1",
"R  c #70A651632B3D",
"E  c #725053322D3F",
"W  c #75C355172D39",
"Q  c #7846577F2F83",
"!  c #7BD859F63096",
"~  c #7DE65B8D318C",
"^  c #7FE95CDF321D",
"/  c #511851BF52A4",
"(  c #540D54B7558F",
")  c #5990582F5680",
"_  c #60605EE75D1C",
"`  c #5F275F875FFC",
"'  c #61B0610F604F",
"]  c #60AE60E7612C",
"[  c #62A661C460BD",
"{  c #630B627B61D8",
"}  c #678D66B465AB",
"|  c #68E1686967D7",
" . c #69A068CA67C9",
".. c #6E676DEE6D5B",
"X. c #710070816FEB",
"o. c #71A9711E7079",
"O. c #7AF57A237926",
"+. c #7D667C7F7B6A",
"@. c #80605D8332F8",
"#. c #8472603533FC",
"$. c #872E629135E3",
"%. c #8B4F6587376D",
"&. c #8C5C660C374A",
"*. c #892A65A33A47",
"=. c #8E4969533C38",
"-. c #914169963930",
";. c #93AC6B8D3A97",
":. c #943F6C0E3B02",
">. c #954E6CD23B6B",
",. c #96C46DE13BFA",
"<. c #97F06E9D3C2F",
"1. c #9AB170C73D9E",
"2. c #9B8C71573DD5",
"3. c #9C5E71CC3DD9",
"4. c #9D0C72353DEF",
"5. c #9D1E72553E1E",
"6. c #9F34740A3F5B",
"7. c #A07D74AF3F3B",
"8. c #A2F3767D403B",
"9. c #A7777A1B42C0",
"0. c #A86D7ADE4345",
"q. c #A9AA7B5542CA",
"w. c #AC927D6F43EA",
"e. c #B41882264531",
"r. c #B3A882EC4774",
"t. c #B46D8364478D",
"y. c #B958868C488F",
"u. c #B951872C49FA",
"i. c #BCC6890249D5",
"p. c #C2918DB04D28",
"a. c #C5D190084E65",
"s. c #C95F92454EFA",
"d. c #CC2693AF4EC6",
"f. c #CB43939B4FA6",
"g. c #CC9194234F3B",
"h. c #CE6B95CA50AE",
"j. c #CFD896D2513B",
"k. c #D10B97245078",
"l. c #D22197EF50E8",
"z. c #D256981450FC",
"x. c #D2A8984F511A",
"c. c #D38298EC516D",
"v. c #D3FC9944519D",
"b. c #D4279A0B5321",
"n. c #D46D999651C8",
"m. c #D4E399EC51F6",
"M. c #D5409A2F5219",
"N. c #D5D59A9A5252",
"B. c #D4799A3D532D",
"V. c #D7169B8152CD",
"C. c #D7549BAF52E6",
"Z. c #D77E9BCC52F3",
"A. c #D82F9C4D5339",
"S. c #D86F9C7C5353",
"D. c #D9889D4753BE",
"F. c #DAA79E16542E",
"G. c #DB569E955471",
"H. c #DBD49EE45486",
"J. c #DCFA9FC45512",
"K. c #DD67A013553B",
"L. c #DDE5A06C556B",
"P. c #DDD8A09C55E2",
"I. c #DF36A17C562A",
"U. c #DFC5A1D9564A",
"Y. c #DF61A21E575D",
"T. c #E04DA22B5659",
"R. c #DF88A2455783",
"E. c #E08AA2585672",
"W. c #E174A2FA56BC",
"Q. c #E1EEA34156C4",
"!. c #E0FDA2D95704",
"~. c #E1F0A379573E",
"^. c #E2C3A3F75754",
"/. c #E322A42B5755",
"(. c #E3E9A4BF57AA",
"). c #E236A3FA5806",
"_. c #E3CBA4F8584C",
"`. c #E4D2A5835841",
"'. c #E57EA60E58A3",
"]. c #E5A5A62A58B3",
"[. c #E5E4A6745909",
"{. c #F2DCAF9C5D89",
"}. c #83C583A48376",
"|. c #84E484BC8488",
" X c #914D90198EA2",
".X c #9547941E92B4",
"XX c #9FAD9F379EA7",
"oX c #A1049F339CFB",
"OX c #A3A5A1D99FA9",
"+X c #A228A1B2A121",
"@X c #A547A427A2C8",
"#X c #AB0FAA29A911",
"$X c #ABD8AADCA9A9",
"%X c #AC63ABE9AB55",
"&X c #AD6CACE3AC3A",
"*X c #AE2EADB2AD1B",
"=X c #B489B3A9B299",
"-X c #B7C3B6E7B5DB",
";X c #B7F9B79BB728",
":X c #BBC0BB64BAF3",
">X c #BCEABC87BC08",
",X c #BEAFBD65BBC9",
"<X c #BE59BDF4BD77",
"1X c #C207C0BFBF2E",
"2X c #C6A9C578C405",
"3X c #C70FC5D7C45B",
"4X c #C8EBC7BEC643",
"5X c #CC0ECAE7C982",
"6X c #CE63CD3DCBDC",
"7X c #D367D250D0FB",
"8X c #D3E6D2D0D17C",
"9X c #D7B5D683D50C",
"0X c #DF12DDE1DC6C",
"qX c #E224E1B6E12F",
"wX c #E376E245E0D2",
"eX c #E28BE221E1A0",
"rX c #E47EE34EE1DD",
"tX c #E49BE374E210",
"yX c #E703E5D7E469",
"uX c #E8FBE801E6D1",
"iX c #EA1BE918E7DE",
"pX c #EAF5EA25E926",
"aX c #EB2CEA6CE982",
"sX c #EC32EB08E99D",
"dX c #ED05EC59EB88",
"fX c #F0D8EFA4EE2B",
"gX c #F372F351F329",
"hX c #F385F362F338",
"jX c #F46BF3A9F2BD",
"kX c #F4CDF3EFF2E0",
"lX c #F7D9F6EBF5C9",
"zX c #F8FBF8E7F8CB",
"xX c #FA3EFA3DFA3C",
"cX c #FAF6FAF5FAF3",
"vX c #FC19FC17FC16",
"bX c #FCEFFCEEFCEC",
"nX c #FE24FE25FE26",
"mX c #FEE4FEE4FEE4",
"MX c #FFFFFFC8FF0B",
"NX c #FF70FF81FF95",
"BX c #FFFBFFFBFFFB",
/* pixels */
"N.N.N.N.N.N.N.N.N.N.N.N.N.N.N.N.N.N.N.N.N.N.N.N.N.N.N.N.N.N.N.N.N.N.N.N.N.N.N.N.N.N.N.N.N.N.N.N.",
"N.N.N.N.N.N.N.N.N.N.N.N.N.N.N.N.N.N.N.N.N.N.N.N.N.N.N.N.N.N.N.N.N.N.N.N.N.N.N.N.N.N.N.N.N.N.N.N.",
"N.N.N.N.N.N.N.N.N.N.N.N.N.N.N.N.N.N.N.N.N.N.c.c.c.c.N.N.N.N.N.N.N.N.N.N.N.N.N.N.N.N.N.N.N.N.N.N.",
"N.N.N.N.N.N.N.N.N.N.N.N.N.N.N.N.N.N.N.N.N.c.Z.T.T.N.c.N.N.N.N.N.N.N.N.N.N.N.N.N.N.N.N.N.N.N.N.N.",
"N.N.N.N.N.N.N.N.N.N.N.N.N.N.N.N.N.N.N.N.N.Q.c.u.u.c._.c.c.N.N.N.N.N.N.N.N.N.N.N.N.N.N.N.N.N.N.N.",
"N.N.N.N.N.N.N.N.N.N.N.N.N.N.N.N.N.N.N.N.T.! 3     4 ~ T.N.N.N.N.N.N.N.N.N.N.N.N.N.N.N.N.N.N.N.N.",
"N.N.N.N.N.N.N.N.N.N.N.N.N.N.N.N.N.N.c.T.L   c |.}.z   P T.c.N.N.N.N.N.N.N.N.N.N.N.N.N.N.N.N.N.N.",
"N.N.N.N.N.N.N.N.N.N.N.N.N.N.N.N.N.c.Q.3.  ) BXBXBXBX)   3.).c.N.N.N.N.N.N.N.N.N.N.N.N.N.N.N.N.N.",
"N.N.N.N.N.N.N.N.N.N.N.N.N.N.N.N.N.l._.C ; yXBXlXxXBXrX& C _.c.N.N.N.N.N.N.N.N.N.N.N.N.N.N.N.N.N.",
"N.N.N.N.N.N.N.N.N.N.N.N.N.N.N.N.N.c.T.r l BXBXBXBXBXBXh t T.c.N.N.N.N.N.N.N.N.N.N.N.N.N.N.N.N.N.",
"N.N.N.N.N.N.N.N.N.N.N.N.N.N.N.N.N.c._.u q lXBXBXBXBXkX9 i ).c.N.N.N.N.N.N.N.N.N.N.N.N.N.N.N.N.N.",
"N.N.N.N.N.N.N.N.N.N.N.N.N.N.N.N.N.l._.^   .XBXBXxXBX X  ^ /.c.N.N.N.N.N.N.N.N.N.N.N.N.N.N.N.N.N.",
"N.N.N.N.N.N.N.N.N.N.N.N.N.N.N.N.N.c.c.T.B   ;XBXBX=X  B T.c.c.N.N.N.N.N.N.N.N.N.N.N.N.N.N.N.N.N.",
"N.N.N.N.N.N.N.N.N.N.N.N.N.N.N.N.c.F.T.r.T   ..BXBX|   T r.T.F.c.N.N.N.N.N.N.N.N.N.N.N.N.N.N.N.N.",
"N.N.N.N.N.N.N.N.N.N.N.N.N.N.N.c.F.h.B     0 :XBXBX;X<     B h.F.c.N.N.N.N.N.N.N.N.N.N.N.N.N.N.N.",
"N.N.N.N.N.N.N.N.N.N.N.N.N.N.N.S.f.y   | 7XgXBXBXBXBXgX7X}   y f.F.c.N.N.N.N.N.N.N.N.N.N.N.N.N.N.",
"N.N.N.N.N.N.N.N.N.N.N.N.N.N.l.Q.Z   OXBXBXBXBXBXBXxXBXxXBXoX  Z T.c.N.N.N.N.N.N.N.N.N.N.N.N.N.N.",
"N.N.N.N.N.N.N.N.N.N.N.N.N.N.J.t.  { BXxXvXBXBXBXBXBXBXBXxXBX{   e.T.c.N.N.N.N.N.N.N.N.N.N.N.N.N.",
"N.N.N.N.N.N.N.N.N.N.N.N.N.l.`.~   2XBXBXBXBXBXBXBXBXBXBXvXBX2X  ~ _.c.N.N.N.N.N.N.N.N.N.N.N.N.N.",
"N.N.N.N.N.N.N.N.N.N.N.N.N.l.`.I   rXBXBXBXBXBXBXBXBXBXBXBXBXyX& K `.c.N.N.N.N.N.N.N.N.N.N.N.N.N.",
"N.N.N.N.N.N.N.N.N.N.N.N.N.l.`.Y   0XBXBXBXBXBXBXBXBXBXBXBXBX0X  Y `.c.N.N.N.N.N.N.N.N.N.N.N.N.N.",
"N.N.N.N.N.N.N.N.N.N.N.N.N.l.).:.  @XBXxXBXBXBXBXBXBXBXBXzXBX@X  :./.c.N.N.N.N.N.N.N.N.N.N.N.N.N.",
"N.N.N.N.N.N.N.N.N.N.N.N.N.N.S.h.1 k gXBXxXBXBXBXBXBXBXxXBXkXg 1 h.S.N.N.N.N.N.N.N.N.N.N.N.N.N.N.",
"N.N.N.N.N.N.N.N.N.N.N.N.N.N.l.).&.  G eXBXBXBXBXBXBXBXBXeXb   -.Q.l.N.N.N.N.N.N.N.N.N.N.N.N.N.N.",
"N.N.N.N.N.N.N.N.N.N.N.N.N.N.N.N.T.E   - *XBXBXBXBXBXBX%X=   Q Q.c.N.N.N.N.N.N.N.N.N.N.N.N.N.N.N.",
"N.N.N.N.N.N.N.N.N.N.N.N.N.N.N.l.A.{.*.  G BXxXBXBXBXBXb   =.{.N.c.N.N.N.N.N.N.N.N.N.N.N.N.N.N.N.",
"N.N.N.N.N.N.N.N.N.N.N.N.N.N.l.Q.f.D $   o.BXxXBXBXxXBXo.  $ F h.Q.l.N.N.N.N.N.N.N.N.N.N.N.N.N.N.",
"N.N.N.N.N.N.N.N.N.N.N.N.N.c.`.3.5   ( >XxXBXBXBXBXBXBXlX>X/   5 7./.l.N.N.N.N.N.N.N.N.N.N.N.N.N.",
"N.N.N.N.N.N.N.N.N.N.N.N.c.`.$.  e 1XBXBXBXBXBXBXBXBXBXBXBXBX:Xw   %./.l.N.N.N.N.N.N.N.N.N.N.N.N.",
"N.N.N.N.N.N.N.N.N.N.N.l./.:.  v pXBXvXxXBXBXBXBXBXBXBXBXxXBXBXuXc   1.Q.l.N.N.N.N.N.N.N.N.N.N.N.",
"N.N.N.N.N.N.N.N.N.N.c.J.u.  g dXBXxXBXBXBXBXBXBXBXBXBXBXBXBXxXBXpXg @ i.J.c.N.N.N.N.N.N.N.N.N.N.",
"N.N.N.N.N.N.N.N.N.B.c.T.i   6XBXxXBXBXBXBXBXBXBXBXBXBXBXBXBXBXxXBX5X  d T.c.N.N.N.N.N.N.N.N.N.N.",
"N.N.N.N.N.N.N.N.N.l.Q.1.  +.BXxXBXBXBXBXBXBXBXBXBXBXBXBXBXBXBXBXxXBXO.  3.Q.c.N.N.N.N.N.N.N.N.N.",
"N.N.N.N.N.N.N.N.N.N.).i , pXBXBXBXBXBXBXBXBXBXBXBXBXBXBXBXBXBXBXBXBXiX> s ).N.N.N.N.N.N.N.N.N.N.",
"N.N.N.N.N.N.N.N.N.F.p.  { BXvXBXBXBXBXBXBXBXBXBXBXBXBXBXBXBXBXBXBXBXBX`   a.F.N.N.N.N.N.N.N.N.N.",
"N.N.N.N.N.N.N.N.l.Q.,.  %XBXvXBXBXBXBXBXBXBXBXBXBXBXBXBXBXBXBXBXBXxXBX%X  2.).c.N.N.N.N.N.N.N.N.",
"N.N.N.N.N.N.N.N.c.`.E   9XBXBXBXBXBXBXBXBXBXBXBXBXBXBXBXBXBXBXBXBXvXBX9X  W `.c.N.N.N.N.N.N.N.N.",
"N.N.N.N.N.N.N.N.c.`.F * pXBXBXBXBXBXBXBXBXBXBXBXBXBXBXBXBXBXBXBXBXBXBXdX& J `.l.N.N.N.N.N.N.N.N.",
"N.N.N.N.N.N.N.N.l.`.A : fXBXxXBXBXBXBXBXBXBXBXBXBXBXBXBXBXBXBXBXBXBXBXdX; F `.l.N.N.N.N.N.N.N.N.",
"N.N.N.N.N.N.N.N.c.`.I   rXBXxXxXBXxXxXBXxXxXBXxXxXBXxXxXxXBXxXxXxXxXBXwX  U `.N.N.N.N.N.N.N.N.N.",
"N.N.N.N.N.N.N.N.c.`.^   4XBXBXBXBXBXBXBXBXBXBXBXBXBXBXBXBXBXBXBXBXvXBX2X  @.`.l.N.N.N.N.N.N.N.N.",
"N.N.N.N.N.N.N.N.c.Q.q.  { &XXXoX+X+X+X+X+X+X+X+X+X+X+X+X+X+X+X+X+XXX&X{   w.T.c.N.N.N.N.N.N.N.N.",
"N.N.N.N.N.N.N.N.N.N.l.7                                                 8 c.N.N.N.N.N.N.N.N.N.N.",
"N.N.N.N.N.N.N.N.N.N.S.e.8.9.9.9.9.9.9.9.9.9.9.9.9.9.9.9.9.9.9.9.9.9.q.8.e.F.N.N.N.N.N.N.N.N.N.N.",
"N.N.N.N.N.N.N.N.N.N.N.J.Q.Q.T.T.T.T.T.T.T.T.T.T.Q.T.T.T.T.T.T.T.Q.T.T.T.J.N.N.N.N.N.N.N.N.N.N.N.",
"N.N.N.N.N.N.N.N.N.N.N.c.c.c.c.c.c.c.c.c.c.c.c.c.c.c.c.c.c.c.c.c.c.c.c.c.c.N.N.N.N.N.N.N.N.N.N.N.",
"N.N.N.N.N.N.N.N.N.N.N.N.N.N.N.N.N.N.N.N.N.N.N.N.N.N.N.N.N.N.N.N.N.N.N.N.N.N.N.N.N.N.N.N.N.N.N.N.",
"N.N.N.N.N.N.N.N.N.N.N.N.N.N.N.N.N.N.N.N.N.N.N.N.N.N.N.N.N.N.N.N.N.N.N.N.N.N.N.N.N.N.N.N.N.N.N.N."
};
