/* XPM */
static char *pld__[] = {
/* columns rows colors chars-per-pixel */
"42 42 216 2",
"   c black",
".  c #0000000001A5",
"X  c #00000000030D",
"o  c #04DD01FE0000",
"O  c #061102DE0000",
"+  c #00000100046E",
"@  c #0014031E071E",
"#  c #055A061606EF",
"$  c #092C03350000",
"%  c #0C1F03A20000",
"&  c #0150046B087E",
"*  c #008505320AE7",
"=  c #00DC05870B39",
"-  c #033E06540A18",
";  c #0660070D07CD",
":  c #04F2080E0BD9",
">  c #05E809760DCC",
",  c #0FD906550000",
"<  c #13E909620000",
"1  c #174F0BDB0000",
"2  c #17A20C130000",
"3  c #188D0CBF0001",
"4  c #191D0D260031",
"5  c #1ACF128F087E",
"6  c #1B0012C108B1",
"7  c #0BCD0E8911FD",
"8  c #0CD00FA6131D",
"9  c #0D9C10BA1488",
"0  c #0E60121916A3",
"q  c #0EC4127F170D",
"w  c #0FFC13D1187E",
"e  c #117E1486183B",
"r  c #11D0147217A9",
"t  c #131015B318EB",
"y  c #2B8F1B200712",
"u  c #2BDC1B64074D",
"i  c #1FB4164B0AF6",
"p  c #217E17AA0BCA",
"a  c #228C183B0BD4",
"s  c #22DB18780BFC",
"d  c #28F31A8008E2",
"f  c #2E621D6208A2",
"g  c #2EF61DD408EA",
"h  c #2D051D810A92",
"j  c #326D205B0A4E",
"k  c #38FD27A6127D",
"l  c #393327DD12B6",
"z  c #3E0A2B4F1474",
"x  c #3F862C8D1566",
"c  c #3C2A2C15187A",
"v  c #3FAB2DF7185B",
"b  c #30B333203616",
"n  c #32AF34FD37D2",
"m  c #3FF82ED019FA",
"M  c #437530CA1A01",
"N  c #451530BA1879",
"B  c #455230F718AF",
"V  c #4892348E1C5D",
"C  c #4C02371F1DD0",
"Z  c #53993B861E26",
"A  c #53EF3BDD1E7D",
"S  c #5F51450824F5",
"D  c #62FA45BE2210",
"F  c #63B4484426C8",
"G  c #675048E623C9",
"H  c #6755499B2553",
"J  c #69F44AA3246B",
"K  c #6A154B9B266A",
"L  c #63FB48BE27BF",
"P  c #68D44C39298C",
"I  c #6C944DEB2881",
"U  c #6E1A4F232959",
"Y  c #7678545B2ABB",
"T  c #7329536C2CC0",
"R  c #779256A52E77",
"E  c #7E345B67310E",
"W  c #3FB5409741AC",
"Q  c #446643FE436A",
"!  c #4373444D4559",
"~  c #4154440C475E",
"^  c #461E45A84503",
"/  c #4266457F4947",
"(  c #4335462B49C9",
")  c #43CA465E4984",
"_  c #449247824B18",
"`  c #45C548B74C4F",
"'  c #5CC95C3B5B93",
"]  c #5DE05D4E5CA0",
"[  c #5FF3608D6147",
"{  c #633B63C36470",
"}  c #63A366266936",
"|  c #63E466666975",
" . c #66D068696A5E",
".. c #68096A396CE5",
"X. c #68946AC66D76",
"o. c #69546B586DCF",
"O. c #69D66BDA6E4E",
"+. c #6D146CAC6C2E",
"@. c #710D70A37023",
"#. c #746D7473747B",
"$. c #76F678B97AE0",
"%. c #77CE79617B4C",
"&. c #81585DB9325C",
"*. c #88AB6256338D",
"=. c #A22775FA4014",
"-. c #A5F978BF4196",
";. c #AA1C7BA142EA",
":. c #AB877CB3438D",
">. c #AEA57E734396",
",. c #ADD67E574462",
"<. c #AEC37ED94461",
"1. c #AF1E7F3244B7",
"2. c #BCF48A8F4D0F",
"3. c #BFD48BA74BFB",
"4. c #C3E38DDA4BE5",
"5. c #C3FF8E174C4E",
"6. c #C42D8ED44DBB",
"7. c #C4D48E844C3A",
"8. c #C4B68F224DC0",
"9. c #C4478EEE4DD3",
"0. c #C60190114E3F",
"q. c #C9F792AD4F12",
"w. c #CFC696CC5145",
"e. c #D09A975E5186",
"r. c #D20697D950DB",
"t. c #D25C981750FC",
"y. c #D2AB9851511B",
"u. c #D39398F85174",
"i. c #D3FE994751A0",
"p. c #D46E999651C7",
"a. c #D4D499E051EF",
"s. c #D5329A255214",
"d. c #D5D49A995251",
"f. c #D6F69B5D52A3",
"g. c #D7BB9BE852E8",
"h. c #D82C9C3F531F",
"j. c #D7979D1255A7",
"k. c #D8BA9CA55352",
"l. c #D9059D545471",
"z. c #DA849DFF5424",
"x. c #DB079E60545A",
"c. c #DBC69EDF548D",
"v. c #DC419F215489",
"b. c #DA619E4A54EC",
"n. c #DB9B9F045514",
"m. c #D9AC9E945675",
"M. c #DB7D9FD45705",
"N. c #DCF69FA354D1",
"B. c #DC919FB0555E",
"V. c #DE2AA0955573",
"C. c #DD30A10D57AB",
"Z. c #DE3CA1645724",
"A. c #DEF3A1665648",
"S. c #DF96A1B3562E",
"D. c #DFF5A25D5733",
"F. c #DE0AA1AB57FE",
"G. c #E0DDA29B56A1",
"H. c #E061A2A15746",
"J. c #E1E9A3C957F3",
"K. c #E3F9A4EE57FE",
"L. c #E43EA5395851",
"P. c #E32AA52C5983",
"I. c #E3C5A59F59C7",
"U. c #E426A5E259E5",
"Y. c #E4CEA57D5838",
"T. c #E5EFA6855921",
"R. c #E6C8A74759C7",
"E. c #E6F1A76A59E3",
"W. c #8914897189E3",
"Q. c #8AA98A768A36",
"!. c #8B328AE58A83",
"~. c #8D258D848DF9",
"^. c #8F498E5F8D40",
"/. c #8E388EA38F24",
"(. c #923091298FE8",
"). c #8F7D8FEA906F",
"_. c #9567953694FC",
"`. c #9AE79AAB9A63",
"'. c #AA9DA9D9A8EB",
"]. c #AB91AAC9A9D7",
"[. c #ADE0AC91AAF5",
"{. c #AE99AE2BADA5",
"}. c #B024AF9FAEFD",
"|. c #B142AFEBAE4B",
" X c #B9D2B850B679",
".X c #BCD0BB44B960",
"XX c #BCE9BC92BC28",
"oX c #C0D1C078C00B",
"OX c #CF3DCE39CCFD",
"+X c #D1C4D0C8CF95",
"@X c #D2D5D213D126",
"#X c #D429D403D3D4",
"$X c #D9C4D818D60C",
"%X c #DE48DC9EDA8D",
"&X c #E059DF4CDE03",
"*X c #E181E002DE2E",
"=X c #E32FE1B4DFE5",
"-X c #E82AE78FE6D1",
";X c #E9B9E922E866",
":X c #F07DEF6BEE1E",
">X c #F098EF84EE32",
",X c #F71BF60BF4BF",
"<X c #F7D4F7D5F7D7",
"1X c #FA02F8EEF79E",
"2X c #F8F0F8EDF8E8",
"3X c #F97AF979F978",
"4X c #FA1DFA0EF9FD",
"5X c #FA7EFA68FA4C",
"6X c #FAC2FA8CFA4E",
"7X c #FAB7FAA7FA94",
"8X c #FBEFFBEFFBF1",
"9X c #FD33FD33FD32",
"0X c #FDEEFDF0FDF2",
"qX c #FE84FE80FE7B",
"wX c #FF2DFF2CFF2A",
"eX c #FFFAFFFAFFFA",
/* pixels */
"d.d.d.d.d.d.d.d.d.d.d.d.d.d.d.d.d.d.d.d.d.d.d.d.d.d.d.d.d.d.d.d.d.d.d.d.d.d.d.d.d.d.",
"d.d.d.d.d.d.d.d.d.d.d.d.d.d.d.d.d.d.d.d.d.d.d.d.d.d.d.d.d.d.d.d.d.d.d.d.d.d.d.d.d.d.",
"d.d.d.d.d.d.d.d.d.d.d.d.d.d.d.d.d.d.d.r.i.i.i.d.d.d.d.d.d.d.d.d.d.d.d.d.d.d.d.d.d.d.",
"d.d.d.d.d.d.d.d.d.d.d.d.d.d.d.d.d.i.k.T.P.P.T.d.i.d.d.d.d.d.d.d.d.d.d.d.d.d.d.d.d.d.",
"d.d.d.d.d.d.d.d.d.d.d.d.d.d.d.d.i.x.i.I d u I i.x.i.d.d.d.d.d.d.d.d.d.d.d.d.d.d.d.d.",
"d.d.d.d.d.d.d.d.d.d.d.d.d.d.d.i.x.7.6 & ` ` @ a 7.x.d.d.d.d.d.d.d.d.d.d.d.d.d.d.d.d.",
"d.d.d.d.d.d.d.d.d.d.d.d.d.d.d.i.H.z t %XwXwX$X9 x F.i.d.d.d.d.d.d.d.d.d.d.d.d.d.d.d.",
"d.d.d.d.d.d.d.d.d.d.d.d.d.d.i.x.3.  `.wX4X4XwX_.  5.x.i.d.d.d.d.d.d.d.d.d.d.d.d.d.d.",
"d.d.d.d.d.d.d.d.d.d.d.d.d.d.i.A.,.  OXwXwX8XwXXX  1.A.i.d.d.d.d.d.d.d.d.d.d.d.d.d.d.",
"d.d.d.d.d.d.d.d.d.d.d.d.d.d.d.x.5.  W.wX4XwXwXW.  5.x.i.d.d.d.d.d.d.d.d.d.d.d.d.d.d.",
"d.d.d.d.d.d.d.d.d.d.d.d.d.d.d.r.A.Z : @XwXwXOX& A F.i.d.d.d.d.d.d.d.d.d.d.d.d.d.d.d.",
"d.d.d.d.d.d.d.d.d.d.d.d.d.d.i.k.T.3.$ ! wXwXQ $ 3.T.j.i.d.d.d.d.d.d.d.d.d.d.d.d.d.d.",
"d.d.d.d.d.d.d.d.d.d.d.d.d.i.N.q.B     @.wXwX+.    B q.x.i.d.d.d.d.d.d.d.d.d.d.d.d.d.",
"d.d.d.d.d.d.d.d.d.d.d.d.d.x.5.5 9 ).#X4XwXwX4X#X/.7 5 4.x.i.d.d.d.d.d.d.d.d.d.d.d.d.",
"d.d.d.d.d.d.d.d.d.d.d.d.i.A.k t -XwXwXwXwXwXwXwXwX=Xr k A.d.d.d.d.d.d.d.d.d.d.d.d.d.",
"d.d.d.d.d.d.d.d.d.d.d.i.A.:.  ].wX<XwXwXwXwXwXwX4XwX].  :.A.i.d.d.d.d.d.d.d.d.d.d.d.",
"d.d.d.d.d.d.d.d.d.d.d.i.T.Y : :XwXwXwXwXwXwXwXwXwXwX:X: Y T.i.d.d.d.d.d.d.d.d.d.d.d.",
"d.d.d.d.d.d.d.d.d.d.d.r.T.K t 4XwXwXwXwXwXwXwXwXwXwX2Xt K T.r.d.d.d.d.d.d.d.d.d.d.d.",
"d.d.d.d.d.d.d.d.d.d.d.r.P.*.  &XwXwXwXwXwXwXwXwXwXwX*X  *.P.r.d.d.d.d.d.d.d.d.d.d.d.",
"d.d.d.d.d.d.d.d.d.d.d.i.x.7.  #.wX4XwXwXwXwXwXwX4XwX#.  7.x.d.d.d.d.d.d.d.d.d.d.d.d.",
"d.d.d.d.d.d.d.d.d.d.d.d.i.P.T   W.wXwXwXwXwXwXwXwXW.  R P.r.d.d.d.d.d.d.d.d.d.d.d.d.",
"d.d.d.d.d.d.d.d.d.d.d.d.d.i.x.F   ! 4XwXwXwXwX4X!   P x.d.d.d.d.d.d.d.d.d.d.d.d.d.d.",
"d.d.d.d.d.d.d.d.d.d.d.d.d.i.T.j.v   @XwXwXwXwX@X  m x.P.i.d.d.d.d.d.d.d.d.d.d.d.d.d.",
"d.d.d.d.d.d.d.d.d.d.d.i.d.J.E O ; ] 4XwXwXwXwX4X] # O &.H.d.d.d.d.d.d.d.d.d.d.d.d.d.",
"d.d.d.d.d.d.d.d.d.d.i.j.x.V   { ;XwXwXwXwXwXwXwXwX-X[   C x.d.d.d.d.d.d.d.d.d.d.d.d.",
"d.d.d.d.d.d.d.d.d.d.d.x.x @ |.wXwXwXwXwXwXwXwXwXwXwXwX[.@ B x.d.d.d.d.d.d.d.d.d.d.d.",
"d.d.d.d.d.d.d.d.d.i.P.D   .XwX4XwXwXwXwXwXwXwXwXwXwX4XwX X  F T.i.d.d.d.d.d.d.d.d.d.",
"d.d.d.d.d.d.d.d.i.F.=.  (.wX4XwXwXwXwXwXwXwXwXwXwXwXwX4XwX/.  -.A.i.d.d.d.d.d.d.d.d.",
"d.d.d.d.d.d.d.d.d.A.d n wXwXwXwXwXwXwXwXwXwXwXwXwXwXwXwXwXwXb h A.i.d.d.d.d.d.d.d.d.",
"d.d.d.d.d.d.d.i.A.:.  {.wXwXwXwXwXwXwXwXwXwXwXwXwXwXwXwX8XwX{.  1.A.i.d.d.d.d.d.d.d.",
"d.d.d.d.d.d.d.r.T.D 9 ,XwXwXwXwXwXwXwXwXwXwXwXwXwXwXwXwXwXwX,X9 G T.r.d.d.d.d.d.d.d.",
"d.d.d.d.d.d.d.i.P.h _ wXwXwXwXwXwXwXwXwXwXwXwXwXwXwXwXwXwXwXwX( j P.i.d.d.d.d.d.d.d.",
"d.d.d.d.d.d.d.d.x.< O.wXwXwXwXwXwXwXwXwXwXwXwXwXwXwXwXwXwXwXwXO.1 F.d.d.d.d.d.d.d.d.",
"d.d.d.d.d.d.d.d.j.% %.wX4XwXwXwXwXwXwXwXwXwXwXwXwXwXwXwXwX4XwX$.% x.d.d.d.d.d.d.d.d.",
"d.d.d.d.d.d.d.d.C.< O.wX,XwXwX4XwX4X8X8XwX4XwX4X4XwXwX4X4X4XwX..1 F.d.d.d.d.d.d.d.d.",
"d.d.d.d.d.d.d.i.P.h _ wXwXwXwXwXwXwXwXwXwXwXwXwXwXwXwXwXwXwXwX( j P.i.d.d.d.d.d.d.d.",
"d.d.d.d.d.d.d.r.T.F =  .} } } } } } }  .| | } } | | | } } |  .& K T.r.d.d.d.d.d.d.d.",
"d.d.d.d.d.d.d.i.A.1.a 2 1 2 2 2 2 2 2 2 2 2 2 1 2 2 2 2 2 2 2 a ,.A.i.d.d.d.d.d.d.d.",
"d.d.d.d.d.d.d.d.d.k.x.F.F.A.F.F.F.F.F.A.F.F.A.A.F.F.F.A.F.F.F.x.h.d.d.d.d.d.d.d.d.d.",
"d.d.d.d.d.d.d.d.d.d.d.d.i.d.d.d.d.i.d.d.d.d.i.d.d.d.d.d.d.d.d.d.d.d.d.d.d.d.d.d.d.d.",
"d.d.d.d.d.d.d.d.d.d.d.d.d.d.d.d.i.d.d.d.d.d.d.i.d.d.d.d.d.d.d.d.d.d.d.d.d.d.d.d.d.d.",
"d.d.d.d.d.d.d.d.d.d.d.d.d.d.d.d.d.d.d.d.d.d.d.d.d.d.d.d.d.d.d.d.d.d.d.d.d.d.d.d.d.d."
};
