/* XPM */
static char *pld__[] = {
/* columns rows colors chars-per-pixel */
"40 40 209 2",
"   c #000200010003",
".  c #0000000000CD",
"X  c #01F100000000",
"o  c #029000000000",
"O  c #01BF014200A9",
"+  c #03B3000F0000",
"@  c #053E00000000",
"#  c #04DC00E50000",
"$  c #061700000000",
"%  c #06AB000D0000",
"&  c #064501EC0000",
"*  c #076A02690000",
"=  c #08E404380000",
"-  c #0A77055C0000",
";  c #0E2D06610000",
":  c #0CFC07D801AA",
">  c #0E3308C90233",
",  c #027005AA09AB",
"<  c #030F063F0A2E",
"1  c #03CA069609FF",
"2  c #03CF06E70AAD",
"3  c #04A4077F0AFC",
"4  c #0A950C340E3E",
"5  c #0BEF0D730F6E",
"6  c #113B08A10000",
"7  c #1EFB11DC01DD",
"8  c #22711461033C",
"9  c #2C861CB1095E",
"0  c #313320370B7B",
"q  c #330521870C2F",
"w  c #35EE24020E23",
"e  c #3D9E29EB124D",
"r  c #3F112AFF1281",
"t  c #3F4C2B4A133C",
"y  c #1C271FCA246B",
"u  c #1CE520992549",
"i  c #20362376277F",
"p  c #24FC256125D5",
"a  c #268926D92730",
"s  c #224E254828EA",
"d  c #235C268A2AB2",
"f  c #26B929A72D3B",
"g  c #2D4930583414",
"h  c #304E335F371E",
"j  c #33D134A0358B",
"k  c #37873854393E",
"l  c #3A123C813F80",
"z  c #40522C161364",
"x  c #440031301A3D",
"c  c #452532051AAD",
"v  c #58B53E0A1D98",
"b  c #58C23E181DA6",
"n  c #5A2741D42442",
"m  c #5DEF44A325CC",
"M  c #66E74AA3285D",
"N  c #6A824D5129C5",
"B  c #6E7750412B5B",
"V  c #774A55402BBC",
"C  c #7B83585B2D78",
"Z  c #3E0F4054431A",
"A  c #3F1F41634426",
"S  c #5B265C2E5D71",
"D  c #5DD15EA75FAE",
"F  c #5B425DAA60A5",
"G  c #5CB25EF661C3",
"H  c #5F96607E61A3",
"J  c #60A661E46371",
"K  c #616A627763C9",
"L  c #624462DD6399",
"P  c #64AC642D6392",
"I  c #62E063C064CD",
"U  c #65EC656964C7",
"Y  c #656A660566C3",
"T  c #69956AC66C31",
"R  c #69E36B0E6C73",
"E  c #6F836F736F5E",
"W  c #71C871BF71B2",
"Q  c #719E732074F6",
"!  c #72D0743475E7",
"~  c #8BB5656B36C0",
"^  c #8D5A651E3404",
"/  c #8F04665E34C4",
"(  c #914967F63588",
")  c #92B6690F363B",
"_  c #91376948389C",
"`  c #942C6B7739D6",
"'  c #96076D1A3B25",
"]  c #96A66D703B34",
"[  c #99DA6FE53CB2",
"{  c #9B09709A3CDE",
"}  c #9FE073483CDB",
"|  c #A38575EB3E46",
" . c #A51C774A3F5D",
".. c #A60F789A4122",
"X. c #A88F79D340CB",
"o. c #AB677C7D433E",
"O. c #AEAA7EDB4481",
"+. c #B72684D14765",
"@. c #B7BB85CA48D2",
"#. c #BB2687B748ED",
"$. c #BC10885E4946",
"%. c #BDAB89D14A6E",
"&. c #BEED8ABA4AEE",
"*. c #BFFD8B8F4B95",
"=. c #C2CD8D994CAE",
"-. c #C4DB8F304DB3",
";. c #C5CB8FA34D8C",
":. c #C69B907B4E6F",
">. c #C7E491474EA2",
",. c #C7D091514ED1",
"<. c #C85091B84F1B",
"1. c #CE76953F4F6B",
"2. c #C87492675071",
"3. c #D10D9726507D",
"4. c #D09197CD5287",
"5. c #D2FA98895138",
"6. c #D38698F05171",
"7. c #D4159952519E",
"8. c #D17D988A530B",
"9. c #D2E9995D5322",
"0. c #D463998F51C4",
"q. c #D4D199DE51EE",
"w. c #D53A9A2A5218",
"e. c #D5D59A9A5252",
"r. c #D7A29BE85305",
"t. c #D82B9C4B533A",
"y. c #D4339A91543D",
"u. c #D85C9C6F534E",
"i. c #DA309DC6540B",
"p. c #DA809DFE5427",
"a. c #DAED9E4F5456",
"s. c #DBD89EEC5495",
"d. c #DC589F4F54D4",
"f. c #DC819F6D54E5",
"g. c #DDD6A0635568",
"h. c #DE7FA0CD5587",
"j. c #DE3CA1B257D1",
"k. c #DEEAA13155DC",
"l. c #DFF0A1F65655",
"z. c #E03EA22D566F",
"x. c #DE36A1B757DF",
"c. c #DF4DA280584C",
"v. c #E021A2DA5812",
"b. c #E0A3A28356B3",
"n. c #E0D0A2B556EB",
"m. c #E162A31F5724",
"M. c #E25FA3B35737",
"N. c #E299A3E5575E",
"B. c #E193A3DD588E",
"V. c #E323A4AB586D",
"C. c #E3ACA4E6584B",
"Z. c #E426A52E5855",
"A. c #E496A5625840",
"S. c #E4E6A5F65927",
"D. c #E592A649590D",
"F. c #8E9B8F8590A3",
"G. c #8FB490F5927D",
"H. c #911F926193DF",
"J. c #92F793D894EA",
"K. c #939D947D958F",
"L. c #975B983A994B",
"P. c #9AE699DE989B",
"I. c #9E0F9CF39B9F",
"U. c #9F509E509D22",
"Y. c #A2B3A1A9A068",
"T. c #A57AA5E1A65F",
"R. c #A7BFA814A87E",
"E. c #A803A854A8B9",
"W. c #AA55AB26AC26",
"Q. c #ACACAD81AE85",
"!. c #AE83AEE4AF5C",
"~. c #AF6BAFA9AFF6",
"^. c #B593B4E4B40C",
"/. c #B80FB8B0B975",
"(. c #C2F7C2EDC2E2",
"). c #CE07CD81CCDF",
"_. c #CF76CEF1CE50",
"`. c #D579D4FED467",
"'. c #D743D6A8D5F3",
"]. c #DBF8DB6FDAC9",
"[. c #DC6DDBCEDB0C",
"{. c #E4D7E3B1E249",
"}. c #E5F9E4D2E368",
"|. c #E799E728E6A0",
" X c #E842E7D5E751",
".X c #EAF1EA18E910",
"XX c #EE34ED56EC47",
"oX c #EE70ED83EC63",
"OX c #EEA7EDE0ECEA",
"+X c #F015EF52EE5D",
"@X c #F36FF34DF324",
"#X c #F3A6F37EF34F",
"$X c #F84BF6E3F52A",
"%X c #F7E2F7DEF7D9",
"&X c #F92CF8C7F849",
"*X c #FB3CF9DCF829",
"=X c #F972F911F899",
"-X c #FA61FA66FA6C",
";X c #FA70FA75FA7B",
":X c #FB39FB38FB38",
">X c #FBECFBE9FBE6",
",X c #FC96FC95FC94",
"<X c #FE08FE0BFE10",
"1X c #FF40FE5CFD45",
"2X c #FE81FE7FFE7D",
"3X c #FF0EFF0CFF09",
"4X c #FFFFFFBAFEAB",
"5X c #FF7EFF99FFBC",
"6X c #FFFCFFFDFFFD",
/* pixels */
"e.e.e.e.e.e.e.e.e.e.e.e.e.e.r.7.r.7.r.7.e.e.e.e.e.e.e.e.e.e.e.e.e.e.e.e.e.e.e.e.",
"e.e.e.e.e.e.e.e.e.e.e.e.e.e.7.r.7.r.r.7.e.e.e.e.e.e.e.e.e.e.e.e.e.e.e.e.e.e.e.e.",
"e.e.e.e.e.e.e.e.e.e.e.e.e.e.e.7.r.7.7.r.e.7.e.e.e.e.e.e.e.e.e.e.e.e.e.e.e.e.e.e.",
"e.e.e.e.e.e.e.e.e.e.e.e.e.e.e.r.7.g.V.8.r.A.s.3.e.e.e.e.e.e.e.e.e.e.e.e.e.e.e.e.",
"e.e.e.e.e.e.e.e.e.e.e.e.r.7.r.7.l.$.e @ @ z &.l.7.e.e.e.e.e.e.e.e.e.e.e.e.e.e.e.",
"e.e.e.e.e.e.e.e.e.e.e.e.7.r.7.i.#.: d H.G.i > $.i.7.e.e.e.e.e.e.e.e.e.e.e.e.e.e.",
"e.e.e.e.e.e.e.e.e.e.e.e.r.7.7.V.e f -X6X6X%Xs z V.7.e.e.e.e.e.e.e.e.e.e.e.e.e.e.",
"e.e.e.e.e.e.e.e.e.e.e.e.e.e.u.8.@ K.6X%X%X6XF.@ 8.u.7.e.e.e.e.e.e.e.e.e.e.e.e.e.",
"e.e.e.e.e.e.e.e.e.e.e.e.e.e.t.3.@ L.6X-X-X6XJ.@ 3.u.e.e.e.e.e.e.e.e.e.e.e.e.e.e.",
"e.e.e.e.e.e.e.e.e.e.e.e.e.e.7.l.w h 6X6X6X6Xg w v.7.e.e.e.e.e.e.e.e.e.e.e.e.e.e.",
"e.e.e.e.e.e.e.e.e.e.e.e.e.e.3.A.2.* Y 6X6XL * 2.V.2.s.e.e.e.e.e.e.e.e.e.e.e.e.e.",
"e.e.e.e.e.e.e.e.e.e.e.e.e.7.m.@.v   k 6X6Xj   v #.B.7.e.e.e.e.e.e.e.e.e.e.e.e.e.",
"e.e.e.e.e.e.e.e.e.e.e.e.7.m.~   u R _.6X6X).T y   ~ m.3.e.e.e.e.e.e.e.e.e.e.e.e.",
"e.e.e.e.e.e.e.e.e.e.e.7.l...  W 6X6X6X6X6X6X6X6XE   ..l.3.e.e.e.e.e.e.e.e.e.e.e.",
"e.e.e.e.e.e.e.e.e.e.e.7.v.9 A 6X6X-X6X6X6X,X-X6X6XZ 9 B.e.e.e.e.e.e.e.e.e.e.e.e.",
"e.e.e.e.e.e.e.e.e.e.e.i.-.  E.6X-X6X6X6X6X6X6X-X6XW.  =.s.e.e.e.e.e.e.e.e.e.e.e.",
"e.e.e.e.e.e.e.e.e.e.7.i.+.  (.6X-X6X6X6X6X6X6X,X6X(.  +.l.7.7.e.e.e.e.e.e.e.e.e.",
"e.e.e.e.e.e.e.e.e.e.e.s.:.  T.6X-X6X6X6X6X6X6X-X6XT.  -.s.7.e.e.e.e.e.e.e.e.e.e.",
"e.e.e.e.e.e.e.e.e.e.e.7.B.0 l 6X6X6X6X6X6X6X,X6X6Xl q B.7.e.e.e.e.e.e.e.e.e.e.e.",
"e.e.e.e.e.e.e.e.e.e.e.7.l.o.  L %X6X6X6X6X6X6X&XL   O.l.7.e.e.e.e.e.e.e.e.e.e.e.",
"e.e.e.e.e.e.e.e.e.e.e.e.7.l.'   p |.6X6X6X6X|.p @ [ l.7.e.e.e.e.e.e.e.e.e.e.e.e.",
"e.e.e.e.e.e.e.e.e.e.e.e.7.m.v.n   ^.6X-X-X6X^.  m v.l.7.e.e.e.e.e.e.e.e.e.e.e.e.",
"e.e.e.e.e.e.e.e.e.e.e.7.A._ - 5 Y @X6X6X6X6X@XL 4 - ` A.7.7.e.e.e.e.e.e.e.e.e.e.",
"e.e.e.e.e.e.e.e.e.e.7.m.M   K OX6X6X6X6X6X6X6X6XOXH   N m.7.e.e.e.e.e.e.e.e.e.e.",
"e.e.e.e.e.e.e.e.7.7.V.N   Y.6X,X-X6X6X6X6X6X6X6X6X6XU.  B V.7.e.e.e.e.e.e.e.e.e.",
"e.e.e.e.e.e.e.e.7.B.'   I.6X-X6X6X6X6X6X6X6X6X6X6X-X6XP.  [ m.7.e.e.e.e.e.e.e.e.",
"e.e.e.e.e.e.e.e.u.7.; D 6X-X6X6X6X6X6X6X6X6X6X6X6X6X-X6XS 6 7.e.e.e.e.e.e.e.e.e.",
"e.e.e.e.e.e.e.3.A.V < }.6X6X6X6X6X6X6X6X6X6X6X6X6X6X,X6X{.< C A.3.e.e.e.e.e.e.e.",
"e.e.e.e.e.e.e.e.l.7 G 6X-X6X6X6X6X6X6X6X6X6X6X6X6X6X6X-X6XF 8 v.7.e.e.e.e.e.e.e.",
"e.e.e.e.e.e.e.i.&.  ~.6X,X6X6X6X6X6X6X6X6X6X6X6X6X6X6X-X6X!.  =.s.e.e.e.e.e.e.e.",
"e.e.e.e.e.e.7.m.}   ].6X6X6X6X6X6X6X6X6X6X6X6X6X6X6X6X6X6X].  | m.7.e.e.e.e.e.e.",
"e.e.e.e.e.e.7.V.^ < XX6X6X6X6X6X6X6X6X6X6X6X6X6X6X6X6X6X6XOX3 ( V.3.e.e.e.e.e.e.",
"e.e.e.e.e.e.7.V.~ 1 .X6X-X-X6X-X-X6X-X-X6X-X-X,X,X,X,X-X6X.X1 ( V.7.e.e.e.e.e.e.",
"e.e.e.e.e.e.7.l. .  '.6X6X6X6X6X6X6X6X6X6X6X6X6X6X6X6X6X6X'.  X.m.7.e.e.e.e.e.e.",
"e.e.e.e.e.e.7.s.-.@ ! /.W.!.!.Q.!.Q.Q.!.!.!.Q.!.Q.!.Q.W./.! @ :.s.7.e.e.e.e.e.e.",
"e.e.e.e.e.e.7.7.l.x                                         x l.7.e.e.e.e.e.e.e.",
"e.e.e.e.e.e.e.e.e.1.-.:.:.:.<.<.-.:.:.:.:.-.:.:.:.:.-.:.:.:.1.e.7.e.e.e.e.e.e.e.",
"e.e.e.e.e.e.e.e.e.e.s.s.i.i.i.i.s.s.s.s.i.s.s.s.i.i.s.s.i.i.e.e.e.e.e.e.e.e.e.e.",
"e.e.e.e.e.e.e.e.e.e.e.7.7.7.e.e.7.e.e.7.e.e.e.e.e.e.e.7.e.e.e.e.e.e.e.e.e.e.e.e.",
"e.e.e.e.e.e.e.e.e.e.e.e.e.e.e.e.e.e.e.e.e.e.e.e.e.e.e.e.e.e.e.e.e.e.e.e.e.e.e.e."
};
