/* XPM */
static char *pld__[] = {
/* columns rows colors chars-per-pixel */
"41 41 214 2",
"   c black",
".  c #0000000000BD",
"X  c #033500000000",
"o  c #0000000001A8",
"O  c #00000000029B",
"+  c #059400000000",
"@  c #055201BC0099",
"#  c #080100BE0005",
"$  c #099D01880061",
"%  c #0C95041B0000",
"&  c #0FA806550000",
"*  c #10DA06B90000",
"=  c #18FC0E620171",
"-  c #1F1D118B00FC",
";  c #1C8410FC02E9",
":  c #0CEC0E2E1014",
">  c #149318121C57",
",  c #238514E00301",
"<  c #23AA14FA030F",
"1  c #2A371AA10804",
"2  c #2B1A1B610897",
"3  c #2C691D620B0B",
"4  c #2C1E1DE50C8B",
"5  c #2C7D1E450CEB",
"6  c #2EFE1F410C0D",
"7  c #3DC529321016",
"8  c #3CD229C11343",
"9  c #3EC52B391415",
"0  c #18801BF3202A",
"q  c #1A3E1DAF21F2",
"w  c #258929122D63",
"e  c #2A5A2C2F2E6B",
"r  c #29A32D203161",
"t  c #2A922DC731BB",
"y  c #2B082E383227",
"u  c #2CD72EB330F9",
"i  c #2C2F2F2D32F1",
"p  c #2C1C2FE9348D",
"a  c #2CF930A8352E",
"s  c #2E9931893542",
"d  c #31E035353947",
"f  c #32E736233A15",
"g  c #420A2C5011CC",
"h  c #45342EEA13B7",
"j  c #517437A71829",
"k  c #5232386018DE",
"l  c #50333A1D1F4C",
"z  c #55CD3BB21BD4",
"x  c #56ED3C821C43",
"c  c #53F53CE920DC",
"v  c #56B53E8A2108",
"b  c #56DB3EB12133",
"n  c #59C440562152",
"m  c #5A0B40A1219C",
"M  c #5DC0439A2400",
"N  c #5DEA43C42426",
"B  c #601F43301FE1",
"V  c #6109440D20AF",
"C  c #62A54785266A",
"Z  c #66CD4A962826",
"A  c #69634C642934",
"S  c #6B084D732966",
"D  c #6CD14EDE2A61",
"F  c #792F580D2F9E",
"G  c #7D495AF4307E",
"H  c #7E3E5BAC3134",
"J  c #3ED3414D4473",
"K  c #414D43D246F2",
"L  c #47BE49634B66",
"P  c #4C614C0A4B94",
"I  c #4A0F4B8E4D62",
"U  c #4DF74D994D1A",
"Y  c #5161518251A5",
"T  c #523752475253",
"R  c #530E52FC52EA",
"E  c #543A540D53D7",
"W  c #5FCD5FB15F5B",
"Q  c #603B600C5F9F",
"!  c #5B2A5DB160C8",
"~  c #620B6476676C",
"^  c #7B4E7AED7A81",
"/  c #7BCC7B4E7AB4",
"(  c #798E7B487D63",
")  c #7A857C147DFC",
"_  c #7A157C027E51",
"`  c #81415CE63089",
"'  c #81B75D5A30F9",
"]  c #90E868B637A9",
"[  c #9137695B389C",
"{  c #92F86AB13971",
"}  c #95066BB83952",
"|  c #9A65704B3CEB",
" . c #992770A93F4E",
".. c #9E4972E93DFA",
"X. c #9E43731D3E79",
"o. c #9DAC73E940FC",
"O. c #AA807BDA42EB",
"+. c #AB387C6A434C",
"@. c #ABA77D0843F5",
"#. c #ADB17E8944D4",
"$. c #B3AA829A46BA",
"%. c #B5F48442479C",
"&. c #B9FF871F490A",
"*. c #BD57898B4A54",
"=. c #BE168A454B09",
"-. c #C1408C7B4C15",
";. c #C4348EC14D88",
":. c #C6E090B14E91",
">. c #CEC896975204",
",. c #D08896C0503C",
"<. c #D2D69870512C",
"1. c #D39E99005178",
"2. c #D409994D51A1",
"3. c #D0F5982D52E0",
"4. c #D28798B9522F",
"5. c #D471999551C1",
"6. c #D4CD99DA51EB",
"7. c #D53D9A2C5217",
"8. c #D5D49A995252",
"9. c #D6709B02527F",
"0. c #D6CD9B3F5293",
"q. c #D7659BBC52EC",
"w. c #D8429C5C5343",
"e. c #D4EB9B155480",
"r. c #D53F9B6654CF",
"t. c #D6999C495520",
"y. c #D7EA9CF254FB",
"u. c #D8BF9CB65373",
"i. c #DA669DEB541D",
"p. c #D9A19E2D559E",
"a. c #DAF89E555455",
"s. c #DB879EBF5493",
"d. c #DC299F3554D2",
"f. c #DAFA9EE9559A",
"g. c #DC329F665527",
"h. c #D8839DAB55DC",
"j. c #DB549FCF572C",
"k. c #DCF79FCC5528",
"l. c #DDD3A0685574",
"z. c #DF23A1805646",
"x. c #DFBFA1DA5655",
"c. c #E018A23556B1",
"v. c #DFA5A2505777",
"b. c #DFFFA31258B8",
"n. c #E0ECA2DE5721",
"m. c #E189A31E56EF",
"M. c #E1D6A36E5743",
"N. c #E2D4A4025769",
"B. c #E339A458579B",
"V. c #E125A3DD5914",
"C. c #E3E6A4ED5814",
"Z. c #E44BA53B5846",
"A. c #E329A51C5961",
"S. c #E4D3A5A65892",
"D. c #E50DA66259E8",
"F. c #E5E1A6E35A05",
"G. c #E669A72459EE",
"H. c #E71DA7B45A53",
"J. c #EC50AAF45B30",
"K. c #86A0883F8A3C",
"L. c #8AF38A168909",
"P. c #8C898BEC8B28",
"I. c #88B48A5A8C5E",
"U. c #90208F748EA1",
"Y. c #910A901E8EF5",
"T. c #8F0F9001912A",
"R. c #91D09138907F",
"E. c #917F92599364",
"W. c #93E7935392A4",
"Q. c #9476958796D5",
"!. c #9820970F95C1",
"~. c #9B2C9A05989D",
"^. c #A4A5A365A1D6",
"/. c #A657A51BA39B",
"(. c #A797A7CBA805",
"). c #A7C3A853A903",
"_. c #A872A8DDA960",
"`. c #A963A98BA9B5",
"'. c #B0E1AF86ADE2",
"]. c #B12BB176B1D3",
"[. c #B40CB2A1B0E6",
"{. c #B2EEB256B19C",
"}. c #B298B2BFB2EE",
"|. c #B6CFB639B580",
" X c #BA9FBAA4BAAB",
".X c #CD8ECCA1CB81",
"XX c #CEE6CDF1CCC6",
"oX c #D7BAD6B4D575",
"OX c #DA89D982D840",
"+X c #E8DCE87CE807",
"@X c #E9DFE986E914",
"#X c #EA81EA53EA1E",
"$X c #EC71EC44EC12",
"%X c #F336F28AF1B8",
"&X c #F3ADF371F328",
"*X c #F3E6F3ADF36B",
"=X c #F499F3EFF320",
"-X c #FA38F955F83F",
";X c #F89FF89CF899",
":X c #FA10FA10FA0F",
">X c #FA81F99EF888",
",X c #FB38FB53FB77",
"<X c #FBF5FBF5FBF6",
"1X c #FCB0FB84FA17",
"2X c #FDFFFCD2FB66",
"3X c #FD11FD14FD17",
"4X c #FD83FD7FFD7B",
"5X c #FDF5FDF4FDF3",
"6X c #FF55FE26FCB4",
"7X c #FF02FF04FF06",
"8X c #FF82FF80FF7E",
"9X c #FF50FF6BFF8C",
"0X c #FF6EFF8AFFAE",
"qX c #FFFBFFFBFFFB",
/* pixels */
"8.8.8.8.8.8.8.8.8.8.8.8.8.8.8.8.8.8.8.8.8.8.8.8.8.8.8.8.8.8.8.8.8.8.8.8.8.8.8.8.8.",
"8.8.8.8.8.8.8.8.8.8.8.8.8.8.8.8.8.8.8.8.8.8.8.8.8.8.8.8.8.8.8.8.8.8.8.8.8.8.8.8.8.",
"8.8.8.8.8.8.8.8.8.8.8.8.8.8.8.8.8.8.<.<.8.<.,.8.8.8.8.8.8.8.8.8.8.8.8.8.8.8.8.8.8.",
"8.8.8.8.8.8.8.8.8.8.8.8.8.8.8.8.8.8.m.A.g.G.m.8.8.8.8.8.8.8.8.8.8.8.8.8.8.8.8.8.8.",
"8.8.8.8.8.8.8.8.8.8.8.8.8.8.8.8.8.z.] 1 * 2 { z.8.8.8.8.8.8.8.8.8.8.8.8.8.8.8.8.8.",
"8.8.8.8.8.8.8.8.8.8.8.8.8.8.8.<.m.S   K _ J   D m.<.8.8.8.8.8.8.8.8.8.8.8.8.8.8.8.",
"8.8.8.8.8.8.8.8.8.8.8.8.8.8.8.z.O.  U.qX,XqXL.  @.z.<.8.8.8.8.8.8.8.8.8.8.8.8.8.8.",
"8.8.8.8.8.8.8.8.8.8.8.8.8.8.,.G.B 0 qXqX,XqX,X> V G.<.8.8.8.8.8.8.8.8.8.8.8.8.8.8.",
"8.8.8.8.8.8.8.8.8.8.8.8.8.8.<.G.j y qXqXqXqXqXw k G.<.8.8.8.8.8.8.8.8.8.8.8.8.8.8.",
"8.8.8.8.8.8.8.8.8.8.8.8.8.8.<.G.H   OXqX,XqXoX  ' A.<.8.8.8.8.8.8.8.8.8.8.8.8.8.8.",
"8.8.8.8.8.8.8.8.8.8.8.8.8.8.8.8.g.4 u %XqX%Xe 4 g.8.<.8.8.8.8.8.8.8.8.8.8.8.8.8.8.",
"8.8.8.8.8.8.8.8.8.8.8.8.8.<.8.V.=.b   |.qX{.  n =.m.8.8.8.8.8.8.8.8.8.8.8.8.8.8.8.",
"8.8.8.8.8.8.8.8.8.8.8.8.8.8.g.M   : U $XqX@XP :   M g.8.8.8.8.8.8.8.8.8.8.8.8.8.8.",
"8.8.8.8.8.8.8.8.8.8.8.8.<.m.b   W.-XqXqXqXqXqX;XR.  b m.<.8.8.8.8.8.8.8.8.8.8.8.8.",
"8.8.8.8.8.8.8.8.8.8.8.<.m.X.  /.qX,XqXqXqXqX,XqXqX^.  X.m.<.8.8.8.8.8.8.8.8.8.8.8.",
"8.8.8.8.8.8.8.8.8.8.8.<.G.h y qX,XqXqXqXqXqXqXqX<XqXy h G.<.8.8.8.8.8.8.8.8.8.8.8.",
"8.8.8.8.8.8.8.8.8.8.8.8.b.- ~ qX,XqXqXqXqXqXqXqX,XqX~ , z.8.8.8.8.8.8.8.8.8.8.8.8.",
"8.8.8.8.8.8.8.8.8.8.8.8.V., ! qX,XqXqXqXqXqXqXqX,XqX! < b.<.8.8.8.8.8.8.8.8.8.8.8.",
"8.8.8.8.8.8.8.8.8.8.8.<.G.z 0 qXqX,XqXqXqXqXqX,XqX2X0 x G.<.8.8.8.8.8.8.8.8.8.8.8.",
"8.8.8.8.8.8.8.8.8.8.8.<.k.$.  ^ qXqXqXqXqXqXqXqXqX^   %.z.<.8.8.8.8.8.8.8.8.8.8.8.",
"8.8.8.8.8.8.8.8.8.8.8.8.<.B.F   R +XqXqXqX,XqX+XR   H m.<.8.8.8.8.8.8.8.8.8.8.8.8.",
"8.8.8.8.8.8.8.8.8.8.8.8.8.,.J.|   R qXqXqX,XqXR   o.J.,.8.8.8.8.8.8.8.8.8.8.8.8.8.",
"8.8.8.8.8.8.8.8.8.8.8.<.8.A.@.9   ~ qX2XqX2XqX!   9 #.G.<.8.8.8.8.8.8.8.8.8.8.8.8.",
"8.8.8.8.8.8.8.8.8.8.8.8.z.S   s `.%XqX2XqXqXqX%X).u   D A.8.<.8.8.8.8.8.8.8.8.8.8.",
"8.8.8.8.8.8.8.8.8.8.8.z.l   P.qXqX,XqXqXqXqXqXqXqXqXP.  c z.8.8.8.8.8.8.8.8.8.8.8.",
"8.8.8.8.8.8.8.8.8.<.B.C   [.qX,X,XqXqXqXqXqXqXqX,X,XqX'.  Z A.<.8.8.8.8.8.8.8.8.8.",
"8.8.8.8.8.8.8.8.<.B.|   ~.qX,XqXqXqXqXqXqXqXqXqXqXqX,XqXQ.  X.m.<.8.8.8.8.8.8.8.8.",
"8.8.8.8.8.8.8.8.8.t.= I qX,XqXqXqXqXqXqXqXqXqXqXqXqXqX,XqXL ; g.8.8.8.8.8.8.8.8.8.",
"8.8.8.8.8.8.8.<.m.{   XXqXqXqXqXqXqXqXqXqXqXqXqXqXqXqXqXqX.X  } V.<.8.8.8.8.8.8.8.",
"8.8.8.8.8.8.8.<.G.7 d qX<XqXqXqXqXqXqXqXqXqXqXqXqXqXqXqXqXqXd g G.<.8.8.8.8.8.8.8.",
"8.8.8.8.8.8.8.8.t.% ) qX,XqXqXqXqXqXqXqXqXqXqXqXqXqXqXqX,XqX_ % g.8.8.8.8.8.8.8.8.",
"8.8.8.8.8.8.8.g.;.  `.qX,XqXqXqXqXqXqXqXqXqXqXqXqXqXqXqX2XqX`.  ;.g.8.8.8.8.8.8.8.",
"8.8.8.8.8.8.<.g.&.   XqXqXqXqXqXqXqXqXqXqXqXqXqXqXqXqXqX3XqX X  =.g.<.8.8.8.8.8.8.",
"8.8.8.8.8.8.8.g.=.  {.qX;X,X,X,X,X,X,X,X,X,X,X,X,X,X,X,X;XqX{.  -.g.8.8.8.8.8.8.8.",
"8.8.8.8.8.8.8.u.>.  R.qX,XqXqXqXqXqXqXqXqXqXqXqXqXqXqXqX,XqXT.@ <.8.<.8.8.8.8.8.8.",
"8.8.8.8.8.8.8.8.z.3 s Q.K.I.I.I.I.I.I.I.I.I.I.I.I.I.I.I.K.Q.s 6 b.8.8.8.8.8.8.8.8.",
"8.8.8.8.8.8.8.,.A.H @ # # # # # # # # # # # # # # # # # # # @ H m.<.8.8.8.8.8.8.8.",
"8.8.8.8.8.8.8.8.8.8.<.e.e.e.e.e.e.e.e.e.e.e.e.e.e.e.e.e.e.t.<.8.8.8.8.8.8.8.8.8.8.",
"8.8.8.8.8.8.8.8.8.8.8.u.8.8.8.w.8.u.8.8.8.u.8.w.8.8.u.8.w.8.8.8.8.8.8.8.8.8.8.8.8.",
"8.8.8.8.8.8.8.8.8.8.8.8.8.8.8.8.8.8.8.8.8.8.8.8.8.8.8.8.8.8.8.8.8.8.8.8.8.8.8.8.8.",
"8.8.8.8.8.8.8.8.8.8.8.8.8.8.8.8.8.8.8.8.8.8.8.8.8.8.8.8.8.8.8.8.8.8.8.8.8.8.8.8.8."
};
