/* XPM */
static char *pld__[] = {
/* columns rows colors chars-per-pixel */
"43 43 224 2",
"   c #000400000002",
".  c #00000000013F",
"X  c #000000000233",
"o  c #0ECC073B0000",
"O  c #0F4207B20011",
"+  c #03D5063B0931",
"@  c #05C5080C0AEA",
"#  c #0640099D0DB7",
"$  c #07720AC80ED2",
"%  c #137109DF0000",
"&  c #14750A9B0000",
"*  c #0D170F9512F6",
"=  c #0E2210BB142C",
"-  c #12DC155F189E",
";  c #13B7163B198F",
":  c #1323170E1BD7",
">  c #159418AB1C84",
",  c #251516550455",
"<  c #259D16DB04D9",
"1  c #2E731D430849",
"2  c #2E3F1D4B089A",
"3  c #2D881D8A0A04",
"4  c #37B725000E28",
"5  c #392225A40DDA",
"6  c #3854259B0EC2",
"7  c #3D3A289C0F74",
"8  c #2FD7227A124E",
"9  c #364324F40FD3",
"0  c #348325A3137A",
"q  c #332C24FD13B8",
"w  c #3DD129090FAC",
"e  c #3F8D2A9110F6",
"r  c #3E3D2AD3132E",
"t  c #39A4283C1394",
"y  c #385A287D1521",
"u  c #3BD929DA147C",
"i  c #18DC1C192019",
"p  c #1A301D482117",
"a  c #1E932127244C",
"s  c #1F8D221E2540",
"d  c #231D26ED2B95",
"f  c #2482283B2CC6",
"g  c #28242A8D2DB2",
"h  c #2A5F2CC72FDF",
"j  c #2B8B2E6D31F1",
"k  c #2C3B2FE03452",
"l  c #2CAE30363486",
"z  c #2F65324535C8",
"x  c #2EB3329B374D",
"c  c #332C36A63AE5",
"v  c #33D937323B48",
"b  c #360E387F3B79",
"n  c #365938BC3BA6",
"m  c #44092DD012B2",
"M  c #42912E0514FA",
"N  c #47C23201175B",
"B  c #47E130F114F4",
"V  c #485732431746",
"C  c #4C1E340F16B3",
"Z  c #422B300119CF",
"A  c #471A33901BB2",
"S  c #49D5335B17EB",
"D  c #4B6B36A01D40",
"F  c #4BE036F51D6F",
"G  c #5A753F401E0B",
"H  c #51A13BD32138",
"J  c #52883BC92043",
"K  c #52053C362199",
"L  c #55CC3E332197",
"P  c #5BEE40F92015",
"I  c #5CCC41B320A3",
"U  c #5F2842A81FE1",
"Y  c #604245B12546",
"T  c #64D1490B2727",
"R  c #6C264CD926A8",
"E  c #6A814EB32CE1",
"W  c #6F0551F32E8C",
"Q  c #70404FE12861",
"!  c #79FA585A2F51",
"~  c #7D455ABB3096",
"^  c #7FB55CA131E1",
"/  c #3F7742C146C5",
"(  c #400743584764",
")  c #42BD461E4A3E",
"_  c #487A4AFA4E06",
"`  c #4D714D3F4D05",
"'  c #4FA34F764F57",
"]  c #4D074F7F5284",
"[  c #5391550256C7",
"{  c #5E205DB35D2F",
"}  c #6419639F630C",
"|  c #660967CB69EA",
" . c #666268246A41",
".. c #714070AE7009",
"X. c #728271E67137",
"o. c #77D3776A76CF",
"O. c #793278B8781D",
"+. c #7A05798378DC",
"@. c #81A45E0E32A6",
"#. c #89AC634F347D",
"$. c #88D263473575",
"%. c #8DFB6670362F",
"&. c #91AA69DB394C",
"*. c #A04E73E53DB3",
"=. c #A2A675983E9C",
"-. c #A402776F40EB",
";. c #A5F178E041C1",
":. c #A7D879F641F8",
">. c #A8AF7A964256",
",. c #ACE77DBF4435",
"<. c #AD2F7DDA4417",
"1. c #B040804845BE",
"2. c #B2C981FE4672",
"3. c #B2AF820746A6",
"4. c #B3EA82EC4723",
"5. c #B719855648A2",
"6. c #BB0988284A11",
"7. c #BB3C884D4A24",
"8. c #80EA80517F97",
"9. c #C0B08C544C6E",
"0. c #C3C68E8F4D9F",
"q. c #C60990424EA4",
"w. c #CEAB95694F88",
"e. c #CFD996B950FF",
"r. c #D24E980D50F6",
"t. c #D1CE981D51B6",
"y. c #D2D89872512D",
"u. c #D38E98F55172",
"i. c #D3FC9945519E",
"p. c #D471999551C0",
"a. c #D4C699D251E1",
"s. c #D5399A295217",
"d. c #D5D59A9A5252",
"f. c #D6749B0D528F",
"g. c #D6CA9B4852A9",
"h. c #D7679BAE52CC",
"j. c #D7CB9C045311",
"k. c #D7A79C6D5419",
"l. c #D77E9CBF550E",
"z. c #D80A9D245544",
"x. c #D9BA9D5853A9",
"c. c #D8C29D0D5430",
"v. c #D9039D645497",
"b. c #DA3F9DB753DC",
"n. c #DAA29E13542D",
"m. c #DA469E2154BB",
"M. c #DB069E6B5474",
"N. c #DBC09EE4549F",
"B. c #DC669F4F54C3",
"V. c #DCB89FA05514",
"C. c #DE1DA0985585",
"Z. c #DF0DA14755E4",
"A. c #DF98A1AD561E",
"S. c #E051A22F565D",
"D. c #E0C1A289569C",
"F. c #E1E5A34056CD",
"G. c #E140A2F256E9",
"H. c #E0E6A32857D1",
"J. c #E1D0A33E56E0",
"K. c #E267A3A75711",
"L. c #E0A5A36758AC",
"P. c #E2E1A4625820",
"I. c #E3F8A50A583F",
"U. c #E45CA53A582E",
"Y. c #E326A503592E",
"T. c #E3A6A58059A9",
"R. c #E498A57B5873",
"E. c #E4FFA614594B",
"W. c #E648A6D0595C",
"Q. c #E6F3A75D59C4",
"!. c #E534A6895A0E",
"~. c #E5EEA7075A45",
"^. c #E65CA73B5A30",
"/. c #E6BEA76F5A2C",
"(. c #ECD9ABE05C97",
"). c #839B82E9820F",
"_. c #887988D1893C",
"`. c #8A168A498A86",
"'. c #8AA38AF28B53",
"]. c #8B0E8B598BB4",
"[. c #919990B08F9C",
"{. c #952D94429323",
"}. c #9678965B962E",
"|. c #981A97F197B6",
" X c #9FB69EBA9D88",
".X c #A31AA229A104",
"XX c #A62EA623A616",
"oX c #A632A628A61B",
"OX c #ABFDAA51A848",
"+X c #B263B1E9B155",
"@X c #B36BB2EAB24D",
"#X c #B54DB506B4AF",
"$X c #BC0EBA82B89B",
"%X c #BEDEBD53BB71",
"&X c #C356C1E2C01C",
"*X c #C659C4EAC323",
"=X c #C740C6C8C62C",
"-X c #CB34CABCCA21",
";X c #D471D392D282",
":X c #D749D66AD55A",
">X c #D8DFD7E5D6B6",
",X c #F21FF0E1EF5D",
"<X c #F352F214F07E",
"1X c #F27CF24DF216",
"2X c #F2CCF29CF264",
"3X c #F712F611F4D6",
"4X c #F677F641F5FC",
"5X c #F82EF73FF604",
"6X c #F739F705F6C1",
"7X c #F885F763F601",
"8X c #F893F78FF64E",
"9X c #F959F83DF6E3",
"0X c #F9B1F8A0F752",
"qX c #FA3AFA3BFA3D",
"wX c #FB87FA82F933",
"eX c #FC72FB3BF9BF",
"rX c #FAE3FAE1FADF",
"tX c #FC1FFC1FFC1F",
"yX c #FD56FC40FAED",
"uX c #FC78FC80FC88",
"iX c #FD06FD08FD08",
"pX c #FE13FE16FE1A",
"aX c #FF17FF16FF15",
"sX c #FFFAFFFAFFFA",
/* pixels */
"d.d.d.d.d.d.d.d.d.d.d.d.d.d.d.d.d.d.d.d.d.d.d.d.d.d.d.d.d.d.d.d.d.d.d.d.d.d.d.d.d.d.d.",
"d.d.d.d.d.d.d.d.d.d.d.d.d.d.d.d.d.d.d.d.d.d.d.d.d.d.d.d.d.d.d.d.d.d.d.d.d.d.d.d.d.d.d.",
"d.d.d.d.d.d.d.d.d.d.d.d.d.d.d.d.d.d.d.y.r.y.y.y.d.d.d.d.d.d.d.d.d.d.d.d.d.d.d.d.d.d.d.",
"d.d.d.d.d.d.d.d.d.d.d.d.d.d.d.d.d.d.y.Z.Q.Q.Q.Z.y.d.d.d.d.d.d.d.d.d.d.d.d.d.d.d.d.d.d.",
"d.d.d.d.d.d.d.d.d.d.d.d.d.d.d.d.d.d.H.2.P 7 I 2.H.y.d.d.d.d.d.d.d.d.d.d.d.d.d.d.d.d.d.",
"d.d.d.d.d.d.d.d.d.d.d.d.d.d.d.d.r.H.@.  = z *   @.H.y.d.d.d.d.d.d.d.d.d.d.d.d.d.d.d.d.",
"d.d.d.d.d.d.d.d.d.d.d.d.d.d.d.y.H.>.  } wXaX9X{   >.Z.y.d.d.d.d.d.d.d.d.d.d.d.d.d.d.d.",
"d.d.d.d.d.d.d.d.d.d.d.d.d.d.d.r.U.B p eXaXaXaX9X> C Q.y.d.d.d.d.d.d.d.d.d.d.d.d.d.d.d.",
"d.d.d.d.d.d.d.d.d.d.d.d.d.d.d.d.L.< ] aXwXaXwXaX_ < L.d.d.d.d.d.d.d.d.d.d.d.d.d.d.d.d.",
"d.d.d.d.d.d.d.d.d.d.d.d.d.d.d.r.T.6 x aXaXaXaXaXj 6 T.y.d.d.d.d.d.d.d.d.d.d.d.d.d.d.d.",
"d.d.d.d.d.d.d.d.d.d.d.d.d.d.d.d.H.$.  .XaXwXaX X  $.H.y.d.d.d.d.d.d.d.d.d.d.d.d.d.d.d.",
"d.d.d.d.d.d.d.d.d.d.d.d.d.d.d.y.V.(.K   :XaX;X  K (.V.y.d.d.d.d.d.d.d.d.d.d.d.d.d.d.d.",
"d.d.d.d.d.d.d.d.d.d.d.d.d.d.y.H.5.B O   -XaX=X  % B 5.H.y.d.d.d.d.d.d.d.d.d.d.d.d.d.d.",
"d.d.d.d.d.d.d.d.d.d.d.d.d.y.H.&.  ;  .@XaXaXaX@X| -   &.H.y.d.d.d.d.d.d.d.d.d.d.d.d.d.",
"d.d.d.d.d.d.d.d.d.d.d.d.y.Z.,.  ] 3XaXaXaXaXaXaXaX3X`   <.Z.d.d.d.d.d.d.d.d.d.d.d.d.d.",
"d.d.d.d.d.d.d.d.d.d.d.d.d.H.9 s 0XaXwXaXaXaXaXiXwXaX3Xs 4 H.y.d.d.d.d.d.d.d.d.d.d.d.d.",
"d.d.d.d.d.d.d.d.d.d.d.d.M.q.  _.aXwXaXaXaXaXaXaXaXwXaX].  q.M.d.d.d.d.d.d.d.d.d.d.d.d.",
"d.d.d.d.d.d.d.d.d.d.d.y.Z.2.  #XaXaXaXaXaXaXaXaXaXaXaX#X  2.Z.y.d.d.d.d.d.d.d.d.d.d.d.",
"d.d.d.d.d.d.d.d.d.d.d.y.Z.6.  oXaXiXaXaXaXaXaXaXaXiXaXoX  6.V.y.d.d.d.d.d.d.d.d.d.d.d.",
"d.d.d.d.d.d.d.d.d.d.d.d.d.k.% [ aXwXaXaXaXaXaXaXaXwXaX[ & M.d.d.d.d.d.d.d.d.d.d.d.d.d.",
"d.d.d.d.d.d.d.d.d.d.d.d.r.Q.!   OXaXaXaXaXaXaXaXaXaXOX  ~ T.y.d.d.d.d.d.d.d.d.d.d.d.d.",
"d.d.d.d.d.d.d.d.d.d.d.d.d.d.M.Z   X.3XaXaXaXaXaX3XX.  A M.d.d.d.d.d.d.d.d.d.d.d.d.d.d.",
"d.d.d.d.d.d.d.d.d.d.d.d.d.y.y.Q.E   +.aXaXaXaXaXo.  W Q.d.y.d.d.d.d.d.d.d.d.d.d.d.d.d.",
"d.d.d.d.d.d.d.d.d.d.d.d.d.j.L.-.t   O.aXwXaXwXaXo.  t ;.T.d.d.d.d.d.d.d.d.d.d.d.d.d.d.",
"d.d.d.d.d.d.d.d.d.d.d.y.b.M.K   j |.1XaXaXaXaXaX1X}.f   L M.M.y.d.d.d.d.d.d.d.d.d.d.d.",
"d.d.d.d.d.d.d.d.d.d.y.b.e.8   {.aXaXaXaXaXaXaXaXaXaXaX{.  q y.k.y.d.d.d.d.d.d.d.d.d.d.",
"d.d.d.d.d.d.d.d.d.d.d.M.9 @ =XaXaXwXaXaXaXaXaXaXaXaXwXaX*X+ y M.d.d.d.d.d.d.d.d.d.d.d.",
"d.d.d.d.d.d.d.d.d.r.T.Y   %XaXwXaXaXaXaXaXaXaXaXaXaXaXwXaX$X  T Q.y.d.d.d.d.d.d.d.d.d.",
"d.d.d.d.d.d.d.d.y.Z.,.  ).aXwXaXaXaXaXaXaXaXaXaXaXaXaXaXwXaX8.  1.Z.y.d.d.d.d.d.d.d.d.",
"d.d.d.d.d.d.d.d.y.T.r p 0XaXaXaXaXaXaXaXaXaXaXaXaXaXaXaXaXaX3Xp M Q.y.d.d.d.d.d.d.d.d.",
"d.d.d.d.d.d.d.d.M.9.  _.aXaXaXaXaXaXaXaXaXaXaXaXaXaXaXaXaXwXaX_.  9.b.d.d.d.d.d.d.d.d.",
"d.d.d.d.d.d.d.y.Q.#.  :XaXaXaXaXaXaXaXaXaXaXaXaXaXaXaXaXaXaXaX>X  %.I.y.d.d.d.d.d.d.d.",
"d.d.d.d.d.d.d.r.Q.G : eXaXaXaXaXaXaXaXaXaXaXaXaXaXaXaXaXaXaXaXyX> I Q.y.d.d.d.d.d.d.d.",
"d.d.d.d.d.d.d.y.Q.r z aXaXaXaXaXaXaXaXaXaXaXaXaXaXaXaXaXaXaXaXaXk m Q.y.d.d.d.d.d.d.d.",
"d.d.d.d.d.d.d.y.Q.4 c aXaXaXaXaXaXaXaXaXaXaXaXaXaXaXaXaXaXaXaXaXc r Q.y.d.d.d.d.d.d.d.",
"d.d.d.d.d.d.d.y.Q.N d aXtXwXaXaXaXwXaXaXaXaXaXwXaXwXaXaXaXwXaXaXd C Q.y.d.d.d.d.d.d.d.",
"d.d.d.d.d.d.d.y.Q.R $ 1XaXaXaXaXaXaXaXaXaXaXaXaXaXaXaXaXaXaXaX,X@ R Q.r.d.d.d.d.d.d.d.",
"d.d.d.d.d.d.d.y.H.*.  n ) / / ) / / ) / ) ( ( ( / ) / / ( ( ) n   -.Z.y.d.d.d.d.d.d.d.",
"d.d.d.d.d.d.d.d.d.w.D 2 2 2 2 2 2 2 2 2 2 2 2 2 2 2 2 2 2 2 2 2 F w.b.d.d.d.d.d.d.d.d.",
"d.d.d.d.d.d.d.d.d.d.Z.T.T.T.T.T.T.T.T.T.T.T.T.T.T.T.T.T.T.T.T.T.H.d.d.d.d.d.d.d.d.d.d.",
"d.d.d.d.d.d.d.d.d.d.d.y.y.y.d.y.y.y.y.y.d.y.y.y.d.y.y.y.d.y.y.y.y.d.d.d.d.d.d.d.d.d.d.",
"d.d.d.d.d.d.d.d.d.d.d.d.d.d.d.d.d.d.d.d.d.d.d.d.d.d.d.d.d.d.d.d.d.d.d.d.d.d.d.d.d.d.d.",
"d.d.d.d.d.d.d.d.d.d.d.d.d.d.d.d.d.d.d.d.d.d.d.d.d.d.d.d.d.d.d.d.d.d.d.d.d.d.d.d.d.d.d."
};
