/* XPM */
static char *pld__[] = {
/* columns rows colors chars-per-pixel */
"46 46 251 2",
"   c #000100000000",
".  c #00CD00000000",
"X  c #00D500B00074",
"o  c #018300000000",
"O  c #0340025A0140",
"+  c #000000000339",
"@  c #04B300000000",
"#  c #03B3022B004C",
"$  c #050902370000",
"%  c #0393021500FF",
"&  c #045402A10147",
"*  c #04DE01F101BE",
"=  c #073603D20000",
"-  c #00000174055F",
";  c #0000018E056E",
":  c #000001EE064D",
">  c #096C054A004E",
",  c #07BA04CD0147",
"<  c #0A23060B010D",
"1  c #0A100697025D",
"2  c #0DC5056B0000",
"3  c #0DDF06B90000",
"4  c #0CC707E40202",
"5  c #0539082B0BC1",
"6  c #05FF08ED0C80",
"7  c #074709390B9B",
"8  c #060D09BD0E3D",
"9  c #09880B4F0D81",
"0  c #09E10B6A0D60",
"q  c #0A9C0C380E42",
"w  c #111C07E50000",
"e  c #114B09440000",
"r  c #11160A5E022A",
"t  c #11780AC0028E",
"y  c #10C90C8A0778",
"u  c #19610E5800E1",
"i  c #138B0E760888",
"p  c #1D3811220263",
"a  c #1E4F15F00BD3",
"s  c #09800D2A11A4",
"d  c #0C8810181471",
"f  c #0D5210C91504",
"g  c #121712D513ED",
"h  c #148B1547162C",
"j  c #1CF91E031F48",
"k  c #1E111E851F14",
"l  c #20F017D20CF8",
"z  c #2C2A1F150F39",
"x  c #305C22451118",
"c  c #367A24FB0FA1",
"v  c #39E72781110E",
"b  c #3E252BD51613",
"n  c #1DB2202D2333",
"m  c #1F24217D245C",
"M  c #207C20F12180",
"N  c #20FC213E218F",
"B  c #2105216021D0",
"V  c #2262237924CE",
"C  c #251E264027A1",
"Z  c #2EE42ECB2EAB",
"A  c #30E030CB30B2",
"S  c #3B1F3C6E3E07",
"D  c #40B92DC1169B",
"F  c #40DE2DE716C2",
"G  c #49D233B018AC",
"H  c #4EB2373D1A9C",
"J  c #4C27366B1BE5",
"K  c #4EC2384B1CE5",
"L  c #4E4938AC1E4B",
"P  c #50133A081F22",
"I  c #57BF3DE41E56",
"U  c #58893EAA1F17",
"Y  c #56F43EEC21C7",
"T  c #594940A522C4",
"R  c #5EDD449724B7",
"E  c #620146EC2608",
"W  c #647547CD24D3",
"Q  c #6551489C2594",
"!  c #76CA55E22DBB",
"~  c #78E557682E8B",
"^  c #79B0581A2F1C",
"/  c #7AA258592E83",
"(  c #7B6D59042F06",
")  c #7AF9597C309D",
"_  c #7FBC5CF33281",
"`  c #3D653E893FF5",
"'  c #415243874639",
"]  c #4252445946D4",
"[  c #511852DA54FF",
"{  c #53CA555F574F",
"}  c #5887591659C3",
"|  c #5BA95C2D5CD4",
" . c #62B26231619A",
".. c #638D6302625D",
"X. c #649564226397",
"o. c #636564966609",
"O. c #643564BE6566",
"+. c #6428655B66D1",
"@. c #689B683067AC",
"#. c #69A56918686C",
"$. c #68BF69EB6B59",
"%. c #69926A8D6BC0",
"&. c #6C1A6C6F6CD8",
"*. c #6C9B6CEF6D56",
"=. c #710B709B7016",
"-. c #728C7376748B",
";. c #73D1748F7578",
":. c #761F75B0752B",
">. c #7A4379047780",
",. c #7ACD7B6F7C35",
"<. c #7B907C037C8F",
"1. c #809D5D563249",
"2. c #908D692A3919",
"3. c #917E69B33925",
"4. c #95026C673ADA",
"5. c #972D6DC63B41",
"6. c #A334765A3F9C",
"7. c #9AB1722840B1",
"8. c #9AD1724940D2",
"9. c #A3C7774140EC",
"0. c #A82079E9417F",
"q. c #A9847B3D42C4",
"w. c #AD027DBE440F",
"e. c #AF267F9E459E",
"r. c #AC7B7EB946E1",
"t. c #81007FB37E1D",
"y. c #B0CD80D6464D",
"u. c #B3A782734668",
"i. c #B71184F347C2",
"p. c #B0ED81EC4891",
"a. c #B6BD84F14807",
"s. c #BB4C87FD495E",
"d. c #BC2189034AA3",
"f. c #BD7A896E49EA",
"g. c #BCC589764AD7",
"h. c #BE718A3D4A88",
"j. c #C0B38BC24B26",
"k. c #C3278D134B15",
"l. c #C3558D354B28",
"z. c #C70A90694DBE",
"x. c #C71990794DCF",
"c. c #C6E090DC4EF1",
"v. c #C81C91D84F9E",
"b. c #CAD193AD5063",
"n. c #CB42941B50CD",
"m. c #CB58942E50DD",
"M. c #CDEB960751D3",
"N. c #CF0B96D15233",
"B. c #D243980750F6",
"V. c #D052975F51DE",
"C. c #D2A098495117",
"Z. c #D39298F85174",
"A. c #D3FF9947519D",
"S. c #D1B298BC5338",
"D. c #D2BA991852C4",
"F. c #D36E997C52B8",
"G. c #D47D99A151CC",
"H. c #D4EA99F051F8",
"J. c #D5359A265215",
"K. c #D5D69A9A5252",
"L. c #D4E49A83533B",
"P. c #D6779B0F5290",
"I. c #D7069B7452C1",
"U. c #D72D9BB1530D",
"Y. c #D78C9BD552F7",
"T. c #D80B9C3D533C",
"R. c #D65E9C0254CA",
"E. c #D84A9D62557F",
"W. c #D8E59CD1537F",
"Q. c #D9919D4D53C2",
"!. c #D8A79CF55418",
"~. c #DA229DB653FB",
"^. c #DA6F9DEE5418",
"/. c #DA559E2654B2",
"(. c #DB079E53543E",
"). c #DBA09ECA548D",
"_. c #DC399F3954C8",
"`. c #DB399F665664",
"'. c #DC9B9F7D54E8",
"]. c #DDFEA0795565",
"[. c #DEC7A10A55B4",
"{. c #DCFDA0AC5710",
"}. c #DF1BA15A55FD",
"|. c #DFA7A1A555FB",
" X c #E0BFA27B567E",
".X c #E197A30256A5",
"XX c #E1E4A33D56CA",
"oX c #E15DA3425777",
"OX c #E207A37E572D",
"+X c #E2A1A3E7575C",
"@X c #E346A45F579B",
"#X c #E37AA48757B6",
"$X c #E1FAA3ED5834",
"%X c #E2FCA4765828",
"&X c #E4D0A5835842",
"*X c #E580A61658B2",
"=X c #E4B9A5C858F8",
"-X c #E546A62D592C",
";X c #E5FCA6955935",
":X c #ED91AC055C07",
">X c #F095ADF25CA1",
",X c #F114AE525CDA",
"<X c #8A0D89628892",
"1X c #8BEA8B3F8A6E",
"2X c #A162A0F7A075",
"3X c #A354A206A06F",
"4X c #A3BDA383A33C",
"5X c #A44BA3E6A36A",
"6X c #A5DAA484A2E2",
"7X c #B13CB041AF10",
"8X c #B291B18AB049",
"9X c #BC8ABB2FB985",
"0X c #BFD1BE86BCEF",
"qX c #C3AEC26FC0EA",
"wX c #C9EBC8D3C77D",
"eX c #CAB3C99EC84B",
"rX c #CC24CB84CAC1",
"tX c #CE48CDE9CD75",
"yX c #CFCCCF6ECEFA",
"uX c #D680D54CD3D3",
"iX c #D714D59ED3D4",
"pX c #D8F6D7CDD662",
"aX c #DEFCDDF8DCBC",
"sX c #DF79DE7CDD47",
"dX c #DF8FDE96DD68",
"fX c #E110DFC8DE37",
"gX c #E145E042DF03",
"hX c #E358E17DDF3A",
"jX c #E265E11BDF8A",
"kX c #E3BAE1E4DFA7",
"lX c #E4E2E3B4E245",
"zX c #E6B6E58DE423",
"xX c #E815E779E6BC",
"cX c #E903E7CFE656",
"vX c #EA3AE9A5E8EF",
"bX c #F0F1EFE3EE99",
"nX c #F2ABF284F254",
"mX c #F418F30BF1C4",
"MX c #F381F357F324",
"NX c #F536F42EF2EC",
"BX c #FA11FA10FA0F",
"VX c #FB13FB0EFB07",
"CX c #FB7BFB75FB6F",
"ZX c #FB96FB87FB74",
"AX c #FC0DFC0BFC0A",
"SX c #FD0FFD0FFD0F",
"DX c #FD91FD2BFCAE",
"FX c #FD7BFD80FD86",
"GX c #FE05FE05FE06",
"HX c #FF06FF06FF05",
"JX c #FFFBFFFBFFFB",
/* pixels */
"K.K.K.K.K.K.K.K.K.K.K.K.K.K.K.K.K.K.K.K.K.K.K.K.K.K.K.K.K.K.K.K.K.K.K.K.K.K.K.K.K.K.K.K.K.K.",
"K.K.K.K.K.K.K.K.K.K.K.K.K.K.K.K.K.K.K.K.K.K.K.K.K.K.K.K.K.K.K.K.K.K.K.K.K.K.K.K.K.K.K.K.K.K.",
"K.K.K.K.K.K.K.K.K.K.K.K.K.K.K.K.K.K.K.K.K.Z.Z.Z.K.K.K.K.K.K.K.K.K.K.K.K.K.K.K.K.K.K.K.K.K.K.",
"K.K.K.K.K.K.K.K.K.K.K.K.K.K.K.K.K.K.K.K.Z.'.XX#X).Z.K.K.K.K.K.K.K.K.K.K.K.K.K.K.K.K.K.K.K.K.",
"K.K.K.K.K.K.K.K.K.K.K.K.K.K.K.K.K.K.K.K.$Xd.3.3.g.#XK.K.K.K.K.K.K.K.K.K.K.K.K.K.K.K.K.K.K.K.",
"K.K.K.K.K.K.K.K.K.K.K.K.K.K.K.K.K.Z.T.K.Y         T T.W.K.K.K.K.K.K.K.K.K.K.K.K.K.K.K.K.K.K.",
"K.K.K.K.K.K.K.K.K.K.K.K.K.K.K.K.K.K.].L   #.eXwXO.  P ].Z.K.K.K.K.K.K.K.K.K.K.K.K.K.K.K.K.K.",
"K.K.K.K.K.K.K.K.K.K.K.K.K.K.K.K.Z.].0.  t.JXJXAXJX>.  9.].Z.K.K.K.K.K.K.K.K.K.K.K.K.K.K.K.K.",
"K.K.K.K.K.K.K.K.K.K.K.K.K.K.K.K.B.;XW : zXJXAXAXJXlX  Q ;XB.K.K.K.K.K.K.K.K.K.K.K.K.K.K.K.K.",
"K.K.K.K.K.K.K.K.K.K.K.K.K.K.K.K.B.;XI s nXJXJXJXJXbX8 U ;XZ.K.K.K.K.K.K.K.K.K.K.K.K.K.K.K.K.",
"K.K.K.K.K.K.K.K.K.K.K.K.K.K.K.K.Z.%X1.  qXJXJXAXJX0X  1.%XB.K.K.K.K.K.K.K.K.K.K.K.K.K.K.K.K.",
"K.K.K.K.K.K.K.K.K.K.K.K.K.K.K.K.K.K.z.t C cXJXJXxXV t z.R.K.K.K.K.K.K.K.K.K.K.K.K.K.K.K.K.K.",
"K.K.K.K.K.K.K.K.K.K.K.K.K.K.K.K.Z.).:X7.  @.JXJXX.  7.:X).B.K.K.K.K.K.K.K.K.K.K.K.K.K.K.K.K.",
"K.K.K.K.K.K.K.K.K.K.K.K.K.K.K.Z.XXi.b &   :.JXJX=.  & b a.XXZ.K.K.K.K.K.K.K.K.K.K.K.K.K.K.K.",
"K.K.K.K.K.K.K.K.K.K.K.K.K.K.Z.XX5.  q O.3XnXJXJXnX5Xo.0 & 5.XXZ.K.K.K.K.K.K.K.K.K.K.K.K.K.K.",
"K.K.K.K.K.K.K.K.K.K.K.K.K.Z.].u.  A xXJXJXJXJXJXJXJXJXlXZ   u.'.Z.K.K.K.K.K.K.K.K.K.K.K.K.K.",
"K.K.K.K.K.K.K.K.K.K.K.K.K.Z.XXD 8 hXJXAXAXJXJXJXJXAXBXJXaX8 D XXZ.K.K.K.K.K.K.K.K.K.K.K.K.K.",
"K.K.K.K.K.K.K.K.K.K.K.K.Z.).z.  *.JXAXJXJXJXJXJXJXJXJXAXJX#.  z.).K.K.K.K.K.K.K.K.K.K.K.K.K.",
"K.K.K.K.K.K.K.K.K.K.K.K.Z.].e.  3XJXAXJXJXJXJXJXJXJXJXAXJX3X  e.].Z.K.K.K.K.K.K.K.K.K.K.K.K.",
"K.K.K.K.K.K.K.K.K.K.K.R.Z.].u.  2XJXAXJXJXJXJXJXJXJXJXAXJX3X  u.].Z.K.K.K.K.K.K.K.K.K.K.K.K.",
"K.K.K.K.K.K.K.K.K.K.K.K.Z.).b.  O.JXAXJXJXJXJXJXJXJXJXAXJXo.  b.W.K.K.K.K.K.K.K.K.K.K.K.K.K.",
"K.K.K.K.K.K.K.K.K.K.K.K.K.Z.$XJ : uXJXAXJXJXJXJXJXJXAXJXuX: L %XZ.K.K.K.K.K.K.K.K.K.K.K.K.K.",
"K.K.K.K.K.K.K.K.K.K.K.K.K.K.'.g.> j rXJXJXJXJXJXJXJXJXeXj 3 j._.Z.K.K.K.K.K.K.K.K.K.K.K.K.K.",
"K.K.K.K.K.K.K.K.K.K.K.K.K.K.Z.].6.y   1XJXAXJXJXAXJX1X  i q.].Z.K.K.K.K.K.K.K.K.K.K.K.K.K.K.",
"K.K.K.K.K.K.K.K.K.K.K.K.K.K.Z.K.:Xe.& M AXJXJXJXJXAXM = p.:XK.Z.K.K.K.K.K.K.K.K.K.K.K.K.K.K.",
"K.K.K.K.K.K.K.K.K.K.K.K.K.B.].Z.R &    .JXAXJXJXJXJX .  & E K.].B.K.K.K.K.K.K.K.K.K.K.K.K.K.",
"K.K.K.K.K.K.K.K.K.K.K.K.B.XXu.a   | rXAXJXJXJXJXJXJXAXrX}   l a.XXB.K.K.K.K.K.K.K.K.K.K.K.K.",
"K.K.K.K.K.K.K.K.K.K.K.B.XXq.> h 0XJXJXJXJXJXJXJXJXJXAXJXJX9Xg > w.XXZ.K.K.K.K.K.K.K.K.K.K.K.",
"K.K.K.K.K.K.K.K.K.K.Z.'.s.> M sXJXAXJXJXJXJXJXJXJXJXJXAXAXJXaXj 4 g.].Z.K.K.K.K.K.K.K.K.K.K.",
"K.K.K.K.K.K.K.K.K.K.K.).z 0 pXJXAXJXJXJXJXJXJXJXJXJXJXJXJXAXJXuX7 x ).K.K.K.K.K.K.K.K.K.K.K.",
"K.K.K.K.K.K.K.K.K.B.;X)   6XJXAXJXJXJXJXJXJXJXJXJXJXJXJXJXJXAXJX3X  1.%XB.K.K.K.K.K.K.K.K.K.",
"K.K.K.K.K.K.K.K.K.K.B.4 S JXAXJXJXJXJXJXJXJXJXJXJXJXJXJXJXJXJXJXJXS t Z.K.K.K.K.K.K.K.K.K.K.",
"K.K.K.K.K.K.K.K.B.%X3.  8XJXJXJXJXJXJXJXJXJXJXJXJXJXJXJXJXJXJXAXJX7X  5.%XZ.K.K.K.K.K.K.K.K.",
"K.K.K.K.K.K.K.K.Z.%XG f NXJXJXJXJXJXJXJXJXJXJXJXJXJXJXJXJXJXJXJXJXnXs H %XZ.K.K.K.K.K.K.K.K.",
"K.K.K.K.K.K.K.K.K.).u ] JXAXJXJXJXJXJXJXJXJXJXJXJXJXJXJXJXJXJXJXJXJX] p {.K.K.K.K.K.K.K.K.K.",
"K.K.K.K.K.K.K.K.W.N.  %.JXAXJXJXJXJXJXJXJXJXJXJXJXJXJXJXJXJXJXJXAXJX#.& Z.K.K.K.K.K.K.K.K.K.",
"K.K.K.K.K.K.K.K.).b.  ,.JXAXJXJXJXJXJXJXJXJXJXJXJXJXJXJXJXJXJXJXAXJX,.  b.).Z.K.K.K.K.K.K.K.",
"K.K.K.K.K.K.K.Z.T.b.  ;.JXAXJXAXAXJXJXAXJXAXJXJXJXJXAXJXAXJXAXJXBXJX-.  N.T.K.K.K.K.K.K.K.K.",
"K.K.K.K.K.K.K.K.K.R.3 { JXAXJXJXJXJXJXJXJXJXJXJXJXJXJXJXJXJXJXJXAXJX[ w E.K.K.K.K.K.K.K.K.K.",
"K.K.K.K.K.K.K.K.Z.$Xc n gXaXaXaXsXsXaXaXaXaXsXsXaXaXaXaXsXsXsXaXsXgXn v $XZ.K.K.K.K.K.K.K.K.",
"K.K.K.K.K.K.K.K.B.;X!                                                 ~ %XZ.K.K.K.K.K.K.K.K.",
"K.K.K.K.K.K.K.K.K.W.k.~ ( ( ( ( ( ~ ( ( ( ( ~ ( ( ( ( ~ ( ~ ( ( ( ( ( k.).Z.K.K.K.K.K.K.K.K.",
"K.K.K.K.K.K.K.K.K.K.T.;X;X&X;X;X;X&X&X;X;X;X#X;X;X;X;X&X;X;X;X&X;X;X;XT.K.K.K.K.K.K.K.K.K.K.",
"K.K.K.K.K.K.K.K.K.K.K.B.B.B.B.B.B.B.B.B.B.B.B.B.B.B.B.B.B.B.B.B.B.B.Z.Z.K.K.K.K.K.K.K.K.K.K.",
"K.K.K.K.K.K.K.K.K.K.K.K.K.K.K.K.K.K.K.K.K.K.K.K.K.K.K.K.K.K.K.K.K.K.K.K.K.K.K.K.K.K.K.K.K.K.",
"K.K.K.K.K.K.K.K.K.K.K.K.K.K.K.K.K.K.K.K.K.K.K.K.K.K.K.K.K.K.K.K.K.K.K.K.K.K.K.K.K.K.K.K.K.K."
};
