/* XPM */
static char *pld__[] = {
/* columns rows colors chars-per-pixel */
"56 56 96 2",
"   c #005A00570065",
".  c #0A6C064A0157",
"X  c #0D250940048C",
"o  c #043C068A095A",
"O  c #0A000AA20B69",
"+  c #104F0B53054A",
"@  c #10FC0CC107AB",
"#  c #10B50F950E35",
"$  c #1CE515E50D59",
"%  c #1282128F129F",
"&  c #1CD81D6A1E25",
"*  c #1FE615E709B5",
"=  c #25471A190C74",
"-  c #291F1CE90E02",
";  c #29EE1E681059",
":  c #2CBE20801191",
">  c #21E220781EC0",
",  c #3300252E145A",
"<  c #3720286E168B",
"1  c #3A522A6A1703",
"2  c #326E26F518F5",
"3  c #1E2F1F3C2084",
"4  c #2609251923F7",
"5  c #2913282026F7",
"6  c #2E502E0D2DBD",
"7  c #2FBA2F392EA0",
"8  c #40572EAE1921",
"9  c #46D6339F1C33",
"0  c #4A21364B1E1C",
"q  c #4BF337BA1F0E",
"w  c #4F913A582072",
"e  c #52FF3C5420BD",
"r  c #5BF543462528",
"t  c #609C46B92722",
"y  c #66664AF52979",
"u  c #6A614DBD2ACC",
"i  c #72C2535A2D07",
"p  c #7E605C6832F2",
"a  c #46CE458E4409",
"s  c #4DDE4C994B0E",
"d  c #50404E584C03",
"f  c #55A9546752DC",
"g  c #5ED85DEB5CCA",
"h  c #60095F085DCE",
"j  c #662864AD62DD",
"k  c #681F679F6702",
"l  c #6A946921675C",
"z  c #6A946A236999",
"x  c #75BF74A27344",
"c  c #785A76BC74C3",
"v  c #7E827D1F7B6D",
"b  c #80015DC233F6",
"n  c #864161B4351A",
"m  c #8B1464D7362E",
"M  c #95E36D4C3BC4",
"N  c #9CCD725C3E90",
"B  c #A21275943F46",
"V  c #A3B576FF406D",
"C  c #ACE87D1B42C4",
"Z  c #80A77F397D7B",
"A  c #B46C82BD461C",
"S  c #B92F85F04767",
"D  c #BADD8769489E",
"F  c #82DB81807FDB",
"G  c #CABE92C84E7E",
"H  c #CDCC95495053",
"J  c #D1D397B650CA",
"K  c #D5B19A805244",
"L  c #DAF19E5F5475",
"P  c #DEC0A10F55C6",
"I  c #E272A3B65728",
"U  c #E4D6A575581C",
"Y  c #EBCCAA635A92",
"T  c #84A983EE8309",
"R  c #8828870685A4",
"E  c #8CAB8B6889DE",
"W  c #923C91358FF6",
"Q  c #94949384923A",
"!  c #9ED99DB99C5B",
"~  c #A54FA415A296",
"^  c #AD70AC79AB4D",
"/  c #B29AB154AFC6",
"(  c #B365B25BB117",
")  c #C084C023BFAE",
"_  c #C147C08EBFAA",
"`  c #C3CFC33AC282",
"'  c #C924C89EC7FA",
"]  c #CCE0CC43CB84",
"[  c #D060CF4FCE02",
"{  c #D741D632D4E8",
"}  c #D8AED7F5D712",
"|  c #DC20DB71DA9C",
" . c #E4FDE44DE376",
".. c #ED17EC74EBAF",
"X. c #F761F71EF6CB",
"o. c #FF60FF5FFF5E",
/* pixels */
"K K K K K K K K K K K K K K K K K L K K K K L K K K K K K K K K K K K K K K K K K K K K K K K K K K K K K K K K ",
"K K K K K K K K K K K K K K K K K K K K K K K K K K K K K K K K K L K K K K K K K K K K K K K K K K K K K K K K ",
"K K K K K K K K K K K K K K K K K K K K K K K K K K K K K K K K K K K K K K K K K K K K K K K K K K K K K K K K ",
"K K K K K K K K K K K K K K K K K K K K K K K K K K K J J K K K K K K K K K K K L K K K L K K K K K K K K K L K ",
"K K K K K L K K K K K K K K K K K K K K K K K K K J P I U P J K K K K K K K K K K K K K K K K K K K K K K K K K ",
"K K K K K K K K K K L K K K K K K K K K K K K J L P A M M A P L J K K K K K K K K K K K K K K K K K K K K K K K ",
"K K K K K K K K K K K K K K K K K K K K K K K I S <         1 S P J K K K K K K K K K K K K K K K K K K K K K K ",
"K K K K K K K K K K K K K K K K K K K K K K P C X   6 x x 6   @ A P J L K K K K K K K K K K K K K K K K K K K K ",
"K K K K K K K K K K K K K K K K L K K K K K K ;   Z o.o.o.o.x   : K K K K K K K K K K K K K K K K K K K K K K K ",
"K K K K K K K K K K K K K L K K K K K K J I M   s o.o.o.X.o.o.a   M I K K K K K L K K K K K K K L K K K K K K K ",
"K K L K K K K K K K K K K K K K K K K K J U u   ~ o.o.o.o.o.o.!   u U J K K K K K K K K K K K K K K K K K K K K ",
"K K K K K K K K K K K K K K K K K K K K J U t   ( o.o.o.o.o.o.^   t U J K K K K K K K K K K K K K K K K K K K K ",
"K K K K K K K K K K K K K K K K K K K K J U p   F o.o.o.o.X.o.v   p I J K K K K K K K K K K K K K K K K K K K K ",
"K K K K K K L K L K K K K K K K K K K K J P S   % | o.o.o.o.} %   S L K K K K K K K K K K K K K K K K K K K K K ",
"K K K K K K K K K K K K K K K K K K K K K J I i   5 ..o.o...4   i I J K K K K K K K K K K K K K K K K K K L K K ",
"K K K K K K K K K K K K K K K K K K K K J P P D 2   ^ o.o.~   2 D L I K K K K K K K K K K L K K K K K K K K K K ",
"K K K K K K K K K K K K K K K K K K K K I B ,       ` o.o.( o o   , B I J K K K K K K K K K K K K K K K K K K K ",
"L K K K K K K K K K K K K K K K K K J I i     6 z ( o.o.o.o./ z 6     i I J K K K K K K K K K K K K K K K K K K ",
"K K K K K K K K K K K K K K K K K J U b   # ~ o.o.o.o.o.o.o.o.o.o.~ #   b I J K K K K K K K K K K K K K K K K K ",
"K K K K K K K K K K L K K K K K K L D . o ` o.o.o.o.o.o.o.o.o.o.o.o.`   . D L K K K K K K K K K K L K K K K K K ",
"K K K K K K K K K K K K K K K K J U y   Z o.o.o.o.o.o.o.o.o.o.o.o.X.o.Z   u U J K L K K K K K K K K K K K K K K ",
"K K K K K K K K K K K K K K K K K L -   | o.o.o.o.o.o.o.o.o.o.o.o.o.o.|   ; L J K K K K K K K K K K K K L K K K ",
"K K K K L K K K K K K K K K K K K H . & o.o.o.o.o.o.o.o.o.o.o.o.o.o.o.X.& . H L K K K K K K K K K K K K K K K K ",
"K K K K K K K K K K K K K K K K L H . 4 X.o.o.o.o.o.o.o.o.o.o.o.o.o.o.o.4 . H K K K K K K K K K K K K K K K K K ",
"K K K K K K K K K L K K K K K K K L =    .o.o.o.o.o.o.o.o.o.o.o.o.o.o. .  = L K K K K K K K K K K K K K K L K K ",
"K K K K L K K K K K K K K K K K J U r   Q o.X.o.o.o.o.o.o.o.o.o.o.X.o.Q   y U J K K K K K K K K K K K K K K K K ",
"K K K K K K K K K K K K K K K K J P A   % { o.o.o.o.o.o.o.o.o.o.o.o.{ %   A L K K K K K K K K K K K K K K K K K ",
"K K K K K K K K K K K K K K K K K J I u   > ` o.o.o.o.o.o.o.o.o.o.) >   i I J K K K K K K L K K K K K K K K K K ",
"K K L K K K K K K K K K K K K K K K K P e     z o.o.o.o.o.o.o.o.z     r P K K K K K K K K K K K K L K K K K K K ",
"K K K K K K K K K K K K K K K K K K J K Y m X   ' o.o.o.o.o.o.'   X M Y J K K K K K K K K K K K K K K K K K K K ",
"K K K K K K K K K K K K K K K K K J L I V 9     ] o.o.o.o.o.o.]     9 V I L J K K K K K K K K K K K K K K K K K ",
"K K K K K K K K K K K K K K K K J P G w     & R o.o.o.o.o.o.o.o.T &     e G P K K K K K K K K K K K K K K K K K ",
"K K K K K K K K K L K K K K K J I C $   5 ( o.o.o.o.o.o.o.o.o.o.o.o.^ 4   $ A I J K K K K K K K K K K K K K K K ",
"K K K K K K K K K K K K K K J I V X   l X.o.o.o.o.o.o.o.o.o.o.o.o.o.o.X.j   X V I K K K K K K K K K K K K K K K ",
"K K K K K K K K K K K K K J I A X   R o.o.o.o.o.o.o.o.o.o.o.o.o.o.o.o.o.o.R   + S P J K K K K K K K K K K K K K ",
"K K K K K K K K K K K K K K J ;   T o.o.o.o.o.o.o.o.o.o.o.o.o.o.o.o.o.o.o.o.v   : J L K K K K K K K L K K K K K ",
"K K K K K K K K K K K K J I y   f o.o.o.o.o.o.o.o.o.o.o.o.o.o.o.o.o.o.o.o.o.o.f   u U J K K K K K K K K K K K K ",
"K K K K K K K K K K K K P S   %  .o.o.o.o.o.o.o.o.o.o.o.o.o.o.o.o.o.o.o.o.o.o. .%   S L K K K K K K K K K K K K ",
"K K K L K K K K K K K J I r   E o.o.o.o.o.o.o.o.o.o.o.o.o.o.o.o.o.o.o.o.o.o.o.o.E   t I J K K K K K K K K K K K ",
"K K K K K K K K K K J K G X % ..o.o.o.o.o.o.o.o.o.o.o.o.o.o.o.o.o.o.o.o.o.o.o.o...% @ G L K K K K K K K K K K K ",
"K K K K K K K K K K J I M   g o.X.o.o.o.o.o.o.o.o.o.o.o.o.o.o.o.o.o.o.o.o.o.o.X.o.g   N I K K K K K K K K K L K ",
"K K K K K K K K K K J U u   ~ o.o.o.o.o.o.o.o.o.o.o.o.o.o.o.o.o.o.o.o.o.o.o.o.o.o.~   u U J K K K K K K K K K K ",
"K K K K K K K K K K K I 8   [ o.o.o.o.o.o.o.o.o.o.o.o.o.o.o.o.o.o.o.o.o.o.o.o.o.o.[   9 I J K K K K K K K K K K ",
"K K K L K K K K K K K L - o  .o.o.o.o.o.o.o.o.o.o.o.o.o.o.o.o.o.o.o.o.o.o.o.o.o.o. .  : P K K K K K K K K K K K ",
"K K K K K K K K K K K K * O ..o.o.o.o.o.o.o.o.o.o.o.o.o.o.o.o.o.o.o.o.o.o.o.o.o.o...O = L K K K K K K K K K K K ",
"K K K K K K K K K K K L = o ..o.o.o.o.o.o.o.o.o.o.o.o.o.o.o.o.o.o.o.o.o.o.o.o.o.o...o - L K K K L K K K K K K K ",
"K K K K K K K K K K K P <   } o.X.o.o.X.o.o.o.o.X.o.o.o.o.X.o.o.X.o.o.o.o.o.X.o.o.{   1 I J K K K K K K K K K K ",
"K K K K K K K K K K J I r   ( o.o.o.o.o.o.o.o.o.o.o.o.o.o.o.o.o.o.o.o.o.o.o.o.o.o.(   r U J K K K K K K K K K K ",
"K K K K K K K K K K J U n   d ! Q Q Q Q Q Q Q Q Q Q Q Q Q Q Q Q Q Q Q Q Q Q Q W ! s   m I J K K K K L K K K K K ",
"K K K K K K K K K K K L S .                                                         . D L J K K K K K K K K K K ",
"K K K K K K K K K K K K K m p p p p p p p p p p b p p b p p p p p p p p p p p p b p m L K K K K K K K K K K K K ",
"K L K K K K K K K K K K K I I I U U U U U U U U U U U U U U U U U U U U U U U U U U I K K K K K K K K K K K K K ",
"K K K K K K K K K K K L K J K J J K J J J J J K K J J J J J K J J K J J J J J K J J J K K K K K K K K K K K K K ",
"K K K K K K K K K K K K K K K K K K K K K K K K K K K K K K K K K K K K K K K K K K K K K K K K K K K K K K K K ",
"K K K K K K K K K K K K K K K K K K K K K K K K K K K K K K K K K K K K K K K K K K K K K K K K K K K L K K K K ",
"K K K K K K L K K K K K K K K K K K K K K K K K K K K K K K K K K K K K K K K K K K L K K K K K K K K K K K K K "
};
