/* XPM */
static char *pll__[] = {
/* columns rows colors chars-per-pixel */
"27 27 164 2",
"   c #193F13A40CEA",
".  c #19A013AE0C8B",
"X  c #13A7146915EB",
"o  c #13D414E916CE",
"O  c #1978159A10F7",
"+  c #1A30165411B3",
"@  c #1F9F19B912EF",
"#  c #1D6A1CB01BD0",
"$  c #1E9C1E031D4B",
"%  c #246C13A6007A",
"&  c #26F415770167",
"*  c #20BB1A5812F8",
"=  c #250D1D3813D2",
"-  c #39782321089D",
";  c #39DB237B08F7",
":  c #23E6201D1B92",
">  c #255E22381E70",
",  c #25CA22091DB0",
"<  c #263722D91ECF",
"1  c #2D04240A1944",
"2  c #2E3424CF199F",
"3  c #314326E41A72",
"4  c #337A287B1B49",
"5  c #34762AE21F63",
"6  c #2D6E2C942B8E",
"7  c #2E4D2D2D2BD2",
"8  c #35A22C102094",
"9  c #37A3355A329C",
"0  c #391A366A3331",
"q  c #396B3725346A",
"w  c #402E3FE93F96",
"e  c #65CF47D223DF",
"r  c #68E84A1F2537",
"t  c #416840CA400C",
"y  c #400340964146",
"u  c #42F643814429",
"i  c #49204B734E59",
"p  c #4BD64E2A510D",
"a  c #4D894F7751C9",
"s  c #4DBE4FA951F5",
"d  c #52A454FC57E1",
"f  c #532955725842",
"g  c #4FF355545BD8",
"h  c #505C55B85C26",
"j  c #57AD5A295D24",
"k  c #5D6560B664B2",
"l  c #60B3638F66FB",
"z  c #64F966FD6967",
"x  c #657E678169EB",
"c  c #716C7329753E",
"v  c #734674F176F2",
"b  c #70FE74CF7977",
"n  c #721775E87A98",
"m  c #8AF9631A3342",
"M  c #89F1648B37AA",
"N  c #8F0165E13488",
"B  c #8F1265F23499",
"V  c #8FDC667534C6",
"C  c #8D8A6729391A",
"Z  c #8F30685D39C6",
"A  c #95A36AB83737",
"S  c #95F96B47380A",
"D  c #9E3E71D33C85",
"F  c #AC237E38475D",
"G  c #AFC97F52452A",
"H  c #AD7D7F3047A1",
"J  c #B03E7FC54599",
"K  c #AED9804C48A7",
"L  c #AFE1810A48D5",
"P  c #B41A84924B89",
"I  c #B7F485A44944",
"U  c #B43584AE4BA5",
"Y  c #BA70877F4A5E",
"T  c #B8E2894A502D",
"R  c #C4318F5D4FF8",
"E  c #C65891085111",
"W  c #C869929C520E",
"Q  c #CB3995CB55AE",
"!  c #CC0F9680563B",
"~  c #D1409A665895",
"^  c #D2209B0E58F7",
"/  c #D3C19C5E59E2",
"(  c #D4619CF05A69",
")  c #DC41A3805F6A",
"_  c #DE21A4F16052",
"`  c #E346A8D462B2",
"'  c #E38FA8FC62B3",
"]  c #E3C8A93562EB",
"[  c #E5FEAB4564C3",
"{  c #E821AC3F6463",
"}  c #E822ACD065A1",
"|  c #E907ACEF64CF",
" . c #E87AAD1E65E2",
".. c #E8AAAD3865E5",
"X. c #EA62ADF4656F",
"o. c #E881AD2565E8",
"O. c #E90CAD846613",
"+. c #E996ADF26661",
"@. c #EA2EAE5D6695",
"#. c #EAA8AEBC66D4",
"$. c #EB05AF046703",
"%. c #EB67AF4E6730",
"&. c #EBEEAFB16768",
"*. c #ECFFB0AE684C",
"=. c #EEC1B1FF6919",
"-. c #F044B32469CA",
";. c #EFF4B31C6A0A",
":. c #F10DB3AB6A02",
">. c #F175B3E96A0D",
",. c #F1C2B46E6AD0",
"<. c #F244B4CA6B05",
"1. c #F274B4EE6B1A",
"2. c #F350B5956B81",
"3. c #F37BB5B96B9D",
"4. c #F44BB6836C60",
"5. c #F4DFB6F56CA8",
"6. c #F5BEB71B6BF1",
"7. c #F629B7C56CE9",
"8. c #F809B91E6D9E",
"9. c #F729B8CD6DF8",
"0. c #F7A1B9276E2E",
"q. c #F864B9966E3C",
"w. c #F8C7B9E76E75",
"e. c #F911BA466EEC",
"r. c #F9C1BA776E86",
"t. c #FA54BB056EFF",
"y. c #FAB3BB4E6F2D",
"u. c #FC08BC957072",
"i. c #FCA3BCE57068",
"p. c #FD69BDB3713E",
"a. c #FDFCBE287190",
"s. c #FED4BEBF71D8",
"d. c #FFBDBF55720B",
"f. c #B9FBBD1DC0E0",
"g. c #BB1ABE3EC202",
"h. c #C3E1C618C8C8",
"j. c #C5E8C7FDCA7E",
"k. c #C78CC9B1CC2A",
"l. c #CCB0CC0DCB48",
"z. c #CDA8CD02CC3B",
"x. c #C9C7CBA4CDD5",
"c. c #CB86CD3ACF45",
"v. c #CFCECFABCF82",
"b. c #D0AED080D048",
"n. c #D70FD909DB69",
"m. c #D7D7D9B5DBF3",
"M. c #D848DA3DDC96",
"N. c #DAFDDCE4DF35",
"B. c #E135E30FE543",
"V. c #E19CE35BE570",
"C. c #E5DCE554E4B0",
"Z. c #E61CE593E4EF",
"A. c #F87DF854F824",
"S. c #F904F902F8FE",
"D. c #FA0AFA0CFA0E",
"F. c #FA87FA67FA41",
"G. c #FC07FC03FBFF",
"H. c #FDDFFDE3FDE8",
"J. c #FE81FE7DFE79",
"K. c #FE85FE81FE7D",
"L. c #FE84FE8BFE93",
"P. c #FED9FF60FFFF",
"I. c #FF47FFB7FFFF",
"U. c #FFF8FFF8FFF7",
/* pixels */
"&.&.&.&.&.&.&.&.&.&.&.&.&.} &.&.&.&.&.&.&.&.&.&.&.&.&.",
"&.&.&.&.&.&.&.&.&.&.&.&.,.i.,.} &.&.&.&.&.&.&.&.&.&.&.",
"&.&.&.&.&.&.&.&.&.&.} w.Q A ! w.&.&.&.&.&.&.&.&.&.&.&.",
"&.&.&.&.&.&.&.&.&.&.w.C $ j # A w.} &.&.&.&.&.&.&.&.&.",
"&.&.&.&.&.&.&.&.&.,./ , N.P.M.: / ,.&.&.&.&.&.&.&.&.&.",
"&.&.&.&.&.&.&.&.&.w.G u P.A.P.y K 0.&.&.&.&.&.&.&.&.&.",
"&.&.&.&.&.&.&.&.&.&.] 8 c.P.x.5 ] *.&.&.&.&.&.&.&.&.&.",
"&.&.&.&.&.&.&.&.&.5.[ ; p P.i - [ 5.} &.&.&.&.&.&.&.&.",
"&.&.&.&.&.&.&.&.5.P + x z.P.l.z + I 0.} &.&.&.&.&.&.&.",
"&.&.&.&.&.&.&.*.] = g.P.P.P.H.P.g.= ] *.&.&.&.&.&.&.&.",
"&.&.&.&.&.&.&.u.D p P.F.P.P.H.A.P.s D y.} &.&.&.&.&.&.",
"&.&.&.&.&.&.} u.A j P.F.P.P.P.A.P.j S y.&.&.&.&.&.&.&.",
"&.&.&.&.&.&.&.,.~ , V.P.H.P.H.P.V.< ^ ,.&.&.&.&.&.&.&.",
"&.&.&.&.&.&.&.} w.M 7 b.P.H.P.v.7 Z w.&.&.&.&.&.&.&.&.",
"&.&.&.&.&.&.*.} w.:.% f P.A.P.d % ,.0.} &.&.&.&.&.&.&.",
"&.&.&.&.&.&.} u.G . v C.P.H.P.C.c . K y.{ &.&.&.&.&.&.",
"&.&.&.&.&.&.w.F X x.P.P.P.P.P.H.P.x.X K w.&.&.&.&.&.&.",
"&.&.&.&.} *._ @ k.P.A.P.P.P.P.H.A.P.h.* ) ,.&.&.&.&.&.",
"&.&.&.&.&.i.e n P.A.P.P.P.P.P.P.P.A.P.n r i.[ &.&.&.&.",
"&.&.&.&.*.} 3 n.P.P.P.P.P.P.P.P.P.H.P.m.4 X.*.&.&.&.&.",
"&.&.&.&.4.E 9 P.P.P.P.P.P.P.P.P.P.P.P.P.0 W 6.&.&.&.&.",
"&.&.&.&.0.I w P.F.G.H.F.H.F.H.F.H.G.F.P.w Y 0.&.&.&.&.",
"&.&.&.&.5.R q P.P.P.P.P.P.P.P.P.P.P.P.P.0 E ,.&.&.&.&.",
"&.&.&.&.*.} 2 h l k k k k k k k k k l g 2 X.*.&.&.&.&.",
"&.&.&.&.&.*.T m V A N N N N N A m A m m T ,.&.&.&.&.&.",
"&.&.&.&.&.&.6.i.i.i.i.i.i.u.i.i.y.d.i.d.,.&.&.&.&.&.&.",
"&.&.&.&.&.&.} [ } } &.} } &.} } } } &.} &.&.&.&.&.&.&."
};
