/* XPM */
static char *pll__[] = {
/* columns rows colors chars-per-pixel */
"33 33 187 2",
"   c black",
".  c #025A02AB0346",
"X  c #03C503A603D3",
"o  c #0BF9078102BE",
"O  c #0C1F07A802F4",
"+  c #0ED70A4304C5",
"@  c #0D940A0A0608",
"#  c #0E000A9606B4",
"$  c #0D9E0ABB07C2",
"%  c #0E5C0B9208A2",
"&  c #10A80B800551",
"*  c #14860D310465",
"=  c #16340E720522",
"-  c #17D910800806",
";  c #18B411090824",
":  c #1AE01C5D1E25",
">  c #211C15DC085C",
",  c #227416B40899",
"<  c #2594189308F7",
"1  c #245A184109BE",
"2  c #28A21AD90A4D",
"3  c #2B131C180A1F",
"4  c #2BEC1CC40A95",
"5  c #2BAB1D770D09",
"6  c #2EB91ECC0BB1",
"7  c #2E791F8B0E43",
"8  c #339722160D15",
"9  c #342E22670D11",
"0  c #3A3C263C0E3C",
"q  c #31F622EB10E0",
"w  c #3458241810EC",
"e  c #378B26851259",
"r  c #3F092AA11224",
"t  c #245B267728FE",
"y  c #242127A32BD9",
"u  c #25BA29372D67",
"i  c #240F28D72EDB",
"p  c #26622B293119",
"a  c #33E9373F3B41",
"s  c #343437A43BC4",
"d  c #42F42D4D1353",
"f  c #56A93CE41DFA",
"g  c #57713D8F1E80",
"h  c #59393F8B20B9",
"j  c #5BCD417521D9",
"k  c #602D44782353",
"l  c #62E8469624B5",
"z  c #65A2483D24F6",
"x  c #66C6492F25AC",
"c  c #68DD4B2B2793",
"v  c #69034B5227BC",
"b  c #7412543E2E0B",
"n  c #77ED572B2FDE",
"m  c #7F9D5BBF30B5",
"M  c #37B03CB942DE",
"N  c #368B3C9B43E3",
"B  c #37553D5A4493",
"V  c #39A43CCC4097",
"C  c #3A573F694587",
"Z  c #3CD541F74823",
"A  c #3DE5430A4940",
"S  c #415545354A02",
"D  c #443547E84C96",
"F  c #466E4A4B4EEE",
"G  c #4AD34EBB5367",
"H  c #517C511D50A0",
"J  c #527352135197",
"K  c #6B1F6EA672E1",
"L  c #6E3D71C47601",
"P  c #72F875C3791D",
"I  c #7488775A7AB7",
"U  c #79CD7A8E7B6D",
"Y  c #7D667E247F00",
"T  c #83595E8E3267",
"R  c #8731610F334E",
"E  c #94E26FDC4283",
"W  c #9E8A73924003",
"Q  c #98FE72FD4460",
"!  c #A2F578FB46B4",
"~  c #A9237C0C45F1",
"^  c #A9317C1A45FF",
"/  c #A6D17BD14857",
"(  c #B61187E85084",
")  c #B6C4886D50D3",
"_  c #C62993A3570D",
"`  c #CC099A7C5C1E",
"'  c #D7C7A0DA5EF0",
"]  c #D88CA16B5F41",
"[  c #D946A24B604E",
"{  c #D95DA2626066",
"}  c #DAE5A324603D",
"|  c #DCD5A4D16198",
" . c #DDE6A5A56224",
".. c #E3A4A9F264B5",
"X. c #E4BBAAC2652F",
"o. c #E701ABEC652D",
"O. c #E849ACFB65D0",
"+. c #E869AD1265DD",
"@. c #E985AD6965E2",
"#. c #E903AD846620",
"$. c #E98CADE7665A",
"%. c #E87FADF06798",
"&. c #EA45AE7C66B7",
"*. c #EA9DAEB766D5",
"=. c #EAFAAEFF6705",
"-. c #EB5DAF426723",
";. c #EBEBAFAF6767",
":. c #EC8DB02E67BD",
">. c #EA29AF316859",
",. c #EE30B20569D2",
"<. c #EEC4B1DF68CC",
"1. c #F005B2B36920",
"2. c #F0FCB37769A5",
"3. c #F118B3E36A71",
"4. c #F266B5196B89",
"5. c #F3EDB59E6ADA",
"6. c #F552B6C36BAE",
"7. c #F62DB7406BBC",
"8. c #F273B58A6C6D",
"9. c #F3E1B6756CB9",
"0. c #F670B7936C24",
"q. c #F4F3B7336D10",
"w. c #F594B79E6D43",
"e. c #F676B79A6C2B",
"r. c #F870B9366D4F",
"t. c #F743B9026E4E",
"y. c #F8B2B9666D6A",
"u. c #F881B9F16EDD",
"i. c #F9C1BA706E77",
"p. c #FB06BB7E6EAE",
"a. c #FB2DBB9A6F4F",
"s. c #FB27BBF87027",
"d. c #FB98BC56706F",
"f. c #FE25BDD770AC",
"g. c #FE13BE177151",
"h. c #FE94BE3C7107",
"j. c #FE48BE6471B7",
"k. c #FEABBE6B7151",
"l. c #FEF4BF147253",
"z. c #FFDCBF8E7206",
"x. c #FFFFCA8078C8",
"c. c #7AEA7E608293",
"v. c #7B9D7EFB830C",
"b. c #83F283F283E6",
"n. c #853B852184F7",
"m. c #89C98CE0908E",
"M. c #8E9391F095FC",
"N. c #90EE945A9876",
"B. c #9A849C689EAC",
"V. c #9B8C9E15A120",
"C. c #9C989EE3A1A4",
"Z. c #9D709FDAA2BF",
"A. c #9F0BA1C3A508",
"S. c #A052A291A543",
"D. c #A72FA7EEA8D3",
"F. c #A794A851A932",
"G. c #A6BBA957AC7A",
"H. c #A74DA9C9ACC3",
"J. c #AFB7B20EB4DD",
"K. c #B077B2A9B54B",
"L. c #B512B566B5B3",
"P. c #B759B7AFB801",
"I. c #BEE2BE90BE10",
"U. c #BF48BEE5BE55",
"Y. c #BE83BF0DBFB3",
"T. c #C037C0A2C122",
"R. c #D223D2D0D392",
"E. c #D419D4BDD576",
"W. c #E9C8E999E964",
"Q. c #E9EDE9B9E97D",
"!. c #F2BEF265F1FB",
"~. c #F356F2FAF28E",
"^. c #F464F457F447",
"/. c #F90DF90DF90C",
"(. c #FA2AF965F87A",
"). c #FA73F9ACF8BD",
"_. c #F9F1F9EDF9E9",
"`. c #FB71FA51F8F7",
"'. c #FB2EFB29FB22",
"]. c #FC2AFC29FC29",
"[. c #FC99FB73FA11",
"{. c #FCF3FCF3FCF4",
"}. c #FD99FDA2FDAE",
"|. c #FFC1FECEFDA4",
" X c #FF00FEFFFEFF",
".X c #FFFFFFD0FE9F",
"XX c #FFF9FFF9FFFA",
/* pixels */
";.;.;.;.;.;.;.;.;.;.;.;.;.;.;.;.;.;.;.;.;.;.;.;.;.;.;.;.;.;.;.;.;.",
";.;.;.;.;.;.;.;.;.;.;.;.;.;.;.;.o.o.;.;.;.;.;.;.;.;.;.;.;.;.;.;.;.",
";.;.;.;.;.;.;.;.;.;.;.;.;.;.,.g.g.g.,.;.;.;.;.;.;.;.;.;.;.;.;.;.;.",
";.;.;.;.;.;.;.;.;.;.;.;.O.5.} z 0 x  .3.o.;.;.;.;.;.;.;.;.;.;.;.;.",
";.;.;.;.;.;.;.;.;.;.;.;.,.[ ; C m.V - ' 3.;.;.;.;.;.;.;.;.;.;.;.;.",
";.;.;.;.;.;.;.;.;.;.;.o.g.f G .X{..XF h g.o.;.;.;.;.;.;.;.;.;.;.;.",
";.;.;.;.;.;.;.;.;.;.;.;.t.4 S..X^..XC.3 t.;.;.;.;.;.;.;.;.;.;.;.;.",
";.;.;.;.;.;.;.;.;.;.;.;.s.r L .X/..XK r s.;.;.;.;.;.;.;.;.;.;.;.;.",
";.;.;.;.;.;.;.;.;.;.:.o.s.` $ P..XP.$ ` y.o.;.;.;.;.;.;.;.;.;.;.;.",
";.;.;.;.;.;.;.;.;.;.;.e.[ c   c..XU   c } e.O.;.;.;.;.;.;.;.;.;.;.",
";.;.;.;.;.;.;.;.;.;.5._ O A D.!..X!.D.Z o _ e.;.;.;.;.;.;.;.;.;.;.",
";.;.;.;.;.;.;.;.;.:.,.> I .X{..X.X.X.X.XP > ,.,.;.;.;.;.;.;.;.;.;.",
";.;.;.;.;.;.;.;.O.y.^ : [..X]..X.X.X]..X/.: ^ y.O.;.;.;.;.;.;.;.;.",
";.;.;.;.;.;.;.;.O.g.R V .X}..X.X.X.X.X]..XV R g.O.;.;.;.;.;.;.;.;.",
";.;.;.;.;.;.;.;.;.y.R u .X.X.X.X.X.X{.{..Xt W y.;.;.;.;.;.;.;.;.;.",
";.;.;.;.;.;.;.;.;.,.,.; B..X]..X.X.X{..XB.= o.;.;.;.;.;.;.;.;.;.;.",
";.;.;.;.;.;.;.;.;.;.y.! . n..X.X.X.X.Xb.. / t.o.;.;.;.;.;.;.;.;.;.",
";.;.;.;.;.;.;.;.;.;.>.x.E   Y..X_..XY.  Q x.;.;.;.;.;.;.;.;.;.;.;.",
";.;.;.;.;.;.;.;.O.,.q.j @ H Q..X{..XW.H @ l q.,.;.;.;.;.;.;.;.;.;.",
";.;.;.;.;.;.;.;.,.O.5 p E..X{..X.X.X.X.XR.p 7 >.:.;.;.;.;.;.;.;.;.",
";.;.;.;.;.;.;.;.e.w F .X.X{..X.X.X.X.X{..X.XS e 7.:.;.;.;.;.;.;.;.",
";.;.;.;.;.;.o.g.b u /..X{..X.X.X.X.X.X.X]..X/.y n a.O.;.;.;.;.;.;.",
";.;.;.;.;.;.,.} @ Y..X]..X.X.X.X.X.X.X.X.X]..XY.& ] ,.;.;.;.;.;.;.",
";.;.;.;.;.;.g.m s .X.X.X.X.X.X.X.X.X.X.X.X.X{..Xs T g.O.;.;.;.;.;.",
";.;.;.;.;.o.s.r v..X]..X.X.X.X.X.X.X.X.X.X.X]..Xc.d g.O.;.;.;.;.;.",
";.;.;.;.;.;.q.< G..X.X.X.X.X.X.X.X.X.X.X.X.X.X.XG.3 q.;.;.;.;.;.;.",
";.;.;.;.;.;.3.> J..X_.].].].].].].].].].].]./..XJ.< q.;.;.;.;.;.;.",
";.;.;.;.;.;.t.3 C..X]..X.X.X.X.X.X.X.X.X.X.X]..XV.4 t.;.;.;.;.;.;.",
";.;.;.;.;.o.g.h N A.M.N.N.N.N.N.N.N.N.N.N.N.M.A.N j g.O.;.;.;.;.;.",
";.;.;.;.;.;.7.( q 8 8 8 8 8 8 8 8 8 8 8 8 8 8 9 q ( 7.O.;.;.;.;.;.",
";.;.;.;.;.;.;.,.s.s.s.d.d.d.s.d.s.s.d.d.d.d.s.s.y.3.;.;.;.;.;.;.;.",
";.;.;.;.;.;.;.;.O.;.O.;.O.O.;.O.O.;.%.O.O.O.;.O.;.;.;.;.;.;.;.;.;.",
";.;.;.;.;.;.;.;.;.;.;.;.;.;.;.;.;.;.;.;.;.;.;.;.;.;.;.;.;.;.;.;.;."
};
