/* XPM */
static char *pll__[] = {
/* columns rows colors chars-per-pixel */
"36 36 210 2",
"   c #000C00000000",
".  c #00E800000000",
"X  c #019300000000",
"o  c #033800000000",
"O  c #033401CC001D",
"+  c #040102650077",
"@  c #0A3801FE0000",
"#  c #0AB702810000",
"$  c #08D904090000",
"%  c #097805B70135",
"&  c #0B06059B0000",
"*  c #0AD606930176",
"=  c #07EE072D0646",
"-  c #0E34079B0000",
";  c #09C30886070A",
":  c #053B06E308DF",
">  c #058E06EE089A",
",  c #075908A50A37",
"<  c #07A508ED0A7B",
"1  c #09F50A5C0AD7",
"2  c #0B160B130B11",
"3  c #0B9E0CAA0DED",
"4  c #0D390DD90E99",
"5  c #10F909A500D9",
"6  c #0FE40A10036F",
"7  c #0A360D3B10DC",
"8  c #0C230F2912CA",
"9  c #0B110EEB1403",
"0  c #0CA810841590",
"q  c #0FD914AA1A90",
"w  c #114E17061DE4",
"e  c #11B417571E1C",
"r  c #163319711D4C",
"t  c #170E1A4F1E27",
"y  c #1FBC147907C6",
"u  c #222A164808E0",
"i  c #29861BD40B68",
"p  c #31F8245013EC",
"a  c #33CD25AC14B7",
"s  c #390027801281",
"d  c #3F1F2AD71283",
"f  c #3CEB2A781456",
"g  c #3E3D2C7C16B9",
"h  c #3EAD2CEB1727",
"j  c #2076239D2765",
"k  c #209123B22774",
"l  c #23F72479252A",
"z  c #26E427642813",
"x  c #28822C013033",
"c  c #2B6A2F8D3485",
"v  c #2B3A2F9534FC",
"b  c #2C7130E0364C",
"n  c #30C63488390D",
"m  c #32E136683AA5",
"M  c #34BD370639E2",
"N  c #3753399F3C7F",
"B  c #37223AA43ED7",
"V  c #43212DD7144E",
"C  c #55C93B961C25",
"Z  c #56333BFD1C89",
"A  c #5A0840632191",
"S  c #5A1E407A21A9",
"D  c #5DF4447425DB",
"F  c #5EB64559275B",
"G  c #61F0476B2799",
"H  c #67A849C325E3",
"J  c #68704A7E2690",
"K  c #632048A12936",
"L  c #7DC25A362F8D",
"P  c #7A5259083115",
"I  c #7D0559E32FB9",
"U  c #42FD45A248CF",
"Y  c #457E48014B02",
"T  c #4AB54E425284",
"R  c #4E4650E45404",
"E  c #4EA7522A5660",
"W  c #4FE1528055B2",
"Q  c #514853B556C5",
"!  c #549056E859CA",
"~  c #579F5AF15EF2",
"^  c #58E85C236009",
"/  c #6CD46E256FD0",
"(  c #7031716072CA",
")  c #72BA73137373",
"_  c #7329736C73B3",
"`  c #82475E083288",
"'  c #8BE465A437BD",
"]  c #8C2065D037D7",
"[  c #91236AB63C9A",
"{  c #91886B1A3CFD",
"}  c #94DA6CBD3C9A",
"|  c #954D6D213CEC",
" . c #943F6E144059",
".. c #975D707641DA",
"X. c #9BD373AB43A4",
"o. c #9DC2752D449F",
"O. c #A7217BB947A2",
"+. c #AAFC7EA3496A",
"@. c #B00682424B58",
"#. c #B72F87604E00",
"$. c #BADD8A1E4F9F",
"%. c #B61287D15050",
"&. c #BD6D8C445146",
"*. c #BE1B8E2E54B3",
"=. c #C0C38EC752CC",
"-. c #C1379086561A",
";. c #C598935256FE",
":. c #C6E993B75649",
">. c #C67094075784",
",. c #CA01960657A7",
"<. c #C90595C1583C",
"1. c #CA25969858BB",
"2. c #CD36993B5AD9",
"3. c #CD2E99515B09",
"4. c #CF8F9B385C50",
"5. c #D5A09FD65F4D",
"6. c #D722A06D5EC8",
"7. c #D848A1D6607D",
"8. c #D9A8A280604F",
"9. c #DAEAA3B6617B",
"0. c #E489AAD1658E",
"q. c #E833ACEA65C5",
"w. c #E6C4AC7C668C",
"e. c #E875AD1B65E1",
"r. c #E884AD2765EA",
"t. c #E8FEAD82661F",
"y. c #E9B4AE07666B",
"u. c #EA1CAE55669A",
"i. c #EAA3AEB966D3",
"p. c #EB0FAF0B6707",
"a. c #EBECAFB06768",
"s. c #EE3CB172687F",
"d. c #EEBFB1D368B9",
"f. c #EFBAB3166A36",
"g. c #F0FBB366699C",
"h. c #F18AB3F56A0E",
"j. c #F148B43E6AE8",
"k. c #F24AB4866A67",
"l. c #F185B4916B6C",
"z. c #F317B4FE6A79",
"x. c #F364B53D6AA9",
"c. c #F30EB5336AF8",
"v. c #F424B5E46B30",
"b. c #F490B6336B5E",
"n. c #F519B6886B74",
"m. c #F626B7896C66",
"M. c #F5DAB8066DD1",
"N. c #F6ECB8286CD7",
"B. c #F820B8D26CDA",
"V. c #F791B8A46D20",
"C. c #F648B8586E01",
"Z. c #F778B9016E0C",
"A. c #F876B9BC6E76",
"S. c #F896B9306D1F",
"D. c #F8F1B98E6D7B",
"F. c #FA2ABA9E6E5D",
"G. c #FAB1BB1B6ECD",
"H. c #FB0BBB5E6EF5",
"J. c #FCE3BCCC6FE4",
"K. c #FCD4BCFD7060",
"L. c #FDA1BD71706B",
"P. c #FD63BDA0711B",
"I. c #FF4EBED8717B",
"U. c #FFB1BF097171",
"Y. c #FFFFBFB5725E",
"T. c #FFFFC331751F",
"R. c #7FC3801C8076",
"E. c #818A81D28219",
"W. c #8A418B358C6E",
"Q. c #8F58904A916D",
"!. c #9DE29F79A159",
"~. c #9E4E9FE1A1C0",
"^. c #AC92AC45ABC6",
"/. c #ADB2AD5CACCD",
"(. c #AE96AFE7B17B",
"). c #AF98B0C2B227",
"_. c #C4F2C49BC434",
"`. c #C52FC4C9C44F",
"'. c #C728C780C7E9",
"]. c #C90AC941C984",
"[. c #D45BD418D3C8",
"{. c #D4E2D490D42C",
"}. c #DCE2DCF8DD13",
"|. c #DEB3DDD4DCCA",
" X c #E015DF26DE08",
".X c #E36FE30AE293",
"XX c #E3FFE399E31F",
"oX c #E61BE547E44A",
"OX c #E632E612E5EC",
"+X c #E699E5C2E4C2",
"@X c #E81EE73AE628",
"#X c #E733E6FAE6B5",
"$X c #EA16E93BE834",
"%X c #EC86EC2CEBC3",
"&X c #ECF3EC97EC2A",
"*X c #F500F42EF329",
"=X c #F64BF57BF477",
"-X c #FA53FA4EFA47",
";X c #FB60FB5EFB5A",
":X c #FBDCFBDBFBDA",
">X c #FC54FC67FC7E",
",X c #FCF9FCFAFCFB",
"<X c #FD7FFD79FD73",
"1X c #FDEDFD99FD2F",
"2X c #FE21FE23FE26",
"3X c #FE81FE7FFE7D",
"4X c #FED9FEDAFEDB",
"5X c #FFFFFFDBFF73",
"6X c #FF56FF6AFF84",
"7X c #FFF8FFF8FFF8",
/* pixels */
"a.a.a.a.a.a.a.a.a.a.a.a.a.a.a.a.a.a.a.a.a.a.a.a.a.a.a.a.a.a.a.a.a.a.a.a.",
"a.a.a.a.a.a.a.a.a.a.a.a.a.a.a.a.a.q.q.a.a.a.a.a.a.a.a.a.a.a.a.a.a.a.a.a.",
"a.a.a.a.a.a.a.a.a.a.a.a.a.a.a.q.f.J.K.f.a.a.a.a.a.a.a.a.a.a.a.a.a.a.a.a.",
"a.a.a.a.a.a.a.a.a.a.a.a.a.a.a.V.9.} } 9.B.q.a.a.a.a.a.a.a.a.a.a.a.a.a.a.",
"a.a.a.a.a.a.a.a.a.a.a.a.a.a.D.X.  t t   o.V.a.a.a.a.a.a.a.a.a.a.a.a.a.a.",
"a.a.a.a.a.a.a.a.a.a.a.a.q.b.;.  Q.7X7XW.  ;.z.a.a.a.a.a.a.a.a.a.a.a.a.a.",
"a.a.a.a.a.a.a.a.a.a.a.a.q.L.H B 7X7X7X7Xm J L.q.a.a.a.a.a.a.a.a.a.a.a.a.",
"a.a.a.a.a.a.a.a.a.a.a.a.a.L.C E 7X-X-X7XT Z T.q.a.a.a.a.a.a.a.a.a.a.a.a.",
"a.a.a.a.a.a.a.a.a.a.a.a.a.D.[ 9 $X7X7X+X7 [ V.a.a.a.a.a.a.a.a.a.a.a.a.a.",
"a.a.a.a.a.a.a.a.a.a.a.a.q.g.T.g N 7X7XM g T.g.a.a.a.a.a.a.a.a.a.a.a.a.a.",
"a.a.a.a.a.a.a.a.a.a.a.a.m.9.A @ l 7X7Xj @ A 9.b.q.a.a.a.a.a.a.a.a.a.a.a.",
"a.a.a.a.a.a.a.a.a.a.a.z.3.- b !.XX7X7X.X!.c 6 2.g.a.a.a.a.a.a.a.a.a.a.a.",
"a.a.a.a.a.a.a.a.a.a.a.z.i E 7X7X7X7X7X7X7X7XT i g.a.a.a.a.a.a.a.a.a.a.a.",
"a.a.a.a.a.a.a.a.a.q.V.@., +X7X-X7X7X7X,X-X7X+X< #.b.a.a.a.a.a.a.a.a.a.a.",
"a.a.a.a.a.a.a.a.a.q.L.` x 7X7X7X7X7X7X7X7X>X7Xx I L.q.a.a.a.a.a.a.a.a.a.",
"a.a.a.a.a.a.a.a.a.q.L.' j 7X>X7X7X7X7X7X7X7X7Xk ] L.q.a.a.a.a.a.a.a.a.a.",
"a.a.a.a.a.a.a.a.a.a.z.1.  `.7X>X7X7X7X7X-X7X`.+ 1.z.a.a.a.a.a.a.a.a.a.a.",
"a.a.a.a.a.a.a.a.a.a.a.D.F q {.7X7X7X7X7X7X[.q G D.a.a.a.a.a.a.a.a.a.a.a.",
"a.a.a.a.a.a.a.a.a.a.a.a.g.F   /.7X7X-X7X^.  K z.a.a.a.a.a.a.a.a.a.a.a.a.",
"a.a.a.a.a.a.a.a.a.a.q.z.V. .  _ 7X-X-X7X)   ..V.z.q.a.a.a.a.a.a.a.a.a.a.",
"a.a.a.a.a.a.a.a.a.q.V.2.y 9 E.$X7X7X7X7X$XR.9 u 3.V.q.a.a.a.a.a.a.a.a.a.",
"a.a.a.a.a.a.a.a.q.V.*.  ! *X7X7X7X7X7X7X7X7X*XQ + -.V.q.a.a.a.a.a.a.a.a.",
"a.a.a.a.a.a.a.a.g.5.% ( 7X7X-X7X7X7X7X7X7X-X7X7X/ & 7.z.a.a.a.a.a.a.a.a.",
"a.a.a.a.a.a.a.a.V.s Y 7X-X7X7X7X7X7X7X7X7X7X>X-X7XU f V.q.a.a.a.a.a.a.a.",
"a.a.a.a.a.a.q.D.O.: |.7X7X7X7X7X7X7X7X7X7X7X7X-X7X|.= +.D.a.a.a.a.a.a.a.",
"a.a.a.a.a.a.a.K.V ~ 7X-X7X7X7X7X7X7X7X7X7X7X7X7X-X7X~ V L.q.a.a.a.a.a.a.",
"a.a.a.a.a.a.a.0.& ).7X7X7X7X7X7X7X7X7X7X7X7X7X7X7X7X/.6 q.f.a.a.a.a.a.a.",
"a.a.a.a.a.a.b.;.= }.7X-X7X7X7X7X7X7X7X7X7X7X7X7X7X7X}.< :.z.q.a.a.a.a.a.",
"a.a.a.a.a.q.m.#.3 &X7X7X7X7X7X7X7X7X7X7X7X7X7X7X7X7X&X7 $.m.a.a.a.a.a.a.",
"a.a.a.a.a.a.m.&.2 +X7X7X7X-X7X7X7X7X7X-X7X7X-X7X-X7X+X3 =.m.a.a.a.a.a.a.",
"a.a.a.a.a.a.g.5.% ].7X7X7X7X7X7X7X7X7X7X7X7X7X7X7X7X`.- 6.f.q.a.a.a.a.a.",
"a.a.a.a.a.a.a.g.p e b c b x c c c c c c c b c c x m w a z.a.a.a.a.a.a.a.",
"a.a.a.a.a.a.a.g.#.P I I I I I I I I I I I I I I I L P %.g.a.a.a.a.a.a.a.",
"a.a.a.a.a.a.a.a.m.L.L.L.L.L.L.T.L.L.L.L.L.T.L.L.L.T.L.b.a.a.a.a.a.a.a.a.",
"a.a.a.a.a.a.a.a.a.q.q.q.q.q.a.q.q.q.q.q.a.q.q.q.q.q.a.a.a.a.a.a.a.a.a.a.",
"a.a.a.a.a.a.a.a.a.a.a.a.a.a.a.a.a.a.a.a.a.a.a.a.a.a.a.a.a.a.a.a.a.a.a.a."
};
