/* XPM */
static char *pll__[] = {
/* columns rows colors chars-per-pixel */
"32 32 186 2",
"   c #0EF60A3604AE",
".  c #0F680D7F0B3B",
"X  c #113308310000",
"o  c #13B00A090000",
"O  c #15900A360000",
"+  c #17540B790000",
"@  c #13140BB402DB",
"#  c #113F0BE505A6",
"$  c #12D50DAA0776",
"%  c #11480DEB09E1",
"&  c #10790E200B61",
"*  c #13E30EB90886",
"=  c #19BA10D20621",
"-  c #131B0FC30BC0",
";  c #18DF14500ED9",
":  c #099F0E271425",
">  c #0AD60F80159A",
",  c #19A215170FA2",
"<  c #1B2316070FE5",
"1  c #19F41770146A",
"2  c #1C1018FC154A",
"3  c #124714AF17BE",
"4  c #0F9114D41B31",
"5  c #142F169819A6",
"6  c #11D9171E1DB9",
"7  c #23F9181409CE",
"8  c #2589194A0A99",
"9  c #26F21A440B0D",
"0  c #26541AFC0D60",
"q  c #28201B200B88",
"w  c #2F0E1EBB0B23",
"e  c #28261C430DFF",
"r  c #3B8027FA108D",
"t  c #3D902AFB1508",
"y  c #3E312C1016A0",
"u  c #1FBB1FD61FF6",
"i  c #227F229222A8",
"p  c #22352556291A",
"a  c #22F9261829E2",
"s  c #2E6A2DD22D1D",
"d  c #30402FA42EEA",
"f  c #286C2C40311E",
"g  c #2A3C2E2132FC",
"h  c #2D0F32923963",
"j  c #2E7834003AE2",
"k  c #30AE35733B5E",
"l  c #334437EE3DC5",
"z  c #38A039E03B6F",
"x  c #39063A3C3BBC",
"c  c #43812DBF13A5",
"v  c #40C92D5F1679",
"b  c #4B6134BB1A46",
"n  c #4E5E36FE1BA7",
"m  c #5DDA41BE2003",
"M  c #619C449021B4",
"N  c #60D5455A2460",
"B  c #60E5456C2473",
"V  c #6A374B392608",
"C  c #6B574C102687",
"Z  c #6CA44E802A76",
"A  c #6E80508C2CC7",
"S  c #706051582C31",
"D  c #701551D62D9A",
"F  c #7FD05E1E34F0",
"G  c #7E955E433779",
"H  c #7F895EFB37EB",
"J  c #4A814E12525A",
"K  c #565E59E45E1F",
"L  c #573B5AC55F05",
"P  c #5B3E5C375D66",
"I  c #5C725D5A5E7D",
"U  c #804B5E9A356B",
"Y  c #8BC7662E390F",
"T  c #8D7367873A06",
"R  c #8F2B683E3989",
"E  c #A9AB7D3A47DF",
"W  c #ABAA7ECB48EB",
"Q  c #B61285834B3E",
"!  c #B6A586134BCB",
"~  c #C82E949A56B7",
"^  c #CAFF96BD580A",
"/  c #CEDE98FD5856",
"(  c #CE519A845C39",
")  c #D1919B015987",
"_  c #D3019CB35B89",
"`  c #D1939CEE5DA6",
"'  c #D3A49D495C0F",
"]  c #D849A07C5D87",
"[  c #D819A0DF5E9A",
"{  c #D85BA1205EDA",
"}  c #D986A1755E2D",
"|  c #D85CA14F5F37",
" . c #DA90A2375E99",
".. c #DBB7A3175F24",
"X. c #DA4FA2C26010",
"o. c #E847ACF865CD",
"O. c #E8D9AD65660E",
"+. c #E996ADF46664",
"@. c #EA2EAE6566A6",
"#. c #EA97AEAC66CA",
"$. c #EAFBAEFC66FE",
"%. c #EB49AF3E6730",
"&. c #EBE6AFAB6765",
"*. c #ED2BB08567BF",
"=. c #EDD1B1026812",
"-. c #ED7EB17D697C",
";. c #EECBB1BA6872",
":. c #EFD3B2C96989",
">. c #F109B39269D2",
",. c #F105B3AF6A16",
"<. c #F123B4236AF0",
"1. c #F222B4816A8C",
"2. c #F275B4D66AE3",
"3. c #F288B52E6B8F",
"4. c #F310B58A6BB3",
"5. c #F420B5F66B52",
"6. c #F49DB6546B8C",
"7. c #F253B5626C1C",
"8. c #F36CB6366C9C",
"9. c #F5D2B7816CB8",
"0. c #F5B4B7C86D6C",
"q. c #F6B6B8896DDD",
"w. c #F7C7B8F96D9C",
"e. c #F90CB9776D2B",
"r. c #FA02BB146F92",
"t. c #FAA4BB116EC0",
"y. c #FC32BC636FAB",
"u. c #FB63BC31704C",
"i. c #FCB9BCF77075",
"p. c #FE0EBDCE70AE",
"a. c #FE51BE6671B2",
"s. c #FFD7BF6D721F",
"d. c #FFFFC9957880",
"f. c #7DB982658802",
"g. c #7EE7837888F4",
"h. c #80F484338815",
"j. c #812284638844",
"k. c #856D88878C60",
"l. c #865189398CD5",
"z. c #8FEA930E96D2",
"x. c #8FF0931396D7",
"c. c #973299629BE2",
"v. c #97E09AAD9E08",
"b. c #99649B7A9DDC",
"n. c #99BA9C839FD0",
"m. c #AE67B0B6B37C",
"M. c #AF52B17FB41C",
"N. c #B1EFB487B7A3",
"B. c #B3F6B694B9B8",
"V. c #BE1CBF23C05E",
"C. c #BF26C151C3EC",
"Z. c #BF5CC182C416",
"A. c #C085C192C2D6",
"S. c #CA88CBE8CD84",
"D. c #CB3ACC9BCE36",
"F. c #CEC6CF44CFDC",
"G. c #D293D2A1D2AC",
"H. c #D26DD2E4D36B",
"J. c #D43DD433D421",
"K. c #DC15DD1DDE5B",
"L. c #DCA9DD92DEA9",
"P. c #DE65DF3CE03E",
"I. c #DFB1E069E145",
"U. c #E792E829E8DD",
"Y. c #E825E89BE929",
"T. c #F236F19AF0D4",
"R. c #F3A8F305F234",
"E. c #F3E5F361F2C7",
"W. c #F42EF3ABF312",
"Q. c #F522F504F4DF",
"!. c #F754F736F713",
"~. c #F855F7A0F6BF",
"^. c #F88EF872F852",
"/. c #F929F925F920",
"(. c #F9A5F952F8EE",
"). c #FA4EF999F8B9",
"_. c #FBA5FAABF972",
"`. c #FBEEFAFBF9D5",
"'. c #FB6BFB4BFB26",
"]. c #FBE9FBE9FBEA",
"[. c #FCD3FBD0FA93",
"{. c #FC93FC88FC7A",
"}. c #FD00FCFFFCFC",
"|. c #FE4DFE4DFE4D",
" X c #FF20FF23FF27",
".X c #FFF8FFF8FFF8",
/* pixels */
"&.&.&.&.&.&.&.&.&.&.&.&.&.&.&.&.&.&.&.&.&.&.&.&.&.&.&.&.&.&.&.&.",
"&.&.&.&.&.&.&.&.&.&.&.&.&.&.o.&.o.o.&.&.&.&.&.&.&.&.&.&.&.&.&.&.",
"&.&.&.&.&.&.&.&.&.&.&.&.&.&.t.t.i.t.&.&.&.&.&.&.&.&.&.&.&.&.&.&.",
"&.&.&.&.&.&.&.&.&.&.&.&.&.3.Y w w T 8.&.&.&.&.&.&.&.&.&.&.&.&.&.",
"&.&.&.&.&.&.&.&.&.&.&.&.t.A 6 b.v.4 A t.&.&.&.&.&.&.&.&.&.&.&.&.",
"&.&.&.&.&.&.&.&.&.&.o.>._ - H..X.XF.* ' -.&.&.&.&.&.&.&.&.&.&.&.",
"&.&.&.&.&.&.&.&.&.&.&.t.Q i /..X.X[.i Q w.&.&.&.&.&.&.&.&.&.&.&.",
"&.*.&.&.&.&.&.&.&.&.&.-.[ * A..X.XB.$ | -.&.&.&.*.&.&.&.&.&.&.&.",
"&.&.&.&.&.&.&.&.&.&.&.&.d.U 5 /.^.3 U d.&.&.&.&.&.&.&.&.&.&.&.&.",
"&.&.&.&.*.&.&.&.&.&.-.&.B @ d ~.Q.s @ B -.*.&.&.&.&.&.&.&.&.&.&.",
"&.&.&.&.&.&.&.&.&.&.3.y j D.~..X.X^.S.h t 3.&.&.&.&.&.&.&.&.&.&.",
"&.&.&.&.&.&.&.&.o.y.R a /..X.X.X.X.X.X/.a R t.o.&.&.&.&.&.&.&.&.",
"&.&.&.&.&.&.&.&.&.i.c j..X/..X.X.X.X~..Xj.c s.o.&.&.&.*.&.&.&.&.",
"&.&.&.&.&.&.&.&.o.i.r x..X/..X.X.X.X/..Xx.r y.&.&.&.&.&.&.&.&.&.",
"&.&.&.&.&.&.&.&.o.s.V J .X/..X.X.X.X{..XJ C s.o.&.&.&.&.&.&.&.&.",
"&.&.&.&.&.&.&.&.&.-.|   l..X.X.X.X.X.Xl.$ | -.&.&.&.&.&.&.&.&.&.",
"&.&.&.&.&.&.&.&.&.&.3.( X P .X.X.X.XP o ` 3.o.&.&.&.&.&.&.&.&.&.",
"&.&.&.&.&.&.&.&.&.*.t.W o z .X.X/..Xz + W t.*.&.&.&.&.&.&.&.&.&.",
"&.&.&.&.&.&.&.&.&.<.b : b.E..X.X.X.XE.c.: n 8.*.&.&.&.&.&.&.&.&.",
"&.&.&.&.&.&.&.&.0.t k E..X.X.X.X.X.X.X.XE.k y w.&.&.&.&.&.&.&.&.",
"&.&.&.&.&.&.o.s.Z g /..X/..X.X.X.X.X.X/..X/.f A s.o.&.&.&.&.&.&.",
"&.&.&.&.&.&.3.~ . J..X.X.X.X.X.X.X.X.X.X{..XH.* ~ >.&.&.&.&.&.&.",
"&.&.&.&.&.o.s.m K .X/..X.X.X.X.X.X.X.X.X.X/..XK M s.o.&.&.&.&.&.",
"&.&.&.&.&.&.>.7 m..X.X.X.X.X.X.X.X.X.X.X.X.X.Xm.9 3.&.&.&.&.&.&.",
"&.&.&.&.&.>.| ; K..X.X.X.X.X.X.X.X.X.X.X.X.X.XK.; ..-.&.&.&.&.&.",
"&.&.&.&.o.>./ 1 Y..X/..X.X/.{.{..X/..X/.{./..XU.2 ) >.&.&.&.&.&.",
"&.&.&.&.&.3.' ; I..X.X.X.X.X.X.X.X.X.X.X.X.X.XP.< | >.&.&.&.&.&.",
"&.&.&.&.&.&.>.e g.C.M.B.B.B.B.B.B.B.B.B.B.N.C.f.e 3.&.&.&.&.&.&.",
"&.&.&.&.&.&.9.G = 0 9 9 9 9 7 9 9 9 9 7 9 9 9 = G e.&.&.&.&.&.&.",
"&.&.&.&.&.&.&.>.>.8.3.3.>.3.3.3.>.3.3.3.3.-.3.3.>.&.&.&.&.&.&.&.",
"&.&.&.&.&.&.&.&.&.&.&.&.&.&.o.&.&.&.&.&.&.&.&.&.&.&.*.&.&.&.&.&.",
"&.&.&.&.&.&.&.&.&.o.&.&.&.&.&.&.&.&.&.&.&.&.&.&.&.&.&.&.&.&.&.&."
};
