/* XPM */
static char *pll__[] = {
/* columns rows colors chars-per-pixel */
"37 37 213 2",
"   c black",
".  c #023F00000000",
"X  c #02FD00060000",
"o  c #034700840000",
"O  c #000000000325",
"+  c #03AE000C0000",
"@  c #0518013C0000",
"#  c #05F9027F0000",
"$  c #060C028F0000",
"%  c #06FA02860000",
"&  c #05C203BF0154",
"*  c #061D0623062A",
"=  c #093A04220000",
"-  c #09BD04710000",
";  c #0CBD06AA0000",
":  c #0E5A071C0000",
">  c #0ED9075D0000",
",  c #0F7B07BF0000",
"<  c #087C087A0878",
"1  c #10DE08ED0000",
"2  c #11B209930000",
"3  c #0D120F171151",
"4  c #0D7E0F9E11FC",
"5  c #0DD20FE612A8",
"6  c #0F771191145F",
"7  c #0FB9143F19D7",
"8  c #132E167E1A76",
"9  c #137716D41ADD",
"0  c #130F17A71D2A",
"q  c #17CA1A801DCC",
"w  c #18761B1A1E49",
"e  c #18A41B341E49",
"r  c #25E917A50686",
"t  c #25CB17A006A1",
"y  c #28D719E407F3",
"u  c #29BE1A7F0834",
"i  c #2A3B1B8009D4",
"p  c #2B2C1F04107C",
"a  c #2F3621EB1232",
"s  c #370C26E614A2",
"d  c #3AC92990163B",
"f  c #17F31BAE2028",
"g  c #246328532D1A",
"h  c #2D5F311435A9",
"j  c #2FE8338B3810",
"k  c #311134D6395D",
"l  c #31C635893A0C",
"z  c #35FC38D43C41",
"x  c #382E3AE73E2C",
"c  c #43DD2FAA176D",
"v  c #481532DB196D",
"b  c #498233C719CD",
"n  c #4BB2357E1AEF",
"m  c #4C8A37691EC8",
"M  c #4EBD39251FEF",
"N  c #56303E84221C",
"B  c #57BF3FCB230E",
"V  c #620645BE23CE",
"C  c #6662490425C6",
"Z  c #66BA4A9828D5",
"A  c #698A4CB02A11",
"S  c #6B3D4DCF2AA7",
"D  c #6B764E092AE6",
"F  c #6DBA51252ED6",
"G  c #6FC452AB2FBC",
"H  c #472C47394740",
"J  c #47D547DC47DA",
"K  c #609762BE6554",
"L  c #619563B8664A",
"P  c #72EE73CA74DE",
"I  c #739074427534",
"U  c #772C77237715",
"Y  c #77FA77EB77D6",
"T  c #76A977507826",
"R  c #790B7B247DAA",
"E  c #79A37C5E7FA4",
"W  c #7B1C7CFE7F4A",
"Q  c #803D5FB2377F",
"!  c #8099600C37D7",
"~  c #98BC6FC33E98",
"^  c #92F96D584051",
"/  c #93166D76406E",
"(  c #997671A441DC",
")  c #A64B7A6C45C7",
"_  c #ADF981B54C95",
"`  c #B0CB841D4E89",
"'  c #B0EF845C4EE7",
"]  c #B40286884FFD",
"[  c #B4768702507F",
"{  c #BC1E8B7A511B",
"}  c #BCB28C0B51A8",
"|  c #BE248D9B535E",
" . c #C1A7904054F8",
".. c #C8C195B35870",
"X. c #C96B963D58D4",
"o. c #CF4E9A685AED",
"O. c #D0009B875C85",
"+. c #D34D9DBA5D6F",
"@. c #D3D09E305DD6",
"#. c #D6109F8C5E22",
"$. c #D5BC9FEF5F5D",
"%. c #D77EA0D95F46",
"&. c #D7DEA1515FDA",
"*. c #D7E2A18B6052",
"=. c #D87CA1FF6098",
"-. c #D9B7A3176185",
";. c #E17BA87F641E",
":. c #E414AA6F6543",
">. c #E5F8AB1064AB",
",. c #E74AABCF6525",
"<. c #E696AC2165FA",
"1. c #E819ACD465B5",
"2. c #E80EAD9E677F",
"3. c #E86FAD1865E3",
"4. c #E886AD2865EA",
"5. c #E8E6AD6E6612",
"6. c #E9A0ADF96664",
"7. c #E8B4ADE66751",
"8. c #EA3BAE6E66AA",
"9. c #EA99AEB466D3",
"0. c #EAF5AEFC6704",
"q. c #EB4DAF566755",
"w. c #EBECAFB06768",
"e. c #EA1AAF1F685A",
"r. c #EA8EAF75688A",
"t. c #EDC0B10B6834",
"y. c #EE14B1436849",
"u. c #EEA3B1B8689F",
"i. c #EF6BB2546905",
"p. c #F017B2C26929",
"a. c #F082B3126958",
"s. c #F125B39F69CB",
"d. c #F1ABB4026A04",
"f. c #F248B47E6A58",
"g. c #F2F1B4FC6AA2",
"h. c #F459B6106B51",
"j. c #F3C1B7456BB5",
"k. c #F479B6296B63",
"l. c #F5C5B7256BFE",
"z. c #F495B8026C27",
"x. c #F661B79A6C45",
"c. c #F607B8196DCA",
"v. c #F6A7B7DF6C87",
"b. c #F6FDB8F46E84",
"n. c #F832B9DB6F0C",
"m. c #F87BB9236D1F",
"M. c #F95CB9BD6D64",
"N. c #F9CBBA126D99",
"B. c #FA02BA546DE6",
"V. c #F93ABA216E69",
"C. c #F968BA3D6E71",
"Z. c #F9A6BA566E5D",
"A. c #FA74BB2F6F43",
"S. c #FAD4BB086E77",
"D. c #FB7ABB6E6E90",
"F. c #FC20BBF06EEB",
"G. c #FB30BBB96F8E",
"H. c #FC44BC516F93",
"J. c #FCD4BC676F19",
"K. c #F40BBAEA7063",
"L. c #F672BCE37186",
"P. c #FD27BD017007",
"I. c #FF60BEE67187",
"U. c #FFFFC0E07222",
"Y. c #7A877D1C8035",
"T. c #9269928392A0",
"R. c #947B949C94C7",
"E. c #95A495B995C2",
"W. c #999999AE99B9",
"Q. c #9C9B9DB09EFF",
"!. c #A6D7A786A857",
"~. c #A744A8DAAABF",
"^. c #A7EEA965AB1E",
"/. c #A820A9A9AB81",
"(. c #A9F5AAABAB86",
"). c #A9CCAB39ACF0",
"_. c #B681B674B654",
"`. c #B62AB74BB8A5",
"'. c #B6F2B7EEB917",
"]. c #BB11BAFABADF",
"[. c #BFE6BF1EBE2C",
"{. c #C116C04EBF5E",
"}. c #C18CC1F5C273",
"|. c #C322C3D9C4AE",
" X c #C526C5D3C69B",
".X c #C794C715C67E",
"XX c #C82CC7BDC739",
"oX c #C9B8C936C89B",
"OX c #CAE2CA5BC9B8",
"+X c #CF2DCF6BCFB6",
"@X c #DA6ED9B7D8D1",
"#X c #DC58DBA5DAC1",
"$X c #DF52DEF9DE8F",
"%X c #E289E228E1B4",
"&X c #EBF8EBBAEB72",
"*X c #ED43ED09ECC4",
"=X c #F0E6EFA2EE19",
"-X c #F439F388F2B1",
";X c #F9E2F91CF82E",
":X c #F9BAF9B4F9AF",
">X c #FA88F9A5F894",
",X c #FB7AFB86FB94",
"<X c #FBEEFBF1FBF5",
"1X c #FDE6FD1FFC30",
"2X c #FCD1FCD1FCD1",
"3X c #FDA6FD6AFD24",
"4X c #FDC6FD8CFD48",
"5X c #FE23FE17FE0A",
"6X c #FE74FE8BFEA8",
"7X c #FF23FF22FF21",
"8X c #FF48FF64FF87",
"9X c #FF6CFF89FFAB",
"0X c #FFF9FFF9FFF9",
/* pixels */
"w.w.w.w.w.w.w.w.w.w.w.w.w.w.w.w.w.w.w.w.w.w.w.w.w.w.w.w.w.w.w.w.w.w.w.w.w.",
"w.w.w.w.w.w.w.w.w.w.w.w.w.w.w.w.w.,.,.w.w.w.w.w.w.w.w.w.w.w.w.w.w.w.w.w.w.",
"w.w.w.w.w.w.w.w.w.w.w.w.w.w.w.w.w.k.B.f.w.w.w.w.w.w.w.w.w.w.w.w.w.w.w.w.w.",
"w.w.w.w.w.w.w.w.w.w.w.w.w.w.w.w.b.X.) X.B.w.w.w.w.w.w.w.w.w.w.w.w.w.w.w.w.",
"w.w.w.w.w.w.w.w.w.w.w.w.w.w.p.e.m   3   M w.w.w.w.w.w.w.w.w.w.w.w.w.w.w.w.",
"w.w.w.w.w.w.w.w.w.w.w.w.w.w.b.N 0 OX;X.X7 N B.w.w.w.w.w.w.w.w.w.w.w.w.w.w.",
"w.w.w.w.w.w.w.w.w.w.w.w.w.p.$.% ].0X,X0X_.  $.f.w.w.w.w.w.w.w.w.w.w.w.w.w.",
"w.w.w.w.w.w.w.w.w.w.w.w.w.c.| < %X0X,X0X$X* } c.,.w.w.w.w.w.w.w.w.w.w.w.w.",
"w.w.w.w.w.w.w.w.w.w.w.w.w.p.%.; (.0X,X0X!.  *.p.w.w.w.w.w.w.w.w.w.w.w.w.w.",
"w.w.w.w.w.w.w.w.w.w.w.w.w.:.U.G 6 @X0X@X5 Q U.,.w.w.w.w.w.w.w.w.w.w.w.w.w.",
"w.w.w.w.w.w.w.w.w.w.w.w.w.B.O.S   W.0XR.  D O.B.,.w.w.w.w.w.w.w.w.w.w.w.w.",
"w.w.w.w.w.w.w.w.w.w.w.w.B.^   g Y *X0X&XY g   ^ B.w.w.w.w.w.w.w.w.w.w.w.w.",
"w.w.w.w.w.w.w.w.w.w.1.b._   R.0X0X0X0X0X0X0XT.  _ c.,.w.w.w.w.w.w.w.w.w.w.",
"w.w.w.w.w.w.w.w.w.w.w.c.i L 0X,X,X0X0X0X,X,X0XK i k.w.w.w.w.w.w.w.w.w.w.w.",
"w.w.w.w.w.w.w.w.w.1.p.%.% }.0X,X0X0X0X0X0X,X0X}.% %.p.w.w.w.w.w.w.w.w.w.w.",
"w.w.w.w.w.w.w.w.w.w.f.o.& +X0X0X0X0X0X0X0X0X0X+X% o.f.w.w.w.w.w.w.w.w.w.w.",
"w.w.w.w.w.w.w.w.w.w.p.,.; Q.0X:X0X0X0X0X0X;X0XQ.1 e.t.w.w.w.w.w.w.w.w.w.w.",
"w.w.w.w.w.w.w.w.w.e.,.I.A f =X0X0X0X0X0X0X0X*Xf A P.1.w.w.w.w.w.w.w.w.w.w.",
"w.w.w.w.w.w.w.w.w.w.w.w.,.p q {.0X,X0X,X0X[.q a 1.p.w.w.w.w.w.w.w.w.w.w.w.",
"w.w.w.w.w.w.w.w.w.w.p.,.f.K.s 3 -X0X0X0X-X3 d L.k.,.w.w.w.w.w.w.w.w.w.w.w.",
"w.w.w.w.w.w.w.w.w.w.1.B.*.b   H 0X0X1X0X0XH   n -.B.1.w.w.w.w.w.w.w.w.w.w.",
"w.w.w.w.w.w.w.w.w.,.H._   j .X0X0X0X0X0X0X,X}.h % [ B.1.w.w.w.w.w.w.w.w.w.",
"w.w.w.w.w.w.w.w.1.B.'   U 0X0X0X0X0X0X0X0X0X0X0XP   ] B.w.e.w.w.w.w.w.w.w.",
"w.w.w.w.w.w.w.w.f.*.% T 0X,X,X0X0X0X0X0X0X0X,X,X0XP = *.p.1.w.w.w.w.w.w.w.",
"w.w.w.w.w.w.w.1.B.c x 0X2X0X0X0X0X0X0X0X0X0X0X1X0X0Xz v B.w.w.w.w.w.w.w.w.",
"w.w.w.w.w.w.w.c.|   OX0X<X0X0X0X0X0X0X0X0X0X0X0X,X0X.X   .c.w.w.w.w.w.w.w.",
"w.w.w.w.w.w.,.I.V k 0X0X0X0X0X0X0X0X0X0X0X0X0X0X0X0X0Xk C I.,.w.w.w.w.w.w.",
"w.w.w.w.w.w.w.c.t R 0X,X0X0X0X0X0X0X0X0X0X0X0X0X0X,X0XR i b.1.w.w.w.w.w.w.",
"w.w.w.w.w.w.w.1.1 ~.0X0X0X0X0X0X0X0X0X0X0X0X0X0X0X2X0X~.1 e.p.w.w.w.w.w.w.",
"w.w.w.w.w.w.f.-.= '.0X,X0X0X0X0X0X0X0X0X0X0X0X0X0X,X0X`.; :.t.w.w.w.w.w.w.",
"w.w.w.w.w.w.p.1.; (.0X<X0X0X0X0X0X0X0X0X0X0X0X0X0X,X0X~., w.w.w.w.w.w.w.w.",
"w.w.w.w.w.e.w.b.r W 0X;X<X<X1X1X1X1X<X,X1X1X1X1X<X,X0XR y b.w.w.w.w.w.w.w.",
"w.w.w.w.w.w.1.B.F   q 7 9 9 9 9 7 7 q 7 9 9 7 9 9 9 e O F J.w.w.w.w.w.w.w.",
"w.w.w.w.w.w.w.p.$.( ~ ~ ~ ~ ~ ~ ~ ~ ~ ~ ~ ~ ~ ~ ~ ~ ~ ( @.p.w.w.w.w.w.w.w.",
"w.w.w.w.w.w.w.w.f.B.P.P.I.B.I.B.P.P.B.P.J.B.I.B.J.B.I.B.p.w.w.w.w.w.w.w.w.",
"w.w.w.w.w.w.w.w.w.1.w.,.1.1.1.w.1.1.w.1.w.1.1.w.w.1.1.w.w.w.w.w.w.w.w.w.w.",
"w.w.w.w.w.w.w.w.w.w.w.w.w.w.w.w.w.w.w.w.w.w.w.w.w.w.w.w.w.w.w.w.w.w.w.w.w."
};
