/* XPM */
static char *pll__[] = {
/* columns rows colors chars-per-pixel */
"44 44 226 2",
"   c black",
".  c #000000000205",
"X  c #03FA020F0043",
"o  c #050E02D800AD",
"O  c #00000072047D",
"+  c #0000023405FD",
"@  c #000002860624",
"#  c #0000021106E0",
"$  c #0CCC05580000",
"%  c #00000388085B",
"&  c #0260060E0A79",
"*  c #037207140B71",
"=  c #066907E00996",
"-  c #06F5085109E5",
";  c #06C308AC0B0C",
":  c #07D409E70C63",
">  c #08DD0AB70D3D",
",  c #08DB0ACE0DC7",
"<  c #0A240C0B0E56",
"1  c #105407FF0000",
"2  c #129D0D090658",
"3  c #14470E450711",
"4  c #1E4F125303F0",
"5  c #0A5F0D571140",
"6  c #0AA00DAF11B3",
"7  c #0C0A0FDA146D",
"8  c #100F135F175C",
"9  c #108B13D817CE",
"0  c #22E915F20662",
"q  c #2171187C0DBB",
"w  c #21DD18DD0E5F",
"e  c #24E61B270F74",
"r  c #254B1B750FF8",
"t  c #32C2253F1514",
"y  c #355127B21788",
"u  c #371A2898172F",
"i  c #38AB2A46191B",
"p  c #39592B1C1A3B",
"a  c #3DF42D971A03",
"s  c #3D882DE71B2D",
"d  c #3DFC2E7F1C2F",
"f  c #1E4F224226FF",
"g  c #1ECF22D127A1",
"h  c #22AB25C22977",
"j  c #224E26412AFF",
"k  c #36A0372937CA",
"l  c #371437973830",
"z  c #3FD12F9F1C3D",
"x  c #44163021182E",
"c  c #44E730BC188A",
"v  c #42C231391C2F",
"b  c #4BB936FA1E15",
"n  c #4ADC37341F9D",
"m  c #4F7A388C1D08",
"M  c #508E39251D0C",
"N  c #4C9D38A120A5",
"B  c #553A3DBE2190",
"V  c #55503DD421A7",
"C  c #614047662861",
"Z  c #66654B472ABE",
"A  c #69934D1C2AF3",
"S  c #69D94F2B2F2B",
"D  c #6BAA507E2FF7",
"F  c #6EEC52412FE3",
"G  c #6FC1535B3148",
"H  c #74E7573D33A4",
"J  c #787859C33503",
"K  c #7D305C3434A0",
"L  c #7BFD5C6E36A4",
"P  c #7FE65E523605",
"I  c #4C024C534CAE",
"U  c #4B704DBD5081",
"Y  c #508550D55130",
"T  c #527E54B4575C",
"R  c #5C0E5B855AE4",
"E  c #5D0C5C7B5BD1",
"W  c #5D645DDA5E73",
"Q  c #5CF85E586007",
"!  c #5E9A5FCC613C",
"~  c #603960956104",
"^  c #609B61036196",
"/  c #63AE64116488",
"(  c #66F066336547",
")  c #68C167FF670F",
"_  c #6D6B6D486D1E",
"`  c #700B6FC56F73",
"'  c #75347441731F",
"]  c #779176A47588",
"[  c #7E927D5F7BEE",
"{  c #825D601336EC",
"}  c #849A61D23815",
"|  c #85CC63DC3B21",
" . c #865364403B5B",
".. c #90E46B8A3EB7",
"X. c #94AF6E744094",
"o. c #958A6F24410F",
"O. c #9742707841ED",
"+. c #965871DB448E",
"@. c #967271F444A8",
"#. c #9C27741F4415",
"$. c #9DB4757F453F",
"%. c #9E2C75F545B2",
"&. c #9D49759445EE",
"*. c #9FA9775946F8",
"=. c #A8557E014B36",
"-. c #A9857EEC4BCF",
";. c #808C7F597DE9",
":. c #B69A88AD518F",
">. c #BA4C8B64531A",
",. c #BE818E9E5526",
"<. c #C16290D55692",
"1. c #C1E2913B56D9",
"2. c #C28991C05734",
"3. c #CB6598515B05",
"4. c #CF109B0C5CA0",
"5. c #D30B9DF85E47",
"6. c #DB7DA3E96138",
"7. c #DA39A4CE6356",
"8. c #DC95A47B611E",
"9. c #DDDBA5AC623D",
"0. c #DEF2A6356220",
"q. c #DFF4A701629C",
"w. c #DFEEA7376325",
"e. c #DDD1A77E64E8",
"r. c #E088A76462D2",
"t. c #E35DA96763D8",
"y. c #E456AA1F6441",
"u. c #E638AB3064C3",
"i. c #E835ACEC65C7",
"p. c #E7FBADB167BF",
"a. c #E86CAD1465DF",
"s. c #E8EFAD77661A",
"d. c #E9B3ADF96665",
"f. c #EA2AAE6466A5",
"g. c #EA81AEA166C9",
"h. c #EB11AF0D6708",
"j. c #EB57AF446728",
"k. c #EBEBAFAF6767",
"l. c #EC6DB01067A0",
"z. c #EA77AF8A68D3",
"x. c #ECF0B07167D8",
"c. c #ED7FB1046870",
"v. c #EE1CB151685D",
"b. c #EF14B20A68CA",
"n. c #EF4FB2806988",
"m. c #EFDEB2976910",
"M. c #F119B375697D",
"N. c #F19FB3D869B6",
"B. c #F1D8B4256A1B",
"V. c #F22EB4DB6B3C",
"C. c #F283B48D6A33",
"Z. c #F3B3B56E6AB5",
"A. c #F2CFB5116AFA",
"S. c #F332B5796B65",
"D. c #F424B5E06B24",
"F. c #F5BDB7046BBE",
"G. c #F38DB6546CDA",
"H. c #F618B7686C2F",
"J. c #F4DAB73E6D50",
"K. c #F725B8146C66",
"L. c #F775B8466C75",
"P. c #F7A1B8666C87",
"I. c #F93EB9A56D53",
"U. c #F99CB9EA6D7B",
"Y. c #FA39BA666DD0",
"T. c #FAE2BAEB6E28",
"R. c #FB40BB3D6E6C",
"E. c #FC0BBBD36EC4",
"W. c #FB49BBB66F6D",
"Q. c #FC65BC1F6EFE",
"!. c #FCC8BC996F93",
"~. c #FDABBD2A6FC4",
"^. c #FDEFBD606FE8",
"/. c #FDD3BD987084",
"(. c #FEB3BE08706F",
"). c #FFFFC0C1717F",
"_. c #FFFFC17B71E9",
"`. c #8E848DE58D18",
"'. c #8F128E3D8D3E",
"]. c #91D8913C9073",
"[. c #957F94949378",
"{. c #A435A2C0A105",
"}. c #A98FA80FA642",
"|. c #AC3CAAC5A908",
" X c #AD67AD04AC8E",
".X c #AE5CADDAAD3E",
"XX c #AF1FAE65AD87",
"oX c #AF72AEB6ADD2",
"OX c #B7B8B650B4A2",
"+X c #B7BCB6CFB5B3",
"@X c #B939B7AFB5DB",
"#X c #B9BCB8B7B77E",
"$X c #BB12B9ABB7FC",
"%X c #BC04BA78B89F",
"&X c #BEF4BE72BDD9",
"*X c #C19FC11BC07F",
"=X c #CF57CE3DCCEA",
"-X c #D03BCEDECD3A",
";X c #D2EBD18ACFE2",
":X c #D339D223D0D5",
">X c #DA2ED929D7EF",
",X c #DAD0D9CAD890",
"<X c #DD23DCB1DC25",
"1X c #DE25DD13DBCA",
"2X c #DEB6DE47DDBB",
"3X c #DFB9DEAADD66",
"4X c #E149E031DEE0",
"5X c #E8D6E7ADE646",
"6X c #E9BEE89FE746",
"7X c #EB51EAB0E9EE",
"8X c #EE43ED19EBB4",
"9X c #EFBFEE8FED21",
"0X c #F013EEDFED6D",
"qX c #F571F453F2F5",
"wX c #F612F4F6F39C",
"eX c #F7ABF68FF53B",
"rX c #F821F705F5AD",
"tX c #FB07FB05FB02",
"yX c #FC64FC64FC65",
"uX c #FCF5FBBCFA45",
"iX c #FC78FC7AFC7C",
"pX c #FCDBFCDAFCD9",
"aX c #FD83FD7FFD7B",
"sX c #FDDEFDDEFDDE",
"dX c #FEE5FEE5FEE6",
"fX c #FFEFFFEFFFEF",
/* pixels */
"k.k.k.k.k.k.k.k.k.k.k.k.k.k.k.k.k.k.k.k.k.k.k.k.k.k.k.k.k.k.k.k.k.k.k.k.k.k.k.k.k.k.k.k.",
"k.k.k.k.k.k.k.k.k.k.k.k.k.k.k.k.k.k.k.k.k.k.k.k.k.k.k.k.k.k.k.k.k.k.k.k.k.k.k.k.k.k.k.k.",
"k.k.k.k.k.k.k.k.k.k.k.k.k.k.k.k.k.k.k.k.k.u.u.k.k.k.k.k.k.k.k.k.k.k.k.k.k.k.k.k.k.k.k.k.",
"k.k.k.k.k.k.k.k.k.k.k.k.k.k.k.k.k.k.i.k.U.(.^.U.k.k.k.k.k.k.k.k.k.k.k.k.k.k.k.k.k.k.k.k.",
"k.k.k.k.k.k.k.k.k.k.k.k.k.k.k.k.k.k.v.Z.=.A A =.Z.v.i.k.k.k.k.k.k.k.k.k.k.k.k.k.k.k.k.k.",
"k.k.k.k.k.k.k.k.k.k.k.k.k.k.k.k.k.v.t.s   6 6   v y.v.k.k.k.k.k.k.k.k.k.k.k.k.k.k.k.k.k.",
"k.k.k.k.k.k.k.k.k.k.k.k.k.k.k.k.k.K.N O }.tXuX{.  N F.k.k.k.k.k.k.k.k.k.k.k.k.k.k.k.k.k.",
"k.k.k.k.k.k.k.k.k.k.k.k.k.k.k.k.Z.,.  [.fXfXtXfX'.  <.F.i.k.k.k.k.k.k.k.k.k.k.k.k.k.k.k.",
"k.k.k.k.k.k.k.k.k.k.k.k.k.k.k.i.^...  1XfXtXtXfX,X  o.U.k.k.k.k.k.k.k.k.k.k.k.k.k.k.k.k.",
"k.k.k.k.k.k.k.k.k.k.k.k.k.k.k.u.U.*.  :XfXtXfXfX=X  *.U.i.k.k.k.k.k.k.k.k.k.k.k.k.k.k.k.",
"k.k.k.k.k.k.k.k.k.k.k.k.k.k.k.k.Z.5.  / fXfXfXfX^   5.B.k.k.k.k.k.k.k.k.k.k.k.k.k.k.k.k.",
"k.k.k.k.k.k.k.k.k.k.k.k.k.k.k.k.u._.@.  ].fXfX'.  @._.u.k.z.k.k.k.k.k.k.k.k.k.k.k.k.k.k.",
"k.k.k.k.k.k.k.k.k.k.k.k.k.k.k.k.U.<.F   Y fXfXI   F <.U.k.k.k.k.k.k.k.k.k.k.k.k.k.k.k.k.",
"k.k.k.k.k.k.k.k.k.k.k.k.k.k.k.Z.D   , l *XfXfX&Xl ,   D Z.k.k.k.k.k.k.k.k.k.k.k.k.k.k.k.",
"k.k.k.k.k.k.k.k.k.k.k.k.k.k.K.S   ' wXfXfXfXfXfXfXwX'   S K.i.k.k.k.k.k.k.k.k.k.k.k.k.k.",
"k.k.k.k.k.k.k.k.k.k.k.k.k.F.:.  ;.fXfXfXtXfXfXfXyXfXfX[   :.F.k.k.k.k.k.k.k.k.k.k.k.k.k.",
"k.k.k.k.k.k.k.k.k.k.k.k.k.U.B 9 eXfXfXfXfXfXfXfXfXfXfXeX8 B !.i.k.k.k.k.k.k.k.k.k.k.k.k.",
"k.k.k.k.k.k.k.k.k.k.k.k.k.K.0 U fXtXfXfXfXfXfXfXfXfXyXfXU 0 G.k.k.k.k.k.k.k.k.k.k.k.k.k.",
"k.k.k.k.k.k.k.k.k.k.l.k.k.G.4 T fXfXfXfXfXfXfXfXfXfXtXfXT 4 G.k.k.k.k.k.k.k.k.k.k.k.k.k.",
"k.k.k.k.k.k.k.k.k.k.z.z.i.U.c h fXtXfXfXfXfXfXfXfXfXtXfXh c U.k.k.k.k.k.k.k.k.k.k.k.k.k.",
"k.k.k.k.k.k.k.k.k.k.k.k.u.U.*.  }.fXtXfXfXfXfXfXfXtXfX|.  *.U.i.k.k.k.k.k.k.k.k.k.k.k.k.",
"k.k.k.k.k.k.k.k.k.k.k.k.k.k.v.s O XXfXfXfXfXfXfXfXfXXXO v Z.k.z.k.k.k.k.k.k.k.k.k.k.k.k.",
"k.k.k.k.k.k.k.k.k.k.k.k.k.k.v.8.p   ) fXfXfXfXyXfX(   d 0.x.k.k.k.k.k.k.k.k.k.k.k.k.k.k.",
"k.k.k.k.k.k.k.k.k.k.k.k.k.k.k._.7.w ; 7XfXfXfXfX7X; r e.(.k.k.k.k.k.k.k.k.k.k.k.k.k.k.k.",
"k.k.k.k.k.k.k.k.k.k.k.k.i.B.Z.J     R fXfXfXfXfXfXR   o L Z.B.i.k.k.k.k.k.k.k.k.k.k.k.k.",
"k.k.k.k.k.k.k.k.k.k.k.i.Z.0.y   ^ 1XfXfXfXfXfXfXfXfX1XW   i 0.Z.i.k.k.k.k.k.k.k.k.k.k.k.",
"k.k.k.k.k.k.k.k.k.k.k.B.6.w , #XfXfXfXfXfXfXfXfXfXfXyXfXOX: r 0.B.k.z.k.k.k.k.k.k.k.k.k.",
"k.k.k.k.k.k.k.k.k.k.k.z.t , ;XfXtXfXfXfXfXfXfXfXfXfXiXtXfX=X: u v.k.k.k.k.k.k.k.k.k.k.k.",
"k.k.k.k.k.k.k.k.k.i.U.H   #XfXtXfXfXfXfXfXfXfXfXfXfXfXfXtXfX@X  H (.i.k.k.k.k.k.k.k.k.k.",
"k.k.k.k.k.k.k.k.k.G.3.  ` fXtXfXfXfXfXfXfXfXfXfXfXfXfXfXfXtXfX_   4.Z.k.k.k.k.k.k.k.k.k.",
"k.k.k.k.k.k.k.k.k.U.C * 5XfXfXfXfXfXfXfXfXfXfXfXfXfXfXfXfXfXfX5X% Z ^.i.k.k.k.k.k.k.k.k.",
"k.k.k.k.k.k.k.k.v.i.$ ! fXyXfXfXfXfXfXfXfXfXfXfXfXfXfXfXfXfXtXfXW 1 z.z.k.k.k.k.k.k.k.k.",
"k.k.k.k.k.k.k.k.F.,.  XXfXtXfXfXfXfXfXfXfXfXfXfXfXfXfXfXfXfXtXfX X  <.F.k.k.k.k.k.k.k.k.",
"k.k.k.k.k.k.k.i.U.o.  ,XfXfXfXfXfXfXfXfXfXfXfXfXfXfXfXfXfXfXfXfX>X  *.U.i.k.k.k.k.k.k.k.",
"k.k.k.k.k.k.k.i.(.{ O 8XfXfXfXfXfXfXfXfXfXfXfXfXfXfXfXfXfXfXfXfX8X% } ^.i.k.k.k.k.k.k.k.",
"k.k.k.k.k.k.k.u.(.K % 0XfXfXfXfXfXfXfXfXfXfXfXfXfXfXfXfXfXfXpXfX0XO { ^.u.k.k.k.k.k.k.k.",
"k.k.k.k.k.k.k.u.U.X.  3XfXfXfXfXfXfXfXfXfXfXfXfXfXfXfXfXfXfXfXfX3X  o.U.k.k.k.k.k.k.k.k.",
"k.k.k.k.k.k.k.k.P.:.  %XfXtXfXfXfXfXfXfXfXfXfXfXfXfXfXfXfXfXpXfXOX  >.P.k.k.k.k.k.k.k.k.",
"k.k.k.k.k.k.k.k.v.0.2 6 h f f f f g f f f f f f f f f f f f f h 7 3 0.v.k.k.k.k.k.k.k.k.",
"k.k.k.k.k.k.k.k.k.G.| b m m m m m m m m m m m m m m m m m m m M b  .Z.k.k.k.k.k.k.k.k.k.",
"k.k.k.k.k.k.k.k.k.k.K.!.(.(././.(./././././.(.(./.(.(.(./././.(.!.K.k.k.k.k.k.k.k.k.k.k.",
"k.k.k.k.k.k.k.k.k.k.k.u.i.i.i.i.i.i.i.i.i.i.i.i.i.i.i.i.i.i.i.i.i.i.k.k.k.k.k.k.k.k.k.k.",
"k.k.k.k.k.k.k.k.k.k.k.k.k.k.k.k.k.k.k.k.z.k.k.k.k.k.k.k.z.k.k.k.k.k.k.k.k.k.k.k.k.k.k.k.",
"k.k.k.k.k.k.k.k.k.k.k.k.k.k.k.k.k.k.k.k.k.k.k.k.k.k.k.k.k.k.k.k.k.k.k.k.k.k.k.k.k.k.k.k."
};
