/* XPM */
static char *pll__[] = {
/* columns rows colors chars-per-pixel */
"40 40 213 2",
"   c #000400020002",
".  c #00A000000000",
"X  c #01ED016F00D6",
"o  c #045000000000",
"O  c #04EE00000000",
"+  c #050F015B0000",
"@  c #075801020000",
"#  c #060E02000000",
"$  c #06B8028B0000",
"%  c #07C901720000",
"&  c #087801900000",
"*  c #08D302080000",
"=  c #080B03670000",
"-  c #09AB04320000",
";  c #0AC105E100A3",
":  c #0C7407210158",
">  c #0EE609AC0377",
",  c #013C04840879",
"<  c #01DF051C0906",
"1  c #02BF05970900",
"2  c #02A805CD0993",
"3  c #0394067B09F7",
"4  c #09FF0BA00DA0",
"5  c #0B5E0CE90EDB",
"6  c #111509280000",
"7  c #14710BB10135",
"8  c #103A0AB6041B",
"9  c #23E016870687",
"0  c #27B01962083C",
"q  c #326F22540F00",
"w  c #378926421187",
"e  c #398B27C11268",
"r  c #3C6B2A321453",
"t  c #3CCD2A9414B5",
"y  c #1ACD1E772310",
"u  c #1B8C1F3E23E0",
"i  c #1F0A224E2645",
"p  c #24D8253D25B7",
"a  c #266C26BD271A",
"s  c #2132243927DA",
"d  c #222D2569297B",
"f  c #25A1289C2C30",
"g  c #2C252F4232FD",
"h  c #2F2A32483606",
"j  c #33843456354B",
"k  c #373A380B38FF",
"l  c #392A3BA33E9D",
"z  c #44ED310018D6",
"x  c #46A3324F19C9",
"c  c #47DD33491A98",
"v  c #4B0537E220EC",
"b  c #4C4638D3217C",
"n  c #62AD478F270E",
"m  c #63394A7D2CD5",
"M  c #675D4DA42EC6",
"N  c #716E54B13259",
"B  c #756257B63420",
"V  c #79BB5B02361E",
"C  c #3D363F85424B",
"Z  c #3E4540954357",
"A  c #5AC35BD05D13",
"S  c #5A5C5CCF5FC6",
"D  c #5D815E5B5F61",
"F  c #5BDA5E2660F2",
"G  c #5F456026614F",
"H  c #6030617362F7",
"J  c #61066217635E",
"K  c #61F562A76362",
"L  c #64DC645B63BF",
"P  c #62976371647A",
"I  c #661E659864F6",
"U  c #651A65CE668B",
"Y  c #69236A5A6BC8",
"T  c #69726AA56C0D",
"R  c #6F896F796F64",
"E  c #71CC71C271B6",
"W  c #710F7296746D",
"Q  c #724C73B57568",
"!  c #83FB615D37D6",
"~  c #889E64DE39F8",
"^  c #9C5B73704256",
"/  c #9E2B74D6433C",
"(  c #9A00730D4459",
")  c #A01C777F46CA",
"_  c #A0B176AB443D",
"`  c #A23E77E3450E",
"'  c #A35A79F4484B",
"]  c #A54A7BAC49B7",
"[  c #A6037C1B49D6",
"{  c #A97F7ED44BA1",
"}  c #AAD97FB54BF0",
"|  c #B08183274CBB",
" . c #B48686264E81",
".. c #B63287994FAD",
"X. c #B70288C8514F",
"o. c #B9FB8A75516D",
"O. c #BCE58D2F53F1",
"+. c #C07E8FDF5587",
"@. c #C9EA96BB594F",
"#. c #CA5997905A9C",
"$. c #CE549A055B3D",
"%. c #CF569AC45BAE",
"&. c #D1029C425CFE",
"*. c #D2669D4B5D9B",
"=. c #D3899E385E3E",
"-. c #D6A3A0895F9D",
";. c #D8DDA24A60CD",
":. c #D9C0A2C360C7",
">. c #DAADA391616F",
",. c #D9A7A5A563AF",
"<. c #DC21A4B66235",
"1. c #DC91A4CA61DB",
"2. c #DCACA5286288",
"3. c #E3CCA99C63C9",
"4. c #E6D6ABC26519",
"5. c #E5BBAC0166BC",
"6. c #E84BACFC65D0",
"7. c #E6BAACD06751",
"8. c #E85FADD9679E",
"9. c #E877AD1D65E4",
"0. c #E909AD8A6624",
"q. c #E9BAAE0A666A",
"w. c #EA1CAE546698",
"e. c #EAB8AECB66E0",
"r. c #EB18AF12670B",
"t. c #EB4CAF396722",
"y. c #EBEBAFAF6767",
"u. c #E9B0AF1568C0",
"i. c #EDD8B11F6842",
"p. c #EE19B14F685C",
"a. c #EE9EB1B36898",
"s. c #F05BB3016961",
"d. c #F0D7B35D699A",
"f. c #F1D5B41E6A0F",
"g. c #F2D0B4CE6A65",
"h. c #F446B5F86B33",
"j. c #F539B68D6B5B",
"k. c #F5C2B7006BB1",
"l. c #F4C9B73F6D64",
"z. c #F70CB8056C64",
"x. c #F5F9B8246DF1",
"c. c #F763B8446C86",
"v. c #F7CEB89F6CCF",
"b. c #F721B8AD6DBC",
"n. c #F7F8B8D06D06",
"m. c #F64CB85A6E02",
"M. c #F72CB8CD6DF6",
"N. c #F85EB9AB6E6D",
"B. c #F899B9486D4D",
"V. c #F9EBBA206D93",
"C. c #FA36BA5C6DBD",
"Z. c #F8CDB9FD6E9E",
"A. c #FA28BAA66E6C",
"S. c #FA56BB006EFF",
"D. c #FAD3BB0D6E86",
"F. c #FB5FBB9A6E9E",
"G. c #FBEBBBBC6EB8",
"H. c #FC38BC286F46",
"J. c #FC30BC486F97",
"K. c #FD0BBCB76F84",
"L. c #8E448F32904F",
"P. c #8F3B9083920C",
"I. c #90A891EF936F",
"U. c #92A39388949A",
"Y. c #9349942D953F",
"T. c #970997EB98FB",
"R. c #9B499A3C98F9",
"E. c #9E7A9D569C02",
"W. c #9FB09EAB9D7A",
"Q. c #A31AA206A0C5",
"!. c #A553A5BCA63A",
"~. c #A79FA7F6A85F",
"^. c #A7E5A838A89B",
"/. c #AA07AADBABDB",
"(. c #AC5DAD35AE39",
"). c #AE5EAEC2AF39",
"_. c #AF54AF93AFDF",
"`. c #B5BCB50CB439",
"'. c #B5EBB537B45F",
"]. c #B7BDB863B92A",
"[. c #B7EBB88CB94D",
"{. c #C2FAC2F0C2E5",
"}. c #CE3ACDB0CD0E",
"|. c #CFA9CF20CE7E",
" X c #D5A7D529D493",
".X c #D77ED6DFD626",
"XX c #DC2BDBA0DAF9",
"oX c #DCA8DC07DB44",
"OX c #E544E419E2B3",
"+X c #E667E53BE3D2",
"@X c #E7C3E750E6C7",
"#X c #E86BE7FCE777",
"$X c #EB00EA2AE92B",
"%X c #EB85EAA1E990",
"&X c #EEC0EDE1ECD5",
"*X c #F05BEF97EEA6",
"=X c #F37CF359F32F",
"-X c #F3B4F38CF35C",
";X c #F7E4F7DFF7DB",
":X c #F8D2F763F5AB",
">X c #F951F8EBF86F",
",X c #F996F933F8BE",
"<X c #FA67FA6BFA71",
"1X c #FBBFFA59F8AC",
"2X c #FB39FB38FB37",
"3X c #FBEEFBEBFBE7",
"4X c #FC96FC95FC95",
"5X c #FE06FE0AFE0F",
"6X c #FF96FEADFD96",
"7X c #FF04FF02FF00",
"8X c #FFFFFFFFFEFA",
"9X c #FF73FF90FFB2",
"0X c #FFFCFFFCFFFD",
/* pixels */
"y.y.y.y.y.y.y.y.y.y.y.y.y.y.y.y.y.y.y.y.y.y.y.y.y.y.y.y.y.y.y.y.y.y.y.y.y.y.y.y.",
"y.y.y.y.y.y.y.y.y.y.y.y.y.y.y.y.y.y.y.y.y.y.y.y.y.y.y.y.y.y.y.y.y.y.y.y.y.y.y.y.",
"y.y.y.y.y.y.y.y.y.y.y.y.y.y.y.y.y.y.4.i.i.y.y.y.y.y.y.y.y.y.y.y.y.y.y.y.y.y.y.y.",
"y.y.y.y.y.y.y.y.y.y.y.y.y.y.y.y.6.g.J.8.u.V.d.y.y.y.y.y.y.y.y.y.y.y.y.y.y.y.y.y.",
"y.y.y.y.y.y.y.y.y.y.y.y.y.y.u.y.j.%.x @ * x *.j.y.y.y.y.y.y.y.y.y.y.y.y.y.y.y.y.",
"y.y.y.y.y.y.y.y.y.y.y.y.y.y.y.g.%.> d I.P.i 8 %.d.6.y.y.y.y.y.y.y.y.y.y.y.y.y.y.",
"y.y.y.y.y.y.y.y.y.y.y.y.y.y.6.V.x f 1X0X0X;Xs x V.y.y.y.y.y.y.y.y.y.y.y.y.y.y.y.",
"y.y.y.y.y.y.y.y.y.y.y.y.y.y.i.5.* Y.0X;X;X0XL.* 6.u.y.y.y.y.y.y.y.y.y.y.y.y.y.y.",
"y.y.y.y.y.y.y.y.y.y.y.y.y.y.i.5.@ T.0X1X1X0XU.@ 4.i.y.y.y.y.y.y.y.y.y.y.y.y.y.y.",
"y.y.y.y.y.y.y.y.y.y.y.y.y.y.y.z.r h 0X0X0X0Xg r b.u.y.y.y.y.y.y.y.y.y.y.y.y.y.y.",
"y.y.y.y.y.y.y.y.y.y.y.y.y.y.6.V.,.- U 0X0XJ = ,.V.6.u.y.y.y.y.y.y.y.y.y.y.y.y.y.",
"y.y.y.y.y.y.y.y.y.y.y.y.y.y.V.#.n   k 0X0Xj @ n #.V.y.y.y.y.y.y.y.y.y.y.y.y.y.y.",
"y.y.y.y.y.y.y.y.y.y.y.y.6.V.(   i Y }.0X0X}.Y y   ( b.y.y.y.y.y.y.y.y.y.y.y.y.y.",
"y.y.y.y.y.y.y.y.y.y.y.6.z.X.  E 0X0X0X0X0X0X0X0XR   X.z.6.y.y.y.y.y.y.y.y.y.y.y.",
"y.y.y.y.y.y.y.y.y.y.y.y.b.q Z 0X4X1X0X0X0X4X1X0X0XC q b.y.y.y.y.y.y.y.y.y.y.y.y.",
"y.y.y.y.y.y.y.y.y.y.y.d.;.  ~.0X1X0X0X0X0X0X0X1X0X~.  ;.i.y.y.y.y.y.y.y.y.y.y.y.",
"y.y.y.y.y.y.y.y.y.y.y.g.#.  {.0X4X0X0X0X0X0X0X1X0X{.  #.g.y.y.y.y.y.y.y.y.y.y.y.",
"y.y.y.y.y.y.y.y.y.y.y.i.;.  !.0X4X0X0X0X0X0X0X1X0X!.  <.d.y.y.y.y.y.y.y.y.y.y.y.",
"y.y.y.y.y.y.y.y.y.y.y.6.V.w C 0X4X0X0X0X0X0X0X0X0Xl e V.y.y.y.y.y.y.y.y.y.y.y.y.",
"y.y.y.y.y.y.y.y.y.y.y.y.z.O.  G ;X0X0X0X0X0X0X;XG   O.b.6.y.y.y.y.y.y.y.y.y.y.y.",
"y.y.y.y.y.y.y.y.y.y.y.y.6.j.[ @ a @X0X0X0X0X@Xa = { z.6.y.y.y.y.y.y.y.y.y.y.y.y.",
"y.y.y.y.y.y.y.y.y.y.y.y.y.b.l.m   '.0X1X1X0X`.  M z.z.y.y.y.y.y.y.y.y.y.y.y.y.y.",
"y.y.y.y.y.y.y.y.y.y.y.y.J.) - 5 U =X0X0X0X0X=XJ 4 : ' V.y.y.y.y.y.y.y.y.y.y.y.y.",
"y.y.y.y.y.y.y.y.y.y.y.b.N   U &X0X0X0X0X0X0X0X0X&XG   B b.6.y.y.y.y.y.y.y.y.y.y.",
"y.y.y.y.y.y.y.y.u.y.V.B   Q.0X4X1X0X0X0X0X0X0X4X0X0XW.  V V.y.y.y.y.y.y.y.y.y.y.",
"y.y.y.y.y.y.y.y.6.V.]   E.0X>X0X0X0X0X0X0X0X0X0X4X1X0XR.  { V.6.y.y.y.y.y.y.y.y.",
"y.y.y.y.y.y.y.y.i.6.6 D 0X1X0X0X0X0X0X0X0X0X0X0X0X0X1X0XS 7 6.i.y.y.y.y.y.y.y.y.",
"y.y.y.y.y.y.y.4.J.! < +X0X0X0X0X0X0X0X0X0X0X0X0X0X0X4X0XOX< ~ J.6.y.y.y.y.y.y.y.",
"y.y.y.y.y.y.y.y.z.9 F 0X1X0X0X0X0X0X0X0X0X0X0X0X0X0X0X4X0XS 0 z.y.y.y.y.y.y.y.y.",
"y.y.y.y.y.y.y.d.*.  _.0X4X0X0X0X0X0X0X0X0X0X0X0X0X0X0X1X0X).  -.i.y.y.y.y.y.y.y.",
"y.y.y.y.y.y.6.b.|   XX0X0X0X0X0X0X0X0X0X0X0X0X0X0X0X0X0X0XoX   .b.y.y.y.y.y.y.y.",
"y.y.y.y.y.y.y.V.^ < &X0X0X0X0X0X0X0X0X0X0X0X0X0X0X0X0X0X0X&X< _ V.6.y.y.y.y.y.y.",
"y.y.y.y.y.y.y.V./ < %X0X1X4X4X4X1X4X4X4X4X4X1X4X4X4X4X1X0X%X< _ V.6.y.y.y.y.y.y.",
"y.y.y.y.y.y.6.z. .  .X0X0X0X0X0X0X0X0X0X0X0X0X0X0X0X0X0X0X X  o.V.y.y.y.y.y.y.y.",
"y.y.y.y.y.y.y.i.<.@ Q [./.).(.(.).(.(.).(.(.(.).(.).(.^.[.Q @ 1.i.y.y.y.y.y.y.y.",
"y.y.y.y.y.y.y.6.j.v                                         b j.y.y.y.y.y.y.y.y.",
"y.y.y.y.y.y.y.y.i.3.;.<.<.2.2.2.2.2.2.<.<.<.<.2.<.<.<.<.2.;.3.i.y.y.y.y.y.y.y.y.",
"y.y.y.y.y.y.y.y.y.i.d.i.i.d.d.d.i.i.d.d.d.d.d.i.g.i.d.i.d.d.y.y.y.y.y.y.y.y.y.y.",
"y.y.y.y.y.y.y.y.y.y.6.y.y.y.y.y.6.y.y.y.y.y.y.y.u.y.y.y.y.y.y.y.y.y.y.y.y.y.y.y.",
"y.y.y.y.y.y.y.y.y.y.y.y.y.y.y.y.y.y.y.y.y.y.y.y.u.i.y.y.y.y.y.y.y.y.y.y.y.y.y.y."
};
