/* XPM */
static char *pll__[] = {
/* columns rows colors chars-per-pixel */
"48 48 243 2",
"   c #000000000001",
".  c #0000000000FC",
"X  c #01B6014600C0",
"o  c #00000000026C",
"O  c #01E601D401C9",
"+  c #048B01AE0000",
"@  c #064B041A0245",
"#  c #06FB049B028E",
"$  c #000000570544",
"%  c #000000BE0518",
"&  c #043503F203A1",
"*  c #055A05020499",
"=  c #07C8042F0000",
"-  c #015A047E0843",
";  c #006A04690934",
":  c #00DC04C8097D",
">  c #066B09700D11",
",  c #07EF0AD00E44",
"<  c #11D50BE1057F",
"1  c #131D0CEE0639",
"2  c #13E20CC70440",
"3  c #16300E78053F",
"4  c #13A20EAC08B1",
"5  c #0F9D0F630F29",
"6  c #15EA106009D5",
"7  c #0D6F104F13C1",
"8  c #107910390FF6",
"9  c #110613E31753",
"0  c #1AC01AAD1AA0",
"q  c #1D671D451D2F",
"w  c #1FD717B60DF6",
"e  c #212E18B50E8B",
"r  c #2FF521000F0D",
"t  c #2C9B218A1442",
"y  c #2CB321A4145D",
"u  c #30C221C50FC9",
"i  c #3FA82F0E1B20",
"p  c #21A9245F27A1",
"a  c #2466246A246E",
"s  c #253726372773",
"d  c #27862764273C",
"f  c #25E828822BA1",
"g  c #2B632BE82C8E",
"h  c #2E8C2F122FD8",
"j  c #3309323E314B",
"k  c #3670357D3459",
"l  c #3F333E903DDD",
"z  c #3F8F3F063E64",
"x  c #42112F83193F",
"c  c #411A2F611A1B",
"v  c #42D1304219FC",
"b  c #44B432DE1D76",
"n  c #463033381C73",
"m  c #49C3374C2103",
"M  c #4A03378C2143",
"N  c #4C2738E721F1",
"B  c #52673C7B222B",
"V  c #53723D73230C",
"C  c #3FE93F833F07",
"Z  c #567E40A12666",
"A  c #5C4643A52618",
"S  c #5CB0450428B5",
"D  c #5FE447762A3B",
"F  c #6241481C28BC",
"G  c #630D48EB298F",
"H  c #66FF4D1A2E02",
"J  c #68174CAC2BC5",
"K  c #69994DF92CD2",
"L  c #6AFF4F162D99",
"P  c #69154EA72EEF",
"I  c #6EA4539A3328",
"U  c #70A45356302B",
"Y  c #7312555A31B1",
"T  c #734F558731CB",
"R  c #7C4D5C83365E",
"E  c #7DEA5E45384F",
"W  c #50D951835261",
"Q  c #53D354795550",
"!  c #5A1458AD56FE",
"~  c #5F035F655FDA",
"^  c #60EC5F6D5DA2",
"/  c #61E161256043",
"(  c #609860D36118",
")  c #61F8616C60C9",
"_  c #62FA62156107",
"`  c #634062AE6207",
"'  c #67DF670265F8",
"]  c #690D68946801",
"[  c #69F069166811",
"{  c #6E946E196D86",
"}  c #713070AE7016",
"|  c #71DE714F70A8",
" . c #7B447A6E796F",
".. c #7DBD7CD17BBA",
"X. c #81F160B838DA",
"o. c #847F632A3B2B",
"O. c #887A66063CA8",
"+. c #8AB167C83DCE",
"@. c #8CF969573E96",
"#. c #8D4C69D93F4F",
"$. c #8D756A003F73",
"%. c #91F56D1B40E2",
"&. c #94D56F9942EB",
"*. c #9681724846ED",
"=. c #996672F944DE",
"-. c #9AA573AF44ED",
";. c #A00C77B5474C",
":. c #9BFF767B4960",
">. c #A2A279D548DF",
",. c #A33B7A5C4950",
"<. c #A4667B3B49D3",
"1. c #A6047C6E4A88",
"2. c #A7597D524AE4",
"3. c #AA537FB24C8A",
"4. c #AB49805D4CDB",
"5. c #AC3E80F34D00",
"6. c #AD0C81824D43",
"7. c #AF4D83674EB9",
"8. c #B0D284474ED2",
"9. c #B3878650500E",
"0. c #B8618A4052E5",
"q. c #B96A8B15537C",
"w. c #BAF08BD25348",
"e. c #BE258E3654B1",
"r. c #C6B893EC56F9",
"t. c #C5D4944558CC",
"y. c #C6B594D85900",
"u. c #CC4998A15AA3",
"i. c #CC0399055BD4",
"p. c #D0149B6F5C42",
"a. c #D648A0825FFA",
"s. c #D9E0A32D618A",
"d. c #DDEBA5E2629D",
"f. c #E004A76B637A",
"g. c #E130A7C462DB",
"h. c #E139A7CC62E3",
"j. c #E19BA8396355",
"k. c #E389A9F264D6",
"l. c #E51AAB1E6587",
"z. c #E6A2ABC06516",
"x. c #E823ACDE65C0",
"c. c #E877AD1865E1",
"v. c #E87EAD2365E9",
"b. c #E929ADA16632",
"n. c #E9ABAE03666C",
"m. c #EA2EAE6066A3",
"M. c #E9D1AEB967D0",
"N. c #EA8DAEAA66CD",
"B. c #EAFBAEFC66FE",
"V. c #EB4AAF386720",
"C. c #EBECAFAF6767",
"Z. c #EA2FAEF767E8",
"A. c #ED4DB0B66802",
"S. c #ED80B0FA6829",
"D. c #EE11B1AA688F",
"F. c #EE9EB1B16896",
"G. c #F000B2B96930",
"H. c #F13CB3A569BC",
"J. c #F1FDB4356A11",
"K. c #F28EB4956A37",
"L. c #F3ABB5746ACC",
"P. c #F440B5E36B0E",
"I. c #F4B0B6316B38",
"U. c #F4D0B6606B73",
"Y. c #F60DB7BA6C4A",
"T. c #F64CB8006D3E",
"R. c #F6E2B7DF6C43",
"E. c #F76EB8436C77",
"W. c #F7B0B8736C90",
"Q. c #F829B8F76D22",
"!. c #F8D7B9386CE0",
"~. c #F89AB9226CF9",
"^. c #F925B9956D4F",
"/. c #FA08BA326D98",
"(. c #FA36BA586DB4",
"). c #FA9CBA946DBE",
"_. c #F95ABA0F6E1C",
"`. c #F97CBA326E3F",
"'. c #FB25BB046E10",
"]. c #FB38BB546EAA",
"[. c #FBFDBBA16E67",
"{. c #FC9CBC2F6EDF",
"}. c #FD5CBCDB6F73",
"|. c #FDA2BD1A6FAA",
" X c #FFFFC78B7579",
".X c #83D283AF8385",
"XX c #84F184CB8497",
"oX c #91C090878F10",
"OX c #95B69487931D",
"+X c #9FD99F619ED0",
"@X c #A1B19FD89DA0",
"#X c #A254A1DCA14B",
"$X c #A450A27DA04C",
"%X c #A5B4A48EA32E",
"&X c #AB64AA7AA962",
"*X c #AC36AB36AA02",
"=X c #AC91AC14AB80",
"-X c #AD9FAD14AC6B",
";X c #AE5CADDEAD46",
":X c #B4DCB3F8B2E8",
">X c #B815B735B629",
",X c #B81CB7BDB74A",
"<X c #BBE2BB85BB14",
"1X c #BD0EBCAABC2D",
"2X c #BF2BBDDABC42",
"3X c #BE7DBE19BD9C",
"4X c #C280C134BFA3",
"5X c #C71BC5E5C471",
"6X c #C783C646C4CA",
"7X c #C95BC829C6B2",
"8X c #CC7ECB50C9EA",
"9X c #CED1CDA6CC42",
"0X c #D40FD2F3D19F",
"qX c #D827D6EFD579",
"wX c #DF83DE4DDCD9",
"eX c #E24DE1DEE156",
"rX c #E2B3E247E1C6",
"tX c #E3E7E2B2E13E",
"yX c #E4EFE3BBE248",
"uX c #E50AE3DDE278",
"iX c #E773E642E4D4",
"pX c #E988E858E6EB",
"aX c #E929E85DE769",
"sX c #EA7BE974E83A",
"dX c #EB50EA60E940",
"fX c #EB37EA7EE9A1",
"gX c #EB73EAB0E9C6",
"hX c #ECA2EB72EA07",
"jX c #ED44EC96EBC5",
"kX c #F14BF011EE99",
"lX c #F388F365F33C",
"zX c #F4FBF424F320",
"xX c #F832F740F61E",
"cX c #F902F8EEF8D3",
"vX c #FA3FFA3DFA3C",
"bX c #FAF6FAF6FAF4",
"nX c #FC19FC18FC16",
"mX c #FCF0FCEEFCED",
"MX c #FE24FE25FE26",
"NX c #FEE4FEE4FEE4",
"BX c #FFFFFFF6FF42",
"VX c #FF6AFF7BFF8F",
"CX c #FFFBFFFBFFFB",
/* pixels */
"C.C.C.C.C.C.C.C.C.C.C.C.C.C.C.C.C.C.C.C.C.C.C.C.C.C.C.C.C.C.C.C.C.C.C.C.C.C.C.C.C.C.C.C.C.C.C.C.",
"C.C.C.C.C.C.C.C.C.C.C.C.C.C.C.C.C.C.C.C.C.C.C.C.C.C.C.C.C.C.C.C.C.C.C.C.C.C.C.C.C.C.C.C.C.C.C.C.",
"C.C.C.C.C.C.C.C.C.C.C.C.C.C.C.C.C.C.C.C.C.C.C.C.C.C.C.C.C.C.C.C.C.C.C.C.C.C.C.C.C.C.C.C.C.C.C.C.",
"C.C.C.C.C.C.C.C.C.C.C.C.C.C.C.C.C.C.C.C.C.z.C.L.L.C.x.C.C.C.C.C.C.C.C.C.C.C.C.C.C.C.C.C.C.C.C.C.",
"C.C.C.C.C.C.C.C.C.C.C.C.C.C.C.C.C.C.C.C.C./.C.i.i.Z./.C.C.C.C.C.C.C.C.C.C.C.C.C.C.C.C.C.C.C.C.C.",
"C.C.C.C.C.C.C.C.C.C.C.C.C.C.C.C.C.C.C.C.L.O.<     < +.I.C.C.C.C.C.C.C.C.C.C.C.C.C.C.C.C.C.C.C.C.",
"C.C.C.C.C.C.C.C.C.C.C.C.C.C.C.C.C.C.C.R.H   h XXXXg   P R.C.C.C.C.C.C.C.C.C.C.C.C.C.C.C.C.C.C.C.",
"C.C.C.C.C.C.C.C.C.C.C.C.C.C.C.C.C.x.R.4.  ^ CXCXCXCX!   4.E.x.C.C.C.C.C.C.C.C.C.C.C.C.C.C.C.C.C.",
"C.C.C.C.C.C.C.C.C.C.C.C.C.C.C.C.C.C.[.B - iXCXxXcXCXuX% V /.C.C.C.C.C.C.C.C.C.C.C.C.C.C.C.C.C.C.",
"C.C.C.C.C.C.C.C.C.C.C.C.C.C.C.C.C.C.I.t f CXCXCXCXCXCXp u E.C.C.C.C.C.C.C.C.C.C.C.C.C.C.C.C.C.C.",
"C.C.C.C.C.C.C.C.C.C.C.C.C.C.C.C.C.C./.v 9 xXCXCXCXCXzX7 v E.x.C.C.C.C.C.C.C.C.C.C.C.C.C.C.C.C.C.",
"C.C.C.C.C.C.C.C.C.C.C.C.C.C.C.C.C.z./.#.  OXCXCXcXCXoX  %./.x.C.C.C.C.C.C.C.C.C.C.C.C.C.C.C.C.C.",
"C.C.C.C.C.C.C.C.C.C.C.C.C.C.C.C.C.C.C.L.M   ,XCXCX:X  M U.x.C.Z.C.C.C.C.C.C.C.C.C.C.C.C.C.C.C.C.",
"C.C.C.C.C.C.C.C.C.C.C.C.C.C.C.C.C.A.I.r.I   { CXCX]   Y t.R.F.C.C.C.C.C.C.C.C.C.C.C.C.C.C.C.C.C.",
"C.C.C.C.C.C.C.C.C.C.C.C.C.C.C.C.L.j.M     8 <XCXCX,X, @   N f.L.C.C.C.C.C.C.C.C.C.C.C.C.C.C.C.C.",
"C.C.C.C.C.C.C.C.C.C.C.C.C.C.C.F.g.t   ] 0XlXCXCXCXCXlX0X'   t f.A.C.C.C.C.C.C.C.C.C.C.C.C.C.C.C.",
"C.C.C.C.C.C.C.C.C.C.C.C.C.C.C.E.Z   $XCXcXCXCXCXCXCXCXCXCX@X  Z /.C.C.C.C.C.C.C.C.C.C.C.C.C.C.C.",
"C.C.C.C.C.C.C.C.C.C.C.C.C.C.L.t.  ` CXcXCXCXCXCXCXCXCXcXcXCX`   y.I.x.C.C.C.C.C.C.C.C.C.C.C.C.C.",
"C.C.C.C.C.C.C.C.C.C.C.C.C.z.[.+.  5XCXCXCXCXCXCXCXCXCXCXCXCX5X  +./.x.C.C.C.C.C.C.C.C.C.C.C.C.C.",
"C.C.C.C.C.C.C.C.C.C.C.C.C.z.}.P   uXCXCXCXCXCXCXCXCXCXCXCXCXiX  P }.x.C.C.C.C.C.C.C.C.C.C.C.C.C.",
"C.C.C.C.C.C.C.C.C.C.C.C.C.x.}.Y   wXCXCXCXCXCXCXCXCXCXCXcXCXwX  Y }.x.C.C.C.C.C.C.C.C.C.C.C.C.C.",
"C.C.C.C.C.C.C.C.C.C.C.C.C.z./.>.  %XCXcXCXCXCXCXCXCXCXCXcXCX%X  2./.x.C.C.C.C.C.C.C.C.C.C.C.C.C.",
"C.C.C.C.C.C.C.C.C.C.C.C.C.C.F.j.2 s zXCXcXCXCXCXCXCXCXcXCXzXs 2 j.F.C.C.C.C.C.C.C.C.C.C.C.C.C.C.",
"C.C.C.C.C.C.C.C.C.C.C.C.C.C.C./.-.  z rXCXCXCXCXCXCXCXCXrXz   >./.z.C.C.C.C.C.C.C.C.C.C.C.C.C.C.",
"C.C.C.C.C.C.C.C.C.C.C.C.C.C.C.C.E.E   & =XCXCXCXCXCXCX=X&   o.E.C.C.C.C.C.C.C.C.C.C.C.C.C.C.C.C.",
"C.C.C.C.C.C.C.C.C.C.C.C.C.C.C.x.F. X*.  z CXCXCXCXCXCXz   :. XF.x.C.C.C.C.C.C.C.C.C.C.C.C.C.C.C.",
"C.C.C.C.C.C.C.C.C.C.C.C.C.C.x./.f.S @   } CXcXCXCXcXCX}   # S j./.x.C.C.C.C.C.C.C.C.C.C.C.C.C.C.",
"C.C.C.C.C.C.C.C.C.C.C.C.C.x./.6.4   Q 3XxXCXCXCXCXCXCXxX3XW   6 8./.z.C.C.C.C.C.C.C.C.C.C.C.C.C.",
"C.C.C.C.C.C.C.C.C.C.C.C.C./.&.  q 4XCXCXCXCXCXCXCXCXCXCXCXCX1X0   -./.C.C.C.C.C.C.C.C.C.C.C.C.C.",
"C.C.C.C.C.C.C.C.C.C.C.z./.>.  k gXCXCXcXCXCXCXCXCXCXCXCXcXCXCXsXj   2./.z.C.C.C.C.C.C.C.C.C.C.C.",
"C.C.C.C.C.C.C.C.C.C.C.L.i.+ d jXCXcXCXCXCXCXCXCXCXCXCXCXCXCXcXCXgXd = i.L.C.C.C.C.C.C.C.C.C.C.C.",
"C.C.C.C.C.C.C.C.C.C.C.I.i   9XCXnXCXCXCXCXCXCXCXCXCXCXCXCXCXCXcXCX8X  b R.x.C.C.C.C.C.C.C.C.C.C.",
"C.C.C.C.C.C.C.C.C.x./.3.  ..CXcXCXCXCXCXCXCXCXCXCXCXCXCXCXCXCXCXcXCX .  6./.C.C.C.C.C.C.C.C.C.C.",
"C.C.C.C.C.C.C.C.C.C.E.c , gXCXCXCXCXCXCXCXCXCXCXCXCXCXCXCXCXCXCXCXCXsX> n /.C.C.C.C.C.C.C.C.C.C.",
"C.C.C.C.C.C.C.C.C.H.a.  ` CXCXCXCXCXCXCXCXCXCXCXCXCXCXCXCXCXCXCXCXCXCX~   s.G.C.C.C.C.C.C.C.C.C.",
"C.C.C.C.C.C.C.C.z./.<.  =XCXcXCXCXCXCXCXCXCXCXCXCXCXCXCXCXCXCXCXCXcXCX=X  3.!.z.C.C.C.C.C.C.C.C.",
"C.C.C.C.C.C.C.C.C.|.R   qXCXCXCXCXCXCXCXCXCXCXCXCXCXCXCXCXCXCXCXCXCXCXqX  X.}.C.C.C.C.C.C.C.C.C.",
"C.C.C.C.C.C.C.C.z.|.G % gXCXCXCXCXCXCXCXCXCXCXCXCXCXCXCXCXCXCXCXCXmXCXhX% P }.z.C.C.C.C.C.C.C.C.",
"C.C.C.C.C.C.C.C.x.}.A - kXCXcXCXCXCXCXCXCXCXCXCXCXCXCXCXCXCXCXCXCXCXCXkX- D }.z.C.C.C.C.C.C.C.C.",
"C.C.C.C.C.C.C.C.x.}.P   uXCXnXcXcXCXcXcXCXcXCXcXcXCXcXCXcXCXcXCXcXcXCXrX  U }.C.C.C.C.C.C.C.C.C.",
"C.C.C.C.C.C.C.C.x./.#.  7XCXCXCXCXCXCXCXCXCXCXCXCXCXCXCXCXCXCXCXCXCXCX6X  %./.z.C.C.C.C.C.C.C.C.",
"C.C.C.C.C.C.C.C.C.E.w.  ` -X+X@X#X#X#X#X#X#X#X#X#X#X#X#X#X#X#X#X+X+X-X`   e.R.x.C.C.C.C.C.C.C.C.",
"C.C.C.C.C.C.C.C.C.Z.z.e                                                 e x.C.C.C.C.C.C.C.C.C.C.",
"C.C.C.C.C.C.C.C.C.C.F.r.9.w.0.0.0.0.w.0.w.0.0.0.0.w.0.0.0.w.0.0.0.w.w.9.r.F.C.C.C.C.C.C.C.C.C.C.",
"C.C.C.C.C.C.C.C.C.C.C.L.E.R.E.E.I.R.E.R.R.R.R.R.R.R.R.R.R.R.E.R.R.R.R.E.L.C.C.C.C.C.C.C.C.C.C.C.",
"C.C.C.C.C.C.C.C.C.C.C.C.C.x.x.C.C.x.C.x.C.x.C.x.x.C.x.C.x.x.C.x.x.C.x.C.x.C.C.C.C.C.C.C.C.C.C.C.",
"C.C.C.C.C.C.C.C.C.C.C.C.C.C.C.C.C.C.C.C.C.C.C.C.C.C.C.C.C.C.C.C.C.C.C.C.C.C.C.C.C.C.C.C.C.C.C.C.",
"C.C.C.C.C.C.C.C.C.C.C.C.C.C.C.C.C.C.C.C.C.C.C.C.C.C.C.C.C.C.C.C.C.C.C.C.C.C.C.C.C.C.C.C.C.C.C.C."
};
