/* XPM */
static char *qdd__[] = {
/* columns rows colors chars-per-pixel */
"21 21 216 2",
"   c #000400030000",
".  c #0000000000F7",
"X  c #035F0270014D",
"o  c #076A055C02DB",
"O  c #0AE002500000",
"+  c #0C2A02F10000",
"@  c #07F905C40312",
"#  c #09E4075B0443",
"$  c #0B1908060446",
"%  c #0ABF07F70493",
"&  c #0BAE0871047F",
"*  c #0D1809D305D9",
"=  c #04AB0654085A",
"-  c #05B30768097E",
";  c #12820E9209C2",
":  c #14E00F170809",
">  c #15360FE70986",
",  c #162110000885",
"<  c #162B10070889",
"1  c #18231174094B",
"2  c #19A0128709DD",
"3  c #1A5F13110A27",
"4  c #1ADE136C0A58",
"5  c #1B1513940A6D",
"6  c #1D8B155C0B60",
"7  c #2027173F0C61",
"8  c #215418180CD5",
"9  c #2328196A0D88",
"0  c #24DB1AA50E30",
"q  c #2A3A1E881042",
"w  c #2AD51EF8107D",
"e  c #3B4F27670F89",
"r  c #2DE2212C11AA",
"t  c #2ED321DB1207",
"y  c #305522F2129C",
"u  c #318023CA130E",
"i  c #326E2476136A",
"p  c #32C424B4138C",
"a  c #3396254C13DC",
"s  c #366C275914F4",
"d  c #3EEA2A2B110E",
"f  c #3ABD2A8A16C5",
"g  c #3D032C1C177D",
"h  c #3D262C4817B3",
"j  c #1EF9229226F8",
"k  c #2276260E2A71",
"l  c #40BC2C7813BD",
"z  c #42AE2DD1145D",
"x  c #4A0135811C7D",
"c  c #4EA438DB1E46",
"v  c #51DE3B311F84",
"b  c #534A3C382010",
"n  c #56603E6F2136",
"m  c #57333F082188",
"M  c #51113F4F29A4",
"N  c #582F3FCB2207",
"B  c #594540942273",
"V  c #5AFC41C82307",
"C  c #5DDD43DD2423",
"Z  c #5F73450324BF",
"A  c #554043632D97",
"S  c #61BA46A8259F",
"D  c #6294474525F3",
"F  c #63FC484A267E",
"G  c #6E5F4FCD2A7E",
"H  c #720C52752BE8",
"J  c #735153602C65",
"K  c #775656482DF1",
"L  c #7F09597B2BA8",
"P  c #7F29599C2BCA",
"I  c #7C0C59B02FC1",
"U  c #7EA15B8E30C0",
"Y  c #3C923F4F42AB",
"T  c #3E754138449B",
"R  c #422542164204",
"E  c #458E458E458E",
"W  c #4D114E614FFC",
"Q  c #4E6A4FBA5153",
"!  c #508C50DE5142",
"~  c #522C527852D5",
"^  c #539D53775347",
"/  c #5492546D543F",
"(  c #550754E054B0",
")  c #5553552C54FC",
"_  c #567156465613",
"`  c #572856FD56C9",
"'  c #5B125AE95AB7",
"]  c #5B965B6E5B3C",
"[  c #5DDC5DB05D7B",
"{  c #5F825F565F20",
"}  c #634164326558",
"|  c #677F67586729",
" . c #66C467AA68C4",
".. c #6B396A7F699C",
"X. c #6BD86B9E6B57",
"o. c #6CCC6C156B36",
"O. c #6E7D6E436DFC",
"+. c #6C0B72987A97",
"@. c #6E4674B27C88",
"#. c #80175C9C3150",
"$. c #86D3617A33E7",
"%. c #882B6098304F",
"&. c #8926632934CC",
"*. c #9CAB6DE634D3",
"=. c #9CCA6E0934FB",
"-. c #99D76E8B39B4",
";. c #99026EA03AE8",
":. c #99516ED93B06",
">. c #99BD6F273B30",
",. c #9B096F753A48",
"<. c #9A536F933B69",
"1. c #9AC5706A3C9F",
"2. c #9C0B70D23C13",
"3. c #9E6772873CFB",
"4. c #A01F744B3EBF",
"5. c #A6A2787A4026",
"6. c #A91E7A45411B",
"7. c #A9A07AA4414D",
"8. c #AD067D18429C",
"9. c #AD5F7D5942BE",
"0. c #B0687F8B43E9",
"q. c #B10E8003442A",
"w. c #B3DA8208453D",
"e. c #B4A182984589",
"r. c #B54E831545CC",
"t. c #B4A983544722",
"y. c #B72485284828",
"u. c #B755854A4839",
"i. c #BC9A885C489B",
"p. c #BDE3894A491A",
"a. c #BFF68ACA49E7",
"s. c #BEFB8AEF4B6A",
"d. c #BF5A8B2F4B86",
"f. c #C2E88CEC4B09",
"g. c #CA3992354DDA",
"h. c #CA9B927C4E00",
"j. c #CBEC936F4E81",
"k. c #CE66953A4F75",
"l. c #CBC1945450B1",
"z. c #CC4D94B350DA",
"x. c #D2AC9853511E",
"c. c #D37898E55169",
"v. c #D403994A51A0",
"b. c #D45C998951C1",
"n. c #D4EB99F151F8",
"m. c #D52A9A2C522E",
"M. c #D5D29A995254",
"N. c #D66E9B08528D",
"B. c #D6A49B3052A2",
"V. c #D7CB9C055313",
"C. c #D7F49C225323",
"Z. c #D9A19BFB50BF",
"A. c #DA419CA65179",
"S. c #D8CA9CBD5375",
"D. c #D9A59D5253B7",
"F. c #DA099DA453F0",
"G. c #DA5F9DE25411",
"H. c #DAF69E4F544B",
"J. c #DBAC9ED35492",
"K. c #DB119F9A5708",
"L. c #DBCAA01F574F",
"P. c #DCEA9FB9550C",
"I. c #DE22A09A5584",
"U. c #DE8FA0E955AE",
"Y. c #DEE2A12555CE",
"T. c #DF3BA16555F0",
"R. c #DFA2A1AA560B",
"E. c #E10DA2B2569B",
"W. c #E1B9A3545730",
"Q. c #E2B6A3EA5747",
"!. c #E362A466578A",
"~. c #E407A4DD57C9",
"^. c #E1D0A3FE588D",
"/. c #E3F4A50B5846",
"(. c #E412A55F58DB",
"). c #E466A52357F0",
"_. c #E4E6A57F581F",
"`. c #E5ECA6BF59A8",
"'. c #E694A6B658C5",
"]. c #E6D1A6E258DB",
"[. c #E96DA8C559DD",
"{. c #EA0BA9375A1A",
"}. c #F22EAF195D3C",
"|. c #F289AF5A5D5F",
" X c #88AA87B0867E",
".X c #8973889D8797",
"XX c #8A6789938890",
"oX c #8C5A8B608A2E",
"OX c #974598CF9AB1",
"+X c #9A639BDE9DAD",
"@X c #9F049E939E08",
"#X c #9DF1A0DAA467",
"$X c #A23FA1D9A15C",
"%X c #A486A445A3F5",
"&X c #A6D0A54BA371",
"*X c #A76AA5ECA417",
"=X c #A135A423A7B5",
"-X c #A635A60EA5DF",
";X c #B726B6B7B62F",
":X c #B7A6B783B758",
">X c #B861B7F4B76E",
",X c #B899B876B84B",
"<X c #BFF3BFD0BFA4",
"1X c #C051C02DC000",
"2X c #C0C6C0B1C096",
"3X c #C24FC22EC206",
"4X c #C826C7D5C772",
"5X c #C909C8BAC858",
"6X c #CF65CF22CED0",
"7X c #CFAFCF6DCF1C",
"8X c #D16BD13AD0FF",
"9X c #D35CD313D2BB",
"0X c #D43AD3F1D397",
"qX c #DBA1DB61DB12",
"wX c #DC05DBC2DB71",
"eX c #DDACDD9EDD8D",
/* pixels */
"M.M.M.M.M.c.M.c.M.D.).J.M.c.M.c.M.M.M.M.M.",
"M.c.c.c.D.P.D.J.D.f.U f.J.J.D.P.D.c.c.c.M.",
"M.T.E.T.c.c 7 8.E.p   p E.8.7 c c.T.E.T.M.",
"T.&.q 5.e.    S {.a   p {.Z     e.7.q &.P.",
"k.6   a D.x & 7.~.p.0 p./.7.# x D.s   1 g.",
"J.C   G ~.J.t y.E.p.: p.~.w.t J.~.H   V J.",
"M.).;.v E.M.< F |.2.  2.|.F : M.E.m ;.E.M.",
"c.D.g.o ;.).1 1 ).#.  U ).1 1 _.;.# g.J.M.",
"M.M.C.1 9 C.9   w.S   Z 0.  9 M.9 1 M.M.M.",
"M.M.T.h   K y   V h   f V   y K   h E.c.M.",
"M.x./.m   < :   & &   % &   ; <   m /.x.M.",
"M.x./.K                       X   H ).c.M.",
"M.c.^.;.= ..&X2X9XqXwXqX0X1X$X..- ;.E.c.M.",
"M.M.M.A.M #X.X| ' ` ^ ` [  ..X=XA D.M.M.M.",
"M.M.x.).#.k  X-X:X<X2X<X,X-XoXk %.).x.M.M.",
"M.M.c./.*.Q $XO.[ ` ` ` [ ..@XQ *.^.c.M.M.",
"M.M.x.).P Y -X:X4X7X9X7X4X:X-XT P ).c.M.M.",
"M.M.x.^.z +.OX} ! E R E !  .+X@.z /.c.c.M.",
"M.M.M.J.4.l +               O d <.S.c.C.M.",
"M.M.M.M.T.).J.z.d.y.t.y.d.z.L.).R.C.C.c.M.",
"M.M.M.M.c.c.M.J.J.P.T.P.J.J.M.x.c.M.M.M.M."
};
