/* XPM */
static char *qdd__[] = {
/* columns rows colors chars-per-pixel */
"32 32 91 1",
"  c #0144010900CB",
". c #093106A6038A",
"X c #0B8108C5056F",
"o c #0486063B0897",
"O c #126B0D510718",
"+ c #1E7B13350574",
"@ c #16160FF80881",
"# c #1B9714340B2E",
"$ c #13BB1388134B",
"% c #1EA61E7A1E45",
"& c #24221A200DE9",
"* c #2AE81F051084",
"= c #379F23620AAE",
"- c #382923F30B49",
"; c #2E0721DA12FE",
": c #33B8256913F2",
"> c #37B428461572",
", c #39F029E4164E",
"< c #3DBD2CA317C5",
"1 c #20FD20D2209D",
"2 c #2BD82BA82B6F",
"3 c #33FC33CE3396",
"4 c #3AAE3A793A39",
"5 c #40F32EF61901",
"6 c #451831F41A99",
"7 c #4B5E36A51D5B",
"8 c #4F6D396D1E94",
"9 c #50E23A7B1F25",
"0 c #5A463D3919C5",
"q c #4DDD39211FD4",
"w c #54223CD52065",
"e c #5B5042052327",
"r c #6261472125E0",
"t c #6510491126E8",
"y c #67C84B0927F4",
"u c #6BAC4DD92974",
"i c #7388533E2BD5",
"p c #7B8259192F1A",
"a c #7E075B1E3084",
"s c #41E841AC4162",
"d c #481347E647AE",
"f c #4D2B4CF64CB7",
"g c #4FEC4FB94F7A",
"h c #49BF4D155129",
"j c #521651D65189",
"k c #55B459055D11",
"l c #5E055DFA5DED",
"z c #641F63F863C8",
"x c #655767946A4D",
"c c #6CD66C8A6C2C",
"v c #70176FED6FB9",
"b c #6D666FA3725F",
"n c #806A5CD8316F",
"m c #860160AE3321",
"M c #8A4563CF34E1",
"N c #962E6C9439D1",
"B c #9E0872423CD7",
"V c #A2E075C23EB4",
"C c #A60678093FEA",
"Z c #AD487D3E429E",
"A c #B0907FA843F9",
"S c #B601839B461B",
"D c #B7FF85AF4848",
"F c #BE5D89A24949",
"G c #C33D8D3A4B51",
"H c #CD9894A54F26",
"J c #CF7B96024FE0",
"K c #D1DB97BA50CA",
"L c #D56B9A4E5229",
"P c #DAD99E445456",
"I c #DEA1A0F855B8",
"U c #E25AA3A95728",
"Y c #E577A61358B6",
"T c #EADAA9E25A9B",
"R c #F16EAE8E5CF2",
"E c #7C737FFC844C",
"W c #7F6582EB8739",
"Q c #86E486B98686",
"! c #8E548DDA8D45",
"~ c #93CB93A1936E",
"^ c #99CB9A329AB0",
"/ c #B27EB255B223",
"( c #C629C520C3DF",
") c #CD24CCC5CC52",
"_ c #D1AAD14CD0D9",
"` c #DB8CD9A2D744",
"' c #DEF9DD81DBAF",
"] c #E61AE51EE3EA",
"[ c #ED9CECEAEC0F",
"{ c #F515F49DF40A",
"} c #FFB0FFA9FFA1",
/* pixels */
"LLLLLLPLLLLLLLKKKLLLLLLLLLLLLLLL",
"LLLLLLLLKLKLLLPYYPLLLKLLLLLLLPLL",
"LLLLLLLLUIULLPGyyGPLLUPUPLLLLLLL",
"LLLPLKPLr;iPLL:  ;LLPi*yKLLLPLLL",
"LPPFKPUu   mTS.   STn   uUPKFPPL",
"LL7 #ZT6 . rYH&  &HYr . 6TA# 6LL",
"UM   ,YM  .VPPF&*GPPV.  MT<   mY",
"Ym . :PPZ&eTKKT6,TKKTe&ZPP, . aY",
"PH: .BIHR9OLLLL@@LLLLO9THUV. :HL",
"KPKD:MYHU9 VIPG..FPIV 9UHYM,SKPK",
"LLKRwXKLU9 9UPB  BII9 9ULKXeRKLL",
"LLKUp yUI7 OGYp  iTFO 7IUy pUKLL",
"LLKUN .ZT6  aR8  7Tn  6TZ. NUKLL",
"LLKIZ  ,T6  :U*  *U:  6T<  AILLL",
"LLLPG.  B9  .V@  @V.  9B  XGPLLL",
"LLLPL&  ;>   ,X  .:   ,*  #KPLLL",
"LLLLI,      o  o  o       :ILLLL",
"LLLKU9 o.              o. wUKLLL",
"LLLKYi   o14glcccclf4%o   uYKLLL",
"LLLLPD l_{}}}}}}}}}}}}{)l DPLLPL",
"LLLPKT0h{/Qxjs4334hhxW/{k0TKLLLL",
"LLLLLPGX   $24dffdq2$o  XGPLLLLL",
"LLLLLLP+c[}}}}}}}}}}}}{b&PLLLLLL",
"LLLLLKY=E]~cj432234fc!'W=YKLLPLL",
"LLLPLLP:  $24jlzzljs2$  :PLLLLLL",
"LPLLLPG ~}}}}}}}}}}}}}}^ GPLLLLL",
"LLLLKUmo`(!cjs4334sjc~(`onYKLLPL",
"LLLLKUa o              o iYKLLLL",
"LLLLLLPSi9:#Xo    oX#;7iZPLLLLLP",
"LLLPLLLPYULHGDAZZZSGHLUYILLLLLLL",
"LLLLLLLLLKLLPPPIIIPPPLLKKLPLLLLL",
"LLLLLLLLLLLLLLLKLKLLLLLLLLLLLLLL"
};
