/* XPM */
static char *qdd__[] = {
/* columns rows colors chars-per-pixel */
"41 41 97 2",
"   c #0154011000BD",
".  c #094906B9039A",
"X  c #0CD4094604F0",
"o  c #0B300B060AD4",
"O  c #10D20C29067A",
"+  c #14380E9F07C9",
"@  c #162610040887",
"#  c #1B9213D90A6C",
"$  c #089F0C0C103C",
"%  c #0E98129D1786",
"&  c #149D14761447",
"*  c #17F4176516B6",
"=  c #117F153719C2",
"-  c #1A411AC71B6B",
";  c #2065176C0C79",
":  c #22CE192A0D67",
">  c #27DA1CD00F58",
",  c #29A91E1F100A",
"<  c #33F921C00B82",
"1  c #2D7B20E21182",
"2  c #320824411371",
"3  c #361E27C3163F",
"4  c #3A9E2A611691",
"5  c #23E423AF2370",
"6  c #2E922E1C2D8C",
"7  c #351234C63469",
"8  c #35A338DD3CCC",
"9  c #3BA93B7F3B4B",
"0  c #40D02EDC18F4",
"q  c #451831FE1AAF",
"w  c #4DD838481DF8",
"e  c #51F23AB01E4E",
"r  c #5A0B3F3E1E89",
"t  c #52FC3BFF1FF1",
"y  c #5BBD4268237F",
"u  c #60F9461D2555",
"i  c #6467489726A7",
"p  c #67684AC427CF",
"a  c #6B764DB2295F",
"s  c #6F7650962AE9",
"d  c #733E53522C5E",
"f  c #78C757532E7D",
"g  c #7A7458892F24",
"h  c #7DF65B12307E",
"j  c #3F253F7E3FE9",
"k  c #3CEB402A4420",
"l  c #42E8429F4247",
"z  c #4EEC4EAA4E5B",
"x  c #50254FE84F9D",
"c  c #53B453755328",
"v  c #5F1E5EE05E95",
"b  c #66CA6635657F",
"n  c #685F672765A9",
"m  c #689C685A680A",
"M  c #7487744373EF",
"N  c #7D1B7B79797C",
"B  c #833A5EE13285",
"V  c #8655611F33B7",
"C  c #8BCA652E3611",
"Z  c #94146B4B3985",
"A  c #99866EFF3B1A",
"S  c #9E5072753CF2",
"D  c #A24275503E77",
"F  c #ACB07CDB427B",
"G  c #B4838283457E",
"H  c #B92F85E4474B",
"J  c #B51583E947EA",
"K  c #BBF587E5485C",
"L  c #BDEA894F491D",
"P  c #C39F8D7E4B6F",
"I  c #C77C903A4CCC",
"U  c #CC1E93944E94",
"Y  c #CFD496435002",
"T  c #D1DF97BD50CB",
"R  c #D5809A5D5232",
"E  c #DB2D9E775461",
"W  c #DF02A13D55DB",
"Q  c #E256A3A55724",
"!  c #E590A61858A5",
"~  c #EB47AA1B5A94",
"^  c #83E48390832A",
"/  c #8C1A8BFE8BDA",
"(  c #93BA9374931F",
")  c #9E5D9DA89CCB",
"_  c #A11DA0209EED",
"`  c #A358A2DEA249",
"'  c #AC27ABE4AB92",
"]  c #B0EDB0A9B056",
"[  c #BFEDBFB0BF66",
"{  c #C59BC530C4AE",
"}  c #CCDBCC77CBFC",
"|  c #D54CD500D4A3",
" . c #DBCDDB9BDB5E",
".. c #E380E351E318",
"X. c #EF0EEEE9EEBB",
"o. c #F3C2F39CF36D",
"O. c #FF80FF7EFF7B",
/* pixels */
"R R R E R R R R R R R R R R R R R R R R R R R R R R R R R R R R R R R R R R R R R ",
"R R R R R R R R R R R R R R R R R R R R R R R R R R R R R R R R R E R R R R R R R ",
"R R R R R R R R R R T R R R R R R R E Q T Q E T R R R R R R R R R R R R R R R R R ",
"R R R R R R R R R R Q E E Q R R R E K 0 # 0 L E R R R Q R E Q R R R R R R R E R R ",
"R R R T R T R R R W C > : f E T R R ,       > T R R E f : , C Q T R R T R R R R R ",
"R R R Q Q ! E T Q A         g Q E F           F E W f         A Q T E Q Q Q R R R ",
"R R E V 4 y P E Q e         2 E E G           F W E 2     .   e Q E P y 0 B E R R ",
"R Q s       # P ! y   .     4 W Y E e   .   e E T W 4         y ! I :       i Q R ",
"E U #   . .   h ~ G +       S Q R R E d   d W R T Q S       + G ~ V     .   + I E ",
"R U +         g Q E L i   d ~ T R R Q A   Z Q T R T ~ s   p K E Q B         O I E ",
"T Q y       @ L E T W E . 1 E R R T Q i   u Q T R R E , X E W T E P #       t Q T ",
"R R R d 3 # s ! T R E P +   F Q T R Q 0   3 W R T W F   + P R R U ! f ; 3 s E R R ",
"R R R Q ~ f   P E T E I +   i ! T E Y #   # Y E T ! y   O I E T E P   f ~ Q E R R ",
"R R R Y Q Z   e Q T E P X   # U R E K       G E R U #   X P E T Q e   Z Q U R R R ",
"R R R R W F     D W R P X     Z W W A       Z W Q Z     X P R Q D     F Q T R R R ",
"R R R R E L .   1 R E P .     q W Q s       a Q W q     . P E R 1   . P E R R R R ",
"R R R R R T #     g ~ L .     . K ! q       q ! L .     . L ~ g     # T R R R R R ",
"R E R R R E 2     + I P         f ! :       # ! f         P I +     2 E R R R R R ",
"R R R R T Q w       y U         2 P .         P 2         U y       w Q T R R R R ",
"R R R R T ! a         C +       . f           d .       + C         a ! T R E R R ",
"R R R R T ! V         # X         O           o         . #         V ! T R R R R ",
"R R R R T Q D                                                       D W T R R E R ",
"R R R E R E L                                                       H E R R R R R ",
"R R R R T E U @               * 5 6 7 9 9 9 7 6 5 & .             @ I E R R R R R ",
"R R R R R T W q   & l N ` {  .o.O.O.O.O.O.O.O.O.O.X. .{ _ M 9 &   q E T R R R R R ",
"R R R R R R W J   M O.o.O.O.O.O.O.o.o.o.X.X.o.o.O.O.O.O.O.O.O.^   J W T E R R R R ",
"R R R R R R T ! r $ { ` M z 7 5 * o           o & 5 7 z M ` } % y Q T R R R R R R ",
"R R R E R R R E P             * 5 7 9 l l l 9 7 5 *             L E R R R R R R R ",
"R R R R R R R E R # = N ' | X.O.O.O.O.O.O.O.O.O.O.O.o.| ' ^ - # E R R R R T R R E ",
"R R E R R R R T ! < 8 O.o.O.O.o...| | { { { }  ...o.O.O.O.O.j < ! R R R R E R R T ",
"R R R R R R R T ! e & _ m 9 *                       & 7 v ) % e ! T R R R R E T R ",
"R R R R R R R R E 1       - 8 c m M ^ ^ / ^ ^ M m c 9 -       1 E R R R T E R R R ",
"R R R R R R R E P   9 } o.O.O.O.O.O.O.O.O.O.O.O.O.O.O.O.X.| j   L E T R R R E R R ",
"R R R R R R T ! A   ) O.o.o.| [ ' _ ( ( / ( ( ` ] {  .o.O.O._   A Q T R R R T R R ",
"R R E R R R T Q t   N b 6 &                           - 7 b N   t Q T E E T R R E ",
"R R R R R R R W f                 o       o   .                 a W T R R R R T T ",
"R R R R R R R R Q P Z u 2 #                           # 2 y C L W T R R R R R E R ",
"R R R R R R R R T E Q ! W Y P F S Z C V B V C Z S F L Y W ! Q E T R R R E R R R R ",
"R R R R R R R R R R T T T E E W Q Q Q ! Q ! Q Q Q W E R R T T R E R R R T R R R R ",
"R R E R R R R E R R R R R R R T T R T T T T T T T T R R R R R R R R R R R R E T R ",
"R R R R R R R R R R R R R E R R R R R R R R R R R E R R R R R R R T E R R R R T E "
};
