/* XPM */
static char *qdd__[] = {
/* columns rows colors chars-per-pixel */
"52 52 107 2",
"   c #00FF00C90089",
".  c #089C0694041E",
"X  c #0BAD089504CE",
"o  c #051C063F07A4",
"O  c #0CE80C970C34",
"+  c #12580D1E06BE",
"@  c #135A0EA008DB",
"#  c #170D10AA08E0",
"$  c #1BF414290AAA",
"%  c #1370134C1320",
"&  c #17D7170015FA",
"*  c #17D4179D1759",
"=  c #1CE21C801C09",
"-  c #203F17510C6B",
";  c #24111A0C0DD3",
":  c #27EF1CDF0F5F",
">  c #29D41E3E101A",
",  c #202D1ED31D2C",
"<  c #2DF3212C1193",
"1  c #3331250313B5",
"2  c #374727F71547",
"3  c #3A2C2A0F1665",
"4  c #3EBA2DC3190E",
"5  c #253224FD24BD",
"6  c #2CCE2C862C2E",
"7  c #30022FBC2F66",
"8  c #33C833BD33AF",
"9  c #381B37CE3770",
"0  c #3C3C3BEA3B85",
"q  c #40B62EC918E9",
"w  c #452F32051AA2",
"e  c #4A24359B1C8B",
"r  c #4EFA39191E67",
"t  c #51823AEE1F61",
"y  c #550C3D7D20BE",
"u  c #5C0E428F2371",
"i  c #606045AE251A",
"p  c #649748B926B7",
"a  c #678F4AF22807",
"s  c #69644C3E28AA",
"d  c #72BB52F72C34",
"f  c #78D1575A2E83",
"g  c #798157EF2EF0",
"h  c #7F4F5C0B3103",
"j  c #4499444643E0",
"k  c #49E648AB472A",
"l  c #4F9F4F4C4EE7",
"z  c #55C254FB5407",
"x  c #58E657E856B2",
"c  c #5B955B335ABB",
"v  c #6405639D631E",
"b  c #6B366A8569AE",
"n  c #76CB766D75F9",
"m  c #7CE37C5A7BB2",
"M  c #81BD5DCE31F2",
"N  c #86B0616133DA",
"B  c #8BF165473617",
"V  c #8C83667E3818",
"C  c #90B2689D37B4",
"Z  c #94026B0338FB",
"A  c #99B46F2F3B4C",
"S  c #9CDF717F3C8F",
"D  c #A2AE759E3EA1",
"F  c #A5A577C33FC5",
"G  c #A74678F14068",
"H  c #AC6B7CF042FF",
"J  c #B4D582C145A5",
"K  c #B8A1857D4714",
"L  c #BB7087854829",
"P  c #BE2A897D4935",
"I  c #C3A28D844B7B",
"U  c #C7FF90994CFF",
"Y  c #CBD793614E7B",
"T  c #CF939623500C",
"R  c #D1CD97B050C5",
"E  c #D57D9A5A5230",
"W  c #DAC29E2A5438",
"Q  c #DEFFA13A55D9",
"!  c #E27DA3C15731",
"~  c #E4E0A57A581C",
"^  c #857B851E84AC",
"/  c #8939880E86A0",
"(  c #953D94EC9488",
")  c #985897F6977E",
"_  c #9C9B9C3F9BD0",
"`  c #A526A4C9A458",
"'  c #A840A7E4A773",
"]  c #AA40A9E6A977",
"[  c #B565B50CB49F",
"{  c #B8A8B851B7E6",
"}  c #BCE9BC90BC24",
"|  c #C079C021BFB7",
" . c #C47BC422C3B5",
".. c #C84EC7F9C792",
"X. c #CCC1CC5BCBDF",
"o. c #D09BD04ECFEE",
"O. c #D0B5D058CFE5",
"+. c #D39AD34DD2EE",
"@. c #DDA7DD30DC9E",
"#. c #E0D2E08BE035",
"$. c #E67FE646E5FF",
"%. c #EB18EAD2EA7C",
"&. c #F0A1F066F01E",
"*. c #F0D5F09BF054",
"=. c #F4F3F4C1F483",
"-. c #F89FF849F7E2",
";. c #FF57FF53FF4F",
/* pixels */
"E E W E E E E E W E E E E E E E E W E E E E E E E E E E E E E E E E E E E E E E E E E E E E E E E E E E ",
"E E E E E E E E E E E E E E E E E E E E E E E E E E E E E E E E E E E E E E E E E E E E E E E E E E E E ",
"E E E E W E E E E E E E E E E E E E E E E E E R E W W R E E E E E E E E E E E E W E E E E E E E W E E E ",
"E E E E E E E E E E E E E E E R R E E E E E E W ! I I Q W R W E E E E R E E E E E E E E E E E E E E E E ",
"E E E E E E E E E E E E R ! ! ! ~ W E E E E W I 4 . X q I Q R E E E W ~ W ! Q E E E E E E E E E E E E E ",
"E E E E E E E E E E E E ! D w 1 u I W E E E R :         : Y W E E W I u 1 w D ! E E E E E E E E E E E E ",
"E E E E R W W R E E R ! B         $ I W R ! C             N ! R W I $         B ! E E E E W E E E E E W ",
"E E R W ! Y Y ! W R W Y $       .   u ~ T ~ f             f ~ Y ~ u   X       $ T E E E ! Y Y ! W E E E ",
"E R W Y r + + r I W W J             1 W R ! A   .         A ! T W 1             J Q E Y t + + e I W E E ",
"E W R 1         1 R W I X           w Q R E W q         q W E R Q w           X I W E 3         > R E E ",
"R ! C   .         C Q W y           A ! R E W R a X X a R W E E ! A           y W ! S             N ~ E ",
"R ! f             d ~ E E t .   X B ! E E E R W W + + E W R E E R ! N X   . y E E ! M             s ~ T ",
"R ! Z             C ! R E ! Y 3   K Q E E E E Q G     G ! E E E E W J   2 Y ! E T ! S         .   N ~ R ",
"E E E 1         1 E E E E R ! 4   i ~ R E E E ! B     N ! R E E R ! u   3 ~ T E E E E q         1 E E E ",
"E E W Y u $ $ $ H ! R E E R W 1   $ Y W E E R ~ p     u ~ R E E W Y $   1 W E E E R ! H - - $ t U W E E ",
"E E E W ! E I . 3 ! E E E E Q 1     C ! R E R ! 3     3 W E E R ! B     1 Q E E E E ! 3 . Y E ! E E E E ",
"E E E E R E E -   C ~ R E E W 1     w Q E E E T $     $ Y E E E ! q     1 W E E R ! C   : E E R E E E E ",
"E E E E E E Q 3   - R W E E W <     . L W E W K         J W R W L       < W E E E R -   3 ! R E E E E E ",
"W E E E E E ~ y     s ~ R E W <       f ~ Y ! Z         C ! T ~ f       < W E R ~ s     y ~ E E E E E E ",
"E E E E E R ~ d       K W R W >       > W T ~ d     .   s ~ R W <       > W R W K .     d ~ R E E E E E ",
"E E E E E R ! B       w ! R W :         G W ! e         q Q W D         : W R ! w       C ~ R E W E E E ",
"E E E E E E ! D         Z ! E :         u ~ T :         - R ~ u         : E ! Z         G ! R E E E E E ",
"E E E E E E W L .       - R E :         @ T I X           I R @         : E R -         L W E E E E E E ",
"E E W E E E W Y $         d ~ -           A H             G A           $ ~ d         $ T W E E E E E E ",
"E E E E E E E W 1         . K >           r N             h r           : L X         1 W E E E W E E W ",
"E E E E E E R ~ e           e :           @ 1             < +           : e           e ! R E E E E E E ",
"E E E E E E R ~ a                                                                     p ~ R E W E E E E ",
"E E E W E E R ~ N                                                                     M ~ R E E E E E E ",
"E W E E E E R ! D                   o o                       o   o                   S ! R E E E E E E ",
"E E E E W E E W K         o                                                   o       J W E E E E E E E ",
"E E E E E E E W T @         o = 0 c m ( ] {  .X.X.+.+.X.X. .[ ' ( n c 9 *           + Y W E E E E E E E ",
"E E E E E E E R ! s   @ v ' +.=.;.;.;.;.;.;.;.;.;.;.;.;.;.;.;.;.;.;.;.;.=.+._ v #   s ! R E E E E W E E ",
"E E E E E E E E W Y $ o @.;.;.;.;.;.;.;.=.=.%.%.%.$.$.%.%.%.=.-.;.;.;.;.;.;.;.%.% + T W R E E E E E E E ",
"E E E E E E E E R ~ B   z -. .) n c j 9 5 = % O O O O O % % = 5 9 j c n )  .-.b   C ~ R E E E E E E E W ",
"E E E W W E E E E E W <   &                                                 *   < W E E E E E E E E E E ",
"E E E E E E E E E R ~ p       % 9 x m ( ] [  .X.X.+.+.X.X. .{ ] ( m v 0 *   o   p ~ R E E E E W E E E E ",
"E E E E E E E E E R ! V   k X.%.;.;.;.;.;.;.;.;.;.;.;.;.;.;.;.;.;.;.;.;.%.+.z   B ! R E E E E E E E E W ",
"E E E E E E E E E R Q H   c ;.;.;.;.;.=.%.@.+.X.X. . . .X.+.@.$.=.;.;.;.;.;.v   H Q E E E E E E E E E E ",
"E E W E E W E E E E W I   8 @.' m z 9 = O                     O * 8 l n ` @.8   I W E E E E E W E E E E ",
"E E E E E E E E E E Q F                   % % = 5 5 5 5 = * O o                 G Q E E E E E E E E E E ",
"E E E E E E E E E R ! d   X 6 c ^ ' } +.@.%.=.=.-.-.-.=.=.*.$.$.+.| ' / c 7 X   d ~ R E E E E E E E E W ",
"E E E E E E E E E E Q 4   m ;.;.;.;.;.;.;.;.;.;.;.;.;.;.;.;.;.;.;.;.;.;.;.;./   4 Q E E E E E E E E E E ",
"E E E E E E W E E W Y @    .;.;.;.=.$.o. .[ ` ) ) ( ( ( _ ] {  .+.%.-.;.;.;.X.  O I W E E W E E E E E E ",
"E E W E E E E E R ! S   = X._ v 0 = X                             % 5 j b _ X.=   S ! R E E E E E E E W ",
"W E E E E E E E R ~ d   X o                   o o   o   o                     X   s ~ R E E E E E E E E ",
"E E E E E E E E E E Y g -                           .                         $ s I W E E E E E E E E E ",
"E E E E E E W E E E E ~ W J N u 3 $ X                             X $ 1 y M H E ! W E E E E E E E E E W ",
"E E E E E E E E E E E R E Q ! ! ! E I K G S B N M h h M N C Z F J I R Q ~ ~ Q E R E E E E W E E E E E E ",
"W E E W E E E E E E E E E E E R E E W Q Q ! ~ ! ~ ~ ~ ~ ~ ! ! Q W W E E R R E E E E E E E E E E E W E E ",
"E E E E E E E E E E E W E E E E E E E E R R E R R R R R R R E R R E E E E E E E E E E E E W E E E E E E ",
"E E E E W E E E E E E E E E E E E E E E E E E E E E E E E W E E E E E W E E E E E E E E E E E E E E E E ",
"E E E E E E E E E E E E E E E E E E E E E E E E W E E E E E E E E E E E E E E E E E W E E E E E E E E E "
};
