/* XPM */
static char *qdd__[] = {
/* columns rows colors chars-per-pixel */
"64 64 109 2",
"   c #00EC00BC0083",
".  c #095206BD0396",
"X  c #0C4C08E804C5",
"o  c #0A1809E209A0",
"O  c #115C0C8D06AF",
"+  c #14A80F08082A",
"@  c #156B10780A6F",
"#  c #1A7E13260A31",
"$  c #1408137B12D1",
"%  c #17C616F015EB",
"&  c #197B18741734",
"*  c #1B171AB21A37",
"=  c #24261A340E11",
"-  c #28271D070F75",
";  c #23401A680F9F",
":  c #29EA1E4E1023",
">  c #2E3C216D11CD",
",  c #2103200A1EDB",
"<  c #345025EA1458",
"1  c #36CC27E315B0",
"2  c #3A862A6216AE",
"3  c #3E332D1F1847",
"4  c #238E23002250",
"5  c #2BEC2B6F2AD6",
"6  c #30502FEF2F77",
"7  c #34F5344B337C",
"8  c #3B503AEE3A77",
"9  c #40F32EF51901",
"0  c #44F931DF1A8E",
"q  c #4A9F35F41CBA",
"w  c #4E1038711E0E",
"e  c #51063A951F31",
"r  c #55213D8C20C6",
"t  c #57F83F9A21DE",
"y  c #5BB5426A238D",
"u  c #61BC46AA25A0",
"i  c #65CA49982730",
"p  c #67364AA827D0",
"a  c #6C174E2C29AA",
"s  c #74EF54902D0E",
"d  c #785557002E53",
"f  c #7A8458932F2B",
"g  c #7C1359B52FC4",
"h  c #462B45C0453E",
"j  c #4C1D4B624A7D",
"k  c #55F3558454FB",
"l  c #5AC5596C57C7",
"z  c #5D5A5CB05BE0",
"x  c #60105F995F07",
"c  c #664665D5654B",
"v  c #6A966A3C69CB",
"b  c #6FF26F8F6F16",
"n  c #70BF70566FD6",
"m  c #745273DC734D",
"M  c #7C9A7C1C7B82",
"N  c #820D5E263257",
"B  c #8697614F33D0",
"V  c #8C5F657D360A",
"C  c #8FD3680A377D",
"Z  c #9084687C37A3",
"A  c #93C66ADB38EC",
"S  c #99E66F453B3F",
"D  c #9D8871EE3CB9",
"F  c #A2B875A63EA5",
"G  c #A70178BE4049",
"H  c #ABF77C544233",
"J  c #B04A7F7543DE",
"K  c #803A7FC77F3A",
"L  c #B54D831445CC",
"P  c #B95085FB4757",
"I  c #BB5C8774481D",
"U  c #BEE48A04497D",
"Y  c #C3A78D754B52",
"T  c #C7F990954CFC",
"R  c #CB77931B4E54",
"E  c #CFAF96284FF4",
"W  c #D18B978150AC",
"Q  c #D58D9A665236",
"!  c #DB009E57544F",
"~  c #DF13A14955E1",
"^  c #E239A38F5717",
"/  c #E4D9A575581A",
"(  c #E94CA8AD59D0",
")  c #F250AF315D49",
"_  c #83EB837782EB",
"`  c #88A0881B877A",
"'  c #8C7D8C088B7A",
"]  c #942393BB933A",
"[  c #9C189BA79B1C",
"{  c #A0E7A0759FEA",
"}  c #A521A4B2A42B",
"|  c #AD3CACCCAC44",
" . c #B118B0ADB02A",
".. c #B472B405B37F",
"X. c #B87BB811B78F",
"o. c #B8D4B86AB7E9",
"O. c #BCC4BC56BBD0",
"+. c #C0A7C04DBFDF",
"@. c #C62DC5CBC553",
"#. c #C867C809C795",
"$. c #C8E3C875C7F2",
"%. c #CC45CBDFCB63",
"&. c #D059CFE5CF56",
"*. c #D4F9D4A1D434",
"=. c #DC62DC18DBBD",
"-. c #E512E4B2E43C",
";. c #ECABEC59EBF5",
":. c #F41AF3D8F387",
">. c #FFBDFFBCFFBB",
/* pixels */
"Q Q Q Q Q Q Q Q Q Q Q Q Q Q Q Q Q Q Q Q Q Q Q Q Q Q Q Q Q Q Q Q Q Q Q Q Q Q Q Q Q Q Q Q Q Q Q Q Q Q Q Q Q Q Q Q Q Q Q Q Q Q Q Q ",
"Q Q Q Q Q Q Q Q Q Q Q Q Q Q Q Q Q Q Q Q Q Q Q Q Q Q Q Q Q Q Q Q Q Q Q Q Q Q Q Q Q Q Q Q Q Q ! Q Q Q Q Q Q Q Q Q Q Q Q Q Q Q Q Q ",
"Q Q Q Q Q Q Q Q ! Q Q Q Q Q ! Q Q Q Q Q Q Q Q Q Q Q Q ! Q Q Q Q Q Q Q Q ! Q Q Q Q Q Q Q Q Q Q Q Q Q Q Q ! Q Q Q Q Q Q Q Q ! Q Q ",
"Q Q Q Q Q Q Q Q Q Q Q Q Q Q Q Q Q Q Q Q Q ! Q Q Q Q Q Q Q Q Q ! ~ Q Q Q Q Q Q Q Q Q Q Q Q Q Q Q Q Q Q Q Q Q Q Q Q Q ! Q Q Q Q Q ",
"Q Q Q Q Q Q Q Q ! Q Q Q Q Q Q Q Q W W Q Q Q Q Q Q Q Q Q Q ^ Q L L Q ^ Q Q Q Q Q Q Q Q Q W W W Q ! Q Q Q Q Q Q Q Q Q Q Q Q Q Q Q ",
"Q ! Q Q Q Q Q Q Q Q Q Q Q Q Q Q Q ^ / / ~ Q Q Q Q Q Q Q ^ C #     # C ^ Q Q Q Q Q Q Q ~ / / ^ Q Q Q Q Q Q Q Q Q Q Q Q Q Q Q Q Q ",
"Q Q Q Q Q Q Q Q Q Q Q Q Q Q Q ! Q C u p F ~ Q Q Q Q Q / B             B ^ W Q Q Q Q ~ F p u C Q ! Q Q Q Q Q Q Q Q Q Q Q Q Q Q Q ",
"Q Q Q Q ! Q Q Q Q Q Q Q Q Q ! Y :         e ! Q Q Q Q R #             @ R ! Q Q Q ! e         : Y ! Q Q Q Q Q Q Q Q Q ! Q Q Q Q ",
"Q Q Q Q Q Q ! ~ ! Q Q Q Q Q ! 1   .         a ^ W Q ~ G                 F ~ Q Q ^ p         .   1 Q Q Q Q Q W ! ~ ! Q W Q Q Q Q ",
"Q Q Q Q ! ~ U J Y ^ Q Q Q ~ F               # R Q W ^ F                 D ~ W Q R #               F ~ Q Q Q ^ R H U ~ ! Q Q Q Q ",
"Q Q Q ! U 3     X y Q Q W ^ N                 L ~ Q ! Y X             X Y ! Q ! I                 N / Q ! Q u O     2 I ! Q Q Q ",
"Q Q ! T #           9 ! W ^ C               X Y ! Q Q ^ p             u ^ W Q ! U X               C ^ W ! w           # Y ! Q Q ",
"Q Q ^ u   .       .   Z ^ Q Y +             9 ~ W Q Q Q ! u         u ! Q Q Q Q ! 9             O Y Q ^ D           .   r ^ W Q ",
"Q Q ! :               r ^ W ^ C           O I ! Q Q Q Q Q / F X X F / Q Q Q Q Q ! I +           V ^ R / u               = W Q Q ",
"Q Q Q =               w ^ W W ^ F 2 # . - U ~ Q Q Q Q Q Q ~ F     D ^ Q Q Q Q Q W ^ I = X # 2 F ~ Q Q / y               # W Q Q ",
"Q Q ^ w               f ^ Q Q W ~ ( F   . H ! Q Q Q Q Q W ^ s     a / W Q Q Q Q Q ! G     F ( ~ Q Q Q ^ B               9 ^ Q Q ",
"Q Q ! H .       .   # R ! Q Q Q W ~ F     y / Q Q Q Q Q Q ^ w     0 ^ W Q Q Q Q Q ^ t     F ^ R Q Q Q Q W -     .       F ~ Q Q ",
"Q Q Q ~ S O       # I ~ W Q Q Q W ^ D     @ R Q Q Q Q Q Q Q :     = Q Q Q Q Q Q Q R +     D ^ W Q Q Q Q ! U -       X A ^ Q Q Q ",
"Q Q Q Q ~ R A C u . B / W Q Q Q Q ^ D       Z ^ W Q Q Q ! Y O     . Y ! Q Q Q Q / V       D ^ Q Q Q Q W / B X a C C R ^ Q Q Q Q ",
"Q Q Q Q Q ! ~ ) C   @ Y ! Q Q Q W ^ S   .   9 ^ Q Q Q W ^ F         D ~ Q Q Q Q ~ 3       S ~ Q Q Q Q ! T @   A ) ~ Q Q Q Q Q Q ",
"Q Q Q Q Q Q R ~ F     r / W Q Q Q ^ S       . I ! Q Q Q / N         f / W Q Q ! I .       S ^ W Q Q W / y     F ! W Q Q Q Q Q Q ",
"Q Q Q Q Q Q Q ! I .     F ~ Q Q Q ^ A         s / W Q W / y         e / W Q W / a         A ^ Q Q Q ^ G     . Y ! Q Q Q Q Q Q Q ",
"Q Q Q Q Q Q Q ! R @     1 ! Q Q W ^ A         - ! Q Q Q ! 1         > ! Q Q Q Q =         A ^ W Q Q ! 1     # R ! Q Q Q Q Q Q Q ",
"Q Q Q Q Q Q Q Q ! >   .   B / W Q ^ A           F ~ W ! R +         O R ! W ^ F       .   A ^ Q W ^ B       > ! Q Q Q Q Q Q Q Q ",
"Q Q Q Q Q Q Q Q ^ q       # R ! W ^ A           y ^ W ~ L             G ^ W ^ r           Z / W ! R #       q ^ W Q Q Q Q Q Q Q ",
"Q Q Q ! Q Q Q Q / u         y / R ^ C           + R Q ^ Z             B ^ Q R +           C / R / y     .   u / Q Q Q Q Q Q Q Q ",
"Q Q Q Q Q Q Q W / N           H ! ^ V             V ~ ^ u             y ^ ^ B         .   C ~ ! H           N / W Q Q Q Q Q Q Q ",
"Q Q Q Q Q Q Q Q ^ D           2 ! ^ B             3 ! ~ 9             2 ! ! 3             B ^ ! 3           D ^ Q Q Q Q Q Q Q Q ",
"Q Q Q Q Q Q Q Q ~ L             B ) N               P Q #             @ Q I               B ) B             L ! Q Q ! Q Q ! Q Q ",
"Q Q Q Q Q Q Q Q Q R O           # ! B               s R                 Y s               B ! #           O Y ! Q Q Q Q Q Q Q Q ",
"Q Q Q Q Q Q Q Q Q Q -             s A               < S                 Z <               A s             = Q Q Q Q Q Q Q Q Q Q ",
"Q Q Q ! Q Q Q Q Q ~ 3             + y               . 2                 < X               y +             2 ~ Q Q Q Q Q Q Q Q Q ",
"Q Q ! Q Q Q Q Q W / y                                                                                     r / W Q Q Q Q Q Q Q ! ",
"Q Q Q Q Q Q Q Q Q / d                                                                                     s / Q Q Q Q Q Q Q Q Q ",
"Q Q Q Q Q Q ! Q W ^ A                                                                                     Z ^ W Q Q Q Q Q Q Q Q ",
"Q Q Q Q Q Q Q Q Q ~ H                                                                                     G ~ Q Q Q Q Q Q Q Q Q ",
"Q Q Q Q Q Q Q Q Q ! Y .                                                                                 . U ! Q Q Q Q Q Q Q Q Q ",
"Q Q Q Q Q Q Q Q Q Q W =               $ 5 j v _ [ | O.$.*.*.=.=.=.=.*.%.$.O.| [ M c h 5 o               # W Q Q ! Q Q Q Q Q Q Q ",
"Q Q Q ! Q Q Q Q Q W ^ a       5 c } &.;.>.>.>.>.>.>.>.>.>.>.>.>.>.>.>.>.>.>.>.>.>.>.>.>.;.$.] c 4       a / Q Q Q Q Q Q Q Q ! Q ",
"Q Q Q Q Q Q Q Q Q Q ! W ;   j >.>.>.>.>.>.>.>.>.>.>.>.>.>.>.>.>.>.>.>.>.>.>.>.>.>.>.>.>.>.>.>.>.>.z   ; Q Q Q Q Q Q Q Q Q Q Q Q ",
"Q Q Q Q Q Q Q Q Q Q Q ^ C     $.>.>.>.>.>.:.-.*.@.o.| } [ ] ] ] ] ] ] [ } | X.@.*.-.:.>.>.>.>.>.=.o   A ^ Q Q Q Q Q Q ! Q Q Q Q ",
"Q Q Q ! Q Q Q Q Q Q Q Q ! 3   j -.} m j 5 & o                                     o & 5 j m } ;.c   3 ~ Q Q Q Q Q Q Q Q Q Q Q Q ",
"Q Q Q Q Q Q Q Q Q Q Q Q ~ G                                                                   o     G ^ Q Q Q Q Q Q Q Q Q Q Q Q ",
"Q Q Q Q Q Q Q Q Q Q Q Q ! E #           o 5 8 l v ` ] } | X.o.o.o.o.X.| } [ ' m z h 5 $           # W Q Q Q Q Q Q Q Q Q Q Q Q Q ",
"Q Q Q Q ! Q Q Q Q Q Q Q Q ! 1   $ l ] @.-.>.>.>.>.>.>.>.>.>.>.>.>.>.>.>.>.>.>.>.>.>.>.;.$.[ c *   1 ~ Q Q Q Q Q Q Q ! Q Q Q Q Q ",
"Q Q Q Q Q Q Q Q Q Q Q Q Q / y   j >.>.>.>.>.>.>.>.>.>.>.>.>.>.>.>.>.>.>.>.>.>.>.>.>.>.>.>.>.>.l   y / W ! Q Q Q Q Q Q Q Q ! Q Q ",
"Q Q Q ! Q Q Q Q Q Q Q Q W / N   5 >.>.>.>.>.:.=.$.o.| [ ] ' _ _ _ _ ` ' [ } X.@.=.;.>.>.>.>.>.7   N / W Q Q Q Q Q Q Q Q Q Q Q Q ",
"Q Q Q Q Q Q Q Q Q Q Q Q Q ~ D   $ %.o.M k 7 * o                                   & 5 j m | %.&   D ~ Q Q Q Q Q Q Q Q Q Q Q Q Q ",
"Q Q Q Q Q Q Q Q Q ! Q Q W / s   . .                         o o o                             .   s / W Q Q Q Q Q Q Q ! Q Q Q Q ",
"Q Q ! Q Q Q Q Q Q Q Q Q Q ~ 3         * 7 k b ' [ ..O.$.*.*.=.=.=.=.=.*.$.O...{ ' m k 7 *         3 ~ Q Q Q Q Q Q Q Q Q Q Q Q Q ",
"Q Q Q Q Q Q Q Q Q Q Q Q Q R +   5 | *.:.>.>.>.>.>.>.>.>.>.>.>.>.>.>.>.>.>.>.>.>.>.>.>.>.:.=...7   + Y ! Q Q Q Q Q Q Q Q Q Q Q Q ",
"Q Q Q Q Q Q Q Q Q Q Q Q ^ D     _ >.>.>.>.>.>.>.>.>.>.>.>.>.>.>.>.>.>.>.>.>.>.>.>.>.>.>.>.>.>.]     D ^ Q Q Q Q Q Q Q Q Q Q Q Q ",
"Q Q Q Q Q Q Q Q Q Q Q W / p     @.>.>.>.>.:.=.@...[ ' _ m m v v v v m m ' ] } X.%.-.:.>.>.>.>.%.    p / W Q Q Q Q Q ! Q Q ! Q Q ",
"Q Q Q Q Q Q ! Q Q Q Q Q ~ 2   ; -.+._ k 5 %                                       o * 8 z ' O.-.4   1 ! Q Q Q Q Q Q Q Q Q Q Q Q ",
"Q Q Q Q Q Q Q Q Q Q Q ! Y o   $ &                     .   .   . . .         o                 % +     P ! Q Q Q Q Q Q Q Q Q Q Q ",
"Q Q Q ! Q Q Q Q Q Q Q Q E y         o     .                                             X           0 R ! Q Q Q Q Q Q Q Q Q Q Q ",
"Q Q Q Q Q Q Q Q Q Q Q Q ! ^ P d 2 X                                                         . > p H ~ ! Q Q Q Q Q Q Q Q Q Q Q Q ",
"Q Q Q Q Q Q Q Q Q Q Q Q Q W ! / ~ T G N y 3 - # .                             . + ; 2 y g D Y ! / ~ Q Q Q Q ! Q Q Q Q Q Q Q Q Q ",
"Q Q Q ! Q Q Q Q Q Q Q Q Q Q Q W Q Q ~ / / ~ ! R Y L G G S A C V V V A A D H L U E Q ~ / / ~ ! Q Q Q Q Q Q Q Q Q Q Q Q Q Q ! Q Q ",
"Q Q Q Q Q Q Q ! Q Q Q ! Q Q Q Q Q Q Q Q Q Q Q Q ! ! ~ ~ ^ ^ ^ / / ^ ^ ^ ^ ~ ! ! Q Q Q Q Q Q Q Q Q Q Q Q Q Q Q Q Q Q ! Q Q Q Q Q ",
"Q Q Q Q Q Q Q Q Q Q Q Q Q Q Q Q Q Q Q Q Q Q Q Q Q Q W Q Q Q W W W Q W Q W Q Q Q Q Q Q Q Q Q Q Q Q Q Q Q Q Q Q Q Q Q Q Q Q Q Q Q ",
"Q Q ! Q Q Q Q Q Q Q Q Q Q Q Q Q Q Q Q Q Q Q Q Q Q Q Q Q Q Q Q Q Q Q Q Q Q Q Q Q Q Q Q Q Q Q Q Q Q Q Q Q Q Q Q Q Q Q Q Q Q Q Q Q ",
"Q Q Q Q Q Q Q Q ! Q Q Q Q Q Q ! Q Q Q Q Q Q Q Q Q Q Q Q Q Q Q Q Q Q Q Q Q Q Q Q Q Q Q Q Q Q Q Q Q Q Q Q Q Q Q Q Q Q Q Q Q Q Q Q ",
"Q Q Q Q Q Q Q Q Q Q Q Q Q Q Q Q ! Q Q Q Q Q Q Q Q Q Q Q Q Q Q Q Q Q Q Q Q Q Q Q Q Q ! Q Q Q Q ! Q Q Q Q Q ! Q Q Q Q Q ! Q Q Q Q "
};
