/* XPM */
static char *qdd__[] = {
/* columns rows colors chars-per-pixel */
"88 88 119 2",
"   c #00BA0096006B",
".  c #08E506A603E9",
"X  c #0D0D0974050F",
"o  c #0B520B060AA9",
"O  c #11C20CD606D5",
"+  c #14290F0508BE",
"@  c #1672103B08A4",
"#  c #1BC914160AB2",
"$  c #133612DD126F",
"%  c #17D7176916E3",
"&  c #1C891C271BAE",
"*  c #1FFA171F0C4F",
"=  c #23CF19E40DC9",
"-  c #284A1D200F82",
";  c #29EF1E55102C",
":  c #2DFB213E11B4",
">  c #20601FF31F6F",
",  c #32B824AB1386",
"<  c #3766280E1554",
"1  c #3A302A121667",
"2  c #3EA52D4C1820",
"3  c #23E0236A22DA",
"4  c #2AD52A5A29C3",
"5  c #2FC82F492EAE",
"6  c #30742FEA2F43",
"7  c #33F7337432D4",
"8  c #382737A236FE",
"9  c #3CED3C603BB5",
"0  c #40FD2EFD1905",
"q  c #44E931D31A88",
"w  c #4A8B35E51CB2",
"e  c #4E6F38B51E32",
"r  c #508E3A3E1F03",
"t  c #55353D9B20CE",
"y  c #57F93F9B21DE",
"u  c #3FC73F3C3E91",
"i  c #5B644213232F",
"p  c #40793FEC3F3F",
"a  c #619C46922594",
"s  c #64E048EF26D6",
"d  c #677D4AD327D8",
"f  c #6A5D4CE728F3",
"g  c #6EEC50322AB3",
"h  c #73BC53AD2C8E",
"j  c #78D7575E2E85",
"k  c #7ACC58C82F46",
"l  c #7E105B253088",
"z  c #444A43BF4316",
"x  c #4C354BA64AF6",
"c  c #50CB502C4F6A",
"v  c #53E053435283",
"b  c #58C1582D5779",
"n  c #5CAE5C135B56",
"m  c #610960675FA1",
"M  c #647763DB631C",
"N  c #687867E06727",
"B  c #68CF6835677A",
"V  c #6CE66C486B87",
"C  c #70056F646EA0",
"Z  c #74E374477388",
"A  c #795D78BC77F7",
"S  c #7BCA7B447AA0",
"D  c #82D65E98325F",
"F  c #86C6617133E3",
"G  c #8C08653E35E9",
"H  c #907B6876379F",
"J  c #947D6B5C392A",
"K  c #998C6F043B1D",
"L  c #9CCF715F3C5E",
"P  c #A2CF75B63EAD",
"I  c #A5B177CC3FCA",
"U  c #A6B37886402D",
"Y  c #AC537C984257",
"T  c #B0E87FE8441A",
"R  c #B583833C45E1",
"E  c #B8DC85A7472A",
"W  c #BBC087BF4847",
"Q  c #BE10896A492B",
"!  c #809280067F5A",
"~  c #C30B8D044B16",
"^  c #C7BE906A4CE5",
"/  c #CC4493AF4EA3",
"(  c #D0169673501C",
")  c #D1DB97BA50CA",
"_  c #D59C9A71523C",
"`  c #DAF19E4B5449",
"'  c #DF23A15455E7",
"]  c #E250A3A05720",
"[  c #E4C8A5695813",
"{  c #ECC9AB325B28",
"}  c #F220AF0F5D36",
"|  c #84F08441836A",
" . c #8CB68C118B49",
".. c #90588FC08F06",
"X. c #933E92A391E7",
"o. c #9D529CAF9BE8",
"O. c #A0EDA04D9F8B",
"+. c #A525A487A3C6",
"@. c #A899A807A755",
"#. c #AC4DABB0AAF2",
"$. c #B603B56BB4B2",
"%. c #C0C0C037BF90",
"&. c #C470C3EDC34E",
"*. c #C8B0C82CC78B",
"=. c #CC8FCC10CB72",
"-. c #D0B3D02ECF8B",
";. c #D17AD0EDD041",
":. c #D4D1D456D3C0",
">. c #D94AD8CBD831",
",. c #DCC2DC4CDBBC",
"<. c #E0E4E072DFE6",
"1. c #E4F9E48EE40A",
"2. c #E8BFE842E7AB",
"3. c #E91CE8B1E82D",
"4. c #EC8DEC2FEBBC",
"5. c #F11BF0C0F050",
"6. c #F626F5EBF5A2",
"7. c #F8AEF86FF821",
"8. c #FE5CFE59FE54",
/* pixels */
"_ _ _ _ _ _ _ _ _ _ _ _ _ _ _ _ _ _ _ _ _ _ _ _ _ _ _ ` ` _ _ _ _ _ _ _ _ _ _ _ _ _ _ _ _ _ _ _ _ _ _ _ _ _ _ _ _ _ ` _ _ _ _ _ _ _ _ _ _ _ _ ` _ _ _ _ _ _ _ _ _ _ _ _ _ _ _ _ ",
"_ _ _ _ _ _ _ _ _ _ _ _ _ _ _ _ _ _ ` _ _ _ _ _ _ _ _ _ _ _ _ _ _ _ _ _ _ ` _ _ _ _ _ _ _ _ _ _ _ _ _ _ _ _ _ _ _ _ _ _ _ _ _ _ _ ` _ _ _ _ _ _ _ _ _ _ _ _ _ _ _ _ _ _ _ _ _ _ ",
"_ _ _ _ _ _ _ _ _ _ _ _ ` _ _ _ _ _ _ _ _ _ _ _ _ _ _ _ _ _ _ _ _ _ _ _ _ _ _ _ _ _ _ _ _ _ _ _ _ ` _ _ ` _ _ _ _ _ _ _ _ _ _ _ _ _ _ _ _ _ _ _ _ _ _ _ _ _ _ _ _ ` _ _ _ _ _ _ ",
"_ _ _ _ _ _ _ _ _ ` _ _ _ _ _ _ _ _ _ _ _ _ _ _ _ _ _ _ _ _ _ _ _ _ _ _ _ _ _ _ _ _ _ _ ` _ _ _ _ _ _ _ _ _ _ _ _ _ _ _ _ _ _ _ _ _ _ _ _ _ _ _ _ _ _ _ _ _ _ _ _ _ _ _ ` _ _ _ ",
"_ _ _ _ _ _ ` _ _ _ ` _ _ _ _ _ _ _ _ _ _ _ _ _ _ _ _ _ _ _ _ _ ` _ _ _ _ _ _ _ _ _ _ ) ) _ _ _ _ _ ` _ _ _ _ _ _ _ _ _ _ _ _ _ _ _ _ _ _ _ _ _ _ _ _ _ _ _ _ ` _ _ _ _ _ _ _ _ ",
"_ _ _ _ _ _ _ _ _ _ _ _ _ _ _ _ _ _ _ _ _ _ _ _ _ _ _ _ _ _ _ _ _ _ _ _ _ _ _ _ ) _ ' ] [ ` _ _ _ _ _ _ _ _ _ _ _ _ _ _ _ _ _ ` _ _ _ _ _ _ _ _ _ _ _ _ _ _ _ _ _ _ ` _ _ _ _ _ ",
"_ _ _ _ _ _ _ _ _ _ _ _ _ _ _ _ _ _ _ _ _ _ _ _ _ _ _ _ _ _ _ _ _ _ _ _ _ _ ` ) ' ` T H H T ` ` ) _ _ _ _ _ _ _ _ _ _ _ _ _ _ _ _ _ _ _ _ ` _ _ _ ` _ _ _ _ _ _ _ _ _ _ _ _ _ _ ",
"_ ` _ _ _ _ _ _ _ _ _ _ _ _ _ _ ` _ _ _ _ _ _ ) ` ` ` ` ) _ _ _ _ _ _ _ _ _ ) ] Y :         , Y ] ) _ _ _ _ _ _ _ ` _ ) _ ` ' _ ) _ _ _ _ _ _ _ _ _ _ _ _ _ _ _ _ _ _ _ _ _ _ _ ",
"_ _ _ _ _ _ _ _ _ _ _ _ _ _ _ _ _ _ _ _ _ _ ` ] / R R / ] ` _ _ _ _ _ _ _ ) [ L               . K ' _ _ _ _ _ _ _ ) ` [ / R R / [ ` ) _ _ _ _ _ _ _ _ _ _ _ _ _ _ _ _ _ _ _ _ _ ",
"_ _ _ _ _ _ _ _ _ _ _ _ _ ` _ _ _ _ _ _ ) ] ~ r O     # i / ' ) _ _ _ _ ) ` ~ O   .             O ~ ` ) _ _ _ _ ) ' / i +     O e ~ ' ) _ _ _ _ _ _ _ _ ` _ _ _ _ _ _ _ _ _ _ _ ",
"_ _ _ _ _ _ _ _ _ _ _ _ _ _ _ _ _ _ _ ) ' Y O             * Q ` _ _ _ _ ) [ f                 .   d [ ) _ ` _ ) ' W #             O Y ' _ _ _ _ _ _ _ _ _ _ _ _ _ _ _ _ ` _ _ _ ",
"_ _ _ _ ` _ _ _ _ ) ) ) _ _ _ _ _ _ _ ` ^ #                 , _ _ _ _ _ _ ' <                     : ` _ _ _ _ _ _ :                 # / ` _ _ _ _ _ _ _ ) ) ) ) _ _ _ _ _ _ _ _ ",
"_ _ _ _ _ _ ) _ ] [ [ ] ` ) _ _ _ _ ) [ f                     F [ ) _ _ _ ` -                     * ) _ _ _ _ [ F                     f [ ) _ _ ` _ ) ` ] [ [ ] ` ) _ _ _ _ _ _ ",
"_ _ ` _ _ ) ] _ P j j J / ] ) _ _ _ _ ` ,                     w ] _ _ _ _ ` <                     : ` _ _ _ ) ] w                     : ` _ _ _ _ ) [ / K j j L _ ] ) _ _ _ _ _ ",
"_ _ _ _ ) ] Y -         O D ] _ _ _ ` / #                     , ` _ _ _ ) [ f   .                 a [ ) _ _ _ ` ,                     # / ` _ _ ) ] G @         * P ] ) _ _ _ _ ",
"_ _ _ ) ' P .               f ] ) _ _ _ *                     < ' ) _ _ _ ` Q X                 X Q ` _ _ _ ) ' <                     * _ _ _ ) [ l                 K ] _ _ _ _ ",
"_ _ _ ` / #                   L ] ) ) ] e                     d [ ) ` _ _ ) ] J                 H ] ) _ ` _ ) [ d   .                 e ] ) _ ` T                   + ~ ` _ _ _ ",
"_ _ ) ] D   .                 0 ' _ ) ] P                   . E ' ) _ _ _ _ ) ] P *         = P ] ) _ _ _ _ _ ` R .                   P ] ) ) ] r   .                 h [ _ _ _ ",
"_ _ _ ] r                     # / ` ) ) ] d                 D ] ) _ _ _ _ _ _ _ ' ' d . . a ] ' _ _ _ _ _ _ _ ) ] l                 d ] ) _ _ _ =                     0 ' ) _ _ ",
"_ _ _ ] q                     X ~ ` _ _ _ ' j X         # G ] _ _ _ _ _ _ _ _ _ ) ] e     q ] ) _ _ _ _ _ _ _ _ ) ] F #         . j ' _ _ _ _ ) #                     , ` _ _ _ ",
"_ _ ) [ t                     # / ` _ _ _ _ ] ~ F i # + e ' ) _ _ _ _ _ _ _ _ _ _ _ =     # ) _ _ _ _ _ _ _ _ _ _ _ ` w + # i F ~ [ _ _ _ _ _ _ -                     q ] ) _ _ ",
"_ _ ) [ G                     e ] _ _ _ _ _ ) _ { E       P ] ) _ _ _ _ _ _ _ _ ` ~ X     . Q ` _ _ _ _ _ ` _ _ ) ] L       E { _ _ _ _ _ _ ) [ i                 .   k [ ) _ _ ",
"_ _ _ _ _ ;   .               Y ' ) _ _ _ _ _ ) ` P       y ] ) _ ` _ _ _ _ _ ) ] P         K ] ) _ _ _ _ _ _ _ ) ] r       P ` ) _ _ _ _ _ _ ` E X                 * / ` ) _ _ ",
"_ _ _ _ ` R +               F ] ) _ _ _ _ _ _ _ ' Y       + / ` _ _ _ _ _ _ _ ) [ l         j [ ) _ _ _ _ _ _ _ ` ~ O       U ] _ _ _ _ _ _ _ _ ] J .             O Y ' ) ` _ _ ",
"_ _ _ _ _ ' ~ q .     . * a ' _ _ _ _ _ _ _ _ _ ] P     .   G ] ) _ _ _ _ _ _ ) [ t         e [ ) _ _ ` _ _ _ ) [ F         P ] ) _ _ _ _ _ _ _ _ ' d : .       q E ] ) _ _ _ _ ",
"_ _ _ _ _ ) ` ] Q L P G @   F [ ) _ _ ` _ _ _ _ ' P         2 ' ) _ _ _ _ _ _ _ ` ,         ; ` _ _ _ _ _ _ _ _ ` <         P ] _ _ _ _ _ _ _ ) ] G   * K P L Q ] ` _ _ _ _ _ _ ",
"_ _ ` _ _ _ _ _ ` ` { R     # / ` _ _ _ _ _ _ ) ] P           R ' _ _ _ _ _ _ ` / O         X ~ ` _ _ _ _ _ _ ` R           P ] ) _ _ _ _ _ _ ` / #     E { ] ` _ ) _ _ _ _ _ _ ",
"_ _ _ _ _ _ _ _ _ ) _ ~ X     a [ ) _ _ _ _ _ _ ] L           h [ ) _ _ _ _ ) ' Y             P ] ) _ _ _ _ ) [ f           L ] _ _ _ _ _ _ ) [ d     O ~ _ ) _ _ _ _ _ _ _ _ _ ",
"_ _ _ _ ` _ _ _ _ _ _ _ *     . T ' ) _ _ _ _ ) ] L           = _ _ _ _ _ _ ) [ G             D [ ) _ _ _ _ _ _ *           L ] _ _ _ _ _ _ ` R .     = _ _ _ _ _ _ _ _ _ _ _ ` ",
"_ _ _ _ _ _ _ _ _ _ ) ' <   .   2 ' _ _ _ _ _ _ ] K             P ] ) _ _ _ ) [ a             y [ ) _ _ _ ) ] L             K ] ) _ _ _ _ ) ] 0       2 ' _ _ _ _ _ _ _ _ _ _ _ ",
"_ _ _ _ _ _ _ _ _ _ _ [ t         H [ ) _ _ _ ) ] K             t ] ) _ _ _ _ ' 2             , ` ) _ _ _ ) ] r             K ] _ _ _ _ ) [ J         y [ ) _ _ _ ` _ _ _ _ _ _ ",
"_ _ _ _ _ _ _ _ _ _ ) [ h         # ( _ _ _ _ _ ] J             + ~ ` _ _ _ _ ) #             + / ` _ _ _ ` ~ O             J ] ) _ _ _ _ ) =         h [ ) _ _ _ _ _ _ _ _ _ _ ",
"_ _ _ _ _ _ _ _ _ _ ) ] G           f [ ) _ _ ) ] J               F [ ) _ _ ` E .               Y ' _ _ ) ] D               J ] ) _ _ ) [ f           H ] ) _ _ _ _ _ _ _ _ _ _ ",
"_ _ _ _ _ _ _ _ _ _ ) ] Y           . E ' _ _ ) ] J               < ' _ _ ) [ J                 G [ ) _ _ ` <               J ] ) _ _ ' E .           Y ] ) _ _ _ _ ` _ _ _ _ _ ",
"_ _ _ _ _ ` _ _ _ _ _ ` Q .           q ] ) _ _ [ G                 R ' _ ) [ h                 d [ ) _ ' R                 G [ _ _ ) ] w           . Q ` _ ` _ _ _ _ _ _ _ _ _ ",
"_ _ _ _ _ _ _ _ _ _ _ _ / #             J ] ) ) [ G                 f [ ) ) ] q                 1 ] ) ) [ f                 G [ ) ) ] K             # ) _ _ _ _ _ _ _ _ _ _ _ _ ",
"_ _ _ ` _ _ _ _ _ _ _ _ ` ,             * _ _ _ [ G                 * ) _ _ _ =                 # ) _ _ _ *                 G ] ) ` ) =             , ` _ _ _ _ _ _ _ _ _ _ _ ` ",
"_ _ _ _ _ _ _ _ _ _ _ _ ] e               h [ / [ F                   L ] _ ~ X                   E ` ' L               .   F [ / [ h               w ] ) _ _ _ _ _ _ _ _ _ _ _ ",
"_ _ _ _ _ _ _ _ _ _ _ ) [ d   .           X E ` ] F                   e ' ` P                     J ] ' e                   F ] _ Q X               d [ ) _ _ _ _ ` _ _ _ _ _ _ ",
"_ _ _ _ ` _ _ _ _ _ _ ) [ D                 e ' ] D   .               X ~ { j                     g { Q X                   D ] ' e             .   D [ ) _ _ _ _ _ _ _ _ _ _ _ ",
"_ _ _ _ _ _ _ _ _ _ _ ) ] P                   K } l                     l } r                     q { D                     D { K                   L ] _ _ _ _ _ _ _ _ _ _ _ _ ",
"_ _ ` _ _ _ _ _ _ _ _ _ ` R                   - [ D                     < [ :                     = ' <                     D [ -                   R ` _ _ _ _ _ _ _ _ _ _ _ _ ",
"_ _ _ _ _ _ _ _ _ _ _ _ ` / +                   F G                       P #                     O L                       G F                   O / ` _ _ _ _ _ _ _ _ _ _ _ _ ",
"_ _ _ _ _ _ _ _ _ ` _ _ _ _ -                   # d                       < .                     . ,                       d *                   = _ _ _ _ _ _ _ _ _ _ _ _ _ _ ",
"_ _ _ _ _ _ _ ` _ _ _ _ ) [ 0                     X                                                                         X                     2 ] ) _ _ _ _ _ _ _ _ _ _ _ _ ",
"_ _ _ _ _ _ _ _ _ _ _ _ ) [ i                                                                                                                     i [ ) _ _ _ _ _ _ _ _ _ _ ` _ ",
"_ ` _ _ _ _ _ _ _ _ _ _ ) [ l   .                                                                                                                 j [ ) ` _ _ _ _ _ _ _ _ _ _ _ ",
"_ _ _ _ _ _ _ _ _ _ _ _ ) [ J                                                                                                                     J [ ) _ _ _ _ ` _ _ _ _ _ _ _ ",
"_ _ _ _ _ _ _ _ _ _ _ _ _ ` R                                                                                                                     Y ' ) _ _ _ _ _ _ _ _ _ _ _ _ ",
"_ _ _ _ _ _ _ _ _ _ _ _ _ ` ~ X                               .   .                                         .   .                               . ~ ` _ _ _ _ _ _ _ _ _ _ _ ` _ ",
"_ _ _ _ _ _ _ _ _ _ _ _ _ _ _ *                   .                           . o o o $ $ o o o .                           .                   # ) _ _ _ _ _ _ _ _ _ _ _ _ _ _ ",
"_ _ _ _ _ _ _ _ ` _ _ _ _ ) ' 2           .             $ 4 z M S X.+.$.*.=.>.1.2.2.4.4.4.4.2.2.,.>.=.&.$.+. .Z n u 3 o             .           < ' ) _ _ _ _ _ ` _ _ _ _ _ _ _ ",
"_ _ _ _ _ _ _ _ _ _ _ _ _ _ ] l               4 b | $.:.4.8.8.8.8.8.8.8.8.8.8.8.8.8.8.8.8.8.8.8.8.8.8.8.8.8.8.8.8.8.7.4.-.@.S x &               j ] _ _ _ _ ` _ _ _ _ _ _ _ _ _ ",
"_ _ _ _ _ _ ` _ _ ` _ _ _ _ _ _ ;     . v o.>.7.8.8.8.8.8.8.8.8.8.7.7.8.7.8.8.7.7.8.7.8.7.8.8.7.7.8.8.7.7.8.7.8.8.8.8.8.8.8.8.8.6.:.X.x .     ; _ _ _ _ _ _ _ _ _ _ _ _ _ _ _ _ ",
"_ _ _ _ _ _ _ _ _ _ _ _ _ _ ) [ K       &.8.8.8.8.7.8.7.7.8.8.8.8.8.8.8.8.8.8.8.8.8.8.8.8.8.8.8.8.8.8.8.8.8.8.8.8.8.8.7.8.7.7.8.8.8.8.,.o     K ] ) _ _ _ _ _ _ _ _ _ _ _ _ _ _ ",
"` _ _ _ _ _ _ _ _ _ _ _ _ _ _ ) ] q     9 8.8.7.8.8.8.8.8.8.8.8.8.7.6.4.1.>.>.=.=.*.*.*.&.&.*.=.=.>.,.1.4.6.7.8.8.8.8.8.8.8.8.8.8.7.8.n     q ] ) _ _ _ _ _ _ _ _ _ _ _ _ _ _ _ ",
"_ _ _ _ _ _ _ _ _ _ _ _ ` _ _ ) ` R .     +.8.8.8.4.=.#. .V v z 7 3 % o o .                           o o % 3 4 z v V  .@.=.4.8.7.8.*.    . E ' ) _ _ _ _ _ _ _ _ _ _ _ _ _ _ _ ",
"_ _ ` _ _ _ _ _ _ _ _ _ _ _ _ _ ) [ s     4 #.N 7 $                           .   . . . . . . .   .                         $ 8 V $.z     d [ ) _ _ ` _ _ _ _ _ _ _ _ _ _ _ _ _ ",
"_ _ _ _ _ _ _ _ _ _ _ _ _ _ _ _ _ ` / O               . . o .                                                       o . o               O / _ _ _ _ _ _ _ _ _ _ _ ` _ _ _ _ _ _ ",
"_ _ _ _ _ _ _ _ _ _ _ _ ` _ _ _ _ ) ' 2   .   o .             . $ & 7 p c n N Z S ! | | | | | S Z V M b z 8 3 % .               o   .   2 ] ) _ _ _ _ _ _ _ _ _ _ _ _ _ ` _ _ _ ",
"_ _ _ _ _ _ _ ` _ _ _ _ _ _ _ _ _ ) [ a           . 4 c S +.$.>.4.7.8.8.8.8.8.8.8.8.8.8.8.8.8.8.8.8.8.8.8.8.8.6.<.=.#.| n 8 o           a [ _ _ _ _ _ _ _ _ _ ` _ _ _ _ _ _ _ _ ",
"_ _ _ _ _ _ _ _ _ _ ` _ _ _ _ _ _ ) [ F     o Z $.<.8.8.8.8.8.8.8.8.8.8.8.8.8.7.8.7.7.8.7.8.7.7.8.7.7.8.8.8.8.8.8.8.8.8.8.8.4.&.| $     F [ ) _ _ _ _ ` _ _ _ _ _ _ ` _ _ _ _ _ ",
"_ _ _ _ _ _ _ _ _ _ _ _ _ _ _ _ _ _ ' Y     % 6.8.8.8.8.7.8.8.7.8.7.8.8.8.8.8.8.8.8.8.8.8.8.8.8.8.8.8.8.8.8.7.8.7.7.7.8.8.8.8.8.8.3     Y ' ) _ _ _ _ _ _ _ _ _ _ _ _ _ _ _ _ _ ",
"_ _ _ _ _ _ _ _ _ _ _ _ _ _ _ _ _ ) ` ~ X     :.8.6.8.8.8.8.8.8.8.8.8.8.8.7.6.6.4.2.2.1.1.2.2.4.5.6.7.8.8.8.8.8.8.8.8.8.8.8.7.8.>.o   X ~ ` _ _ _ _ _ _ _ _ _ _ _ _ _ _ _ _ _ _ ",
"` _ _ _ _ _ _ _ _ _ _ _ _ _ _ _ _ _ _ ` :     $.8.8.8.8.6.>.$.o.S M c 9 5 3 % % $ o o o o o o $ $ % 3 4 8 x b Z ..#.=.4.8.8.7.8.&.    ; _ _ _ _ _ _ _ _ _ _ _ _ _ _ _ _ _ _ _ _ ",
"_ _ _ _ _ _ _ _ _ _ _ _ ` _ _ _ _ _ ) ] <      .>. .n 8 $                                                             o 4 v | =. .    1 ] ) _ _ _ _ _ ` _ _ _ _ _ _ _ ` _ _ _ _ ",
"_ _ _ _ _ _ ` _ _ _ _ _ _ _ _ _ _ _ ` / +     o                                                                     .           .     @ ( ` _ _ _ _ _ _ _ _ _ _ _ _ _ _ ` _ _ _ ",
"_ _ _ _ _ _ _ _ _ _ _ _ _ _ _ _ _ ) ' P                       . $ 3 6 z x b M V Z Z S S S S Z Z V M b x u 7 3 $ .                       P ] ) _ _ _ _ _ _ _ _ _ _ _ _ _ _ _ _ _ ",
"_ _ _ _ _ _ _ _ _ ` _ _ _ _ _ _ _ ) [ h           & z N  .#.=.,.4.8.8.8.8.8.8.8.8.8.8.8.8.8.8.8.8.8.8.8.8.8.8.4.1.=.#...V z > .         f [ ) _ _ _ _ _ _ _ _ _ _ _ ` _ _ _ _ _ ",
"_ _ _ _ _ _ _ _ _ _ _ _ _ _ _ _ _ _ ' <     o O.>.6.8.8.8.8.8.8.8.8.8.8.8.7.8.8.7.8.8.7.7.8.7.8.8.7.8.8.8.8.8.8.8.8.8.8.8.8.7.>.@.%     < ' ) _ _ _ _ _ _ _ _ _ _ _ _ _ _ _ _ _ ",
"_ _ _ _ _ _ _ _ _ _ _ _ _ _ _ ` _ ` ~ X     z 8.8.8.8.7.8.7.7.8.7.8.8.8.8.8.8.8.8.8.8.8.8.8.8.8.8.8.8.8.8.8.8.7.8.7.7.8.8.8.8.8.8.b     X ~ ` _ ` _ _ _ _ _ _ _ _ _ _ _ _ _ _ _ ",
"_ _ _ ` _ _ _ _ _ _ _ _ _ _ _ _ ) ] L   .   | 8.7.7.8.8.8.8.8.8.8.8.8.8.8.8.8.8.8.7.7.7.7.7.7.8.8.8.8.8.8.8.8.8.8.8.8.8.8.7.7.7.8...  .   J [ ) _ _ _ _ _ _ _ _ _ _ _ _ _ _ _ _ ",
"_ _ _ _ _ _ _ _ _ _ _ _ _ _ _ _ ) [ d       &.8.8.8.8.8.6.,.*.@...S M v z 8 7 4 3 3 > & & & 3 3 4 7 9 x n V | o.$.:.3.8.8.8.8.8.8.=.      i [ ) _ _ _ _ _ _ _ _ _ _ ` _ _ _ _ _ ",
"_ _ _ _ _ ` _ _ _ _ _ _ _ _ _ _ _ ` :     3 7.6.=.X.M 9 & .                                                         o 3 x C o.=.6.8.3     : ` _ _ _ _ _ _ _ _ ` _ _ _ _ _ _ _ _ ",
"_ _ ` _ _ _ _ _ _ _ _ _ _ _ _ _ ` W .     3 b %                   . .                                 .   .   .                 % v 3     . E ` _ _ _ _ _ _ _ _ _ _ _ _ _ _ _ _ ",
"_ _ _ _ _ _ _ _ _ _ _ _ _ _ _ ) ] L     .         .                                                                       .           .     G ] _ _ _ _ _ _ _ _ _ _ _ _ _ _ _ _ ",
"_ _ _ _ ` _ _ _ ` _ _ _ _ _ _ _ _ _ D #                                                                                       .         . a / _ _ _ _ _ _ _ _ _ _ _ _ _ _ _ _ _ ",
"_ _ _ _ _ _ _ _ _ _ _ _ _ _ _ _ _ _ ] ( G q O               .                                                     .               X < j ~ [ ` _ _ _ _ _ _ _ _ _ _ _ _ _ _ _ _ ` ",
"_ _ _ _ _ _ _ _ _ _ _ _ _ _ ` _ _ _ ) _ [ ] / P j q * X                                                                 . # 0 f J ~ ` [ ` ) _ _ _ _ _ _ _ _ _ _ ` _ _ _ _ _ _ _ ",
"_ _ _ _ _ _ _ _ _ _ _ _ _ _ _ _ _ _ _ _ ) ) _ ] [ ] _ ~ Y G g i q , * + X .                         . . + * : 2 t f F I W ) ' [ ] ` _ ) ) _ _ _ _ _ _ _ _ ` _ _ _ _ _ _ _ _ _ _ ",
"_ _ _ ` _ _ _ _ _ _ _ _ _ _ _ _ _ _ _ _ _ _ _ _ ) _ _ ` ' [ [ [ ] ` _ / ~ Q E T Y U P P P P U Y T R Q ~ / ) ` ] [ [ [ ' ` _ _ _ ) _ _ _ _ _ _ _ _ _ _ _ _ _ _ _ _ _ _ _ _ _ _ _ ",
"_ _ _ _ _ _ _ _ _ _ _ _ _ _ _ _ _ _ _ _ _ _ _ _ _ _ _ _ _ ) ) ) ) _ _ ` ` ` ` ' ' ' ' ] ] ] ' ' ' ` ` ` ` _ _ ) ) ) ) _ _ _ _ _ _ _ ` _ _ _ _ _ _ _ _ _ _ _ _ _ _ _ _ _ _ _ _ _ ",
"_ _ _ _ _ _ _ _ _ _ _ _ _ ` _ _ _ _ _ _ _ _ _ _ _ _ _ _ _ _ _ _ _ _ _ _ _ _ _ ) _ ) ) _ _ ) ) _ ) _ ) _ _ _ _ _ _ _ _ _ _ _ _ _ _ _ _ _ _ _ _ _ _ _ _ _ _ _ _ _ _ _ _ _ _ _ _ _ ",
"_ _ _ _ _ _ _ _ _ _ _ _ _ _ _ _ ` _ _ _ _ _ _ _ _ _ _ _ _ _ _ _ _ _ _ _ _ _ _ _ _ _ _ _ _ _ _ _ _ _ _ _ _ _ ` _ _ _ _ _ _ _ _ _ _ _ _ _ _ _ _ _ _ _ _ _ _ ` _ _ _ _ _ _ _ _ _ _ ",
"_ _ _ _ _ _ _ _ _ _ _ ` _ _ _ _ _ _ _ _ _ _ _ _ _ _ _ _ _ _ _ _ _ _ _ _ _ _ _ _ _ _ _ _ _ _ _ _ _ _ _ _ _ _ _ _ _ _ _ _ _ _ _ _ _ _ _ _ _ _ _ _ _ _ _ _ _ _ _ _ _ _ _ _ _ _ ` _ ",
"_ _ _ _ _ _ ` _ _ _ _ _ _ _ _ _ _ _ _ _ _ _ _ _ _ _ _ _ _ _ _ _ ` _ _ _ _ _ _ _ _ _ _ _ _ _ _ _ _ _ _ _ _ _ _ _ _ _ _ _ _ _ _ _ _ _ _ _ _ _ _ ` _ _ _ ` _ _ _ _ _ _ _ _ _ _ _ _ ",
"_ ` _ _ _ _ _ _ _ _ _ _ _ _ _ _ _ _ _ _ _ ` _ _ _ _ _ _ _ ` _ _ _ _ _ _ _ _ _ _ _ _ _ _ ` _ _ _ _ _ _ _ _ _ _ _ _ _ _ ` _ _ _ _ _ _ _ _ _ _ _ _ _ _ _ _ ` _ _ _ _ _ _ _ _ _ _ _ ",
"_ _ _ _ _ _ _ _ _ _ _ _ ` _ _ _ _ _ _ _ _ _ _ _ _ _ _ _ _ _ _ _ _ _ _ _ _ _ ` _ _ _ _ _ _ _ _ _ _ _ _ _ _ _ _ _ _ _ _ _ _ _ _ _ ` _ _ _ _ _ _ _ _ _ _ _ _ _ _ _ _ ` _ _ _ _ _ _ "
};
