/* XPM */
static char *qdl__[] = {
/* columns rows colors chars-per-pixel */
"20 20 212 2",
"   c #000400020000",
".  c #0068008F0080",
"X  c #006500930088",
"o  c #01D7015F00CE",
"O  c #0353027A0175",
"+  c #020302340279",
"@  c #024E026A0296",
"#  c #03CA02A5015F",
"$  c #04C904930451",
"%  c #0570050D0497",
"&  c #0B53086F04F7",
"*  c #0B6509280676",
"=  c #0C5F0936056C",
"-  c #0B8D09490691",
";  c #0D860A1205ED",
":  c #0FCC0BC406ED",
">  c #12150D7707ED",
",  c #135C0E6B087C",
"<  c #177511780A48",
"1  c #1A2313770B75",
"2  c #1B6E146D0C06",
"3  c #1B9E14910C1B",
"4  c #1E7716B00D5A",
"5  c #1C331AED1967",
"6  c #1DD61C8F1B07",
"7  c #223917D20C57",
"8  c #20A5184F0E4F",
"9  c #249C199C0D6D",
"0  c #29D61F281256",
"q  c #2B22201F12E8",
"w  c #2C7B2120137F",
"e  c #2CAB21431394",
"r  c #2E4C227A144C",
"t  c #2ED522E11488",
"y  c #2F95236F14DB",
"u  c #2FD923A214F9",
"i  c #331326091663",
"p  c #33BD268816AE",
"a  c #35582A311CD1",
"s  c #29122CD53158",
"d  c #2CF930C03548",
"f  c #42AB325A1ED1",
"g  c #47B535661F6E",
"h  c #452834331FE6",
"j  c #48A536191FD7",
"k  c #497536B72037",
"l  c #4A243736207F",
"z  c #4AA8379C20BC",
"x  c #4BD7387A213E",
"c  c #52AE3D92243D",
"v  c #52823DBB24CC",
"b  c #528D3DC024C9",
"n  c #55753FA42575",
"m  c #5AA444D72AAE",
"M  c #5DCF45DC291E",
"N  c #5E2F46232948",
"B  c #5C6146772C2A",
"V  c #42D7413C3F4E",
"C  c #600B47862A18",
"Z  c #64844ADA2C0E",
"A  c #68964DE22DD7",
"S  c #69F84EE82E6E",
"D  c #6B674FF52F08",
"F  c #6DC550CD2E0F",
"G  c #6E4551502E95",
"H  c #76D3587D3415",
"J  c #7BD85A4E315D",
"K  c #7C7D5B003217",
"L  c #7850599834BC",
"P  c #796C5B2E36AB",
"I  c #7FC65FF93995",
"U  c #3F05428946C2",
"Y  c #3F4C42D54716",
"T  c #3FE83FDC3FCE",
"R  c #41564149413A",
"E  c #47B3460D4415",
"W  c #53CE52C9518F",
"Q  c #56B555AD5470",
"!  c #5EB25E8B5E5B",
"~  c #5FBE5F965F67",
"^  c #678867606730",
"/  c #6992696A6939",
"(  c #732872BB7238",
")  c #73AD734372C4",
"_  c #76E576BD768E",
"`  c #783177DB7772",
"'  c #78887801775F",
"]  c #7B287B0C7AEA",
"[  c #7B557B387B15",
"{  c #7DF37DC67D90",
"}  c #7E447E177DE0",
"|  c #8F706AD13EDE",
" . c #91FC6CB63FFC",
".. c #984E716B42C1",
"X. c #98BA71BC42F1",
"o. c #A8397D4549BB",
"O. c #AB877FBC4B2F",
"+. c #800A7FA37F29",
"@. c #AD2680F04BE4",
"#. c #ADB8815C4C23",
"$. c #AEB6821B4C93",
"%. c #AF52828F4CD8",
"&. c #B67484C34923",
"*. c #B70B855649B0",
"=. c #B37485A44EA8",
"-. c #B43F863A4F00",
";. c #B6AE880A5011",
":. c #B7F289F652C7",
">. c #B8118A0D52D5",
",. c #BCDA8CA352C6",
"<. c #BEAF8E005394",
"1. c #C0198F0D5432",
"2. c #BE768ED955B7",
"3. c #BED68F1F55DE",
"4. c #81DD80797ECE",
"5. c #82B981527FA3",
"6. c #C15E8FFF54C1",
"7. c #C17D901754CE",
"8. c #C43D92225603",
"9. c #C4B092785635",
"0. c #C633939956DF",
"q. c #C68593D55703",
"w. c #CB28974A590B",
"e. c #CB7D97895930",
"r. c #CBDC98DE5BAC",
"t. c #CC87984F59A5",
"y. c #CD9A991B5A1D",
"u. c #CC8A995F5BF7",
"i. c #D2459C965C29",
"p. c #D2589CA35C32",
"a. c #D9F2A24D5F86",
"s. c #DCDDA47960CE",
"d. c #DEBFA6E463DD",
"f. c #DFCDA7B46463",
"g. c #E25CA8916337",
"h. c #E81BACDB65C2",
"j. c #EB6BAE9B65A2",
"k. c #E873AD2065EF",
"l. c #E8E5AD74661F",
"z. c #E9EFAE206660",
"x. c #EA1AAE55669B",
"c. c #EAA9AEB766CB",
"v. c #EAF9AEFB66FD",
"b. c #EB46AF3A672D",
"n. c #EBE0AFA76763",
"m. c #EC6CAF67662D",
"M. c #EC74B01567A3",
"N. c #EC48B02467F9",
"B. c #ECCDB05B67D3",
"V. c #ED0EB0976808",
"C. c #EDC6B1116837",
"Z. c #EDFDB13A684F",
"A. c #EEE9B1E968B6",
"S. c #EF5BB23E68E9",
"D. c #EFC3B28C6916",
"F. c #F07DB3176968",
"G. c #F0B7B3426981",
"H. c #F190B3E369E0",
"J. c #F0DAB38569EC",
"K. c #F1DBB41B6A01",
"L. c #F1E2B4486A5D",
"P. c #F2A4B4B16A5A",
"I. c #F368B5426AAF",
"U. c #F396B5656AC4",
"Y. c #F4FCB66F6B60",
"T. c #F58AB6D96B9F",
"R. c #F7D9B8916CA1",
"E. c #F720B8B56DCF",
"W. c #F8B3B9336D01",
"Q. c #FA3BBA286D45",
"!. c #FA56BA3F6D57",
"~. c #FC66BB966DCF",
"^. c #FBD9BB8C6E62",
"/. c #FC9EBBFB6E6C",
"(. c #FCD8BC546EE8",
"). c #FDD8BD346FA2",
"_. c #FDE2BD446FB9",
"`. c #FDF6BDA3705D",
"'. c #FFC3BE767019",
"]. c #FFFFC0DA7182",
"[. c #FFFFC19071ED",
"{. c #FFFFC418736A",
"}. c #FFFFC49473B3",
"|. c #7E9A82B287A9",
" X c #812380BB803D",
".X c #80A884C289BC",
"XX c #8B5D8B368B06",
"oX c #8BAE8B878B58",
"OX c #8D2A8CE28C8D",
"+X c #8F328F338F35",
"@X c #9174914D911D",
"#X c #925F9248922D",
"$X c #9B489B0C9AC4",
"%X c #9B709B359AEE",
"&X c #9CEE9CC79C97",
"*X c #9E8F9E679E38",
"=X c #A139A10EA0DB",
"-X c #A821A801A7DA",
";X c #A373A85AAE3C",
":X c #AD39AD0EACDB",
">X c #AD61AD35AD01",
",X c #A6BBAB79B129",
"<X c #B14CB1A8B216",
"1X c #B4EAB53CB59E",
"2X c #B756B731B704",
"3X c #B7DBB7B7B78A",
"4X c #C484C366C20B",
"5X c #C69CC57EC423",
"6X c #C5F5C59EC536",
"7X c #C7A9C754C6EE",
"8X c #DED0DEF5DF21",
"9X c #DF5ADF7CDFA5",
/* pixels */
"n.n.n.n.n.n.n.n.n.^.^.n.n.M.Z.n.n.n.n.n.",
"n.n.n.h.U.h.n.Z.Z.X.X.Z.Z.B.h.U.h.n.n.n.",
"Z.U.n.^.0.2 i Z.$.    $.B.i 1 8._.n.U.Z.",
"H.D : ,.X.    0.y.= = t.0.    X.2., S Z.",
"s.1   C Y.x l Z._.H H ].Z.l l Y.Z   < a.",
"U. .4 o.}.0.q n._.m c '.n.0 0.}.@.4 | U.",
"n.}.@.g ].<.  $.].e 0 ].$.  <.].l @.].h.",
"h.Z.w.  =.p.  N U.: = H.N   p.=.  t.D.n.",
"N.Z.g.= r 8.  4 ;.    -.4   8.y = g.Z.n.",
"N.N.Z.r   c -   g % % f   = c   r Z.B.n.",
"n.n.E.l                         l E.h.n.",
"n.h.'.G   6 R ~ ) [ [ ) ! R 6   S ^.h.n.",
"n.n.T.&.R 9X6X2X:X-X-X:X2X6X8XE &.T.n.n.",
"n.n.h.^.B s Q ^ _ } } ` / Q d B ^.h.N.n.",
"n.n.h.'.K |.6X&X@XoXoX@X&X4X.XK '.h.n.n.",
"n.N.h.`.G R  XOX%X=X=X%XOX4.Y G _.h.n.n.",
"n.n.N.n.a ;X<X@X+.` `  X@X2X,Xa n.n.n.n.",
"n.n.n.n.P 9                 8 H n.n.n.n.",
"n.n.n.N.^.U.g.u.2.:.:.2.t.f.U.^.n.n.n.n.",
"n.n.n.n.h.N.Z.Y.T.^.E.T.T.Z.N.h.n.n.n.n."
};
