/* XPM */
static char *qdl__[] = {
/* columns rows colors chars-per-pixel */
"27 27 92 1",
"  c #00B000940074",
". c #08DC06A90404",
"X c #0B8F08690493",
"o c #0E190DF30DCB",
"O c #10260A590362",
"+ c #12720DEC0881",
"@ c #14EE101C0A6C",
"# c #1C3A14ED0C60",
"$ c #14DA14791405",
"% c #17A516ED1610",
"& c #139715981800",
"* c #15A2179F1A01",
"= c #19D819E919FD",
"- c #214218F70EB2",
"; c #25CC1C3110B9",
": c #298B1EF01235",
"> c #2D8A21EB1408",
", c #31CF251715D5",
"< c #2FE92536185F",
"1 c #34C42865198D",
"2 c #3BA92C6E1A26",
"3 c #230722D822A0",
"4 c #2816270625BE",
"5 c #226726E42C46",
"6 c #2D032C9A2C1D",
"7 c #30BD2FA02E4A",
"8 c #347D34553424",
"9 c #3E183D9C3D08",
"0 c #416A30B71CAC",
"q c #4D24397221D0",
"w c #51DC3CF623E1",
"e c #575541092647",
"r c #5931426B2718",
"t c #5E14464B29B9",
"y c #40F13FCB3E6B",
"u c #64244AB92C38",
"i c #68354E2F2EF5",
"p c #7AA758882F98",
"a c #6F84530B30E0",
"s c #773F58FC34AC",
"d c #7C365B923466",
"f c #7F8E5EFD37E8",
"g c #4EEB4EA64E53",
"h c #571E567B55B9",
"j c #57E157B2577A",
"k c #530C562D59F0",
"l c #5B155A975A00",
"z c #5BA45EB9626E",
"x c #7C9A7CAE7CC5",
"c c #803B5F7E3834",
"v c #870F64933B32",
"b c #8AF9677E3CE9",
"n c #8E966A2D3E7E",
"m c #8F456B9D40D3",
"M c #93E86E5F4152",
"N c #9CC3750744E1",
"B c #A1A3785E46D8",
"V c #A6177BB248CA",
"C c #AA487ECE4AA2",
"Z c #AE3E82224D2C",
"A c #B47D86C64FEB",
"S c #B6CB881F501E",
"D c #BCDA8CA252C6",
"F c #C0A58F765470",
"G c #C55092685551",
"H c #CD2698C559EA",
"J c #D3CD9E1B5D59",
"K c #D7B5A0A25E8B",
"L c #D9FAA25B5F96",
"P c #DABFA31C6058",
"I c #E783AC87658C",
"U c #EB61AF476728",
"Y c #ECB6B04767C0",
"T c #EE03B13C685A",
"R c #F3EFB5A96AF0",
"E c #F78CB8586C80",
"W c #FB77BB4D6E3D",
"Q c #FF79BEA770C9",
"! c #FFFFC3EF7352",
"~ c #86E586BF8691",
"^ c #8A7F8A588A2A",
"/ c #9E509DAF9CEC",
"( c #A3E1A3BDA391",
") c #AC5AAC35AC09",
"_ c #BD43BCF5BC98",
"` c #C081C05FC036",
"' c #C551C523C4ED",
"] c #CA24C9F5C9BD",
"[ c #D58DD7C5DA6F",
"{ c #DBA5DC4BDD12",
"} c #EDB3ED39ECA5",
"| c #FF55FF4FFF48",
/* pixels */
"UYUYUUUUUUUUUYUUUUIUUUUUUUU",
"UUUUUUUERUUTRIRUUURRUUUUUUU",
"UUUUIURSDRUYuXuYURDSRUUUUUU",
"URRRRWs  b!C   C!b  fRRRRRU",
"TJ0>SW>  2QD   DQ0  >ED,0JR",
"Wu  ;Ws  nRRNXNRRb  sW>  rW",
"Wu  ,URN-UURJXJRYI-NRR1  uW",
"TPt#NWTP BWRV VREN LUWN-rLT",
"UU!N;RRH qRWf dWEq HRR>N!YU",
"UURF n!G XJQw qWHX G!n FRIY",
"UURJ.+IH  vW; ;Wb  HI+.JTYU",
"UUUU- aL  1LX XL1  Ja -ITUU",
"UUUR2 XnX Xf   f. XMX 2RUUY",
"UYIWr  %.  @. .+. .#  eWIUU",
"UUIWs .             . s!UUY",
"UUUWN   o49gjljg94o   MEIYU",
"YUUTPOx}|||||||||||}xXLTUUU",
"UYUI!dk/g83&$$%&38g/zdWUUYY",
"UYUURL.=j~(_']'_)^l3XLRUYUU",
"YUYUUU,[|{')(/()_{|{,UUUUUY",
"UUUUUU;*$$>688865&&*;UUUUYU",
"UUUUEF$'||||||||||}]%GRUUYY",
"UUYUWp5_xh9644479kN'5pQIYUU",
"UUUURZ>             ;VRUUUY",
"YUYUURRJAMsitttismZHTEUUYYU",
"UYYUUUUREWQWWWQWQWEEUUUYUUY",
"YUUYUUUUIIIIIIIIIIUUUUYUYUU"
};
