/* XPM */
static char *qdl__[] = {
/* columns rows colors chars-per-pixel */
"23 23 255 2",
"   c #000600050004",
".  c #00D800A1005F",
"X  c #004C011F021A",
"o  c #032802700198",
"O  c #01B50257031B",
"+  c #054503EC024F",
"@  c #0735055D0328",
"#  c #01CF038E0623",
"$  c #063D05B70514",
"%  c #08F606AC03ED",
"&  c #0B62087A04FD",
"*  c #09B308090609",
"=  c #0A67088D065E",
"-  c #0C4309210560",
";  c #0CAB096F058D",
":  c #0F1C0B4106A0",
">  c #0F830B8D06CC",
",  c #034E054E080C",
"<  c #10F60CA2076F",
"1  c #110D0D5508EA",
"2  c #12160E180964",
"3  c #14460F34091F",
"4  c #15260F700894",
"5  c #15BD0FC708A0",
"6  c #15F9106309AF",
"7  c #1635109209CF",
"8  c #1BC2145E0B80",
"9  c #1C6A14E70BE4",
"0  c #1E44168A0D44",
"q  c #1EB716DF0D76",
"w  c #1DA816B40E5F",
"e  c #12E5140D1571",
"r  c #13C514FB166F",
"t  c #1BFA175D11D3",
"y  c #1E06195313B1",
"u  c #1144155B1A43",
"i  c #125715DD1A04",
"p  c #128816461AC3",
"a  c #170E18021928",
"s  c #158218EF1CF9",
"d  c #1A571B501C7B",
"f  c #27531C4B0F0F",
"g  c #240D1B060FE8",
"h  c #28B21D6E0FE9",
"j  c #284F1E0711AF",
"k  c #2A9A1FBC12B1",
"l  c #2ACC1FDF12C2",
"z  c #2C3D20F21364",
"x  c #333226201670",
"c  c #3BA92A431562",
"v  c #3DE82C1516B1",
"b  c #372F29181830",
"n  c #37F72A15196C",
"m  c #38642A8319DC",
"M  c #3F332F101BB3",
"N  c #2C8E29972607",
"B  c #2EEB2BF8286E",
"V  c #27E62A9B2DDB",
"C  c #29AA2C5D2F9B",
"Z  c #2F102E9B2E0F",
"A  c #322C31B53126",
"S  c #383A37643663",
"D  c #3A7839A238A1",
"F  c #3D333D053CCE",
"G  c #3E413E143DDD",
"H  c #3FF12F9D1C06",
"J  c #41A130E01CC4",
"K  c #425931681D14",
"L  c #430031E51D5E",
"P  c #43B5326C1DAD",
"I  c #43E732911DC3",
"U  c #448733081E09",
"Y  c #459D33D71E83",
"T  c #46AC34A01EF9",
"R  c #474F351A1F40",
"E  c #5A0E3EB91DED",
"W  c #41A7333721E4",
"Q  c #43D8356E2421",
"!  c #4C9B390C2194",
"~  c #52553D6B2426",
"^  c #53013E2C2498",
"/  c #54313F2B252E",
"(  c #5D0540FB1F55",
")  c #579741862691",
"_  c #6C694CC026C2",
"`  c #6D614DA72794",
"'  c #64804AD72C0D",
"]  c #67974D242D67",
"[  c #6A6A4F222E93",
"{  c #6AC44F652EBA",
"}  c #6BDE50532F47",
"|  c #6C9250DA2F96",
" . c #6E6652363063",
".. c #708153C83151",
"X. c #7276553D322C",
"o. c #7DFB5DD03737",
"O. c #7E9C5E49377E",
"+. c #49C8499C4966",
"@. c #4B154A5C497D",
"#. c #4A494A1C49E5",
"$. c #4C074BDC4BA9",
"%. c #4DAC4CEF4C0D",
"&. c #4E7F4E544E20",
"*. c #47A44B6F5000",
"=. c #48D74C935111",
"-. c #51FA51D0519D",
";. c #522551FB51C8",
":. c #549154745452",
">. c #613F611560E2",
",. c #62CD62A36270",
"<. c #6D8C6D616D2D",
"1. c #6E406E156DE0",
"2. c #71A571727134",
"3. c #77A87AE07EBE",
"4. c #78D678AC7879",
"5. c #7AD37AA87A75",
"6. c #8BD3681F3D49",
"7. c #8CA268BF3DA7",
"8. c #8E996A313E80",
"9. c #8F456AB03ECB",
"0. c #92666D05402B",
"q. c #990371F24311",
"w. c #995F72374339",
"e. c #9A70730143B0",
"r. c #9FD8754D4240",
"t. c #A38D783A443E",
"y. c #A2DF79494763",
"u. c #A8AF7C3E46EA",
"i. c #A7697CAA4960",
"p. c #A8F97DD44A0F",
"a. c #A9DF7E804A74",
"s. c #AA717EED4AB5",
"d. c #AFCA82E84D0C",
"f. c #B15284134DBC",
"g. c #B1E284794DF8",
"h. c #B5D687694FB3",
"j. c #B75E888C505E",
"k. c #B8A2897E50EC",
"l. c #B99F8A3C515D",
"z. c #BC098C08526B",
"x. c #BFE68EE7541B",
"c. c #C39B91AA55BC",
"v. c #C4ED92A65650",
"b. c #C9EA946A5436",
"n. c #C8A3956C57F2",
"m. c #CA8F96DB58CA",
"M. c #CCBB987659BC",
"N. c #CDC4993A5A30",
"B. c #D4EB9E8E5D52",
"V. c #D6229F765DDB",
"C. c #D97FA1FA5F55",
"Z. c #DAD4A2F85FEB",
"A. c #DE35A4FB604F",
"S. c #DE25A56D615D",
"D. c #DEC9A5E861A6",
"F. c #DED8A60C61E4",
"G. c #DF5AA70D6252",
"H. c #DFF5A6D6624B",
"J. c #E0C1A77762B7",
"K. c #E197A7FE62E0",
"L. c #E171A88D6334",
"P. c #E291A8D36389",
"I. c #E3B1A98F63CC",
"U. c #E401A9CA63EF",
"Y. c #E6A1AC0965BA",
"T. c #E740AC35655B",
"R. c #E806ACC965B2",
"E. c #E7FCACE76600",
"W. c #E88CAD2C65ED",
"Q. c #E8DAAD6C661C",
"!. c #EA19AE54669B",
"~. c #EA95AEB066D1",
"^. c #EAD9AEE866FB",
"/. c #EB2EAF3F6752",
"(. c #EBE4AFAA6764",
"). c #EC94B02567A0",
"_. c #ED2DB07867D2",
"`. c #F06BB24F67C8",
"'. c #EDA0B0E16815",
"]. c #EE20B153685E",
"[. c #EEF7B1F468BD",
"{. c #EF4BB23268E2",
"}. c #EF65B24668EE",
"|. c #F018B2D86959",
" X c #F108B2E66856",
".X c #F091B3256970",
"XX c #F0DBB36869AB",
"oX c #F088B35C69F2",
"OX c #F1ADB3F969EE",
"+X c #F22BB4876A40",
"@X c #F2ECB4D96A5C",
"#X c #F365B5406AAE",
"$X c #F3B4B57C6AD1",
"%X c #F3F1B5E26B6A",
"&X c #F4E6B65F6B57",
"*X c #F412B63A6C04",
"=X c #F7AEB8706C8E",
"-X c #F94FB9BA6D6C",
";X c #F9D2B9FF6D79",
":X c #FAABBAAB6DDE",
">X c #F9D8BA6F6E56",
",X c #FAE6BB066E5C",
"<X c #FC27BBC66E85",
"1X c #FCCFBC436ECE",
"2X c #FD7ABD756F82",
"3X c #FE4BBD7F6F89",
"4X c #FF11BDF26FCB",
"5X c #FE42BE2A7140",
"6X c #FE70BE57716D",
"7X c #FFFFBF6570A6",
"8X c #FFFFC00D7109",
"9X c #FFFFBFB07230",
"0X c #FFFFC07F714C",
"qX c #FFFFC3F57356",
"wX c #FFFFC4617395",
"eX c #FFFFC69E74E6",
"rX c #FFFFC6E77511",
"tX c #7E9081C18596",
"yX c #8EA88E8A8E66",
"uX c #919C917B9153",
"iX c #9AE69AC89AA2",
"pX c #9BB79B929B65",
"aX c #9C419C229BFD",
"sX c #AD31AD0EACE4",
"dX c #ADA4AD81AD57",
"fX c #B1B1B15FB0FC",
"gX c #B281B22EB1CA",
"hX c #B872B84AB81A",
"jX c #BB84BB60BB34",
"kX c #BC17BBF2BBC7",
"lX c #BD11BCD7BC92",
"zX c #BD6EBD32BCEA",
"xX c #C077C062C04A",
"cX c #C394C36CC33D",
"vX c #C487C462C434",
"bX c #C59EC57AC54F",
"nX c #C6C8C6A4C678",
"mX c #C9AACC7ACFD9",
"MX c #CCE6CFB4D312",
"NX c #D528D505D4DB",
"BX c #D68FD66BD641",
"VX c #E499E430E3B2",
"CX c #E5BDE529E477",
"ZX c #E6B0E633E59D",
"AX c #E8F6E85FE7AB",
"SX c #EC54EBC3EB14",
"DX c #EDBAED2BEC7E",
"FX c #F1C5F0FDF00E",
"GX c #F351F289F199",
"HX c #F3A5F2F0F217",
"JX c #F649F597F4C0",
"KX c #F9C1F8A3F74B",
"LX c #F9BEF8D6F7BE",
"PX c #FB41FA55F93B",
"IX c #FC2FFB16F9C5",
/* pixels */
"(.(.(.(.(.(.Y.R.(.(.|.<X(.(.(.R.(.(.(.).).(.(.",
"(.(.Y.(.(.@X<X=X(.|.P.d.P.|.(.<X<X.X(.T.T.(.).",
"(..X2X@X.XN.! O.|.(.M . M (.|.o.! N..X&X<X X(.",
".XC.O.l.7XT . . f.(.< . - R.f.. . Q 7Xz.O.C..X",
"@XT . - S.| . > x.2X9.+ 9.2Xc.- . { J.- . K .X",
".Xb . % n.<X{ ~ 2X(.P.g S.|.2X~ { <XN.* . x .X",
"@Xm.~ ~ @X<Xd.- S.<Xl.. h.<XS.- f.<X@X) ~ b..X",
"(.@X7Xl y.qXi.. q.eX9.. 9.eXq.. i.wXy.j qX@X(.",
"(.Y.&XK w 2Xa.. U wX{ . ' qXK . a.2Xw K <XY.).",
"(.R.2X .. q.j.. + V.Q . K V.+ . j.q..  .<XY.(.",
"(.R.<X9.. f 9.. . X.l . j ... . 9.g . 6.<XT.).",
"(.(.=Xa.. . w $ . 6 = X * 2 . $ w . . a.<XY.(.",
"(.R.@Xv.. . . . . . . . . . . . . . . c.@X(.(.",
"(.(.|.S.4 r $.4.iXfXlXxXlXfXiX4.#.e 4 S.|.(.(.",
"(.(.(.7X_ 3.PXbXsXaXuXyXuXiXsXcXLXtX_ 7XY.(.(.",
"(.(.(.|.S.t a Z #.,.1.2.1.,.&.A d y A.|.(.(.(.",
"(.(._.Q..XW MXGXBXbXlXhXkXbXBXFXMXQ |.(.(.(.(.",
"(.(.Q.Q.*Xm C S G #.;.:.;.#.G S V b .X(.(.(.(.",
"(.(.(.+Xb.N CXKXGXDXCXVXCXDXJXPXAXB v.@X(.(.(.",
"(.(.Y.<Xt.i *.i X . . . . . , s =.i t.<XY.(.(.",
"(.(.(.(.(.u.) H j 8 7 4 4 8 f c E t.Y.(.(.(.(.",
"(.(.(.(.Q.<X2X=X|.R.P.J.P.Q. X;X7X<X).(.(.(.(.",
"(.(.(.(.(.Q.R.Q.(.).`.`. X).(.Q.Y.R.(.(.(.(.(."
};
