/* XPM */
static char *qdl__[] = {
/* columns rows colors chars-per-pixel */
"46 46 107 2",
"   c #012E00F200AE",
".  c #082C0687048E",
"X  c #0C8C09380539",
"o  c #033A06660A35",
"O  c #042307AB0BE7",
"+  c #0BCB0BAB0B84",
"@  c #10600BDC0672",
"#  c #121B0D7C07F0",
"$  c #154E111D0BF6",
"%  c #1ACD140A0BE4",
"&  c #1296129A129E",
"*  c #1B3C1B541B70",
"=  c #21A0190B0EBD",
"-  c #26121C5A10B0",
";  c #28FB1E8511F7",
":  c #2C5C2115138D",
">  c #3392266B16A3",
",  c #35AB27F71786",
"<  c #359327FC17AC",
"1  c #3BC42C821A32",
"2  c #24F024B22468",
"3  c #27EF27B52770",
"4  c #2CB52C7C2C38",
"5  c #344F340D33BE",
"6  c #3C193BD53B84",
"7  c #3FCC2F821BF6",
"8  c #446C32EE1DF0",
"9  c #49F536601EE0",
"0  c #495A36A02026",
"q  c #4D8E39902192",
"w  c #51693C7A235D",
"e  c #575D410F264B",
"r  c #5937426F2719",
"t  c #5CC1451228A7",
"y  c #600847842A17",
"u  c #64AA4AF72C1F",
"i  c #693B4E5D2E1F",
"p  c #6C0F50782F5D",
"a  c #6E7452413069",
"s  c #739D5654332F",
"d  c #772258A53410",
"f  c #79D45AB5355C",
"g  c #7F985F0437EC",
"h  c #43FD43B4435B",
"j  c #4C404BE54B78",
"k  c #54EB547B53F3",
"l  c #5881572E5596",
"z  c #5A14594A5858",
"x  c #641363BD6356",
"c  c #68AB6819676C",
"v  c #6BEA6B906B23",
"b  c #7389733772D4",
"n  c #780177B0774E",
"m  c #7C4B7A0D775C",
"M  c #7D397CE47C7F",
"N  c #83F3624939E3",
"B  c #8E4B69F53E5A",
"V  c #93E66E2340D3",
"C  c #9B8273CD4427",
"Z  c #A2A3791D4749",
"A  c #A4E07AC74843",
"S  c #AA627EE14AAE",
"D  c #ACF380CB4BCD",
"F  c #B3B585D34EC4",
"G  c #B36F867F5093",
"H  c #B689885950ED",
"J  c #BD578CFF52FC",
"K  c #C1118FC6549F",
"L  c #C477924E561C",
"P  c #C85A953357D0",
"I  c #C9DA965C5892",
"U  c #CE8F99D25A89",
"Y  c #D4CC9E775D45",
"T  c #D783A07D5E75",
"R  c #DA63A2A15FB8",
"E  c #DE9FA5D961BA",
"W  c #E123A7AA62B2",
"Q  c #E730AC296555",
"!  c #EB8AAF67673D",
"~  c #ECEEB07067D8",
"^  c #EE6EB1936883",
"/  c #F475B60D6B27",
"(  c #F7F3B8A56CAF",
")  c #FB2BBB0F6E1F",
"_  c #FFFFBF7D70B4",
"`  c #FFFFC33072E2",
"'  c #FFFFC91B765E",
"]  c #836A831582B0",
"[  c #9486943193CB",
"{  c #9B6F9B189AB0",
"}  c #A380A32DA2C9",
"|  c #A82DA7FEA7C5",
" . c #AB8BAB38AAD5",
".. c #B0CEB07CB01A",
"X. c #B39FB341B2D0",
"o. c #B8C5B877B819",
"O. c #BCA7BC59BBFB",
"+. c #C158C0A0BFC3",
"@. c #C447C3E2C368",
"#. c #CC78CBF4CB54",
"$. c #D659D5D6D53A",
"%. c #DB64DB03DA8F",
"&. c #E121DFEDDE7A",
"*. c #E581E4E5E42B",
"=. c #EE26EDF5EDBB",
"-. c #F407F3DCF3A8",
";. c #FF8EFF8CFF89",
/* pixels */
"! ! ! ~ ! ~ ! ! ~ ! ! ! ! ~ ! ! ! ! ! ! ! ! ! ! ! ! ! ! ! ! ! ! ! ! ! ! ! ! ! ~ ! ~ ! ! ! ! ",
"! ! ! ! ! ! ! ~ ! ! ~ ! ! ! ! ! ! ! ! ~ ! ! Q Q ! ! ! ! ! ~ ! ~ ! ! ! ! ! ! ! ~ ! ! ~ ! ~ ! ",
"~ ! ~ ~ ~ ! ! ! ~ ! ! ! ! ! ! ! ! ! ! ~ ! / ) ) / ! ! ! ! ! ! ! ! ! ! ! ! ! ~ ! ~ ! ! ! ! ! ",
"! ! ! ! ! ! ! ~ ! ! ! ! / ) / ! ! ! ! ! ( P g d P / ! ! ~ ! ! / ) / ! ! ~ ! ! ! ! ! ! ~ ! ! ",
"! ! ! ! ! ! ! ! ! ! ! / J V F / ^ ! ! / S         S / ! ! ^ / F V J ) ! ! ! ! ! ! ! ! ! ! ! ",
"! ! ! Q ! ^ ! ! ! ! / a       r / ! ! ! :   . .   - ! ! ! ^ e       a / ! ! ! Q ~ ! Q ! ! ! ",
"! ~ ! ( / Q ( ^ Q ) D     .     V ) ! Y X         X Y ! ) V           D ( Q / ( Q / / ! ~ ! ",
"! ! ( Z : % q Y ^ ) d           t ) ! Q =         = Q ! ) y           d ) ^ R w % : C ) ! ! ",
"! ( S         : Q ) B   .       s ) Q ( C         C ( Q ) s       .   B ) ! >         Z ( Q ",
"Q ( q   .       Z ) E :       % Y ^ ! ! / H % % H / ! ! / Y %   .   ; E ) D   .       8 / ! ",
"! / 8   .       C / ^ R p - @ L ) ! ! ! ! / % $ ^ ~ ! ! Q ( K X = p R ~ / Z           1 / ! ",
"Q ) N         X Y / ! ~ ' g   C ) Q ! ! / P     L / ! ! ! ( C   g ' ! ! / Y #     .   d ) ! ",
"! ! ^ y     . C / ! ! Q ) s   8 / ! ! ! ) A     Z ) Q ! ! / 1   s ( Q ! Q ) A .     r ~ ~ ! ",
"! ! ^ / I J ; y ) Q ! Q ) p   . L / ! Q ) d     s ) Q ! / L .   s ) ! ! ! ) u > K P / ~ ! ~ ",
"! ~ ! ! / _ 8   J / ! Q ) p     s ) Q ! ) q     9 ( ! Q ) s     p ) Q ! / J   8 _ / ! ! ! ! ",
"! ! ! ! Q ) u   1 / ! Q ) p     = ! ! ! ! -     = ! ! ! ! =     i ) Q ! / 1   u ) Q ! ! ~ ! ",
"! ~ ! ! Q ) N     B ) W ) i   .   D ( / Y .     . U ^ ( D   .   u ) Q ) V     N ) Q ! ! ! ! ",
"! ! ! ! ! ) Z     % E ! ) y   .   r / / F         S / ( e   .   u ) ! E %     A ) ! ! ! ~ ! ",
"! ~ ! ! ! / J   .   i ) ) y       # Y ) N   .     g _ Y #       y ) ) i       J / ! ! ! ! ! ",
"! ! ! ! ! ^ Y X       J ` t   .     B ' r         w ` B         t ` J       X Y / ! ! ~ ~ ! ",
"~ ! ~ ! ! ! Q =       1 ` r         1 ) >         : ( 1         t ` 1       = Q ! ! ~ ! ! ! ",
"! ! ! ! ! ! / 1         S a         . F %         $ F           i S         1 ( ! ! ! ! ! ~ ",
"! ! ~ ! ! ! ) r         : q           1 X         . 1           9 :         r ) Q ! ! ! ! ! ",
"~ ! ~ ! ~ ! ) d                                                 .           d ) Q ! ! ! ! ~ ",
"! ! ~ ! ! Q ) C                         .   .                               V ) ! ~ ! ~ ~ ! ",
"~ ! ! ! ~ ! ( F             .                                               F ( Q ! ! ! ! ! ",
"! ! ! ! ! ! / U .               & 3 5 h j k l l k j h 5 2 &               . I / ! ! ~ ! ! ! ",
"! ~ ! ~ ! ! ! ~ >   + 4 c [ O.%.=.;.;.;.;.;.;.;.;.;.;.;.-.=.$.o.[ x 3 .   > ~ ! ! ! ! ! ! ~ ",
"~ ! ~ ! ! ! ! ) G   z ;.;.;.;.;.;.;.;.;.;.;.;.;.;.;.;.;.;.;.;.;.;.;.;.c   G ( ! ! ! ! ! ! ~ ",
"! ! ! ! ! ! ! Q _ q   $.=.O.{ M c k h 6 5 4 4 4 4 5 6 j l c M { o.=.*.o q _ Q ! ! ! ~ ! ! ! ",
"! ! ! ! ! ! ! ! / I   * $                                         & *   I / ! ! ~ ! ! ! ! ~ ",
"! ~ ! ! ! ! ! ! ! ^ :     2 k n [  .+.#.$.%.%.%.%.$.#.@. .{ M z 4 .   : ^ ! ! ! ! ! ! ~ ! ! ",
"! ! ! ~ ! ! ! ! ! ) 9   #.;.;.;.;.;.;.;.;.;.;.;.;.;.;.;.;.;.;.;.;.$.O 9 ) Q ! ! ~ ! ! ~ ! ! ",
"~ ! ! ! ~ ! ~ ! ! ) d   %.;.-.%.O. .[ ] n b v v b n ] [ | O.$.=.;.&.  d _ Q ! ! ! ! ! ! ! ~ ",
"! ! ! ~ ! ! ! ! Q ) N   z h +                                 + 6 k   N ) Q ! ! ~ ~ ! ~ ~ ! ",
"! ~ ! ! ! ! ! ! ! / 8       3 j c ] [ }  .X.X.X.X. .} [ ] c j 4       8 ( ! ! ~ ! ! ! ! ! ! ",
"~ ! ! ~ ! ! ! ! ^ E # & @.=.;.;.;.;.;.;.;.;.;.;.;.;.;.;.;.;.;.;.-.@.& X E / ! ! ! ! ! ~ ! ! ",
"! ! ! ! ~ ! ! Q ( H   j ;.;.;.-.*.$.@.o. . . . . .X.O.#.%.=.-.;.;.;.l   G ( Q ! ! ~ ! ! ! ~ ",
"~ ! ~ ~ ! ! ! ! ) s   m X.c h 2 &                         & 3 j v X.m   s ) Q ! ~ ! ! ! ! ~ ",
"! ! ! ! ! ~ ! ! ) r                   X                                 0 ( ! ! ! ! ~ ! ! ! ",
"! ! ! ! ! ~ ! ! ~ Q C 0 %                                         $ 1 B W ^ ! ! ~ ! ~ ! ! ! ",
"! ~ ! ! ! ! ! ~ ! ^ ) ( W L C f t 8 > ; = % % % % = - > 8 r d V J E ) _ ^ ! ! ~ ~ ! ! ! ! ~ ",
"~ ! ! ! ! ~ ! ! ! ! Q ! ~ ( _ _ ) ( / ^ ! Q W Q Q Q ! / ( ) _ ) ( ^ ! Q ! ! ! ! ! ~ ! ~ ~ ! ",
"! ! ^ ! ! ! ~ ! ! ~ ~ ! ! ! Q W ! Q ! ! ! ~ ^ ^ ^ ^ ! ! ! Q Q ! ! ! ! ~ ! ! ! ~ ! ! ! ! ! ! ",
"^ ! ! ! ! ! ! ! ~ ! ~ ! ! ! ! ! ! ! ! ! ! ! ! ! ! ! ! ! ! ~ ! ~ ! ! ! ! ! ! ~ ! ! ~ ! ~ ! ! ",
"! ! ~ ! ~ ! ~ ! ! ! ! ! ! ! ! ! ! ! ~ ! ! ! ! ! ! ! ! ! ! ! ! ! ! ! ~ ! ~ ! ! ! ! ! ! ! ~ ! "
};
