/* XPM */
static char *qdl__[] = {
/* columns rows colors chars-per-pixel */
"43 43 105 2",
"   c #012200E900A9",
".  c #08D805D802E9",
"X  c #0C3E094905C2",
"o  c #0B420B140ADF",
"O  c #10590C2C072A",
"+  c #13540E60086F",
"@  c #1615107209AE",
"#  c #1C7315050C1B",
"$  c #0C1C0EEC124C",
"%  c #129A12F71366",
"&  c #17E917801701",
"*  c #1C051BBB1B64",
"=  c #1FCC16480ADC",
"-  c #20EC18840E6E",
";  c #25D41C2C1095",
":  c #28DC1E6E11E9",
">  c #20651F431DE7",
",  c #2CBF2153139D",
"<  c #32F825F51658",
"1  c #362C280A1714",
"2  c #389E2923168E",
"3  c #36C728CB1803",
"4  c #3BE92C8C1A1C",
"5  c #243523BB2329",
"6  c #2D252CE42C96",
"7  c #343434533478",
"8  c #36E3375737E3",
"9  c #3C1B3BC63B5F",
"0  c #44C233241E01",
"q  c #4C0038992150",
"w  c #53AD3E5324B4",
"e  c #575041052645",
"r  c #587441E226CB",
"t  c #5C5044BE2876",
"y  c #5FE447682A07",
"u  c #63864A1E2BA0",
"i  c #68E64E1E2DFA",
"p  c #6DF551E13031",
"a  c #7434568932EF",
"s  c #7BB75C2E3657",
"d  c #7F475EC837C9",
"f  c #4372433742F1",
"g  c #4C8C4C474BF4",
"h  c #55BE55715515",
"j  c #5ABE5A765A1F",
"k  c #65C36577651B",
"l  c #6BD26B856B29",
"z  c #7184713A70E2",
"x  c #7B467AFA7A9F",
"c  c #8434627639F9",
"v  c #8A5367043CA2",
"b  c #8C8168A23D96",
"n  c #93FC6E3340DC",
"m  c #96DF705A4220",
"M  c #9CDD74ED44FF",
"N  c #A0647771464D",
"B  c #A1A578844729",
"V  c #A5E17BB44917",
"C  c #AA717EED4AB5",
"Z  c #804D7FFB7F98",
"A  c #ADE181D74CF7",
"S  c #B22A84AD4E17",
"D  c #B5A787D55051",
"F  c #B70E8851503B",
"G  c #BC1D8C2C5287",
"H  c #C13E8FE754B3",
"J  c #C53192D8566E",
"K  c #C7E195B4597D",
"L  c #CA3896B858EC",
"P  c #CE5D99AD5A73",
"I  c #D4A59E5A5D34",
"U  c #D788A0805E77",
"Y  c #DA15A2665F95",
"T  c #DCE8A49B610C",
"R  c #E741AC3B6567",
"E  c #EB88AF65673B",
"W  c #ECD5B05D67CD",
"Q  c #EEBEB1C968A4",
"!  c #F3E8B5A46AEC",
"~  c #F7C2B8896CA2",
"^  c #FB0DBAF46E0A",
"/  c #FFFFBF58709E",
"(  c #FFFFC2A57290",
")  c #FFFFC84D75E4",
"_  c #84FE84AE844E",
"`  c #8B1D8AD08A74",
"'  c #90A390548FF4",
"]  c #915A910D90B0",
"[  c #9CBA9C6D9C11",
"{  c #A478A42EA3D6",
"}  c #A9D4A906A810",
"|  c #ACC1AC79AC25",
" . c #B4B2B38CB22A",
".. c #B9A7B8E3B7F8",
"X. c #BD15BCB0BC37",
"o. c #C233C1EEC19B",
"O. c #CD6DCD2CCCDE",
"+. c #D59BD561D51C",
"@. c #DDAFDD47DCC9",
"#. c #E13FE078DF89",
"$. c #E46BE423E3CC",
"%. c #ECE5ECB9EC83",
"&. c #F083F05DF031",
"*. c #F413F3F3F3CD",
"=. c #FFD5FFD5FFD4",
/* pixels */
"E E W E E E E W E E W W E E E E W W E E E E E E E E E E E E E E E E E E E E E W E E E ",
"E E E E W E E E E E E E E W E E E E E E E E R E E E E E E E E W E E Q E E E E W E W E ",
"W W E W E E W E E E E E R E E E E E E Q ^ ! ^ Q E E E E E R E R E E E E E E W E E W W ",
"E E E E W E W E E E E ^ ^ ^ Q E E E ! T i 4 i T ! E E E ! ^ ^ ^ E E E E W E E E E E E ",
"E E E E E R E E E Q Q b q i I ! E E E <       < R Q R ! I i q b Q E E E E E R E W E E ",
"E E E ! ^ ^ W E E ! t       - T Q ~ V   .   .   V ~ W T #       u ! E E Q ^ ^ Q R Q E ",
"E E ! T m M R Q ! L .   . .   c ~ ! N   .   .   m ~ ~ c   . .   . L ! ! R M n T ! E E ",
"E ! K @     - P ^ G           a ^ E T @       + Y W ^ a           F ^ I ;     + J ! E ",
"R ! 0   . .   w ^ R ,         F ! R ! G ,   < F ! R ! F         , R ^ t   . .   4 ! E ",
"E E -         < Q ! L < . . n ~ E Q R / A   C ( R W E ~ n . . < L ! ! 2         # R E ",
"E ! 0   .     r ^ R ! ^ b   F ~ E E R ^ s   a ^ R E E ! S   b / Q R ^ t   .     0 ! E ",
"E ! L #     ; I Q E R ^ n   r ^ R E E ! w   q ~ E E R ^ w   n ^ R E Q T ,     @ J ! E ",
"E E ! T C s - Y ! E R ^ b   + U ! E E E :   ; E W E ! I +   v ^ R E Q T : s V T ! E E ",
"E E E E / I   r ^ R E ^ v     b ^ R Q I .   . P ! R ^ v     v ^ E R ^ t   I ( W R E E ",
"E E W E E Y +   S ^ R ^ c     2 ! R ~ S       A ! E ! 2     v ^ R ! S   + T W E E E E ",
"E E E E E E ,   3 Q R ^ c       G ! ^ c   .   d ~ ! G       c ^ R ! 2   , W E E E E E ",
"W E W E E ! 0     b ^ ~ c   .   p ^ ! t   .   w ! ^ p   .   c ! ^ b     0 ! E E E E E ",
"E E E E E ^ y     + I ( s       - R ! <       , Q R #   .   s / I @     u ^ R E E E E ",
"E W E W R ^ c   .   t ) s   .     C E X       . R C         s ) t   .   c ^ E E E E E ",
"E E E E R ^ N         L c         r L           J t         v L         M ^ E E E E E ",
"W E W E R ! G         q s         # s           a #     .   s q         G ! R W W E E ",
"E E W E W Q U X       . ;           +           o           - .       . I Q W W W E W ",
"W E E E W W R ;                                                       & R Q R W E W E ",
"E E W E W R ! 2           .                                 .         3 ! W W W E E E ",
"E W E W E R ^ r                   o % & * 5 * & % o                   w / R R W W R W ",
"E E E E E E ^ v     . 6 j _ { o.+.$.%.*.*.*.*.*.%.$.+.X.{ x h 6 .     c / R W W W W W ",
"E E W W E E E R # % @.=.=.=.=.=.=.=.=.=.=.=.=.=.=.=.=.=.=.=.=.=.#.* @ R W R W W W W W ",
"W E E E E E E ^ V   } =.O.| ] x k j g f f f f f g h k x ' | O.=...  B / R W W W R W W ",
"E E E E E E E E ! 2 $ *                                       * $ 3 ! W W W W R W W W ",
"W E W E E E E R ^ s   . 6 j _ { ..O.+.@.$.$.$.@.@.O.X.{ ` k 7 o   s / R R W W W W W R ",
"E E E E E E E E ^ M    .=.=.=.=.=.=.=.=.=.=.=.=.=.=.=.=.=.=.=.X.  M / R W W W W W W W ",
"E W E E E E E E ! K   { =.O.| ` z j g f 9 9 9 9 g j l _ { O.=.}   J ! R W W W W R W W ",
"E E E W E W E E ! F   & o               . .                 o &   G ! R W W R W W W W ",
"W E E E E W E R ^ c   * g x { ..O.@.$.%.&.&.&.%.%.@.O...[ x g ,   d / R W W W W W R W ",
"E E W E E E W E ~ 0   @.=.=.=.=.=.=.=.=.=.=.=.=.=.=.=.=.=.=.=.$.  4 ~ R W W W R W W R ",
"W E W E E E E Q T . 7 =.$...[ x k h f f 9 8 9 9 g h l _ { o.$.=.8 . T Q R W W W W W W ",
"E E E W E E E ! A   5 9 o                                   o 9 5   V ^ R W W W W W R ",
"E W E W E W E Q Y i O                       .                   o r I Q W W W W W W W ",
"E E W E E E W E Q ^ R D c r 3 # + .               . o # < w s S T / Q W W W W R R W W ",
"W E E E E W E E E E Q ~ ^ ^ ! E T P J G G F G G J P Y R ! ^ ^ ^ ! R R W R W W W W W W ",
"W E E E E W E E E E E E R E E E Q ! ! ! ~ ! ! ! ! ! Q E E E R E W W W W W W W W W W R ",
"E E W W E E E E E E E E E E E E E E E R E E E E E E E E E E E E W R W W W R W W W R W ",
"E E E E W E E E E E E E E E E E E E E E E E E E E E E E E E W E W R R W W W W W W W W "
};
