/* XPM */
static char *qdl__[] = {
/* columns rows colors chars-per-pixel */
"42 42 109 2",
"   c #0147010D00CB",
".  c #0863063F03AD",
"X  c #0ACB089205E6",
"o  c #0055044C090E",
"O  c #0549093C0DFA",
"+  c #08E008C1089E",
"@  c #10090BF00707",
"#  c #12930E9909D3",
"$  c #194C10C90691",
"%  c #1642109309C1",
"&  c #1BE714A30BEC",
"*  c #12A0126C122E",
"=  c #1C7B1C481C0A",
"-  c #202F17F70E1B",
";  c #25681BED1071",
":  c #28AC1E4E11DC",
">  c #2D0A21A213CC",
",  c #328825A61630",
"<  c #359427E6177C",
"1  c #3B30299A1480",
"2  c #364C287817E0",
"3  c #3C012CB91A63",
"4  c #1DF21FA421AE",
"5  c #22E5234623BB",
"6  c #2CE72C5B2BB4",
"7  c #30722FE52F3C",
"8  c #2D6B30203360",
"9  c #33AD33703325",
"0  c #3E643E263DDB",
"q  c #43B132681DAB",
"w  c #498D36C5203C",
"e  c #4C9C390D2194",
"r  c #52EC3DC02458",
"t  c #56FB40C62620",
"y  c #5950424726A2",
"u  c #5D3045862920",
"i  c #6263494B2B24",
"p  c #6B8D50172F24",
"a  c #6EC95280308E",
"s  c #71F454DC31F2",
"d  c #7A8A5B4135B5",
"f  c #42CE428F4243",
"g  c #4BCE4B214A51",
"h  c #553654375305",
"j  c #5D685D2D5CE6",
"k  c #643763E46381",
"l  c #6DA66D556CF3",
"z  c #736C732372CB",
"x  c #789C784F77F1",
"c  c #7AF97AAB7A4D",
"v  c #847C628239BB",
"b  c #8AD6678A3D2F",
"n  c #8CF368F63DC7",
"m  c #90DC6BE03F7E",
"M  c #8FB16BE540F0",
"N  c #93856DD4409A",
"B  c #975B70B64257",
"V  c #9BA573E84438",
"C  c #A0AA77A5466B",
"Z  c #A27E79144763",
"A  c #A52C7B2748BA",
"S  c #AA347EBF4A9A",
"D  c #B014831F4D2D",
"F  c #B369859A4EA2",
"G  c #BB348B76522B",
"H  c #C10F8FC4549E",
"J  c #C59A934056D4",
"K  c #C70495305965",
"L  c #CA2396875898",
"P  c #CE1899795A54",
"I  c #D4599E225D13",
"U  c #D7B3A0A05E8A",
"Y  c #DA84A2BA5FC7",
"T  c #DD41A4C460FA",
"R  c #E15BA7D262C6",
"E  c #E6E0ABEE6531",
"W  c #EB83AF62673A",
"Q  c #ECD0B05967CC",
"!  c #EF4DB23368E1",
"~  c #F40BB5BC6AF6",
"^  c #F800B8B06CB4",
"/  c #FB26BB156E2A",
"(  c #FFEFBED47051",
")  c #FFFFC31C72D6",
"_  c #84E384998440",
"`  c #8C768C2A8BD0",
"'  c #954894FA949D",
"]  c #983C97F29799",
"[  c #9D359CE79C89",
"{  c #A0A0A058A002",
"}  c #A426A3E5A396",
"|  c #AEA0AE27AD95",
" . c #B06BB023AFCC",
".. c #B082B039AFE1",
"X. c #B885B7C0B6D3",
"o. c #BBFEBBB9BB67",
"O. c #C313C2DCC299",
"+. c #C8C5C888C83E",
"@. c #CA48CA08C9BB",
"#. c #D6DCD6A2D65C",
"$. c #DC28DBF1DBB0",
"%. c #E3F0E3C1E388",
"&. c #E8E9E7CEE67A",
"*. c #E9B1E8F2E80D",
"=. c #ECC8EC3DEB96",
"-. c #F086F05EF02D",
";. c #F0C8F09DF06A",
":. c #F491F472F44D",
">. c #FFCFFFCBFFC6",
/* pixels */
"W W W W W W Q W W W W W W W W W W W Q W W W W W W W W W Q W Q W Q W W W W Q W W W W ",
"W W Q W Q W Q W W W W W W W W W W W W W W W E W W W W W W W Q W W W Q W W W Q W Q W ",
"Q Q W W W Q W W W W W W W W W W W W W ^ ^ ~ ^ W W W W W E E W W W W W W Q Q W W W W ",
"W W W Q W W W Q W W ~ ^ ^ ^ Q W W W ^ B < < B ^ W W W Q ^ ^ ^ ~ W W W W W W W Q Q Q ",
"W W W W W W W W W ~ P t < s E Q E ^ B         N ^ E ~ E s 2 y I ~ W W W E W W W W W ",
"W W W ^ / / ! E ~ T -       e ~ E ^ 3   . .   3 ^ E ~ e       & T ~ E ! / ^ ^ E W Q ",
"W W ^ G s d T ! ^ B   .       L ~ ~ q         3 ~ ~ J       .   B ^ ~ T v a G ^ W W ",
"E ^ Z       & I / m   .       J ! ^ B         V ^ Q J       .   N / U -       B ^ W ",
"W Q >   . .   a / U &   .   q ~ W W ^ Z % % C ^ W W ~ q       & U ( d   .     : W W ",
"Q E &     .   y ^ ~ L r X , E ! W W W / > : ^ W W W ! E > @ r L ~ ^ i   .     % T ~ ",
"W ^ r         B ^ E ! ) e . T ~ W E Q U X . U ~ E W Q Y . e ) ~ E ^ V         e ^ W ",
"W ~ T q X   y ^ W W E ^ e   n ^ E W ^ G     F ^ W E / n   e ~ E Q W ^ i . . q Y ! W ",
"W W ! ~ R b X I ~ E E ^ w   3 ~ W E ^ m     b / E W ~ 2   w ^ W W ~ I X m E ~ ! W W ",
"W W W E / G   y ^ E E ^ q     H ~ E / i     u ^ E ^ G     q ^ E W ^ u   G ^ E W W W ",
"W W W W ~ P .   F ^ E ^ q     a ^ E ^ 3     < ~ E ^ p     q ^ E ^ F   . P ~ W W W W ",
"W W W W Q R %   < ! W ^ q     & E ~ R %     # T ~ E &     3 ^ E ! ,   & R Q W W W W ",
"W W W W W ~ >     n ^ ~ 3   .   Z ) H         G ) Z       q ~ ^ b     , ! W W W W Q ",
"Q Q W Q E ^ e     # I ^ 2       e ) B         N ) w   .   2 ^ I #     w ^ W W W W W ",
"W W W W E / p   .   u ) 2       . E d   .     s E .       < ) i   .   p ^ W W W Q W ",
"W Q W W W / b         J q         N t         r N         q H         b / W W W W W ",
"W W W Q E ^ S         3 <         > ;         & >         2 3         A ^ E W Q W Q ",
"Q W W W W ~ J                                                         J ^ W W W W W ",
"Q W Q W W ! T @               .   .         .   .     .             X T ! W Q W W W ",
"W W Q W W W W :     .                                         .     : W W W W W Q W ",
"W Q Q W W W ^ q         * 6 g k c ` ] [ } } [ ' ` x k g 6 O         q ^ E Q W Q Q W ",
"W W W W W W ^ Z   6 ] @.:.>.>.>.>.>.>.>.>.>.>.>.>.>.>.>.>.=.O.' 6   Z ^ E Q W W W W ",
"W W Q Q Q W W ^ 1 5 >.>.>.-.$.@.o...} } [ [ } } | o.@.$.;.>.>.>.8 1 ^ W Q W Q Q W Q ",
"Q W W W W W E ^ H   h k 5 +                             + 5 k j   J ^ W Q W W W W W ",
"Q W W W W W Q W ^ 2       = 0 j z _ ` ' ] ] ] ' _ z j f 5       3 ^ W W W W W Q Q Q ",
"W W Q Q Q W W E ^ y o | %.>.>.>.>.>.>.>.>.>.>.>.>.>.>.>.>.&.X.O y ( E W W Q W W W W ",
"W W W W W W W E ( v   *.>.:.$.+...] ` ` _ _ _ ` ] | O.$.:.>.=.  v / E W Q W Q W W W ",
"W Q Q W W W W W ( N   h 9 +                             o 7 h   N ^ W W Q W W W Q W ",
"W W Q W Q W W E ^ y     : g l _ [ ..o.O.O.O.O.o.| [ ` l g 5     t ^ W W W Q W Q W W ",
"Q W Q W W W W ! W & = *.>.>.>.>.>.>.>.>.>.>.>.>.>.>.>.>.>.>.=.5 $ W Q W W Q W W W Q ",
"Q W W W W W W ^ K   k >.:.#.X.[ _ c l k k k k l c ` } o.$.:.>.l   K ^ E W W Q W W W ",
"W W Q W W W E ^ v   g h = o                             . = h g   v ^ E Q W W W Q W ",
"W Q Q W W Q W ~ F ,               . o . . . . . . o             ; S ~ W W W Q W W W ",
"W W W W W W W W ^ ~ J m u 2 & +                     + & < y M G ! ^ W Q W W W W W Q ",
"Q W Q Q W W Q Q W W ~ ^ ^ ~ E I J G D D A A S D G J I R ~ ^ / ~ W E Q W W W Q Q Q W ",
"W W W W Q W W W W W W W W W W ~ ~ ^ ^ ^ ^ ^ ^ ^ ^ ~ ~ W W E W W W W Q W W W W W Q W ",
"Q W W W W Q W Q W W W W W W W W W E W E W E W W W W W W W Q W Q Q W W W W Q W Q W W ",
"W W Q Q W W W W W W W W W W W W W W W W W W W W W W W Q W W W W W W Q Q W W W W W Q "
};
