/* XPM */
static char *qdl__[] = {
/* columns rows colors chars-per-pixel */
"48 48 114 2",
"   c #011300DE009F",
".  c #082B0610041C",
"X  c #0D4E09FB05FF",
"o  c #0D310D270D1B",
"O  c #10900C3006F1",
"+  c #12E20E5508E0",
"@  c #15D310BB0AA0",
"#  c #1BEA14C10C2E",
"$  c #0F0F1121139E",
"%  c #14DD149D1451",
"&  c #1886177E1641",
"*  c #15F818141A9B",
"=  c #1BCD1B3F1A96",
"-  c #1FB717440D20",
";  c #223B193C0E7F",
":  c #28231C400DFB",
">  c #25B71C161088",
",  c #28DB1E5B11DD",
"<  c #1FCC1F961F56",
"1  c #2C56212B13C4",
"2  c #321F25901659",
"3  c #369D2931183E",
"4  c #3BF22CA61A47",
"5  c #212820EB20A2",
"6  c #2C062BC42B75",
"7  c #328832543216",
"8  c #3CF03CAA3C5C",
"9  c #3FD12F861BF8",
"0  c #42BC31B21D40",
"q  c #4A00371C206F",
"w  c #4C6C38E9217F",
"e  c #528A3D78242D",
"r  c #566F40832635",
"t  c #597742A02737",
"y  c #5C9B4534291F",
"u  c #413540683F72",
"i  c #64954B112C72",
"p  c #6A224F092E84",
"a  c #6BAA50652F52",
"s  c #6E0351EC3038",
"d  c #72355557323B",
"f  c #779E5913346D",
"g  c #7B575BD9360F",
"h  c #7F1A5EB037CA",
"j  c #432843144301",
"k  c #4B8C4B3C4ADB",
"l  c #503050014FC7",
"z  c #544D53FB5399",
"x  c #5893583C57D4",
"c  c #5C1F5BCA5B64",
"v  c #639B634562DD",
"b  c #69C868D767B5",
"n  c #6DF76D856CFE",
"m  c #72FA72AF7253",
"M  c #780077A87740",
"N  c #7C037B487A67",
"B  c #806F5FAA3858",
"V  c #835961D03992",
"C  c #8BAE68733E2D",
"Z  c #90896BA23F59",
"A  c #93466DBD40B2",
"S  c #97EB71214296",
"D  c #9C6074784495",
"F  c #A2EE7955476A",
"G  c #A5387B3248C4",
"H  c #A9687E274A40",
"J  c #801C7FBF7F4D",
"K  c #AE6681DF4C70",
"L  c #B342857D4E92",
"P  c #B4C086E04FD4",
"I  c #B79F88BD507B",
"U  c #BBBB8BD35256",
"Y  c #C0BB8F865479",
"T  c #C476924E561C",
"R  c #C870954257D7",
"E  c #CA8196CD58C2",
"W  c #CE7B9A055B12",
"Q  c #D56B9EEE5D8A",
"!  c #D7DBA0BE5E9C",
"~  c #D96CA1E95F4C",
"^  c #DD6FA4EB611A",
"/  c #E105A79262A0",
"(  c #E6B0ABD1652B",
")  c #EB92AF6D6740",
"_  c #ECBAB04967C2",
"`  c #EEBCB1CA68A8",
"'  c #F3F8B5B76AF4",
"]  c #F7DDB8946CA4",
"[  c #FB59BB396E32",
"{  c #FFFFBF8C70BD",
"}  c #FFFFC30F72CF",
"|  c #84F38499842C",
" . c #882E87CD8759",
".. c #8C3D8BE58B7A",
"X. c #90C1904C8FBF",
"o. c #96A7960E9556",
"O. c #9893983D97D5",
"+. c #9DD09D4F9CB5",
"@. c #A6B7A61BA55F",
"#. c #AA6CAA17A9B1",
"$. c #B36DB319B2B3",
"%. c #BB38BAE6BA84",
"&. c #C08DBFD3BEF3",
"*. c #C5E3C57BC4FE",
"=. c #CEF8CEAECE56",
"-. c #D0BDD073D01A",
";. c #D5DAD594D53E",
":. c #DC1ADBBDDB4D",
">. c #E179E0CDDFFF",
",. c #E574E538E4F1",
"<. c #E894E85AE814",
"1. c #ECDAECA4EC64",
"2. c #F5C2F597F562",
"3. c #FF39FF33FF2D",
/* pixels */
") ) _ ) ) ) ) _ ) ) ) ) ) ) ) ) ) ) ) ) ) ) ) ) ) ) ) ) ) ) ) _ ) ) ) ) _ ) ) ) _ ) _ ) ) ) _ _ ",
") ) ) ) ) _ ) ) ) ) ) ) ) _ ) ) ) ) ) _ ) ) ) ) ( ) ) ) ) _ ) ) ) ) ) ) _ ) _ ) ) ) _ ) _ ) ) ) ",
"_ ) _ _ ) ) _ ) ) ) ) ) ) ) ) ) _ ) ) ) ) ) ` [ [ ` ) ) ) ) ) _ ) ) ) ) ) ) ) ) _ ) ) ) ) ) _ ) ",
") ) ) ) _ _ ) ) ) ) ) ) ) ' ' ) ) _ ) _ ) ' ^ D D ^ ' ) ) ) ) ) _ ' ' ) ) ) ) _ ) ) ) _ _ ) ) ) ",
") ) ) ) ) ) ) ) ) ) ) ' ' E Y ) ' ) ) ) ' I O     + I ] ) ) ) ' ) Y E ' ` ) ) ) ) _ ) ) ) ) ) ) ",
") ) ) ) ) ( ( ) ) ) _ / q     > Y ' ) _ ( >   .     ; ( _ ) ' U ;     q / ` ) ) ) ) ( ) ) ) ) ) ",
"_ _ ) _ [ [ [ ` ) ) ] r         # / _ ' Y             I ' ) / #         r ] ) ) ) [ [ [ ` ( ) ) ",
") ) ' ( V t h / ' ` ~ O       .   G [ ` E             T ' [ G   .       O ~ _ ' ( B t B ( ' ) ) ",
") ` ( 2       > ~ ' Q O           F [ ( ' w     .   0 ' ) [ F           O ! ' / 1       1 / _ ) ",
"( [ V   .   .   d [ ' e         # ^ _ ) ' / e . . e / _ ) _ ~ #         w ' [ f   .   .   f [ ( ",
"( [ e   .       0 ' ) ^ 0     # I ' ( ) ) _ ] ; - ' ' ) ) ) ' I #     0 ^ _ ] w           q ] ) ",
"( [ d   .       i [ ( ` ' T # 3 ' ) ) ) ) ' W .   W ' ) ) _ ) ' 2 # T ' ' ( [ p   .   .   p ] ( ",
") ' Q @       @ T ' ( ) ) _ #   L ] ) ) ( ] K     H [ ( ) ( ] L   # ` _ ) ) ' W #       + W ' ) ",
") ( ' W t 4 - a [ ( ) ) ` / #   i [ ( ) ) [ V     h [ ( ) ) [ y   # / ` ) ) ( [ d > 4 e E ' ) ) ",
") ) ) ' ' } d   Y ' ) ) ` / #   # ^ ` ) ( [ t     e [ ) ) ' ~ +   # / _ ) ( ' T   f } ] ' ) _ ) ",
") ) ) ) ( [ Z   0 ' ) ) ` / @     S [ ( ) ' 1     , _ ) ( [ A     @ / _ ) ) ' 0   Z [ ( ) _ ) _ ",
") _ _ ) ) ' K     S [ ) ` / +     0 ' ) ' ~ O     X ~ ' ( ' 0     + ^ ' ( [ S     K [ ( ) ) ) ) ",
") ) ) ) ) ' E     # ^ _ _ ^ +       R ' ' U         L ' ' T       + ^ ` _ / #     E ' ) _ ) _ ) ",
"_ ) _ ) ) _ / +     a [ ) ^ +       f [ [ Z         C [ [ f       O ^ ) [ s     + ^ ` ) _ ) ) ) ",
") ) ) ) ) ) _ 1       T [ ~ X       > ( [ i         y [ ( ,       X ~ [ T       1 _ ) ) ) ) _ ) ",
"_ _ ) ) ) ( ] 0   .   0 ] Q X         K [ 4         3 [ K         X Q [ 0   .   0 [ ) ) ) ) ) ) ",
") ) ) _ ) ) [ i         F ( .     .   y ' @         O _ y         . ( F         i [ ) ) ) ) ) ) ",
") _ ) ) ) ( [ V         > Q X         # L .           L #         X W >         V [ ) ) ) ) ) ) ",
") ) ) _ ) ) [ G           t @           0             4           # t           F [ ( ) ) ) ) ) ",
"_ ) _ ) ) ) ' Y                                                                 U ' ) _ ) _ _ ) ",
") ) ) ) _ ) ' ~ X                       .                                     . Q ' ) ) ) ) ) ) ",
"_ _ ) ) ) ) ) ( >           .                                     .           > ) ) ) ) _ ) _ ) ",
") ) ) _ ) ) ) ' 4                   o * 5 6 6 7 7 6 6 < % o                   3 ' ) ) _ ) ) ) ) ",
") ) ) ) ) ) ) [ d       5 k M +.%.;.,.1.2.3.3.3.3.3.3.2.1.,.;.%.O.M k &       p [ ( ) ) ) ) _ _ ",
") ) ) ) ) ) ) ' ~ + . &.3.3.3.3.3.3.3.3.3.3.3.3.3.3.3.3.3.3.3.3.3.3.3.2.*.o O ^ ` ) ) ) ) _ ) ) ",
") ) ) ) ) ) ) ( [ C   X.3.3.<.=.%.@.O. .N M m m m m M N  .o.@.%.=.<.3.3.@.  C [ ) _ ) ) ) ) ) ) ",
") ) ) ) ) ) ) ) _ _ ; $ b 7 $                                     o 7 n * : _ ) ) ) _ ) _ ) ) ) ",
"_ _ ) ) _ ) ) ) ) [ h         o 6 j x n N  ...o..... .K n c k 6 %         h { ( _ _ ) ) ) ) _ ) ",
") ) ) _ ) ) _ ) ) [ G   8 +.*.,.3.3.3.3.3.3.3.3.3.3.2.2.3.3.3.3.1.=.@.j   G ] ) _ ) _ ) _ ) _ ) ",
") _ ) ) ) _ ) ) ) ' E   b 3.3.3.3.3.3.1.,.:.:.;.;.:.>.,.1.3.3.3.3.3.3.M   W ' ( ) _ ) ) _ ) ) ) ",
") ) ) _ ) ) _ _ ) ) ( . 8 ,.@.M x 7 = o .             o o = 7 k m +.:.u   ( ` ) ) ) ) _ ) ) _ ) ",
"_ ) _ ) ) _ ) ) ( ' R               . % = 6 6 7 7 6 6 = % .               E ' ) ) _ ) _ ) ) ) _ ",
") ) ) ) ) ) _ ) ( { A   & z | #.*.:.,.2.2.3.3.3.3.3.3.2.2.<.:.*.#. .x =   Z { ( ) ) ) ) _ ) ) ) ",
"_ _ ) ) _ ) _ ) ( { t   O.3.3.3.3.3.3.3.3.3.3.3.3.3.3.3.3.3.3.3.3.3.3.+.  r [ ( _ ) _ ) ) ) _ ) ",
") ) ) _ ) ) ) ) _ ( #   :.3.1.=.$.o.| n v x z l l z x b m  .+.%.;.1.3.,.  # ( ` ) ) ) ) _ ) _ ) ",
") ) ) ) ) ) ) ) ] I   = N w *                                     & j M &   P ] ( _ _ ) ) ) ) _ ",
") ` ) ) ) ) ) ) ' T &           . . . . . . . . . . . . . . . .           + P ] ( _ ) ) ) _ ) ) ",
") ) ) ) ) ) ) ` _ ' _ F i 2 o                                     o 1 y D / ' ) _ _ _ _ ) ) _ ) ",
") ) ) ) ) ) ) ) _ ( _ ] { ` ~ U D V a e w q 4 4 4 4 q w t a h S L Q ` [ [ ` ( _ _ _ ) ) _ _ ) ) ",
") ) ) ) ` ) ) ) ) ) ) ) ( ) ` ] { ] { { ] ] ] ' ' ' ] ] { { ] { ] ' ) ( ( _ _ ) _ ) _ ) ) ) ) ) ",
") ` ) ) ) ) ) ) ) ) ) ) ) ) ) ( ( ( ( ( ) ( ) ( _ ) ) ) ( ) ( ( ) ) ) ) ) ) ) ) ) ) ) ) ) _ ) _ ",
") ) ) ) ) ) ) ` ) ) ) ) ) ) ) ) ) _ ) ) _ _ ) ) ) ) _ ) ) ) ) ) ) ) ) ) ) _ ) ) ) _ ) _ ) ) ) _ ",
") ) ` ) ) ) ) ) ) ) ) ) ) ) ) ) ) ) _ _ ) _ ) _ ) _ ) ) ) ` ) ) ) ) ) ) ) _ ) _ ) ) ) _ ) _ ) ) "
};
