/* XPM */
static char *qdl__[] = {
/* columns rows colors chars-per-pixel */
"52 52 111 2",
"   c #010900D6009A",
".  c #0835064303EF",
"X  c #0C510944059B",
"o  c #0CC70C660BF1",
"O  c #12870E6C0976",
"+  c #161C107C09B4",
"@  c #1CEF156C0C70",
"#  c #137E1359132D",
"$  c #1827174C1646",
"%  c #17E817B0176D",
"&  c #1D061CA31C2C",
"*  c #1FE0176A0D66",
"=  c #223719800F02",
"-  c #258F1BED1070",
";  c #28741E081187",
":  c #20AF1F4E1DA7",
">  c #2CE6216F13AE",
",  c #32DB25D61636",
"<  c #35A527F31783",
"1  c #3BB22C751A2A",
"2  c #2545251024D0",
"3  c #2CE82CA02C48",
"4  c #301C2FD52F7F",
"5  c #33D033C133B3",
"6  c #383837EA378C",
"7  c #3C5B3C073BA2",
"8  c #43F7329D1DCA",
"9  c #47E8358C1F84",
"0  c #451D3468205B",
"q  c #49C836F22057",
"w  c #4CE5394321B4",
"e  c #51CD3CEA23DA",
"r  c #572240E32630",
"t  c #59ED42F7276A",
"y  c #5D8C45A92900",
"u  c #601F47942A22",
"i  c #65904BA22C84",
"p  c #6A554F2F2E9B",
"a  c #6E6E523B3063",
"s  c #732955CF3295",
"d  c #761157EC33C0",
"f  c #7D3A5D4636EF",
"g  c #44B8446343FD",
"h  c #4A5C491B479B",
"j  c #4FBE4F6A4F04",
"k  c #560C5542544E",
"l  c #59465842570C",
"z  c #5BB95B565ADE",
"x  c #642C63C26343",
"c  c #6B776AC469ED",
"v  c #7696763675C2",
"b  c #77F977997726",
"n  c #7D167C8B7BE3",
"m  c #804A5F89383B",
"M  c #844A62883A06",
"N  c #8DC269903E22",
"B  c #94416E6740FB",
"V  c #96C7709D42D2",
"C  c #9C4F748144BD",
"Z  c #A10F77F04697",
"A  c #A1E8789246F7",
"S  c #A6417BCE48DE",
"D  c #A9B77E6E4A7C",
"F  c #AC9880A54BE7",
"G  c #B19984404DD7",
"H  c #B64987BE4FE5",
"J  c #B79088B25075",
"K  c #BB9C8C1452C0",
"L  c #C56A936656C8",
"P  c #C853952E57CD",
"I  c #CA6596FE58DF",
"U  c #CECC99FF5AA3",
"Y  c #D3A59D9C5CC3",
"T  c #D7C9A0B15E94",
"R  c #D924A1B25F2B",
"E  c #DD01A4C16129",
"W  c #E10CA79662A4",
"Q  c #E718AC19654D",
"!  c #EB95AF6F6741",
"~  c #ECB0B04267BE",
"^  c #EEA6B1BD689D",
"/  c #F3D4B5936ADF",
"(  c #F7E6B8B46CB6",
")  c #FB3EBB196E1F",
"_  c #859E853F84CD",
"`  c #89A98878870B",
"'  c #955C950994A6",
"]  c #987C981997A1",
"[  c #9CBD9C609BF0",
"{  c #A549A4EAA479",
"}  c #A863A804A794",
"|  c #AA62AA06A997",
" . c #B586B52CB4BF",
".. c #B8C8B870B805",
"X. c #BD0ABCB0BC44",
"o. c #C07DC024BFBA",
"O. c #C0B8C05DBFF1",
"+. c #C49DC441C3D4",
"@. c #C86DC817C7B0",
"#. c #CC95CC2DCBB0",
"$. c #D069D00BCF9B",
"%. c #D0C8D071D008",
"&. c #D3B7D368D30A",
"*. c #DDD3DD5ADCC8",
"=. c #E0ECE0A4E04E",
"-. c #E695E65AE614",
";. c #EB32EAEBEA95",
":. c #F0D0F095F04D",
">. c #F506F4D3F495",
",. c #F8BEF868F800",
"<. c #FF58FF55FF50",
/* pixels */
"! ! ~ ! ! ! ! ~ ~ ! ! ! ~ ! ! ! ! ! ! ! ! ! ! ! ! ! ! ! ! ! ~ ! ! ! ! ! ! ~ ! ! ! ! ! ! ! ! ! ! ~ ! ! ! ",
"! ! ! ! ! ~ ! ! ! ! ~ ! ! ! ! ! ! ! ! ! ! ! ! ! ! ! ! ! ! ! ~ ! ! ! ! ~ ! ! ! ! ! ! ! ! ~ ! ~ ! ~ ! ~ ! ",
"~ ! ~ ~ ! ! ~ ! ~ ! ! ! ~ ! ! ! ! ! ! ! ! ! ! ! ! / ^ ! ! ! ! ! ! ! ! ! ! ! ! ! ! ! ! ! ~ ! ! ! ! ~ ! ! ",
"! ! ! ! ~ ! ~ ! ! ! ! ! ! ! ! ! ! ! ! ! ! ! ! / / T T / / ! ~ ! ! ! ! ! ! ! ! ! ~ ! ~ ! ! ! ~ ! ! ! ! ~ ",
"! ! ! ! ! ! ! ~ ! ! ! ! ! / ( / ( / ! ! ! ! / Y 8 X X 8 Y / ! ! ~ ! / ) / ( ( ! ! ~ ! ! ! ! ! ! ! ~ ~ ! ",
"! ! ! ! ! ! ! ! ! ! ! ! ( G w 1 i R / ! ! ~ Q >         ; Q ! ! ! / Y i 1 w G / ! ! ! ! ! ! ! ! ! ! ! ! ",
"! ! ! ! Q / ^ ! ! ! ! ( C         @ T / Q ( Z         .   C ( ! / Y @         C ( ! ! ! ! ^ ^ ! ! ! ! ~ ",
"! ! ! / ( E W ( ^ ! ! Q @   .   .   i ( Q ( M             m ) W ( i   .   .   * Q ~ ! ~ ( W E ( / ! ~ ! ",
"! ! / R e O O e E / / L             1 / Q / D   .     .   S ( ! / 1             L / ~ W t + O w T / ! ! ",
"! ~ ! <         < ! / Y X           q ( ! ! / 9         8 ^ ! Q ( w           X Y / ~ 8         > Q ! ! ",
"! ( Z   .     .   Z / / y           D ( ! ! ^ Q s X X s ! ~ ! ! / D           y / / D         .   B ( ! ",
"Q ( M         .   m ( ! ! y . . X C ( Q ! ! ! / ^ + O ~ ^ ! ! ! ! ( B X   . y ! ! ) N             f ( Q ",
"! ( A   .         Z ( Q ^ ( E 1   I / ! ! ! ! / K     K / ! ! ! ! / L   8 E / ~ ! ( D         .   V ( ! ",
"! ! ! 1         1 ! ~ ! ! Q ( 8   p ( Q ! ! Q ( C     N ( ! ! ! ! ( i   8 ( ! ! ! ! ~ 9     .   , Q ! ! ",
"! ! / W y @ * @ K ( ! ! ! ! / 1   @ Q ^ ! ! ! ) a     p ( Q ! ! ^ W @   1 / Q ! ! ! ( L - * @ t E ^ ! ! ",
"! ! ! ~ ( ^ R . 1 ( ! ! ! ! / <     A ( Q ! ! / 8     1 / ! ! ! ( C     < / ! ! ! ! ( 1 X E ! ( / ! ! ! ",
"! ! ! ! ! ~ ! =   Z ( ! ! ! / <     q ( Q ! ! Q @     + Q ^ ! ! / 9     < / ! ! Q ( A   ; ~ ~ ! ! ~ ! ! ",
"! ! ! ! ! ! / 8   = Q ^ ! Q / ,     . U / ! / I         L / Q / U .     , / ! ! ~ Q -   8 / ! ! ! ! ~ ~ ",
"! ! ! ! ! Q ( y     s ( Q ! / ,   .   M ) Q ( S         A ( W ) m   .   , / ! Q ) d     u ) Q ! ! ! ! ! ",
"! ! ! ! ! ! ) f     . I / Q ^ ,       , ^ ! ( f     .   d ( ! ^ >       > ^ Q / I .     f ) Q ! ! ! ~ ! ",
"! ! ~ ! ! Q ( C   .   q / ! ^ >         K / / e         q / / K         > ^ ! / w   .   C ( Q ! ! ! ~ ! ",
"! ! ~ ! ! ! ( K         S ( ! ;         i ( ! ;         = Q ) u   .     > ! ( S         K / ! ! ~ ! ! ! ",
"~ ! ! ! ! ! ^ Y .       ; ! ^ ;         + Q T .           Y ! O         ; ^ Q ;       . Y / ! ! ~ ! ~ ! ",
"! ! ~ ! ! ! ~ Q @         f ) *           S L             K D           * ) f         @ Q ! ! ! ! ! ~ ! ",
"! ~ ~ ! ! ! ! / <         X U >           r B             N r           > U X         , / ! ! ! ! ! ~ ! ",
"! ! ! ! ! ~ ! ( e           e >           O 1             , O           > w           e ( ! ! ! ! ^ ! ! ",
"~ ! ~ ~ ! ! Q ) s                                                         .           s ( ! ! ! ! ! ! ~ ",
"! ! ! ! ! ! ! ) B                                                                     N ( Q ! ! ! ! ! ! ",
"! ! ! ! ! ! ! ( G                   .                         .   .                   F ( ! ! ! ! ! ! ~ ",
"! ! ! ! ! ! ! / I .     .                                                   .         P / ! ! ! ~ ~ ! ! ",
"~ ! ! ! ! ! ! ~ W +         . & 7 z n ' | ..+.#.#.&.&.#.#.+. .} ' v l 6 %           + E ^ ! ~ ! ! ! ! ! ",
"! ! ! ! ! ! ! ! ( s   # x } &.>.<.<.<.<.<.<.<.<.<.<.<.<.<.<.<.<.<.<.<.<.>.&.[ x +   d ( ! ! ! ! ! ~ ~ ! ",
"~ ~ ! ! ! ~ ! ! / W + . *.<.<.<.<.<.<.<.>.>.:.;.-.-.-.;.;.;.>.,.<.<.<.<.<.<.<.-.# + Q / ! ! ! ! ~ ! ! ! ",
"! ! ! ~ ! ~ ! ~ ! ( C   l ,.+.] v z g 6 2 & # o o o o o # # & 2 6 g z v ' +.<.c   C ( Q ! ! ! ! ! ! ~ ! ",
"! ~ ! ! ! ! ! ~ ! ! ^ ,   %                                                 &   , / ! ! ! ! ! ! ! ~ ! ! ",
"! ! ! ~ ! ~ ! ! ! ! ) a       # 6 z b ' |  .+.#.#.&.&.$.#.+...| ' n x 7 &       a ) Q ! ~ ! ! ! ! ! ! ! ",
"~ ! ! ! ! ~ ~ ! ! ! ) V   h #.;.<.<.<.<.<.<.<.<.<.<.<.<.<.<.<.<.<.<.<.<.;.&.k   C ( Q ! ! ! ! ~ ~ ! ! ! ",
"~ ! ~ ! ! ! ! ! ! ! ( K   z <.,.<.<.<.>.;.*.&.#.#.+.+.+.#.&.*.-.>.<.<.<.<.<.x   K / ! ! ! ~ ! ! ! ! ! ^ ",
"! ~ ! ! ~ ~ ! ~ ! ! ^ E   4 *.| n k 6 & o                     o & 5 j v { *.5   E ^ ! ! ! ! ~ ! ! ~ ! ! ",
"! ! ! ~ ! ! ! ! ! Q ( J   .               # # & 2 2 2 2 & & o .                 K ( ! ! ~ ~ ! ! ! ~ ! ~ ",
"! ! ! ! ~ ! ! ! ! Q ) f   o 3 z _ } X.&.*.;.>.>.,.,.,.>.>.:.-.-.&.+.} _ z 4 o   f ( Q ! ! ^ ! ! ~ ! ! ! ",
"~ ! ~ ~ ! ! ~ ~ ! ! ( 0   n <.<.<.<.<.<.<.<.<.<.<.<.<.<.<.<.<.<.<.<.<.<.<.<.`   0 ( Q ! ! ! ! ! ! ! ~ ! ",
"! ! ! ! ! ! ! ! ! ^ E O   +.<.<.<.>.-.$.+. .{ ] ] ' ' ' [ |  .+.&.;.,.<.<.<.#.  O E ^ ! ! ! ! ! ! ! ! ^ ",
"! ~ ~ ! ! ~ ! ~ ! / F   & #.[ x 6 & o                             o 2 g c [ #.>   D ( ! ! ^ ! ! ! ! ! ! ",
"! ! ! ~ ~ ! ! ! Q ) f   . .               .   .   .     .                   . .   s ) Q ! ! ! ~ ~ ! ! ! ",
"~ ! ! ! ! ! ~ ! ! ! Q M ;                       .     .     .                 @ s E ^ ! ! ! ! ! ! ! ~ ! ",
"! ! ~ ! ! ~ ! ! ~ ! ^ ) ^ P B i 1 - o                             X @ 1 u N K ! ( / ! ! ! ! ~ ! ! ~ ! ! ",
"~ ! ~ ! ! ! ~ ~ ! ! ! Q ! ( ) ( ( Q E P J D C B B M N B B C S J L R Q / ) ( ( ^ Q ! ! ! ! ^ ! ! ! ! ! ! ",
"! ! ! ~ ! ! ! ! ! ! ! ! ! ! ! Q ! ! ^ / ( ( ( ) ( ) ) ( ) ) ( ( / / ! ! Q ! ! ! ! ! ^ ! ! ! ^ ! ! ! ^ ! ",
"! ~ ! ~ ! ~ ! ~ ~ ! ~ ! ! ! ~ ! ! ! ! ! ! Q ! ! ! Q ! ! Q ! Q ! ! ! ! ! ! ! ! ! ! ~ ! ! ! ! ! ! ! ! ! ! ",
"! ! ~ ! ! ! ! ~ ~ ! ! ! ! ~ ! ! ! ! ! ! ! ! ! ! ! ~ ! ! ! ~ ! ! ! ! ! ! ! ! ! ! ! ! ! ! ! ! ! ! ! ~ ! ! ",
"~ ! ! ! ~ ~ ! ! ! ! ~ ! ! ! ! ~ ! ! ! ! ! ! ! ! ! ~ ! ! ! ! ! ~ ! ! ! ! ! ! ! ! ! ! ! ! ^ ! ! ! ! ! ! ~ "
};
