/* XPM */
static char *qdl__[] = {
/* columns rows colors chars-per-pixel */
"88 88 130 2",
"   c #00C500A10076",
".  c #08A606B90468",
"X  c #0C8A0956057F",
"o  c #0B6E0B210AC4",
"O  c #102B0C15072D",
"+  c #12F70E5908D0",
"@  c #1633108509B8",
"#  c #1BB914A50C27",
"$  c #135812FD128F",
"%  c #17E1177116EB",
"&  c #181F17AF1728",
"*  c #1C601BFF1B89",
"=  c #21D619320ED5",
"-  c #25501BC7105A",
";  c #28F51E8011F3",
":  c #1FAB1F341EA7",
">  c #2D3821AF13D7",
",  c #2088201A1F96",
"<  c #32B425C01638",
"1  c #359227E5177B",
"2  c #367F289517E3",
"3  c #3CD42D4C1AA9",
"4  c #240C23942304",
"5  c #2B022A8529EF",
"6  c #2FF72F762EDB",
"7  c #30A7301B2F73",
"8  c #33B0332B328B",
"9  c #37E1375E36C0",
"0  c #385937D1372E",
"q  c #3C943C083B5F",
"w  c #3FFE2FA71C0C",
"e  c #443232C91DE5",
"r  c #47CE35791F79",
"t  c #496236A5202A",
"y  c #4DB839E72214",
"u  c #53AE3E5A24B3",
"i  c #3FED3F5A3EA9",
"p  c #570340CB2623",
"a  c #58E0422F26F4",
"s  c #5D8A45A92900",
"d  c #40AE401E3F71",
"f  c #63A74A362BAD",
"g  c #69C04EC02E5A",
"h  c #6B9650372F37",
"j  c #6E3952153050",
"k  c #732E55CA327F",
"l  c #76FD589C3427",
"z  c #7B765BF0361D",
"x  c #7F375EBC37C2",
"c  c #447E43F14347",
"v  c #4BD24B3F4A8F",
"b  c #4FFF4F704EC5",
"n  c #510750654FA3",
"m  c #541B537B52BB",
"M  c #58F8586157AD",
"N  c #5CE85C4A5B8D",
"B  c #614560A05FDB",
"V  c #64B264136354",
"C  c #68EB684F6794",
"Z  c #6D216C806BBF",
"A  c #70416F9E6EDA",
"S  c #751D747E73BF",
"D  c #7BC57B3A7A92",
"F  c #80965FC2385C",
"G  c #84B462D33A2A",
"H  c #89EF66B73C75",
"J  c #8D3F692F3DE8",
"K  c #91626C443FB9",
"L  c #942C6E5740F1",
"P  c #9726708F423F",
"I  c #9BFB7428445E",
"U  c #A0E777D24686",
"Y  c #A24A78DB4722",
"T  c #A64B7BD548E3",
"R  c #AA4F7ED34AA5",
"E  c #AD8E813E4C12",
"W  c #B369859A4EA3",
"Q  c #B74D88805057",
"!  c #BCC58C9252BD",
"~  c #80C680387F8C",
"^  c #C11A8FCD54A3",
"/  c #C589931A5694",
"(  c #C860953857D5",
")  c #CAB896F658DA",
"_  c #CEF09A1B5AB3",
"`  c #D3D89DC25CDA",
"'  c #D7E5A0C65EA0",
"]  c #D995A2085F5E",
"[  c #DE75A5A96181",
"{  c #E162A7D662C9",
"}  c #E750AC416562",
"|  c #EBB2AF85674E",
" . c #ECD4B05D67CD",
".. c #EEBCB1C868A3",
"X. c #F44FB5F86B1A",
"o. c #F7D1B8946CA3",
"O. c #FACEBAC56DED",
"+. c #FFFFBFAC70D0",
"@. c #FFFFC4667398",
"#. c #8532847F83A9",
"$. c #8CF38C4C8B82",
"%. c #905B8FB98EF8",
"&. c #90C990338F7F",
"*. c #937892DB921E",
"=. c #9CE39C449B84",
"-. c #A03B9F7F9E9E",
";. c #A128A0869FC4",
":. c #A3F9A35CA29F",
">. c #A830A786A6BC",
",. c #A8CFA83BA789",
"<. c #AC87ABE8AB2A",
"1. c #B584B4E9B42D",
"2. c #B862B7CCB718",
"3. c #C0F3C068BFC1",
"4. c #C4A1C41CC37D",
"5. c #C8C5C845C7AB",
"6. c #C8FDC871C7C8",
"7. c #CCBECC3DCBA1",
"8. c #D0E5D05ECFBA",
"9. c #D494D416D37D",
"0. c #DCB3DC3ADBA9",
"q. c #E10FE09BE00F",
"w. c #E521E4B4E431",
"e. c #E90BE892E801",
"r. c #ECB0EC50EBDE",
"t. c #F11FF0CBF065",
"y. c #F5D6F599F54F",
"u. c #F884F835F7D4",
"i. c #F8C6F885F838",
"p. c #FE5EFE5AFE56",
/* pixels */
"| | | |  .| |  .| |  .| |  .| | | |  .| |  .| |  .| |  .|  .| |  .| |  .| |  .| | | | | | | | | | | | | | | | | | | | | | | | | | | | | | |  .| |  .| | |  .| | |  .| |  .| |  .",
"| | |  .| | | | | | | | | | | | | | | | | | | | | | | | | | | | | | | | | | | | | | | | |  .|  . .| |  .|  .|  . .|  .| |  . .| | | |  . .| | | | | | | | | | | | | | | | | | | ",
"| | | | | | | |  .| | |  .| |  .|  .|  .| | |  .| | | | | | | | | | | | | | | | | | | | |  .| | | | | | | | | | | |  .| | | | | | | | | | | | | |  . .|  .| |  .| | |  .| | | | ",
"| |  .|  .| | | | |  .| | | | | | | | | |  .| | | |  .| | | | |  .| |  . .| |  .| | | | | | | | | |  .| | |  .| | | | | |  .| | | | | | | |  .| | | | | | | | | |  .| |  .| |  .",
"|  .| |  .| |  .| | | | |  .| | | |  .| | | | |  .| | | | | | | | | | | | |  .| | | | } } } | | |  .| | | |  .| | | | | | | | | | | | |  .| | | | | | | | | | | |  .| | | | |  .",
"| | | | | | | | | |  .| | | | | | | | | | | | | | | | | | | | | | | | | | | | | } | X.O.O.X.| | | | | | | | | | | | | | |  . .| | | | | | | | | |  . .| |  .|  .| | |  .| | | | ",
"| | |  .| | | | |  . .| |  . .| | | | | | | | | | | } | | | | |  .| | | | |  .| o.X./ I U / X.o.| | | |  .| | | |  .| | | | | | | | | | | | | | |  .| | |  .| | | | | | | | | | ",
"|  .| |  .| |  .| | | | | | | | | | | | | | | | ..o.X. .| | | | | | | | | | } O.! <         1 ! O.} | | | |  .| | | | } | X.X...| |  .|  .| | | | | | | | | | | |  .| |  .| |  .",
"|  .| | | | | | | | | | | | | | | | | |  .| X.O.[ ( ) { O...} | | | |  .| | o.E               . R o.} | | | | |  .| ..O.{ ( / [ O.X.| | | | | | | | | | | | | | |  .| | |  .| | ",
"| | |  .| | | | |  .| | | | | | | | | | } o.` a +     @ g { X.|  .| | | | ..` @   .             + ` X.| | | | | | X.[ f #     + a ` o.} | | | | | | | | | | | | | | | | | | | | ",
"| | | | | | | | | | | | | | | | | | | } o.! +             = ` X.| | | | } O.l                 .   k O.} | | | | X.` #             + ! o.| | | | | | | |  .| | |  .| |  .| | | | ",
" .| | |  .| | | | } } | |  .| | | | | X.[ #             .   1 | | |  .| | o.3                     < X.| | | | | | >   .             # [ ..| | |  .| | | } | } | | | | | | | | | ",
"| |  .| | | | | O.O.O.O...| | | | | } O.l                 .   L O.| | | |  .>                     = | | | | } O.L                     l O.} | | | | } ..o.O.O.O. .| | | | | | | ",
"| | | | | } o.| W H G Y [ O.| | | | | ..1                     y O.} | | | X.3                     < X.| | | | o.y   .                 1 ..| | | | | O.{ T G G E | o.} | | | | | ",
"| | |  .} O.! >         + J o.| | | ..{ #                     2 X.| | | } O.k   .                 h O.} | | | X.2                     # } | | | } O.I #         = W O.| | | | | ",
"| | | | o.W .               l o.| |  .| -                     3 X.} | | | X.` X                 X ) X.| | | } o.3                     - | | | | O.H       .         R o.| | | | ",
"| | |  .{ =                   W o.} } o.u                     k O.} | | | } O.U                 U O.} | | | | O.j   .                 u O.| | X.!                   @ ] ..| | | ",
"| | } O.K                     t o.| | o.W                   . ) o.|  .| | | } o.W -         - W O.} | | | | | X.( .                   W o.} | O.s   .                 z O.} | | ",
"| | | O.a   .                 # [ ..| } O.k                 J O.} |  .| | | | | X.o.k . . j o.X.| | | | | | | | O.H                 k O.| | | | ;                     r o.| | | ",
"| | | o.t                     X ` X.| | | o.G X         = I O.| | | | | | | | | { O.p     y o.} | | |  .| | | | | o.P #         . G o.| | | | { #                 .   1 X.| | | ",
"| | | O.s                     # }  .| | | | O.` L f # @ u X.| | | | | | | | | |  . .;     = | | | | | | | | | | | | X.y @ # f P ` O.| | | | | | >                     y O.| | | ",
"| | } O.I                 .   p o.} | | | | | ..@.)       W o.| | | | | | | | | X.` X     . _ X.| | |  .|  .| | } o.E       ) @.| | | | | | } O.f                     H O.} | | ",
"| | | | | >   .               ! o.} | | | | | } X.W   .   f O.| | | | | | | | | o.W         R O.} | | | |  .| | } O.a       Q X.} | | | | | | X._ X             .   = { ..| | | ",
"| | | } o.) @               L o.| | | | | | | | o.Q       @ [ ..| |  .| | | | | O.J         G O.} | | | | | | | X.] +       Q o.| | | | | | | | O.Y X             O ! o.|  .|  .",
"| | |  .} o.` y .     . = h X.| | | | | |  .| | o.W         P O.| | | | | | | } O.s   .     u O.| | | | | | | } O.K         Q O.} | | | | | | | | o.k < .       r _ o.} | | | | ",
"| | | | | | X.o.` E W P #   P O.} | | | | | | | o.W         r o.| | | | | | | | X.2         > ..| | |  .| | | | X.3         W o.| | | | | | | | O.P   - R W E _ o.X.| | | | | | ",
"| | | | | | | | X.o.@./     # { ..| | | | | | } o.W         . ) X.| | | | | | ..[ @         X ' ..| | | | | | X./           W o.} | | | | | | ..{ #     ) +.X.X.| } | | |  .| | ",
"|  .| | | | | | } |  .` O     j O.} | | | | | } o.E           z O.} | | | | } o.!             Q o.| | | | | } O.l           E o.| | | | | | } O.k     O [ | } | | | | | | | | | ",
"|  .| | |  .| | | | | | =       / o.| | | | | | O.R           ; | | | | | | | O.P             J O.} | | | | | | -           E O.| | | | | | o.( .     - | | | | | | | | | | | | ",
"| | |  .| | | | | | | o.3   .   e o.| | | | | } O.R             W o.| | | | } O.h   .         f O.} | | | } O.R             R O.} | | | | } o.r   .   e o.| | | | |  .| |  . .| ",
"| | | | | | |  .| | } O.s         I O.} | | | | O.T             a O.} | | | | o.e             2 X.| | | | } O.a             T O.| | | | } O.Y     .   f O.| |  . .|  .| | | | | ",
"|  .| | |  .| | | | | O.z   .     = } ..| | | } o.T             + [ ..| | | | } =             @ [ ..|  .| X.] O             Y O.} | | | | } =         z O.| | | | | | | |  .| | ",
"|  .| |  .| | | | | } O.I           l O.} | | | O.Y               L O.} | | X.( .               / o.| | } O.K               Y O.| | | } O.l           U O.} | | | |  .| | |  .| ",
"| | |  .| | |  .| | | X.!           . ) X.| | } O.Y               3 X.| | | O.Y                 P O.} | | X.3               U O.} | | X.) .           ! X.| | | | | | | | | | | ",
"| | | | | | | | | | | X.` .           y o.} | } O.I                 ( o.| } O.z                 h O.} | o./                 I O.} | | o.y           . ` X.| | | | | | |  .| |  .",
"|  .| |  .| | | | | | | } #             T O.} | O.I                 l O.} } O.u                 e o.| } O.l                 I O.| } o.R             # }  .| | | | | | | | | | | ",
"|  .| | | | | | | | | | X.1             ; |  .} O.I                 = | | | | ;                 # } ..| | =             .   P O.} | | ;             1 X.| | | | | | | | |  .| | ",
"| | | | | | | | | | | } O.u               z O.} O.P   .               E o. .` X                 . ) ..o.R                   P O.} O.z               u O.| | | | |  .| | | | | | ",
" .|  .| | | | | | | | } O.l   .           X _  .O.L                   p o.o.W                     T o.o.p                   L O...` X           .   k O.} | | | |  . .| |  . .| ",
"| | | | | | | | | | | | O.K                 u o.O.L                   O ` +.G                 .   l +.` O                   K O.o.u                 K O.} | | | | | | | | | | | ",
"| | | | | | | | | | | | o.E                   R @.J   .                 J @.a                     y @.J                     J @.R                   E o.| | | | | | | |  .| | | ",
" .|  .| |  . .| | |  .| X.)                   > O.J                     2 o.<                     - o.2                     J O.>                   ) X.|  .| | |  . .| | | | | ",
"| |  .| | | | | | | | | ..[ @                   P I                     . W #                     + E .                     I P                   + [ ..| |  .| | | | | | | | | ",
"| | | | |  .| | | | | | | ..>                   = j                       3 X                     . 1                       j -                   ; | | | | | | |  .| |  .| |  .",
"| |  .| | | | | | | | | | o.t                     X                                                                         X                 .   r o.} | | | | |  .| | |  .| | ",
" .| | | |  . .| | | | | } O.g                                                                                                                     f O.} |  . .| | | |  .| | | | ",
"| | | | | | | | | | | | } O.H   .                                                                                                                 G O.| | |  .| | | | | | | |  .",
"| |  .| |  .| | | | | | | O.T                                                                                                                     Y o.| | | | | |  .| | |  .| | ",
" .| | | | | | | | |  .| | X.^                                                                                                                     ! o.| | | | | | |  .| | |  .| ",
"| | |  . .| |  . .| | | | X.] X                               .   .                                         .   .                               X ` X.} |  . .|  .| | |  .| | | ",
"| | | | | | | | | |  .| | | | -                   .                           . o o $ $ $ o o o .                             .                 # } | | | | | | | | | | | | | | ",
"| |  .| |  .| | | | | | | | o.e           .             o 5 v V D *.:.2.5.7.0.0.w.e.e.r.r.e.e.w.0.9.7.4.1.;.$.S N i 4 o             .           2 X.| | | |  .| | | |  .| |  .| ",
" .| |  .| | |  . .| |  .| } O.H               4 m #.<.9.t.p.p.p.p.p.p.p.p.p.p.p.p.p.p.p.p.p.p.p.p.p.p.p.p.p.p.p.p.p.p.e.8.,.D v *               G O.} | | |  .|  .| |  .| |  .| ",
"| | | | | | | | | | | | | | | | >     . m =.0.p.p.p.p.p.p.p.p.p.p.p.p.p.p.p.p.p.p.p.p.p.p.p.p.p.p.p.p.p.p.p.p.p.p.p.p.p.p.p.p.p.u.7.*.v .     > ....| | | | | | | | | | | | | | ",
"| | | |  .| | | | | | | | | | o.R       4.p.p.p.p.p.p.p.p.p.p.p.p.p.p.p.p.p.p.p.p.p.p.p.p.p.p.p.p.p.p.p.p.p.p.p.p.p.p.p.i.p.p.p.p.p.p.0.o     R O.| | | | | | | | | | | |  . .| ",
" .| |  .| | |  . .| | | | | | } o.y     q p.i.p.p.p.p.p.p.p.p.p.p.p.y.e.w.0.9.7.7.5.5.4.4.4.5.7.7.9.0.w.e.y.p.p.p.p.p.p.p.p.p.p.p.p.p.N     y o.} | | | | |  .|  .| |  .| | | | ",
" .| |  .| | |  .| | |  .| |  .| X.( .     :.p.p.p.t.8.<.$.Z m c 5 4 % o o .                           o o & 4 5 d m Z $.,.7.r.p.p.p.5.    . ) o.|  .|  . .| |  .| |  .| |  .| | ",
"| | | |  .| | | | | | | | | | | } O.h     5 <.C 9 o                         .     . . . . . . .   .                         $ 9 V 2.c     k O.} | | | | | | | | | | | | | | | | ",
"| | | | | | | |  .| | | | | | | | ..[ @               . . . .                                                       o . o               @ [ ..| | | | | | | | |  .| | | |  . .| ",
" .| |  .| | |  .| |  .| | | | | | | o.e   . . . .               $ , 8 c n N C S D D #.#.#.#.#.D S Z V m v 0 4 % .               o   .   e o.| | | | | |  .| |  .| |  .| | | | | ",
"| |  .| |  .| | | | | | | | | | | } O.h           . 5 b D =.3.0.r.p.p.p.p.p.p.p.p.p.p.p.p.p.p.p.p.p.p.p.p.p.p.y.w.7.,.#.N 9 @           g O.} | | | | | |  .| | | | | | |  .| | ",
"| | | | | | | | | |  .| |  . .| | } O.L     o S 1.w.p.p.p.p.p.p.p.p.p.p.p.p.p.p.p.p.p.u.p.p.p.p.p.p.p.p.p.p.p.p.p.p.p.p.p.p.r.3.#.$     L O.| | | | | | | | | | | |  .| | | | | ",
"| | |  . .| |  . .| | | | | | | | | X.!     & y.p.p.p.p.p.p.u.p.p.p.p.p.p.p.p.p.p.p.p.p.p.p.p.p.p.p.p.p.p.p.p.p.p.u.p.u.p.p.p.p.p.4     ! o.| | |  . .|  .| |  . .|  .| |  . .| ",
" .| | | | | | | | |  .| |  .| | | | ..[ X     9.p.y.p.p.p.p.p.p.p.p.p.p.p.p.u.r.e.e.e.w.w.w.e.e.r.y.p.p.p.p.p.p.p.p.p.p.p.p.p.p.0.o   O ] ..| | | | | | | | | | | | | | | | | | ",
"| |  .| |  .| | | | | | | | | | | | | ..>     2.p.p.p.p.y.9.2.=.D V n q 8 4 & % $ o o o o o o o % & 4 5 9 v M S &.<.7.e.p.p.p.p.3.    > ..| | | | | | | | | | | | | | |  .| |  .",
"| | | | | | | | |  . .| |  .|  . .| | o.e     $.0.$.N 8 $                                                             o 5 m #.7.$.    e o.} | | |  . .| |  .|  .|  . .| | | | | ",
" .| | | |  . .| | | | | |  .| | | | ..{ @     o                                                                     .           .     # [ ..| | | | | | |  .| | | | | | | | | | ",
"| |  .| | | | | | |  .| | | | | | | o.W                       . $ 4 8 d v M V Z S S D D D D S S Z V M v i 8 4 $ .                       W o.| | | |  .| | | | | |  .| |  .| |  .",
"| | | | |  .| | | | | | |  .| | | } O.l           * d V $.<.7.0.r.p.p.p.p.p.p.p.p.p.p.p.p.p.p.p.p.p.p.p.p.p.p.r.0.7.<.&.C c *           l O.| | | | | | |  .| | |  .| |  .| | | ",
"| |  .| | | | | |  . .| | | | | | | o.w     o ;.0.u.p.p.p.p.p.p.p.p.p.p.p.p.p.p.p.p.p.p.p.p.p.u.p.p.p.p.p.p.p.p.p.p.p.p.p.p.p.0.,.%     3 o.| | |  .|  .| | |  .| | | | | | | | ",
" .|  .| |  . .| | | | | | | | | | ..] O     c p.p.p.p.u.p.p.p.p.p.p.p.p.p.p.p.p.p.p.p.p.p.p.p.p.p.p.p.p.p.p.p.p.p.p.p.i.p.p.p.p.p.m     X ' ..| | | | | | | | | | | |  .| | |  .",
"| | | | | | | | | |  .| |  .| | } o.R   .   #.p.u.p.p.p.p.p.p.p.p.p.p.p.p.p.p.p.p.u.u.u.u.u.p.p.p.p.p.p.p.p.p.p.p.p.p.p.p.p.p.p.p.*.  .   T o.| | |  .| |  .| | |  .| | |  .| | ",
"| | | |  .| |  .| |  .| | | | | } O.j       4.p.p.p.p.p.u.q.4.,.&.D V m c 0 8 5 4 4 , * * * 4 4 5 8 q v N Z #.=.2.9.e.p.p.p.p.p.p.7.      g O.| | | | |  .| |  .| | | | |  .| | ",
" .|  .| | | | | | | | | | | | | | X.1     * p.u.5.*.V q & .                                                         o 4 c A =.7.u.p.4     < ..| | | | | | | | | |  .| | | | |  .",
"| | | | | | | | | | |  .| | | | X._ X     4 M %                   . .                                 .   .   .                 % m 4     X ) X.| | | | | | | | | | |  .| | | | ",
"|  .| |  .| |  . .| | | | | | | o.R     .           .                                                                   .   .         .     P O.} | | | |  .| | |  .| | |  .| | ",
"|  .| |  .| | | | |  .| | | | | | | L #         .                                                                                       . h [ ..| | | |  .| |  .|  .| |  .| |  .",
"| | | | | | | | | | | |  .|  .| | | O.{ I y +               .                                                     .               X 3 G ` O...| | | | | | | | | | | | | | | | | ",
"| | |  .| | |  . .| | | | |  .| | | |  .O.o.[ W x y - X                                                                 . # t k T ` o.O.X.} | | | | |  .| | | | |  . .| | | | | ",
"|  .| |  .| | | | |  .| | | | | | | | | } | ..o.O.O.| ` ! I x f t 1 - # X .                         . X @ = < e s l L Q ` } o.O.O...| } | | | | | | | |  .| |  .| | | | |  .| | ",
"| | | | |  .| |  .| |  .| |  .| | | | |  .| | | } | | ..o.O.O.O.o.X.| { ] ` / ^ ! Q W W W W Q ! ^ / ` ` { } X.o.O.O.O.o.X.| } | | | | | | | | | | | | | ..| | | | | | | |  .| | ",
"|  .| | | | |  .| | | |  .| | | | |  .| | | | | | | | | | } } | | | | | ..X.X.o.o.o.o.o.o.o.o.o.o.X.X.....| | | | } } | | | | | | | | | | | | | | |  .| | | |  .|  . .| | | | | ",
"|  .|  .| | | | | | | | | | | | | | | | | | | | | | | | | | | | | | | | | | | } | | | } | } | | } | | | | | | | | | | | | | | | | | | | | | ..|  .| | | | | | | | | | |  .| | | ",
"| | | | |  .| | | | |  .| |  .| |  .| |  .| |  .| | | | | | | | | | | | | | | | | | | | | | | | | | | | | | | | | | | | | | | | | | | ..| | | | | | | | | | | | |  .| | | | |  .",
"| | | | | | | |  .| |  .| |  .| |  .| | |  .| | | | | | | | | | | | |  .| | | | | | | | | | | | | | | | | | | | | | | | | ..| | | | | | | | | | | | | |  .| |  .| | | | |  .| | ",
"|  .| |  .| |  .| | | | | | | | | | |  .| | | | | |  .| | | | | | | | | | | | ..| | | | | |  .| | | | | ..| | | | | | | | | | | | | | | | | | | | ..| | | | | | |  .|  .| | | | ",
"| | ..| | | | | | | | |  .| |  .| | | | | | |  . .|  .| |  . .| | | ..| | | | | | | | | | | | | | | | | | | | | | | | | | | | | | | | | | | | | | | | | | | | | |  .| | | | |  .",
"| | | | |  .| |  .| |  .| | | | |  .| | |  .| | | | | | | | | | | | | | | | | | | | | | | | | | | | | | | | | | | | ..|  .| | | | | | | ..| | |  .| | |  .| |  .| | | | |  .| | "
};
