/* XPM */
static char *qld__[] = {
/* columns rows colors chars-per-pixel */
"38 38 159 2",
"   c #01B1011300FC",
".  c #0B0204550000",
"X  c #07EE07BB077B",
"o  c #022B058B09AF",
"O  c #061B08D40C1B",
"+  c #0ADB0B310B9A",
"@  c #0F94064B0000",
"#  c #13EE0B9B029E",
"$  c #18CF0DE30093",
"%  c #14DA0F3D0869",
"&  c #1B8010D003C6",
"*  c #168510FE0A42",
"=  c #1C2A13E70A66",
"-  c #1F8D180D0EE7",
";  c #09B20CBD1073",
":  c #0E67122616C3",
">  c #12FF1305130C",
",  c #17F117A6174C",
"<  c #13A7166719C3",
"1  c #168319611CE0",
"2  c #1CA01C841C65",
"3  c #2390157004AF",
"4  c #2E2C1C19060B",
"5  c #235218D50C69",
"6  c #2AB51CCF0C4C",
"7  c #31EF1DFA05A0",
"8  c #26411C9F10DC",
"9  c #2B741EF61009",
"0  c #20541F9A1EB8",
"q  c #336222290D26",
"w  c #3B0F25BD0BB7",
"e  c #3F1B29050E11",
"r  c #2CC01FC6107F",
"t  c #20FE202F1F32",
"y  c #367F27EE1626",
"u  c #3C4E2A2E140F",
"i  c #39C52ADB18A8",
"p  c #1ACA1E5A22B5",
"a  c #1E5121972596",
"s  c #1E41227627BD",
"d  c #22432255226B",
"f  c #2237258B2999",
"g  c #24E129632EE4",
"h  c #2BDE2B972B41",
"j  c #2FBD2F642F01",
"k  c #2BD82EDF328D",
"l  c #2E6C30E833F0",
"z  c #2F9B33A03887",
"x  c #32C632E8331A",
"c  c #328735F63A26",
"v  c #354239323DFD",
"b  c #3CF43CB63C6A",
"n  c #44412D1C10F0",
"m  c #468B310216B9",
"M  c #48A331911559",
"N  c #452A32651B7E",
"B  c #4F0C373B1A29",
"V  c #4ED839741F5A",
"C  c #53B4384216C3",
"Z  c #58A73AFC16C9",
"A  c #54313A641AED",
"S  c #59FC3D2019E8",
"D  c #55A23D582036",
"F  c #3FD93F9C3F51",
"G  c #5E5D41061D39",
"H  c #66FC46D41F97",
"J  c #594E4088224D",
"K  c #662946691FAA",
"L  c #66DE4A6427A3",
"P  c #6C934C9E259E",
"I  c #6B554D702914",
"U  c #74D7537F2AD2",
"Y  c #7A77566A2A6A",
"T  c #7CE958E92D07",
"R  c #3ACF3E0241EA",
"E  c #3D0D40B34525",
"W  c #3ED942E047CA",
"Q  c #41DC41984145",
"!  c #47FD47BF4773",
"~  c #4163453849F3",
"^  c #4BE14BA54B5C",
"/  c #46E34B055015",
"(  c #4E2A513F5506",
")  c #4F57533657F0",
"_  c #52E153745427",
"`  c #57E2578E5728",
"'  c #5849580E57C6",
"]  c #547156B8597F",
"[  c #56D359C25D57",
"{  c #5C885C805C78",
"}  c #5A0F5D50614B",
"|  c #5CA760786520",
" . c #6229628C6307",
".. c #6AE46A996A3E",
"X. c #6EA0707172A9",
"o. c #74DB75047537",
"O. c #740476A479D9",
"+. c #76A778427A37",
"@. c #791778DF789A",
"#. c #80CD5A052AB1",
"$. c #896760D32F4E",
"%. c #8664601E316A",
"&. c #8C2C6480341B",
"*. c #928368E4361A",
"=. c #95DA6C0138F1",
"-. c #99BA6EC13A4D",
";. c #9E4D71523A71",
":. c #A40476043DD0",
">. c #ADB57D8542B7",
",. c #B0827FF044A9",
"<. c #B478829845A0",
"1. c #B90A85E3476F",
"2. c #BA4886D84813",
"3. c #BEDA8A6A4A6C",
"4. c #C37F8D864B8B",
"5. c #C74790954DD7",
"6. c #CAC092E54EB4",
"7. c #CF9C96184FE8",
"8. c #D1E597CE50EA",
"9. c #D5659A4E5231",
"0. c #DB209EA154CE",
"q. c #DEAFA1295614",
"w. c #E010A31D58BB",
"e. c #E1C5A352571E",
"r. c #E451A5A25924",
"t. c #E7EEA89E5B5A",
"y. c #EA29A9F45B9A",
"u. c #83BD841C8490",
"i. c #859586FE88B7",
"p. c #8A8C8B168BBF",
"a. c #90268FD58F73",
"s. c #8FB490DE924A",
"d. c #92B39203912D",
"f. c #984D981997DA",
"g. c #9D7F9DEB9E6D",
"h. c #A0239FEA9FA4",
"j. c #9F799FC8A027",
"k. c #A36EA41EA4F3",
"l. c #A8ACA86AA81A",
"z. c #AC7FABEEAB3D",
"x. c #ADE4AF9FB1BB",
"c. c #B2FFB323B350",
"v. c #B68BB7DEB987",
"b. c #B76AB8F0BACC",
"n. c #BD37BD49BD60",
"m. c #C482C4DEC54F",
"M. c #C9C8C91AC845",
"N. c #C653C754C88E",
"B. c #CC34CBB1CB12",
"V. c #D1BFD0F6D000",
"C. c #D589D582D579",
"Z. c #DADDD9B9D856",
"A. c #DCA6DC45DBD0",
"S. c #E202E0B7DF22",
"D. c #E541E4D8E458",
"F. c #EDDDED5EECC5",
"G. c #F45CF413F3B8",
"H. c #F88CF873F853",
"J. c #FFC5FFC4FFBF",
/* pixels */
"9.9.0.9.9.9.9.9.9.9.9.9.9.9.9.9.9.9.9.8.9.9.9.9.9.9.9.9.9.9.9.9.9.9.9.0.9.9.",
"9.9.9.9.9.9.9.9.9.9.9.9.9.9.9.9.9.9.0.0.9.9.9.9.9.9.9.9.9.9.9.9.9.9.9.9.9.9.",
"9.9.9.9.9.9.9.9.9.9.0.q.9.9.9.9.9.e.3.3.w.9.9.9.9.9.q.0.9.9.0.9.9.9.9.9.9.9.",
"9.9.9.9.9.9.0.9.9.e.3.>.0.0.9.9.0.A     D 0.9.9.0.0.>.3.e.9.9.9.9.9.9.9.9.9.",
"9.9.9.0.q.9.9.9.q.I     8 7.9.e.&.o c.c.o %.r.9.5.6     I q.9.9.9.e.0.8.9.8.",
"9.9.q.6.,.9.0.0.>.  g.Z.s A e.r.G k J.J.l S r.e.A s Z.g.  >.0.0.9.,.6.q.9.0.",
"9.q.=.    * <.y.&.; F.J.} 4 r.w.-.  u.i.  -.q.e.4 } J.F.+ &.y.<.=     &.e.7.",
"0.6.. X.S.W 4 r.3.. _ p.O U e.8.q.T     T q.8.r.U O p.) . 3.r.w v S.@.. 5.0.",
"q.<.  M.J.s.. 9.e.>.3   D w.9.9.9.y.i y y.8.9.9.q.D   3 :.e.9.# i.J.V.  ,.q.",
"9.9.& R h.p M e.8.0.r.- N e.8.9.0.7.% % 6.0.9.8.e.N , r.q.8.e.B 1 g.~ % 7.0.",
"9.0.<.6   % 4.0.9.9.9.-   3.0.8.0.1.X   1.0.8.0.2.  5 9.9.9.0.4.=   3 <.0.7.",
"9.9.0.e.0.= L r.8.9.8.8   Y r.7.r.$.d f $.r.7.r.U   8 9.9.8.r.I - 0.e.0.8.0.",
"9.9.9.8.q.y   3.0.9.8.8 ^ 8 0.8.t.G _ [ Z t.8.0.6 / 8 8.9.0.4.  y e.7.9.9.9.",
"9.9.9.8.r.D   V e.8.9.% j.2 ;.0.r.7 u.p.4 r.0.;.2 g.% 9.9.e.V   G r.9.9.9.9.",
"9.9.0.8.t.P p , =.r.8.. m.} n t.9.@ x.v.@ 9.y.n } m.. 9.e.=.> s P r.9.9.9.9.",
"9.9.9.9.r.#.c o.$ 0.9.. m.n.. 9.4.  C.A.  4.9.  b.m.. 9.0.$ o.R #.t.7.9.9.9.",
"9.9.9.9.e.:.> A.1 U e.. b.J.> *.>.; F.G.+ :.=.: J.b.. r.U < S.< :.q.8.9.9.9.",
"9.9.9.9.0.3.  Z.k.  3.# x.J.| u #.f J.J.g Y n } J.x.# 3.  g.D.. 3.0.9.9.9.9.",
"9.9.9.9.9.9.. k.J.k u # c.J.m.* 3 { B.B.| & % m.J.c.# u l J.x.. 9.9.9.9.9.9.",
"9.9.9.9.9.e.& O.J.n.    ..: ` h   h X + b   h ..h i.    b.J.u.& e.9.9.9.0.9.",
"9.9.9.9.8.r.m p m.J._     _ l     X k.p.      2 Q     { J.D.z n r.9.9.9.0.9.",
"9.9.0.9.8.r.I     X X X u.J.H.M.n.F.J.J.A.l.c.G.J...  + > .   L r.8.9.9.9.9.",
"9.9.9.9.9.e.*.  l.x.n.H.J.J.J.J.J.J.J.J.J.J.J.J.J.J.F.g.d.d.  &.r.9.9.9.9.9.",
"9.9.9.9.9.9.0.3 _ J.D.l.O.) J h d 2 2 2 2 d h b ` o.z.D.J.] 3 q.9.9.9.9.9.9.",
"9.9.9.9.9.8.e.:.  <   X d b _ ..O.<.i.i.u.+...] b f +   , X :.q.9.9.9.9.9.9.",
"9.9.9.9.0.9.8.r.q c D.J.J.J.J.J.H.J.J.J.J.J.J.J.J.J.H.F.v q r.9.9.9.9.9.9.9.",
"0.9.9.9.9.9.8.y.Z c J.N.g.@.{ ! E R x j x b W } o.f.m.J.v S r.9.9.0.9.9.9.9.",
"9.9.9.9.9.9.8.e.&.  +   > f F _ } | ......} ) W h *   X   &.e.8.9.9.9.9.9.9.",
"9.9.9.9.9.9.8.e.=.  c.G.H.G.J.J.H.J.J.J.J.J.J.H.J.J.H.c.  =.q.8.0.9.9.9.9.9.",
"9.9.9.0.0.9.8.y.A z J.F.N.k.<...| ( ^ / _ { ..:.g.m.F.J.v A t.8.9.9.9.9.9.0.",
"9.9.9.9.9.9.9.0.6 1 s   o   + d j c b b b h d +       2 < 6 0.9.9.9.9.9.9.9.",
"9.9.9.9.9.9.0.2.. ,  .k.C.F.J.J.J.J.J.J.J.J.J.J.G.Z.x...t   2.0.9.9.9.9.9.9.",
"9.9.9.9.9.7.e.;.  l k.A.H.J.J.J.J.J.J.J.J.J.J.J.J.G.Z.k.x   =.e.9.9.9.9.9.9.",
"9.0.9.9.0.9.9.9.:.M .   + p c ~ ) } | | } ( W k 1 o     n -.8.9.9.9.9.9.9.9.",
"9.9.9.9.9.9.9.9.q.r.0.3.;.#.H C n e w w e n Z K T ;.3.9.r.e.9.9.9.9.9.9.9.9.",
"0.9.9.9.9.9.9.9.8.8.9.q.r.r.t.t.y.t.t.r.r.y.t.t.r.r.q.9.8.9.9.0.9.9.9.9.9.9.",
"9.9.9.9.9.9.9.9.9.9.9.9.9.8.8.8.9.8.8.9.8.9.8.9.9.8.9.9.9.9.9.9.9.9.9.0.9.9.",
"9.9.9.9.9.9.9.0.9.9.9.9.9.9.9.9.9.9.9.9.9.9.9.9.9.9.9.9.9.9.9.9.9.9.9.9.9.9."
};
