/* XPM */
static char *qld__[] = {
/* columns rows colors chars-per-pixel */
"44 44 144 2",
"   c #00DA00780079",
".  c #0AE5054C021B",
"X  c #0C6A08A5040D",
"o  c #033106350A16",
"O  c #05B908DA0CDC",
"+  c #0AE90B100B45",
"@  c #1160090E0158",
"#  c #19930E5100D6",
"$  c #10220F160DCE",
"%  c #1D0510CA01DE",
"&  c #1DDB15630B17",
"*  c #09FA0D9411FA",
"=  c #0E9711B6159C",
"-  c #12B11314138D",
";  c #17AA177B1742",
":  c #17DA17A61767",
">  c #10E1145F18A5",
",  c #15BC18A41C53",
"<  c #1BEC1BAF1B64",
"1  c #2218146703A9",
"2  c #2A2718FF040F",
"3  c #208D17640C61",
"4  c #23A819680D46",
"5  c #2A301CC90C86",
"6  c #26CB1C6B0FC2",
"7  c #29B21E5D1096",
"8  c #311120EC0D39",
"9  c #37FD24C40D4E",
"0  c #2C4E206D11FC",
"q  c #336724F11384",
"w  c #38E527031134",
"e  c #3A2B28B11365",
"r  c #1A5D1D5620F8",
"t  c #2364231F22CA",
"y  c #2804278A26F5",
"u  c #235B26952A7D",
"i  c #258928492BA5",
"p  c #2CF72CD72CB0",
"a  c #2BA22E313148",
"s  c #2E4D30F63435",
"d  c #329232933295",
"f  c #39573865373E",
"g  c #336435973846",
"h  c #360C38F93C8D",
"j  c #3CB83CEF3D35",
"k  c #40F32CA913E8",
"l  c #460030A8169D",
"z  c #4AD135171A94",
"x  c #52AF3A8E1D22",
"c  c #5A0A3EC21D77",
"v  c #5F66413E1C72",
"b  c #5BBA41F9228C",
"n  c #60B644F8231E",
"m  c #667D491A2540",
"M  c #6A9F4B832591",
"N  c #6F9250C02B23",
"B  c #74B854B52DA3",
"V  c #79C856472AF1",
"C  c #7E865ACB2F42",
"Z  c #7E0C5B1A3079",
"A  c #3B893D90400C",
"S  c #427E421B41A5",
"D  c #45AB47584966",
"F  c #4B274BA04C34",
"G  c #4FE44F154E19",
"H  c #4C944EED51CC",
"J  c #4E7751285477",
"K  c #540E53C05360",
"L  c #5C185C255C34",
"P  c #5BCD5E436143",
"I  c #5F5360206116",
"U  c #62D562F6631D",
"Y  c #642266246896",
"T  c #6BB06C116C87",
"R  c #70136FCA6F71",
"E  c #6DA26F7571B0",
"W  c #749F745273F3",
"Q  c #75AB76CF782C",
"!  c #7AE37AD77ACA",
"~  c #82EC5CDE2E6D",
"^  c #82B05E5631EF",
"/  c #875861E4342F",
"(  c #8DA7661D35DB",
")  c #8FD868193792",
"_  c #94E36BF139F6",
"`  c #99376EEB3B4A",
"'  c #9D9D727A3DD4",
"]  c #A27A75A23EE7",
"[  c #9E7773E23FE9",
"{  c #A4BA774A3FD7",
"}  c #A68B78E2412D",
"|  c #ACF57D8943A9",
" . c #B10E7F50429A",
".. c #B391820E45A3",
"X. c #B88F85B547A6",
"o. c #B75E853A480A",
"O. c #BA2A873D4916",
"+. c #BD6B89AF4A8B",
"@. c #8050800B7FB5",
"#. c #C3198D5C4BC7",
"$. c #C6E2909D4E63",
"%. c #CA0592644E7B",
"&. c #CECE967A51BC",
"*. c #D1D197C350EB",
"=. c #D5709A545233",
"-. c #DB0F9E8654A6",
";. c #DEEBA1525627",
":. c #E1E2A36E5736",
">. c #E51CA6115922",
",. c #E7C6A8405ABC",
"<. c #EBE6AACA5B53",
"1. c #F77FB3D56144",
"2. c #842D846784AE",
"3. c #882787E2878D",
"4. c #8622873B8891",
"5. c #8BA28B718B35",
"6. c #906F90298FD4",
"7. c #93C6942B94A5",
"8. c #97BB98759958",
"9. c #9E0A9DB79D51",
"0. c #A1019FBA9E29",
"q. c #A4CFA49BA45D",
"w. c #AAF2A9AAA818",
"e. c #AC72AC16ABA6",
"r. c #B0FEAFC5AE47",
"t. c #B188B0D4AFF9",
"y. c #B43CB3BCB31F",
"u. c #B8F2B84BB780",
"i. c #BD56BCC3BC10",
"p. c #C511C4D9C496",
"a. c #C84DC80FC7C3",
"s. c #CE4ACE18CDDB",
"d. c #D2F4D0DFCE53",
"f. c #D59DD521D489",
"g. c #DD33DCCDDC51",
"h. c #E0ADDF8DDE2D",
"j. c #E1AEE0D6DFCF",
"k. c #E528E4CDE45E",
"l. c #E964E882E76E",
"z. c #EBC1EB94EB5E",
"x. c #F0CDEEE2EC8A",
"c. c #F535F4C1F434",
"v. c #FA56F901F760",
"b. c #FFB4FFADFF9E",
/* pixels */
"=.=.=.=.=.=.=.=.=.=.=.-.=.=.=.=.=.=.=.=.=.=.=.=.=.=.=.=.=.-.=.=.=.=.=.=.=.=.=.=.=.-.=.=.",
"=.=.-.=.=.=.=.=.=.=.=.=.=.=.=.=.=.=.=.=.*.*.*.=.=.=.=.=.=.=.=.=.=.=.=.=.-.=.=.=.=.=.=.=.",
"=.=.=.=.=.=.=.=.=.=.=.*.*.*.=.=.=.=.=.=.;.,.,.;.=.=.=.=.=.=.*.*.=.=.=.=.=.=.=.=.=.=.=.=.",
"=.=.=.=.=.=.-.=.=.=.=.;.,.,.-.=.=.=.=.:.] l l ] ;.=.=.=.=.-.,.,.-.=.=.=.=.=.=.=.=.=.=.=.",
"=.=.=.=.=.*.=.=.=.=.;.| b n ..:.=.*.:._   , ,   ) :.*.=.;...n b | :.*.=.=.=.=.*.=.=.=.=.",
"=.=.=.=.;.;.=.=.*.:.`   + +   ] -.=.;.1 g b.b.j % -.=.;.]   O +   ` :.=.=.=.;.;.=.=.=.=.",
"=.=.=.-.| | -.-.=.-.1 g c.x.i 5 :.=.=.. U b.b.Y . *.=.;.5 i x.c.g 1 -.*.-.-.| | -.-.=.=.",
"=.-.&.e     4 +.;.*.  T b.b.L @ -.*.:.z o 9.9.O z :.*.-.@ L b.b.R   &.-.#.5     q %.-.=.",
"*.>.b   9.r.> w -.;.e = u.e.O z :.*.-.$.q     q $.-.*.:.z O e.u.> w ;.;.k * w.q.o x :.*.",
"=.-.# H b.b.!   &.-.O.3     0 #.-.=.=.-.;.0 6 :.=.=.=.-.#.5     3 O.-.*.  T b.b.L @ -.=.",
"*.:.8 u c.b.D @ =.=.-.-._   B ,.*.=.=.=.$.$ @ $.=.=.=.*.,.B   ` -.-.*.-.% A b.v.a 4 ;.=.",
"*.;.'   = >   / :.=.*.-.#.  3 *.=.=.*.:. .    | :.=.=.=.&.&   #.;.*.*.;._   > =   ` :.*.",
"=.=.:.| x k 6 #.-.*.*.;...    ' :.=.*.:.(   o ^ ,.*.*.:.`     ..-.*.=.-.#.q k x | ;.*.=.",
"=.=.=.-.<.*.  x >.*.=.-...X O z :.*.*.,.c a g z ,.*.=.:.z O X ..;.*.*.,.x   =.<.-.*.=.=.",
"=.=.=.*.*.%.3   } ;.&.;...+ U X #.-.*.>.2 Y T 1 >.*.=.#.. U +  .;.*.:.}   3 *.*.=.=.=.=.",
"=.=.-.=.=.;.e   w -.*.;. .  y.= V >.=.=.  7.9.  *.*.>.V = y.  ..;.*.-.q   e ;.=.=.=.=.=.",
"=.=.=.=.*.:.z = o ~ :.-.|   f.P 1 :.-.+.  i.a.  o.-.;.1 P f.  ..-.:.Z o - z >.*.=.=.=.=.",
"=.=.=.=.*.,.v s U   $.,.|   g.i.   .,._   k.l.  ) <.|   i.f.  | ;.&.  U j v <.*.=.=.=.=.",
"=.=.=.=.=.,.^ * d.* x <.|   s.b.> c 1.m * v.b.> n 1.c = b.s.  | <.c o f.> ~ >.*.=.=.=.=.",
"=.=.=.=.*.;.{   g.7.  O...  p.b.Y . ,.k s b.b.h 9 >.. Y b.p.  ..O.  5.k.  ] ;.*.-.=.=.=.",
"=.=.=.=.=.-.+.  w.b.r w ..  p.b.p.  ] 1 P b.b.Y # '   p.b.p.  ..w , b.u.  +.-.*.=.=.-.=.",
"-.=.=.=.=.=.=.  Q b.w.  b   p.b.b.d 5   7.i.i.8.  5 p b.b.p.  b   w.b.4.  *.-.=.=.=.=.=.",
"=.=.=.=.=.=.;.% H b.b.D   o 2.< F R   + S     K +   ! U j q.o   D b.b.P # ;.=.=.=.=.=.=.",
"=.=.=.=.=.*.>.k > h.b.f.+ .   t <         ! T         $ - X o + f.b.v.i w ,.=.=.=.=.=.=.",
"=.-.=.=.-.*.>.m   . j K +   p k.c.5.U W p.b.b.w.K F T k.g.<   : Q L :   m :.*.=.=.=.=.=.",
"=.=.=.=.=.*.:.^   F p - S 7.c.b.b.b.b.b.b.b.b.b.b.b.b.b.b.l.W t   + d   C ,.=.=.-.=.=.=.",
"=.=.=.=.=.=.-.#.  U b.b.b.b.b.b.c.k.g.f.s.s.s.s.f.g.k.c.b.b.b.b.b.b.U   O.-.*.=.=.=.=.=.",
"=.=.=.=.=.=.*.>.N   y.s.4.K p -                         - p K 4.f.u.  N ,.*.=.=.=.=.=.=.",
"-.=.=.=.=.=.=.=.*.&       : j L ! 5.9.w.t.y.y.t.w.9.7.! I b , o     4 *.-.=.=.=.=.=.=.=.",
"=.=.=.=.=.=.=.*.,.Z   0.c.b.b.b.b.b.b.b.b.b.b.b.b.b.b.b.b.b.b.c.w.  Z ,.*.=.=.=.=.=.=.=.",
"=.=.=.=.=.=.=.=.;.}   u.b.x.f.u.9.3.Q T U I I U T W 4.8.y.s.z.b.i.  ] :.=.=.=.=.=.=.=.=.",
"=.=.=.=.=.=.=.=.-.#.  s y           + - : < : - - +           t p   #.-.=.=.=.=.=.=.-.=.",
"=.=.=.=.=.=.=.=.=.=.& + L 3.y.s.k.c.b.b.b.b.b.b.b.b.c.k.d.y.5.L + & =.=.=.=.=.=.-.=.=.-.",
"=.=.=.=.=.=.=.=.-.$.  ! b.v.b.b.b.b.b.v.c.c.c.v.v.b.b.b.b.b.v.b.@.  %.-.=.=.=.=.=.=.=.=.",
"=.=.=.=.=.=.=.=.>._   i.g.9.Q F d < = X o       X - < d F Q 9.g.i.  _ ;.*.=.=.=.=.=.=.=.",
"=.=.=.-.=.=.=.*.>.v   -       + y j K U T R R T U K S p +       -   b >.*.=.=.=.=.=.=.=.",
"=.=.=.=.=.=.=.=.-.6   f 2.u.h.c.b.b.b.b.b.b.b.b.b.b.b.b.v.k.p.3.S   5 -.*.=.-.=.=.=.=.=.",
"=.=.=.=.=.=.=.-.+.  + 5.j.b.b.b.b.b.b.b.b.b.b.b.b.b.b.b.b.b.b.h.5.*   o.;.*.=.=.=.=.=.=.",
"=.=.=.=.=.=.=.=.=._ 0     + a J R 4.8.q.e.t.t.e.q.7.2.T F i o     5 ^ *.=.=.=.=.=.=.=.=.",
"=.=.-.=.=.=.-.=.=.:.;.#.` M k 1 .                     . 1 e m _ +.-.,.=.=.=.=.=.=.-.=.=.",
"=.=.=.=.=.=.=.=.=.*.=.-.:.,.,.:.-.&.%.+.+.O.O.O.+.$.*.-.:.,.,.:.-.=.=.=.=.=.=.=.=.=.-.=.",
"=.=.=.=.=.=.=.=.=.=.=.=.=.*.*.*.=.-.-.-.-.;.;.-.-.-.-.=.*.*.*.=.=.=.=.=.=.=.=.=.=.=.=.=.",
"=.=.=.=.=.=.-.=.=.=.=.=.=.=.=.=.=.=.=.=.=.=.=.=.=.=.=.=.=.=.=.=.=.=.=.=.=.-.=.=.=.=.=.=.",
"=.=.-.=.=.=.=.=.=.=.=.=.=.=.=.=.=.=.=.=.=.=.=.=.=.=.=.=.=.=.=.-.=.=.=.=.=.=.=.=.=.=.=.=."
};
