/* XPM */
static char *qld__[] = {
/* columns rows colors chars-per-pixel */
"60 60 137 2",
"   c #009D008E0082",
".  c #0A47061C0104",
"X  c #0D9B095E0433",
"o  c #06DC0783084E",
"O  c #057908370B92",
"+  c #0AAA0A670A16",
"@  c #12CB0D0F0611",
"#  c #12FF0E6008BF",
"$  c #19F9118E0749",
"%  c #172810AA08D7",
"&  c #1C7C14C80B62",
"*  c #0CDC0E631041",
"=  c #0F850FC3100F",
"-  c #13A0137D1351",
";  c #181117D5178B",
":  c #1B471B181ADF",
">  c #203B17110BE3",
",  c #24B21AA20E59",
"<  c #26291C190FD2",
"1  c #289D1DD810B3",
"2  c #2D5620B91157",
"3  c #232D21381ED5",
"4  c #339725681419",
"5  c #3705284B1652",
"6  c #3C422B8F172E",
"7  c #3C622C7118FD",
"8  c #244A23D9234F",
"9  c #27E827822707",
"0  c #2A1028782684",
"q  c #2D0F2C322B26",
"w  c #31B42FDF2DAD",
"e  c #33DD336D32E4",
"r  c #3D0F3CA13C1B",
"t  c #409D2F0B1999",
"y  c #447D32311BDD",
"u  c #4A0D36301DF4",
"i  c #4CB9383E1F41",
"p  c #50973A4F1F20",
"a  c #4F8D39FB1FA8",
"s  c #52183C292165",
"d  c #5AFB42502436",
"f  c #41C040493E7E",
"g  c #621846F725DC",
"h  c #638B4809266C",
"j  c #66434AD92964",
"k  c #6B214E462B0E",
"l  c #6EB9510F2CDD",
"z  c #747B54D92E3E",
"x  c #78AD57472E84",
"c  c #7A8758982F2E",
"v  c #765856B5301A",
"b  c #7C675A733105",
"n  c #44E5442E434E",
"m  c #47F34792471A",
"M  c #48AE48204771",
"N  c #4BEE4B5C4AAB",
"B  c #50A64F584DBC",
"V  c #50E5502C4F4C",
"C  c #544A53E7536F",
"Z  c #5902584B576C",
"A  c #5D725CD35C11",
"S  c #60445F615E4C",
"D  c #617060925F80",
"F  c #64EC642A633E",
"G  c #684367DE6763",
"H  c #68646803678E",
"J  c #6D216C7E6BB8",
"K  c #70816FB46EBA",
"L  c #70CC70536FC1",
"P  c #750B7443734F",
"I  c #7E217D8B7CD4",
"U  c #824F5E8A32E3",
"Y  c #8619611F33FE",
"T  c #8A1C643A35FE",
"R  c #8B6665E4381D",
"E  c #95556C5A3A57",
"W  c #9C6871CB3DCA",
"Q  c #A1B5751A3EAB",
"!  c #A4137787412C",
"~  c #A6C0791A4165",
"^  c #AC477CE04308",
"/  c #80AA7FEB7F0B",
"(  c #AFDD801345C1",
")  c #B48082DC4648",
"_  c #B66984A847F1",
"`  c #BAAA87A54962",
"'  c #BD36892749A1",
"]  c #810280437F59",
"[  c #C3598D774BB7",
"{  c #C7BC908B4D32",
"}  c #CBDB93774EA5",
"|  c #CF4095ED4FFA",
" . c #D21697E750E7",
".. c #D58B9A655236",
"X. c #DA329DC45404",
"o. c #DEECA13155DB",
"O. c #E266A3B2572C",
"+. c #E50AA59A582F",
"@. c #EBDFAA8C5AD3",
"#. c #F1C9AED85D26",
"$. c #84AA84118357",
"%. c #886887888677",
"&. c #88C1885287CB",
"*. c #8C218B7D8AB3",
"=. c #90628FC48F03",
"-. c #90D290338F71",
";. c #96029545945F",
":. c #992497C1960E",
">. c #9DA59CD19BD0",
",. c #A0CE9FEC9ED8",
"<. c #A26DA12D9FA6",
"1. c #A516A442A33F",
"2. c #A90DA7BDA622",
"3. c #AA3BA902A785",
"4. c #ACB9ABF9AB10",
"5. c #B0E1AFA0AE18",
"6. c #B515B452B363",
"7. c #B85EB72BB5B4",
"8. c #BAA1B96DB7F4",
"9. c #BE4ABD80BC89",
"0. c #C127C011BEBE",
"q. c #C19AC09CBF68",
"w. c #C5D1C526C455",
"e. c #C895C80AC761",
"r. c #C94AC8AAC7E7",
"t. c #CDACCD2ACC8A",
"y. c #D148D084CF90",
"u. c #D5EAD564D4C0",
"i. c #DCABDC28DB8A",
"p. c #E198E0E9E015",
"a. c #E4EFE490E41C",
"s. c #E913E8ADE830",
"d. c #ED09EC91EBFF",
"f. c #F0B1F02FEF90",
"g. c #F654F617F5CD",
"h. c #F87AF878F875",
"j. c #FF38FF37FF35",
/* pixels */
"....X.............................X.....X.................X.........................................................X...",
"........................X.....................................................X...............................X.........",
"........................................................ ...............................................................",
"........X...........X...................................o.+.+.X...................................X.....................",
".............................. ...X...................o.^ b b ) O...................X... .........................X.....",
"..............................O.X.} ..+.............o.h         g X.............+...| X.o...................X...........",
"............................o.E 4 @ > k ..........O.b   % A S -   b O.......X. .j > @ 4 E o.............................",
".......... ..... ....... .O.U           6 X.........1   4.j.j.6.  , ........X.6           U O......... ..... ...........",
"........X.+.X.O.+.......X.[ @   -.s.w.0   T +. .X.| @   a.j.j.a.o X [ X. .O.Y   0 e.a.;.  @ [ X.......+.O.o.+.X.........",
"X.....X.} k 6 6 b ..X. .o.W   r j.h.j.;.  s O. ... .<   7.j.j.8.  > ......O.s   ;.j.h.j.r   W O. .X.X.b t 6 j [ o.......",
"....X.[ >         4  ...O.W   r j.h.j.:.  s O. ...+.v   ; P P :   z +. . .O.s   ;.j.h.j.r   W o.....6         & ' X.....",
"....O.i   n 6.4.w   k O...[ X   ,.d.t.q   U +. . ...X.a         p X..... .O.U   q y.d.>.  X [ ..O.x   0 1.8.N   y X.....",
"....{ X o i.j.j.9.  1 ....O.x     o     4 ............O.E # # E O.............4     +     x O. .X.4   5.j.j.a.+ . ' X...",
"..X.' . + d.j.j.u.  &  .....O.T 1 X   u  .X...........X.`     ) o. .........X. .y   X 1 T o.......1   r.j.j.g.:   ` X...",
"......,   >.j.j.I   t o.......o.+.U   5 X........... .O.Y     U +. .............4   U +.O.......O.a   L j.j.4.  & | X...",
"....O.Y   o q 9     Q o. .....} +.U     W O...........+.g     d +. ....... .o.W     U +.} ......o.^     8 q o   c O. ...",
"......o.b X     X U +......... .O.c     s O...........o.6     4 X...........+.s     c +. ....... .+.T #     X x o.......",
"........O.} ^ ! & 2 .......... .+.c     @ } X......... .@ : : X | X.......X.[ X     c +. .........X.1 , ^ ^ [ O.........",
"............O.o.>   x +. .......O.x   3   Y O. .....X.`   B A   ) X..... .+.U   3   x O. ..... .+.c   , o.o.X.........X.",
"............ .X.6   X [ X..... .+.x   P O 4 o..... .O.W   ] *.  E O. .....X.4 o P   x +. .....X.[ @   t o. .............",
"..............+.d     p O..... .+.x   2.M   _ o... .+.l   4.8.  k O. ...o._   M 2.  v +.| ....O.p     d +. .............",
"............ .+.x   .   Q O. . .+.z   6.<.  l +. . .o.a   y.i.  t O... .+.k   <.6.  x +. ...O.Q       x O. .............",
"..............O.E   9   2 X.....+.z   4.f.  > ........>   d.g.+ &  .......&   d.4.  z +.| ..X.2   q   E O.......X.......",
"......X..... .o.^   F N   b +.| +.l   1.j.M   ! o.X.[   9 j.j.w   ' X.O.W   M j.1.  l +.| +.U   M J   ^ o...............",
"..............X.[   r e.  @ [ ..O.l   <.j.1.  s O.o.~   C j.j.A   W o.o.s   ,.j.1.  k +.X.[ %   e.N   [ X...............",
"..............X...@ * j.F   d O.O.k   1.j.d.; . [ +.b   I j.j.$.  v @.[ . - d.j.1.  k +.O.d   A j.: @ ..................",
"......X.........o.4   i.d.+   ~ @.j   1.j.j.F   Y #.s   4.j.j.6.  u #.U   F j.j.1.  j @.~   + a.d.  4 o.................",
".............. .O.s   5.j.$.  5 @.j   1.j.j.9.  5 +.2   t.j.j.u.  < o.5   8.j.j.1.  j @.4   ] j.0.  i O.............X...",
"................+.z   &.j.g.q   E v   1.j.j.h.9   ~ @ + d.j.j.g.; X Q   9 g.h.j.1.  z E   0 d.j.>.  l +. ...............",
".............. .O.R   F j.j.4.  1 s   1.j.g.j.I   y   r d.] I d.r   7   P j.h.j.1.  s 1   4.j.j.P   T O.................",
"................O.~   r j.h.j.M   +   >.P ; F 9.o     N r     M F     o e.I r 6.2.  +   M j.h.j.B   ! O.............X...",
"................X.`   ; g.j.j.r..     9       8 -   o o   0 9   -     : e     + n     . r.j.j.j.0   ` X.................",
"........X.......X.| %   Z i.h.j.J   o     :.A           m d.i.9           r I     o   P j.j.h.-.  @ } ..................",
"..................X.2       e s :     + 2.j.j.t.&.P $.e.j.j.j.g.1.A N F 4.g.j.&.      r F C :     1 X.............X.....",
"......X......... .O.y   9 * O     ; F i.j.h.j.j.j.j.j.j.h.h.h.j.j.j.j.j.j.j.h.j.9.e         o -   y o...................",
"................ .+.z   f d.e.9.t.d.j.j.j.j.j.j.j.j.j.j.j.j.j.j.j.j.j.j.j.j.j.j.j.j.u.1.;.,.y.e   k +. .................",
"..................X.{ &   ,.j.j.j.j.j.j.g.s.u.e.8.4.1.:.;.;.;.;.>.1.4.7.w.u.a.g.j.j.j.j.h.j.2.  & [ X...................",
".................. .+.U   : s.a.4.I C e ;                                     ; e C I 5.a.d.8   U +...............X.....",
"......................X.2   : o           ; q r N A F J P P P P J F A C f q : o         o 8   2 X.....X.................",
"....X.......X.........O.W     : V $.4.t.a.g.j.j.j.j.j.j.j.j.j.j.j.j.j.j.j.j.h.s.y.6.*.Z <     Q o...........X...........",
"..X.......X...............<   0.j.j.j.j.j.j.j.j.j.j.j.j.j.j.j.j.j.j.j.j.j.j.j.j.j.j.j.j.r.  , X.........................",
"........................O.y   <.j.j.j.j.d.i.r.7.2.:.;.&.$.I $.$.&.*.;.1.6.w.u.s.h.j.j.j.2.  y o.........................",
"...................... .+.k   F 6.J m 9 +                                     o : n F 4.D   l +. ...............X.......",
"........................+.R             ; q M A J I &.*.;.;.;.;.=.&.I P A M e : o       .   R O. .......................",
"...................... .O.^   + J 1.e.a.g.j.j.j.j.j.j.j.j.j.j.j.j.j.j.j.j.j.j.h.a.e.2.L +   ^ o.........................",
"..........X........... .O.T   n j.j.j.j.j.j.j.j.j.j.j.j.j.j.j.j.j.j.j.j.j.j.j.j.j.j.j.j.M   T +.........................",
"......X.................+.s   *.j.j.j.g.i.r.6.>.*./ P J H F F H J P ] *.>.6.r.i.g.j.j.j.=.  s +.........X...............",
"..........................&   2.4.H f : o                                     o : r F 4.2.  & | ..................X.....",
"......................X.^     o           : e m A J I $.&.*.*.*.$.I P A N e : +         +     ^ o...................X...",
".................... .+.c   .   - M $.8.i.g.j.j.j.j.j.j.j.j.j.j.j.j.j.j.j.j.g.a.9.-.C :   .   x +. .....................",
"......................O.y   3 4.j.j.j.j.j.j.h.h.h.h.h.h.h.h.h.h.h.h.h.h.h.h.j.j.j.j.j.j.9.0   t o.......................",
"......X.......X.........1   + r P 4.u.g.j.j.j.j.j.j.j.j.j.j.j.j.j.j.j.j.j.j.j.j.f.y.1.J e o   & | ......................",
"X.....................X.[ g %         : r Z P &.>.3.6.9.9.w.w.0.8.6.2.:.$.J V e -         @ p ) X.......X...........X...",
"........................X.+. .~ b a <                                           . > y z W } +.X.........................",
".......................... ...O.+.O.X.{ ) Q T b k d s u y y y y u s d j v T W ) [ ..O.O.O.X.............................",
"..............X................. . ...X.X.o.+.+.+.O.O.O.O.O.O.o.O.O.+.+.+.+.O.X.X..... ...............X.................",
"..........X...............X............... . ... . . ....... ..... . . ..... .............X.................X...........",
"........................................X...............................................................................",
"........................................................................................................................",
"....X...............X...............................................................................X.............X....."
};
