/* XPM */
static char *qld__[] = {
/* columns rows colors chars-per-pixel */
"64 64 137 2",
"   c #009D0082006B",
".  c #09550638026C",
"X  c #0C1C094E05E2",
"o  c #0C270B9C0AF3",
"O  c #128F0D600710",
"+  c #13800E970895",
"@  c #158B10E50B39",
"#  c #1B7314660BCC",
"$  c #0DF60EC50FC4",
"%  c #1383133112CE",
"&  c #1804176616A6",
"*  c #1863179A16A6",
"=  c #175617A61807",
"-  c #1C221B8C1AD5",
";  c #1FE317350C9D",
":  c #22DC19910E3A",
">  c #24401B0C0FCE",
",  c #29591E4A10D0",
"<  c #20621F561E0F",
"1  c #2E2A219A1245",
"2  c #225E20C91EDC",
"3  c #346F265B152D",
"4  c #36F928271611",
"5  c #3B6D2AE016AE",
"6  c #3C672CA6196C",
"7  c #23DE234A2296",
"8  c #2978287E274F",
"9  c #2B552AF52A80",
"0  c #2FFC2F432E62",
"q  c #34F93455338D",
"w  c #3873374635D6",
"e  c #396A37DA35F2",
"r  c #3BFC3B5F3AA1",
"t  c #40792F3F1A3A",
"y  c #4361313A1B14",
"u  c #4DA1381E1DDD",
"i  c #512E3ABF1F62",
"p  c #4F503A1F2044",
"a  c #54FE3DFE21ED",
"s  c #40663F4A3DF0",
"d  c #5C09433E24FC",
"f  c #40533FF83F8A",
"g  c #615946E0268F",
"h  c #644448D42758",
"j  c #652D4A0F28F7",
"k  c #6AE94DBE2A27",
"l  c #6F05509E2B85",
"z  c #760655D52E8C",
"x  c #783357C63033",
"c  c #7C785AAC316D",
"v  c #44E8445B43AF",
"b  c #4804478746EE",
"n  c #49F048A3470D",
"m  c #4C254B724A98",
"M  c #503C4FC74F39",
"N  c #518550414EB8",
"B  c #5426539552E3",
"V  c #5851574C560E",
"C  c #59CD58A5573D",
"Z  c #5C885BAF5AA6",
"A  c #60F05FAB5E1F",
"S  c #620E5FF75D6C",
"D  c #6539649963D6",
"F  c #6851673E65EE",
"G  c #6C456BB46B02",
"H  c #71116FB76E0F",
"J  c #70E570596FAF",
"K  c #755574A273C8",
"L  c #786077A476BE",
"P  c #7CDB7C1C7B33",
"I  c #85D4616834F5",
"U  c #8BA7652C3635",
"Y  c #8FED680D3765",
"T  c #8CB166A53838",
"R  c #8F48688D394A",
"E  c #90486851378C",
"W  c #93486B293A32",
"Q  c #99986F8C3C3B",
"!  c #9CE571D23D42",
"~  c #A2B475C63EF3",
"^  c #A37A76C54036",
"/  c #A776794C40F5",
"(  c #ABC87C64428E",
")  c #805A7F617E30",
"_  c #B58D838B4684",
"`  c #BA2A8691479A",
"'  c #BAB7871F482A",
"]  c #BE6189B04964",
"[  c #816780847F6E",
"{  c #C3AA8D8F4B89",
"}  c #C7FE90994CFE",
"|  c #CB46930D4E70",
" . c #CF6495FC4FEE",
".. c #D190978550B0",
"X. c #D58D9A665236",
"o. c #DAFD9E555450",
"O. c #DF0DA14555E0",
"+. c #E23BA3925719",
"@. c #E4DAA576581B",
"#. c #E94BA8AC59CF",
"$. c #F254AF365D4D",
"%. c #85C485018414",
"&. c #88DB878885E9",
"*. c #8BE98B778AEC",
"=. c #90A68FD58ED6",
"-. c #94A093F69326",
";. c #985B975B9623",
":. c #9A66993297B8",
">. c #9CB29C079B37",
",. c #A05A9F649E39",
"<. c #A0A8A0329FA3",
"1. c #A547A488A3A1",
"2. c #A8E5A803A6EF",
"3. c #A943A880A793",
"4. c #ADAAAD0EAC4F",
"5. c #B081B01AAF9C",
"6. c #B4E0B43DB375",
"7. c #B8E4B874B7EC",
"8. c #BDCABD28BC60",
"9. c #C0FAC091C011",
"0. c #C4CCC442C398",
"q. c #C8F8C86CC7C2",
"w. c #CD21CC9DCBFD",
"e. c #D0A0CFAFCE8A",
"r. c #D1B9D0E3CFDD",
"t. c #D4DFD472D3ED",
"y. c #D91DD825D6F8",
"u. c #DBE8DB71DAE0",
"i. c #E102E084DFEB",
"p. c #E59EE53BE4C3",
"a. c #E893E7F4E72E",
"s. c #E8B4E869E80E",
"d. c #ECBDEC6AEC05",
"f. c #F0C4F07FF02B",
"g. c #F569F534F4F2",
"h. c #F887F826F7B0",
"j. c #FF3CFF3AFF38",
/* pixels */
"X.X.X.X.X.X.X.X.X.X.X.X.X.X.X.X.X.X.X.X.X.X.X.X.X.X.X.X.X.X.X.X.X.X.X.X.X.X.X.X.X.X.X.X.X.X.X.X.X.X.X.X.X.X.X.X.X.X.X.X.X.X.X.X.",
"X.X.X.X.X.X.X.X.X.X.X.X.X.X.X.X.X.X.X.X.o.X.X.X.X.X.o.X.X.X.X.X.o.X.X.X.X.X.X.X.X.X.X.X.X.X.X.X.X.X.X.X.X.X.X.X.X.X.X.X.X.X.X.X.",
"X.X.X.X.X.X.X.X.o.X.X.X.X.X.o.X.X.X.X.X.X.X.X.X.X.X.X.X.X.X.X.X.X.X.X.X.o.X.X.X.X.X.X.X.X.X.o.X.X.X.X.X.X.X.o.X.X.X.X.X.X.X.o.X.",
"X.X.X.X.X.X.X.X.X.X.X.X.X.X.X.X.X.X.X.X.X.X.X.X.X.X.X.X.X...X.O.o.X.X.X.X.X.X.X.X.X.X.X.X.X.X.X.X.o.X.X.X.X.X.X.o.X.X.X.X.X.X.X.",
"X.X.X.X.X.X.X.X.o.X.X.X.X.X.X.X.X...X...X.X.X.X.X.X.X.X.X.+.X._ _ X.+.X.X.X.X.X.X.X.X.X.....X.X.X.X.X.X.X.X.X.X.X.X.X.X.X.X.X.X.",
"X.o.X.X.X.X.X.X.X.X.X.X.X.X.X.X.X.@.@.@.O.X.X.X.X.X.X.X.+.T #     ; T +.X.X.X.X.X.X.X.O.@.@.+.X.X.X.X.X.X.X.X.X.X.X.X.X.X.X.X.X.",
"X.X.X.X.X.X.X.X.X.X.X.X.X.X.X.o.X.T j k ~ O.X.X.X.X.X.+.I     . .     I +...X.X.X.X.O.~ k j T X.o.X.X.X.X.X.X.X.X.X.X.X.X.X.X.X.",
"X.X.X.X.o.X.X.X.X.X.X.X.X.X.o.{ ,         a o.X.X.X.o.| #   H a.p.K   # } o.X.X.X.o.i         1 { o.X.X.X.X.X.X.X.X.X.X.X.o.X.X.",
"X.X.X.X.X.X.o.o.o...X.X.X.X.X.4   - Z N o   k @.X...+./   % d.j.j.g.%   ~ O.X.X.+.k   o N Z -   3 o.X.X.X.X...o.O.o.X...X.X.X.X.",
"X.X.X.X.o.O.] _ { +.X.X.X.O.~   o y.j.j.>.  #  .X.X.O.~   & g.j.j.h.-   ! +...X.| #   ,.j.j.y.o   ~ O.X.X.X.+.} _ ] +.o.X.X.X.X.",
"X.X.X.O.] 6 .   O d X.o...@.I   e j.h.j.p..   _ o.X.o.{ O   >.j.j.<.  X { o.X.o._   . i.j.h.j.e   I @...X.o.h O     6 ' O.X.X.X.",
"X.X.o.} #     o     t o.X.+.E   7 h.j.j.q.  X ] o.X...+.k     9 9     j +...X.o.{ X   q.j.j.h.7   E @...o.u     o     @ { o.X.X.",
"X...@.h   0 w.d.5.@   T O.X.{ +   Z 9.6.q   t O.X.X.X.X.o.g         g o.X.X.X.X.o.t   q 6.8.Z   + { X.+.!   o 2.d.t.e   a +...X.",
"X.X.o.1   >.j.h.j.F   d @. .+.T           + ` o...X.X.X.X.@./ O X / @.X.X.X.X.X.o.` +           U +. .@.j   V j.h.j.4.  : X.X.X.",
"X.X.X.,   3.j.g.j.K   a +...X.+.~ 6 # X , ] O.X.X.X.X.X...O.~     ! O.X.X.X.X.X.X.O.` , X # 6 ~ +.X.X.@.d   S j.h.j.7.  # ..X.X.",
"X.X.+.p   m h.j.p.7   c @.X.X...O.#./ .   ( O.X.X.X.X.X...+.z     l @...X.X.X.X.X.o./     / #.+...X...+.U   - u.j.j.C   y +.X.X.",
"X.X.O.(     - e %   ; | o.X.X.X...+.~     d @...X.X.X.X.X.+.u     y +...X.X.X.X.X.@.a     ^ O. .X.X.X.X...,   @ e -     / O.X.X.",
"X.X.X.O.! +       : ` o...X.X.X...+.~     @ | o.X.X.X.X.X.X.,     : X.X.X.X.X.X.o.} @     ! O...X.X.X.X.o.{ ,       + E O.X.X.X.",
"X.X.X.X.+.} E E h . I @...X.X.X...+.Q       Y +...X.X.X.o.{ . % -   { o.X.X.X.X.+.U       ! +.X.X.X.X.X.@.I . z E E  .O.X.X.X.X.",
"X.X.X.X.X.o.@.$.E   + { o.X.X.X.X.+.Q   @   t +.X.X.X...O.(   m B   ^ O.X.X.X.X.O.5   @   ! O.X.X.X.X.o.{ +   W $.+.o. .X.X.X.X.",
"X.X.X.X.X.X. .O.~     a @...X.X.X.+.!   m 9   ' o.X.X.X.@.I   P &.  c @...X.X.o.'   9 m   ! O...X.X.X.@.d     ~ o. .X.X.X.X.X.X.",
"X.o.X.X.X.X.X.o.' .     / O.X.X...O.!   G P   x @.X.X...@.d   1.6.  a @...X...@.z   P F   ! +.X.X...+./     . ] o.X.X.X.X.X.X.X.",
"X.X.X.X.X.X.X.X.| @     3 o.X.X.X.O.!   F r.  , X.X.X.X.O.4   w.y.  3 o.X.X.X.X.,   e.F   ! +...X.X.o.3     @ | o.X.X.X.o.X.X.X.",
"X.X.X.X.X.X.X.X.o.1   o   I @...X.+.W   Z j.9   / O...X. .+ . s.g.o . } o...+.^   8 j.Z   W +.X...@.I   o   3 o.X.X.X.X.X.X.X.X.",
"X.X.X.X.X.X.o.X.O.y   Z   @ } o. .+.W   V j.P   d @...O._   7 h.j.9   ( O. .@.d   P j.V   E +...o.} @   D   y @...X.X.X.X.X.X.X.",
"X.X.X.X.X.X.X...@.j   :.N   g @. .@.E   Z j.t.  O } X.+.E   m j.j.V   I @.X.} +   w.j.Z   W @. .@.h   n 1.  j @.X.X.X.X.X.X.X.X.",
"X.X.X.X.X.X.X. .@.I   K t.  . ( o.+.W   Z j.j.v   T +.+.k   L j.j.%.  j +.+.T   s j.j.Z   R +.o.(     w.%.  I @. .X.X.X.X.X.X.X.",
"X.X.o.X.X.X.X.X.O.~   f j.A   6 o.+.T   Z j.j.:.  y o.O.y   1.j.j.4.  5 o.o.t   ;.j.j.Z   T +.o.y   C j.M   ~ O.X.X.X.X.X.o.X.X.",
"X.X.o.X.X.X.X.X.o.`   - j.p.@   U #.I   Z j.j.p.o   ' o.#   w.j.j.y.  @ X.]   o p.j.j.Z   U $.U   + u.j.9   ' O.X.X.X.X.X.X.X.X.",
"X.X.X.X.X.X.X.X.o.} +   u.j.%.  * O.U   Z j.h.j.C   x  .  $ s.j.j.d.%   { x   V j.h.j.Z   T o.#   [ j.s.o X  .X.X.X.X.X.X.X.X.X.",
"X.X.X.X.X.X.X.X.X.X.,   8.j.g.9   x Q   Z j.h.j.4.  3 !   q j.j.j.j.w   W 4   4.j.h.j.Z   W x   8 g.j.t.  > X.X.X.X.X.X.X.X.X.X.",
"X.X.X.X.X.X.X.X.X.O.y   :.j.j.4.  @ g   Z j.h.j.h.-   6   Z s.K G s.F   5   = d.j.h.j.Z   g @   1.j.j.4.  6 O.X.X.X.X.o.X.X.X.X.",
"X.X.o.X.X.X.X.X.X.@.d   G j.h.j.m   o   D 7.7 9 7.P   o   F 0     e P   o   L w.m Z s.A   o   b j.h.j.&.  d @.X.X.X.X.X.X.X.X.o.",
"X.X.X.X.X.X.X.X...@.c   m j.j.j.w.      9 %     o w       o   - -   =       m %     q r       q.j.h.j.S   x @.X.X.X.X.X.X.X.X.X.",
"X.X.X.X.X.X.X.o.X.+.W   o ;.h.j.j.L   .     e L             9 u.q.%             M 0     .   P j.j.j.t.-   E +...X.X.X.X.X.X.X.X.",
"X.X.X.X.X.X.X.X.X.O.(       7 D L b       q p.j.r.L v r C 1.h.j.j.p.L q - 7 m 4.j.y.-       J <.*.m o     / O.X.X.X.X.X.X.X.X.X.",
"X.X.X.X.X.X.X.X.X.o.{ .   o           o P g.j.h.j.j.j.j.j.j.j.j.j.j.j.j.h.h.j.j.j.j.p.m                 . ] o.X.X.X.X.X.X.X.X.X.",
"X.X.X.X.X.X.X.X.X.X.X.:   F 4.G F P 1.s.j.h.h.j.h.j.j.j.j.j.j.j.j.j.j.j.j.j.j.h.j.h.h.j.q.L m r b P B   # X.X.X.X.X.X.X.X.X.X.X.",
"X.X.X.X.X.X.X.X.X.X.+.l   - s.j.j.j.j.j.j.j.j.j.j.j.j.h.h.g.f.d.d.f.g.h.h.j.j.j.j.j.j.j.j.j.j.j.j.d.-   l @...X.o.X.X.X.X.X.o.X.",
"X.X.X.o.X.X.X.X.X.X.X...>   D j.j.j.d.t.5.-.L Z m e 9 7 - % % % % % % - 7 9 w m Z K =.6.r.d.j.j.j.F   > X.X.X.X.X.X.X.X.X.X.X.X.",
"X.X.X.X.X.X.X.X.X.X.X.+.T   X -.P r %                                                     % r P :.o   R @.X.X.X.X.X.X.o.X.X.X.X.",
"X.X.o.X.X.X.X.X.X.X.X.X.O.4           % q B G %.>.4.7.q.w.t.y.y.y.y.t.w.q.8.4.>.*.K V w %           5 O.X.X.X.X.X.X.X.X.X.X.X.X.",
"X.X.X.X.X.X.X.X.X.X.X.X.+./     Z 1.w.d.j.j.j.j.j.j.j.j.j.j.j.j.j.j.j.j.j.j.j.j.j.j.j.j.g.t.4.F .   / +...X.X.X.X.X.X.X.X.X.X.X.",
"X.X.X.X.X.X.X.X.X.X.X.X.X...#   7.j.j.j.j.j.j.j.j.j.j.j.j.j.j.j.j.j.j.j.j.j.j.j.j.j.j.j.j.j.j.0.  #  .X.X.X.X.X.X.X.X.X.X.X.X.X.",
"X.X.X.X.X.X.X.X.X.X.X.X.X.o.5   =.j.j.j.s.t.7.>.*.P F Z V m n b b b m B Z F L %.>.6.w.p.h.j.j.;.  5 o.X.X.X.X.X.X.X.o.X.X.o.X.X.",
"X.X.X.o.o.X.X.X.X.X.X.X...@.d   m *.m 9 o                                             . 7 v %.b   d @...o.X.X.X.X.X.X.X.X.X.X.X.",
"X.X.X.X.X.X.X.X.X.X.X.X.X.+.c           X 7 r V F P *.:.1.1.4.5.4.4.4.1.:.*.P G V r 7 o           c @...X.X.X.X.X.X.X.X.X.X.X.X.",
"X.X.X.X.X.X.X.X.X.X.X.X.X.+.!   o G 1.q.s.h.j.j.j.j.j.j.j.j.j.j.j.j.j.j.j.j.j.j.j.j.j.p.w.1.K o   ! O.X.X.X.X.X.X.X.X.X.X.X.X.X.",
"X.X.X.X.X.X.X.X.X.o.X.X...@.x   e j.j.j.j.j.j.j.j.j.j.j.j.j.j.j.j.j.j.j.j.j.j.j.j.j.j.j.j.j.j.s   x @...X.X.X.X.X.X.X.X.X.X.o.X.",
"X.X.o.X.X.X.X.X.X.X.X.X.X.O.y   P j.j.j.j.h.p.y.0.4.1.-.*.%.P P P P %.*.-.1.4.9.y.s.h.j.j.j.j.P   y O.X.X.X.X.X.X.X.X.X.X.X.X.X.",
"X.X.X.X.X.X.X.X.X.X.X.X.o.} +   7.u.:.F v 7 o                                     o 7 v F ;.u.7.  + } o.X.X.X.X.X.X.X.X.X.X.X.X.",
"X.X.X.X.X.X.X.X.X.X.X.X.+.!   . 7               o - 9 e v m M V B B m b r 9 7 %               - .   ! O.X.X.X.X.X.X.X.X.X.X.X.X.",
"X.X.X.X.X.X.o.X.X.X.X...@.k         o q D =.7.t.s.h.j.j.j.j.j.j.j.j.j.j.j.j.h.s.y.8.:.G r %         j @.X.X.X.X.X.X.X.X.X.X.X.X.",
"X.X.X.X.X.X.X.X.X.X.X.X.o.4   % F 4.p.j.j.j.j.j.j.j.j.j.j.j.h.j.j.h.j.j.j.j.j.j.j.j.j.j.j.d.0.L -   3 o.X.X.X.X.o.X.X.X.X.X.o.X.",
"X.X.X.o.X.X.X.X.X.X.X.o.{ X   2 :.p.j.j.j.j.j.j.j.j.j.j.j.j.h.j.h.j.j.j.j.j.j.j.j.j.j.j.j.h.u.;.7   . ' o.X.X.X.X.X.X.X.X.X.X.X.",
"X.X.X.X.X.X.X.X.X.X.X.X...d         - N ) 1.0.u.d.h.j.j.j.j.j.j.j.j.j.j.j.j.g.a.t.8.>.K b -         y { o.X.X.X.X.X.X.X.X.X.X.X.",
"X.X.X.X.X.X.X.X.X.X.o.X.X.+.' z 6 o             o - 9 w r v m m m m v r q 7 - o             . 3 k ( +.o.X.X.X.X.X.X.o.X.X.X.X.X.",
"X.X.X.X.X.X.X.X.X.X.X.X.X.X.o.@.O.} / I j y , +                                 + , t d c ^ { o.@.O...X.X.X.X.X.X.X.X.X.X.X.X.X.",
"X.X.X.X.X.X.X.X.X.X.X.X.X.X.X...X.X.O.@.@.O.o. .{ ' ( ^ ! W E R T R E Q ^ / _ { | X.+.@.@.O.o.X.X.X.X.X.X.X.X.X.X.X.X.X.X.X.X.X.",
"X.X.X.X.o.X.X.X.X.X.X.X.X.X.X.X.X.X.X.X...X.X.X.o.O.O.+.+.@.+.+.@.@.@.@.+.O.o.o.o.X...X.X.X.X.X.X.X.X.X.X.o.X.X.X.X.X.X.X.X.X.X.",
"X.o.X.X.X.X.o.X.X.o.X.X.X.X.X.o.X.X.X.X.X.X.X.X.X.X...X.X.X...X.....X.X.X.X...X.X.X.X.X.X.X.X.X.X.X.X.X.X.X.X.X.X.X.X.o.X.X.X.X.",
"X.X.X.X.X.X.X.X.X.X.X.X.X.X.X.X.X.X.X.X.X.X.X.X.X.X.X.X.X.X.X.X.X.X.X.X.X.X.X.X.X.X.X.X.X.X.X.X.X.X.X.X.X.o.X.X.X.X.X.X.X.o.X.X.",
"X.X.X.X.X.X.X.X.X.X.X.X.X.X.X.X.X.X.o.X.X.X.X.X.X.X.X.X.X.X.X.X.X.X.X.X.X.X.X.X.X.X.X.X.X.o.X.X.X.X.X.X.X.X.X.X.X.X.X.X.X.X.X.X.",
"X.X.X.X.X.X.X.X.X.X.X.X.X.X.X.X.X.X.X.X.X.X.X.X.X.X.X.X.X.X.X.X.X.X.X.X.X.X.X.X.X.X.X.X.X.X.X.X.X.X.X.X.X.X.X.X.X.X.X.X.X.X.X.X."
};
