/* XPM */
static char *qld__[] = {
/* columns rows colors chars-per-pixel */
"88 88 137 2",
"   c #00BE00A60091",
".  c #08EB06BE041B",
"X  c #0BFD093F05E6",
"o  c #0B7A0B0D0A88",
"O  c #119D0CD106F7",
"+  c #13310E8508D3",
"@  c #152310470A58",
"#  c #1C0D14720B29",
"$  c #146C13EE1356",
"%  c #186F17E11733",
"&  c #1C1F1BA01B05",
"*  c #203817480C5F",
"=  c #23E31A110E14",
"-  c #27381CC00FFA",
";  c #29AF1E3E1048",
":  c #1FEB1F751EE4",
">  c #2E36217911ED",
",  c #20AE20041F35",
"<  c #32C924DF13E2",
"1  c #374128061570",
"2  c #3A222A0F1671",
"3  c #3E852D47183D",
"4  c #233F22B32207",
"5  c #27F2277126D3",
"6  c #28FA283A2751",
"7  c #2C8E2BF12B32",
"8  c #30AB2FE42EF0",
"9  c #3402337132C0",
"0  c #384B37D33740",
"q  c #3BE83B4E3A93",
"w  c #40BE2EDA1902",
"e  c #450031E91A9D",
"r  c #4ABA36131CDF",
"t  c #4E8638CB1E47",
"y  c #509D3A4C1F10",
"u  c #55483DAD20DF",
"i  c #401D3F8D3EDC",
"p  c #5B2041E72320",
"a  c #40B23FFB3F1D",
"s  c #615A4663257A",
"d  c #64C448DE26D2",
"f  c #67A04AF527F9",
"g  c #6A644CED28F9",
"h  c #6EF350382ABA",
"j  c #73C153B22C93",
"k  c #78D7575E2E85",
"l  c #7ACE58C92F48",
"z  c #7E125B28308B",
"x  c #4411437442B4",
"c  c #47E7475546A2",
"v  c #485A47DA473C",
"b  c #4CB24C1B4B63",
"n  c #503D4F8C4EB5",
"m  c #50F6501D4F15",
"M  c #549653DE52FE",
"N  c #58B358155754",
"B  c #5D065C665BA2",
"V  c #60D85F855DE7",
"C  c #60EA60485F82",
"Z  c #645E63BF62FC",
"A  c #6835679366CD",
"S  c #698068AF67B1",
"D  c #6CCD6C226B53",
"F  c #703A6F916EC5",
"G  c #717870B06FBC",
"H  c #739572FE7244",
"J  c #788177A1768C",
"K  c #7CB07C087B3C",
"L  c #82DC5E9E3264",
"P  c #86C9617433E5",
"I  c #8BE4652535DD",
"U  c #8FBA67EC3758",
"Y  c #9057685C3791",
"T  c #94536B3E391C",
"R  c #99916F093B22",
"E  c #9CD271633C62",
"W  c #A2D075B73EAF",
"Q  c #A5B277CC3FCA",
"!  c #A6B37886402D",
"~  c #AC547C984258",
"^  c #B0E87FE8441A",
"/  c #805C7FBB7EF7",
"(  c #B584833D45E3",
")  c #B8DD85A9472C",
"_  c #BBC187C04848",
"`  c #BE11896C492C",
"'  c #80CA801E7F4B",
"]  c #C30C8D054B17",
"[  c #C7C0906C4CE7",
"{  c #CC4493AF4EA3",
"}  c #D0189675501E",
"|  c #D1DC97BB50CB",
" . c #D59C9A71523C",
".. c #DAF19E4C5449",
"X. c #DF23A15455E7",
"o. c #E250A3A05720",
"O. c #E4C8A5695813",
"+. c #ECC9AB325B28",
"@. c #F220AF0F5D36",
"#. c #84E58443837E",
"$. c #8808876886A3",
"%. c #892C888787BE",
"&. c #8BE28B3E8A76",
"*. c #90988FEE8F1F",
"=. c #957E94FC945E",
"-. c #982897A296FE",
";. c #996398C49803",
":. c #9ACF9A959A4D",
">. c #A0669FCF9F16",
",. c #A3F9A37FA2E9",
"<. c #A87AA801A76E",
"1. c #A918A87FA7C4",
"2. c #AC82ABEFAB37",
"3. c #B15BB0C8B014",
"4. c #B52BB48FB3D1",
"5. c #B86CB7D4B71B",
"6. c #B915B884B7D4",
"7. c #BDF5BD5FBCA9",
"8. c #C124C09ABFF3",
"9. c #C4B8C438C39B",
"0. c #C84DC79EC6C7",
"q. c #C933C8A1C7EE",
"w. c #CCEFCC6DCBCD",
"e. c #D08BD010CF7A",
"r. c #D132D0ACD008",
"t. c #D581D4F9D454",
"y. c #D881D800D761",
"u. c #D904D88CD7FB",
"i. c #DCF6DC80DBED",
"p. c #E126E0BBE038",
"a. c #E3BFE350E2C7",
"s. c #EC71EC0EEB96",
"d. c #F09CF03EEFCA",
"f. c #F150F0D1F035",
"g. c #F51DF4CFF46F",
"h. c #F8B4F888F851",
"j. c #FE80FE7EFE7B",
/* pixels */
" . . . . . . . . . . . . . . . . . . . . . . . ... . . . . . . . . . ... . . . . . . . . . . ... . . . . . . . . . . . ... . . . . ... . . . . . . ... . . . . . . . . . . . . .",
" . . . . . . . . . . . . . . . . ... . . . . . . . . . . . . . . . . . . . . . . . . . . . . . . . . . . ... . . . . . . . . . . . . . . . . . . . . . . . . . . . . ... . . . .",
" . . . . . . . . . . . ... . . . . . . . . . . . . . . . ... . . . . . . . . . . ... . . . . . . . . . . . . . . . . . . . . . . . . . . . . . . . . . . . . . . . . . . . . . .",
" . . . . . . . . ... . . . . . . . . . . . . . . . . . . . . . . . . . . . . . . . . . . . . . . . . . . . . . . . . . . . . . . . . . . . . . . . . . . ... . . . . . . . . . .",
" . . . . . ... . . ... . . . . . . . . . . . . . . . . . . . . . . . . . . . . . . .| | | |  . . . . . ... . . . . . . . . . . . . . . . . . . . . . . . . . . . . . . . . ... .",
" . . . . . . . . . . . . . . . . . . . . . . . . . . . . . . . . ... . . . . ...|  .X.o.o.X. . . . . . . . . . . . . . . . . . . . . . . . . . . . . ... . . . ... . . . . . . .",
" . . . . . . . . . . . . . . . . . . ... . . . . .|  . . . . . . . . . . . . .| X...~ Y Y ( ..X. . . . . . . . . . . . . . . . . . ... . . . . . . . . . . . . . . . . . . . . .",
" ... . . . . . . . . . . . . . . . . . . . .| | ..X.....|  . . . . . . . . .| o.~ <         < ~ o.|  . . . . . . . . .|  .X.....|  . . . . . . . . . . . . . . . . . . . . . . .",
" . . . . . . . . . . . . . . . . . . . . .| ..o.[ ( ( { o...|  . . . . . .| o.E                 R o.|  . . . . ...| ..O.{ ( ( { O...|  . . . . . . . . . . . . . . . . . . . . .",
" . . . . . . . . . . . . ... . . . . . .| o.] y O   . @ p { X. . . . . . ...] O     % b b %     O ] .. . . . . .| X.[ p @     O t ] X.|  . . . . . . . . . . . . . . . . . . . .",
" . . . ... . . . . . . . . . . . . . .| o.~ O             * ` .. . . . .| O.g     q g.j.j.g.x     f O. . . . . .X._ #             O ~ X. . . . . . . . . . . . . . . . . . . . .",
" . . . . . . . . .| | |  . . . . . . ...[ #     . 5 4 .     <  . . . . . .X.1     3.j.j.j.j.6.    > .. . . . . . .>     . 4 5 .     # [ .. . . . . . . .|  .| |  . . . . . ... .",
" . ... . . . . .X.O.O.o...|  . . . .| O.g     7 y.j.j.9.&     P O.|  . . ...-     w.j.j.j.j.t.    * |  . . .| o.P     & 9.j.j.y.7     g O.|  . . . . . .o.O.O.o. . . . . . . . .",
" . . . . .| X. .W l k Y [ O. . . . . ...>     4.j.j.j.j.-.    e o. . . . ...1     4.j.j.j.j.7.    > .. . . .| o.e     -.j.j.j.j.5.    > .. . . . . .O.{ T k k E  .o.|  . . . . .",
" . . . .| o.~ =         O L o.|  . . .} #   o i.j.j.j.j.8.    < .. . . .| O.g     x j.j.j.j.v     s O.|  . . ...<     9.j.j.j.j.i..   # { .. . .| o.I #         * Q o.|  . . . .",
" . . .| X.W .               g o. . . . .*     w.j.j.g.j.4.    1 X.|  . . ...` X     & B B 4     X ` .. . . . .X.1     4.j.g.h.j.w.    *  . . .| o.z                 R X. . . . .",
" . . ...{ #     4 A G 0       E o.| | o.r     D j.j.j.j.M     f O.|  . . . .o.Y                 Y o.|  . . . .O.f     M j.j.j.j.F     r o.|  .X.~       9 F D 5     + ] .. . . .",
" . .| O.L     9 g.j.j.j.H     e o.| | o.W       x #.#.0     . ) .. . . . . .| o.W *   . . . * W o.|  . . . . ...( .     0 #.#.x       W o.| | O.u     C j.j.j.j.x     j O.|  . .",
" . .| o.y     =.j.g.j.j.i..   # { ..| | o.g                 L o. . . . . . . . .X.X.f .   f o.X.| .. . . . . .| o.l                 f o.|  . . .=     w.j.g.j.j.1.    3 X. . . .",
".. .| o.e     2.j.j.j.j.s.$   X ] .. . . .X.k X       . # I o.|  . . . . . . . .} o.t     e o.|  . . . . . . . . .o.P # .       . k X. . . . .{ #   . p.j.j.j.j.7.    < .. . . .",
" . .| o.u     %.j.j.j.j.t.    # |  . ... .| o.] P p # O r X. . . . . . . . . . . . .=     # |  . . . . . . . . . .| X.e O # p P ] o. . . . . . .;     9.j.j.j.j.>.    e o.|  . .",
" . . .o.I     & y.j.j.g.M     r o.|  . . . .| ..+.)       Q X.|  . . . . . . . ...] X     . ` .. . . . . . . . .| o.E       ( +...|  . . . . .O.p     x s.j.j.a.6     z O.|  . .",
" . . . . .;     o 0 x %       ~ X.|  . . . . .| ..W       p O.| .. . . . . . . .o.W         R o.|  . . ... . . .| O.y       ! ..|  . . . . . ...) .     $ x q o     # { .. . . .",
" . . . .X.( @               P o.|  . . . . . .| X.~       + [ .. . . . . . . .| O.z         k O.|  . . . . . . ...] O       ! o. . . . . . . .| o.R .             X ~ o. . . . .",
" . . . . .X.] e .     . * s o. . . . . . . ... .X.W         I O.|  . . . . . . .O.u     .   r O.|  . ... . . .| O.P         ! X. . . . . . . . . .X.f > .     . e ) o.|  . . . .",
" . . . . .| ..o.` E W I @   P O.|  . . . . . .| o.W         3 X. . . . . . . . ...<   4 6   ; .. . . . . . . .| X.1         W o. . . . . . . .| o.I   * R W E _ o... . . . . . .",
".. . . . . . . .....+.(     # { .. . . . . . .| X.W     .   . ( .. . . . . . . .[ #   M Z   X ] .. . . . . . .X.(     .     E o.|  . . . . . ...{ #     ( +.o... .|  . . . . . .",
" . . . . . . . . .|  .] X     s o.| .. . . . .| o.E     x .   h O.|  . . . . .X.~     #.=.    ! o.|  . . . .| O.f   . x     E o. . . . . . .| O.f     O ]  .|  . . . . . . . . .",
" . . . . . . . . . . . .*     . ( .. . . . . . .o.E     %.8   -  . . . . . .| O.I     1.7.    z O.|  . . . . .| *   7 %.    E o.|  . . . . ...( .     =  . . . . . . . . . . . .",
" . . . . . . . . . .| X.1       3 X. . . . . .| o.R     <.K     W o.|  . . .| O.s     w.i.    p O.|  . . .| O.E     K <.    R o. . . . . .| o.w       3 X. . . . . . . . . . . .",
" . . . . . . . . . . .O.u     .   Y o.|  . . . .o.R     <.t.    y O.|  . . . .X.3   o s.j.$   1 X.|  . . .| X.u     t.,.    R o.|  . . .| o.Y         u O.|  . . . . . . . ... .",
" . . . . ... . . . .| O.j         # |  . . . .| o.T     ;.j.6   + [ .. . . . .| #   7 j.j.0   @ [ .. . . ...] O   6 j.;.    T o. . . . . .| *   .     k O.|  ... . . . . . . . .",
" . . . . ... . . . .| O.U     +     g O.|  . .| o.T     -.j.K     P o.|  . ...) .   m j.j.Z     ~ X. . .| O.L     K j.-.    Y o.|  . .| O.g     $ .   I O.|  . . . . . ... . . .",
" . . . . . . . . . . .X.!     V &   . ( X. . .| o.Y     -.j.t..   1 X. . .| o.R     K j.j.&.    I O.|  . ...1   . w.j.;.    Y o. . . .X.) .   $ A     ~ X.|  . . . . . . . . . .",
" . . . . . . . . . . ...` o   F #.    e o.|  . .o.Y     -.j.j.x   . ( ..| | O.h     1.j.j.5.    f O.|  ...( .   q j.j.;.    Y O.|  .| o.r     K #.  X ` .. . . . . . . . . . . .",
" . . . . . . . . . . . .} #   i g.&     R o.| | O.I     ;.j.j.;.    f O.| | o.r     t.j.j.i..   3 o.| | O.f     -.j.j.;.    I O.| | o.R     $ g.M   # | .. . . . . . . . . . . .",
" . . . . . . . . . . . ...1   $ j.:.    = |  . .o.I     ;.j.j.a.$   *  . . . .=   $ s.j.j.g.:   # }  . .| =   o a.j.j.;.    I o.|  . .=     =.j.7   1 .. . . . . . . . . . . . .",
".. . . . . . . . . . .| o.r   . i.j.0     j O.{ O.P     ;.j.j.j.M     E o...] X   0 j.j.j.j.x   . ) ..X.E     M j.j.j.;.    P o.} O.j     8 j.s.@   r o.|  . . . . . . . . . . .",
" . . . . . . ... . . .| O.g     4.j.7.    X `  .o.P     ;.j.g.j.3.    t o.X.W     B j.j.j.j.D     R X.X.y     1.j.j.j.;.    P o. .` X     4.j.w.    f O.|  . . . . . . . . ... .",
" . . . . . . . . . . .| o.L     *.j.j.B     r X.o.L     ;.j.j.j.g.:   X ] O.l     %.j.j.j.j.-.    g +.` O   & f.j.j.j.;.    P o.X.t     M j.j.<.    L O.|  . . . . . . . . . . .",
" . . . . . . . . . . .| o.W     A j.j.i.o     E +.z     ;.j.h.j.j.D     z @.y     4.j.j.j.j.9.    e @.z     A j.j.g.j.;.    z +.E     o u.j.j.#.    E o.| .. . ... . . . . . . .",
" . . . . . . . . . . . ...( .   i j.j.j.#.    = O.L     ;.j.j.j.j.9.    1 o.>   . u.j.j.j.j.a.o   - X.1     7.j.j.j.j.;.    L O.=     K j.j.j.N   . ( .. . . . . . . . . . . . .",
" . . . . . . . . . . . ...[ @   : g.j.j.g.5     P U     ;.j.j.j.j.j.9   . W #   4 g.j.j.j.j.j.5   + E .   6 j.j.j.g.j.;.    U P     4 g.j.j.j.9   O [ .. . . . . . . . . . . . .",
" . ... . . . . . . . . . ...;   . i.j.j.j.<.    # d     ;.j.j.j.j.j.#.    1 o   x j.%.0 0 #.j.b   . <     K j.j.j.j.j.-.    f #     <.j.j.j.g.%   ;  . . . . . . . . . . . . ...",
" ... . . . . . . . . . . .o.w     6.j.j.j.j.v   . . .   :.s.b 6 q 7.a..     .   K J         &.%.  .       u.a.H Z ,.j.:.  . . .   x j.j.j.j.u.    3 X.|  . . . . . . . . . . . .",
" . . . ... . . ... . . .| O.p     =.j.j.j.j.w.          %.9         -.q         6 o .   .   $ m         x 7.o   .   J >.          q.j.j.j.j.4.    p O.|  . . . . . . . . . . . .",
" . . . . . . . . . . . .| O.l     D j.j.j.j.j.D         $   .         o           .   B n   .           $ .         . 7         S j.j.j.g.j.&.    l O.|  . . ... . ... . . . . .",
" . . . . . . . . . . . .| o.R     o %.g.j.j.j.s.:         .   %.S                   H j.g.v       .   .       0 D   .         & s.j.j.j.j.i.9     Y o. . . . . . . . . . . . . .",
" . . . . . . . ... . . . .X.~         & G 1.4.2.0     .     #.j.j.7.b $       $ M q.j.j.j.j.-.4           & #.g.j.Z   .       B a.a.i.4.B o       ~ X.|  . . . . . . . . . . . .",
" . . . . . . . . . . . . ...] o                   .     o ,.j.j.j.j.j.s.e.9.t.g.j.j.j.j.j.j.j.g.w.>.=.>.9.g.j.j.j.j.D     . .     o .           . ] .. . . . . . . . ... . . . .",
" . . . . . . . . . . . . . . .=     o               o A a.j.j.j.j.j.j.j.j.j.j.j.j.j.j.j.j.j.j.j.j.j.j.j.j.j.j.j.j.j.j.4.6                       # |  . . . . . . . . . . . . . .",
" . . . . . . . . . . . . . .X.3     K 7.G M b N J 1.s.j.j.j.j.j.j.j.j.j.j.j.j.j.j.j.j.j.j.j.j.j.j.h.g.j.j.j.j.j.j.j.j.j.j.5.A 0 : % 4 0 #.M     1 .. . . . . . . . . . . . . . .",
" ... . . . . . . . . . . .| o.l     $ a.j.j.j.j.j.j.j.j.j.j.j.j.j.j.j.j.j.j.j.j.j.j.j.j.j.j.j.j.j.j.j.j.j.j.j.j.j.j.j.j.j.j.j.j.j.g.g.j.s.%     k o.|  . . . . . . . . . . ... .",
" . . . . . . . . . . . . . . ...;     Z j.g.j.g.j.j.j.j.j.j.j.j.j.s.a.y.w.7.6.3.<.,.,.,.:.,.<.<.4.4.7.q.y.a.s.j.j.j.j.j.j.j.j.j.j.j.j.j.A     ;  . . . . . . . . . . . . . . . .",
" . . . . . . . . . . . . . .| o.E       9.j.j.j.j.g.w.1.#.A v 9 4 $ o                                     o $ : 9 v A #.1.e.d.j.j.j.j.w.      R o. . . . . . . . . . . . . . . .",
" . . . . . ... . . . . . . . . .o.e     x a.<.D 0 $                                                                       . $ 0 D 2.s.v     e o.|  . . . . ... . ... . . . . . .",
" . . . . ... . . . . . . . . . ...( .     .                     o & 7 0 x M M Z A D D H H H D D Z B M x q 7 4 $ .                   o .   . ) X. . . . . . . . . . . . . . ... .",
" . . . . . . . . . . . . . . . .| O.f   .         % 0 B #.,.9.i.s.g.j.j.j.j.j.j.j.j.j.j.j.j.j.j.j.j.j.j.j.j.g.s.i.9.2.&.A x & .           f O.|  . . . . . . . . . . . . . . . .",
" . . . . . . . . . ... . . . . . ...[ O     b ,.w.g.j.j.j.j.j.j.j.j.j.j.j.j.j.j.j.j.h.h.j.j.g.j.j.j.j.j.j.j.j.j.j.j.j.j.j.j.h.y.2.V     O [ .. . . . . ... . . . . . . . . . . .",
" . . . . . . . . . . . . . . . . .| o.3     1.j.j.j.j.j.g.j.g.j.j.j.j.j.j.j.j.j.j.j.j.j.j.j.j.j.j.j.j.j.j.j.j.j.j.g.j.g.j.j.j.j.j.6.    3 o.|  . . . . . . . . . . . . . . . . .",
" . . . . . . . . . . . . . . . . .| O.s     K j.g.j.j.j.j.j.j.j.j.j.j.j.g.s.a.i.u.y.t.t.t.t.y.u.i.a.s.d.h.j.j.j.j.j.j.j.j.j.j.g.j.%.    s O.|  . . . . . . . . . . . . . . . . .",
".. . . . . . . . . . . . . . . . .| O.P     N j.j.j.j.a.9.<.%.D M a 9 4 % $ o o . .           . . o $ $ 4 7 q b A #.:.7.u.g.j.j.j.B     P o. . . . . . . . . . . . . . . . . . .",
" . . . . . . . . . . . . . ... . .| X.~     7 4.J x 4 o                                                                 . % q D <.7     ~ X.|  . . . . . . . . . . . . . . . . .",
" . . . . . . ... . . . . . . . . . ...] X                         o $ & 5 9 0 x v b b m m b b x x 0 9 5 & $ .                         X ] .. . . ... . . ... . . . . . . ... . .",
" . . . . . . . . . . . . . . . . . . ...;         . & q B K :.6.w.i.s.g.j.j.j.j.j.j.j.j.j.j.j.j.j.j.j.j.g.s.p.w.6.>.#.B q , .         -  . . . . . . . . . . . . . . . . . . . .",
" . . . . . . . . . . . . . . . . . .| o.2     M 4.y.g.j.j.j.j.j.j.j.j.j.j.j.j.j.j.j.j.j.j.j.j.j.j.j.j.j.j.j.j.j.j.j.j.j.j.g.i.6.N     3 o.|  . . . . . . . . . . . . . . . . . .",
" . . . . . . . . . . . . . . . . . . .{ +     w.j.j.j.j.j.j.j.g.j.j.j.j.j.j.j.j.j.j.j.j.j.j.j.j.j.j.j.j.j.j.j.j.j.g.h.j.j.j.j.j.u.    @ {  . . . . . ... . . . . . . . . . . . .",
" . ... . . . . . . . . ... . . . . .o.W     5 j.j.g.j.j.j.j.j.j.j.j.j.j.j.j.j.j.g.g.g.g.s.g.g.h.j.j.j.j.j.j.j.j.j.j.j.j.j.j.j.g.j.7     W o. . . . . . . . ... . . . . . . . . .",
" ... . . . . . . . . . . . . ... .| O.h     Z j.j.j.j.j.f.i.7.>.#.G N v 0 9 6 4 & % $ $ % % % : 4 5 9 q x N H #.,.6.i.g.j.j.j.j.j.S     j O.|  . . . . . ... . . ... . . . . . .",
" . . . ... . . . . ... . . . . . . .X.1     3.j.8.=.B 0 $                                                             $ 0 B &.7.j.3.    1 .. . . . . . . . . . . . . . . . . . .",
" . . . . . . . . . . . . . . . . ...] O     a %                                   . . o o . . .                                 $ 0     X ] .. . . . . . . . . . . . . . . . . .",
" . . . . . . . . . . . . . . . .| o.R                       % 9 M D #.;.2.6.9.e.y.i.i.p.p.p.u.u.w.w.8.2.,.%.H N q , .                     R o.|  . . . . . . . . . . . . . ... .",
" . . . . . . . . . . . . . . . .| o.f             % v #.4.i.g.j.j.j.j.j.j.j.j.j.j.j.j.j.j.j.j.j.j.j.j.j.j.j.j.j.j.j.p.7.*.N 5         .   p O.|  . . . . . . . . . . . . ... . .",
" . . . . . . . ... . . . . . . . ...<     o 7 H 6.g.j.j.j.j.j.j.j.j.j.j.j.j.j.j.j.j.j.j.j.j.j.j.j.j.j.j.j.j.j.j.j.j.j.j.j.j.j.w.&.x o     > .. . . . . . . . . . . . . . . . . .",
" . . . . . . . . . . . . . . . ..._ X     v p.j.j.j.j.j.g.j.j.j.j.j.j.j.j.j.j.j.j.j.j.j.j.j.j.j.j.j.j.j.j.j.j.j.j.j.j.j.j.j.j.j.j.a.N     . ) ..|  . . . . . ... . . . . . . . .",
" . . . . . . . . . . . . . . . .o.E         o q #.7.s.j.j.j.j.j.j.j.j.j.j.j.j.j.j.j.j.j.j.j.j.j.j.j.j.j.j.j.j.j.j.j.j.j.j.a.4.J 0 .         I o.| .. . . . . . . . . . . . . . .",
" ... . . . . . . . . . . . . . . . .L #             o 9 N K ,.8.y.a.g.j.j.j.j.j.j.j.j.j.j.j.j.j.j.j.j.j.j.s.a.w.3.=.G v 6 o             . s [ .. . . . . . . . . . . . . . . . .",
" . . . . . . . . . . . . . . . . . .O.{ I e O                   . o & 6 0 x v M N V C A Z Z B N M v q 8 4 $ .                     . 1 l ] o... . . . . . . . . ... . . . . . . .",
" . . . . . . . . . . . . . . . . . .|  .o.o.[ W j e = X                                                                 . # 3 f R ` X.O...|  . . . . . . . . . . . . . . . . ...",
" . . . . . ... . . ... . . . . . . . . .| | ..o.O.o. .` ~ I j p e < * # O . .                     . . X # * > 3 u g P W ` | o.O.o...| | |  . . . . ... . . . . . . . . . . . . .",
" . . . . . . . . . . . . ... . . . . . . . . . . .|  ...o.O.O.O.o... .{ [ ` ) ^ ~ W W W W W W ~ ^ ( _ ] {  ...o.O.O.o.o... . .| |  . . ... . . ... . . . . . . . . . . ... . . .",
" . . . . . . . . . . . . . . . . . . . . . . . . . . . .| | | |  . . . ...........o.o.o.o.X.o.X.X....... . . . .| | |  . . . . . . . . . . . . . . . . . . . . . . . . . . . . .",
" . . . . . . . . . . . . . . . . . . . . . . . . . . . . . . . . . . . . . . . . . . .|  . . . . . . . . . . . . . . . . . . . . . . . . . . . . . . . . . ... . . . ... . . . .",
" . ... . . . . . . . . . . . . . ... . . . . . . . . . . . . . . . . . . . . . . . . . . . . . . . . . . . . . . . . . . . ... . . . . . . . . . . . . . . . . . . . . . . . . .",
" . . . . . . . . . . . . . . . . . . . . . . . . . . . . . . . . . . . . . . . . . . . . . . . . . . . . . . . . . . . . . . . . . ... . . . . . . . . . . . . . . . . . ... . .",
" . . . ... . . ... . . . . . . . . . . . . . . . . . . . . . . . . . . . . . . . . . . . . . . . . . . . . . . . . . . . . . . . . . . . . . . . . . . . . . . . . . . . . . . .",
" . . ... . . . . . . . . . . ... . . . ... . . . . . . . . . ... . . ... . . . . . . . . . . . . . . . . . . . . . . . . . . . . . . . . . ... . . . . . . . . . . . . . . . . .",
" . . . . . . . . . . . . . . . . . . . . . . . . . . . . . . . . . . . . . . . . . . . . . . . . . . . . . . ... . . . . . . . . . . . . . . . . . . . . . . . . . . . . . . . ."
};
