/* XPM */
static char *qld__[] = {
/* columns rows colors chars-per-pixel */
"80 80 137 2",
"   c #00A0008B0078",
".  c #088D06D504C0",
"X  c #0B0D08DA062C",
"o  c #0C010B600A9C",
"O  c #11BF0CDD06E7",
"+  c #11020E7F0B6E",
"@  c #159410E50B2C",
"#  c #1B0C14230BB2",
"$  c #1F5F17AA0E42",
"%  c #143A138C12B6",
"&  c #18041753167B",
"*  c #188317BE16CE",
"=  c #1CD01C3E1B8C",
"-  c #227D19460E06",
";  c #27EA1CDA0F57",
":  c #26751C7B104E",
">  c #289F1DC1107E",
",  c #1FDA1E951D1B",
"<  c #2D8B214C125A",
"1  c #20941FD51EEC",
"2  c #32AB24F21433",
"3  c #3709288816D7",
"4  c #399F29DC169F",
"5  c #3DD22D2618CB",
"6  c #249B23F32326",
"7  c #28F5280326DD",
"8  c #2C662BAD2ACC",
"9  c #301E2FA82F19",
"0  c #314E30662F4D",
"q  c #34E234213336",
"w  c #37FB377536D3",
"e  c #38FD382B372C",
"r  c #3C483B8C3AA7",
"t  c #40D12F3119AF",
"y  c #44CF32191B43",
"u  c #4A8F363F1D76",
"i  c #4E8839201F01",
"p  c #503E3A141F08",
"a  c #53DA3CE920E9",
"s  c #3FEE3F103E02",
"d  c #573E3FC2231B",
"f  c #5B7842462388",
"g  c #40EB40203F29",
"h  c #6156466A2591",
"j  c #647548E12739",
"k  c #662E4A2827F6",
"l  c #6AEE4D56293A",
"z  c #6F8750A52AF6",
"x  c #740A53F32CC9",
"c  c #78B657482E7D",
"v  c #7B7E59522F9E",
"b  c #7D905AD53072",
"n  c #43C84325425E",
"m  c #481F4754465C",
"M  c #48EB4831474E",
"N  c #4CA54BF04B15",
"B  c #515450724F5F",
"V  c #555054A453D2",
"C  c #5841579E56D7",
"Z  c #5C965BE15B03",
"A  c #60445F685E5A",
"S  c #614360565F36",
"D  c #6426639B62F1",
"F  c #6918688D67E4",
"G  c #6CB86C166B51",
"H  c #70876F846E46",
"J  c #70E670596FAC",
"K  c #745B73B272E5",
"L  c #78FD78537768",
"P  c #7CDC7C417B85",
"I  c #81B35DCC31FB",
"U  c #8651612733CF",
"Y  c #8BE0652E35F5",
"T  c #8FD367F63751",
"R  c #93776AA038CA",
"E  c #99DE6F403B3E",
"W  c #9E00723C3CD3",
"Q  c #A2A475993EA1",
"!  c #A5A977C93FCD",
"~  c #A6B87891403D",
"^  c #AC427C8C4252",
"/  c #B0457F7343E0",
"(  c #80837FF17F3E",
")  c #B4AD82A1458F",
"_  c #B9888624476D",
"`  c #BB9A87A4483B",
"'  c #BDCF893D4916",
"]  c #80DA80257F49",
"[  c #C3698D484B3B",
"{  c #C82590B74D13",
"}  c #CC4593B14EA5",
"|  c #CFC296364FFC",
" . c #D1B1979B50BA",
".. c #D5999A6E523B",
"X. c #DAE19E405444",
"o. c #DF04A13E55DB",
"O. c #E26DA3B5572B",
"+. c #E4C1A5645811",
"@. c #ED9CABCC5B7B",
"#. c #F481B0C75E21",
"$. c #851E848683CB",
"%. c #8824879686E9",
"&. c #8949889E87CE",
"*. c #8C208B7E8ABA",
"=. c #90138F828ED0",
"-. c #90C8902D8F70",
";. c #95969503944F",
":. c #9829978F96D3",
">. c #9924988597C3",
",. c #9D4B9C979BBC",
"<. c #A133A0A09FEB",
"1. c #A492A3F8A33C",
"2. c #A829A797A6E5",
"3. c #A93EA8B8A814",
"4. c #AD10AC7BABC5",
"5. c #B062AFD3AF25",
"6. c #B126B08DAFD3",
"7. c #B4D6B43EB385",
"8. c #B889B805B765",
"9. c #BDB1BD32BC97",
"0. c #C0C4C01ABF4B",
"q. c #C13CC0BAC01C",
"w. c #C5FEC57BC4DA",
"e. c #C922C89FC7FE",
"r. c #CC9ECC21CB88",
"t. c #D0E3D04FCF99",
"y. c #D122D099CFF4",
"u. c #D4C7D451D3C0",
"i. c #D863D7F6D772",
"p. c #D8F3D87BD7DC",
"a. c #DC7ADC0ADB80",
"s. c #E583E51DE4A0",
"d. c #E8E8E885E80C",
"f. c #ED00ECA3EC32",
"g. c #F077F027EFC5",
"h. c #F62BF600F5CB",
"j. c #FEC2FEC0FEBD",
/* pixels */
"..............................................................................X.........................................X.......................................",
"..................X...........................................X.........................................X.................................................X.....",
"..............................X...............X...............................................X.................................................................",
"................................X.......................................................................................................X...........X...........",
".......................................................................... . ....... ...........................................................................",
"..............X...................................X.......................+.O. .| O.O.............X...........................X.......X...X...............X.....",
".......................................... ...X... .........X...........o.T 4 # # 4 R o................... . ....... ...........................................",
"X.......................X............. .X.+...| ..+.X. ...............o.a             f X.................o.+...| X.+.X.........................................",
".................................... .O.} h > # - a _ O. ......... .+.x     X q q X     x O. ......... .O._ a - @ > k } X.............X.........................",
".................................. .o.) @           . W O.........X.} @   * r.j.j.u.=   O [ X....... .O.W .           @ ) o.....................................",
".............. ... . .............X.} -     = r 6     O ' X..... .O.W     K j.j.j.j.P     E O.......X.` X     6 r =     - } .............. ... .................",
"............X.+.+.O.+.o......... .+.b     D h.j.j.$.    f +. ... .O.R     ;.j.h.h.j.>.    Y +. .....+.f     $.j.j.h.D     b +. ....... .X.+.O.O.+.X.............",
"X....... .o.} v i y h ^ +....... .O.y   X a.j.h.j.h.=   < ........o.^     D j.j.j.j.G     ! O. .....X.>   = h.j.j.j.a.X   y O. .......O.) k y u x } O. .......X.",
"........o.^ @           h o..... .o.4   % f.j.j.j.j.0   -  ......... .-   X ,.f.d.<.X   # | ........ .-   q j.h.j.j.d.%   4 X.......o.z           O Q O. .......",
"......X.` O     . X       k O. . .O.i     r.j.j.j.d.%   2 X....... .+.R       o o       T +. .......X.2   % d.j.h.j.r.    p +... .+.c       X .     . ) o. .....",
".... .O.i     K a.s.7.=   . _ X. .O.R     w w.s.u.N     x +. ....... .O.b           . b O. ....... .+.x     N u.s.e.w     T O. .X.[ X   % 4.s.s.L     t o.......",
"....X.} @   0 j.j.j.j.1.    c +. ...X.5       o       ;  ...............O._ a . X a ` O.............X.} -       X       t X... .O.U     *.j.j.j.j.n   X [ X.....",
"....X._ X   Z j.h.j.j.r.    f +. ...X. .t           2 [ X...X...........} @.I     x @.| ..............X.' < .         t  .X... .+.z     9.j.j.h.j.G   . ^ o. ...",
"....X.[ O   n j.j.h.j.8.    l +. .....X.o.E f 2 O - _ O. ............... .O.u     t o................. .+.) # O 2 f E o.X. ... .+.b     2.j.h.j.j.C   . ` X.....",
"......X.2   . 6.j.j.h.n     W O. .........X.#.x     h +. ...................;     - .................. .O.f     x #.X...........o.^     q d.j.j.9.X   : ........",
".... .O.E     . 0 g &     5 X.............} O.h     # } X...............X.[ X     . _ X.................} @     h O. ........... .O.u     % s q X     Y O. .....",
"...... .o.x             3 [ X............. .+.h       E O. .......X... .o.!         W O.........X... .+.T   .   f +. .............X.} t             l O. .......",
"..........+.W 5 # @ - ; x o. ...............+.f   .   u O. ........... .+.b   . X   x +. ........... .o.y   .   f +. ............. .O.x 3 > @ @ 4 E o...........",
".......... .o.O.} ..E     W O. ........... .+.f       X ' X........... .O.f   0 e   a +.............X.' .       f +............. .O.Q     Q ..} O.O. ...........",
"..X........... ...O.^     < .............. .+.f   % +   b O.| ....X.....X.3   S H   < X........... .+.x   + %   f +. .....X.......X.<     ^ O... .......X.......",
"..................X.[ .     v +.............+.f   r N   2 X. ...........} @   *.<.  O [ X...........X.<   N r   f +. ......... .+.I     X [ X. .................",
".................... .#     O [ X......... .+.a   m 1.    ^ o. .......o./     7.e.    ^ o. ..... .o.~     <.n   a +...........X.[ O     - ......................",
"..............X.....X.3   .   a O......... .+.a   r f.%   h +. ..... .+.Y     i.s.    I +. ..... .+.f   % f.r   a +. ....... .O.a   .   4 o.....................",
"....................+.p         Q O. .......O.a   q j.Z   # } X..... .+.k   % h.j.,   f +. .....X.} #   C j.q   a +. ..... .O.^         a +. .......X...........",
".................. .+.l   o o   2 X....... .O.a   q j.7.    T O. .....o.t   q j.j.n   3 o..... .+.Y     7.j.q   p O.........X.2   X +   x +. ...................",
".................. .O.Y   = Z     I +. ... .+.p   q j.h.6   y O. ..... .-   Z j.j.G   # } .... .o.y   6 h.j.w   i O. ... .O.I     Z 6   Y +. ...................",
"....X...............O.Q     6.8   @ { X... .O.u   q j.j.K   X ' X...X._ .   &.j.j.:.    ) o. .X.` X   G j.j.q   u O. ...X.} @   6 8..   ~ o.................X...",
"....................X.` .   4.4.    f +. . .O.u   w j.j.w.    c +.| +.E     7.j.j.q.    Y +. .+.x     w.j.j.w   u O. . .+.f     1.9.  . ` X.....................",
"....X.................| #   K j.e     ^ O.| O.y   w j.j.j.w   < X. .+.z   . p.j.j.s.o   k +. ...<   q j.j.j.w   y O.| o.^ .   q j.&.  # } X.....................",
".................... .X.2   M j.9.    4 X. .O.y   w j.j.j.&.    ~ X.o.i   , h.j.j.j.7   y X.o.!     $.j.h.j.w   y O. .X.4     7.j.S   < X.......................",
"..............X..... .O.u   7 j.j.Z     Y O.X.y   q j.j.j.a.X   f +. .>   n j.j.j.j.N   - } +.f   X i.j.j.j.q   y X.O.Y     C j.j.r   u O. .....................",
".................... .+.j   o s.j.a.%   @ } O.t   q j.j.j.j.M   @ } [ o   G j.h.j.j.K   . '  .@   m j.j.j.j.w   t +.} #   o p.j.h.=   k +. .....................",
"......................+.I     w.j.j.$.    h @.5   w j.j.j.j.<.    E /     ;.j.j.h.j.1.    ! E     >.j.j.j.j.q   4 @.h     P j.j.a.X   b +. ...................X.",
"..X................. .+.E     1.j.j.h.7   . ' y   q j.j.j.j.d.&   p U     9.j.j.j.j.r.    b a   % s.j.h.j.j.w   y '     6 h.j.j.8.    E O. ...X.................",
"......................X.) .   K j.h.j.3.    y 5   w j.j.j.j.j.A   @ 3   X s.7.M m 4.f.o   < @   C j.j.j.j.j.w   y y     2.j.h.j.;.    ) o.........X.............",
"............X.........X.} O   V j.j.j.j.M   . .   w h.D 7 w 0.w.        w ;.        4.g     .   9.a.D A 7.j.q   X .   m j.j.h.j.G   O [ X.....................X.",
"..........................:   8 j.j.j.j.r..       e C       . L =       % %     .   6 7   .   1 ,.+       :.g         r.j.j.j.j.m   : ..........................",
"........................O.5   o p.j.j.h.j.G   .   . .   o X     .   . .       &.K             X .     .   o +   .   G j.h.j.j.h.6   4 o.........X...............",
"...................... .+.f     = ;.f.j.j.s.%           7.9.6             = 4.j.j.$.                *.>.  .       = f.j.j.j.p.Z     a +. .......................",
"...................... .+.c         % n N r o   .   X 4.j.j.h.7.G M M F 3.h.j.j.j.j.i.K w = 6 r P a.j.j.&.    .   = K P K r X   .   x +. .......................",
"........................+.R                       n i.j.j.j.j.j.j.j.j.j.j.j.j.j.j.j.j.j.j.h.h.j.j.j.j.j.j.4.*                       Y O. .......................",
"........................o.^     q K 8 = % = w G w.j.j.j.j.j.j.h.h.j.h.h.h.j.j.j.j.j.h.h.j.j.j.j.h.j.j.j.j.j.f.&.q X       o n =     ~ o.....X...................",
"..............X...........} #   X u.j.h.f.h.j.j.j.h.h.j.j.j.j.j.j.j.j.j.j.j.j.j.j.j.j.j.j.j.j.j.j.j.j.j.j.h.j.j.j.s.r.0.e.g.y..   @ } X.........................",
"........................ .+.U     n j.j.j.j.j.j.j.j.j.j.j.j.h.h.s.a.i.r.w.w.9.9.9.9.w.w.r.i.p.s.h.h.j.j.j.j.j.j.j.j.j.j.j.j.M     I +. .........................",
"X...........................X.<     1.j.j.j.j.s.w.1.P D m w 6 * + X                         X % % 6 q M S P 1.w.s.j.j.j.j.4.    < X... .......................X.",
"................X...........O.W     7 r.:.Z 8 o                                                                 o 0 Z >.i.8     Q O...........X.................",
"............................ .O.u   .                 o = 8 n V S J L $.&.=.;.>.;.;.;.*.$.P K D C n q 6 %                 .   u +. .............................",
"............X.................X.` .       o w Z %.4.r.s.h.j.j.j.j.j.j.j.j.j.j.j.j.j.j.j.j.j.j.j.j.j.j.h.d.u.7.;.D r %       X ' o. ...........X...X.............",
"................X............. .+.a     &.f.j.j.j.j.j.j.j.j.j.h.h.h.h.h.h.h.h.h.h.h.h.h.h.h.h.h.h.h.j.j.j.j.j.j.j.j.h.,.    f +. ...............................",
"..X........................... .+.I     2.j.h.h.h.h.j.j.j.j.j.j.j.j.j.j.j.j.j.j.j.j.j.j.j.j.j.j.j.j.j.j.j.j.j.h.h.h.j.5.    I O. ...........................X...",
"................................o.Q     L j.j.j.j.j.j.d.i.9.4.>.&.P G F Z C C V C V Z Z D G K $.;.2.8.r.s.h.j.j.j.j.j.P     Q o.................................",
"................................X.[ X   B h.7.*.D r 6 %                                                 o = r Z $.4.f.V   X ' X.................X...............",
"........................X...........-   X o                     . o % * = 6 6 6 6 7 6 = * % o X                     X X   - ..................................X.",
"........X....................... .O.y         . * w C J *.2.9.r.p.s.d.h.h.h.j.h.j.h.h.h.h.f.s.p.r.9.3.*.K C w * .         y O. ...X.............................",
"................................ .+.f     D 4.u.h.j.j.j.j.j.j.j.j.j.j.j.j.j.j.j.j.j.j.j.j.j.j.j.j.j.j.j.j.j.j.h.i.6.D     f +. .................................",
"..................................X.2   + s.j.j.j.j.h.h.h.h.j.j.j.j.j.j.j.j.j.j.j.j.j.j.j.j.j.j.j.j.h.h.h.h.j.j.j.j.d.%   2 X...................................",
"..X.............................X.' X   g j.h.j.j.j.j.j.j.j.j.j.h.f.s.s.p.i.u.u.y.u.i.p.s.d.f.h.j.j.j.j.j.j.j.j.j.h.j.m   X [ X.................................",
".............................. .O.R     $.j.j.j.f.r.4.$.F N r 8 1 % o X .             . X o % = 8 r V D $.4.r.f.j.j.j.&.    T O. ...............................",
"........X...............X..... .+.f     1.4.Z q %                                                             o q Z 2.<.    f +.............X...................",
"..................................;     .                   X * 7 w g N C Z D D D D Z C N m r 8 = o                   .     ; ..................................",
"..............................X._ .             % w D *.7.r.s.h.j.j.j.j.j.j.j.j.j.j.j.j.j.j.j.j.h.d.u.8.;.G m *               ) o...........................X...",
"..............................+.Y         q L 9.d.j.j.j.j.j.j.j.j.j.j.j.j.j.h.j.h.j.j.h.j.j.j.j.j.j.j.j.j.j.j.h.r.&.n o       I +. .........X.....X.............",
"....X...X...........X....... .+.i     r i.j.j.j.j.j.h.h.h.h.j.j.j.j.j.j.j.j.j.j.j.j.j.j.j.j.j.j.j.j.h.j.h.h.h.j.j.j.j.s.M     i O. .............................",
"....X...........................-     O w G 4.s.j.j.j.j.j.j.j.j.j.j.j.j.j.j.h.j.j.j.j.h.j.j.j.j.j.j.j.j.j.j.j.h.a.2.D 8 X     @  ...............................",
"..............................X.Q ;           o 9 C P 1.w.i.d.h.j.j.j.j.j.j.j.j.j.j.j.j.j.j.j.j.h.s.t.7.>.K N 7 .           @ I ................................",
"................................O.X.W p $ .                 % = 8 q g M V C Z Z Z Z C B M r q 6 % o                   @ y Y | +.........X.......................",
"................................ ...o.+. ./ I f 4 # X                                                     . @ 2 a v Q } +.+.X. .......................X.........",
"........X............................. ...o.+.+.X. .` ! Y c k a y 4 2 > - - # # # # * : : < 3 y p h x Y W _ } X.+.+.O.X... .....................................",
"............................X............... .......X.O.+.+.+.O.O.o.X... .|  .|  . . .....X.X.O.O.+.+.O.O.o..... . . . .................................X.......",
"...................................................... . . . . .............X.....X......... ... . . . . .............................X.X.......................",
"..X...........................................................................................X...................................................X.............",
"................X.................................................................................................X...................X.........................",
"........X...............................................................................................................................................X.......",
"..........................X...........X.....................X...........X.......................X.............X...........X.....................................",
"................................................X..............................................................................................................."
};
