/* XPM */
static char *qll__[] = {
/* columns rows colors chars-per-pixel */
"20 20 126 2",
"   c #04AD045E0409",
".  c #093A0BB40EEE",
"X  c #150914D614A2",
"o  c #1C891C531C21",
"O  c #26FF16BB0344",
"+  c #2B98190A02E9",
"@  c #314E1D1204DC",
"#  c #29561E781196",
"$  c #2E8D23971689",
"%  c #2E25264C1CE5",
"&  c #302C27C21DAB",
"*  c #1BC11EAF223A",
"=  c #3C943C5C3C2D",
"-  c #450632A21C8F",
";  c #4D7C3A8023D2",
":  c #52783DE0252D",
">  c #56EF410326B4",
",  c #594844A92C01",
"<  c #45C840E33B04",
"1  c #5BF7493B32D0",
"2  c #5A9A4D643D8C",
"3  c #63C049812A03",
"4  c #6F22516A2DD1",
"5  c #70D052952E8F",
"6  c #6FE052E33020",
"7  c #700953143058",
"8  c #76A858723431",
"9  c #7C515C8A3668",
"0  c #7A055F453F2B",
"q  c #7BA660303F3B",
"w  c #3CEC40CA4570",
"e  c #40F940E3410D",
"r  c #43CB48BE4EBB",
"t  c #4EDD4E774DFA",
"y  c #53694C4243AD",
"u  c #59C54EA44152",
"i  c #5EE1543F477D",
"p  c #47714C425218",
"a  c #540E53535273",
"s  c #5C0B594655F5",
"d  c #549758AC5DA5",
"f  c #5F7F5C8758F3",
"g  c #617F565048E4",
"h  c #634F587E4BF3",
"j  c #60845CD45865",
"k  c #63D361005D96",
"l  c #700963F05568",
"z  c #753D69445ADF",
"x  c #5CDE62716925",
"c  c #71186E186A82",
"v  c #7335730972D4",
"b  c #78FB779475E5",
"n  c #7D55798774F7",
"m  c #734978D47F7C",
"M  c #7C1C7CB57D6C",
"N  c #8A955C5324D8",
"B  c #883761273245",
"V  c #837E621E3933",
"C  c #8E0C671F3869",
"Z  c #9F996E0D32A2",
"A  c #9F44725A3C73",
"S  c #A335745E3C28",
"D  c #825F6A8E4E16",
"F  c #940D6F68436E",
"G  c #963A70EE442C",
"H  c #A7AE7BCF472A",
"J  c #A8F67CC547BD",
"K  c #A7B57CE7495F",
"L  c #AAA17F034A92",
"P  c #B29C7F87423B",
"I  c #81977D8C78B2",
"U  c #B30A809B4417",
"Y  c #B79085EF4A61",
"T  c #B383869050C1",
"R  c #BE238CF551F0",
"E  c #894482847A80",
"W  c #C6B08EB84B8F",
"Q  c #CA0991EF4E9C",
"!  c #D739997B4F63",
"~  c #C525915E5337",
"^  c #CDB394DE50AC",
"/  c #CBA8979E591D",
"(  c #D3B499D0545A",
")  c #D8F99AD45042",
"_  c #DE41A26F5AA7",
"`  c #E40AA7195DF7",
"'  c #E853AD0B65E8",
"]  c #EB51AF366715",
"[  c #EE15B0DE6768",
"{  c #EEB8B21E6965",
"}  c #F35AB3EB67CA",
"|  c #F92BB6DD674B",
" . c #F2D7B5006ACC",
".. c #F6E9B87A6D8E",
"X. c #FC82BC346F07",
"o. c #FCD6BD2B70A7",
"O. c #FFFFC2A87295",
"+. c #749A7A4E8126",
"@. c #840383BF836E",
"#. c #824F86078A7E",
"$. c #85F289848DD0",
"%. c #8D958D458CE4",
"&. c #90E18FB78E4D",
"*. c #946094E09578",
"=. c #98E997FA96E0",
"-. c #961697C599CB",
";. c #977C99219B1A",
":. c #9D159CD69C8A",
">. c #A2FCA0899D91",
",. c #9B6D9DC2A08D",
"<. c #97779F78A914",
"1. c #A334A238A105",
"2. c #ADD7AD59ACC1",
"3. c #AA2EAE7BB3B4",
"4. c #B2A2B28CB272",
"5. c #B9A2B89DB763",
"6. c #BDA8BD35BCAA",
"7. c #BFD7C01DC082",
"8. c #B741C169CDA0",
"9. c #B9D3C3FCD02F",
"0. c #C62DC5FEC5CC",
"q. c #CD29CCACCC16",
"w. c #C984CCB8D08D",
"e. c #D8D2DC01DFD2",
"r. c #ED00ECEBECD2",
"t. c #F457F43EF420",
/* pixels */
"] ] ] [ ] [ [ ] ] o.o.[ ] ] [ ] { ] ] ] ",
"] ] [ '  ._ ' [ [ C C [  .' _  .] [ ] ] ",
"} } _ o.~ y 2 ' A m +.A ' 2 y R o._ [ [ ",
"` l < R B <.+.U ~ f j ~ P M <.B ~ < 0 ] ",
"! h 9.3  .; ; [ O.5 4 O.[ ; ;  .1 8.j Q ",
" .G % H O.~ # { X., , X.' # ~ O.U & F  .",
"] O.H - O.R * T | 2 u | T * R O.- H O.' ",
"] [ / . T ~ x D ) c c ) D x ~ T . /  .] ",
"] { ( j h Z *.E N =.;.N E *.Z h j (  .] ",
"{ [ ` l 3.@ 1.6.O >.>.O 0.>.+ 3.z ` [ ] ",
"] ] } , w.= X t   = =   t o e e.1 } ] ] ",
"] ' X.3 w M 2.t.0.t.r.5.r.1.c w 3 o.' ] ",
"] ] ..Y s :.@.v M v v M b +.:.s Y ..] ] ",
"] ] ' X.: #.5.4.2.2.2.2.4.5.$.> X.' ] ] ",
"] ] ' o.V d %.%.*.=.=.*.%.%.d V X.' ] ] ",
"{ ] ' X.4 $.2.%.#.E @.@.%.2.$.4 X.] ] ] ",
"] ] ] [ $ r *.4.0.q.q.0.5.=.p $ ] ] ] ] ",
"] ] ] ] 9 h I %.;.,.,.;.%.b i 8 ] ] ] { ",
"] { ] [ X.` W P S S A S P W ' X.[ ] ] ] ",
"] ] ] ] ' {  .X.o.o.o.o... .] ' ] ] [ ] "
};
