/* XPM */
static char *qll__[] = {
/* columns rows colors chars-per-pixel */
"22 22 140 2",
"   c #000600000000",
".  c #161F101D0949",
"X  c #0B3912281A93",
"o  c #146816391869",
"O  c #2898189A0571",
"+  c #36AF257C10F5",
"@  c #356C29C91BDD",
"#  c #2E892E452DF4",
"$  c #336B2CAC24F7",
"%  c #2FCB2F8A2F3C",
"&  c #2A942D86310E",
"*  c #33D634903576",
"=  c #3BBA36993072",
"-  c #382437C53754",
";  c #373C3A483DFF",
":  c #3A4B3B993D33",
">  c #446430F319F2",
",  c #494333BA19E1",
"<  c #448639742C3D",
"1  c #48113B132B80",
"2  c #43B73C1A3306",
"3  c #47DF3E26327B",
"4  c #44883F10387D",
"5  c #5F9C46D22925",
"6  c #5744463131B4",
"7  c #586C466930CB",
"8  c #58F7491035FB",
"9  c #64284B862DB1",
"0  c #681E4EDA2F20",
"q  c #6EC650872C3E",
"w  c #737B50D5275E",
"e  c #70AD529C2E8D",
"r  c #7E765A712F38",
"t  c #61114F0D396E",
"y  c #6A7D52D1366A",
"u  c #655952CD3C8B",
"i  c #6A1B534E37F1",
"p  c #766256E63120",
"a  c #79F1599632C9",
"s  c #739A5AEE3D53",
"d  c #7A155DFC3C3B",
"f  c #4520435C413D",
"g  c #4EA64E5B4E00",
"h  c #568D4C7F406E",
"j  c #50584FCD4F26",
"k  c #5AE5508A441D",
"l  c #50C0504A4FBD",
"z  c #5A9854D84DF4",
"x  c #4D1050A054E6",
"c  c #52F2526551BB",
"v  c #5C3F56C2502E",
"b  c #5DDA5AB056E3",
"n  c #60DC58A34F2A",
"m  c #754E5E7442FA",
"M  c #642C5BF45282",
"N  c #605C5E3A5BAA",
"B  c #78CA61F84689",
"V  c #710161C04F82",
"C  c #61AE60C05FA3",
"Z  c #723B631150FF",
"A  c #5B465E916284",
"S  c #5F4B68597371",
"D  c #63AB62B36189",
"F  c #6D5B6D2A6CEF",
"G  c #613C6A4F755A",
"H  c #72DE72AE7274",
"J  c #781677B17738",
"K  c #778077D17834",
"L  c #7CC27C557BD1",
"P  c #86E05C1D28D0",
"I  c #89855DF929B8",
"U  c #82505CD92FE6",
"Y  c #8B0A646C3671",
"T  c #832F63293CBC",
"R  c #95ED6CFA3BD6",
"E  c #8CC86A66403D",
"W  c #91276E4F41B7",
"Q  c #97E371104279",
"!  c #9940720442EF",
"~  c #A36C777F42F8",
"^  c #AC147D9F45DF",
"/  c #AC327EF548AC",
"(  c #80737F197D78",
")  c #ADF1804B4984",
"_  c #B531868D4E95",
"`  c #B88388954F11",
"'  c #BABE8A4C5029",
"]  c #C4DB8DFE4C29",
"[  c #C91C914C4E53",
"{  c #CB05953854AA",
"}  c #CE8599995A16",
"|  c #D3A59A165504",
" . c #D5909D9B5A74",
".. c #DB1A9FB05864",
"X. c #DF15A3F55CFE",
"o. c #E304A6575D87",
"O. c #E497A8375FBF",
"+. c #E1C5A71E60B1",
"@. c #E768AC0D64D2",
"#. c #EB45AF2B670D",
"$. c #EF3DB16B673D",
"%. c #EEFBB24C697B",
"&. c #F3D8B3BD66D1",
"*. c #F3B7B5A46B24",
"=. c #F73AB89E6D7C",
"-. c #FB60BB5F6E79",
";. c #FE24BDD2708B",
":. c #FFFFC2E8725C",
">. c #75567C4E84AA",
",. c #794381E88C4C",
"<. c #95C1927B8E9A",
"1. c #8A458DF79264",
"2. c #8E40919D95A5",
"3. c #9360922A90BA",
"4. c #989497B896B1",
"5. c #9286952B9856",
"6. c #9A479B279C34",
"7. c #9DEEA003A282",
"8. c #A516A58BA615",
"9. c #A839A807A7CC",
"0. c #AB98AC41AD0B",
"q. c #B618B679B6EE",
"w. c #B83BB814B7E4",
"e. c #B263B670BB48",
"r. c #BD7DBD5EBD38",
"t. c #B572BB96C2DD",
"y. c #B81DC03BC9FB",
"u. c #B97AC196CB55",
"i. c #C2A9C26EC227",
"p. c #C903C892C80A",
"a. c #CD22CCEFCCB3",
"s. c #C285CA60D3D4",
"d. c #D888DAB4DD54",
"f. c #DEB2E1EAE5BF",
"g. c #E1DAE1B0E17E",
"h. c #E2BCE5FCE9D8",
"j. c #ECF0ECDAECC0",
"k. c #E318EA16F27C",
"l. c #F659F655F64F",
"z. c #FDF5FE4BFEAB",
/* pixels */
"#.#.#.$.#.#.#.#.%.#.-.-.#.#.#.#.#.#.#.%.#.#.",
"#.#.@.#.%.=.%.*.#.%.~ ~ =.#.=.&.*.%.#.@.@.#.",
"#.*.;.*.%.W @ ! :.R A A R :.W @ Q &.=.-.*.%.",
"*.' , _ X.6 k.2 $.a 2.2.r &.2 k.4 o._ , ' *.",
"+.3 u.6  .u x y *.&., > *.&.y x y X.3 s.3 o.",
"#.7 >.8 +.;.> E =.-.0 9 -.=.E > -.@.8 >.6 #.",
"&.+.w 9 *.;.9 @ =.=.1 1 &.=.@ 9 -.=.9 w +.$.",
"#.*.=.. ~ :.m ; { o.z v o.{ ; s :.! . -.*.#.",
"#.#.$.< $ &.d ,.Y [ H K ] E ,.d =.$ < #.#.#.",
"#.#.&.m G Y d u.Z I 7.8.I V y.d Y S B &.#.#.",
"#.#.;.q e.M + f.3.O 0.0.O <.h.+ v t.y ;.#.$.",
"#.@.;.U 1.p.  * -   % #   - :   a.7.P ;.+.$.",
"#.#.=.) o b j p.j.i.l.j.q.g.i.f C o / -.#.#.",
"#.#.$.X.2 e.0.3.J L F F L L 3.8.0.2 X.%.#.#.",
"#.#.#.;.E & 4.9.q.r.i.i.r.q.8.6.* R ;.@.#.#.",
"%.#.#.*.{ 6 6.L H F F F F H J 6.f { *.#.#.#.",
"#.#.#.%. .= e.p.a.a.a.a.a.a.p.q.=  .*.#.#.#.",
"#.#.#.-./ * L c g c c c c c l 1.* ^ =.#.#.#.",
"#.#.@.;.a X 5.d.z.z.z.z.z.z.d.5.X p =.@.$.#.",
"%.#.#.$. .T u k v b N A b z 8 8 T } *.#.#.#.",
"#.#.#.#.*.=.&.o.| [ ] ] { | o.*.;.&.#.#.#.#.",
"#.%.#.#.#.@.#.$.*.*.-.*.*.%.$.#.@.#.#.#.#.%."
};
