/* XPM */
static char *qll__[] = {
/* columns rows colors chars-per-pixel */
"39 39 153 2",
"   c #00E900E100FB",
".  c #0AEC054300C4",
"X  c #0D070960058F",
"o  c #02BD05CE097C",
"O  c #0BDE0B930B39",
"+  c #12AD0BE00417",
"@  c #194C0EBB0210",
"#  c #1B7B112004B5",
"$  c #11240FFB0E97",
"%  c #1B34134A0A54",
"&  c #0A330D88119F",
"*  c #0C750FFB142F",
"=  c #0E8C12AE17A4",
"-  c #124E12DD138B",
";  c #19E016AF12D9",
":  c #1AC8188E15EA",
">  c #12A016141A3C",
",  c #16AB19EA1DCE",
"<  c #1BD51B851B25",
"1  c #214D1633091E",
"2  c #26D51A740C2E",
"3  c #2B7F1C970BA9",
"4  c #2E89204E0F3B",
"5  c #342E21FC0C2E",
"6  c #2EE1207E10AF",
"7  c #31DD25A81702",
"8  c #399726810F9A",
"9  c #368328CD185B",
"0  c #3A022B7419FC",
"q  c #16741BDA2255",
"w  c #1D0820C8254A",
"e  c #1F14230827C6",
"r  c #23AB237F234B",
"t  c #27EE26F925D4",
"y  c #238828052D67",
"u  c #2D2F2D522D7D",
"i  c #30222FE42F9A",
"p  c #278D2B943068",
"a  c #29B42DD632CC",
"s  c #2C6130703550",
"d  c #3399333032B1",
"f  c #339437453BD1",
"g  c #352D39313E05",
"h  c #43C22D671296",
"j  c #4A1B32911651",
"k  c #502737B51A5F",
"l  c #54863B6B1D57",
"z  c #59D73F201F12",
"x  c #4D1F3981220D",
"c  c #52E13D9123FF",
"v  c #5B3A41A722F6",
"b  c #5A7243E328E5",
"n  c #61E5454F2301",
"m  c #64C04AA72B55",
"M  c #6E1E4ED12941",
"N  c #6BD2504F2F4C",
"B  c #73EB52812A6B",
"V  c #747A559C3094",
"C  c #77E25945348A",
"Z  c #7C675B7C33F7",
"A  c #3A9B3E2D4282",
"S  c #3D1740F44598",
"D  c #430642CA4281",
"F  c #47FA47AC474E",
"G  c #481747D8478B",
"H  c #436D468B4A49",
"J  c #4BC34B864B3D",
"K  c #4B034D895095",
"L  c #529B52FF5376",
"P  c #538A56755A07",
"I  c #5595596A5E04",
"U  c #5D1A5D875E09",
"Y  c #55FB5A875FFB",
"T  c #5A165D57613E",
"R  c #5F0060CD62F5",
"E  c #635863ED64A1",
"W  c #6259659B6984",
"Q  c #6B476BBC6C48",
"!  c #6C626FE0740F",
"~  c #742E74457460",
"^  c #786C782777D5",
"/  c #76CB78FE7BA2",
"(  c #7EDB7D4F7B73",
")  c #82C85FAD358D",
"_  c #8410611D3723",
"`  c #875564AA3B10",
"'  c #8C1F6682395F",
"]  c #8E13699E3DDF",
"[  c #93896C953DD7",
"{  c #938E6DE240AD",
"}  c #A182783846B7",
"|  c #A8B57B1D4467",
" . c #A5E87B8248A6",
".. c #AA697E6C49A0",
"X. c #AC97804B4B2A",
"o. c #B33885244DD1",
"O. c #BADC89F34F42",
"+. c #B70288DB5179",
"@. c #BD118CC152B8",
"#. c #80C5806A7FFB",
"$. c #C493928D565F",
"%. c #CA4B95D656E3",
"&. c #CA90973A597E",
"*. c #CE1299BF5AEB",
"=. c #D2929D3C5D3C",
"-. c #D7BEA19B60A5",
";. c #DD58A5606235",
":. c #E0CEA73E622B",
">. c #E6D4AC10658A",
",. c #EB89AF66673D",
"<. c #E581AC9A6851",
"1. c #EA8FAF4F6836",
"2. c #ECD9B06467D7",
"3. c #EE28B1D06941",
"4. c #F3BBB59A6B0D",
"5. c #F7C8B8936CB6",
"6. c #FB69BB5A6E7D",
"7. c #FE9EBE607134",
"8. c #FFFFC4157395",
"9. c #FFFFC862779B",
"0. c #FFFFCC007A9B",
"q. c #82F482B98273",
"w. c #88C5874C8588",
"e. c #889F88598806",
"r. c #832C8588885C",
"t. c #8BA38B608B10",
"y. c #932F941F953F",
"u. c #969797ED9986",
"i. c #981799629AF0",
"p. c #9ABD9B129B79",
"a. c #A429A440A45E",
"s. c #A927A841A72D",
"d. c #A6A1A834AA17",
"f. c #AD6FAD66AD5C",
"g. c #B15AB068AF46",
"h. c #B5BCB57DB52F",
"j. c #B8D9B87EB811",
"k. c #BCD7BC8EBC36",
"l. c #C0C6C022BF5D",
"z. c #BF3CC01FC12F",
"x. c #C50AC4C8C477",
"c. c #C851C76AC656",
"v. c #C765C841C949",
"b. c #CCB4CC80CC42",
"n. c #D064D03BD00B",
"m. c #D410D3DED3A2",
"M. c #DAE6DA8CDA1E",
"N. c #E690E604E55D",
"B. c #EB85EB07EA70",
"V. c #F345F1EAF047",
"C. c #F51AF4ADF429",
"Z. c #F8B2F896F875",
"A. c #FF8FFF81FF6F",
/* pixels */
",.,.,.2.,.2.,.,.,.,.,.,.,.,.,.,.,.,.,.,.,.,.,.,.,.,.,.,.,.,.,.,.,.,.3.,.,.,.,.",
",.,.,.2.,.,.,.2.,.,.,.,.,.,.,.,.,.,.,.4.,.,.,.,.,.,.,.,.,.,.,.,.,.,.,.,.,.,.,.",
"2.2.,.,.,.2.,.,.1.,.1.4.2.,.,.,.,.4.3.-.4.4.,.1.2.,.,.4.,.,.,.,.,.,.,.1.,.,.2.",
",.,.,.,.,.,.,.2.,.4.3.=.3.4.,.,.4.$.%   % $.4.,.,.4.3.=.3.4.,.3.,.,.,.,.2.,.,.",
"1.2.<.2.3.1.,.>.5.@.%   % @.4.,.3.1 S k.D 1 1.1.4.$.%   % @.5.,.>.,.3.,.,.,.,.",
"2.1.4.4.:.5.4.,.1.# H x.H 1 <.4.=.  h.A.j.  *.4.,.% H x.H # ,.,.4.5.;.5.4.,.,.",
"1.4.%.3   3 %.6.*.  j.A.h.  *.5.>.# L M.P + 1.4.*.  j.A.j.  *.6.*.6   2 $.4.,.",
"1.3.2 f g.f 2 3.1.# K n.K # 1.,.4.o.X   X o.5.,.,.# K b.K @ <.4.4 s g.A 1 ,.2.",
"4.=.  h.A.j.  *.6.o.+   + @.4.1.,.6.+.  +.6.>.,.4.+.+   + +.7.=.  f.A.l.  *.4.",
"3.<.+ T N.R + <.,.4.6.b % 2.3.1.,.6.{   [ 6.>.,.2.3.% b 7.3.1.<.@ U N.W . :.3.",
">.5....      .5.,.<.6.N    .6.>.,.6.m   m 6.>.>.6.}   N 6.<.,.5.X.      } 4.,.",
",.,.4.;.$.7 Z 6.>.,.6.m   c 5.>.,.4.0 q 9 4.,.<.5.x   m 6.>.,.6.Z 9 %.-.6.,.,.",
",.2.,.,.8.c   =.4.>.6.v y : %.4.,.:.% / % ;.,.4.%.: y v 6.>.4.=.  c 9.,.,.,.,.",
",.,.,.<.5.C   b 5.>.8.j W D B 7.4.@.O x.- O.4.7.B A W j 8.>.6.v   Z 6.>.,.2.,.",
"2.2.,.>.6.[ o O ..4.6.h ! u.@ 4.6.[ , A.q [ 6.4.@ i.! h 7.5...O o { 6.,.,.,.,.",
",.,.,.,.6.| r U 1 ,.8.h W C.  o.9.n g A.A z 9.o.  V.W h 7.1.1 U t | 5.,.,.,.2.",
",.,.,.,.4.%.O x.> Z 0.8 T A.g z 0.5 W A.Q 3 0.l A A.Y h 0.Z = x.$ $.4.>.,.,.,.",
",.,.,.,.,.<.  k.a.  3.j I A.i.. >.+ y.A.u.+ :.. u.A.I j 2.  p.b.. >.4.,.,.,.,.",
",.,.,.,.,.4.# e.A.w m k Y A.B.> C + x.A.v.X V = B.A.Y k m w A.y.# 4.,.,.,.,.,.",
",.,.,.,.,.7.8 P A.f.. . Q j.h.Q   r #.> e.t   Q v.M.Q . . f.A.R 8 6.>.,.,.,.,.",
",.,.,.,.>.7.v p A.A.E   r o   :     o d O o   r   O i   E A.A.A z 7.,.,.2.,.,.",
",.,.,.,.>.6.]   d t.E     e.m.L d F h.A.p.i 7 d l.^     #.f.L   ` 6.<.,.,.,.2.",
",.2.,.,.,.6. .  d $ - J k.A.A.A.A.A.A.A.A.A.A.A.A.A.a.i o   <    .6.,.2.,.,.,.",
",.,.,.2.,.3.:.+ ~ A.A.A.A.C.N.M.b.x.k.k.k.x.n.M.N.Z.A.A.A.A.~ . :.2.,.,.,.2.,.",
",.2.2.,.,.,.6.[   s.e.D q X                       O < F t.g.  [ 6.,.,.,.,.,.2.",
",.,.,.,.,.,.,.4.9   : D ~ i.h.b.M.N.B.B.B.N.M.b.j.i.~ F <   9 3.,.,.,.,.,.,.,.",
"2.2.,.2.,.,.<.6.) - Z.A.A.A.A.A.A.C.C.V.C.C.A.A.A.A.A.A.A.> _ 7.<.,.,.,.,.,.2.",
",.,.,.,.,.,.>.6...o s.w.L d < O X o o       X O < u J q.a.  ..6.,.2.,.,.,.,.,.",
",.2.,.2.,.,.,.4.=.o   < b E q.i.s.h.k.x.k.j.f.i.q.E D <   o =.4.,.,.,.,.,.,.,.",
",.,.,.,.,.,.,.4.&.  j.A.Z.A.A.A.A.A.A.A.A.A.A.A.A.A.A.A.k.  %.4.,.,.,.,.2.,.2.",
"2.,.,.,.,.,.>.6.' & B.b.y.! J d t < : > : < t d J Q y.v.B.& ' 6.>.,.2.,.,.,.,.",
",.,.,.,.,.,.,.6.c   O     & u F U Q ~ ~ ~ Q U J d -     X   c 6.,.,.,.,.,.2.2.",
"2.2.,.,.,.,.4.:.# - ( v.C.A.A.A.A.A.A.A.A.A.A.A.A.A.Z.m.w.< + :.4.,.,.,.,.2.,.",
",.,.,.2.,.,.4.=.+ & W d.n.B.Z.A.A.A.A.A.A.A.A.A.C.N.v.a.W O . *.4.,.,.,.,.,.,.",
",.2.,.,.,.,.,.4.;._ 5 .   o > r s g A S A g a w =     . 3 Z =.4.,.,.,.,.,.2.,.",
",.,.,.2.,.,.,.,.3.6.7.1.=.o.[ Z M n v z v n M Z [ o.*.<.6.6.4.,.,.,.,.,.,.2.,.",
",.2.,.2.,.,.2.,.,.,.,.2.4.5.6.7.6.8.7.6.8.7.7.6.6.6.4.,.>.>.,.,.,.,.,.,.2.,.,.",
",.,.,.2.2.,.,.,.,.,.,.,.,.>.>.,.>.,.,.<.>.>.,.<.<.,.,.,.,.,.2.,.,.2.2.,.,.,.2.",
"2.,.,.,.,.,.2.,.,.,.,.,.,.,.,.,.,.,.,.,.,.,.,.,.,.,.,.,.,.,.2.,.,.2.,.,.2.,.,."
};
