/* XPM */
static char *qll__[] = {
/* columns rows colors chars-per-pixel */
"32 32 155 2",
"   c #012701220139",
".  c #085E06B104AF",
"X  c #0BB1089B04F5",
"o  c #000003980890",
"O  c #057209080D77",
"+  c #0C670BA40AC1",
"@  c #16C70EC4056E",
"#  c #11E90F710C89",
"$  c #1DAD116202A2",
"%  c #14BE10DC0C3E",
"&  c #1C9A14E10BE5",
"*  c #0A110DB2120B",
"=  c #0ECE1144144C",
"-  c #14B413D312C5",
";  c #1C08194315F1",
":  c #139D175F1BE2",
">  c #1D1F1CD41C79",
",  c #225513EB02F3",
"<  c #201216890B16",
"1  c #247719620C16",
"2  c #2C621D760B91",
"3  c #25E01F21170A",
"4  c #29C41E421073",
"5  c #20C31EF41CC9",
"6  c #31F421B90E43",
"7  c #39AA25F60E52",
"8  c #2F8722551281",
"9  c #214B20371EED",
"0  c #32FB24A9139B",
"q  c #3CF628A41042",
"w  c #3C9A2CC119BE",
"e  c #1A611E852380",
"r  c #1DDE216925AA",
"t  c #24BF23EC22F1",
"y  c #280725F5238A",
"u  c #24FC26642815",
"i  c #250528652C72",
"p  c #2DE32D802D09",
"a  c #320D2EFB2B51",
"s  c #351F2FD62983",
"d  c #29F52D9131E4",
"f  c #2E4332683760",
"g  c #2A4D30D738C7",
"h  c #326432E23379",
"j  c #346C38BB3DE7",
"k  c #3E0E3D933CFE",
"l  c #430F2CA411BD",
"z  c #4B9D35D81C0E",
"x  c #5AA23EE71DA1",
"c  c #46AB367521CA",
"v  c #4C3939362176",
"b  c #54F63DC121E7",
"n  c #41FB3EDA3B1F",
"m  c #582741C626EC",
"M  c #5B8F44CE2964",
"N  c #432840733D32",
"B  c #618944AE220E",
"V  c #647F487126C8",
"C  c #6C9A4BD02476",
"Z  c #630749D62BBB",
"A  c #6D5B4F4B2B3D",
"S  c #708D4E51253D",
"D  c #725950AA283F",
"F  c #7A4B56432B11",
"G  c #7E225A712F9D",
"H  c #751B5739336C",
"J  c #77BB580231F0",
"K  c #793F587B312A",
"L  c #429241F6413C",
"P  c #410146B04D81",
"I  c #44BB48354C64",
"U  c #4C6E4C0B4B92",
"Y  c #54BC5502555B",
"T  c #5843580757C0",
"R  c #53F5576F5B9C",
"E  c #5CDC5CAB5C6F",
"W  c #5AB25E316265",
"Q  c #5E7861076422",
"!  c #61AC6189615E",
"~  c #6642693B6CCC",
"^  c #6BA66C3A6CEB",
"/  c #724672D57382",
"(  c #73D377F37CE6",
")  c #76D979D97D7C",
"_  c #7E7C7E287DC5",
"`  c #81235FDD37EE",
"'  c #8604608A3392",
"]  c #883C6272351A",
"[  c #8B0266903AD3",
"{  c #8FC0684238DE",
"}  c #969A6EF33F5F",
"|  c #9C6F71823E00",
" . c #A199745C3E13",
".. c #97C770FF4277",
"X. c #98F071E6430D",
"o. c #A96A7C40460F",
"O. c #AE1C81694BD2",
"+. c #B1F980C545BB",
"@. c #B42D84E64C29",
"#. c #B97F87E54C5D",
"$. c #BCDD8B214F7C",
"%. c #BDA58CE85278",
"&. c #802E80027FCD",
"*. c #C1BA8EFF5221",
"=. c #C50A91C85444",
"-. c #CD0197015637",
";. c #CEDD98695712",
":. c #CF9699D85959",
">. c #D2059B8D5A31",
",. c #DA93A2EB6021",
"<. c #E12DA7706223",
"1. c #E6BBABD26525",
"2. c #EB72AF566735",
"3. c #ECD7B05367BD",
"4. c #EE65B194689A",
"5. c #F35CB56F6B21",
"6. c #F7C8B9136DD3",
"7. c #FAFDBB326EA0",
"8. c #FEF8BEDC71A2",
"9. c #FFFFC3EB7471",
"0. c #FFFFCB3D7A72",
"q. c #7C4A802784C9",
"w. c #813183FC8752",
"e. c #80B485628AFC",
"r. c #8C1E8BA08B09",
"t. c #89CA8CD6907D",
"y. c #8E9590D7938E",
"u. c #93CC93D793E3",
"i. c #9845978C96AE",
"p. c #930F95CD9916",
"a. c #9D5F9CE99C5C",
"s. c #9BE39F6EA3AF",
"d. c #9D45A08CA47C",
"f. c #A22CA2B1A352",
"g. c #A2C0A5F7A9D3",
"h. c #A58EA83AAB6E",
"j. c #A99FAB99ADF8",
"k. c #B03CB003AFC0",
"l. c #AC90AF89B31A",
"z. c #AE73B0C8B395",
"x. c #B460B43AB40C",
"c. c #B7D8B9D5BC38",
"v. c #BC6EBC87BCA6",
"b. c #C4F9C4F9C4F9",
"n. c #C5DAC837CB0E",
"m. c #CC5FCCF1CDA0",
"M. c #D4D4D4D1D4CF",
"N. c #D67CD7F3D9B6",
"B. c #DE8DDFFEE1B7",
"V. c #E033E183E316",
"C. c #E344E347E349",
"Z. c #E5A4E6F4E887",
"A. c #E9E9EA70EB12",
"S. c #F35CF357F352",
"D. c #FF4AFF45FF3B",
/* pixels */
"2.2.2.2.2.3.2.2.3.2.2.3.3.2.2.2.1.2.2.2.3.2.2.2.2.2.2.2.3.3.2.2.",
"3.2.2.2.2.2.3.2.1.2.1.3.2.2.5.7.7.5.2.3.2.2.2.2.2.2.2.2.2.2.2.3.",
"2.2.2.2.2.3.2.4.7.8.6.2.2.5.,.M B ,.5.2.2.6.8.8.3.2.2.2.2.2.2.3.",
"3.2.2.5.4.1.4.2.V $ K 5.2.2.8 P P 6 2.2.4.H $ V 2.3.2.3.5.2.2.2.",
"2.4.5.:.1.5.6.A g l.e [ 9.=.- S.S.- *.9.[ e j.g A 8.5.2.:.5.3.2.",
"2.3.v . & %.9.7 q.D.W x 9.<.1 ~ ~ 1 <.9.x W D.q.6 9.%.< . z 2.3.",
"8.{ i D.q.2 9...* Y - #.5.5.>.& & >.5.5.@.- Y * } 9.6 ( D.d ' 8.",
"8.' f D.p.2 5.5.#.$ Z 7.1.1.9.v c 9.1.1.7.Z $ #.5.6.6 t.D.j K 9.",
"4.<.0 - X o.6.1.9.M % 4.3.3.3.& & 2.2.2.2.@ M 0.<.6.@.+ = 0 <.4.",
"2.5.2.*.w ..8.<.6.m   @.6.4.;.9 > -.4.6.O.  m 6.1.7.X.w =.1.4.2.",
"3.2.1.0.Z . 1.2.6.m g M 6.6.| U U | 7.6.M g M 6.2.2.X Z 9.1.2.3.",
"2.3.1.6.[   H 7.8.z e.s ;.9.S / ( C 9.:.s q.z 6.6.H   [ 8.1.3.3.",
"2.2.2.6.X.d y $.9.7 l.Q F 0.l d.h.q 0.F W l.q 9.*.9 f | 8.1.3.3.",
"2.3.1.6.+.N w.0 0.0 l.v.2 8.1 b.m.1 8.2 c.z.6 0.6 w.I +.6.1.3.2.",
"2.3.2.5.>.3 C.i o.z s.D.9 +.9 C.A.3 o.> D.s.z o.y A.t >.4.2.2.3.",
"3.2.2.3.2.< N.l.1 6 s.D./ , n m.m.N $ / D.d.6 2 j.V.1 1.4.2.2.2.",
"2.2.2.2.6.6 d.D.Y   I > L   - + - >   U p !   Y D.h.2 6.2.2.2.2.",
"2.2.2.2.7.b : a._   X u.U 9 h v.j.9 - k _ .   u.c.p v 8.2.2.2.2.",
"2.2.3.1.7.K O k p ^ C.D.D.D.D.D.D.D.D.D.D.M.E > p o F 8.2.2.2.2.",
"3.2.2.2.6.=.# M.D.S.m.a.r._ / ^ ^ / _ r.f.m.A.D.M.# =.5.2.3.2.2.",
"2.2.2.3.1.8.A e s + > p k U T E E T U L h > % h r A 8.1.2.2.2.2.",
"2.3.2.2.2.5.,.. f.D.D.D.D.D.D.D.D.D.D.D.D.D.D.j.. ,.5.2.2.2.2.2.",
"2.3.3.2.2.2.4.4 y.a.E L p y t > > 5 t p k E i.t.4 4.2.2.3.2.2.2.",
"2.2.2.3.2.2.7.v O U / i.x.b.M.M.N.M.b.x.i./ U O v 6.2.2.2.2.3.2.",
"3.2.3.2.2.2.5.2 h.D.D.D.B.m.b.v.v.b.m.C.S.D.D.h.2 6.2.2.2.2.2.2.",
"3.2.2.3.2.5.>.+ Y p + . + - > > > > - - + + p Y # >.4.2.2.2.2.3.",
"2.2.2.2.2.6.X.  L r.b.B.S.D.D.D.D.D.D.S.C.b.i.U   ..6.2.2.2.2.3.",
"2.3.3.2.2.6.[   R f.m.Z.S.D.D.D.D.D.S.S.C.n.d.R   ` 6.2.3.3.2.2.",
"3.2.2.2.2.2.5.=.D 7 1 & ; t y y u y > ; & $ 7 C *.4.2.2.2.2.2.3.",
"2.2.3.3.2.2.2.5.9.8.5.<.:.*.#.@.@.#.*.:.<.5.8.8.5.2.3.2.2.3.2.2.",
"3.2.2.2.3.2.2.2.1.1.2.3.5.5.5.6.6.6.6.5.4.2.1.2.2.2.2.3.2.3.3.2.",
"3.2.3.2.2.2.2.2.2.2.2.2.2.2.2.1.2.1.2.2.2.2.2.3.2.2.2.3.2.2.2.3."
};
