/* XPM */
static char *qll__[] = {
/* columns rows colors chars-per-pixel */
"40 40 149 2",
"   c #01750120012D",
".  c #086D031C0000",
"X  c #0EA70A1904A3",
"o  c #045506D609F5",
"O  c #06AA091B0C1C",
"+  c #09F20A0C0A2D",
"@  c #13A10AC801C6",
"#  c #19B80DA50000",
"$  c #12A00E6C0961",
"%  c #1CF9115E0370",
"&  c #1DE415D00C18",
"*  c #05BB0A630FFA",
"=  c #0BAD0E7C11E5",
"-  c #0E5E11D215F6",
";  c #0E8712F1183C",
":  c #154914F2148C",
">  c #11B815451990",
",  c #14C418831D09",
"<  c #1C891C9F1CB9",
"1  c #23C4161605F5",
"2  c #2A411A1A06CF",
"3  c #227519340E14",
"4  c #2B7B1D150BD7",
"5  c #28131D7910C0",
"6  c #2DE721E51357",
"7  c #348B24F01236",
"8  c #36E4287E1737",
"9  c #3DF32AC413C7",
"0  c #3A342B241908",
"q  c #16FA1AF31FB9",
"w  c #183B1C3120F2",
"e  c #1D86216A2622",
"r  c #22E922B22271",
"t  c #20D224A42939",
"y  c #26F029DF2D61",
"u  c #2CB72C822C43",
"i  c #27452BF53195",
"p  c #2A0C2E523382",
"a  c #2D1C30F5359C",
"s  c #2DCF32C538BA",
"d  c #3488343233CB",
"f  c #334636223991",
"g  c #359938BF3C88",
"h  c #3A2F3B2F3C63",
"j  c #43262D4312FF",
"k  c #44C9314C19EA",
"l  c #4AC4351D1B21",
"z  c #4D1938041EB8",
"x  c #51D339541BF0",
"c  c #53DB3D622289",
"v  c #5BBF429B2468",
"b  c #5A2F437C283D",
"n  c #64614754246F",
"m  c #673549ED26CA",
"M  c #6182474E27DD",
"N  c #65AD4A5E2996",
"B  c #6BEA4EAC2B9A",
"V  c #6D2950322D7A",
"C  c #7522547E2D53",
"Z  c #78A956802D83",
"A  c #6DB951DC306C",
"S  c #792057C42FC8",
"D  c #77BE58B03363",
"F  c #7C335B5D33EA",
"G  c #3D633EFB40E5",
"H  c #3DA43FCF4269",
"J  c #439E43984390",
"K  c #4826479746EA",
"L  c #41B545874A1D",
"P  c #46DE47D148F4",
"I  c #4BFD4BB84B64",
"U  c #5311529A520B",
"Y  c #57AA5A235D25",
"T  c #59F35A1C5A4E",
"R  c #5EA4604F6275",
"E  c #662065E06593",
"W  c #647467646AE9",
"Q  c #6A196AEC6BEA",
"!  c #6B1A6DEF7154",
"~  c #7338739D7416",
"^  c #7866782577D7",
"/  c #74B876C6793E",
"(  c #776F78EE7ABA",
")  c #7C767CAC7CEF",
"_  c #806F5D5A3340",
"`  c #857E63733A89",
"'  c #898A66A93CCE",
"]  c #8E4F68ED3C11",
"[  c #95C36D653CF4",
"{  c #96366F7B40FB",
"}  c #9DF37522440D",
"|  c #A10676AF43E0",
" . c #A6C67C304916",
".. c #A9737DDE4990",
"X. c #ADE181474BC2",
"o. c #B3C285BD4E87",
"O. c #B74E88484FDA",
"+. c #BB608B485194",
"@. c #C0A68FAF54E6",
"#. c #C43292AA56BF",
"$. c #C71C95FC589F",
"%. c #CB3A97A859C5",
"&. c #CF4B9AA45B75",
"*. c #D34A9D835CFA",
"=. c #D6E8A0A55F87",
"-. c #DA62A2615F2D",
";. c #DCA2A4B56199",
":. c #E0CAA7C1634E",
">. c #E6ACABF26578",
",. c #EB94AF6E6741",
"<. c #EA2CAF6368D8",
"1. c #ECD5B06567DE",
"2. c #EE86B1D96906",
"3. c #F33FB54C6AF1",
"4. c #F7DBB8A26CBA",
"5. c #FAE7BB196E88",
"6. c #FE25BDFE70F9",
"7. c #FFFFC1337264",
"8. c #FFFFCB8078BA",
"9. c #83E9835982AC",
"0. c #8C3C8C248C08",
"q. c #90C18EA78C23",
"w. c #8E388F7090E7",
"e. c #947B949E94C8",
"r. c #957C970E98EF",
"t. c #96A398379A1D",
"y. c #9D929D799D5B",
"u. c #A06FA0359FF0",
"i. c #9E9FA03FA233",
"p. c #A480A47BA473",
"a. c #A84AA804A7B2",
"s. c #ABC1AB9DAB72",
"d. c #B148B0A6AFE4",
"f. c #B705B69AB619",
"g. c #BAF8BAC0BA7D",
"h. c #C44DC429C3FD",
"j. c #C852C823C7EB",
"k. c #C959C8AEC7E1",
"l. c #CC0DCBC4CB6D",
"z. c #D505D46CD3B3",
"x. c #D858D7D5D737",
"c. c #DDD8DD70DCF4",
"v. c #E492E444E3E6",
"b. c #ECCCEC58EBCC",
"n. c #F287F13DEFB2",
"m. c #F600F58AF4FF",
"M. c #F91DF80CF6D0",
"N. c #FA43F946F817",
"B. c #FF7CFF65FF49",
/* pixels */
",.,.,.,.1.,.1.,.,.,.,.,.,.,.,.,.,.,.,.,.,.,.,.,.,.,.,.,.,.,.1.,.,.,.,.2.,.,.,.,.",
",.,.,.1.,.,.1.,.,.,.1.,.,.,.,.,.1.,.>.2.,.,.,.,.1.,.,.,.,.,.1.,.,.,.,.,.,.,.,.,.",
"1.,.1.,.,.,.,.,.,.,.>.2.1.,.,.,.,.,.5.,.,.5.,.,.,.,.,.,.2.>.,.,.,.,.,.,.,.,.,.,.",
",.,.,.,.,.,.,.1.,.2.5.>.2.4.,.,.,.3.D . . D 3.,.,.,.4.2.>.5.2.,.,.,.,.,.,.,.2.,.",
",.,.,.>.,.,.>.,.2.,.c   @ } 4.>.5.{   ) )   { 5.>.4.} @   c >.2.,.,.>.,.>.,.1.,.",
",.,.2.6.3.6.3.>.5.M * e.R   @.3.5.l g B.B.G j 5.3.+.  R e.* M 6.>.3.6.3.6.2.,.1.",
",.2.:.b @ 9 &.3.2.@ ~ B.m.- F 6.5.B - c.c.> N 5.5.F - m.B./ @ 2.3.*.k @ c :.2.,.",
",.4.z = / i 1 :.5.7 g n.f.  } 4.,.;.5 o o 5 ;.1.5.|   f.n.g 7 5.,.3 e / ; l 3.,.",
"2.;.  y.B.z.  ..6.+.$     c 2.1.,.2.3.6 6 3.2.>.,.2.c     $ +.6.o.  l.B.a.  ;.2.",
"2.>.. ( B.f.  +.3.3.:.D   $.4.>.1.1.2.3 & 1.,.,.,.4.#.  D :.3.3.#.  a.B.9.. ;.3.",
",.4.`   ,   b 3.,.>.6.+.  B 5.,.>.3.*..   &.3.,.>.5.N   +.5.>.,.3.M   ,   F 4.>.",
",.,.4.X.S 7 ' 5.>.,.4. .  & >.1.>.4...+ +  .5.>.1.>.&    .4.,.>.6.' 8 S ..4.1.,.",
",.,.,.3.8.A   *.3.>.4.} = = } 5.>.6.S f g C 6.>.5.} - + } 5.,.3.*.  A 8.4.,.,.,.",
",.,.,.>.4.]   b 4.>.5.[ y Y j 5.>.6.j W ! j 6.>.5.9 Y y [ 5.>.5.b   [ 4.:.,.,.,.",
",.,.,.>.4...    X.3.6.[ t g.. *.3.3.% e.i.@ 3.3.&.  g.t [ 4.3.X.o   ..5.,.,.2.,.",
",.,.,.,.3.+.: H 4 1.6.[ , N.e S 7.;.  h.j.  ;.7.S w N., [ 6.1.4 h < +.3.,.,.,.,.",
",.2.,.,.2.;.X p.> F 8.[ > B.( % 6.+.  v.b.  o.6.% / B.- ] 8.F > a.$ ;.3.,.,.,.,.",
",.,.,.,.,.2.@ p.t.  ,.[ - B.z.  %.[ - N.B.> ] %.  z.B.> [ 2.  e.s.@ 2.,.,.,.,.,.",
",.,.,.,.,.5.4 W B., N | ; N.B.p B B s B.B.g m V i B.N.; | N , B./ 4 6.,.,.,.,.,.",
",.,.,.,.>.6.x g B.a.. c w M.B.e.@ 1 ! k.j.~ % @ e.B.M.w c . p.B.L l 6.>.,.,.,.,.",
",.2.,.,.>.6.S , B.B.I   u E + ~ :   d o   J   : 9.6 0.u   I B.B.e C 6.>.,.,.,.,.",
",.,.,.,.>.5.}   y.B.l.o   o U +       e.9.      o h +   + z.B.h.  } 6.>.1.1.,.1.",
",.,.,.,.>.4.+.    X <   + p.B.c.p.p.c.B.B.l.0.0.l.B.0.  o d <     O.3.,.,.,.,.,.",
",.2.,.,.,.2.;.. T e.~ a.m.B.B.B.B.B.B.B.B.B.B.B.B.B.B.v.9.I ~ K . =.3.,.1.,.,.1.",
",.,.,.2.,.,.5.N - b.B.B.x.d.e.) E T U U U U T E ( e.s.c.B.B.m.> m 5.,.,.,.,.,.,.",
",.,.,.,.,.,.3.;.@ f d       o : r u d d d d u t : o       d g @ ;.3.,.,.,.,.,.1.",
",.,.,.,.,.,.>.5.'   U y.j.b.B.B.B.B.B.B.B.B.B.B.B.B.b.l.p.T   ] 5.,.,.1.,.,.,.,.",
",.2.,.,.,.,.,.3.#.  j.B.B.N.v.k.g.s.p.u.y.p.s.f.k.c.N.B.B.k.  #.3.,.,.,.,.,.,.,.",
"1.,.1.,.,.,.,.3.;.X P J : o       o . + o o .   o o * ; J J X ;.2.,.,.,.,.1.1.,.",
",.,.,.,.1.,.,.,.3.6 o U ) p.j.c.b.m.B.B.B.B.m.b.c.j.s. .U o 6 3.,.,.,.,.,.,.,.,.",
",.,.,.1.,.,.,.,.>.. 0.B.B.B.B.B.B.b.b.v.v.b.n.N.B.B.B.B.B.w.. >.1.,.,.1.,.1.1.,.",
",.1.,.,.1.,.,.3.O.  s.s.E h < +                 + q h E a.s.  o.4.,.,.,.,.,.,.,.",
",.,.,.,.,.1.,.5.F   o   o u U ~ 0.y.a.s.s.a.y.e./ T u +       F 6.>.,.,.1.,.,.,.",
",.1.,.1.,.,.,.3.8   9.v.B.B.B.B.B.B.B.B.B.B.B.B.B.B.B.B.b.q.o 7 3.,.,.1.,.,.,.1.",
",.1.,.1.1.,.1.1.z   a ! y.h.c.b.M.B.B.B.B.B.B.M.b.z.g.t.W p   0 >.2.,.,.1.,.,.,.",
",.,.,.,.,.,.,.1.2.o.n 2 .     + > w e t t e , - o     . 2 v ..,.2.,.,.,.,.,.1.,.",
",.1.,.,.1.,.,.,.,.4.6.5.>.&.O.| [ F Z C C Z F ] } O.&.>.6.6.4.,.,.,.,.,.1.,.,.1.",
",.,.,.1.,.,.,.1.,.,.>.,.2.3.4.6.5.5.6.6.6.6.6.6.5.5.3.1.,.>.,.,.,.,.,.1.1.,.,.,.",
",.,.,.,.1.,.1.,.,.,.,.,.,.,.>.,.,.>.>.,.,.>.>.>.>.,.,.,.,.,.,.,.1.,.1.,.,.1.,.1.",
"1.,.1.,.,.,.,.,.,.,.,.,.,.,.,.,.,.,.,.,.,.,.,.,.,.,.,.,.,.,.,.,.,.,.,.,.,.,.,.,."
};
