/* XPM */
static char *qll__[] = {
/* columns rows colors chars-per-pixel */
"60 60 149 2",
"   c #009C008E0084",
".  c #083E051D019C",
"X  c #0DBC09C8050A",
"o  c #052B074109C1",
"O  c #0AC50A7F0A2D",
"+  c #11510BED057C",
"@  c #13120E5908B2",
"#  c #17570FCE06C3",
"$  c #17C00FB5060E",
"%  c #15A410110960",
"&  c #1CB015460C66",
"*  c #0C490DD80FB6",
"=  c #0F6E0FAD0FF9",
"-  c #13AE1389135E",
";  c #17611844195A",
":  c #1B611B241ADC",
">  c #22D119AF0EB9",
",  c #24281B32106F",
"<  c #28F11EA41244",
"1  c #2C4F2165144E",
"2  c #240021DB1F48",
"3  c #326C25841607",
"4  c #362828141720",
"5  c #391F29A81718",
"6  c #360B28F51942",
"7  c #3AB02BEA1A2D",
"8  c #3F372FEE1D97",
"9  c #246623DA2334",
"0  c #27F227862705",
"q  c #2A3D28D3271F",
"w  c #2D612C812B74",
"e  c #326330862E49",
"r  c #33AC335332E7",
"t  c #37E7366A34A0",
"y  c #3D383CC83C42",
"u  c #4397327A1DF1",
"i  c #481535AD1F98",
"p  c #459A34C3208D",
"a  c #49B537442122",
"s  c #4D7A3A532358",
"d  c #52B43E3C25AC",
"f  c #579741A82756",
"g  c #58E6423D270E",
"h  c #5A4543F82934",
"j  c #424C40CF3F04",
"k  c #642E4B182CFE",
"l  c #6C1250802F6A",
"z  c #6E4952A0316E",
"x  c #7194555C3380",
"c  c #763758D2358C",
"v  c #798E5B4636F0",
"b  c #7CFD5DEC38A4",
"n  c #7FAD60023A01",
"m  c #44B843ED42FA",
"M  c #47F347964725",
"N  c #48E3485247A5",
"B  c #4C244B904ADF",
"V  c #511F4FCF4E35",
"C  c #516050784F63",
"Z  c #53D1536D52F5",
"A  c #598B58A4578F",
"S  c #5CB35C275B7D",
"D  c #60585F705E5A",
"F  c #60CD603F5F8B",
"G  c #65186445634A",
"H  c #68796814679B",
"J  c #6D5D6CB86BF2",
"K  c #70376FD06F53",
"L  c #715A70546F1B",
"P  c #74EB742C7347",
"I  c #783F76EA7554",
"U  c #7E377D9B7CE1",
"Y  c #83EA62A03AAD",
"T  c #897066853C9F",
"R  c #8DD769E83EC8",
"E  c #91486C323FB1",
"W  c #8F206B283FFF",
"Q  c #92666D6B410A",
"!  c #96C370D54345",
"~  c #99D473134490",
"^  c #A1927882473B",
"/  c #A4FF7B3E4923",
"(  c #A98F7F124C15",
")  c #800D7F9F7F1A",
"_  c #AD5281AB4D49",
"`  c #B25784FB4E8B",
"'  c #B4AF87635107",
"]  c #B75888F05141",
"[  c #BB448BEF52F4",
"{  c #812D804C7F41",
"}  c #C0C68FAE54C4",
"|  c #C2E4919B5660",
" . c #C750952158E8",
".. c #CA36971A597A",
"X. c #CE619A3B5BA7",
"o. c #D4A39E845D93",
"O. c #D707A0695EDE",
"+. c #D9D9A24C5FA3",
"@. c #D7AAA13D5FEE",
"#. c #DC69A44C60F6",
"$. c #E08CA74D629A",
"%. c #E77BAC64657C",
"&. c #EBA3AF7A6748",
"*. c #ECCFB05F67D0",
"=. c #EEE7B1EC68BD",
"-. c #F4C8B64A6B4D",
";. c #F7EBB8A16CAE",
":. c #FB54BB2B6E2C",
">. c #FFFFBF8470BA",
",. c #FFFFC42F737F",
"<. c #848F83F88343",
"1. c #88E1878A85EE",
"2. c #88C0885087C8",
"3. c #8C5E8BB78AEE",
"4. c #90588FED8F6C",
"5. c #912E90568F54",
"6. c #960995419452",
"7. c #9823979D96FC",
"8. c #99A9983F968D",
"9. c #9DF49D1D9C1B",
"0. c #A05F9FF49F73",
"q. c #A25EA1179F8E",
"w. c #A524A44DA34B",
"e. c #A87BA740A5C8",
"r. c #AA0FA8CEA74C",
"t. c #ACEBAC21AB2E",
"y. c #B159B012AE8A",
"u. c #B535B472B387",
"i. c #B888B76AB613",
"p. c #BDB7BCD8BBCA",
"a. c #C042BF55BE37",
"s. c #C1CEC0C2BF81",
"d. c #C611C563C492",
"f. c #C8D7C81FC742",
"g. c #C91EC891C7E9",
"h. c #CD79CCF6CC5A",
"j. c #D18FD0CBCFD7",
"k. c #D5C5D549D4B4",
"l. c #D876D799D690",
"z. c #DCDBDC56DBB9",
"x. c #E1D9E127E053",
"c. c #E512E4B2E43E",
"v. c #E939E8D1E855",
"b. c #ED36ECBCEC2A",
"n. c #F0A0F03CEFC5",
"m. c #F163F09EEFB1",
"M. c #F66AF62DF5E3",
"N. c #F87BF879F876",
"B. c #FF39FF37FF35",
/* pixels */
"&.&.*.&.&.&.&.&.&.&.&.&.&.*.*.&.&.*.&.&.&.&.&.&.&.&.&.&.&.&.*.&.&.&.&.&.&.&.&.&.&.&.&.&.&.*.&.*.&.&.&.&.*.&.&.*.&.&.*.&.",
"&.&.&.&.&.*.&.*.*.&.*.&.&.&.&.&.&.&.*.&.&.&.&.&.&.&.&.&.&.&.&.&.&.&.&.&.&.&.*.&.*.&.&.*.&.&.&.&.*.&.&.*.&.&.&.&.&.*.&.&.",
"&.&.&.&.&.&.&.&.&.&.&.&.&.&.&.&.&.&.&.&.&.&.&.&.&.&.&.&.&.&.&.&.&.&.&.&.*.&.&.&.&.&.&.&.&.&.&.&.&.&.*.&.&.*.&.*.&.&.&.&.",
"*.&.*.&.*.&.*.&.&.&.&.&.&.*.&.*.&.&.&.&.&.&.&.&.*.&.&.&.-.:.;.;.&.&.&.&.&.&.*.&.&.&.&.&.&.&.&.&.&.&.&.&.&.&.&.&.&.&.*.&.",
"&.&.&.&.&.*.&.&.&.&.&.&.&.&.&.&.&.*.*.&.&.&.&.&.&.&.&.;.[ R R [ ;.&.&.&.&.&.&.&.&.&.*.&.&.&.&.&.&.&.&.&.&.&.&.&.&.*.&.*.",
"&.&.&.&.&.&.&.&.&.&.&.&.&.&.&.;.;.$.&.;.&.&.&.&.&.&.-.l         l ;.&.&.&.&.&.&.;.&.$.;.;.&.&.&.&.&.&.&.&.*.&.*.&.&.&.&.",
"&.&.&.&.&.&.&.*.&.&.&.&.&.&.;./ 6 @ , c &.-.&.&.%.;.R   % D D -   Y ;.&.&.&.=.&.x , % 6 ^ ;.&.&.&.&.&.&.&.&.&.&.&.&.&.&.",
"*.&.&.&.&.%.&.&.&.&.&.&.%.;.R           u *.&.&.&.=.3   t.B.B.u.  < &.&.&.&.*.u           R ;.&.&.*.&.%.%.&.&.&.&.&.&.&.",
"&.&.*.&.-.;.;.;.;.*.&.&.-.O.+   6.v.d.q   ~ ;.%.=.#.@   c.B.B.c.. O #.=.%.;.!   q f.c.6.  + +.-.&.&.&.;.;.;.;.-.%.&.&.&.",
"&.*.&.-.#.c u u T &.=.%.;._   y B.N.B.6.  h ;.&.&.=.<   i.B.B.p.  < &.&.&.;.h   6.B.N.B.y   ( ;.&.*.*.R p u x #.-.&.&.&.",
"&.&.=.o.>         7 %.&.;.(   y B.N.B.8.  g ;.&.%.>.b   : P P :   v ;.%.&.;.h   6.B.N.B.y   ( ;.&.&.i         & X.-.&.&.",
"&.&.;.f   m u.t.e   c ;.=.o.X   0.b.h.w   Q ;.%.&.*.=.f         f -.=.&.%.;.Q   w j.b.0.  X o.*.;.Y   q r.i.B   i ;.%.&.",
"&.*.#.+   z.B.B.a.  1 *.&.;.Y     .     5 &.&.&.&.&.&.;./ % @ / ;.&.&.&.&.&.&.5     .     Y ;.%.-.5   u.B.B.v.O . o.=.&.",
"%.-.o.. - b.B.B.k.  & %.&.&.;.~ 1 + . s &.=.&.&.&.&.%.;...     .-.&.&.&.&.&.=.%.s . O 1 ~ ;.&.&.*.1   g.B.B.M.:   ..-.&.",
"&.&.&.1   9.B.B.U   p ;.&.&.&.;.>.W   7 *.&.&.&.&.&.&.;.Q     R :.&.&.&.&.&.&.&.6   R :.;.&.&.%.;.f   L B.B.t.  & %.&.&.",
"&.%.;.Q   . w 0     ` ;.%.&.&.$.;.W     ` ;.&.&.&.&.&.:.l     k ;.%.&.&.&.&.;._     E :.$.&.&.&.;.]     9 w .   R ;.%.&.",
"&.&.&.;.R @     O R ;.&.&.&.&.&.;.R     h :.&.&.&.&.&.;.7     5 ;.&.&.&.&.%.;.g     T ;.&.&.&.&.%.:.! @     + Y ;.&.&.&.",
"&.&.&.&.;.#.] ' > 3 *.=.&.&.&.%.>.Y     % #.-.&.&.&.&.%.# : : + $.=.&.&.&.=.+.@     T :.%.&.&.&.&.&.3 < [ ] #.;.&.&.*.&.",
"&.&.&.&.&.=.;.;.<   Y ;.%.&.&.%.;.Y   2   Q ;.%.&.&.-.X.  B S    .-.&.&.%.;.Q   2   Y :.%.&.&.%.:.T   1 ;.;.*.&.&.&.*.&.",
"&.&.&.&.&.&.%.-.u   + o.-.&.&.%.:.Y   P o 7 ;.&.&.%.;.(   <.3.  / ;.%.&.&.-.5 o P   Y :.%.&.&.-.o.@   i ;.%.&.&.&.&.&.&.",
"&.&.&.&.&.&.&.>.k     g ;.&.=.%.:.Y   r.N   ..-.&.%.>.b   t.p.  c ;.&.&.;. .  M r.  Y :.&.&.&.;.h     k :.&.&.&.&.&.&.&.",
"&.&.&.&.*.&.%.;.b   .   ` ;.&.%.:.Y   u.q.  b ;.%.&.;.s   j.z.  i ;.%.%.;.c   w.u.  Y :.%.%.;.`   .   Y :.%.&.&.&.&.&.&.",
"&.&.&.&.&.&.&.;.^   q   1 =.&.&.:.b   t.m.  > &.&.&.*.,   b.M.O & &.*.&.&.>   b.t.  b :.%.&.-.3   w   ^ ;.&.*.&.&.*.&.&.",
"&.*.&.&.&.&.&.;.[   F V   W >.$.>.b   w.B.B   ` ;.=.O.  0 B.B.e   o.=.;._   N B.w.  b :.%.;.R   B H   | ;.&.&.&.&.&.&.&.",
"*.&.&.&.&.&.&.-.#.  y d.  % #.=.;.c   w.B.w.  h ;.-.'   C B.B.S   _ ;.;.f   q.B.w.  v ;.*.#.%   f.B   #.=.&.&.&.&.&.&.&.",
"&.&.&.*.*.&.&.&.&.# * B.G   k ;.;.c   w.B.b.- X o.>.W   U B.B.1.  Y >.O.o - b.B.w.  c ;.;.k   S B.: # &.&.&.&.&.*.&.*.&.",
"*.&.*.&.&.&.&.&.;.5   z.b.O   ] ,.x   w.B.B.G   W ,.h   t.B.B.u.  d ,.Q   G B.B.w.  x ,.]   O c.b.  3 ;.&.&.&.&.&.&.&.&.",
"&.&.&.&.&.&.&.%.;.g   y.B.<.  7 ,.x   e.B.B.p.  7 >.3   h.B.B.l.  < ;.7   i.B.B.w.  z ,.7   <.B.a.  g ;.&.&.&.&.*.&.&.*.",
"&.&.&.&.&.&.&.%.:.b   3.B.M.w   / n   w.B.B.N.0   ] @ * n.B.B.M.- O '   0 M.N.B.w.  b /   q b.B.9.  v >.%.&.&.&.&.&.*.&.",
"&.&.*.&.&.&.&.&.;.~   G B.B.t.  1 h   w.B.M.B.U   p   y b.) U b.j   p   I B.N.B.w.  h 1   t.B.B.I   ~ ;.%.&.&.&.&.*.&.&.",
"*.&.&.*.&.&.&.&.;.'   y B.N.B.N   O   9.I ; S d..     B y     N F       d.U y u.e.  O   N B.N.B.B   ' ;.&.&.&.&.&.&.&.&.",
"&.&.&.&.&.&.&.%.-.X.  ; M.B.B.h..     0       9 -   . o   q 0   - .   : t     O m     . g.B.B.B.q   ..-.&.*.&.&.&.&.*.&.",
"*.&.*.&.&.&.&.&.=.$.#   S l.B.B.H   o     8.S           M b.l.q           y U     .   I B.B.N.3.  @ $.&.&.&.&.&.&.&.&.*.",
"&.&.&.&.*.&.&.&.&.-.3       w y 9     O r.B.B.h.3.P <.d.B.B.B.M.w.S B G t.M.B.3.      y G Z :     1 -.&.&.&.&.&.*.&.&.&.",
"&.*.&.*.&.&.&.&.%.;.d   0 -       - G z.B.N.B.B.B.B.B.B.N.N.N.B.B.B.B.B.B.B.N.B.p.t         o -   a ;.&.&.&.&.&.*.&.&.&.",
"&.&.&.&.*.&.&.*.&.;.b   m b.g.p.h.b.B.B.B.B.B.B.B.B.B.B.B.B.B.B.B.B.B.B.B.B.B.B.B.B.k.w.6.0.j.t   c ;.%.&.&.&.&.&.&.&.*.",
"&.&.&.*.&.&.&.&.&.=.#.&   9.B.B.B.B.B.B.M.v.l.d.i.t.w.7.6.6.6.6.9.w.t.u.d.k.c.N.B.B.B.B.N.B.e.  & #.-.&.&.&.&.&.&.&.&.*.",
"&.*.&.&.*.&.&.*.&.&.:.E   : v.c.t.) Z r -                                     - r Z U t.c.b.9   Q :.%.&.*.&.*.&.&.*.&.&.",
"&.&.&.&.&.*.&.&.&.&.&.*.3   : o         . ; w y B S G J P I P P J G S Z m w : .         . 9   3 =.&.&.&.&.&.&.*.&.*.&.*.",
"&.*.&.*.&.&.&.&.&.&.&.;.`     : C <.t.h.c.M.B.B.B.B.B.B.B.B.B.B.B.B.B.B.B.B.M.v.k.u.3.Z 9     ` ;.&.&.*.&.&.&.&.&.&.&.&.",
"&.*.&.*.&.&.&.&.&.&.&.&.=.<   a.B.B.B.B.B.B.B.B.B.B.B.B.B.B.B.B.B.B.B.B.B.B.B.B.B.B.B.B.g.  < =.&.&.&.&.&.&.&.&.&.&.&.&.",
"&.&.&.&.&.*.&.&.&.&.&.&.;.s   w.B.B.B.B.b.l.g.u.e.7.6.2.<.U <.<.3.3.6.w.u.d.l.v.M.B.B.B.e.  s ;.&.&.&.&.&.&.&.&.&.&.*.&.",
"&.*.&.&.*.&.&.*.&.&.&.%.:.c   G u.K M 9 O                                     . : m H t.G   c :.%.&.&.&.&.&.&.&.*.&.&.*.",
"&.&.&.*.&.&.&.&.*.&.&.&.:.~             ; r N S J U 3.4.6.6.6.6.4.1.U P S N r : .       .   ~ ;.&.&.&.&.&.&.&.&.&.&.&.&.",
"&.&.&.&.&.&.&.*.&.&.&.&.;.[   O J w.f.c.M.B.B.B.B.B.B.B.B.B.B.B.B.B.B.B.B.B.B.N.v.g.w.P O   [ ;.%.&.&.&.*.&.*.&.*.&.*.&.",
"&.*.&.*.&.&.&.&.&.&.&.%.:.~   m B.B.B.B.B.B.B.B.B.B.B.B.B.B.B.B.B.B.B.B.B.B.B.B.B.B.B.B.B   ~ ;.&.&.&.&.&.&.&.&.&.&.&.&.",
"&.&.&.&.&.&.&.&.&.&.&.&.;.h   3.B.B.B.N.z.g.u.9.3.U I J H G G H J I { 3.0.u.g.z.M.B.N.B.4.  h ;.&.&.&.&.&.&.&.&.&.*.&.*.",
"*.&.&.*.&.&.&.&.&.&.&.=.&.>   r.t.H j : .                                     . : y G t.e.  > &.*.&.*.&.&.*.*.&.&.&.&.&.",
"&.&.&.&.*.&.*.&.&.&.&.;.}   . o         . ; e M S J U <.3.3.3.3.<.U P S B t : o         O     [ ;.&.&.&.&.&.&.&.*.&.&.*.",
"*.&.&.&.&.&.&.&.&.&.%.:.T       - N <.i.z.M.B.B.B.B.B.B.B.B.B.B.B.B.B.B.B.B.M.c.p.5.Z :   .   Y ;.&.&.&.&.&.&.&.&.&.&.&.",
"&.*.&.*.&.*.*.&.&.&.%.;.a   2 t.B.B.B.B.B.B.B.N.N.N.N.N.N.N.N.N.N.N.N.N.N.N.B.B.B.B.B.B.p.w   p ;.&.&.&.&.*.&.&.*.&.*.&.",
"&.&.&.&.&.&.&.&.&.&.&.&.1   O y P t.l.M.B.B.B.B.B.B.B.B.B.B.B.B.B.B.B.B.B.B.B.B.n.j.w.K t o   & %.&.&.&.&.&.&.&.&.&.&.&.",
"&.&.&.&.&.&.&.*.&.&.&.-.o.l &         : y A P 3.9.t.u.p.p.d.d.d.p.u.r.7.<.J C r -         @ g | =.&.&.&.&.&.&.&.&.&.&.&.",
"*.&.*.&.*.&.&.&.*.&.&.&.-.:.%.] T d < .                                           < s b ` $.;.-.&.&.*.&.*.&.&.*.*.&.&.*.",
"&.&.*.&.*.&.&.&.&.&.&.&.&.%.*.;.;.;.=.#. .' ~ Y c k h d s a a s d g k x Y ! _ | o.&.;.:.;.=.&.&.&.&.&.*.*.&.&.&.&.&.&.*.",
"*.&.&.&.&.&.&.*.&.&.&.&.&.&.&.&.%.&.&.=.-.;.:.;.>.:.;.;.;.;.;.;.;.;.:.;.>.;.;.;.-.&.&.%.&.&.&.&.&.&.&.&.&.&.&.*.*.&.&.&.",
"&.&.*.&.&.&.&.&.&.&.&.&.&.&.*.&.&.&.&.&.&.%.%.%.%.%.%.&.&.%.&.%.&.&.%.%.&.%.&.%.&.&.&.&.&.&.&.&.&.&.&.*.&.*.&.*.&.&.*.&.",
"&.&.&.&.*.&.&.*.&.*.&.*.&.&.&.&.*.&.&.&.&.*.*.&.=.&.&.&.&.&.&.&.&.&.&.&.&.&.&.&.&.&.&.&.&.&.=.&.*.&.&.&.&.&.&.&.&.&.&.&.",
"&.&.*.&.&.&.&.*.&.&.&.&.&.*.&.&.&.&.&.&.&.&.&.&.&.&.&.&.*.&.*.&.&.&.&.&.&.&.&.&.&.&.&.&.&.&.&.=.*.&.&.&.&.*.*.&.&.&.*.&.",
"&.*.&.&.*.&.&.&.*.&.*.&.&.&.*.&.*.&.*.&.&.&.*.&.&.&.&.&.&.&.&.&.=.&.&.&.&.&.&.&.&.&.&.&.&.&.&.&.&.&.&.*.&.&.&.&.&.*.&.&."
};
