/* XPM */
static char *qll__[] = {
/* columns rows colors chars-per-pixel */
"80 80 144 2",
"   c #00A0008C0078",
".  c #085006D50511",
"X  c #0AD808D20665",
"o  c #0C310B740A93",
"O  c #10860C500740",
"+  c #121E0E830A2F",
"@  c #126010260D79",
"#  c #1AEA14900CF0",
"$  c #1E9B17BD0F7F",
"%  c #143F139012BE",
"&  c #17D117751708",
"*  c #1AF21803147E",
"=  c #1CD41C461B9A",
"-  c #20BD189C0EDD",
";  c #24991BB6110D",
":  c #29701F2312C4",
">  c #1FF21EEE1DBA",
",  c #2C0F211F1402",
"<  c #20F9200C1EF1",
"1  c #32022580167E",
"2  c #32BA26971806",
"3  c #364728D918BA",
"4  c #3BE42CDF1ADA",
"5  c #249323E9231C",
"6  c #27C1274926B8",
"7  c #294E28582733",
"8  c #2C642BB22ADD",
"9  c #2FF02EC62D5E",
"0  c #3097300E2F6A",
"q  c #351634503362",
"w  c #3817375A3678",
"e  c #396538733752",
"r  c #3C1A3B5F3A7F",
"t  c #439032861E13",
"y  c #4693352B2046",
"u  c #492236AE2089",
"i  c #4D2B39CB228B",
"p  c #52903DCC24E1",
"a  c #402F3F533E4B",
"s  c #565840D226FF",
"d  c #587341FE270B",
"f  c #5C3244ED28FF",
"g  c #413740683F71",
"h  c #602D479F2A27",
"j  c #642B4AC22C45",
"k  c #69AC4EC42E7B",
"l  c #6C00506E2F59",
"z  c #6E6B526630C7",
"x  c #738C561D32CC",
"c  c #7628580833E2",
"v  c #7BC65C3E3658",
"b  c #7FAD5F253801",
"n  c #4405435F4298",
"m  c #4841478A46AE",
"M  c #48AA47F4471A",
"N  c #4C964BD54AED",
"B  c #4FF94F6F4EC8",
"V  c #518F50A34F87",
"C  c #5508545A5388",
"Z  c #5838577A5696",
"A  c #588457F8574F",
"S  c #5CDA5C215B44",
"D  c #608B5F5B5DF1",
"F  c #614960775F7C",
"G  c #645963CC6323",
"H  c #6CBD6C1A6B57",
"J  c #70ED6FA86E22",
"K  c #70FF70526F82",
"L  c #749973EE7321",
"P  c #793D788F77AE",
"I  c #7CD67C3C7B83",
"U  c #80035F6C3850",
"Y  c #83E2624C39F0",
"T  c #897666613C49",
"R  c #8DF969D63E58",
"E  c #90496B7C3F53",
"W  c #93726DD340AE",
"Q  c #972C70954246",
"!  c #9C1274454481",
"~  c #A07F7786465C",
"^  c #A311796F477A",
"/  c #A69B7C14490E",
"(  c #A9C27E6B4A69",
")  c #80067F487E64",
"_  c #AE0781994C47",
"`  c #B2CC85264E5E",
"'  c #B60A87984FDD",
"]  c #B75C8893506E",
"[  c #BC2E8C23527D",
"{  c #80EB80457F7E",
"}  c #C11D8FD154A9",
"|  c #C53E92EC567A",
" . c #CADF972258F4",
".. c #CEE49A125AB0",
"X. c #D3BD9DAE5CCF",
"o. c #D781A07C5E75",
"O. c #D995A2085F5F",
"+. c #DE0AA55A6153",
"@. c #E150A7C962C1",
"#. c #E72CAC266552",
"$. c #EBB4AF86674F",
"%. c #ECBBB04A67C2",
"&. c #EEA0B1B36897",
"*. c #F418B5C66AFD",
"=. c #F7FCB8B96CB9",
"-. c #FAF7BAE46DFF",
";. c #FFFFC33872E8",
":. c #FFFFC8E2763C",
">. c #855784BC8401",
",. c #885987C9871C",
"<. c #8921889587EE",
"1. c #8C3A8B938ACB",
"2. c #90498FB58F04",
"3. c #910390648FA7",
"4. c #95CD95389484",
"5. c #986397C6970A",
"6. c #994898A497E0",
"7. c #9CB89C089B36",
"8. c #A0439F699E62",
"9. c #A0F6A06C9FC6",
"0. c #A450A3B3A2F8",
"q. c #A85FA7CBA719",
"w. c #ACE0AC4AAB96",
"e. c #B084AFEFAF3D",
"r. c #B118B087AFD9",
"t. c #B4C1B426B36B",
"y. c #B880B7FAB758",
"u. c #B8CDB843B79D",
"i. c #BDE0BD5FBCC4",
"p. c #C104C057BF87",
"a. c #C597C512C471",
"s. c #C93BC8AFC807",
"d. c #CCA2CC22CB89",
"f. c #D141D0B3D007",
"g. c #D4C6D44ED3BD",
"h. c #D881D80FD786",
"j. c #D91DD8A9D80A",
"k. c #DCA4DC32DBA8",
"l. c #E5A9E541E4C4",
"z. c #E90DE8A9E830",
"x. c #ED22ECC4EC53",
"c. c #F096F044EFE2",
"v. c #F63BF60FF5DA",
"b. c #FEC2FEC0FEBE",
/* pixels */
"$.$.$.$.$.%.$.$.%.$.%.$.$.%.$.$.$.$.$.$.$.$.$.$.$.$.$.$.%.$.$.%.$.$.%.$.$.$.$.$.$.$.$.%.$.$.$.$.$.$.$.$.%.$.$.%.$.$.%.$.$.$.$.$.$.$.$.$.$.$.$.$.$.$.$.$.$.%.$.$.",
"$.$.$.%.$.$.$.$.$.$.$.$.$.$.$.$.$.$.$.%.$.%.$.%.%.$.$.%.$.$.$.$.$.$.$.$.$.%.%.$.$.$.$.$.$.$.%.$.$.%.%.$.$.$.$.$.$.$.$.$.$.%.%.$.%.$.$.%.%.$.%.$.%.$.$.%.$.$.$.$.",
"$.$.$.$.%.$.%.$.$.$.$.$.$.%.%.$.$.$.$.$.$.%.$.$.$.$.$.$.%.$.$.%.%.$.$.$.$.$.$.$.$.$.$.$.%.$.%.$.$.$.$.$.%.$.$.%.%.$.$.$.$.$.$.$.$.$.$.$.$.$.%.$.$.$.$.$.%.$.$.%.",
"$.$.%.$.$.$.$.$.%.$.%.$.$.$.$.$.$.$.$.$.$.$.$.$.%.$.$.%.$.$.$.$.$.$.%.$.$.$.$.$.$.$.$.$.$.$.$.$.$.$.%.$.$.$.$.$.$.$.%.$.$.%.$.$.%.$.$.%.$.$.$.$.$.$.%.$.$.$.$.$.",
"%.$.%.$.$.$.$.$.$.%.$.$.$.$.$.$.$.$.$.$.$.$.$.$.$.$.$.$.$.$.$.$.$.$.$.$.$.$.$.$.$.$.#.$.$.$.$.$.%.$.$.$.$.$.$.$.$.$.$.$.$.$.$.$.$.%.$.$.$.$.$.$.%.$.%.$.$.$.$.$.",
"$.$.$.$.%.$.%.$.$.$.$.%.%.$.$.%.$.$.$.$.$.$.$.$.$.$.$.$.$.$.$.%.$.$.$.$.$.=.*.#.#.=.=.$.$.$.$.$.$.$.$.$.$.$.$.$.$.$.$.$.%.$.$.%.$.$.$.$.$.$.$.$.$.$.$.$.%.$.$.%.",
"$.$.$.$.$.$.%.$.$.$.$.$.$.$.$.$.$.$.$.$.$.#.$.&.%.$.$.$.%.%.$.$.$.%.$.$.=.! t # ; 4 ~ =.&.$.$.$.$.$.$.$.$.$.#.$.&.$.$.$.$.$.$.$.%.$.$.$.$.$.$.$.%.$.$.$.$.$.%.$.",
"%.$.$.%.$.$.$.$.$.%.$.%.$.$.%.$.$.$.$.$.*.-.&.@.$.=.*.#.$.$.$.$.$.$.$.*.h             f *.$.$.$.%.$.$.&.$.*.=.$.@.%.-.&.$.%.$.%.$.$.$.$.$.$.$.$.$.$.%.$.$.$.$.$.",
"$.$.$.$.$.$.$.$.$.$.$.$.$.$.$.$.$.$.$.*.+.z , # : f ..=.$.$.$.$.$.#.=.U     X q q X     v =.$.$.$.$.$.#.=. .d : # , l +.*.$.$.$.$.$.$.$.$.$.$.$.$.$.$.$.$.%.$.$.",
"$.$.$.$.$.$.$.$.%.$.$.$.$.$.$.$.$.$.*.| #           X _ *.#.$.$.$.*.+.#   = d.b.b.g.=   O +.&.$.$.$.$.=._ .           #  .*.#.$.$.$.%.$.$.%.$.$.$.$.$.$.$.$.$.%.",
"$.$.$.$.$.$.$.$.$.$.#.$.$.$.$.$.$.%.@.:     = r 5     O X.*.$.$.$.=.`     L b.v.b.b.)     ( =.$.$.$.*...O     5 r =     : #.&.$.$.$.$.$.$.$.$.$.#.$.$.$.$.$.$.$.",
"$.$.$.$.$.$.&.-.=.=.-.=.$.$.$.$.$.=.T     G b.b.b.>.    k =.$.$.$.=.~     4.b.b.v.b.7.    ! -.#.$.#.=.k     >.b.b.b.G     T =.#.$.$.$.$.*.-.=.=.-.&.$.%.$.%.$.$.",
"$.$.%.%.$.*.@.T p i z [ =.$.$.$.$.*.i   . k.b.b.b.v.=   1 %.$.$.#.*.]     G b.b.b.b.H     ' =.#.$.$.&.1   = v.b.b.b.k.X   i =.$.$.$.$.=.} x i p T +.=.$.$.$.$.$.",
"$.$.$.$.=.[ #           l *.$.$.$.*.4   % x.b.b.b.b.0   ; #.%.$.$.&.$.:   X 7.x.x.7.X   ; @.&.$.$.$.#.;   0 b.b.b.b.x.&   4 *.$.$.$.*.v           + ` =.#.$.$.$.",
"$.$.$.*...O     . o       x =.$.$.=.d     d.b.b.b.z.%   3 *.$.$.$.$.=.!       o X       ! -.#.%.$.$.*.3   % l.b.b.b.s.    d =.$.$.=.Y       X .     . | *.$.$.$.",
"$.$.$.*.d     K k.l.t.=   .  .*.$.=.!     q s.l.g.N     U =.$.$.$.$.$.=.R           . R -.#.%.$.$.$.-.v     N g.l.s.q     ~ =.#.*.X.O   % w.l.l.I     t =.#.$.$.",
"$.$.%.@.#   q b.b.b.b.0.    T =.$.$.*.t     . X       , #.%.$.$.$.$.$.$.=. .f X X f ..=.$.$.$.$.$.$.%.@.:       X       t *.$.#.-.!     1.b.b.b.b.r   O X.*.$.$.",
"$.$.*...X   S b.v.b.b.s.    k -.#.$.&.#.t         . 3 X.*.$.$.$.$.$.$.$.#.;.R     Y ;.@.$.$.$.$.$.$.$.*.X.3 .         u #.*.$.#.-.v     i.b.b.v.b.H     [ =.$.$.",
"$.$.&.X.O   n b.b.b.b.t.    c =.#.$.$.%.*.( k 3 + - ..=.$.$.$.$.$.$.$.$.$.*.p     t *.$.$.$.$.$.$.$.$.#.-.| - O 4 j ( *.%.$.$.#.=.T     q.b.b.b.b.A   X  .*.$.$.",
"$.$.$.*.4   . e.b.b.v.n     _ =.$.$.$.$.$.*.:.v     l =.#.$.$.$.$.$.$.$.$.%.,     : $.$.$.$.$.$.$.$.$.$.=.j     v :.*.$.$.$.$.$.=.[     q x.b.b.i.X   , $.$.$.$.",
"$.$.$.=./     . 0 g &     t *.$.$.$.$.$.$.#.*.l     # #.&.$.$.$.%.$.$.$.*.X.X     . X.*.$.$.$.$.$.$.$.%.@.#     l =.#.$.$.$.$.$.$.*.p     % a q X     Q =.$.$.$.",
"$.$.$.$.=.b             4 O.&.$.$.$.$.$.$.#.-.k   .   / =.#.$.$.$.$.$.$.=.'         _ *.$.$.$.$.$.$.$.=.!   .   k =.#.$.$.$.$.$.$.&.@.t             x =.$.$.$.$.",
"$.$.$.$.$.=._ t # # : , v =.#.$.$.$.$.$.$.$.-.k   .   i =.$.$.$.$.$.$.$.-.R   . X   Y =.#.$.$.$.$.$.$.*.u   .   k =.#.$.$.$.$.$.%.$.=.v 4 1 # # t ( =.$.$.$.$.$.",
"$.$.$.$.$.$.=.=.@.$.(     _ =.$.$.$.$.$.$.$.-.j       X X.*.$.$.$.$.$.#.=.j   q e   f =.$.$.$.$.$.$.*....       k -.$.$.$.$.$.$.$.=.`     ` $.@.=.=.#.%.$.$.$.$.",
"$.$.$.$.$.$.$.$.$.=.[     1 %.%.$.$.$.$.$.#.-.j   & +   T =.$.$.$.$.$.$.*.4   F K   1 *.$.$.$.$.$.#.=.Y   + %   j =.#.$.$.$.$.$.$.&.1     } =.$.$.#.&.$.$.$.$.$.",
"$.$.$.$.$.$.$.$.$.&.X.X     T =.#.$.$.$.$.$.-.j   r N   3 *.$.$.$.$.$.*.O.#   1.7.  @ O.%.$.$.$.$.&.&.1   N a   j -.$.$.$.$.$.#.-.R     O O.&.#.$.$.$.$.$.$.$.&.",
"$.$.$.$.$.%.$.$.$.$.$.-     + O.&.$.$.%.$.#.-.j   m 0.    ] *.$.$.$.$.*.|     t.s.    ] *.$.$.$.$.=.]     9.m   j -.$.$.$.$.$.&.O.@     - $.$.$.$.$.$.$.$.$.$.$.",
"$.$.$.$.$.$.%.$.$.$.*.4   .   f =.$.$.$.$.$.-.f   e x.&   z =.$.$.$.#.=.!     h.l..   R -.$.$.$.$.=.j   % x.e   f =.#.%.$.&.$.=.f   .   t *.$.$.$.$.%.$.$.$.$.$.",
"$.%.$.%.$.$.%.$.$.#.=.d   .     ] =.#.$.$.#.-.f   q b.S   ; @.&.$.$.$.=.z   % v.b.<   k =.#.$.$.&.@.#   S b.q   f -.#.$.$.#.=.]         f -.#.$.$.$.$.$.$.$.$.$.",
"$.$.$.$.$.$.$.$.$.#.-.v   X o   3 *.$.$.$.$.=.d   q b.t.    ~ =.$.$.#.=.y   q b.b.n   4 =.$.$.#.=.!     t.b.0   d =.#.$.$.$.*.4   o +   v =.$.$.$.$.$.$.$.$.$.$.",
"$.$.$.%.%.$.$.$.$.#.=.!   = S     R -.#.$.#.=.d   q b.v.5   i =.#.$.$.#.:   S b.b.H   # @.&.$.#.=.u   5 v.b.q   s =.$.$.$.=.E     S 6   ! =.#.$.$.$.&.$.&.$.$.%.",
"$.%.$.$.$.$.%.$.$.$.=.`     r.8   # +.*.$.#.=.p   q b.b.L   X ..*.#.*. ..   <.b.b.5.    | =.#.*...X   J b.b.w   s =.#.$.&.+.#   5 u..   ] =.$.$.$.$.$.$.$.$.$.$.",
"$.%.$.$.$.$.%.$.$.#.*...X   w.w.    k -.#.$.=.p   w b.b.s.    Y =.#.=.(     t.b.b.a.    ! =.#.=.Y     s.b.b.w   p =.#.#.-.k     0.i.  X X.*.$.$.$.$.$.$.$.$.%.$.",
"$.$.$.%.%.$.$.$.$.$.&.@.#   L b.w   . [ =.#.=.i   q b.b.b.q   1 &.#.=.v   . k.b.b.l.o   x -.#.&.1   0 b.b.b.q   i =.#.*.[ .   q b.<.  # @.$.$.$.$.$.$.$.$.$.$.$.",
"$.$.$.$.$.$.$.$.$.$.$.*.3   m b.i.    4 *.#.=.i   q b.b.b.1.    ] =.=.p   > v.b.b.b.7   u *.*.]     >.b.b.b.q   i =.#.*.4     t.b.F   3 *.$.$.$.%.$.$.%.$.$.$.$.",
"$.%.$.$.%.$.%.$.$.$.#.=.p   6 b.b.S     W =.=.u   q b.b.b.k.X   j =.$.,   n b.b.b.b.N   : @.-.j   X j.b.b.b.w   i *.=.!     Z b.b.r   i =.#.$.$.$.$.$.$.$.$.$.$.",
"$.&.$.$.$.$.$.$.$.$.$.=.z   + l.b.k.%   # +.=.t   w b.b.b.b.N   # #.O.o   H b.b.b.b.L   . ..#.#   m b.b.b.b.q   u =.@.#   o k.b.v.=   z -.#.$.$.$.$.$.$.%.$.$.&.",
"$.$.$.$.$.$.$.$.$.$.$.-.R     s.b.b.>.    k :.t   q b.b.b.b.7.    / |     4.b.v.v.b.0.    ' (     7.b.b.b.b.q   t ;.l     I b.b.k.X   R -.$.$.$.&.$.$.$.$.$.$.$.",
"$.$.$.$.$.$.$.$.$.$.$.=.(     0.b.b.v.6   . ..i   q b.b.b.b.z.&   d W     i.b.b.b.b.s.    T s   % l.b.b.b.b.q   i ..    5 v.b.b.u.    ( =.$.$.$.$.$.$.$.$.$.$.$.",
"$.$.$.$.$.$.$.$.$.$.$.*.| .   P b.b.b.q.    i y   q b.b.b.b.b.D   # 4   o z.w.N m w.x.@   1 #   Z b.b.b.b.b.q   y i     0.b.b.b.4.    | *.$.$.$.$.$.$.$.%.$.$.%.",
"%.$.$.&.$.$.$.$.$.$.$.&.+.@   V b.b.b.b.m   X X   w v.G 6 q p.a.        q 5.        w.n         i.k.G F t.b.q   X X   m b.b.b.b.H   @ O.*.$.$.$.%.$.$.%.$.$.$.$.",
"$.$.$.$.$.$.$.$.$.$.$.$.$.,   9 b.b.b.b.s.        r A       . P =       % %     .   5 6   .   5 7.@       5.a         s.b.b.b.b.m   : $.$.$.$.$.$.$.$.$.$.$.%.$.",
"$.$.$.$.$.$.$.$.$.$.$.$.*.t   + k.b.b.b.b.H   .   . .   o .     .   .         <.L             X .     .   o o   .   H b.v.b.b.b.5   t =.$.$.$.$.$.$.$.$.%.$.%.$.",
"%.$.$.%.$.%.$.$.$.$.$.#.-.j     & 4.x.b.b.l.&           t.p.5             = w.b.b.>.                1.7.          = x.b.b.b.j.Z     h -.#.$.$.$.%.$.%.$.$.$.$.$.",
"$.$.$.$.$.$.$.$.$.$.$.#.-.Y   .     & r N e o       X w.b.b.v.w.H N N G q.v.b.b.b.b.h.L q = < e I k.b.b.<.    .   = L I K r X   .   v -.$.$.$.$.$.$.%.$.$.$.$.$.",
"$.%.$.$.%.$.$.&.$.$.$.$.=.~                       n h.b.b.b.b.b.b.b.b.b.b.b.b.b.b.b.b.b.b.b.b.b.b.b.b.b.b.w.=                       ! =.#.$.%.$.$.$.$.$.%.$.%.$.",
"$.%.$.%.$.$.$.$.$.$.$.$.=.[     q L 8 = & = w H a.b.b.b.b.b.b.b.b.b.v.b.v.b.b.b.b.b.b.v.b.b.b.b.b.b.b.b.b.b.c.<.q X       o n =     ] *.$.$.%.$.$.%.%.$.$.$.$.$.",
"$.$.$.$.$.$.$.$.$.$.$.$.*.@.#   X g.b.v.x.v.b.b.b.b.v.b.b.b.b.b.b.b.b.b.b.b.b.b.b.b.b.b.b.b.b.b.b.b.b.b.b.v.b.b.b.l.s.p.s.c.f.X   # @.%.$.$.$.$.$.$.$.$.$.%.$.$.",
"$.$.$.$.$.$.$.$.$.$.$.$.$.=.W     n b.b.b.b.b.b.b.b.b.b.b.b.b.x.l.k.h.d.s.a.i.i.i.i.a.s.d.h.k.l.x.b.b.b.b.b.b.b.b.b.b.b.b.b.N     R =.$.$.$.$.$.$.$.$.$.%.$.$.%.",
"$.&.$.$.$.$.$.$.$.%.$.%.$.$.*.1     q.b.b.b.b.l.s.8.I G N q 5 & @ X                         X o & 5 q m G I 0.a.l.b.b.b.b.w.    1 *.%.$.$.$.$.$.%.$.$.%.$.$.$.$.",
"$.$.$.$.$.$.$.$.$.%.$.$.$.$.=._     7 d.4.S 8 o                                                                 o 0 S 7.h.8     ` =.#.$.$.$.$.$.$.$.$.$.%.$.$.%.",
"%.$.$.$.&.$.$.%.$.$.$.$.$.$.$.=.p   .                 o = 8 n C G K P >.<.2.4.4.4.4.4.1.>.I L G Z n q 5 %                 .   p =.#.$.$.$.$.$.$.%.$.%.$.$.$.$.$.",
"$.$.&.$.$.$.$.$.$.%.$.$.$.$.$.*....       o q S <.w.d.l.v.b.b.b.b.b.b.b.b.b.b.b.b.b.b.b.b.b.b.b.b.b.b.b.l.g.t.4.G r &       X X.*.$.$.$.$.$.$.$.$.$.%.$.$.$.$.$.",
"$.$.$.$.$.$.$.$.$.$.$.%.$.$.$.#.-.f     <.x.b.b.b.b.b.b.b.b.b.v.v.v.v.b.b.v.v.b.b.v.v.b.v.b.v.b.v.b.b.b.b.b.b.b.b.b.v.7.    j -.#.$.$.$.$.$.%.$.$.$.$.$.$.%.$.%.",
"%.$.$.$.$.$.$.%.$.$.$.$.$.$.$.#.=.W     q.b.b.v.b.b.b.b.b.b.b.b.b.b.b.b.b.b.b.b.b.b.b.b.b.b.b.b.b.b.b.b.b.b.b.v.b.v.b.e.    R =.$.$.$.%.%.$.$.%.%.$.$.$.$.%.$.$.",
"$.$.%.$.$.$.$.$.$.%.$.$.$.$.$.#.=.'     L b.b.b.b.b.v.z.h.i.w.7.<.I H G S S Z C C C S S G H L >.4.0.u.d.l.v.b.b.b.b.b.I     ` =.$.$.$.$.$.$.$.$.$.$.%.$.$.$.$.$.",
"$.$.%.$.$.$.$.$.$.$.$.$.$.$.$.$.*.X.X   V v.t.1.G a 5 @                                                 o = q S >.w.x.C   X X.*.$.$.$.$.$.$.%.$.$.%.$.$.$.$.%.$.",
"%.$.$.$.$.$.%.$.%.$.$.%.%.$.$.$.$.$.:   X o                     X o % & = 5 6 6 6 5 5 = = % o .                     X X   : $.$.$.$.$.$.$.$.$.$.$.$.$.%.%.$.$.$.",
"$.$.$.$.%.$.$.%.$.$.%.$.$.$.$.$.$.*.i   .       = q Z L 1.q.u.d.k.l.x.v.v.b.b.v.b.v.b.v.v.x.l.k.d.i.q.3.L Z q = .         u =.#.$.$.$.$.%.$.$.$.$.$.$.$.$.$.$.$.",
"%.$.%.$.$.$.$.$.$.$.$.$.%.$.$.$.$.-.j     S t.g.v.b.b.b.b.b.b.b.b.b.b.b.b.b.b.b.b.b.b.b.b.b.b.b.b.b.b.b.b.b.b.v.g.r.G     k =.#.$.$.$.$.$.$.%.$.$.%.$.%.$.$.%.$.",
"$.$.%.$.$.$.$.$.$.$.$.$.$.$.%.$.$.*.3   o l.b.b.b.b.v.v.b.v.b.b.b.b.b.b.b.b.b.b.b.b.b.b.b.b.b.b.b.b.v.b.v.b.b.b.b.b.x.%   4 *.$.$.$.$.$.$.$.%.$.$.%.$.$.$.$.%.$.",
"$.$.$.$.%.$.$.%.%.$.$.$.$.$.$.$.*.X.X   r b.v.b.b.b.b.b.b.b.b.b.v.x.l.l.h.g.g.g.f.g.h.k.l.z.x.v.b.b.b.b.b.b.b.b.b.v.b.n   X X.&.$.$.$.$.%.$.$.$.$.$.%.$.$.%.$.$.",
"%.$.$.%.$.$.$.$.$.$.$.$.$.$.$.$.=.~     >.b.b.b.x.s.w.>.H N e 7 5 % o X .             . X o & = 7 e N H <.w.s.x.b.b.b.<.    ! =.#.$.$.$.$.$.$.$.$.$.$.$.$.$.$.$.",
"$.$.$.$.$.%.$.%.$.$.$.$.$.$.$.#.=.j     q.w.G q %                                                             o q S q.0.    j -.$.%.$.$.%.$.%.$.$.%.$.$.$.$.%.$.",
"$.$.$.$.$.$.$.$.%.$.$.%.$.$.$.$.&.,   . .                   o = 6 q n N Z S S G G G S Z N m e 8 = o                   .     : $.$.$.$.$.$.$.$.%.$.%.$.$.%.$.%.$.",
"$.%.$.%.%.$.$.%.$.$.$.$.$.$.$.*. .              % q G <.w.d.l.v.b.b.b.b.b.b.b.b.b.b.b.b.b.b.b.b.v.x.g.u.4.H n =                .*.$.$.$.$.$.$.$.$.$.$.$.$.$.$.$.",
"$.%.$.$.$.$.$.$.$.$.$.$.%.$.$.-.W         q P i.x.b.b.b.b.b.b.b.b.b.b.b.b.b.b.b.b.b.b.b.b.b.b.b.b.b.b.b.b.b.b.v.s.1.n o       E =.$.$.$.%.$.$.$.%.$.$.%.$.$.$.$.",
"$.$.$.$.%.$.$.%.%.$.$.$.$.$.#.=.d     r h.b.b.b.b.b.v.b.b.v.b.b.b.b.b.b.b.b.b.b.b.b.b.b.b.b.b.b.b.b.b.v.v.v.b.b.b.b.b.l.N     p =.$.$.$.$.$.$.%.$.$.$.$.%.$.%.$.",
"$.$.$.$.$.$.%.$.$.$.$.$.$.$.$.$.:     O q L w.l.b.b.b.b.b.b.b.b.b.b.b.b.b.b.b.b.b.b.b.b.b.b.b.b.b.b.b.b.b.b.b.b.k.q.G 8 o     # #.%.$.$.$.%.$.$.$.$.$.$.%.$.$.%.",
"$.$.%.$.$.$.$.$.$.$.$.$.$.$.$.*.` ,           o 9 Z ) 0.i.k.x.v.b.b.b.b.b.b.b.b.b.b.b.b.b.b.b.b.v.l.f.t.4.L N 5 .           # W %.$.$.$.$.$.$.$.$.%.%.$.$.$.$.$.",
"%.$.%.$.$.%.$.%.$.$.$.$.$.$.$.$.=.%._ f ;                 . + = 7 w a N N Z S S S A Z V m r q 5 & X                   # i ! @.=.$.$.%.$.$.%.%.$.$.$.$.$.$.$.$.$.",
"$.$.$.$.$.$.$.$.$.$.$.$.$.$.$.%.$.$.=.-.#.} W j 4 $ X                                                     . # 3 d T ] @.=.=.$.$.$.$.$.$.$.$.$.$.$.$.%.$.$.%.$.%.",
"$.$.$.%.%.$.$.%.$.$.%.$.$.$.$.$.$.$.$.#.$.*.-.=.*.#...` ! T z f i 4 3 , : ; * ; ; * ; : , 1 4 u d z b Q _  .@.*.=.=.=.&.$.#.$.$.$.$.%.$.$.$.$.$.$.$.$.$.$.%.$.$.",
"%.$.$.$.$.$.$.$.$.$.$.$.$.%.%.$.$.$.$.&.$.$.$.$.$.&.*.=.=.-.-.=.=.*.*.$.$.@.#.@.@.#.@.#.$.*.*.=.=.-.-.=.=.*.&.$.$.#.$.$.$.%.$.$.$.$.$.$.$.%.%.$.$.%.%.$.$.$.$.$.",
"$.$.$.$.$.$.$.$.$.%.%.$.$.$.$.$.$.$.$.$.$.$.$.$.$.$.$.#.#.$.$.#.#.$.$.$.%.%.&.%.&.&.%.%.$.$.$.#.$.#.$.$.$.$.$.$.$.$.$.$.$.$.$.$.$.%.%.$.$.$.$.$.$.$.$.$.%.$.%.$.",
"%.$.$.%.%.$.$.%.$.$.$.$.$.$.%.$.$.$.$.$.$.$.$.$.$.$.$.$.$.$.$.%.$.$.$.$.$.$.$.$.$.$.$.$.$.$.$.$.$.$.$.$.$.$.$.$.$.$.$.$.$.$.%.$.$.$.$.$.$.$.%.$.$.$.%.$.$.$.$.$.",
"$.$.$.$.$.$.$.$.$.$.$.$.%.$.$.%.$.$.$.$.$.$.$.$.$.$.$.$.$.$.$.$.$.$.$.&.$.$.$.$.$.$.$.$.$.$.$.$.$.$.$.$.$.$.$.$.$.$.$.$.%.$.%.$.$.$.$.$.%.$.$.%.%.$.$.%.$.$.$.$.",
"$.$.%.$.$.%.$.%.$.%.$.$.$.$.$.$.$.$.$.$.$.$.$.$.$.$.$.$.$.$.$.$.$.$.$.$.$.$.$.&.$.$.$.$.%.$.$.&.$.$.$.$.$.%.$.%.$.%.$.$.$.$.$.$.$.%.$.%.$.$.$.$.$.$.$.$.%.$.%.$.",
"%.$.$.$.$.%.$.$.$.%.$.%.$.$.$.$.$.$.$.$.$.&.%.$.$.%.$.$.$.$.$.$.$.$.&.$.$.$.$.$.$.$.$.$.$.$.$.$.$.$.$.$.$.%.$.$.$.$.$.%.$.$.$.$.$.%.$.$.$.$.$.$.$.$.$.$.$.$.%.$.",
"$.$.%.$.$.$.$.$.$.$.$.$.%.$.$.%.$.&.$.$.$.$.$.$.$.$.$.&.$.$.%.$.$.$.$.$.$.$.$.$.%.$.$.$.$.$.$.$.$.$.$.$.$.$.$.$.$.%.$.$.%.$.$.%.$.$.$.$.%.$.$.%.%.$.$.%.$.$.$.$."
};
