/* XPM */
static char *rdd__[] = {
/* columns rows colors chars-per-pixel */
"24 24 158 2",
"   c #000600040002",
".  c #010500BB0061",
"X  c #01550157015B",
"o  c #01FE00370000",
"O  c #0329005B0001",
"+  c #019D0177011C",
"@  c #01AC01A20196",
"#  c #02B4026201FE",
"$  c #063400B20000",
"%  c #01A6036C0595",
"&  c #0DC509F4054D",
"*  c #0F740B2C05F3",
"=  c #06790A740F4F",
"-  c #116E0D8F08D5",
";  c #13070EB70973",
":  c #1566153414F7",
">  c #181F179916F5",
",  c #280B1B9F0C76",
"<  c #28621BF70CD1",
"1  c #3F8E28D70D1E",
"2  c #2C1D1FE510FC",
"3  c #2F6C2247123F",
"4  c #31FF24131316",
"5  c #32B824D513FC",
"6  c #322D25A41659",
"7  c #32B2262C16E3",
"8  c #1D711E7C1FC2",
"9  c #1E231EFD2006",
"0  c #220C234724C7",
"q  c #22D323D62513",
"w  c #3159336835EB",
"e  c #31EF3402368A",
"r  c #339234ED3697",
"t  c #354235F236C8",
"y  c #389D37F8372D",
"u  c #36C2373437BE",
"i  c #389438863876",
"p  c #3965391E38C9",
"a  c #4D0237F71E48",
"s  c #50883A351EF7",
"d  c #50FD3A8F1F2D",
"f  c #519F3B041F6C",
"g  c #53A33C912069",
"h  c #538C3CA820B9",
"j  c #54C63D4C20A3",
"k  c #5BA84246234C",
"l  c #5C9F42F823AB",
"z  c #781053CE278F",
"x  c #784F53FC27A7",
"c  c #728C52D22C19",
"v  c #728F52D42C1A",
"b  c #7688561E2E91",
"n  c #791857F92F8E",
"m  c #7DA059342CC3",
"M  c #7F425A632D64",
"N  c #465D45C24506",
"B  c #4B6F4B594B3F",
"V  c #4D7F4D6C4D57",
"C  c #5264523851E0",
"Z  c #564B561955DA",
"A  c #575D57385709",
"S  c #5C525AD158F9",
"D  c #5DB65D5C5CED",
"F  c #5DE15D7C5CFE",
"G  c #61A561656116",
"H  c #6442640563BC",
"J  c #622D64BA67D6",
"K  c #6485644763FB",
"L  c #698468B567B9",
"P  c #6ACD6AA66A75",
"I  c #6BEB6BC46B94",
"U  c #712070D77085",
"Y  c #71B0737D75B0",
"T  c #86D95F402F58",
"R  c #880260152FC1",
"E  c #893E633B34D6",
"W  c #A7ED76733A11",
"Q  c #A34F76133EDF",
"!  c #A61376313BC4",
"~  c #A47576F03F65",
"^  c #A4ED773C3F7A",
"/  c #A9B777BE3AC1",
"(  c #A82C77B53C92",
")  c #A66E784D4002",
"_  c #AD087D2542B8",
"`  c #B0957F9843CF",
"'  c #B60983FA46E5",
"]  c #B8D184BB452B",
"[  c #C68C8F8D4C6F",
"{  c #C807909F4D02",
"}  c #C84A90CF4D1B",
"|  c #CC9693EA4EC3",
" . c #CD89949A4F20",
".. c #D0EE970E506F",
"X. c #D133973D5081",
"o. c #D21D97EA50E3",
"O. c #D269981350E3",
"+. c #D295983E510C",
"@. c #D39E99005178",
"#. c #D4129950519C",
"$. c #D47C999C51C5",
"%. c #D4ED99F251F9",
"&. c #D5399A365234",
"*. c #D5D29A985251",
"=. c #D6B09B3852A7",
"-. c #D8189C3D5331",
";. c #D91E9C9852BD",
":. c #D8EA9CB75340",
">. c #D97E9D4053BB",
",. c #D9C89D7553D7",
"<. c #DAB09E1D5430",
"1. c #DAD59E4E5472",
"2. c #DB769EAC547D",
"3. c #DC859F5854AD",
"4. c #DE04A085557A",
"5. c #DE9CA0F255B3",
"6. c #DD32A09B56A9",
"7. c #DE12A0F3565D",
"8. c #DD51A0E0571C",
"9. c #DD66A0F45731",
"0. c #DF19A14A55DE",
"q. c #DFF5A1ED563A",
"w. c #E173A30056CB",
"e. c #E1B9A3A757D0",
"r. c #E299A3F8578B",
"t. c #E30EA429576A",
"y. c #E434A4FC57D7",
"u. c #E41AA4F057DC",
"i. c #E44EA5275815",
"p. c #E521A5A95836",
"a. c #E569A5DD5851",
"s. c #E845A8B25B20",
"d. c #E875A8D65B33",
"f. c #EA8FA9965A4E",
"g. c #EAB5AA1E5B4C",
"h. c #EB20AA6B5B74",
"j. c #EDACAD0A5E2B",
"k. c #9FBAA472AA34",
"l. c #A048A50AAAF0",
"z. c #C3B3C3B7C3BD",
"x. c #C538C533C52D",
"c. c #C574C56FC569",
"v. c #CBA6CB43CACA",
"b. c #CBB1CB4CCACF",
"n. c #D84AD824D7F8",
"m. c #DB58DB39DB14",
"M. c #DAE6DBC0DCCA",
"N. c #E175E053DEF2",
"B. c #E4DDE3B9E254",
"V. c #E7D3E795E74A",
"C. c #E7F4E7C9E794",
"Z. c #E87BE805E774",
"A. c #EB99EADBE9F5",
"S. c #EF9CEF75EF48",
"D. c #F40BF2DEF16E",
"F. c #F30AF2E6F2BB",
"G. c #FFFFFFFFFF44",
"H. c gray100",
/* pixels */
"*.*.*.*.*.@.o.o.@.*.@.o.o.@.*.@.o.o.@.*.*.*.*.*.",
"*.*.*.*.*.w.i.a.<.@.5.a.a.5.@.<.a.i.w.*.*.*.*.*.",
"*.*.*.*.;.v j f ) f.E f g E f.Q f j v =.*.*.*.*.",
"*.*.*.*.;.3     n s.a     a f.b     3 <.@.*.*.*.",
"*.*.*.@.<.3       $         $ $     4 <.*.*.*.*.",
"*.*.*.*.;.7 w y t t y i i u e t y w 7 ;.*.*.*.*.",
"*.*.*.*.<.7 l.G.Z.Z.C.C.C.C.C.C.G.k.7 <.@.=.*.*.",
"*.*.*.@.<.] , = N V B B B B V N = < ] <.@.*.*.*.",
"*.*.*.=.@.9.<.1 Y G.S.F.F.S.G.Y 1 5.5.@.*.*.*.*.",
"*.*.*.*.=...q.' % > : : : : > % ` e...*.*.*.*.*.",
"*.*.*.*.*.@.5.)                 ) 5.@.*.*.*.*.*.",
"*.*.*.*.*.@.5.)     $ % # #     ) 5.@.*.*.*.*.*.",
"*.*.*.*.=.@.5.)   #       % #   ) 5.@.*.*.*.*.*.",
"*.*.*.*.@.@.5._   $             _ 5.@.*.*.*.*.*.",
"*.*.*.*.@.@.j.x J A.n.m.m.n.A.J x j.@.*.*.*.*.*.",
"*.*.*.*.@.i.R   C U I I I I U C   T e.@.*.*.*.*.",
"*.*.*.@.9.W i M.v.z.x.x.x.x.x.v.M.i / 5.@.=.*.*.",
"*.*.@.@.h.! 0 P G H H H H H G G P 0 ! f.@.=.=.*.",
"*.=.=...' M > G A A A A A A A A S 9 T ' ..=.*.*.",
"*.@.<.{ -   S F.N.B.B.B.B.B.B.N.D.S   - { <.@.*.",
"*.*.;.[ &                             & { -.@.*.",
"*.*.=.| k g h h h h h h h h h h h h g k ..=.*.*.",
"*.*.*.*.r.i.i.i.i.i.i.i.i.i.i.i.i.i.i.e.=.*.*.*.",
"*.*.*.*.@.o.o.@.o.o.o.o.@.o.o.@.o.o.o.@.*.*.*.*."
};
