/* XPM */
static char *rdd__[] = {
/* columns rows colors chars-per-pixel */
"35 35 185 2",
"   c #000200020001",
".  c #0097006D003A",
"X  c #01DE015900B8",
"o  c #032E024A0133",
"O  c #0250024D024A",
"+  c #034703460344",
"@  c #03A102A00166",
"#  c #061702730000",
"$  c #071301A80000",
"%  c #06AC02D70000",
"&  c #03DC02D8019B",
"*  c #04D6037E01DC",
"=  c #050803D10255",
"-  c #03A20391037C",
";  c #0702051102B3",
":  c #001302DB06D8",
">  c #0418041D0423",
",  c #05AE04C903B2",
"<  c #06B805D404BE",
"1  c #07B4059302F9",
"2  c #0B0A076302F3",
"3  c #07CA06D905B2",
"4  c #0B79079302D2",
"5  c #0C490849036D",
"6  c #03DC07DD0CC1",
"7  c #1A7F0F280151",
"8  c #1C21105601F2",
"9  c #08F60D371269",
"0  c #0AA80F15147B",
"q  c #11DA11DB11C8",
"w  c #13AB143514D3",
"e  c #103D1435190D",
"r  c #17CF1B3D1F6C",
"t  c #2359198E0D9B",
"y  c #276E1C820F2E",
"u  c #199A1D3721A1",
"i  c #19B41D4B21AB",
"p  c #1A291DA821ED",
"a  c #2599255D2513",
"s  c #2653261B25D6",
"d  c #298E29762958",
"f  c #29F429A9294C",
"g  c #2AA52A5829F9",
"h  c #31102FCE2E43",
"j  c #389B3861380F",
"k  c #38D2389B3850",
"l  c #39CE39103827",
"z  c #3D1A3E3A3FA0",
"x  c #4FC4359B15AE",
"c  c #47EC32DB19A9",
"v  c #4C7535E91A62",
"b  c #4D5E37F71DD9",
"n  c #4E22387D1E14",
"m  c #537D384C171D",
"M  c #501439171D08",
"N  c #57453D271D47",
"B  c #5AE33FC41EAC",
"V  c #5907405E2246",
"C  c #59D640F42296",
"Z  c #658949692717",
"A  c #66794A162773",
"S  c #67AF4AFB27F4",
"D  c #66954B11297D",
"F  c #683A4B812875",
"G  c #69534C27288C",
"H  c #6BC84DED297F",
"J  c #6BF44E0D2990",
"K  c #6C464E4829AF",
"L  c #724850762731",
"P  c #70CF518F2B6E",
"I  c #777154CD2A87",
"U  c #77B555192ADD",
"Y  c #71BA523A2BC9",
"T  c #7997579A2E51",
"R  c #796E57CC2EBF",
"E  c #79D958092EC6",
"W  c #7A4F586E2F16",
"Q  c #7B9359582F93",
"!  c #40D040EC410D",
"~  c #427E42804283",
"^  c #44C144984466",
"/  c #45E345B94585",
"(  c #407D441E488B",
")  c #4E344D1A4BC3",
"_  c #495A4AD54CA2",
"`  c #539C533852C0",
"'  c #58C6581E5750",
"]  c #5C495BF55B8D",
"[  c #5E4E5DFB5D95",
"{  c #6AB5697867F6",
"}  c #6A496A0C69C1",
"|  c #6A796A3969EB",
" . c #70EB70546F9E",
".. c #70F170576F9F",
"X. c #7D757D6C7D61",
"o. c #7FC57FAB7F8B",
"O. c #82235E173219",
"+. c #84E360143328",
"@. c #879D620C3435",
"#. c #A29175893E95",
"$. c #A64078334001",
"%. c #AA217B01417F",
"&. c #ABEB7C554242",
"*. c #ADE17DCB4321",
"=. c #AF0D7EAF43BC",
"-. c #AF3F7EB44377",
";. c #AE077F8E46D8",
":. c #B10A80004428",
">. c #B2F5816344E5",
",. c #B2D782894798",
"<. c #B9BB86484780",
"1. c #BB94879F4836",
"2. c #BC4B8823487D",
"3. c #BE8789C14959",
"4. c #C03E8AFE4A02",
"5. c #C0A58B484A2A",
"6. c #C2338C694AC3",
"7. c #CF0195AA4FB1",
"8. c #CEF995DF501B",
"9. c #CF7295FC4FDD",
"0. c #D01A9676501D",
"q. c #D1A5979250B2",
"w. c #D23797FD50ED",
"e. c #D256981350FA",
"r. c #D28D983A510E",
"t. c #D3FB9943519B",
"y. c #D459998751C0",
"u. c #D4DC99E651F4",
"i. c #D5339A255214",
"p. c #D5D79A9C5253",
"a. c #D7259B8852CE",
"s. c #D8BD9CAC535F",
"d. c #D9509D1E53A9",
"f. c #D9B29D6553CF",
"g. c #DA149DAC53F5",
"h. c #DA959E095426",
"j. c #DAF89E51544C",
"k. c #DCED9FBD5512",
"l. c #DE0FA08D557D",
"z. c #DE7DA0DD55A7",
"x. c #DF08A14055DC",
"c. c #E15FA2F256C4",
"v. c #E177A30256CA",
"b. c #E1CEA33C56E1",
"n. c #E29AA3D6573D",
"m. c #E39CA49457A7",
"M. c #E2DDA474584B",
"N. c #E3A4A4B657E9",
"B. c #E510A59D5830",
"V. c #E57AA5E95858",
"C. c #E60FA6565892",
"Z. c #E52AA63A595F",
"A. c #E63AA6E15992",
"S. c #E689A6AE58C1",
"D. c #E708A75C59A8",
"F. c #E6ABA74159DE",
"G. c #E90BA87E59B7",
"H. c #E99BA8E659EE",
"J. c #E88FA90F5B92",
"K. c #EB4DAA6F5B47",
"L. c #ED42ABB85BC0",
"P. c #F549B1585E6E",
"I. c #F57AB17C5E81",
"U. c #83F183B18366",
"Y. c #84E1856D8617",
"T. c #8F948F9C8FA5",
"R. c #905B9064906E",
"E. c #935E9252910A",
"W. c #92FE930E9320",
"Q. c #943A933491F4",
"!. c #A12EA1AFA24C",
"~. c #DA82DA54DA1B",
"^. c #DDA4DD72DD35",
"/. c #DF3CDDF1DC5E",
"(. c #DFF7DEBADD37",
"). c #E459E425E3E6",
"_. c #E799E761E71E",
"`. c #E7A0E768E725",
"'. c #ED3CEC91EBC0",
"]. c #F657F611F5BC",
"[. c #FC2BFC2BFC2C",
"{. c #FCC4FCC3FCC2",
"}. c #FD6DFD7BFD8C",
"|. c #FE5EFE5FFE60",
" X c #FFFDFFFDFFFD",
/* pixels */
"p.p.p.p.p.p.p.p.p.p.p.p.p.p.p.p.p.p.p.p.p.p.p.p.p.p.p.p.p.p.p.p.p.p.p.",
"p.p.p.p.p.p.p.t.t.t.t.w.t.p.p.t.w.t.w.w.p.p.t.t.w.w.t.t.p.p.p.p.p.p.p.",
"p.p.p.p.p.p.p.j.B.B.B.B.j.t.p.c.B.B.B.c.p.t.j.B.B.N.B.k.t.p.p.p.p.p.p.",
"p.p.p.p.p.p.k.%.G Y Y K 1.s.t.O.K Y K O.t.s.1.G Y Y G %.k.t.p.p.p.p.p.",
"p.p.p.p.p.w.B.R   =     $.G.l.y   =   y k.J.$.    $   W B.w.p.p.p.p.p.",
"p.p.p.p.p.w.B.Q   3 =   @.1.,.t   =   t ,.2.@.  , ,   W B.t.p.p.p.p.p.",
"p.p.p.p.p.w.B.Q   3 + , + + , , , , , , $ , + , , ,   W N.w.p.p.p.p.p.",
"p.p.p.p.p.t.m.R                                   -   W B.w.p.p.p.p.p.",
"p.p.p.p.p.w.B.L i Q.X.X.X.o.o.X.o.o.o.o.Y.,.X.X.X.W.u L B.t.p.p.p.p.p.",
"p.p.p.p.p.w.B.R 0 (. X X X X X X[.[.[.[.]. X X X X(.9 U B.t.p.p.p.p.p.",
"p.p.p.p.p.p.p.7.c : j l g s s s s s p d p d g l l : c 8.p.t.p.p.p.p.p.",
"p.p.p.p.p.p.p.s.B.R   q U.W.T.R.R.R.R.R.R.W.U.q   R B.s.p.p.p.p.p.p.p.",
"p.p.p.p.p.p.p.t.t.B.;.$ Y. X[. X[.[.[. X{. XY.$ :.B.t.t.p.p.p.p.p.p.p.",
"p.p.p.p.p.p.p.p.p.w.L.M 6 h g g g g g g g h 6 M L.8.p.p.p.p.p.p.p.p.p.",
"p.p.p.p.p.p.p.p.p.t.c.n                   -   b M.t.p.p.p.p.p.p.p.p.p.",
"p.p.p.p.p.p.p.p.p.w.c.n   , $ + +   + +   ,   n N.w.p.p.p.p.p.p.p.p.p.",
"p.p.p.p.p.p.p.p.p.t.N.n   =                   n B.t.p.p.p.p.p.p.p.p.p.",
"p.p.p.p.p.p.p.p.p.t.N.n                   $   n N.t.p.p.p.p.p.p.p.p.p.",
"p.p.p.p.p.p.p.p.p.w.N.n   3   , + + + + , ,   b N.t.t.p.p.p.p.p.p.p.p.",
"p.p.p.p.p.p.p.p.t.t.N.M                       b c.t.p.p.p.p.p.p.p.p.p.",
"p.p.p.p.p.p.p.p.p.8.J.v e ) / / / / / / / ) e v J.7.p.p.p.p.p.p.p.p.p.",
"p.p.p.p.p.p.p.p.w.N.,.5 !. X X X X X X X[. X!.2 ,.m.w.p.p.p.p.p.p.p.p.",
"p.p.p.p.p.p.p.t.N.*.$ w | | | | | | | | | |  .w 2 *.c.t.p.p.p.p.p.p.p.",
"p.p.p.p.p.p.t.l.&.4 z ' ~ ~ ~ ~ ~ ~ ~ ~ ~ ~ ~ ' z 4 ;.l.t.p.p.p.p.p.p.",
"p.p.p.p.p.p.w.G.x (  X{. X X X X X X X X X X X X X( m J.t.p.p.p.p.p.p.",
"p.p.p.p.p.p.8.N.N i | ] ] ] [ ] ] ] ] ] ] ] ] ] { i N N.8.p.p.p.p.p.p.",
"p.p.p.p.i.j.l.I.D                               $   G P.c.j.p.p.p.p.p.",
"p.p.p.t.j.2.C F 8 _ '.~.(.(.(.(.(.(.(.^.(.(.(.~.'._ 8 D C 2.j.t.p.p.p.",
"p.p.p.t.l.&.  ,   ` ].).`.`.`.`.`.`.`.`.`.`.`.).].`       *.l.t.p.p.p.",
"p.p.p.t.l.;.$ = = $ = = = = = = , = = = = = = = , $ , 2 = ,.l.t.p.p.p.",
"p.p.p.t.l.*.                                              *.l.p.p.p.p.",
"p.p.p.p.j.2.D F F D F F F F F F F F F D F D G F F F S S A 6.s.p.p.p.p.",
"p.p.p.p.p.s.B.m.N.B.m.B.B.m.B.B.B.B.B.m.B.B.m.B.B.m.B.B.m.s.p.p.p.p.p.",
"p.p.p.p.p.p.t.t.t.t.w.t.t.t.t.t.8.t.t.t.t.t.w.t.t.t.w.t.t.t.p.p.p.p.p.",
"p.p.p.p.p.p.p.p.t.p.p.p.p.p.t.p.p.p.p.p.t.p.p.p.p.p.p.p.p.p.p.p.p.p.p."
};
