/* XPM */
static char *rdd__[] = {
/* columns rows colors chars-per-pixel */
"33 33 180 2",
"   c #000300030002",
".  c #00E100A20057",
"X  c #01CB00DC0000",
"o  c #01CE014E00B2",
"O  c #024B01AC00EA",
"+  c #0387028D015C",
"@  c #03F40326022A",
"#  c #058103FB021F",
"$  c #05AE040E0214",
"%  c #06FA0559035D",
"&  c #0422041F041C",
"*  c #05830554051B",
"=  c #066305BE04F4",
"-  c #069105EE0525",
";  c #07B805E803B0",
":  c #0B50082E045B",
">  c #09E9079B04CA",
",  c #0B9608D0056F",
"<  c #0D6509AF0528",
"1  c #0D6E0A6C06C0",
"2  c #0F260BAA076A",
"3  c #067D08A10B3E",
"4  c #06D408FC0B9E",
"5  c #06BC09F50DE3",
"6  c #0C010C010C01",
"7  c #0D480CF20C8A",
"8  c #0DD80D5B0CC3",
"9  c #0EC10E360D8C",
"0  c #0ED10E470D9E",
"q  c #133B0C0B0345",
"w  c #15FA0C590099",
"e  c #16D30D36017C",
"r  c #0FDF0ED10D89",
"t  c #0FF60EE20D92",
"y  c #191B105905A9",
"u  c #181B101706DD",
"i  c #191D10C8072D",
"p  c #1CDF12940605",
"a  c #1F32144306EA",
"s  c #086C0C631176",
"d  c #09A10CF310FF",
"f  c #22D0192C0D67",
"g  c #234819820D95",
"h  c #25161ABC0E19",
"j  c #24E61AFD0EE2",
"k  c #25B71B410E7D",
"l  c #331224EC13AA",
"z  c #355C26E31538",
"x  c #372F283415EC",
"c  c #3B6E2AF816E1",
"v  c #3D512C55179B",
"b  c #3E2C2CF717F7",
"n  c #245E242623E2",
"m  c #24D2249B2458",
"M  c #269326622626",
"N  c #2D662CC02BF8",
"B  c #2F9D2F8E2F7B",
"V  c #2FFA2FB92F72",
"C  c #305030423031",
"Z  c #332F3327331E",
"A  c #38F637E23692",
"S  c #402E2E6718B6",
"D  c #40992EB218DB",
"F  c #40C12F8A1A87",
"G  c #41282FF11AEF",
"H  c #437530C519F8",
"J  c #492534E31C29",
"K  c #56993D771ECC",
"L  c #40813F723E29",
"P  c #5D60438323F3",
"I  c #40F03FE13E98",
"U  c #65B249872727",
"Y  c #691D4BFF2877",
"T  c #69C24C7628B7",
"R  c #6B164D6D293A",
"E  c #6CDC4EB529E9",
"W  c #6D5E4F132A1B",
"Q  c #6E984FF62A93",
"!  c #6F7350942AE8",
"~  c #75BF537D2A18",
"^  c #764955D42E37",
"/  c #764D55D72E39",
"(  c #790D57D42F47",
")  c #791E57E12F4E",
"_  c #42D141C2407A",
"`  c #519651F95271",
"'  c #5FD15F995F55",
"]  c #5D76604163AC",
"[  c #607E60476004",
"{  c #641D63B9633E",
"}  c #62C0638A6481",
"|  c #65DC65806512",
" . c #65FB65A16534",
".. c #69F668D66776",
"X. c #7644761E75EF",
"o. c #7663763D760D",
"O. c #7ABD79CC78A5",
"+. c #789579B37B11",
"@. c #84745FC432FE",
"#. c #86C7617233E3",
"$. c #8933633234D1",
"%. c #8BB6650335C9",
"&. c #92D668DA359D",
"*. c #93F169D63673",
"=. c #97A16D9D3A56",
"-. c #982E6E103AAA",
";. c #A23C75263E20",
":. c #A42476873EDC",
">. c #AEE28026471E",
",. c #B483829445A5",
"<. c #B4EC82E045CD",
"1. c #BE85897748BA",
"2. c #BFB98A634956",
"3. c #C0938AF44984",
"4. c #C10E8B5A49D8",
"5. c #C3998D6B4B4D",
"6. c #C94891874D7D",
"7. c #CB9D93374E63",
"8. c #C7B091B94FDC",
"9. c #C85C9234501E",
"0. c #CFA896234FF1",
"q. c #D07D96BD5042",
"w. c #D24D980D50F6",
"e. c #D258981450FA",
"r. c #D31A98A05145",
"t. c #D38798EF516D",
"y. c #D3F999415199",
"u. c #D1E4983D51E3",
"i. c #D36299515276",
"p. c #D469999351C6",
"a. c #D4F299F651FB",
"s. c #D53B9A2B5216",
"d. c #D5D39A995251",
"f. c #D66F9B09528E",
"g. c #D69B9B2C52A5",
"h. c #D7499BA952E7",
"j. c #D78E9BE1530D",
"k. c #D8799C835357",
"l. c #D9139D1B53EC",
"z. c #D9849D6C5418",
"x. c #D8DD9D87551E",
"c. c #DB079E5B5452",
"v. c #DC559F5E54F6",
"b. c #DC989F8354F8",
"n. c #DE88A0E455AB",
"m. c #DD93A08255FC",
"M. c #DFE0A1DF5635",
"N. c #E0AAA26F567D",
"B. c #E21EA3885723",
"V. c #E2CEA3FC5751",
"C. c #E32CA43F5774",
"Z. c #E53BA5BC583F",
"A. c #E56AA5DE5852",
"S. c #E77FA7C059F3",
"D. c #E89AA87A5A39",
"F. c #EC61AB295B93",
"G. c #ED56AB985B5F",
"H. c #F34FAFEA5DAB",
"J. c #971296E696AE",
"K. c #97D297A69770",
"L. c #98FF98C5987F",
"P. c #99A39974993B",
"I. c #9B149C709E13",
"U. c #9E5A9FC9A186",
"Y. c #A935A965A9A1",
"T. c #ABF8AC09AC1F",
"R. c #AD65AC81AB6C",
"E. c #AC70AC85ACA0",
"W. c #C56BC470C33E",
"Q. c #C57DC47EC346",
"!. c #D202D1EFD1D9",
"~. c #D265D237D1FF",
"^. c #DFFCDFB7DF62",
"/. c #F676F630F5DA",
"(. c #F8A4F863F814",
"). c #F8B9F878F829",
"_. c #FAC8FACCFAD2",
"`. c #FDF7FDF7FDF8",
"'. c #FED0FE72FDFF",
"]. c #FFF8FFF8FFF7",
/* pixels */
"d.d.d.d.d.d.d.d.d.d.d.d.d.d.d.d.d.d.d.d.d.d.d.d.d.d.d.d.d.d.d.d.d.",
"d.d.d.d.d.d.d.t.t.t.t.d.d.d.d.t.w.w.t.d.d.d.w.w.t.t.d.d.d.d.d.d.d.",
"d.d.d.d.d.d.d.M.B.B.C.x.d.d.M.B.B.B.M.d.d.b.C.B.B.M.d.d.d.d.d.d.d.",
"d.d.d.d.d.d.d.P D J c #.k.d.! v J v ! d.x.#.c J D P d.d.d.d.d.d.d.",
"d.d.d.d.d.d.d.g   %   Y H.G.H   %   H G.H.U   %   k d.d.d.d.d.d.d.",
"d.d.d.d.d.d.d.k   ;   c ) / k   %   k / ) z   ;   k d.d.d.d.d.d.d.",
"d.d.d.d.d.d.d.k                                   g d.d.d.d.d.d.d.",
"d.d.d.d.d.d.d.k 5 t 6 6 t t 6 6 6 6 6 t t 6 6 t 3 k d.d.d.d.d.d.d.",
"d.d.d.d.d.d.x.w U.]._.].].].].].].].].].].]._.].I.w x.d.t.d.d.d.d.",
"d.d.d.d.d.t.M.K s J.R.L.L.L.L.L.L.L.L.L.L.L.R.K.s K M.t.d.d.d.d.d.",
"d.d.d.d.d.d.d.B.~     B C B C C C C B B C C     ~ B.d.d.d.d.d.d.d.",
"d.d.d.d.d.d.d.t.S.>.q } ].].].].].].].].]. .q >.S.t.d.d.d.d.d.d.d.",
"d.d.d.d.d.d.d.d.0.F.*.5 .. . . . . . . ...5 *.G.0.d.d.d.d.d.d.d.d.",
"d.d.d.d.d.d.d.d.t.M.=.                      -.B.t.d.d.d.d.d.d.d.d.",
"d.d.d.d.d.d.d.d.t.B.=.  ; - - - - - -   -   =.B.t.d.d.d.d.d.d.d.d.",
"d.d.d.d.d.d.d.d.t.B.=.                      =.B.t.d.d.d.d.d.d.d.d.",
"d.d.d.d.d.d.d.d.t.B.-.                      -.B.t.d.d.d.d.d.d.d.d.",
"d.d.d.d.d.d.d.d.t.B.-.  - & - - - & & - -   -.B.t.d.d.d.d.d.d.d.d.",
"d.d.d.d.d.d.d.d.t.B.-.                      =.B.t.d.d.d.d.d.d.d.d.",
"d.d.d.d.d.d.d.d.q.S.*.s O.o.X.X.X.X.X.X.O.s *.D.w.d.d.d.d.d.d.d.d.",
"d.d.d.d.d.d.d.t.M.8.y +.].].].].].].].].].+.y 8.M.t.d.d.d.d.d.d.d.",
"d.d.d.d.d.d.t.b.2.y   N m m n m m m m m m N   u 3.b.d.d.d.d.d.d.d.",
"d.d.d.d.d.d.d.w.y ] W.T.T.E.E.E.E.E.E.E.T.T.W.] a t.d.d.d.d.d.d.d.",
"d.d.d.d.d.d.k.1.< !.]./.(.(.(.(.(.(.(.(././.].!.2 3.k.t.d.d.d.d.d.",
"d.d.d.d.d.k.C.7.,                               < 7.B.x.d.d.d.d.d.",
"d.d.d.d.d.5.,.:., ` { ' [ [ [ [ [ [ [ [ [ '  .` , :.,.5.d.d.d.d.d.",
"d.d.d.w.Z.R     - ^.].].].].].].].].].].].].].^.-     R S.w.d.d.d.",
"d.d.d.t.Z.R   %   A _ I I I I I I I I _ _ A _ A   %   ~ C.t.d.d.d.",
"d.d.d.w.Z.Y                                       +   E S.w.d.d.d.",
"d.d.d.t.M.$.l G b D G G G G G G G G G G D D G G b D l %.M.w.d.d.d.",
"d.d.d.d.d.k.B.B.M.M.B.M.B.M.M.M.B.M.B.M.B.M.M.B.B.M.B.x.d.d.d.d.d.",
"d.d.d.d.d.d.t.t.t.t.t.t.t.t.t.t.t.t.t.t.t.t.t.t.t.t.t.t.d.d.d.d.d.",
"d.d.d.d.d.d.d.d.d.d.d.d.d.d.d.d.d.d.d.d.d.d.d.d.d.d.d.d.d.d.d.d.d."
};
