/* XPM */
static char *rdd__[] = {
/* columns rows colors chars-per-pixel */
"36 36 190 2",
"   c #000300030002",
".  c #011E00CF0068",
"X  c #007700DC014B",
"o  c #009800F30156",
"O  c #018500000000",
"+  c #033300D30000",
"@  c #01C9014A00B0",
"#  c #024D01AA00E3",
"$  c #02C102010117",
"%  c #000000250238",
"&  c #01D3022E029F",
"*  c #03260322031E",
"=  c #03EC02140021",
"-  c #048B027C0051",
";  c #039602970161",
":  c #045B032701AD",
">  c #075003F10000",
",  c #03EE03AF0361",
"<  c #0609045D0252",
"1  c #065D049A0273",
"2  c #007D023C045D",
"3  c #01D102F6045D",
"4  c #02C603F30562",
"5  c #043504340433",
"6  c #059E04E8040A",
"7  c #06B505FD051C",
"8  c #0AE008BA061C",
"9  c #0D6B09B4052B",
"0  c #0E670B460777",
"q  c #042507950BC8",
"w  c #08480B150EBE",
"e  c #08CE0B960F3C",
"r  c #0FDF0B7A061C",
"t  c #10030B93062A",
"y  c #13390DE60767",
"u  c #1A7D111B05A8",
"i  c #1B6211C00600",
"p  c #158B0F93084B",
"a  c #172F11A00AD8",
"s  c #0A2C0D9711C2",
"d  c #10EC10C0108B",
"f  c #110310D710A1",
"g  c #130812201105",
"h  c #15DD15A4155F",
"j  c #1639160215BF",
"k  c #1768173216F1",
"l  c #12D3158618D2",
"z  c #137615FC1910",
"x  c #195E192218D8",
"c  c #1C5C1B7F1A71",
"v  c #1C8E1BA31A84",
"b  c #1D701DEA1E7C",
"n  c #35D525E21269",
"m  c #328224FE1480",
"M  c #3304255B14B2",
"N  c #3B172AB916C0",
"B  c #3CF22C101777",
"V  c #21C3215420CE",
"C  c #33AE33A13393",
"Z  c #34853472345C",
"A  c #385F385C385A",
"S  c #52A63BC21FD1",
"D  c #55383D9D20CF",
"F  c #56363E552130",
"G  c #595340952263",
"H  c #5EC343A322E0",
"J  c #798757DE2EC9",
"K  c #7B29590B2F6A",
"L  c #7E995A132D81",
"P  c #7CE05A503023",
"I  c #7D2C5A803030",
"U  c #7FA15C473122",
"Y  c #409D40914083",
"T  c #40D340C040AB",
"R  c #4174413F4100",
"E  c #4204419D4120",
"W  c #41E841C941A4",
"Q  c #46BE465D45E7",
"!  c #47B1475946ED",
"~  c #5D565DA45E04",
"^  c #6AF16BA76C8E",
"/  c #6B5E6BF66CB9",
"(  c #717D713B70EB",
")  c #724F721271C7",
"_  c #728F725E7222",
"`  c #7B497A9679BF",
"'  c #7C017B4F7A7A",
"]  c #82C65E8D3258",
"[  c #838E5F1D32A5",
"{  c #85CA60BA3381",
"}  c #877D60DF31C0",
"|  c #878560E531C3",
" . c #869B615233D1",
".. c #89A1619E30C9",
"X. c #8CDF63F63209",
"o. c #90B26859371D",
"O. c #91CE6962380F",
"+. c #92AC6A0B3877",
"@. c #94376AE53878",
"#. c #946A6B4C3920",
"$. c #958A6BFF394E",
"%. c #96076C8839E3",
"&. c #980B6FA73E5C",
"*. c #993A6EAA3AB9",
"=. c #9F6172EC3CC3",
"-. c #A14674493D7A",
";. c #A30475543D93",
":. c #A37475C83E0C",
">. c #A497768C3E5A",
",. c #A4F377433F81",
"<. c #A573779D3FAE",
"1. c #A64078334001",
"2. c #A6BE79E5432B",
"3. c #A7BC7A9D438D",
"4. c #B150808344F3",
"5. c #B3EB826545F4",
"6. c #B479827B457A",
"7. c #C39E8D6F4B50",
"8. c #C5F78F224C36",
"9. c #C6DB8FC64C8E",
"0. c #C86E90E94D29",
"q. c #C91F91694D6D",
"w. c #C9F992074DC1",
"e. c #CBC393524E72",
"r. c #CC2593DB4F2B",
"t. c #CF6C95F84FDA",
"y. c #D0469695502D",
"u. c #D06396AA5039",
"i. c #D1CC97B050C5",
"p. c #D247980650EF",
"a. c #D2AD9851511A",
"s. c #D38A98F25170",
"d. c #D3FC9944519B",
"f. c #D45B998C51C7",
"g. c #D4EE99F251F7",
"h. c #D5369A275215",
"j. c #D5D79A9B5253",
"k. c #D6D69B5452B5",
"l. c #D73F9BA052DD",
"z. c #D7769BC852F3",
"x. c #D8279C485337",
"c. c #D9079CEA538D",
"v. c #D9519D1F53AA",
"b. c #D9A59D5653BE",
"n. c #D9DA9D8253DE",
"m. c #DBBB9EDE5497",
"M. c #DD389FFF5549",
"N. c #DDF4A0805582",
"B. c #DE8AA0E655AC",
"V. c #DE0BA0D65612",
"C. c #E01FA20A5648",
"Z. c #E054A24B5697",
"A. c #E0C5A284568B",
"S. c #E0FAA2DF5714",
"D. c #E1D6A35B5717",
"F. c #E2D3A3FF5754",
"G. c #E3F8A4D357C4",
"H. c #E438A50157DC",
"J. c #E41FA56158D1",
"K. c #E4F5A58B5828",
"L. c #E483A5AA58F7",
"P. c #E760A7A259D9",
"I. c #E761A7A359DA",
"U. c #E9DDA91D5A19",
"Y. c #EA4EA96F5A44",
"T. c #EBBDAAC95B85",
"R. c #EE6AACA05C57",
"E. c #83148326833E",
"W. c #846E83BA82E0",
"Q. c #8681854183B9",
"!. c #85ED85898510",
"~. c #864885E5856C",
"^. c #872C86CB8653",
"/. c #9EA19ECD9F02",
"(. c #A28DA2A0A2B9",
"). c #B01FAFF9AFC9",
"_. c #B08EAF74AE1A",
"`. c #B092B06DB03F",
"'. c #B198B17AB154",
"]. c #B689B60BB56F",
"[. c #BA1BB9CFB971",
"{. c #BA9FBA54B9F7",
"}. c #BBE9BBA6BB52",
"|. c #D521D41AD2D7",
" X c #D7B3D6BAD588",
".X c #FB61FA42F8E5",
"XX c #FB18FABEFA51",
"oX c #FDF3FDF3FDF3",
"OX c #FF24FF23FF22",
"+X c #FFFBFFFBFFFB",
/* pixels */
"j.j.j.j.j.j.j.j.j.j.j.j.j.j.j.j.j.j.j.j.j.j.j.j.j.j.j.j.j.j.j.j.j.j.j.j.",
"j.j.j.j.j.j.j.j.s.i.i.s.s.j.j.j.s.i.s.i.j.j.j.s.s.i.s.i.j.j.j.j.j.j.j.j.",
"j.j.j.j.j.j.j.x.H.H.F.P.C.j.s.n.K.G.G.P.n.j.s.C.K.K.G.K.j.j.j.j.j.j.j.j.",
"j.j.j.j.j.j.v.7.] { { U 1.x.n.5.] { { U 5.v.v.,.U { { ] 7.v.j.j.j.j.j.j.",
"j.j.j.j.j.s.C.,.. . . . G G.P.U . . . . U H.F.D . . . . ,.C.s.j.j.j.j.j.",
"j.j.j.j.j.s.C.1.. 1 1 . D j.j.J . 1 7 . J j.j.S . 1 : . 1.F.s.j.j.j.j.j.",
"j.j.j.j.j.s.C.,.. . 4 . 8 a a 0 . 2 : . 0 a a 8 . 7 . . ,.C.s.j.j.j.j.j.",
"j.j.j.j.j.s.C.,.. . . . . . . . . . . . . . . . . . . . ,.C.s.j.j.j.j.j.",
"j.j.j.j.j.s.C.;.4 ! W W W W W W W W W W W W W W Y W Q 2 ,.C.i.j.j.j.j.j.",
"j.j.j.j.j.s.C.;.2  XoXoXoXoXoXoXoXoXoXoXoXoXoXoXoXoX|.. ;.F.s.j.j.j.j.j.",
"j.j.j.j.j.j.v.r.n w ' W._ _ _ _ _ _ _ _ _ _ _ _ W.' s n t.x.j.j.j.j.j.j.",
"j.j.j.j.j.j.j.v.C.H . . Z A C Z Z Z Z Z Z Z A Z . . H M.x.s.j.j.j.j.j.j.",
"j.j.j.j.j.j.j.s.s.P.&.1 ~ oXoXoXoXoXoXoXoXoXoX~ : &.P.j.s.j.j.j.j.j.j.j.",
"j.j.j.j.j.j.j.j.j.y.R...q ^.^.^.^.^.^.^.^.^.^.q ..R.y.j.j.j.j.j.j.j.j.j.",
"j.j.j.j.j.j.j.j.j.i.C.O.. . . . . . . . . . . . O.F.s.j.j.j.j.j.j.j.j.j.",
"j.j.j.j.j.j.j.j.j.s.F.O.. 7 7 2 2 7 2 7 2 7 7 . O.D.i.j.j.j.j.j.j.j.j.j.",
"j.j.j.j.j.j.j.j.j.s.H.O.. . . . . . . . . . . . O.F.s.j.j.j.j.j.j.j.j.j.",
"j.j.j.j.j.j.j.j.j.s.G.O.. . . . . . . . . . . . O.F.i.j.j.j.j.j.j.j.j.j.",
"j.j.j.j.j.j.j.j.j.i.F.O.. . . . . . . . . . . . O.F.s.j.j.j.j.j.j.j.j.j.",
"j.j.j.j.j.j.j.j.j.s.F.o.. 7 7 . . 1 2 . 4 . 7 . O.G.s.j.j.j.j.j.j.j.j.j.",
"j.j.j.j.j.j.j.j.j.s.C.%.. . . . . . . . . . . . #.F.s.j.j.j.j.j.j.j.j.j.",
"j.j.j.j.j.j.j.j.j.y.T.L s `.'.`.`.`.'.'.).'.).s L T.y.j.j.j.j.j.j.j.j.j.",
"j.j.j.j.j.j.j.j.i.P.1.. W.oXoXoXoXoXoXoXoXoXoXE.. 3.H.i.j.j.j.j.j.j.j.j.",
"j.j.j.j.j.j.j.i.F.=.: . V k k z k k k k k k k V . : -.F.s.j.j.j.j.j.j.j.",
"j.j.j.j.j.j.s.C.3.: / ]./.(.(.(.(.(.(.(.(.(.(./.].^ . 6.M.s.j.j.j.j.j.j.",
"j.j.j.j.j.j.i.H...l .XoXoXoXoXoXoXoXoXoXoXoXoXoXoX.Xz X.P.i.j.j.j.j.j.j.",
"j.j.j.j.j.j.i.D.o.. b x x x x x x x x x x x x x x c . O.F.i.j.j.j.j.j.j.",
"j.j.j.j.j.j.x.T.#.. g g g g g g g g g g g g g g g g . *.I.n.j.j.j.j.j.j.",
"j.j.j.j.x.e.N m u b .XoXoXoXoXoXoXoXoXoXoXoXoXoXoX.Xb u m B e.x.s.j.j.j.",
"j.j.j.s.n.9.9 . . k ].[.[.[.[.[.[.[.[.}.[.[.}.[.}.].k . . r e.v.j.j.j.j.",
"j.j.j.j.x.9.y . 1 . . . . . . . . . . . . . . . . . . 1 . p 9.x.j.j.j.j.",
"j.j.j.s.n.9.9 . . . . . . . . . . . . . . . . . . . . . . 9 e.v.j.j.j.j.",
"j.j.j.j.j.y.] J U J L P P U P P P P P U P P P P P U J U J ] y.j.j.j.j.j.",
"j.j.j.j.j.j.H.P.F.P.G.P.H.H.H.H.H.P.H.H.H.H.P.H.G.H.H.G.P.G.j.j.j.j.j.j.",
"j.j.j.j.j.j.s.i.i.i.s.i.s.i.i.i.i.i.s.i.i.i.i.s.s.i.i.i.i.s.j.j.j.j.j.j.",
"j.j.j.j.j.j.j.j.j.j.j.j.j.j.j.j.j.j.j.j.j.j.j.j.j.j.j.j.j.j.j.j.j.j.j.j."
};
