/* XPM */
static char *rdd__[] = {
/* columns rows colors chars-per-pixel */
"30 30 168 2",
"   c #000200020002",
".  c #010700BE0065",
"X  c #0000002600AE",
"o  c #02D900000000",
"O  c #01EE016700C2",
"+  c #02FD02290127",
"@  c #027F028C029C",
"#  c #03280323031E",
"$  c #03920355030B",
"%  c #06E104FA02A6",
"&  c #04E30449038D",
"*  c #053604A903FD",
"=  c #091806950383",
"-  c #098206E103AC",
";  c #07BB066104BD",
":  c #0CE8095604FA",
">  c #0DD609FF0551",
",  c #0C6009B2066F",
"<  c #0E300AA2064C",
"1  c #0EEC0ACA05BF",
"2  c #0EAF0B2306CF",
"3  c #050307D30B41",
"4  c #06F409CF0D4B",
"5  c #12A80AF90199",
"6  c #14270C0E022C",
"7  c #0FC70B700624",
"8  c #102F0BB3063B",
"9  c #136E0ECD0926",
"0  c #1688110A0A58",
"q  c #17E611460933",
"w  c #1A1612DC0A0B",
"e  c #1BF214340AC2",
"r  c #1E3515D70BA1",
"t  c #0D4A10F5156E",
"y  c #0DF3119F161B",
"u  c #20B214EC068D",
"i  c #2A2F1BBF0A21",
"p  c #2CA41D860B13",
"a  c #36A7251B0FB1",
"s  c #370925620FD7",
"d  c #3683256A1167",
"f  c #37C4264A11D3",
"g  c #39D529D01644",
"h  c #3CDD2C01176E",
"j  c #2F462EE82E81",
"k  c #30763063304E",
"l  c #32E132D432C5",
"z  c #36EB36B63676",
"x  c #377837443705",
"c  c #38DC38093703",
"v  c #39BE398E3954",
"b  c #3DD23DAB3D7C",
"n  c #3E2B3E0B3DE4",
"m  c #46E4303B1494",
"M  c #49A4323815A3",
"N  c #59FD3D3D1A27",
"B  c #63A5480F2666",
"V  c #66C44A512799",
"C  c #685E4B76282E",
"Z  c #69034BE12852",
"A  c #69FF4CA228CE",
"S  c #717F52102BB2",
"D  c #73A1539A2C84",
"F  c #722D53152D22",
"G  c #73EB53D62CB0",
"H  c #74C454732D03",
"J  c #76A255C62DAC",
"K  c #42C742054118",
"L  c #46CA46784615",
"P  c #473646EA468E",
"I  c #4C3D4B484A1E",
"U  c #4B484EE95355",
"Y  c #4D1A51A25729",
"T  c #4E1C51CF5653",
"R  c #68AC69D06B35",
"E  c #70DB72E4755E",
"W  c #84AA5EA03034",
"Q  c #8D2563DF31E7",
"!  c #8D53640E3218",
"~  c #9EFB71FD3B17",
"^  c #9BA5708E3BF8",
"/  c #9CA5713A3C3D",
"(  c #A0E373793C0D",
")  c #B883856F4719",
"_  c #C28A8E374E5D",
"`  c #C5068E734BDA",
"'  c #C5808ED74C23",
"]  c #C61F8F3E4C46",
"[  c #C6BB8FAF4C82",
"{  c #C7DA907E4CF0",
"}  c #C88B90FE4D34",
"|  c #C8DF913A4D54",
" . c #C98091AF4D92",
".. c #CA1C921F4DCE",
"X. c #CA72925E4DEF",
"o. c #CEF895A34FAD",
"O. c #CF7095FB4FDC",
"+. c #CFB196294FF4",
"@. c #D0EB9713507D",
"#. c #D1169732508D",
"$. c #D196978850AF",
"%. c #D24D980D50F6",
"&. c #D254981150F9",
"*. c #D3119897513B",
"=. c #D38B98EF5169",
"-. c #D3FC9944519C",
";. c #D462999051C9",
":. c #D4CD99DB51EC",
">. c #D5D39A995251",
",. c #D6639B025278",
"<. c #D6B89B3E52A9",
"1. c #D7269B9052DF",
"2. c #D77A9BCB52F4",
"3. c #D9079CEA538C",
"4. c #D9869D4553BD",
"5. c #D9E89D8C53E4",
"6. c #DC009FA555FE",
"7. c #DD42A0005540",
"8. c #DCCCA039564D",
"9. c #DFAAA1B45618",
"0. c #DE97A24B58B6",
"q. c #E08FA25A5670",
"w. c #E17BA30756D0",
"e. c #E184A30F56D7",
"r. c #E1ABA36C5765",
"t. c #E29FA3D8573E",
"y. c #E426A4F457D5",
"u. c #E2FCA494586C",
"i. c #E418A51D5842",
"p. c #E428A5295848",
"a. c #E365A5135906",
"s. c #E550A5CD584B",
"d. c #E56BA5DF5852",
"f. c #E56FA6465932",
"g. c #E94CA8EC5A5F",
"h. c #E895A9055B74",
"j. c #EB07A9ED5A7B",
"k. c #EE5EAC565BC4",
"l. c #EF55AD095C23",
"z. c #8AA88BEA8D74",
"x. c #8DB48FD79273",
"c. c #8E15901E9299",
"v. c #99BC99139846",
"b. c #B007B09CB151",
"n. c #B099B12EB1E5",
"m. c #B55EB57AB59E",
"M. c #B6B7B6C7B6DB",
"N. c #C02CC03BC04D",
"B. c #C031C040C053",
"V. c #C118C0F9C0D4",
"C. c #C1B2C186C150",
"Z. c #C3AAC37EC348",
"A. c #C619C5EEC5B9",
"S. c #C6B0C67DC640",
"D. c #C6A9C6A0C695",
"F. c #C7CBC775C70C",
"G. c #CFCECF51CEB9",
"H. c #CFF3CFABCF54",
"J. c #D248D1C7D12A",
"K. c #D260D1E4D14D",
"L. c #D38BD25AD0E5",
"P. c #D326D2E1D28E",
"I. c #D718D608D4BC",
"U. c #D79BD636D483",
"Y. c #DE35DD4FDC36",
"T. c #DDE2DD6CDCDC",
"R. c #FD42FD44FD46",
"E. c #FFF9FFF9FFF9",
/* pixels */
">.>.>.>.>.>.>.>.>.*.>.>.>.>.>.*.>.>.>.>.>.*.>.>.>.>.>.>.>.>.",
">.>.>.>.>.>.>.5.4.4.4.>.>.4.4.4.5.>.>.>.5.5.5.>.>.>.>.>.>.>.",
">.>.>.>.>.>.+.......+.>.*.........*.>.+.{ ....+.>.>.>.>.>.>.",
">.>.>.>.*.s.S   q   J h.[ r > > r { h.H   q $ S s.%.>.>.>.>.",
">.>.>.>.*.s.C   *   V 7.) >     > ) 5.B   =   C s.%.>.>.>.>.",
">.>.>.>.%.s.A   ;   > 0 9 % *   % 9 0 >   ;   C s.%.>.>.>.>.",
">.>.>.>.%.s.A   %                         $   A s.%.>.>.>.>.",
">.>.>.>.%.h.N T I.N.F.F.F.F.F.F.F.F.F.F.V.U.U N h.%.>.>.>.>.",
">.>.>.>.*.a.W y b.I.V.V.V.V.V.V.M.F.V.V.I.n.y W a.%.>.>.>.>.",
">.>.>.>.>.*.r.!     j l l j j l l j l j     ! q.*.>.>.>.>.>.",
">.>.>.>.>.>.*.s._ u R E.E.E.E.E.E.E.E.R u _ s.%.>.>.>.>.>.>.",
">.>.>.>.>.>.>.%.h.( 4 I P P P P P P I 4 ( h.%.>.>.>.>.>.>.>.",
">.>.>.>.>.>.>.*.0.~                     ~ q.*.>.>.>.>.>.>.>.",
">.>.>.>.>.>.>.*.r.~   *   * # # # # *   / q.*.>.>.>.>.>.>.>.",
">.>.>.>.>.>.>.*.r.~                     ~ 0.*.>.>.>.>.>.>.>.",
">.>.>.>.>.>.>.*.0./   * *   # # # * *   ~ q.*.>.>.>.>.>.>.>.",
">.>.>.>.>.>.>.*.q.^                     ^ q.*.>.>.>.>.>.>.>.",
">.>.>.>.>.>.>.%.y.( 3 K n n n n n n K 3 ( s.%.>.>.>.>.>.>.>.",
">.>.>.>.>.>.*.5.0.d E E.E.E.E.E.E.E.E.E f 0.4.*.>.>.>.>.>.>.",
">.>.>.>.>.>.2.>.d   c v z z z z z z v z   f >.>.>.>.>.>.>.>.",
":.2.*.2.>.*.a.m Y P.M.M.M.M.M.M.M.M.M.M.P.T M a.%.>.>.>.>.>.",
"2.:.2.2.>.%.5.i c.T.H.L.P.P.P.L.L.L.L.H.Y.x.p 7.%.>.>.>.>.>.",
"*.2.2.*.2.r.l.g                         $   h l.q.>.>.>.>.>.",
"2.:.:.2.+.H S 5 z.L.Z.A.F.F.A.F.F.F.F.V.L.z.6 S J o.>.>.>.>.",
":.2.*.5.[ >     v.T.H.L.L.L.L.L.L.L.L.H.T.v.    8 ..3.*.>.>.",
"2.*.:.5.{ >                                     8 ..4.>.>.>.",
"2.*.:.5.[ q ; > < > > 2 > 2 < < < < < < > > > = e ..4.>.>.>.",
":.2.:.2.>.[ _ [ [ [ [ [ _ [ [ [ _ [ [ [ _ ` [ [ [ *.>.>.>.>.",
"2.:.2.:.2.3.5.5.5.5.5.5.5.5.5.5.5.5.5.5.5.5.5.5.4.>.>.>.>.>.",
"*.2.:.2.2.*.:.*.*.*.>.>.>.*.>.*.>.>.>.*.>.*.>.*.>.>.>.>.>.>."
};
