/* XPM */
static char *rdd__[] = {
/* columns rows colors chars-per-pixel */
"42 42 195 2",
"   c #000500040004",
".  c #008F007B0064",
"X  c #010900BF0066",
"o  c #00000000013B",
"O  c #013301260116",
"+  c #01C1014A00B8",
"@  c #023F019F00DD",
"#  c #03160240013B",
"$  c #017101790183",
"%  c #0231022F022D",
"&  c #029E023901BC",
"*  c #036E02DB022B",
"=  c #03BF02B50171",
"-  c #0431033001F6",
";  c #03B7036E0314",
":  c #051E03B301F8",
">  c #04FF0425031B",
",  c #0642049B0297",
"<  c #06A604E302BD",
"1  c #0C2004530000",
"2  c #0A240878066F",
"3  c #0A4B0895067E",
"4  c #0D6509AF0528",
"5  c #0F800A4403F3",
"6  c #0DC709F6054E",
"7  c #066A08F90C19",
"8  c #09C309950963",
"9  c #0B890CBA0E32",
"0  c #0C4B0D800EFA",
"q  c #106407050000",
"w  c #139909570000",
"e  c #10550BCF0649",
"r  c #10950BFD0662",
"t  c #129A0D730729",
"y  c #131D0DD1075C",
"u  c #160A0DE603F5",
"i  c #13CB0E6407CC",
"p  c #148E0EF10817",
"a  c #15370F640849",
"s  c #197F10640548",
"d  c #1AD510FA04F3",
"f  c #1E51137F064A",
"g  c #1A4112FB0A1B",
"h  c #1AD413630A4F",
"j  c #1CE014E00B1D",
"k  c #2313195C0D81",
"l  c #26FD1C310F02",
"z  c #27C81CC30F50",
"x  c #295C1DE70FEC",
"c  c #29BF1E2E1012",
"v  c #2AA61ED7106D",
"b  c #2AB41EE4107A",
"n  c #2B701F6810B9",
"m  c #2C231FE910FE",
"M  c #2E7E219E11E6",
"N  c #33DE258D1447",
"B  c #346A25E5142E",
"V  c #351926631471",
"C  c #358726B3149B",
"Z  c #35B926D814AF",
"A  c #37F22873158A",
"S  c #3F0F2D981846",
"D  c #280126E92595",
"F  c #2599271A28F0",
"G  c #263527EC2A03",
"H  c #26C828562A3C",
"J  c #27A529402B36",
"K  c #297729482911",
"L  c #2AAF2A802A49",
"P  c #2E91307832CB",
"I  c #2F3130EC3309",
"U  c #31EA31A3314E",
"Y  c #332A32E73296",
"T  c #3379333632E6",
"R  c #3446341033CF",
"E  c #40722E9818CF",
"W  c #4308307719CE",
"Q  c #471E325818FF",
"!  c #44ED31D61A89",
"~  c #47A733CE1B96",
"^  c #501A39D91EB1",
"/  c #525D3B7C1F90",
"(  c #54DC3D5B20AB",
")  c #56863E6D2104",
"_  c #555D3EE0237B",
"`  c #56A53FCE23FB",
"'  c #5A1741022265",
"]  c #63FF484C267F",
"[  c #672E4A9927B9",
"{  c #64D74A3F29CF",
"}  c #6B014CE22821",
"|  c #4386432542B0",
" . c #439543604320",
".. c #44DF44D844CF",
"X. c #464F464A4644",
"o. c #480C46E3457A",
"O. c #4864473D45D5",
"+. c #492448B14825",
"@. c #4C454C4C4C54",
"#. c #536252DC5237",
"$. c #61A9630664B2",
"%. c #6249637B64F0",
"&. c #633F645D65BB",
"*. c #67F267956725",
"=. c #69A1694268CF",
"-. c #67F769396AC2",
";. c #6FFC6F906F0C",
":. c #72B071D670CD",
">. c #72A8723971B2",
",. c #74E3747273E9",
"<. c #7C5E7B1A798F",
"1. c #8646611033A7",
"2. c #86D3617933E5",
"3. c #881B62683465",
"4. c #8D88664C366A",
"5. c #902A683C3782",
"6. c #9F19733A3DB1",
"7. c #80717F797E4B",
"8. c #BB1487424805",
"9. c #BB8B87994833",
"0. c #BCFA88A248C1",
"q. c #BD5F88EB48E7",
"w. c #BD5F896149EE",
"e. c #BF028A904A8F",
"r. c #C6108F344C40",
"t. c #C6968F944C73",
"y. c #C69890294DB3",
"u. c #C89391054D37",
"i. c #C8E991424D58",
"p. c #C95A91944D84",
"a. c #CB8F932D4E5E",
"s. c #D0A496D95052",
"d. c #D13C9748508E",
"f. c #D1A8979550B8",
"g. c #D23997FF50F1",
"h. c #D2A9984F5119",
"j. c #D3A199025179",
"k. c #D434996D51B2",
"l. c #D465999051C4",
"z. c #D4D999E451F1",
"x. c #D5349A265214",
"c. c #D5D39A985251",
"v. c #D4799A2A5301",
"b. c #D67B9B0A5281",
"n. c #D6E79B6052BB",
"m. c #D7309BA452FA",
"M. c #D7609BB752EA",
"N. c #D44C9A7B53EC",
"B. c #D4559A8253F1",
"V. c #D8419CE75477",
"C. c #D8F09CD95384",
"Z. c #D9AF9D6453CE",
"A. c #D9F69D9753E9",
"S. c #DB169E675458",
"D. c #DBB39ED5548E",
"F. c #D96C9E49561F",
"G. c #DB2D9F8E56CC",
"H. c #DD069FCD5517",
"J. c #DDC6A05C5568",
"K. c #DEA3A0FC55C0",
"L. c #DD75A06D55F2",
"P. c #DEDEA13F560C",
"I. c #E0E1A2D6571D",
"U. c #E251A3C95779",
"Y. c #E278A3AC570C",
"T. c #E35CA463578A",
"R. c #E3E3A4C357BB",
"E. c #E26FA40557DA",
"W. c #E482A53857FC",
"Q. c #EC6BAB185B62",
"!. c #911991259136",
"~. c #94DA93CC9280",
"^. c #94F294FE950C",
"/. c #9E8B9E8B9E89",
"(. c #A6C2A661A5E9",
"). c #A975A911A896",
"_. c #B12DAFD4AE2F",
"`. c #B56BB4FCB473",
"'. c #C25BC1F6C17B",
"]. c #C31CC30EC2FC",
"[. c #C391C32DC2B4",
"{. c #C7A7C79AC78A",
"}. c #C8B5C858C7E8",
"|. c #E336E2D3E25B",
" X c #E456E31EE1A2",
".X c #E371E30EE297",
"XX c #E46AE333E1B8",
"oX c #ED5DEC59EB1A",
"OX c #EE89EE5EEE28",
"+X c #F0B7F08BF054",
"@X c #FA99FA66FA28",
"#X c #FC0AFC0CFC0F",
"$X c #FDE9FDB9FD7F",
"%X c #FEE0FEDDFED9",
"&X c gray100",
/* pixels */
"c.c.c.c.c.c.c.c.c.c.c.c.c.c.c.c.c.c.c.c.c.c.c.c.c.c.c.c.c.c.c.c.c.c.c.c.c.c.c.c.c.c.",
"c.c.c.c.c.c.c.c.c.c.c.c.c.c.c.c.c.c.c.c.c.c.c.c.c.c.c.c.c.c.c.c.c.c.c.c.c.c.c.c.c.c.",
"c.c.c.c.c.c.c.c.c.j.j.c.j.c.j.c.c.c.j.c.c.j.j.c.c.c.c.j.j.c.j.j.j.c.c.c.c.c.c.c.c.c.",
"c.c.c.c.c.c.c.c.c.H.H.L.L.L.S.c.c.c.S.H.H.H.H.S.c.c.c.S.H.H.L.L.H.c.c.c.c.c.c.c.c.c.",
"c.c.c.c.c.c.c.c.g.Q M B B c { L.g.C.( c B B m ( V.j.H.] c A B M ~ g.c.c.c.c.c.c.c.c.",
"c.c.c.c.c.c.c.c.s.h     =   Q W.c.H.M   =     M H.c.E.E         h s.c.c.c.c.c.c.c.c.",
"c.c.c.c.c.c.c.M.g.j   , ,   W c.y.s.m   > ,   c s.y.c.S   , =   j g.c.c.c.c.c.c.c.c.",
"c.c.c.c.c.c.c.M.g.h         2 a u p =         , p p u 2         h g.M.j.c.c.c.c.c.c.",
"c.c.c.c.c.c.c.c.g.h                                         >   h s.c.c.c.c.c.c.c.c.",
"c.c.c.c.c.c.c.c.g.h                                             h g.V.c.c.c.c.c.c.c.",
"c.c.c.c.c.c.c.M.B.1 -.XX[.}.{.}.}.}.}.}.}.}.}.}.{.}.{.}.}.[.XX&.1 N.c.c.c.c.c.c.c.c.",
"c.c.c.c.c.c.c.c.B.u J XX%X%X%X%X%X%X%X%X%X%X%X%X%X%X%X%X%X%X.XH u c.c.c.c.c.c.c.c.c.",
"c.c.c.c.c.c.c.c.H.6.5 9 O. .R U R U U R R U R U R U U U  .+.0 e 6.S.c.c.c.c.c.c.c.c.",
"c.c.c.c.c.c.c.c.c.T.y.B      .@.X.X.X.X.X.X.X.X.X.X.@. .    N t.E.j.c.c.c.c.c.c.c.c.",
"c.c.c.c.c.c.c.c.c.g.S.L.{   #.%X%X%X%X%X%X%X%X%X%X%X%X#.  { H.S.j.c.c.c.c.c.c.c.c.c.",
"c.c.c.c.c.c.c.c.c.c.j.j.Q.}   _.}.[.[.[.[.[.[.[.[.}._.  } Q.c.j.c.c.c.c.c.c.c.c.c.c.",
"c.c.c.c.c.c.c.c.c.c.c.g.E.4.                        >   4.E.g.c.c.c.c.c.c.c.c.c.c.c.",
"c.c.c.c.c.c.c.c.c.c.c.j.W.3.  ,       >   ; ;     ; >   2.E.j.c.c.c.c.c.c.c.c.c.c.c.",
"c.c.c.c.c.c.c.c.c.c.c.j.W.3.  =                     ;   3.W.j.c.c.c.c.c.c.c.c.c.c.c.",
"c.c.c.c.c.c.c.c.c.c.c.j.E.3.  =                         3.E.g.c.c.c.c.c.c.c.c.c.c.c.",
"c.c.c.c.c.c.c.c.c.c.c.g.W.3.  =                     =   3.T.j.c.c.c.c.c.c.c.c.c.c.c.",
"c.c.c.c.c.c.c.c.c.c.c.g.T.3.                        =   3.W.g.c.c.c.c.c.c.c.c.c.c.c.",
"c.c.c.c.c.c.c.c.c.c.c.j.T.3.  , > ; ;   ; ; ;     > >   3.W.g.c.c.c.c.c.c.c.c.c.c.c.",
"c.c.c.c.c.c.c.c.c.c.c.g.T.1.  =                         1.Y.j.c.c.c.c.c.c.c.c.c.c.c.",
"c.c.c.c.c.c.c.c.c.c.c.g.W.5.  D K K K K K K K K K K D   5.W.g.c.c.c.c.c.c.c.c.c.c.c.",
"c.c.c.c.c.c.c.c.c.c.c.c.Y.Q 7 oX%X%X%X%X%X%X%X%X%X%XoX7 Q E.c.c.c.c.c.c.c.c.c.c.c.c.",
"c.c.c.c.c.c.c.c.c.c.c.L._   ^.#XOX+X+X+X+X+X+X+X+XOX#X~.  _ Y.c.c.c.c.c.c.c.c.c.c.c.",
"c.c.c.c.c.c.c.c.c.c.L./     8                         8 =   / L.c.c.c.c.c.c.c.c.c.c.",
"c.c.c.c.c.c.c.c.c.L.(   <./.!.^.^.^.^.^.^.^.^.^.^.^.^.!./.<.  ' L.c.c.c.c.c.c.c.c.c.",
"c.c.c.c.c.c.c.c.B.S.q &.%X%X%X%X%X%X%X%X%X%X%X%X%X%X#X@X#X%X%.w S.c.c.c.c.c.c.c.c.c.",
"c.c.c.c.c.c.c.j.c.B.d U 7.>.,.,.,.,.,.,.,.,.,.,.,.,.,.,.-.8.I f V.j.j.c.c.c.c.c.c.c.",
"c.c.c.c.c.c.c.S.L.S.k                               7 7 7     l L.H.S.c.c.c.c.c.c.c.",
"c.c.c.c.c.c.j.0.8.w.u H >.*.=.=.=.=.=.=.=.=.=.=.=.=.=.=.*.>.H d w.8.w.c.c.c.c.c.c.c.",
"c.c.c.c.j.S.t.t   2   >.%X%X%X%X%X%X%X%X%X%X%X%X%X%X%X%X#X%X;.  2   p a.C.j.c.c.c.c.",
"c.c.c.c.N.S.t.5   >   +.`.(.).).).).).).).).).).).).).).).`.+.  =   e a.C.c.c.c.c.c.",
"c.c.c.c.j.V.t.5   =                                             =   t t.C.c.c.c.c.c.",
"c.c.c.c.c.C.t.5                                                     t y.C.c.c.c.c.c.",
"c.c.c.c.c.C.a.B c n c c c c c M c c c c M c c c c M c c m c c c c c A a.C.j.c.c.c.c.",
"c.c.c.c.c.c.c.C.S.C.C.S.S.S.S.S.C.S.S.C.C.S.C.S.S.S.S.S.S.S.S.S.S.S.S.c.c.c.c.c.c.c.",
"c.c.c.c.c.c.c.c.c.c.c.c.j.j.c.j.c.c.j.c.c.j.c.j.j.c.j.j.c.j.j.c.c.j.j.c.c.c.c.c.c.c.",
"c.c.c.c.c.c.c.c.c.c.j.c.c.c.c.c.c.c.c.j.c.c.c.c.c.c.c.c.c.j.c.c.c.c.c.c.c.c.c.c.c.c.",
"c.c.c.c.c.c.c.c.c.c.c.c.c.c.c.c.c.c.c.c.c.c.c.c.c.c.c.c.c.c.c.c.c.c.c.c.c.c.c.c.c.c."
};
