/* XPM */
static char *rdd__[] = {
/* columns rows colors chars-per-pixel */
"64 64 228 2",
"   c #000500050004",
".  c #008D00660036",
"X  c #014700ED007E",
"o  c #0000000000A7",
"O  c #015A00FC0088",
"+  c #01B0014000B7",
"@  c #024001A100E1",
"#  c #0330024E013B",
"$  c #037C02840157",
"%  c #00CC011F0182",
"&  c #01D701D101CA",
"*  c #032002AE023E",
"=  c #03A202A00166",
"-  c #03AA02C301AA",
";  c #04CC037801D9",
":  c #040E03A8032B",
">  c #04C804210354",
",  c #05BB04250234",
"<  c #067004A8027A",
"1  c #06A004CA028D",
"2  c #042F042B0426",
"3  c #052A04B7042A",
"4  c #06FC06110501",
"5  c #069A067E065B",
"6  c #078A07190690",
"7  c #08F808EF08E4",
"8  c #0D050CCB0C85",
"9  c #152610590A7C",
"0  c #166711410AF8",
"q  c #181911B609F0",
"w  c #1CF114ED0B24",
"e  c #1DF315A70B88",
"r  c #1225121011F7",
"t  c #1BC21B331A87",
"y  c #1CAE1B7919FF",
"u  c #1C4B1BD41B42",
"i  c #26E81C210EFB",
"p  c #29941E101002",
"a  c #2A281E7B103B",
"s  c #39ED29E8165A",
"d  c #242022BF2112",
"f  c #25DE25832512",
"g  c #268C264C25FC",
"h  c #26A92669261A",
"j  c #26F426B7266C",
"k  c #293227BF25FA",
"l  c #28A9284827D3",
"z  c #2A5829FB298B",
"x  c #2AB029FC2921",
"c  c #2A962A3A29CB",
"v  c #2B582AF12A74",
"b  c #2DE32D442C83",
"n  c #2E912E3E2DD9",
"m  c #2FF82F592E97",
"M  c #310D30E130AD",
"N  c #34713468345D",
"B  c #367936713667",
"V  c #381E379B36F8",
"C  c #3AC93922371D",
"Z  c #477233A71B81",
"A  c #483734361BCD",
"S  c #4B7C36941D10",
"D  c #4F9439891EA3",
"F  c #512F3AB21F41",
"G  c #51603AD61F54",
"H  c #56B53EB12162",
"J  c #57203EFE218B",
"K  c #590E40632249",
"L  c #5B2241E42316",
"P  c #5D9643AA2408",
"I  c #5ED544902482",
"U  c #5EF044A4248D",
"Y  c #5F2145302587",
"T  c #5F224574261D",
"R  c #6005456C24F7",
"E  c #609945D82531",
"W  c #5FFC45BF25BB",
"Q  c #643D48792697",
"!  c #66704A102770",
"~  c #632648C02889",
"^  c #65794A09288E",
"/  c #66604A672841",
"(  c #69DF4D9C2B20",
")  c #6D5F4F142A1B",
"_  c #7789567D2E28",
"`  c #7D5D5AA43043",
"'  c #7ECF5BAF30D1",
"]  c #4198419D41A3",
"[  c #472B468845C1",
"{  c #4E964DDF4D00",
"}  c #540C53235207",
"|  c #54F254245329",
" . c #5621559F54FF",
".. c #56A755EC5509",
"X. c #579B56C855C8",
"o. c #576356DD5639",
"O. c #5D065C705BB9",
"+. c #60045F615E9A",
"@. c #612160485F42",
"#. c #657D63DB61DD",
"$. c #679E66FC6635",
"%. c #68DF6838676C",
"&. c #68EB68446778",
"*. c #6ACE6A876A31",
"=. c #6D406D0E6CD2",
"-. c #6E9E6DE26CFD",
";. c #76E776C7769F",
":. c #7737771776EF",
">. c #774877287700",
",. c #787E785E7838",
"<. c #811E5DAB326A",
"1. c #84895FD33306",
"2. c #855060623352",
"3. c #862F610433A8",
"4. c #855060BF3421",
"5. c #8ABA644C3568",
"6. c #8BF7653235E2",
"7. c #8CA465AF3625",
"8. c #8D2A66103658",
"9. c #8F6767AE3735",
"0. c #907D687F37B0",
"q. c #918569373809",
"w. c #927369E33863",
"e. c #93106A54389E",
"r. c #93A56AC238DD",
"t. c #95376BE33975",
"y. c #96FF6D2C3A22",
"u. c #97696D793A4A",
"i. c #999A6F0E3B22",
"p. c #9A5F6F9E3B72",
"a. c #9EDF72DE3D29",
"s. c #A109746E3DFF",
"d. c #A296758D3E97",
"f. c #A3DC76793F16",
"g. c #A45676D13F44",
"h. c #A48D76FA3F5C",
"j. c #A58177A93FB7",
"k. c #A77179104076",
"l. c #A9387A584125",
"z. c #AA657B4341BD",
"x. c #AA7E7B5541C7",
"c. c #AB7A7C024216",
"v. c #AEC47E5F4350",
"b. c #AF6E7ED6438A",
"n. c #B0027F5343EA",
"m. c #B0DA802244AD",
"M. c #B11A806044E8",
"N. c #B3A781E44529",
"B. c #C0748B254A18",
"V. c #C86290E14D24",
"C. c #CFF4965A500E",
"Z. c #D07C96BD5043",
"A. c #D0FC97195074",
"S. c #D1AE979A50B9",
"D. c #D22A97F350E9",
"F. c #D259981550FB",
"G. c #D2AE9853511B",
"H. c #D38098EA516C",
"J. c #D3F3993D5198",
"K. c #D471999951C9",
"L. c #D4D899E351F1",
"P. c #D53A9A2A5216",
"I. c #D5D59A9A5252",
"U. c #D6B79B3D52A9",
"Y. c #D8379C54533D",
"T. c #D87F9C875359",
"R. c #DA2F9DBF53FF",
"E. c #DA989E0B5427",
"W. c #DAC29E2B5438",
"Q. c #DBBF9EE15498",
"!. c #DCA19F8454F0",
"~. c #DE32A0A6558A",
"^. c #DE6AA0CF55A0",
"/. c #DF02A13C55DA",
"(. c #DFF6A1EC5638",
"). c #E049A2295658",
"_. c #E0CDA288568B",
"`. c #E184A30D56D1",
"'. c #E1FFA36356FD",
"]. c #E2C8A3F7574E",
"[. c #E352A45B5783",
"{. c #E3A1A49457A1",
"}. c #E43BA50357DD",
"|. c #E466A52357ED",
" X c #E4E8A580581F",
".X c #E5B8A616586F",
"XX c #E620A6615897",
"oX c #E7BAA78B5935",
"OX c #E93FA8A559CE",
"+X c #EA91A99B5A54",
"@X c #EECDACA85BEF",
"#X c #F0FDAE3C5CC6",
"$X c #F18BAEA35CFC",
"%X c #AB2DAAAEAA13",
"&X c #ACCBAC52ABBE",
"*X c #AF5DAEF2AE71",
"=X c #B0D1B06BAFEF",
"-X c #B124B0BFB044",
";X c #B1B1B146B0C3",
":X c #B280B216B195",
">X c #B2A3B239B1B8",
",X c #BBAEBBB2BBB8",
"<X c #BE21BE1BBE14",
"1X c #BEE6BEE3BEDE",
"2X c #C237C21FC204",
"3X c #CF79CEFCCE64",
"4X c #D280D1FDD15C",
"5X c #E011DF74DEB5",
"6X c #E1B2E153E0E0",
"7X c #E932E8ECE897",
"8X c #ED6FEC95EB8B",
"9X c #EEBFEEA2EE7F",
"0X c #F1B0F17DF13F",
"qX c #F1F2F1BBF178",
"wX c #F3ECF343F275",
"eX c #F631F5CEF555",
"rX c #F707F6A8F634",
"tX c #F820F7EAF7A9",
"yX c #F9B3F96FF91B",
"uX c #FBC4FB79FB1D",
"iX c #FC4FFC3BFC23",
"pX c #FCEDFCC0FC8C",
"aX c #FDCAFDA2FD73",
"sX c #FE0AFDCFFD87",
"dX c #FEC8FE91FE4D",
"fX c #FEF8FEF9FEF9",
"gX c #FFC6FFA1FF74",
"hX c #FFFEFFFEFFFE",
/* pixels */
"I.I.I.I.I.I.I.I.I.I.I.I.I.I.I.I.I.I.I.I.I.I.I.I.I.I.I.I.I.I.I.I.I.I.I.I.I.I.I.I.I.I.I.I.I.I.I.I.I.I.I.I.I.I.I.I.I.I.I.I.I.I.I.I.",
"I.I.I.I.I.I.I.I.I.I.I.I.I.I.I.I.I.I.I.I.I.I.I.I.I.I.I.I.I.I.I.I.I.I.I.I.I.I.I.I.I.I.I.I.I.I.I.I.I.I.I.I.I.I.I.I.I.I.I.I.I.I.I.I.",
"I.I.I.I.I.I.I.I.I.I.I.I.I.I.I.I.I.I.I.I.I.I.I.I.I.I.I.I.I.I.I.I.I.I.I.I.I.I.I.I.I.I.I.I.I.I.I.I.I.I.I.I.I.I.I.I.I.I.I.I.I.I.I.I.",
"I.I.I.I.I.I.I.I.I.I.I.I.I.I.I.I.I.I.I.I.I.I.I.I.I.I.I.I.I.I.I.I.I.I.I.I.I.I.I.I.I.I.I.I.I.I.I.I.I.I.I.I.I.I.I.I.I.I.I.I.I.I.I.I.",
"I.I.I.I.I.I.I.I.I.I.I.I.I.I.D.D.J.D.D.D.J.J.J.I.I.I.I.I.D.D.D.J.D.J.D.J.J.I.I.I.I.J.D.J.D.D.J.J.D.D.I.I.I.I.I.I.I.I.I.I.I.I.I.I.",
"I.I.I.I.I.I.I.I.I.I.I.I.I.Y. X X X X X X{. XR.I.I.I.I.R. X X X X}. X X XR.I.I.I.I.R. X X X X}. X X XR.I.I.I.I.I.I.I.I.I.I.I.I.I.",
"I.I.I.I.I.I.I.I.I.I.I.I._.N.P U U U U U E J x.!.J.J.!.N.K E U U U U E K N.!.J.J.^.k.J E U U U U U P N.R.I.I.I.I.I.I.I.I.I.I.I.I.",
"I.I.I.I.I.I.I.I.I.I.I.I._.v.. . . . . . . . 1.}.J.D._.u.. . . . . . . . u._.J.D. X` . . . . . . . . N.].J.I.I.I.I.I.I.I.I.I.I.I.",
"I.I.I.I.I.I.I.I.I.I.I.J.^.n.. ; . ; ; . 1 . 2._.C.D.^.u.. 1 ; . . ; 1 . u.^.D.C._.' . 1 . ; ; . ; . n.^.J.I.I.I.I.I.I.I.I.I.I.I.",
"I.I.I.I.I.I.I.I.I.I.I.J.^.v.. . . . . . ; . 7.#X^.^.@Xa.. . . . . . . . a.@X^.^.#X3.. . . . . . . . n.^.J.I.I.I.I.I.I.I.I.I.I.I.",
"I.I.I.I.I.I.I.I.I.I.I.J.^.v.. . . . . . . . U f.u.u.f.) . . . . . . . . ) f.u.u.k.P . . . . . . . . n.!.J.I.I.I.I.I.I.I.I.I.I.I.",
"I.I.I.I.I.I.I.I.I.I.I.J.^.v.. . . . . . . . . . . . . . . . . . . . . . . . . . . . . . . . . . . . n.^.J.I.I.I.I.I.I.I.I.I.I.I.",
"I.I.I.I.I.I.I.I.I.I.I.J.^.v.. . . . . . . . . . . . . . . . . . . . . . . . . . . . . . . . . . . . v.^.J.I.I.I.I.I.I.I.I.I.I.I.",
"I.I.I.I.I.I.I.I.I.I.I.J.^.v.. . * 4 2 2 2 * 4 4 4 * 4 4 * 4 4 * * 4 * 4 2 4 * 4 * 4 * 4 * 4 * 4 . . v.^.J.I.I.I.I.I.I.I.I.I.I.I.",
"I.I.I.I.I.I.I.I.I.I.I.J.^.v.. . . . . . . . . . . . . . . . . . . . . . . . . . . . . . . . . . . . v.^.J.I.I.I.I.I.I.I.I.I.I.I.",
"I.I.I.I.I.I.I.I.I.I.I.J.^.n.. 7 =.>.>.>.>.>.>.>.>.>.>.>.>.>.>.>.>.>.>.>.>.>.>.>.>.>.>.>.;.>.;.*.4 . n.^.J.I.I.I.I.I.I.I.I.I.I.I.",
"I.I.I.I.I.I.I.I.I.I.I.J.^.n.. r 9XhXhXhXhXhXhXhXhXhXhXhXhXhXhXhXhXhXhXhXhXhXhXhXhXhXhXhXhXhXhX7X8 . n.^.J.I.I.I.I.I.I.I.I.I.I.I.",
"I.I.I.I.I.I.I.I.I.I.I.J.^.v.. . o.0XhXhXhXhXhXhXhXhXhXhXhXhXhXhXhXhXhXhXhXhXhXhXhXhXhXhXhXhX0X| . . n.^.J.I.I.I.I.I.I.I.I.I.I.I.",
"I.I.I.I.I.I.I.I.I.I.I.I.I.D.S . . n %X-X*X-X-X-X-X-X-X-X-X-X-X-X-X-X-X-X-X-X-X-X-X-X-X*X*X&Xm . . S D.I.I.I.I.I.I.I.I.I.I.I.I.I.",
"I.I.I.I.I.I.I.I.I.I.I.I.I.Y._._ . . . . . . . . . . . . . . . . . . . . . . . . . . . . . . . . _ _.Y.I.I.I.I.I.I.I.I.I.I.I.I.I.",
"I.I.I.I.I.I.I.I.I.I.I.I.I.I.J. Xf.q . 4 . M ] B B B B B B B B B B B B B B B B B B ] M . 4 . q j. XJ.I.I.I.I.I.I.I.I.I.I.I.I.I.I.",
"I.I.I.I.I.I.I.I.I.I.I.I.I.I.I.D._.V.s . . B 6XhXhXhXhXhXhXhXhXhXhXhXhXhXhXhXhXhXhX6XB . . s V._.D.I.I.I.I.I.I.I.I.I.I.I.I.I.I.I.",
"I.I.I.I.I.I.I.I.I.I.I.I.I.I.I.I.J.R.^./ . . x uXhXhXhXhXhXhXhXhXhXhXhXhXhXhXhXhXiXx . . ! ^.R.D.I.I.I.I.I.I.I.I.I.I.I.I.I.I.I.I.",
"I.I.I.I.I.I.I.I.I.I.I.I.I.I.I.I.I.J.J.+X<.. y 8XuX0XtXeXtXtXtXtXwXtXtXtXtXtXwXuX8Xu . <.+XJ.J.I.I.I.I.I.I.I.I.I.I.I.I.I.I.I.I.I.",
"I.I.I.I.I.I.I.I.I.I.I.I.I.I.I.I.I.I.J.^.x.. 4 t y t u u u u u u u u u u u u u u u 4 . x.^.D.I.I.I.I.I.I.I.I.I.I.I.I.I.I.I.I.I.I.",
"I.I.I.I.I.I.I.I.I.I.I.I.I.I.I.I.I.I.J.^.f.. . . . . . . . . . . . . . . . . . . . . . f.^.J.I.I.I.I.I.I.I.I.I.I.I.I.I.I.I.I.I.I.",
"I.I.I.I.I.I.I.I.I.I.I.I.I.I.I.I.I.I.J.^.f.. . . * . . . . . . . . . . . * . . * . . . f._.J.I.I.I.I.I.I.I.I.I.I.I.I.I.I.I.I.I.I.",
"I.I.I.I.I.I.I.I.I.I.I.I.I.I.I.I.I.I.J._.k.. . . . . . . . . . . . . . . . . . . . . . f._.J.I.I.I.I.I.I.I.I.I.I.I.I.I.I.I.I.I.I.",
"I.I.I.I.I.I.I.I.I.I.I.I.I.I.I.I.I.I.J.^.j.. . . . . . . . . . . . . . . . . . . . . . j.^.J.I.I.I.I.I.I.I.I.I.I.I.I.I.I.I.I.I.I.",
"I.I.I.I.I.I.I.I.I.I.I.I.I.I.I.I.I.I.J._.f.. . . . . . . . . . . . . . . . . . . . . . f.^.J.I.I.I.I.I.I.I.I.I.I.I.I.I.I.I.I.I.I.",
"I.I.I.I.I.I.I.I.I.I.I.I.I.I.I.I.I.I.J._.j.. . . . . . . . . . . . . . . . . . . . . . k._.J.I.I.I.I.I.I.I.I.I.I.I.I.I.I.I.I.I.I.",
"I.I.I.I.I.I.I.I.I.I.I.I.I.I.I.I.I.I.J.^.f.. . . . . . . . . . . . . . . . . . . . . . k.^.J.I.I.I.I.I.I.I.I.I.I.I.I.I.I.I.I.I.I.",
"I.I.I.I.I.I.I.I.I.I.I.I.I.I.I.I.I.I.J._.k.. . . . . . . . . . . . . . . . . . . . . . f.^.J.I.I.I.I.I.I.I.I.I.I.I.I.I.I.I.I.I.I.",
"I.I.I.I.I.I.I.I.I.I.I.I.I.I.I.I.I.I.J._.k.. . . . . . . . . . . . . . . . . . . . . . k.^.J.I.I.I.I.I.I.I.I.I.I.I.I.I.I.I.I.I.I.",
"I.I.I.I.I.I.I.I.I.I.I.I.I.I.I.I.I.I.J.^.f.. . . . . . . . . . . . . . . . . . . . . . f._.J.I.I.I.I.I.I.I.I.I.I.I.I.I.I.I.I.I.I.",
"I.I.I.I.I.I.I.I.I.I.I.I.I.I.I.I.I.I.J.^.f.. . . . . * * . . . . . . . 2 . * . . . . . f._.J.I.I.I.I.I.I.I.I.I.I.I.I.I.I.I.I.I.I.",
"I.I.I.I.I.I.I.I.I.I.I.I.I.I.I.I.I.I.J.^.f.. . . . . . . . . . . . . . . . . . . . . . f.^.J.I.I.I.I.I.I.I.I.I.I.I.I.I.I.I.I.I.I.",
"I.I.I.I.I.I.I.I.I.I.I.I.I.I.I.I.I.I.J.^.x.. 4 j l j j j j j j j j j j j l j j j j 6 . x.^.J.I.I.I.I.I.I.I.I.I.I.I.I.I.I.I.I.I.I.",
"I.I.I.I.I.I.I.I.I.I.I.I.I.I.I.I.I.I.D.+X1.. y 0XhXuXhXiXiXpXhXpXhXuXhXuXuXhXiXhX0Xy . 3.+XC.I.I.I.I.I.I.I.I.I.I.I.I.I.I.I.I.I.I.",
"I.I.I.I.I.I.I.I.I.I.I.I.I.I.I.I.I.D. Xe.1 . o.hXhXhXhXhXhXhXhXhXhXhXhXhXhXhXhXhXhXo.. 4 e. XD.I.I.I.I.I.I.I.I.I.I.I.I.I.I.I.I.I.",
"I.I.I.I.I.I.I.I.I.I.I.I.I.I.J.I.D. Xe.4 . } uXhXhXhXhXpXhXpXhXhXhXhXuXhXhXhXhXiXhXuX} . 4 e. XJ.I.I.I.I.I.I.I.I.I.I.I.I.I.I.I.I.",
"I.I.I.I.I.I.I.I.I.I.I.I.I.I.I.D. X0.. * . x n x x x x x x x x x x x x x x x x x j n x . ; . e. XD.I.I.I.I.I.I.I.I.I.I.I.I.I.I.I.",
"I.I.I.I.I.I.I.I.I.I.I.I.I.I.J.}.0.. . . . . . . . . . . . . . . . . . . . . . . . . . . . . . e.}.J.I.I.I.I.I.I.I.I.I.I.I.I.I.I.",
"I.I.I.I.I.I.I.I.I.I.I.I.I.J.^.u.. . [ 2X,X<X<X<X<X<X<X<X<X<X<X<X<X<X<X<X<X<X<X<X1X<X<X,X2X[ . ; p.^.J.I.I.I.I.I.I.I.I.I.I.I.I.I.",
"I.I.I.I.I.I.I.I.I.I.I.I.J.J. XU . C tXhXhXhXhXhXhXhXhXhXhXhXhXhXhXhXhXhXhXhXhXhXhXhXhXhXhXtXC . /  XJ.I.I.I.I.I.I.I.I.I.I.I.I.I.",
"I.I.I.I.I.I.I.I.I.I.I.I.I.J. X~ . #.hXuXhXhXhXhXhXhXhXhXhXhXhXhXhXhXhXhXhXhXhXhXhXhXhXhXuXhX#.. (  XD.I.I.I.I.I.I.I.I.I.I.I.I.I.",
"I.I.I.I.I.I.I.I.I.I.I.I.I.J. XU . k =.$.%.%.%.%.%.%.%.%.&.&.%.%.&.&.&.%.&.%.&.%.&.&.&.%.$.=.k . / }.D.I.I.I.I.I.I.I.I.I.I.I.I.I.",
"I.I.I.I.I.I.I.I.I.I.I.I.J.D. XU . . . . . . . . . . . . . . . . . . . . . . . . . . . . . . ; . Q }.D.I.I.I.I.I.I.I.I.I.I.I.I.I.",
"I.I.I.I.I.I.I.I.I.I.I.I.I.D.}.U . . . . . . . . . . . . . . . . . . . . . . . . . . . . . . . . Q  XJ.I.I.I.I.I.I.I.I.I.I.I.I.I.",
"I.I.I.I.I.I.I.I.I.I.I.Y.Y.J. XU . d O.o.o.o.o.o.o.o.o.o.o.o.o.o.o.o.o.o.o.o.o.o.o.o.o.o.o.O.d . /  XJ.R.T.I.I.I.I.I.I.I.I.I.I.I.",
"I.I.I.I.I.I.I.I.J.^.p.e p i a 0 . #.hXiXhXhXhXhXhXhXhXhXhXhXhXhXhXhXhXhXhXhXhXhXhXhXhXhXuXhX#.. 0 p i p e a.^.J.I.I.I.I.I.I.I.I.",
"I.I.I.I.I.I.I.I.J.].6.. . . . 4 . O.hXuXhXhXhXhXhXhXhXhXhXhXhXhXhXhXhXhXhXhXhXhXhXhXhXhXuXhXO.. 4 . . . . e._.J.I.I.I.I.I.I.I.I.",
"I.I.I.I.I.I.I.I.D.].7.. 1 . . 4 . { 5X3X4X4X4X4X4X4X4X4X4X4X4X4X4X4X4X4X4X4X4X4X4X4X4X4X3X5X{ . * . . 1 . e.{.J.I.I.I.I.I.I.I.I.",
"I.I.I.I.I.I.I.I.J.}.6.. . . . . . . . . . . . . . . . . . . . . . . . . . . . . . . . . . . . . . . . ; . e._.J.I.I.I.I.I.I.I.I.",
"I.I.I.I.I.I.I.I.D.].6.. ; . . . . . . . . . . . . . . . . . . . . . . . . . . . . . . . . . . . . . . . . e._.J.I.I.I.I.I.I.I.I.",
"I.I.I.I.I.I.I.I.D.}.7.. 1 . ; . 1 . ; . 1 . 1 . . 1 . 1 . 1 . 1 ; . 1 . . 1 . ; ; . 1 . 1 . ; . . ; . 4 . e._.J.I.I.I.I.I.I.I.I.",
"I.I.I.I.I.I.I.I.J.].5.. . . . . . . . . . . . . . . . . . . . . . . . . . . . . . . . . . . . . . . . . . e._.J.I.I.I.I.I.I.I.I.",
"I.I.I.I.I.I.I.I.J.^.k.Z H D D D D G D D D D D G D D D D D D D D D D D G D D D D D G D D D D D G D G G G Z c.^.J.I.I.I.I.I.I.I.I.",
"I.I.I.I.I.I.I.I.I.I.R.}.}._._. X_.}. X_.{._.}._.{.{.{.{.{.{._. X}.].}._.{.{.{.{._.}. X_.{._.}._.{.{._.}.}.R.I.I.I.I.I.I.I.I.I.I.",
"I.I.I.I.I.I.I.I.I.I.J.J.J.J.D.J.J.D.J.D.D.J.J.J.J.D.D.D.J.D.D.J.D.J.D.J.D.D.J.D.J.D.J.D.D.J.J.J.J.D.D.J.D.I.I.I.I.I.I.I.I.I.I.I.",
"I.I.I.I.I.I.I.I.I.I.I.I.I.I.I.I.I.I.I.I.I.I.I.I.I.I.I.I.I.I.I.I.I.I.I.I.I.I.I.I.I.I.I.I.I.I.I.I.I.I.I.I.I.I.I.I.I.I.I.I.I.I.I.I.",
"I.I.I.I.I.I.I.I.I.I.I.I.I.I.I.I.I.I.I.I.I.I.I.I.I.I.I.I.I.I.I.I.I.I.I.I.I.I.I.I.I.I.I.I.I.I.I.I.I.I.I.I.I.I.I.I.I.I.I.I.I.I.I.I.",
"I.I.I.I.I.I.I.I.I.I.I.I.I.I.I.I.I.I.I.I.I.I.I.I.I.I.I.I.I.I.I.I.I.I.I.I.I.I.I.I.I.I.I.I.I.I.I.I.I.I.I.I.I.I.I.I.I.I.I.I.I.I.I.I.",
"I.I.I.I.I.I.I.I.I.I.I.I.I.I.I.I.I.I.I.I.I.I.I.I.I.I.I.I.I.I.I.I.I.I.I.I.I.I.I.I.I.I.I.I.I.I.I.I.I.I.I.I.I.I.I.I.I.I.I.I.I.I.I.I."
};
