/* XPM */
static char *rdl__[] = {
/* columns rows colors chars-per-pixel */
"26 26 163 2",
"   c #000400040004",
".  c #01F9017800DD",
"X  c #025F01C4010A",
"o  c #032202550160",
"O  c #03640286017C",
"+  c #01B401BA01C0",
"@  c #032E03290324",
"#  c #045702C600E6",
"$  c #0413030D01D2",
"%  c #058E049E037C",
"&  c #03D703D803D9",
"*  c #07A106770513",
"=  c #082306D8054B",
"-  c #07E006E905C0",
";  c #09BE0816061A",
":  c #05E8078709D9",
">  c #061007A209B3",
",  c #1E1B122C04B4",
"<  c #182A113108D3",
"1  c #19451204094F",
"2  c #1BC8157B0DEC",
"3  c #21991EF91BD3",
"4  c #220B1F6C1C46",
"5  c #3B232AA616DE",
"6  c #3BC02B5817AF",
"7  c #3DC72C9E1806",
"8  c #302D34403923",
"9  c #40D8304B1C6F",
"0  c #47CC35771F78",
"q  c #4AC037AA20C3",
"w  c #4BB5392C22EE",
"e  c #4DBA39E12211",
"r  c #4C7A39BE2344",
"t  c #4DFE3A21224B",
"y  c #52063BE9215E",
"u  c #50D33C30236D",
"i  c #51163C6F23A6",
"p  c #54C63F3C2561",
"a  c #54D93F4A2569",
"s  c #5DB446932AD1",
"d  c #66DA4C972D15",
"f  c #67544CE82D33",
"g  c #685F4DB82DBE",
"h  c #6C5550B82F96",
"j  c #71F751432A72",
"k  c #730D52112AE7",
"l  c #6F7B530A30E1",
"z  c #43CC47664BB7",
"x  c #45F1499E4E06",
"c  c #659D659E65A0",
"v  c #66B266B066AE",
"b  c #66E966E866E6",
"n  c #6AA76A806A51",
"m  c #6F5E6E106C80",
"M  c #6DBA713C7571",
"N  c #759D750B7457",
"B  c #80235DB1345B",
"V  c #82735F69355E",
"C  c #856A60113342",
"Z  c #8402624E39DD",
"A  c #8424626739EC",
"S  c #8986667F3C76",
"D  c #8B5867CB3D22",
"F  c #8B9D67F43D29",
"G  c #8D6A694E3DFB",
"H  c #8DBA6A6B400C",
"J  c #8E876B3940DB",
"K  c #91FB6CB53FFC",
"L  c #923D6CE74019",
"P  c #92A06D304044",
"I  c #945D6E7640F9",
"U  c #A7FB7D17499F",
"Y  c #AAB07F1C4AD1",
"T  c #ABE680034B59",
"R  c #BB0D8A374F9C",
"E  c #CBC496135597",
"W  c #CBE1963255B7",
"Q  c #C9B696365869",
"!  c #D5A09F195DAB",
"~  c #D828A0FC5EC7",
"^  c #DBBEA3A46050",
"/  c #DC92A44260AD",
"(  c #E567AAD5648C",
")  c #E802ACC665B1",
"_  c #E88DAD1F65D2",
"`  c #E916AD916624",
"'  c #E9C7AE12666F",
"]  c #E9F7AE3B668C",
"[  c #EA95AEB066D1",
"{  c #EAE4AEEB66F4",
"}  c #EB5EAF476729",
"|  c #EBF0AFB36769",
" . c #EE21B155685F",
".. c #EF2DB21D68D4",
"X. c #F1D1B41369FD",
"o. c #F208B43D6A15",
"O. c #F3A8B5726ACC",
"+. c #F3FAB5EE6B78",
"@. c #F471B65C6BCC",
"#. c #F484B6166B2C",
"$. c #F4A7B6626BA2",
"%. c #F56EB70F6C35",
"&. c #F6AAB7B06C1D",
"*. c #F789B8566C7E",
"=. c #F7A9B8C46D4F",
"-. c #F7B1BA026FE1",
";. c #F9C0B9FC6D77",
":. c #FA48BA616DB2",
">. c #F902B9D06DFB",
",. c #FB5BBB2E6E2B",
"<. c #FB75BB416E37",
"1. c #FBF0BB9D6E6D",
"2. c #FC95BC196EB8",
"3. c #FCCABC406ECD",
"4. c #FD30BC8B6EF9",
"5. c #FEFEBDE46FC4",
"6. c #FE57BDD57055",
"7. c #FED3BE827153",
"8. c #FFFFC4C073CE",
"9. c #FFFFC4127524",
"0. c #FFFFC5537424",
"q. c #FFFFC8E97648",
"w. c #818A81878182",
"e. c #828D828C828A",
"r. c #860684D7836C",
"t. c #8596859A859F",
"y. c #873A860B84A1",
"u. c #8C8A8B6089FD",
"i. c #8B768E5C91D5",
"p. c #918791559118",
"a. c #9236920791CE",
"s. c #9262923391FB",
"d. c #91DD94429721",
"f. c #945F944C9435",
"g. c #9FBD9F0C9E24",
"h. c #A6D9A961AC6A",
"j. c #A73EA9ADAC97",
"k. c #AD48AC4AAB18",
"l. c #AD2EAD11ACED",
"z. c #AF65AF49AF27",
"x. c #B005AFD6AF9E",
"c. c #B11DB0EFB0B8",
"v. c #B233B332B463",
"b. c #B258B34DB473",
"n. c #B556B520B4E1",
"m. c #BCA8BBB5BA91",
"M. c #BEEBBEEABEE7",
"N. c #C564C565C565",
"B. c #C66BC627C5D4",
"V. c #C7E3C713C61A",
"C. c #C969C86AC73A",
"Z. c #D29CD111CF38",
"A. c #D769D72AD6DD",
"S. c #DA18D9DAD98F",
"D. c #DEC9DE9EDE69",
"F. c #E0D9E0AFE07C",
"G. c #E688E65EE62B",
"H. c #E8A6E7BEE6A8",
"J. c #E9CFE99FE966",
"K. c #E9F1E9C0E986",
"L. c #EB2EEAC1EA3D",
"P. c #F46CF363F226",
"I. c #F484F375F231",
/* pixels */
"| | | | | | ( | ( | | | ) ) ) | | ( | ( | | {  .{ { ",
"| | | | | o.2.1.1. .| *.1.1.$.| ..1.1.1.o.| {  .{  .",
"| | | | o.Q F P G / o.U F F U ..^ P P S E ..{ { {  .",
"| | | ) 2.P     % ~ 0.9     9 q.! %     P 1.) { { { ",
"| | | ) 1.I   ; ; r s 2 & % 2 s r = ;   P 1.) |  .{ ",
"| | | ) 1.I   #                     #   I 1.) | { { ",
"| | | ( 7.V x Z.M.B.B.B.B.B.B.C.B.M.Z.z C 7.( |  . .",
"| | | | %.R 4 i.k.f.a.a.a.a.a.a.f.k.i.4 R %.| | { { ",
"{ { {  .) *.E , > N t.e.e.e.e.t.N > , E *.| | | | | ",
" . .{ {  .) O.6.6 d.H.A.S.S.A.G.d.5 -.%.) | | | | | ",
"{ {  .{ { { ( 3.l   %         %   l 3.( | | | | | | ",
"{  .{ { {  .) 1.f   %         %   f 1.| | | | | | | ",
"{ {  .{ | | ) 3.g   %         &   g 3.) | | | | | | ",
" .{  .{ | | ) 1.f   = & & & & ;   f 2.) | | | | | | ",
" .{ { { | | ) 1.h   %         %   h 2.( | | | | | | ",
"{ {  .{ | | ) 9.y M m.l.l.x.l.m.M y 9.) | | | | | | ",
"{  . .{ { { 7.h > g.n.b.x.c.l.n.g.> k 7.| | | | | | ",
"{ { { { | *.B 8 e.n c c b c c c n e.8 V %.| | | | | ",
" . .{  .| o.5 j.I.G.L.L.L.L.L.L.G.I.j.7 $.( | | | | ",
"{ { { { o.8.0                     #   w 0.o.| | | | ",
"| | | $.S a < b.L.D.F.F.F.F.F.F.D.L.n.< a F O.{ | | ",
"| | | $.r   # m u.t.y.y.y.y.y.y.t.u.m %   y 1.) | | ",
"| | | 1.r   #                             i 1.) | | ",
"| | | o.Y A S H J J J J J H P F H H H F Z Y ..| | | ",
"| | | | $.3.2.2.2.2.2.1.1.1.1.2.3.1.1.1.3.%.| | | | ",
"| | | | ( ( | ( ) ) | ( | ( ( ( | ( ) ) ( | | | | | "
};
