/* XPM */
static char *rdl__[] = {
/* columns rows colors chars-per-pixel */
"30 30 172 2",
"   c #000300020002",
".  c #011700D0007A",
"X  c #00000008009A",
"o  c #012D00E00084",
"O  c #0221019700F3",
"+  c #032302560160",
"@  c #027B02870298",
"#  c #032A03250320",
"$  c #040F00E30000",
"%  c #03C302CD01A6",
"&  c #03AA036B0321",
"*  c #051D048003C4",
"=  c #054604B7040C",
"-  c #058F05000452",
";  c #079605A70354",
":  c #083C06DC0538",
">  c #0A0907790468",
",  c #0A7D07D0049B",
"<  c #0D600AA60762",
"1  c #0E3D0A9B063F",
"2  c #0F210B43069E",
"3  c #03F706D20A41",
"4  c #05E408CB0C47",
"5  c #0F830BE6078F",
"6  c #10320C100719",
"7  c #15850DB50455",
"8  c #172C0EF0050E",
"9  c #10010C660812",
"0  c #11660CFB07AF",
"q  c #11DB0D4C07D3",
"w  c #152910720ACC",
"e  c #189412FE0C4B",
"r  c #1A5C13A20B8E",
"t  c #1CC8156E0C9D",
"y  c #1ED516F50D83",
"u  c #0BEC0FA71420",
"i  c #0C94105014CC",
"p  c #2519191D0ABE",
"a  c #215318D10E9B",
"s  c #2F9120E30F45",
"d  c #324722E71075",
"f  c #3D692B831607",
"g  c #3CF02B6D170C",
"h  c #3E532C72179B",
"j  c #2F692F092E9D",
"k  c #307D306A3054",
"l  c #32E732D932C9",
"z  c #36FE36C93689",
"x  c #378B37573718",
"c  c #392A38553751",
"v  c #39D0399F3966",
"b  c #3DE03DB93D8A",
"n  c #3E363E163DF0",
"m  c #3FC22F841BF7",
"M  c #432632011D6E",
"N  c #4F57384B1CA4",
"B  c #52603A8E1DF9",
"V  c #64B547792462",
"C  c #6DEE51E13037",
"Z  c #7160547131B9",
"A  c #732655C03278",
"S  c #73DD563D32AF",
"D  c #73E5564232B3",
"F  c #74ED57133340",
"G  c #74F557193343",
"H  c #7D385D4036E2",
"J  c #7DC55E273833",
"K  c #7FBA5F213802",
"L  c #430E4249415C",
"P  c #46E846954632",
"I  c #4752470546A9",
"U  c #4C984B9F4A75",
"Y  c #49EE4D9E520B",
"T  c #4B6B5005558C",
"R  c #4CBB507E5502",
"E  c #683369686ACD",
"W  c #7019722A74A5",
"Q  c #80D15FF43883",
"!  c #82E26178395E",
"~  c #92D76C273DBB",
"^  c #92DA6C2C3DC1",
"/  c #9CA572A54076",
"(  c #AB827FBF4B39",
")  c #ABEB800B4B65",
"_  c #ACBA80964B9E",
"`  c #AFBE81FE4B18",
"'  c #AFC582044B1B",
"]  c #AD0E80DE4BDA",
"[  c #B1D183A24C36",
"{  c #CB90979E5946",
"}  c #D95FA1DF5F47",
"|  c #D9E2A24C5F97",
" . c #DA96A2C75FCE",
".. c #D60DA0D760FC",
"X. c #DAF9A3115FFB",
"o. c #DB1DA32C600A",
"O. c #DBC6A3A96054",
"+. c #DCE0A47B60CF",
"@. c #DD42A4C460FA",
"#. c #DD9EA5096122",
"$. c #DE20A56A615B",
"%. c #DEB1A5D6619B",
"&. c #DF5BA65561E6",
"*. c #E3A6A98663C7",
"=. c #E4F9AA83645B",
"-. c #E695ABBB651D",
";. c #E73DAC326558",
":. c #E819ACD765BA",
">. c #E915AD906624",
",. c #E9B4AE036662",
"<. c #EA50AE8066B9",
"1. c #EAAFAEC466DC",
"2. c #EAE4AEEB66F4",
"3. c #EB65AF4B672C",
"4. c #EBEBAFAF6767",
"5. c #EC85B02667A3",
"6. c #ECE5B06967D4",
"7. c #ED41B0AF6805",
"8. c #EDA5B0F9682A",
"9. c #EE00B13C6851",
"0. c #EF30B21E68D6",
"q. c #EF66B24668EE",
"w. c #F023B2D36940",
"e. c #F07EB3176968",
"r. c #F281B5216B7A",
"t. c #F363B5C96BDC",
"y. c #F419B5CE6B0D",
"u. c #F6C5B7C26C25",
"i. c #F513B7C16E2D",
"p. c #F7C2B87E6C94",
"a. c #F8B8B9506D36",
"s. c #F9D1BA086D7E",
"d. c #FA52BAC06E77",
"f. c #FA1DBADF6EFB",
"g. c #FBA9BB806E82",
"h. c #FAA1BB416F35",
"j. c #FCEDBC596EDB",
"k. c #FD0EBC916F2F",
"l. c #FFFFBFD67147",
"z. c #FFFFBFA67214",
"x. c #FFFFC11971A6",
"c. c #FFFFC3D67344",
"v. c #FFFFC4A273BC",
"b. c #8A118B618CF4",
"n. c #8A4F8B8F8D0F",
"m. c #8CE78F1491B0",
"M. c #8D538F6591E0",
"N. c #99FC994F9882",
"B. c #AFCFB066B11C",
"V. c #B062B0F9B1AF",
"C. c #B553B570B594",
"Z. c #B631B63FB651",
"A. c #B6DBB6ECB701",
"S. c #C028C038C04B",
"D. c #C123C104C0DF",
"F. c #C1C3C196C160",
"G. c #C3BBC38EC357",
"H. c #C629C5FDC5C8",
"J. c #C6B3C69CC681",
"K. c #C7BEC76DC70D",
"L. c #C81AC7BBC749",
"P. c #CFFDCF7DCEE5",
"I. c #D00DCFC5CF6D",
"U. c #D28AD20BD172",
"Y. c #D3FCD2C6D152",
"T. c #D337D2F2D29E",
"R. c #D357D312D2BE",
"E. c #D7CFD68FD50F",
"W. c #DE0FDD96DD06",
"Q. c #DE8BDDA1DC87",
"!. c #FD42FD43FD45",
"~. c #FFF9FFF9FFF9",
/* pixels */
"4.4.4.4.4.4.4.4.4.4.4.4.4.4.4.4.4.4.4.4.4.4.4.4.4.4.4.4.4.4.",
"4.4.4.4.4.4.5.0.0.0.6.4.5.0.0.6.0.4.4.5.0.0.0.0.4.4.4.4.4.4.",
"4.4.4.4.4.4.=.&.&.&.*.4.4.&.&.&.&.4.5.=.X.&.&.=.0.5.4.4.4.4.",
"4.4.4.4.4.g.H   e   ! x.| a 6 2 a X.x.H   t   H g.=.4.4.4.4.",
"4.4.4.4.:.j.D   -   D y.{ 2     2 { y.C   ;   A g.:.4.4.4.4.",
"4.4.4.4.:.j.D   ,   2 e w & & & - w e 2 & :   G g.:.4.4.4.4.",
"4.4.4.4.:.j.G                             & & G j.=.4.4.4.4.",
"4.4.4.4.:.z.V R E.F.J.L.J.J.J.J.J.L.L.J.S.E.R V z.4.4.4.4.4.",
"0.,.0.,.:.g.~ u V.E.F.S.F.F.F.F.A.J.F.A.Q.V.i ^ g.:.4.4.4.4.",
",.7.,.0.4.:.i./ &   j l l j l k l j z j   & ^ i.4.4.4.4.4.4.",
",.0.,.,.4.,.4.z...p E ~.!.~.~.~.~.~.~.E p ..g.4.4.4.4.4.4.4.",
"0.,.0.,.0.,.7.=.z.` 4 U P P P P P P U 4 [ z.*.5.4.4.4.4.4.4.",
",.0.,.7.0.,.7.,.i.'                     ` y.=.4.4.4.4.4.4.4.",
"7.,.0.,.,.7.,.,.p.'   :   - & & & & -   ( p.4.4.4.4.4.4.4.4.",
"7.,.,.,.0.,.,.4.g.)                     ` p.4.4.4.4.4.4.4.4.",
",.0.,.0.,.7.,.,.p.)   -   & & & & - -   ' p.=.4.4.4.4.4.4.4.",
"0.,.,.,.0.,.7.4.y.`                     ` i.4.4.4.4.4.4.4.4.",
"0.,.0.,.,.0.,.=.g.[ 3 L n n n n n n L 3 [ g.=.4.4.4.4.4.4.4.",
",.7.,.7.0.,.,.e.i.g W ~.~.~.~.~.~.~.~.W g i.0.4.4.4.4.4.4.4.",
"0.,.0.,.,.,.0.7.g   c v z z z z z z v z   f 5.5.4.4.4.4.4.4.",
",.7.7.7.7.4.p.N R T.Z.Z.Z.Z.Z.Z.Z.Z.Z.Z.Y.Y B l.4.4.4.4.4.4.",
"7.7.,.,.,.:.t.s M.Q.P.T.T.T.T.T.T.T.T.I.Q.M.d t.*.4.4.4.4.4.",
",.7.,.7.,.z.v.h   &                         M v.g.4.4.4.4.4.",
",.7.,.7.*.K J 8 n.T.F.J.J.J.J.J.J.J.J.G.T.b.7 J Q *.5.4.4.4.",
"7.7.,.w.X.<     N.W.I.T.T.T.T.T.T.T.T.P.W.N.    9 &.0.4.4.4.",
"7.,.,.w.X.5                                     9 &.6.4.4.4.",
"7.,.7.w.X.t , 5 < 5 9 9 < 9 5 5 9 9 9 9 6 2 2 : t &.0.4.4.4.",
"7.7.,.7.,.X.X.X.X.| X.X.| X.X.| | | | | | | | | | 4.5.4.4.4.",
",.7.7.7.,.w.t.0.0.e.0.0.0.0.0.0.0.e.0.0.0.0.0.0.e.5.4.4.4.4.",
"7.,.,.7.7.,.,.,.4.4.4.4.4.4.4.4.4.4.4.4.4.4.4.4.4.4.4.4.4.4."
};
