/* XPM */
static char *rdl__[] = {
/* columns rows colors chars-per-pixel */
"36 36 193 2",
"   c #000300030002",
".  c #011100CD0071",
"X  c #006200C70136",
"o  c #0165010A009D",
"O  c #024200400000",
"+  c #01F8017700DD",
"@  c #02E20229014B",
"#  c #00000000019D",
"$  c #01B1020E027E",
"%  c #03270323031F",
"&  c #03DC01710000",
"*  c #043501C50000",
"=  c #050102ED00BD",
"-  c #03DA02DF01B0",
";  c #04CE0395021B",
":  c #03EF03B70374",
">  c #06E605230306",
",  c #0000019D03BE",
"<  c #0163028E03F5",
"1  c #0256038804F7",
"2  c #0437042C0420",
"3  c #05E20529044B",
"4  c #06F9063E055E",
"5  c #089905250106",
"6  c #0B7D095A06CA",
"7  c #0BDC09A106F4",
"8  c #0EB30AF20671",
"9  c #0EE90B1A0689",
"0  c #02DC065B0A8E",
"q  c #07400A0F0DAD",
"w  c #07C80A950E2B",
"e  c #11830D0A07AD",
"r  c #0F900C630893",
"t  c #11AA0D2807BE",
"y  c #15360FCB094C",
"u  c #17C511B30A6B",
"i  c #1DFD147208FF",
"p  c #1EF9152E096D",
"a  c #1941139B0CD2",
"s  c #08E70C60108B",
"d  c #111010E410AD",
"f  c #135F12731157",
"g  c #15F215B91573",
"h  c #164E161615D2",
"j  c #1754171816D1",
"k  c #17A517731736",
"l  c #11D1149017DC",
"z  c #12851516182A",
"x  c #1974193718ED",
"c  c #1CCA1BE21ACC",
"v  c #1D441DBF1E51",
"b  c #378C29CD1950",
"n  c #381B2A38198E",
"m  c #3BB72B811808",
"M  c #3BD62B9F1826",
"N  c #21EE217B20F4",
"B  c #33B233A53396",
"V  c #348C34793462",
"C  c #3860385D385A",
"Z  c #4131308C1C93",
"A  c #433D32121D79",
"S  c #5B3043E827F7",
"D  c #5E0546042935",
"F  c #5F1E46D529B0",
"G  c #628D49642B32",
"H  c #68DE4D3A2C5B",
"J  c #68ED4D482C63",
"K  c #40A140954087",
"L  c #40D940C740B1",
"P  c #4178413E40F8",
"I  c #41C341A2417A",
"U  c #421F41C6415A",
"Y  c #46E2467F4609",
"T  c #47D24779470D",
"R  c #5D3A5D885DE8",
"E  c #6AAD6B666C44",
"W  c #6B256BC06C7A",
"Q  c #719571537103",
"!  c #7266722871DD",
"~  c #72A172707234",
"^  c #7B8C7AD579FE",
"/  c #7C447B8E7AB8",
"(  c #861563DA3AC4",
")  c #87E165303B8F",
"_  c #8C3767133A80",
"`  c #89C3669D3C70",
"'  c #8A1A66D73C87",
"]  c #8C7068943D8E",
"[  c #8D0069003DCD",
"{  c #900E6B463F24",
"}  c #90656B883F4A",
"|  c #91246C163F9E",
" . c #95E86EA23F81",
".. c #988D6FDC3F07",
"X. c #939B6DEB40B2",
"o. c #94826E974117",
"O. c #9C2072864099",
"+. c #9FBD76B64579",
"@. c #A0E077C54673",
"#. c #A1D1788146ED",
"$. c #A3B479D24790",
"%. c #A5077AC94817",
"&. c #A5817B4D48A9",
"*. c #A71B7E084CBC",
"=. c #A9197DD149DF",
"-. c #AFF782BD4C88",
";. c #B20F84484D6E",
":. c #B40D85974DD6",
">. c #B47B86094E4E",
",. c #B5AC86D64EA3",
"<. c #B5F487674F89",
"1. c #B68B87EE4FFE",
"2. c #B76C88985065",
"3. c #B77789DC5322",
"4. c #B88E8AAC539C",
"5. c #C38291E15654",
"6. c #C66294065797",
"7. c #C71D94475745",
"8. c #D7D4A0B85E99",
"9. c #DA52A2945FB0",
"0. c #DA82A2B85FC6",
"q. c #DB65A3616029",
"w. c #DD22A4AC60EC",
"e. c #DDE5A53E6141",
"r. c #DED5A5F161AB",
"t. c #E0CFA7696289",
"y. c #E121A7E46334",
"u. c #E4D8AA6B644D",
"i. c #E5C9AB1D64B6",
"p. c #E5E9AB3664C5",
"a. c #E82BACE465C2",
"s. c #E875AD1B65E2",
"d. c #E885AD2765EA",
"f. c #E8F4AD79661A",
"g. c #E99AADF66663",
"h. c #EA2EAE6566A8",
"j. c #EA7CAE9E66C7",
"k. c #EB06AF046701",
"l. c #EBEDAFB06768",
"z. c #EC73B01467A3",
"x. c #ECEFB07167D9",
"c. c #ED1EB09367ED",
"v. c #ED99B0EF6823",
"b. c #EEC1B1CB68A5",
"n. c #EFE0B2A0691F",
"m. c #F26DB4886A41",
"M. c #F40CB5CA6B13",
"N. c #F47FB61F6B46",
"B. c #F4FDB6A16BC1",
"V. c #F586B6D66B9D",
"C. c #F73BB81B6C5D",
"Z. c #F767B8446C80",
"A. c #F7CDB88C6CA5",
"S. c #F838B8FD6D1D",
"D. c #F922B9996D57",
"F. c #FA40BA5C6DB1",
"G. c #FB4CBB236E24",
"H. c #FB72BB406E35",
"J. c #FBD9BB8B6E62",
"K. c #FBBCBBE06F3E",
"L. c #FC8FBC146EB2",
"P. c #FCEEBC5A6EDB",
"I. c #FCDDBC626F02",
"U. c #FF25BE537089",
"Y. c #FFFFC0297125",
"T. c #FFFFC086715B",
"R. c #FFFFC1E772A4",
"E. c #FFFFC40B73C2",
"W. c #830D83208337",
"Q. c #849F83E9830E",
"!. c #84C1840C8331",
"~. c #86F985B3842B",
"^. c #861285AC8533",
"/. c #866D8608858F",
"(. c #875186ED8676",
"). c #9E919EBD9EF2",
"_. c #A285A299A2B1",
"`. c #B02EB006AFD6",
"'. c #B0F8AFD9AE7F",
"]. c #B0A0B07AB04C",
"[. c #B1A3B184B15F",
"{. c #B6C2B630B580",
"}. c #B6B5B63BB5A6",
"|. c #BA38B9EBB98C",
" X c #BABBBA6FBA12",
".X c #BC03BBBEBB6A",
"XX c #D57DD478D336",
"oX c #D80BD714D5E1",
"OX c #FBCBFAA8F94B",
"+X c #FB39FADEFA71",
"@X c #FDF4FDF4FDF3",
"#X c #FF24FF23FF23",
"$X c #FFFBFFFBFFFB",
/* pixels */
"l.l.l.l.l.l.l.l.l.l.l.l.l.l.l.l.l.l.l.l.l.l.l.l.l.l.l.l.l.l.l.l.l.l.l.l.",
"l.l.l.l.l.l.l.l.a.l.a.a.l.l.l.l.a.a.a.a.l.z.l.l.l.u.u.l.l.l.l.l.l.l.l.l.",
"l.l.l.l.l.l.l.b.F.F.F.F.B.l.l.m.I.F.F.I.m.l.l.m.F.F.F.I.b.l.l.l.l.l.l.l.",
"l.l.l.l.l.l.b.8.X.o.o.] 1.b.b.6.[ o.o.[ 7.b.b.<.[ o.o.| 8.b.l.l.l.l.l.l.",
"l.l.l.l.l.a.C.<.o o o o G F.F.[ o - - o [ F.F.F o - o o <.Z.l.l.l.l.l.l.",
"l.l.l.l.l.l.C.2.o : 5 o F l.b.) o 4 : o ( z.l.S o : - o 2.C.a.l.l.l.l.l.",
"l.l.l.l.l.a.C.<.o o 1 o 7 a a r o o 1 o r a a 6 o 4 o o 1.C.l.l.l.l.l.l.",
"l.l.l.l.l.l.C.1.o o o o o o o o o o o o o o o o o o o o 1.V.a.l.l.l.l.l.",
"l.l.l.l.l.l.C.<.1 Y L L L U U L L L L L L U U L K L Y 1 <.Z.l.l.l.l.l.l.",
"l.l.l.l.l.a.C.;.1 oX@X@X@X@X@X@X@X@X@X@X@X@X@X@X@X@XXXo ;.Z.a.l.l.l.l.l.",
"l.l.l.l.l.l.b.r.m q / !.~ ~ ~ ~ ~ ~ ~ ~ ~ ~ ~ ~ ^.^ q m r.x.l.l.l.l.l.l.",
"l.l.l.l.l.l.l.b.B.H o o V C V V V V V V V V C V o o H B.m.l.l.l.l.l.l.l.",
"l.l.l.l.l.l.l.l.l.U.*.5 R @X@X@X@X@X@X@X@X@X@XR : *.U.l.l.l.l.l.l.l.l.l.",
"l.l.l.l.l.l.l.l.l.u.E.o.0 (.^.^.(.^.^.(.^.^.(.0  .E.u.l.l.l.l.l.l.l.l.l.",
"l.l.l.l.l.l.l.l.l.a.Z.$.o o o o o o o o o o o o $.V.l.l.l.l.l.l.l.l.l.l.",
"l.l.l.l.l.l.l.l.l.a.F.@.o 4 4 o 1 4 1 4 - 4 4 o #.F.u.l.l.l.l.l.l.l.l.l.",
"l.l.l.l.l.l.l.l.l.a.F.#.o o o o o o o o o o o o @.F.u.l.l.l.l.l.l.l.l.l.",
"l.l.l.l.l.l.l.l.l.a.F.#.o o o o o o o o o o o o #.F.l.l.l.l.l.l.l.l.l.l.",
"l.l.l.l.l.l.l.l.l.l.F.#.o o o o o o o o o o o o #.F.a.l.l.l.l.l.l.l.l.l.",
"l.l.l.l.l.l.l.l.l.u.F.+.o 4 1 o o o 1 o 1 o 4 o @.F.a.l.l.l.l.l.l.l.l.l.",
"l.l.l.l.l.l.l.l.l.l.C.%.o o o o o o o o o o o o %.C.a.l.l.l.l.l.l.l.l.l.",
"l.l.l.l.l.l.l.l.z.u.E._ s ].[.`.].].[.[.`.[.'.s _ E.u.l.l.l.l.l.l.l.l.l.",
"l.l.l.l.l.l.l.l.u.L.2.- W.@X@X@X@X@X@X@X@X@X@XW.- 4.F.l.z.l.l.l.l.l.l.l.",
"l.l.l.l.l.l.l.l.F.-.- o N x j k j j j j j j j N o - ;.Z.l.l.l.l.l.l.l.l.",
"l.l.l.l.l.l.l.m.5.o W {.)._._._._._._._._._._.).{.E - 6.m.l.l.l.l.l.l.l.",
"l.l.l.l.l.l.l.F. .l OX@X@X@X@X@X@X@X@X@X@X@X@X@X@XOXz O.F.l.l.l.l.l.l.l.",
"l.l.l.l.l.l.u.F.+.o v x x x x x x x x x x x x x x c o #.F.u.l.l.l.l.l.l.",
"l.l.l.l.l.b.b.U.$.o f f f f f d f f d f f f f f f f o =.U.b.l.l.l.l.l.l.",
"l.l.l.l.b.r.A b i v OX@X@X@X@X@X@X@X@X@X@X@X@X@X@XOXv p b A r.b.a.l.l.l.",
"l.l.l.l.b.q.8 o o k {.|.|.|.|.|.|.|.|..X|.|..X|..X{.k o o e r.b.l.l.l.l.",
"l.l.l.l.b.q.t o : o o o o o o o o o o o o o o o o o o : o y r.b.l.l.l.l.",
"l.l.l.l.m.q.8 o o o o o o o o o o o o o o o o o o o o o o e r.b.l.l.l.l.",
"l.l.l.l.b.u.[ ` ` ` ` ` ` ` ` ` ` ` ` ` ` ` ` ` ` ` ` ` ) X.u.b.l.l.l.l.",
"l.l.l.l.l.l.F.I.L.L.F.F.I.I.L.I.L.L.L.L.L.L.L.L.L.L.L.L.F.F.l.l.l.l.l.l.",
"l.l.l.l.l.l.a.u.a.a.a.l.a.a.l.u.u.a.l.a.a.a.l.u.a.u.a.l.a.l.l.l.l.l.l.l.",
"l.l.l.l.l.l.l.l.l.l.l.l.l.l.l.l.l.l.l.l.l.l.l.l.l.l.l.l.l.l.l.l.l.l.l.l."
};
