/* XPM */
static char *rdl__[] = {
/* columns rows colors chars-per-pixel */
"35 35 200 2",
"   c #000200020001",
".  c #00A7007C0049",
"X  c #01E5016900D5",
"o  c #023801A700F9",
"O  c #035902750163",
"+  c #036F028B017B",
"@  c #0252024E024B",
"#  c #034803460345",
"$  c #03E102E601B9",
"%  c #077903B40000",
"&  c #05690407025F",
"*  c #03A803970382",
"=  c #0569043C02D3",
"-  c #05AE04390279",
";  c #05AF046002CD",
":  c #07640580033D",
">  c #00000180054D",
",  c #0000021205EA",
"<  c #0416041C0422",
"1  c #0605051A0403",
"2  c #070D06250510",
"3  c #081D042F0000",
"4  c #091803960000",
"5  c #07B605BE0360",
"6  c #084F063103A6",
"7  c #0824072F0608",
"8  c #0C6608AF043A",
"9  c #0CED08F70436",
"0  c #0DC609B504D4",
"q  c #025E06710B54",
"w  c #1EB91331055A",
"e  c #075F0BB310E5",
"r  c #09020D8212E8",
"t  c #0EC312CC17A3",
"y  c #11D911DB11D1",
"u  c #1378140514A7",
"i  c #16881A041E33",
"p  c #208714890625",
"a  c #27001D0A1117",
"s  c #2B8120651311",
"d  c #184F1BF9205E",
"f  c #18DB1C6A20AF",
"g  c #25AF25722528",
"h  c #2668262F25EA",
"j  c #2997297F2961",
"k  c #2A1129C32967",
"l  c #2AC22A732A15",
"z  c #318830402EB7",
"x  c #38B138753828",
"c  c #38E638AF3864",
"v  c #3A153954386B",
"b  c #3C813DB23F20",
"n  c #3CDA3DF43F47",
"m  c #59853EEB1EFE",
"M  c #4FBB3A3920D6",
"N  c #4FFB3A782112",
"B  c #54DE3DEF2269",
"V  c #55593F952576",
"C  c #560740002593",
"Z  c #5640403E25D5",
"A  c #5DA141FA20CB",
"S  c #58A741452537",
"D  c #610246732693",
"F  c #623949252B0D",
"G  c #631D49CF2B71",
"H  c #6500496C2853",
"J  c #6FC753453102",
"K  c #703B53933131",
"L  c #710E5431318E",
"P  c #70C454CE3340",
"I  c #70EA54EA3350",
"U  c #72B155853284",
"Y  c #72E055B632B7",
"T  c #73A2561B32AF",
"R  c #7434568932EF",
"E  c #76EA588D341F",
"W  c #771B58B13434",
"Q  c #777558F5345C",
"!  c #7EBC5C54330C",
"~  c #7F0D5CAB3368",
"^  c #7C775CAF368D",
"/  c #7D7A5D7036FF",
"(  c #3F0B42C14736",
")  c #3F3B42E6474C",
"_  c #40C640E24104",
"`  c #427D427F4282",
"'  c #44D144A74474",
"]  c #45F345C84594",
"[  c #48C64A484C18",
"{  c #48D64A544C1F",
"}  c #4E9D4D7E4C27",
"|  c #53C1535C52E3",
" . c #59055859578D",
".. c #5C685C135BAC",
"X. c #5E6D5E195DB3",
"o. c #6B2769E66864",
"O. c #6B3069EC6868",
"+. c #6A606A2169D6",
"@. c #6A916A506A01",
"#. c #7127708C6FD3",
"$. c #7D797D6F7D64",
"%. c #7FB37FA07F89",
"&. c #847D61453704",
"*. c #85FA63C53AB8",
"=. c #864563B13A50",
"-. c #86B364473AFA",
";. c #885665873BC2",
":. c #8F936AEA3EEE",
">. c #8F966AED3EEF",
",. c #929C6D2D4042",
"<. c #959E6F6B4194",
"1. c #800C7FE17FAD",
"2. c #B35B85904E9D",
"3. c #B76C88975065",
"4. c #BBB38BC65245",
"5. c #BDA98D455332",
"6. c #BFD08EE8543C",
"7. c #BF5B90185763",
"8. c #C1588FFC54BE",
"9. c #C1168FE554E9",
"0. c #C3539174559C",
"q. c #C56292FD5683",
"w. c #C58093135690",
"e. c #C487937D58A4",
"r. c #C52D93F858ED",
"t. c #CCEA989859D0",
"y. c #CEA099DE5A90",
"u. c #CF479A5B5AD9",
"i. c #CFBD9AB35B0D",
"p. c #D2359C895C22",
"a. c #D4199DF25CF6",
"s. c #D48B9E475D28",
"d. c #D6429F8E5DE9",
"f. c #E460AA116419",
"g. c #E43FAA326476",
"h. c #E465AA14641B",
"j. c #E4DFAA706450",
"k. c #E599AAFA64A2",
"l. c #E74DAC3E655E",
"z. c #E818ACD665BA",
"x. c #E889AD2A65EB",
"c. c #E8CAAD586604",
"v. c #E9C4AE156675",
"b. c #EA19AE53669A",
"n. c #EAB0AEC566DE",
"m. c #EB10AF0C6708",
"M. c #EB40AF30671C",
"N. c #EBEDAFB16768",
"B. c #ED60B0BF6803",
"V. c #EF13B20068B7",
"C. c #EFD0B295691C",
"Z. c #F072B30E6963",
"A. c #F106B37C69A4",
"S. c #F196B3E869E3",
"D. c #F34EB52F6AA4",
"F. c #F3C7B58C6ADE",
"G. c #F400B5B66AF7",
"H. c #F547B6A76B81",
"J. c #F594B6E16BA3",
"K. c #F611B73E6BDA",
"L. c #F8B3B9336CFF",
"P. c #F908B96E6D1E",
"I. c #FA02BA2D6D94",
"U. c #FA23BAAB6E83",
"Y. c #FB1CBB076E20",
"T. c #FC63BBF26E9F",
"R. c #FCAFBC2C6EC2",
"E. c #FCE5BC546ED8",
"W. c #FD22BC8C6F09",
"Q. c #FDD2BD046F3F",
"!. c #FE58BD686F7A",
"~. c #FE0FBD9B7042",
"^. c #FF0CBE2A704E",
"/. c #FFFFBF7870B2",
"(. c #FFFFBFEE70F7",
"). c #FFFFBFA9722C",
"_. c #FFFFC186725D",
"`. c #FFFFC30B7313",
"'. c #FFFFC99A76A9",
"]. c #840A83C7837A",
"[. c #84AD853B85E5",
"{. c #8F918F998FA2",
"}. c #90579060906B",
"|. c #93C292B1916A",
" X c #92F89307931A",
".X c #949C93919251",
"XX c #A0FEA181A21E",
"oX c #DA93DA65DA2C",
"OX c #DDB6DD84DD47",
"+X c #DFB7DE67DCD4",
"@X c #E06DDF2BDDA8",
"#X c #E46CE438E3F9",
"$X c #E7B3E77BE738",
"%X c #ED7AECCEEBFD",
"&X c #F671F62AF5D5",
"*X c #FC2AFC2BFC2C",
"=X c #FCC4FCC3FCC2",
"-X c #FD68FD76FD87",
";X c #FE5EFE5FFE60",
":X c #FFFDFFFDFFFD",
/* pixels */
"N.N.N.N.N.N.N.N.N.N.N.N.N.N.N.N.N.N.N.N.N.N.N.N.N.N.N.N.N.N.N.N.N.N.N.",
"N.N.N.N.N.N.N.N.l.N.l.l.N.N.N.l.l.l.l.l.N.N.N.k.l.l.l.N.N.N.N.N.N.N.N.",
"N.N.N.N.N.N.N.S.W.W.W.W.V.N.N.T.W.R.W.T.N.N.D.W.R.W.W.D.N.N.N.N.N.N.N.",
"N.N.N.N.N.N.D.4.R ^ ^ Q u.V.N.:.Q ^ E :.N.V.u.Q ^ ^ R 4.D.N.N.N.N.N.N.",
"N.N.N.N.N.l.R.*.. $ . . 3.`.H.s . $ . s D.~.2.. . $ . *.T.l.N.N.N.N.N.",
"N.N.N.N.N.l.T.;.. & & . <.u.r.a . & . a q.p.>.. & & . ;.T.l.N.N.N.N.N.",
"N.N.N.N.N.l.R.-.. 7 > 1 # & , , 1 1 > 1 , 1 1 , 1 7 . *.T.k.N.N.N.N.N.",
"N.N.N.N.N.l.R.-.. $ . . . . > q . . . . . . . . . $ . -.T.N.N.N.N.N.N.",
"N.N.N.N.N.l.~.! d .X$.1.].$.2.$.$.].$.].$.].].$.$.}.i ! W.N.N.N.N.N.N.",
"N.N.N.N.N.l.W.&.r +X;X;X;X;X&X*X;X;X;X;X;X;X;X;X;X@Xe *.W.l.N.N.N.N.N.",
"N.N.N.N.N.N.V.g.M > v v l h h h h h h h h h l v v > N g.N.N.N.N.N.N.N.",
"N.N.N.N.N.N.N.V.~.-.. y [.}.}.}.}.}.}.}.}.}.].y . -.~.V.N.N.N.N.N.N.N.",
"N.N.N.N.N.N.N.N.l.~.6.4 [.;X*X;X;X;X;X;X;X;X[.4 7.W.l.N.N.N.N.N.N.N.N.",
"N.N.N.N.N.N.N.N.N.l.`.C q z l l l l l l l z q S `.f.N.N.N.N.N.N.N.N.N.",
"N.N.N.N.N.N.N.N.N.l.T.V . . . . . . . . . . . V L.l.N.N.N.N.N.N.N.N.N.",
"N.N.N.N.N.N.N.N.N.l.T.V . 1 > & . . & > . 1 . V T.N.N.N.N.N.N.N.N.N.N.",
"N.N.N.N.N.N.N.N.N.l.T.V . $ . . . . . . . & . C T.l.N.N.N.N.N.N.N.N.N.",
"N.N.N.N.N.N.N.N.N.l.T.V . . . . . . . . . . . C T.l.N.N.N.N.N.N.N.N.N.",
"N.N.N.N.N.N.N.N.N.l.T.V . 1 , & 1 . > & & 1 . C T.N.N.N.N.N.N.N.N.N.N.",
"N.N.N.N.N.N.N.N.N.l.T.C . $ . . . . . . . . . V L.l.N.N.N.N.N.N.N.N.N.",
"N.N.N.N.N.N.N.N.N.l.`.B t } ] ] ] ] ] ] ] } t B `.g.N.N.N.N.N.N.N.N.N.",
"N.N.N.N.N.N.N.N.l.T.e.8 XX;X=X;X;X;X;X;X;X;XXX8 e.T.l.B.N.N.N.N.N.N.N.",
"N.N.N.N.N.N.N.N.T.6.$ u #.@.@.@.@.@.@.@.@.@.#.u 4 9.T.l.N.N.N.N.N.N.N.",
"N.N.N.N.N.N.N.F.4.9 n  .` ` ` ` ' ` ` ` ` ` `  .n 8 6.D.l.N.N.N.N.N.N.",
"N.N.N.N.N.N.l.~.m ( ;X;X;X;X;X;X;X;X;X;X;X;X;X;X;X) A ~.l.N.N.N.N.N.N.",
"N.N.N.N.N.N.f.T.D d @...X.X.X.X.X.X.X.X.X.X.X...@.d H T.l.N.N.N.N.N.N.",
"N.N.N.N.N.V.H.'.K . $ . . . . . . . . . . . . . & . R '.L.V.N.N.N.N.N.",
"N.N.N.z.S.p.H P p { %XoX+X+X+XOX+X+XOXOX+X+X+XoX%X{ p P G p.V.N.N.N.N.",
"N.N.N.N.H.6.. > . | &X#X$X$X$X$X$X#X$X$X$X$X$X#X&X| . 1 . 9.H.N.N.N.N.",
"N.N.N.z.H.6.$ 7 & $ & & & & & & 1 1 1 1 & & & & 1 . 1 4 & 0.H.l.N.N.N.",
"N.N.N.N.F.6.. . . . . . . . . . . . . . . . . . . . . . . 9.H.N.N.N.N.",
"N.N.N.N.S.d.K P P R P P R P P R P R P P P R P R P P P P K d.V.N.N.N.N.",
"N.N.N.N.N.N.R.R.R.R.R.R.R.R.R.R.R.R.R.R.R.R.R.R.R.R.R.R.R.V.N.N.N.N.N.",
"N.N.N.N.N.N.k.N.N.k.z.k.N.k.k.N.z.z.N.k.k.N.k.N.N.k.k.N.k.N.N.N.N.N.N.",
"N.N.N.N.N.N.N.N.N.N.N.N.N.N.N.N.N.N.N.N.N.N.N.N.N.N.N.N.N.N.N.N.N.N.N."
};
