/* XPM */
static char *rdl__[] = {
/* columns rows colors chars-per-pixel */
"45 45 204 2",
"   c #000200020001",
".  c #00F300B5006B",
"X  c #00E700D700C3",
"o  c #0195012E00B2",
"O  c #024501B90111",
"+  c #02AB020F0152",
"@  c #01D401CF01CA",
"#  c #0322028201C1",
"$  c #036C02C001F1",
"%  c #04F702EA0077",
"&  c #03CE02DB01B7",
"*  c #0613048602A9",
"=  c #06E105200304",
"-  c #002601E1040B",
";  c #03D803D703D6",
":  c #06C105D604BE",
">  c #063B05FD05B1",
",  c #07D405D5036E",
"<  c #09C0089C073D",
"1  c #093F0AEC0CEE",
"2  c #0B6A0BC60C35",
"3  c #0C0D0C6B0CDB",
"4  c #147E146E145B",
"5  c #151014DB149B",
"6  c #17A5170A1650",
"7  c #183017D31763",
"8  c #19A41965191A",
"9  c #19FF19C11976",
"0  c #1B071AD21A91",
"q  c #1BAE1B5E1B00",
"w  c #1E401E2D1E17",
"e  c #209318420E47",
"r  c #232A1A2F0F69",
"t  c #25821C32112A",
"y  c #2D5B20DD11E1",
"u  c #3176246914C0",
"i  c #3109249715A7",
"p  c #333C2639169D",
"a  c #34E226F61640",
"s  c #3478271316FF",
"d  c #34B62819190A",
"f  c #35F82909199A",
"g  c #3A0E2B3C1972",
"h  c #3A042C2E1B93",
"j  c #3E792E861B61",
"k  c #3B272D061C12",
"l  c #3F1D2F001BA9",
"z  c #225E221921C6",
"x  c #22E822A2224E",
"c  c #25C7255E24E0",
"v  c #2A2229E12992",
"b  c #2D1A2C652B8B",
"n  c #2D042CA42C31",
"m  c #2DB92D582CE3",
"M  c #2E662DB02CD7",
"N  c #2FFF2EE12D8B",
"B  c #30DD30772FFB",
"V  c #437D32421D95",
"C  c #46A134991EF6",
"Z  c #488B36061FCC",
"A  c #52F33EB3266B",
"S  c #64E34B1F2C2C",
"D  c #64EC4B262C30",
"F  c #68354D992DAC",
"G  c #706E53BA3147",
"H  c #7121543E3195",
"J  c #72ED5595325F",
"K  c #732F55C6327C",
"L  c #75585762336E",
"P  c #764C581833D9",
"I  c #7700589E3428",
"U  c #775358DB344C",
"Y  c #7823597634A7",
"T  c #78A559D834E1",
"R  c #78E15A0534FB",
"E  c #7B165BA935F3",
"W  c #7B8A5C003626",
"Q  c #7C455C8A3677",
"!  c #7D7A5D7136FF",
"~  c #7E915E403779",
"^  c #4D4B4D264CF8",
"/  c #4ED24E174D35",
"(  c #50904F474DBB",
")  c #500850024FFA",
"_  c #51AA51A651A2",
"`  c #51D251CE51CB",
"'  c #58BB58C658D3",
"]  c #5B565B195ACF",
"[  c #5C1D5BE05B97",
"{  c #5F9A5F5F5F19",
"}  c #663765DA6569",
"|  c #66C0663F65A5",
" . c #849F62C23A20",
".. c #855D63503A74",
"X. c #88B565CD3BEB",
"o. c #8E9B6A2E3E78",
"O. c #90356B643F35",
"+. c #957A6F504184",
"@. c #96126FDE4206",
"#. c #974870BD427F",
"$. c #97F471214284",
"%. c #99627239433A",
"&. c #9BB073F0443D",
"*. c #AAA37F124ACA",
"=. c #AAAC7F194ACE",
"-. c #AB777FB04B28",
";. c #AC27803F4B90",
":. c #AC8380774B9D",
">. c #ADAB81534C1E",
",. c #ACEB81604D20",
"<. c #AD3C81B64D7B",
"1. c #B06D83614D54",
"2. c #B36C859C4EA4",
"3. c #B629881050C0",
"4. c #817480427ED3",
"5. c #C1B9904354E8",
"6. c #C5C5934756AF",
"7. c #C6B894955867",
"8. c #C6E9951F5960",
"9. c #CACF97AA5A4B",
"0. c #CAD4980A5B17",
"q. c #CD3698F35A3D",
"w. c #CDA899255A23",
"e. c #D17E9C235C1D",
"r. c #E214A85C631A",
"t. c #E269A89B633C",
"y. c #E40BA9E66420",
"u. c #E5F3AB3D64CB",
"i. c #E4E5AAC9650A",
"p. c #E5F8AB83655D",
"a. c #E69EABBC6514",
"s. c #E749AC3E6563",
"d. c #E80DACCE65B5",
"f. c #E828AD22664E",
"g. c #E87AAD1F65E5",
"h. c #E884AD2665E9",
"j. c #E90AAD8B6624",
"k. c #E9D8AE24667E",
"l. c #E9FBAE3D668D",
"z. c #EAA2AEBB66D8",
"x. c #EB07AF056703",
"c. c #EBEDAFB16768",
"v. c #EDC2B10E6836",
"b. c #EDF3B132684B",
"n. c #F05BB2FD6959",
"m. c #F095B3286972",
"M. c #F115B38869AB",
"N. c #F174B3CE69D4",
"B. c #F1D2B4166A00",
"V. c #F211B4436A19",
"C. c #F29BB4A66A4E",
"Z. c #F3E8B5A26AE7",
"A. c #F42CB5D56B06",
"S. c #F49EB62A6B37",
"D. c #F4E0B65B6B55",
"F. c #F595B6E16BA4",
"G. c #F66BB7816C01",
"H. c #F6EAB7DC6C32",
"J. c #F84DB8E86CD5",
"K. c #F8A1B9266CF9",
"L. c #F8F7B9676D22",
"P. c #FABDBABA6DE9",
"I. c #FBE7BB976E6A",
"U. c #FCBDBC2F6EB8",
"Y. c #FCFEBC656EE2",
"T. c #FD1ABC7B6EEF",
"R. c #FDD6BD086F43",
"E. c #FE42BD586F71",
"W. c #FF57BE256FEB",
"Q. c #FEECBDEF6FF3",
"!. c #FFF4BEA8703C",
"~. c #FFFFC3C9733C",
"^. c #FFFFC4DF73DF",
"/. c #FFFFC9BB76BC",
"(. c #8D3F8D428D47",
"). c #8F7C8EA28D9D",
"_. c #90AB90B390BC",
"`. c #95CC95E295FC",
"'. c #970B968E95F8",
"]. c #973296AB9609",
"[. c #9A5F994B97FF",
"{. c #9B2F9AB79A27",
"}. c #9C899C0F9B7E",
"|. c #9F3F9EC69E35",
" X c #ABAFAB16AA5F",
".X c #B70DB5F0B49B",
"XX c #BC1CBA99B8FA",
"oX c #BC49BB51BA29",
"OX c #D83FD759D644",
"+X c #D930D84AD735",
"@X c #DB5CDAFDDA8D",
"#X c #DD35DCDADC6D",
"$X c #DE19DDDBDD91",
"%X c #E0BEE081E038",
"&X c #E569E51FE4BE",
"*X c #E824E738E61D",
"=X c #EC60EC2AEBE9",
"-X c #F60AF5F2F5D7",
";X c #F944F916F8E0",
":X c #F9B7F9A4F98B",
">X c #FC1AFC16FC13",
",X c #FE75FE71FE6C",
"<X c #FF34FF33FF31",
"1X c gray100",
/* pixels */
"c.c.c.c.c.c.c.c.c.c.c.c.c.c.c.c.c.c.c.c.c.c.c.c.c.c.c.c.c.c.c.c.c.c.c.c.c.c.c.c.c.c.c.c.c.",
"c.c.c.c.c.c.c.c.c.c.c.c.c.c.c.c.c.c.c.c.c.c.c.c.c.c.c.c.c.c.c.c.c.c.c.c.c.c.c.c.c.c.c.c.c.",
"c.c.c.c.c.c.c.c.c.c.a.c.a.c.a.c.c.c.c.d.d.c.d.d.a.c.c.c.c.c.a.d.d.d.a.c.c.c.c.c.c.c.c.c.c.",
"c.c.c.c.c.c.c.c.c.n.R.R.K.R.R.J.c.c.c.C.R.U.U.U.U.C.c.c.c.K.R.U.U.U.R.N.c.c.c.c.c.c.c.c.c.",
"c.c.c.c.c.c.c.c.C.w.T ~ ~ ~ I %.N.d.C.2.L ~ ~ ~ L 2.C.c.n.%.L ~ ~ ~ T w.N.c.c.c.c.c.c.c.c.",
"c.c.c.c.c.c.c.d.K.-.          V N.r.J.G   &   &   G J.t.n.g           -.K.d.c.c.c.c.c.c.c.",
"c.c.c.c.c.c.c.c.K.:.  , ; ,   Z ^.D./.~   , ; ,   ~ /.D.~.V   , ; ,   -.J.c.c.c.c.c.c.c.c.",
"c.c.c.c.c.c.c.a.K.:.          t ..~ X.j       &   j X.~ ..e           -.K.a.c.c.c.c.c.c.c.",
"c.c.c.c.c.c.c.a.J.-.        ;             ;                 ;   & ;   -.K.c.c.c.c.c.c.c.c.",
"c.c.c.c.c.c.c.c.K.-.  &                                               -.H.c.c.c.c.c.c.c.c.",
"c.c.c.c.c.c.c.d.K.:.  8 w w w w w w w w z w w w w w w w w w w w w 6   :.J.a.c.c.c.c.c.c.c.",
"c.c.c.c.c.c.c.a.K.,.  oX<X-X:X:X:X:X:X:X:X:X:X:X:X:X:X:X:X:X:X-X<X.X  ,.K.c.c.c.c.c.c.c.c.",
"c.c.c.c.c.c.c.c.J.3.  M +X<X<X<X<X<X<X<X<X<X<X<X<X<X<X<X<X<X<X<X+Xb   3.D.c.c.c.c.c.c.c.c.",
"c.c.c.c.c.c.c.c.c.N.@.& 3 N v 8 8 8 8 8 8 8 8 8 8 8 8 8 8 8 v N 3 & @.N.c.c.c.c.c.c.c.c.c.",
"c.c.c.c.c.c.c.c.c.c.K.7.t     / ' ` ` ` ` ` ` ` ` ` ` ` ' /     t 7.K.c.c.c.c.c.c.c.c.c.c.",
"c.c.c.c.c.c.c.c.c.c.d.H.c.A   / :X<X<X<X<X<X<X<X<X<X<X<X:X(   A d.H.a.c.c.c.c.c.c.c.c.c.c.",
"c.c.c.c.c.c.c.c.c.c.l.d.n.Q.D   XX&X@X$X$X$X#X$X$X$X#X&XXX  D Q.c.d.c.c.c.c.c.c.c.c.c.c.c.",
"c.c.c.c.c.c.c.c.c.c.n.c.a.K.$.  < ; , ; < , ; ; , ; > > <   %.K.a.c.c.c.c.c.c.c.c.c.c.c.c.",
"c.c.c.c.c.c.c.c.c.c.c.c.c.K.o.  ;                           +.K.c.c.c.c.c.c.c.c.c.c.c.c.c.",
"c.c.c.c.c.c.c.c.c.c.c.c.c.K.O.  ;               ;       ;   +.K.d.c.c.c.c.c.c.c.c.c.c.c.c.",
"c.c.c.c.c.c.c.c.c.c.c.c.d.K.+.  ;                       &   O.U.a.c.c.c.c.c.c.c.c.c.c.c.c.",
"c.c.c.c.c.c.c.c.c.c.c.c.d.R.o.  ;                       &   O.U.a.c.c.c.c.c.c.c.c.c.c.c.c.",
"c.c.c.c.c.c.c.c.c.c.c.c.a.K.o.  &                       &   O.K.c.c.c.c.c.c.c.c.c.c.c.c.c.",
"c.c.c.c.c.c.c.c.c.c.c.c.c.U.O.  &                       &   O.R.d.c.c.c.c.c.c.c.c.c.c.c.c.",
"c.c.c.c.c.c.c.c.n.l.l.v.d.K.o.  , ; ; ; ; ; ; ; ; ; ; ; ;   O.R.d.c.c.c.c.c.c.c.c.c.c.c.c.",
"c.c.c.c.c.c.c.c.l.v.v.l.d.Q.+.  ;                       ;   O.K.d.c.c.c.c.c.c.c.c.c.c.c.c.",
"c.c.c.c.c.c.c.c.v.l.v.l.a.Q.#.  ( } ' [ [ [ [ [ [ [ [ { (   %.R.a.c.c.c.c.c.c.c.c.c.c.c.c.",
"c.c.c.c.c.c.c.c.l.v.l.d.C.a.y 1 &X<X<X<X<X<X<X<X<X<X<X<X*X1 y a.N.a.c.c.c.c.c.c.c.c.c.c.c.",
"c.c.c.c.c.c.c.c.v.l.c.C.a.f   {.=X$X%X%X&X$X%X%X&X$X&X$X=X{.  f a.N.c.c.c.c.c.c.c.c.c.c.c.",
"c.c.c.c.c.c.c.c.l.d.C.r.i                                   &   s t.N.c.c.c.c.c.c.c.c.c.c.",
"c.c.c.c.c.c.c.c.l.n.d.i ; | '.(._._._._._._._._._._._._._.(.'.4.; s a.b.c.c.c.c.c.c.c.c.c.",
"c.c.c.c.c.c.c.c.c.H.7.  '.<X<X<X<X<X<X<X<X<X<X<X<X<X<X<X<X<X>X<X(.  9.C.a.c.c.c.c.c.c.c.c.",
"c.c.c.c.c.c.c.c.a.C.7.  |  X}.|.|.|.|.|.|.|.|.|.|.|.|.|.|.|.|. X|   9.C.c.c.c.c.c.c.c.c.c.",
"c.c.c.c.c.c.c.c.d.C.5.                                              6.C.a.c.c.c.c.c.c.c.c.",
"c.c.c.c.c.c.c.N.D.Q.w.  5 c z z x x z z x x x x x x x x z z z c 5   e.Q.D.N.c.c.c.c.c.c.c.",
"c.c.c.c.c.c.H.@.s C k   '.<X-X:X:X:X:X:X:X:X:X:X:X:X:X:X:X:X-X<X'.  k C s %.D.c.c.c.c.c.c.",
"c.c.c.c.c.a.R.K   ; ;   {.<X>X<X<X<X<X<X<X<X<X<X<X<X<X<X<X<X>X<X{.  ; &   T U.d.c.c.c.c.c.",
"c.c.c.c.c.a.U.I   ; &   w N M M M M M M M M M M M M M M M M M B q   & ,   T U.d.c.c.c.c.c.",
"c.c.c.c.c.d.K.I   , & ;                                           ; & ,   ~ U.d.c.c.c.c.c.",
"c.c.c.c.c.d.Q.K   &                                                   &   T R.d.c.c.c.c.c.",
"c.c.c.c.c.c.D.:.F L G K G G K G G K G G K G G K G G K G G K G G G K G K F ,.C.c.c.c.c.c.c.",
"c.c.c.c.c.c.c.C.R.U.U.U.U.U.U.U.U.U.U.U.U.U.U.U.U.U.U.U.U.U.U.U.U.U.U.U.R.C.c.c.c.c.c.c.c.",
"c.c.c.c.c.c.c.c.d.d.d.d.d.a.c.a.d.d.d.a.c.a.a.d.c.a.d.d.d.d.a.d.a.c.a.a.c.c.c.c.c.c.c.c.c.",
"c.c.c.c.c.c.c.c.c.c.c.c.c.c.c.c.c.c.c.c.c.c.c.c.c.c.c.c.c.c.c.c.c.c.c.c.c.c.c.c.c.c.c.c.c.",
"c.c.c.c.c.c.c.c.c.c.c.c.c.c.c.c.c.c.c.c.c.c.c.c.c.c.c.c.c.c.c.c.c.c.c.c.c.c.c.c.c.c.c.c.c."
};
