/* XPM */
static char *rld__[] = {
/* columns rows colors chars-per-pixel */
"32 32 214 2",
"   c #000000000023",
".  c #017600000000",
"X  c #0000000000A9",
"o  c #018400000000",
"O  c #05C5047602DD",
"+  c #0435047D04D4",
"@  c #0D2208C4036E",
"#  c #10E80AF703B8",
"$  c #17780EFC04A3",
"%  c #17980F1C04C2",
"&  c #10210F040DA6",
"*  c #18EC0FE204DC",
"=  c #1AC0116D0611",
"-  c #1EDD12D1041F",
";  c #1CE6124C05B7",
":  c #1DE113050619",
">  c #1F4313DF05FD",
",  c #0EFB0F711001",
"<  c #10A7113F11F7",
"1  c #121E11F811CA",
"2  c #12CB12A8127E",
"3  c #1332130E12E4",
"4  c #16C815481373",
"5  c #118B132F152F",
"6  c #13BD13D013E6",
"7  c #14E914B0146A",
"8  c #15B2157C153B",
"9  c #149915E5177B",
"0  c #15F315E615D7",
"q  c #16DA16B7168C",
"w  c #16E516C21698",
"e  c #1861163C139F",
"r  c #191216F81467",
"t  c #17D517A41769",
"y  c #1503171C19AB",
"u  c #165A18141A2F",
"i  c #189118691838",
"p  c #189B1872183F",
"a  c #19F919BB196F",
"s  c #1A4D1A1F19F3",
"d  c #1ABD1A671A00",
"f  c #236012E10000",
"g  c #23F7132D0000",
"h  c #206813B0042C",
"j  c #2110152806A1",
"k  c #250A177506E5",
"l  c #25F217E506C2",
"z  c #295817B80235",
"x  c #29DC184002C3",
"c  c #2B981EF60F8D",
"v  c #2C7C1F9B0FE5",
"b  c #37AB24070C10",
"n  c #3B0226720D59",
"m  c #395B25BD0DCC",
"M  c #3CC328330F1B",
"N  c #3025227711C7",
"B  c #3542264513FB",
"V  c #2774262E24A1",
"C  c #27E5269424F8",
"Z  c #27E627FF2829",
"A  c #294D289C27C4",
"S  c #296028AF27D6",
"D  c #29212BAF2ECF",
"F  c #29EC2C2E2EF0",
"G  c #2AC52CB82F19",
"H  c #2C302C092BD5",
"J  c #2CEE2CC62C91",
"K  c #308E30232FA1",
"L  c #315E30F1306D",
"P  c #31C731243058",
"I  c #366A35873470",
"U  c #3FF329210D47",
"Y  c #412029F00DA5",
"T  c #435E2BFC0F6F",
"R  c #4A64317D131A",
"E  c #58493FED2234",
"W  c #5B2B42032350",
"Q  c #64AF49082749",
"!  c #674A4AEA284A",
"~  c #68824BE72905",
"^  c #3D573F9F4268",
"/  c #3EBC40EE43AB",
"(  c #5C245DE7602E",
")  c #5DFF5FC76210",
"_  c #609A6086607B",
"`  c #617461616156",
"'  c #644D672B6ACF",
"]  c #659768806C31",
"[  c #67426C6472AA",
"{  c #89AA60752E2B",
"}  c #8CB162A52F55",
"|  c #8FE0652A310C",
" . c #92F46764323B",
".. c #96C66CC2397B",
"X. c #95EE6CE03AC4",
"o. c #99F16F0D3AB6",
"O. c #AC837BCD405B",
"+. c #AFB77E1D4197",
"@. c #AEEB7E9943A2",
"#. c #B11580294477",
"$. c #B7DB83B3440C",
"%. c #B6AC84294685",
"&. c #B8E484CC4538",
"*. c #BA1386484715",
"=. c #BC2A87F74845",
"-. c #BCF288C94921",
";. c #C2658C9D4AFA",
":. c #CC1E93A74EBF",
">. c #CA7E930B4F5F",
",. c #CC6F93DF4EDA",
"<. c #CF2495C34FBD",
"1. c #CBED94154FEF",
"2. c #CD4794EA5016",
"3. c #CE4B95A95082",
"4. c #CFE3964E5009",
"5. c #D05896A25033",
"6. c #D1EC97C150C4",
"7. c #D2CE98695127",
"8. c #D38498ED516E",
"9. c #D405994A519E",
"0. c #D470999951CA",
"q. c #D4AA99C651E8",
"w. c #D5409A38522F",
"e. c #D5CE9A95524F",
"r. c #D6E69B5B52B1",
"t. c #D7529BA652D5",
"y. c #D8909C965363",
"u. c #DA739DED5410",
"i. c #DBFC9F1454BE",
"p. c #DBF99F68557E",
"a. c #DD099FF25566",
"s. c #DC85A0085638",
"d. c #DD0FA02755D4",
"f. c #DD86A041557C",
"g. c #DCC5A026562D",
"h. c #DFF1A1DC5619",
"j. c #DEA5A1A35731",
"k. c #DF97A26257B2",
"l. c #DFB5A28557DB",
"z. c #E10BA2B05699",
"x. c #E143A2EE56DD",
"c. c #E1B4A3405709",
"v. c #E4BFA584585B",
"b. c #E607A66F58D4",
"n. c #E53EA6955A1D",
"m. c #E5D4A7025A59",
"M. c #E655A7605A8C",
"N. c #E6ABA7EE5B5E",
"B. c #E72FA84E5B92",
"V. c #E873A93A5C13",
"C. c #EC4CAC035D8F",
"Z. c #EF3EAE235EB0",
"A. c #FD2FB8FB65C0",
"S. c #FDAAB94D65E1",
"D. c #78397BCD802A",
"F. c #78C67C6180C9",
"G. c #79047CA58113",
"H. c #79E17DCE8297",
"J. c #793E7DC88353",
"K. c #7A277E1882E6",
"L. c #88D68BC78F5E",
"P. c #898F8CA89071",
"I. c #89F58E0D930E",
"U. c #8A098E20931E",
"Y. c #9E02A126A4FD",
"T. c #A1B1A173A127",
"R. c #A2D3A298A252",
"E. c #A7D7A7BDA79E",
"W. c #A85AA7FEA78E",
"Q. c #A5D7A86EAB96",
"!. c #A78AAA43AD94",
"~. c #AACFAAA7AA76",
"^. c #B044B048B04E",
"/. c #B3A2B39AB390",
"(. c #B05CB2BDB5A3",
"). c #BAADBA0AB93B",
"_. c #BAE3BA3FB970",
"`. c #BBFBBE8EC1AF",
"'. c #C5D7C522C43B",
"]. c #C066C2F8C61D",
"[. c #C604C550C46C",
"{. c #CFDBD173D367",
"}. c #DCD5DC44DB91",
"|. c #DD0EDC77DBBE",
" X c #DFCBDF15DE36",
".X c #DF52DFA7E00D",
"XX c #E3FFE308E1DA",
"oX c #E33BE347E358",
"OX c #E435E42AE41D",
"+X c #E467E45EE454",
"@X c #EBE5EB0FEA06",
"#X c #EC67EB91EA89",
"$X c #EC9EEC90EC80",
"%X c #EDAFED81ED49",
"&X c #ECE4ED5FEDF4",
"*X c #EDFCEDD2ED9F",
"=X c #EDCAEE35EEB7",
"-X c #EFF3EFFDF008",
";X c #F182F169F14B",
":X c #F293F266F232",
">X c #F539F51DF4FC",
",X c #F668F64FF631",
"<X c #F68DF675F658",
"1X c #F692F67AF65D",
"2X c #F7CAF790F748",
"3X c #FA19FA13FA0E",
"4X c #FB9BFADBF9F1",
"5X c #FBC1FBC1FBC1",
"6X c #FC88FC6CFC4B",
"7X c #FC93FC82FC6C",
"8X c #FD3CFD20FCFD",
"9X c #FE2BFE2EFE32",
"0X c #FE77FE7CFE83",
"qX c #FFF4FFF3FFF3",
/* pixels */
"e.e.e.e.e.e.e.e.e.e.e.e.e.e.e.e.e.e.e.e.e.e.e.e.e.e.e.e.e.e.e.e.",
"e.e.e.e.e.e.e.e.e.e.8.e.e.e.8.e.e.8.e.e.e.e.8.e.8.e.e.e.e.e.e.e.",
"e.e.e.e.e.e.e.a.l.l.d.e.e.e.d.x.c.d.e.e.e.d.l.l.a.e.e.e.e.e.e.e.",
"e.e.e.e.e.u.;.B l l v #.d.%.N l l N %.d.@.v l k B ;.u.e.e.e.e.e.",
"e.e.e.e.8.a.&.& Y.(.u @.A.&.3 Q.Q., =.A.O.y (.Y.& &.u.e.e.e.e.e.",
"e.e.e.e.8.d.$.r %XqXA f T z p 3X2Xp z T f Z qX%Xr &.d.8.e.e.e.e.",
"e.e.e.e.8.a.$.4 %XqXE.L.U.P.R.qXqXR.L.P.L.E.qX&X4 $.d.e.e.e.e.e.",
"e.e.e.e.e.a.$.r .X;X3XqXqXqXqX;X%XqXqXqXqX3X;X.Xr $.d.8.e.e.e.e.",
"e.e.e.e.8.u.-.O 6 A 6 3 3 3 3 6 6 3 3 3 3 r S 6 O =.u.e.e.e.e.e.",
"e.e.e.e.e.e.y.~   _ @X%X%X%X%X%X%X%X%X%X$X#X_   ! y.e.e.e.e.e.e.",
"e.e.e.e.e.e.e.b.X.  ( ).E.~.~.~.~.~.~.E.).(   ..b.e.e.e.e.e.e.e.",
"e.e.e.e.e.e.e.8.b.-.* 6 I P P J P P P I y % -.v.6.e.e.e.e.e.e.e.",
"e.e.e.e.e.e.e.e.3.Z.R K.qXqXqXqXqXqX3XqXL.R Z.<.e.e.e.e.e.e.e.e.",
"e.e.e.e.e.e.e.e.8.B.R [ qX3XqXqXqXqX3XqX[ M B.8.e.e.e.e.e.e.e.e.",
"e.e.e.e.e.e.e.e.8.V.Y H.qX3XqXqXqXqX3XqXH.Y B.8.e.e.e.e.e.e.e.e.",
"e.e.e.e.e.e.e.e.6.B.Y H.qX3XqXqXqXqX3XqXH.Y V.8.e.e.e.e.e.e.e.e.",
"e.e.e.e.e.e.e.e.8.V.Y H.qX3XqXqXqXqX3XqXH.Y b.8.e.e.e.e.e.e.e.e.",
"e.e.e.e.e.e.e.e.8.b.Y H.qX2XqXqXqXqX3XqXH.Y B.8.e.e.e.e.e.e.e.e.",
"e.e.e.e.e.e.e.e.3.Z.R H.qX3XqXqXqXqX3XqXH.R C.<.e.e.e.e.e.e.e.e.",
"e.e.e.e.e.e.e.6.u.:.* 5 P J H H J J J P 5 * ,.a.8.e.e.e.e.e.e.e.",
"e.e.e.e.e.e.8.a.3.: ' '././././././././.'.' : 3.a.8.e.e.e.e.e.e.",
"e.e.e.e.e.e.y.:.> / OXOX+X+X+X+XOXOX+X+XOXOX/ j :.y.e.e.e.e.e.e.",
"e.e.e.e.e.6.x...  C 6 6 6 6 6 6 6 6 6 6 4 p V   o.x.6.e.e.e.e.e.",
"e.e.e.e.e.e.b.| G 3X2X2X2X2X2X2X2X2X2X2X2X;X3XG  .b.e.e.e.e.e.e.",
"e.e.e.e.e.3.d.} G qX7XqX7XqXqX7XqX7X7XqX7XqXqXG | d.3.e.e.e.e.e.",
"e.e.e.8.x.E @ # + p p p p p p p p d p p p p p + # @ W c.8.e.e.e.",
"e.e.e.8.N.b H.;X X|.|.|.|.|.|.|.|.|.|.|.|.|.|. X;XJ.n N.8.e.e.e.",
"e.e.e.8.b.n [ {.`.].].].].].].].].].].].].].].`.{.[ M b.8.e.e.e.",
"e.e.e.8.d.Q * : - - - > - : : > f : : - : : - : j * ~ d.8.e.e.e.",
"e.e.e.e.r.u.u.d.g.g.g.u.d.d.d.u.g.g.d.u.l.u.u.d.u.u.u.e.e.e.e.e.",
"e.e.e.e.e.e.e.e.e.8.e.8.e.e.e.e.8.e.e.e.8.e.e.e.e.e.e.e.e.e.e.e.",
"e.e.e.e.e.e.e.e.e.e.e.e.e.e.e.e.e.e.e.e.e.e.e.e.e.e.e.e.e.e.e.e."
};
