/* XPM */
static char *rld__[] = {
/* columns rows colors chars-per-pixel */
"38 38 222 2",
"   c #000200010001",
".  c #00B800950067",
"X  c #0161013D0111",
"o  c #020E026A02D5",
"O  c #031F030502D8",
"+  c #0742048E0178",
"@  c #076404AF0192",
"#  c #02DC04B206F0",
"$  c #03DC04190464",
"%  c #0428048804FE",
"&  c #05440533051F",
"*  c #0DF504170000",
"=  c #0E8A04B00000",
"-  c #09B708B10772",
";  c #05C106DF083D",
":  c #061907390898",
">  c #08B308FF095B",
",  c #0A2F09CC0954",
"<  c #0B9E0AFB0A33",
"1  c #105007D30000",
"2  c #12E109A30000",
"3  c #188B0CE00000",
"4  c #1C090F660000",
"5  c #0FE50F1D0E2E",
"6  c #1F4611720092",
"7  c #1F8311B400D8",
"8  c #1C1010A402B3",
"9  c #1F5512FF03F3",
"0  c #0CF10FDF1373",
"q  c #0DE9109313D2",
"w  c #148515551652",
"e  c #14BA156D165F",
"r  c #1FA011B200B3",
"t  c #21D013F20305",
"y  c #246215790347",
"u  c #253815DF037D",
"i  c #281C1A450962",
"p  c #283A1D050F55",
"a  c #2BA11F7C10A9",
"s  c #378023690AE6",
"d  c #38CD245F0B6F",
"f  c #3AE826000C7E",
"g  c #39C2269C0F40",
"h  c #39C926A70F4E",
"j  c #3D8328BB0F5F",
"k  c #314F238C12C2",
"l  c #38CD2997170E",
"z  c #3B7C2B1A171B",
"x  c #239B235322FB",
"c  c #247D243823E3",
"v  c #27AF277D273F",
"b  c #27DE27AB276E",
"n  c #2AF82F0533F7",
"m  c #2EBA32D537D6",
"M  c #34BE344D33C4",
"N  c #3B863CAE3E17",
"B  c #41DE2B170F45",
"V  c #44602D41110D",
"C  c #45FB326B1A8B",
"Z  c #4A0035521C16",
"A  c #607643872036",
"S  c #60FC441220C8",
"D  c #6038457E24E1",
"F  c #616E467325A1",
"G  c #6178467E25A9",
"H  c #3B2C3D704032",
"J  c #3F5A40914214",
"K  c #40494381476B",
"L  c #4BBC4D684F72",
"P  c #4C254DD34FDF",
"I  c #4D444FEB5328",
"U  c #4D0050F255C2",
"Y  c #4DB951BB56A1",
"T  c #4DCE51D256B8",
"R  c #50BD50BE50DC",
"E  c #52F45301531F",
"W  c #520B556B598B",
"Q  c #52C8560E5A0C",
"!  c #5353569A5A9B",
"~  c #53A856F15AF4",
"^  c #540057405B37",
"/  c #54A957F55BFB",
"(  c #557858CE5CDF",
")  c #559E58F35D04",
"_  c #55EC59265D17",
"`  c #59865B6F5DC4",
"'  c #5E7E60106207",
"]  c #5EF26062622F",
"[  c #64FA67B36B04",
"{  c #6AC16A2F697C",
"}  c #74147420742E",
"|  c #757F758A7598",
" . c #76857690769D",
".. c #71EB74D2785D",
"X. c #753878117B8C",
"o. c #76A679907D1F",
"O. c #7964796F797B",
"+. c #875161AE33E6",
"@. c #877561F73442",
"#. c #87B66291353A",
"$. c #88136236342A",
"%. c #89666363350F",
"&. c #8A9F64B53671",
"*. c #91B369503806",
"=. c #929B6A8739A9",
"-. c #92B36A9E39BD",
";. c #95796C0A397A",
":. c #9C9070E93BA4",
">. c #9FE273433CD2",
",. c #A05573983D01",
"<. c #A1A7740A3C60",
"1. c #A79B79264076",
"2. c #A8E37A0440D0",
"3. c #A9C87A9F4111",
"4. c #AB077B2B40C1",
"5. c #AB4C7B6840F6",
"6. c #B50882F245D3",
"7. c #B60883A7462E",
"8. c #BF718A6F49C0",
"9. c #80D080457F9A",
"0. c #C2248C704AE4",
"q. c #C91B91694D71",
"w. c #C9D591EF4DB9",
"e. c #D07496B75040",
"r. c #D124972E5071",
"t. c #D1D197AA50B4",
"y. c #D2F898885138",
"u. c #D39698FB5175",
"i. c #D407994C51A0",
"p. c #D477999D51CB",
"a. c #D4D199DC51EA",
"s. c #D5379A285216",
"d. c #D5D39A995251",
"f. c #D7279B8C52D0",
"g. c #D7909BD952FC",
"h. c #D83C9C55533C",
"j. c #D8D59CC55379",
"k. c #D93E9DE55577",
"l. c #DA879E025427",
"z. c #DAC29E285432",
"x. c #DBBC9EE0549B",
"c. c #DC319F2E54BB",
"v. c #DAB89EF65609",
"b. c #DC689F5654D0",
"n. c #DCD49FAD550A",
"m. c #DD51A020556E",
"M. c #DE3FA0AF558F",
"N. c #DF06A14855F0",
"B. c #DFA6A1D35660",
"V. c #DEA4A1955712",
"C. c #E0ADA28C56BA",
"Z. c #E13CA316573F",
"A. c #E253A3AC5739",
"S. c #E301A42B577C",
"D. c #E074A34D58AC",
"F. c #E0FEA3D55932",
"G. c #E452A6255A45",
"H. c #E454A6275A46",
"J. c #E6BAA6FB592E",
"K. c #E73EA7595959",
"L. c #E50CA6A95A88",
"P. c #E601A7555AD9",
"I. c #E69FA7CD5B23",
"U. c #E85DA96C5C9E",
"Y. c #E9EBAA8C5D37",
"T. c #ED4BAC915D93",
"R. c #F0D6AF245EF7",
"E. c #F21DB070604B",
"W. c #F2A2B0D1607F",
"Q. c #F75EB49B6321",
"!. c #F79EB4D2634F",
"~. c #828081E3812A",
"^. c #83CA8326825E",
"/. c #804A829E8575",
"(. c #80E7830F85B1",
"). c #868485EA852E",
"_. c #8DA08CBC8BAA",
"`. c #8EEC8E088CF6",
"'. c #8F348E9F8DE9",
"]. c #8EB78EDA8F0F",
"[. c #908290AE90EC",
"{. c #A6FDA6D0A69B",
"}. c #A901A8CDA88E",
"|. c #B16BB127B0D4",
" X c #B450B3EBB36A",
".X c #B4A8B463B40E",
"XX c #BBD7BB8DBB31",
"oX c #BEF9BEAEBE51",
"OX c #C1AAC0E1BFEB",
"+X c #C986C965C938",
"@X c #CC89CC65CC32",
"#X c #CE4DCD92CCAC",
"$X c #CE66CDA4CCB5",
"%X c #D4FFD3D4D269",
"&X c #DCFFDBFBDAB8",
"*X c #E311E310E30E",
"=X c #E569E563E55B",
"-X c #E56BE565E55C",
";X c #E574E56EE566",
":X c #EA2CE8DAE73E",
">X c #E9BFE993E95E",
",X c #EB9BEA52E8C1",
"<X c #EB08EA9FEA21",
"1X c #EE13EE01EDEA",
"2X c #EED1EE6CEDF1",
"3X c #EEE8EE89EE15",
"4X c #EEE1EECFEEB8",
"5X c #F033EFF3EFA1",
"6X c #F0E1F04AEF8F",
"7X c #F356F35CF364",
"8X c #F413F3D6F38B",
"9X c #F556F485F385",
"0X c #F562F554F544",
"qX c #F586F57BF56E",
"wX c #F7ADF76BF71B",
"eX c #F9CEF9D0F9D3",
"rX c #FB4FFB50FB52",
"tX c #FC18FC1BFC1E",
"yX c #FDADFDACFDAA",
"uX c #FEF5FEF8FEFC",
"iX c #FFFFFFFFFF4A",
"pX c #FFFCFFFCFFFB",
/* pixels */
"d.d.d.d.d.d.d.d.d.d.d.d.d.d.d.d.d.d.d.d.d.d.d.d.d.d.d.d.d.d.d.d.d.d.d.d.d.d.",
"d.d.d.d.d.d.d.d.p.p.p.p.p.d.d.d.p.p.p.p.p.d.d.d.p.p.p.p.p.p.d.d.d.d.d.d.d.d.",
"d.d.d.d.d.d.d.d.M.M.M.M.M.h.d.d.k.B.M.B.M.x.d.d.d.M.M.C.M.b.d.d.d.d.d.d.d.d.",
"d.d.d.d.d.d.d.d.7.4.5.4.4.q.f.h.8.1.4.4.4.8.d.x.q.4.5.5.4.7.d.d.d.d.d.d.d.d.",
"d.d.d.d.d.d.d.b.k   $ $   ;.x.M.G   $ $   G M.k.-.  $ $   k b.d.d.d.d.d.d.d.",
"d.d.d.d.d.d.d.B.t [ 9X%Xq <.E.Q.S m :X:Xn S Q.W.:.0 %X8X[ t B.p.d.d.d.d.d.d.",
"d.d.d.d.d.d.p.F.9  .pX6Xw u B V * J pXpXN * V B u w 5XpX .9 F.d.d.d.d.d.d.d.",
"d.d.d.d.d.d.p.F.9 ..pX2X{ I Y Y P ).pXpX^.P Y Y I { 2XpX..t V.p.d.d.d.d.d.d.",
"d.d.d.d.d.d.p.B.9 o.pXtXpXpXpXpXpXpXpXpXpXpXpXpXpXpXtXpXo.9 F.p.d.d.d.d.d.d.",
"d.d.d.d.d.d.p.M.i H '.} | | | | | | O.O.| | | | | | } '.N i M.p.d.d.d.d.d.d.",
"d.d.d.d.d.d.p.M.l   - M c c c c c c c c c c c c x c M ,   l M.p.d.d.d.d.d.d.",
"d.d.d.d.d.d.d.k.0.l   _.pXpXpXpXpXpXpXpXpXpXpXpXpXpX'.  l 0.x.p.d.d.d.d.d.d.",
"d.d.d.d.d.d.d.p.b.M.G   R  X{.}.}.}.}.}.}.}.}.{..XE   G M.k.d.d.d.d.d.d.d.d.",
"d.d.d.d.d.d.d.d.p.d.P.-.@   < - , , , , , , , <   @ -.P.d.p.d.d.d.d.d.d.d.d.",
"d.d.d.d.d.d.d.d.d.d.w.R.z ! uX9XwXwXwXwXwXwX8XpX^ j R.t.d.d.d.d.d.d.d.d.d.d.",
"d.d.d.d.d.d.d.d.d.d.d.P.d ! pXrXpXpXpXpXpXpXtXpX^ d F.t.d.d.d.d.d.d.d.d.d.d.",
"d.d.d.d.d.d.d.d.d.d.p.K.d ^ pXtXpXpXpXpXpXpXtXpXW s P.p.d.d.d.d.d.d.d.d.d.d.",
"d.d.d.d.d.d.d.d.d.d.p.P.s W pXtXpXpXpXpXpXpXtXpXW s P.p.d.d.d.d.d.d.d.d.d.d.",
"d.d.d.d.d.d.d.d.d.d.y.P.s W pXtXpXpXpXpXpXpXtXpXW d P.t.d.d.d.d.d.d.d.d.d.d.",
"d.d.d.d.d.d.d.d.d.d.t.P.d ^ pXuXpXpXpXpXpXpXtXpXW d P.p.d.d.d.d.d.d.d.d.d.d.",
"d.d.d.d.d.d.d.d.d.d.t.P.d ! pXwXtXtXpXtXpXtXtXpXW s P.p.d.d.d.d.d.d.d.d.d.d.",
"d.d.d.d.d.d.d.d.d.d.y.P.d ^ pXtXpXpXpXpXpXpXtXpX^ d P.t.d.d.d.d.d.d.d.d.d.d.",
"d.d.d.d.d.d.d.d.d.d.t.T.l K &X@X@X@X@X@X@X@X@X&XK g T.t.d.d.d.d.d.d.d.d.d.d.",
"d.d.d.d.d.d.d.d.d.t.P.+.                            +.P.t.d.d.d.d.d.d.d.d.d.",
"d.d.d.d.d.d.d.d.p.P.#.  '.2X*X;X=X=X;X;X=X=X;X*X8X[.0 ] K.i.d.d.d.d.d.d.d.d.",
"d.d.d.d.d.d.d.u.M.#.  ^.pX8XwXwX0XwXwXwX0X0XwXwX8XpX1.  &.C.i.d.d.d.d.d.d.d.",
"d.d.d.d.d.d.d.d.h.p   5                             5   p z.d.d.d.d.d.d.d.d.",
"d.d.d.d.d.d.y.y.h.9 ` OX|..X.X.X.X.X.X.X.X.X.X X X|.+X^ t x.t.i.d.d.d.d.d.d.",
"d.d.d.d.d.y.x.C.Y.3 (.pXtXpXpXpXpXpXpXpXpXpXpXpXpXrXpX(.4 Y.C.x.d.d.d.d.d.d.",
"d.d.d.d.d.x.7.<.1.* ] $XXXoXoXoXoXoXoXoXoXOXoXoXoXXX$X] 2 4.<.5.d.d.d.d.d.d.",
"d.d.d.d.p.C.C   ; , $                                 $ ; ; + Z S.p.d.d.d.d.",
"d.d.d.d.p.P.s ( pX>X2X8X2X2X2X2X8X5X2X2X5X5X6X2X2X6X2X6X<XpX_ f P.p.d.d.d.d.",
"d.d.d.d.p.P.s ( pX>X2X2X2X2X2X2X2X2X2X2X2X2X2X2X2X2X2X2X>XpX( g K.p.d.d.d.d.",
"d.d.d.d.p.S.C   : $ # $ # # # # $ ; # # # # # $ # # # # $ :   Z S.p.d.d.d.d.",
"d.d.d.d.d.d.7.,.<.<.<.<.<.<.<.<.<.<.<.<.<.,.<.<.<.<.<.<.<.<.,.7.d.d.d.d.d.d.",
"d.d.d.d.d.d.b.C.F.C.C.F.C.F.C.F.C.C.C.M.F.F.C.C.C.C.F.F.C.C.C.k.d.d.d.d.d.d.",
"d.d.d.d.d.d.p.t.t.p.p.t.d.p.p.p.p.t.p.p.p.t.p.p.d.p.p.p.t.p.p.p.d.d.d.d.d.d.",
"d.d.d.d.d.d.d.d.d.d.d.d.d.d.d.d.d.d.d.d.d.d.d.d.d.d.d.d.d.d.d.d.d.d.d.d.d.d."
};
