/* XPM */
static char *rld__[] = {
/* columns rows colors chars-per-pixel */
"46 46 251 2",
"   c #000200020001",
".  c #00C300410023",
"X  c #00B800850047",
"o  c #00E400CE00BA",
"O  c #036600000000",
"+  c #019F013000A9",
"@  c #021E018800D1",
"#  c #02CE02080114",
"$  c #024B0247022E",
"%  c #04C2037101D5",
"&  c #016A02DA049A",
"*  c #0208034B04D5",
"=  c #0418041A041C",
"-  c #04AA0483045A",
";  c #04B3048E0465",
":  c #0A4104E7027F",
">  c #0A78050C0292",
",  c #081A05DC031F",
"<  c #08D506630368",
"1  c #0CA004B70000",
"2  c #0E8D06770000",
"3  c #0AF007F4042E",
"4  c #0BB90885047B",
"5  c #04F7064C07F2",
"6  c #05BC071808C6",
"7  c #0856081107BA",
"8  c #08CB0878081C",
"9  c #0A5809BD0901",
"0  c #0B8E0B0B0A6C",
"q  c #0BF90B6F0AC5",
"w  c #105307630000",
"e  c #1002087D0000",
"r  c #1235091C0000",
"t  c #13870B0800AA",
"y  c #13A30E840845",
"u  c #13AE0E8F084E",
"i  c #1B84138909CD",
"p  c #1E0514A5093A",
"a  c #1EC915600A16",
"s  c #1EBE15DE0B0A",
"d  c #123C11D8115D",
"f  c #128A122411A7",
"g  c #140C13941301",
"h  c #10BD12431445",
"j  c #1233139C1589",
"k  c #202516440A4F",
"l  c #24EC1B2E0F49",
"z  c #33B225D614EB",
"x  c #350A270415E8",
"c  c #379A28AB1670",
"v  c #33E633303253",
"b  c #35B434FD341F",
"n  c #3E023CD13B73",
"m  c #3FF13ED73D80",
"M  c #5EDA456E2669",
"N  c #5EE54577266F",
"B  c #715552072BD0",
"V  c #765D55962D95",
"C  c #76BA55D92DB9",
"Z  c #7AA158582E83",
"A  c #7BFB59632F2D",
"S  c #7C1259742F36",
"D  c #41D9425442EA",
"F  c #474848DC4AC8",
"G  c #47FD495E4B0E",
"H  c #4E0A4FA751A0",
"J  c #4E6B4FE251AC",
"K  c #4EC3502D51E7",
"L  c #4F1C506251F0",
"P  c #51F551995125",
"I  c #524E520551AC",
"U  c #5237529F531D",
"Y  c #543953ED5391",
"T  c #5E035DAA5D3F",
"R  c #62B262AC62A4",
"E  c #631E63146307",
"W  c #678B676D6748",
"Q  c #682168396857",
"!  c #690D68F968E1",
"~  c #6981694268F6",
"^  c #6AB269DC68D7",
"/  c #68A06A096BC1",
"(  c #6C146BFD6BE2",
")  c #6DFE6CC86B4D",
"_  c #6C516C3A6C1E",
"`  c #6F986ED66DE8",
"'  c #70896F526DD8",
"]  c #7A777967781C",
"[  c #7CCE7B7379C4",
"{  c #7DC87C6C7ABD",
"}  c #7B877C2E7CFC",
"|  c #7C777D1E7DEB",
" . c #7F217E987DF0",
".. c #7E697E5C7E4B",
"X. c #7F187F067EF0",
"o. c #7E6F7F167FE3",
"O. c #7F717F7D7F8A",
"+. c #85F660E433A9",
"@. c #864E612533CC",
"#. c #873761D8343D",
"$. c #87B3621A343A",
"%. c #88AF62D1349B",
"&. c #89DD63AC3510",
"*. c #8B6864CA35AB",
"=. c #8C8965B63654",
"-. c #8DCA66BC3713",
";. c #8E7B67393751",
":. c #8751637F37C8",
">. c #89D3654F38BF",
",. c #8A6F65C93910",
"<. c #906868683798",
"1. c #9153692C382C",
"2. c #926F6A1838DC",
"3. c #93146A8C3916",
"4. c #941B6B143908",
"5. c #984A6E1A3AA4",
"6. c #9B6070E03D04",
"7. c #9BB871203D26",
"8. c #9D6C71E13CC0",
"9. c #B4E782CA45A4",
"0. c #B6FA844A4670",
"q. c #B8EC85B34731",
"w. c #B93D86FB49A7",
"e. c #B95A871149B4",
"r. c #BFCE8AAD49D7",
"t. c #C03B8C264C99",
"y. c #C0938B3B4A23",
"u. c #C3838D714B74",
"i. c #C0438C2C4C9B",
"p. c #C1B08D314D1E",
"a. c #C26D8D304C37",
"s. c #C3558D954BFC",
"d. c #C2878DD04D7B",
"f. c #C4148EB84D9A",
"g. c #C5518F024CBC",
"h. c #C6638FAA4CDE",
"j. c #C4838F3D4E3A",
"k. c #C7CE90C24D93",
"l. c #C6CB90B44EB2",
"z. c #C86E91424DEE",
"x. c #CAD492A54E16",
"c. c #CC2593994E98",
"v. c #CC8993DE4EB8",
"b. c #CDE094D94F43",
"n. c #CA8593665021",
"m. c #CB4F93FF507F",
"M. c #CCFA954F515F",
"N. c #D1BC97A650C2",
"B. c #D22297F150ED",
"V. c #D257981550FC",
"C. c #D29898435113",
"Z. c #D36898D95162",
"A. c #D426997351D1",
"S. c #D1B4988352B7",
"D. c #D23B98E452EB",
"F. c #D47C99A151CE",
"G. c #D4AD99C451E0",
"H. c #D5479A33521B",
"J. c #D5D49A995251",
"K. c #D6599AF95285",
"L. c #D6BC9B4052AB",
"P. c #D7469BA552E1",
"I. c #D7AD9BEF5308",
"U. c #D20599F6558C",
"Y. c #D4319B885662",
"T. c #D52D9B0A5418",
"R. c #D7659CA454F2",
"E. c #D8219D405567",
"W. c #D8C69CBA5375",
"Q. c #D9969D5253C5",
"!. c #DA139DAC53F5",
"~. c #DA959E0A5426",
"^. c #DB059E5A5451",
"/. c #DB899EB95483",
"(. c #DA699EE65648",
"). c #DC7B9F7154F3",
"_. c #DDE7A05F5547",
"`. c #DEA8A0FB55B8",
"'. c #DF14A14955E2",
"]. c #E1DCA33C56CF",
"[. c #E197A31956D8",
"{. c #E205A36056F1",
"}. c #E2F9A4155757",
"|. c #E31EA442578C",
" X c #E3A3A49757A6",
".X c #E3C0A4C157E2",
"XX c #E460A52D580C",
"oX c #E490A55A5837",
"OX c #E586A61A58B5",
"+X c #E5EFA63E5885",
"@X c #E74EA74A5929",
"#X c #E7EBA7BB5966",
"$X c #7F097FB28080",
"%X c #80F080DD80C7",
"&X c #8112810480F3",
"*X c #813C81478153",
"=X c #8287828B8291",
"-X c #8324830F82E1",
";X c #849584228397",
":X c #845F846A8479",
">X c #870D86F186CE",
",X c #917190C38FEF",
"<X c #90AB90849054",
"1X c #940893A99334",
"2X c #946293EA9357",
"3X c #9EAA9E759E2E",
"4X c #A150A11AA0D2",
"5X c #A883A7BCA6C9",
"6X c #AAE2AA2BA94A",
"7X c #AD8EAD31ACBA",
"8X c #B212B058AE3B",
"9X c #B242B07AAE4E",
"0X c #B852B81DB7DE",
"qX c #BF2FBE57BD50",
"wX c #BFD9BF1BBE33",
"eX c #D003CF28CE1B",
"rX c #CFA9CF95CF80",
"tX c #D215D0E9CF72",
"yX c #D265D133CFBA",
"uX c #D10FD0FDD0E9",
"iX c #D60BD600D5F3",
"pX c #D951D854D71F",
"aX c #DB75DA78D943",
"sX c #DC67DC31DBEF",
"dX c #DDE1DDB3DD79",
"fX c #E07DDF6CDE1F",
"gX c #E118DFF8DE98",
"hX c #E108E0CDE085",
"jX c #E514E414E2DB",
"kX c #E47DE43EE3F1",
"lX c #E5CDE590E546",
"zX c #E600E5C3E579",
"xX c #EA6FEA3BE9FD",
"cX c #EAD4EAA0EA62",
"vX c #EECAEE96EE56",
"bX c #F1A0F166F120",
"nX c #F5D9F5A3F561",
"mX c #F803F801F7FF",
"MX c #F8F6F8B9F870",
"NX c #F903F8C7F87E",
"BX c #FA72FA29F9D1",
"VX c #FAC9FA81FA2A",
"CX c #FB2DFB2AFB27",
"ZX c #FBEBFBEBFBE8",
"AX c #FCACFCB1FCB8",
"SX c #FD8EFD6BFD41",
"DX c #FDC5FDC2FDBF",
"FX c #FEDFFE1AFD2A",
"GX c #FE90FE6FFE46",
"HX c #FF61FF5FFF5D",
"JX c #FFFFFFFFFFFD",
/* pixels */
"J.J.J.J.J.J.J.J.J.J.J.J.J.J.J.J.J.J.J.J.J.J.J.J.J.J.J.J.J.J.J.J.J.J.J.J.J.J.J.J.J.J.J.J.J.J.",
"J.J.J.J.J.J.J.J.J.J.J.J.J.J.J.J.J.J.J.J.J.J.J.J.J.J.J.J.J.J.J.J.J.A.J.J.J.J.J.J.J.J.J.J.J.J.",
"J.J.J.J.J.J.J.J.J.J.N.A.A.N.A.N.J.J.J.J.A.N.A.N.N.A.J.J.J.J.A.N.A.A.M.A.J.J.J.J.J.J.J.J.J.J.",
"J.J.J.J.J.J.J.J.J.J.}.XXXXXXXX}.J.J.J.J. X XXXOXXX XJ.J.J.J. X XOX XOXXXJ.J.J.J.J.J.J.J.J.J.",
"J.J.J.J.J.J.J.J.R.b.%.@.@.@.@.%.b.I.Q.v.%.+.@.%.@.%.x.R.Q.x.@.+.%.@.@.*.b.J.J.J.J.J.J.J.J.J.",
"J.J.J.J.J.J.J.J.^.u.<         % q.I.J.w.%         % q.R.Q.9.          > r.^.A.J.J.J.J.J.J.J.",
"J.J.J.J.J.J.J.A.^.a.  ^ hXhX]   n.OX#Xm.  ' hXjX^   m.#X#Xl.  { jXdX^   a.^.J.J.J.J.J.J.J.J.",
"J.J.J.J.J.J.J.A.^.j.  *XSXSX2X  >.7.8.>.  :XSXSX*X  >.7.8.@.  2XSXSX$X  k.^.A.J.J.J.J.J.J.J.",
"J.J.J.J.J.J.J.J.Q.j.  | SXSX<X            :XSXSX|   ;     ;   <XSXSX$X  j.^.A.J.J.J.J.J.J.J.",
"J.J.J.J.J.J.J.A.^.j.  } SXSXjX0XwXqXqXeX0XdXSXSXdX0XwXwXwXwX0XjXSXSX|   j.^.J.J.J.J.J.J.J.J.",
"J.J.J.J.J.J.J.A.^.j.  $XSXSXSXSXSXSXSXSXSXSXSXSXSXSXSXSXSXSXSXSXBXSX%X  j.^.J.J.J.J.J.J.J.J.",
"J.J.J.J.J.J.J.J.^.a.  D <X*X:X*X*X*X*X*X*X:X:X:X;X*X*X*X*X*X*X:X%X<XD   a.^.A.J.J.J.J.J.J.J.",
"J.J.J.J.J.J.J.A.^.y.<     ;                                     ;     > y.Q.J.J.J.J.J.J.J.J.",
"J.J.J.J.J.J.J.J.J.Q.B     { BXcXzXzXzXzXzXzXzXzXzXzXzXzXzXzXcXBX{     B Q.J.J.J.J.J.J.J.J.J.",
"J.J.J.J.J.J.J.J.J.J.OX8.u   ) SXSXSXSXSXSXSXSXSXSXSXSXSXSXSXSX'   u 8.OXJ.J.J.J.J.J.J.J.J.J.",
"J.J.J.J.J.J.J.J.J.J.N.}.u.x   v T Y Y Y Y Y Y Y Y Y Y Y Y T b   x u.}.N.J.J.J.J.J.J.J.J.J.J.",
"J.J.J.J.J.J.J.J.J.J.J.N.).^.N   q g g f g g f g g f g f g 0   N ).).N.J.J.J.J.J.J.J.J.J.J.J.",
"J.J.J.J.J.J.J.J.J.J.J.J.A.).M.  :XSXSXSXSXSXSXSXSXSXSXAXSX:X  M.).N.J.J.J.J.J.J.J.J.J.J.J.J.",
"J.J.J.J.J.J.J.J.J.J.J.J.T.^.t.  *XSXAXSXSXSXSXSXSXSXSXSXSX*X  a.Q.J.J.J.J.J.J.J.J.J.J.J.J.J.",
"J.J.J.J.J.J.J.J.J.J.J.J.A.^.j.  *XSXSXSXSXSXSXSXSXSXSXSXSX*X  a.Q.J.J.J.J.J.J.J.J.J.J.J.J.J.",
"J.J.J.J.J.J.J.J.J.J.J.J.A.^.a.  *XSXSXSXSXSXSXSXSXSXSXAXSX*X  j.^.J.J.J.J.J.J.J.J.J.J.J.J.J.",
"J.J.J.J.J.J.J.J.J.J.J.J.A.^.a.  *XSXSXSXSXSXSXSXSXSXSXSXSX*X  a.Q.J.J.J.J.J.J.J.J.J.J.J.J.J.",
"J.J.J.J.J.J.J.J.J.J.J.J.A.^.a.  *XSXSXSXSXSXSXSXSXSXSXSXSX*X  j.^.J.J.J.J.J.J.J.J.J.J.J.J.J.",
"R.J.J.J.J.J.J.J.J.J.J.J.R.^.a.  *XSXSXSXSXSXSXSXSXSXSXSXSX*X  a.Q.J.J.J.J.J.J.J.J.J.J.J.J.J.",
"J.J.J.J.J.J.J.J.J.J.J.J.J.^.a.  *XSXSXSXSXSXSXSXSXSXSXSXSX*X  a.^.J.J.J.J.J.J.J.J.J.J.J.J.J.",
"J.J.J.J.J.J.J.J.J.J.J.J.J.^.a.  *XSXBXSXSXSXSXSXSXSXAXmXSX*X  a.Q.A.J.J.J.J.J.J.J.J.J.J.J.J.",
"J.J.J.J.J.J.J.J.J.J.J.J.J.Q.a.  *XSXSXSXSXSXSXSXSXSXSXSXSX*X  l.Q.J.J.J.J.J.J.J.J.J.J.J.J.J.",
"J.J.J.J.J.J.J.J.J.J.J.J.N.}.w.  U 7X4X4X4X4X4X4X4X4X4X4X7XU   w.}.N.J.J.J.J.J.J.J.J.J.J.J.J.",
"J.J.J.J.J.J.J.J.J.J.J.N._.k.l                       & *       l x.).N.J.J.J.J.J.J.J.J.J.J.J.",
"J.J.J.J.J.J.J.J.J.J.A._.j.s 5 6XpXrXuXuXuXuXuXuXuXuXuXuXuXiX6X6 k j._.J.J.J.J.J.J.J.J.J.J.J.",
"J.J.J.J.J.J.J.J.J.A.^.a.s g uXSXSXSXSXSXSXSXSXSXSXSXCXCXmXbXSXuXg s j.Q.J.J.J.J.J.J.J.J.J.J.",
"J.J.J.J.J.J.J.J.J.J.Q.x   n | Q ` ( ` ` _ _ ` _ _ ` / / / R $X9.n   c Q.J.J.J.J.J.J.J.J.J.J.",
"J.J.J.J.J.J.J.J.J.J.N.i & 0                                     q * s A.J.J.J.J.J.J.J.J.J.J.",
"J.J.J.J.J.J.J.J.J.J.R.2 F SXvXbXbXbXbXbXbXbXbXbXbXbXbXbXbXbXbXbXSXG r R.J.J.J.J.J.J.J.J.J.J.",
"J.J.J.J.J.J.J.J.W.^.R.< U SXAXSXSXSXSXSXSXSXSXSXSXSXSXSXSXSXSXAXSXL r ^.^.J.J.J.J.J.J.J.J.J.",
"J.J.J.J.J.J.J.N.v.A.T.2 L SXmXBXBXBXBXmXBXBXBXBXBXBXBXBXNXNXBXnXSXL r Y.N.v.N.J.J.J.J.J.J.J.",
"J.J.J.J.J.N.}.3.3 <       0 5 0 0 3 6 0 0 ; 0 0 0 0 3 0 ; 0 0 3 0       > 4 5.}.N.J.J.J.J.J.",
"J.J.J.J.J.N.|.-.  U ( ^ ^ E R R E E E E R R R E R R E E R R E E E ^ Q ( U   3.}.A.J.J.J.J.J.",
"J.J.J.J.J.N.XX-.  rXSXSXSXSXSXSXSXSXSXSXSXSXSXSXSXSXSXSXSXSXSXSXSXSXSXSXrX  3.XXN.J.J.J.J.J.",
"J.J.J.J.J.A.XX-.  9XjXaXsXaXsXsXaXsXsXsXsXsXaXsXsXsXsXsXsXsXsXsXsXsXaXjX9X  3.}.A.J.J.J.J.J.",
"J.J.J.J.J.N.}.*.  %                                                         -.|.N.J.J.J.J.J.",
"J.J.J.J.J.J.^.0.V S Z S Z Z Z Z Z Z Z Z Z Z Z Z Z Z Z Z Z Z Z Z Z Z Z Z S V w.^.J.J.J.J.J.J.",
"J.J.J.J.J.J.J.^.OXOXOXOXOXOXOXOXOXOXOXOXOXOXOXOXOXOXOXOXOXOXOXOXOXOXOXOXOXOX^.A.J.J.J.J.J.J.",
"J.J.J.J.J.J.J.J.N.N.N.N.N.N.N.A.N.A.N.N.A.N.N.N.N.A.N.N.N.A.A.N.N.A.N.A.N.A.J.J.J.J.J.J.J.J.",
"J.J.J.J.J.J.J.J.J.J.J.J.J.J.J.J.J.J.J.J.J.J.J.J.J.J.J.J.J.J.J.J.J.J.J.J.J.J.J.J.J.J.J.J.J.J.",
"J.J.J.J.J.J.J.J.J.J.J.J.J.J.J.J.J.J.J.J.J.J.J.J.J.J.J.J.J.J.J.J.J.J.J.J.J.J.J.J.J.J.J.J.J.J."
};
