/* XPM */
static char *rld__[] = {
/* columns rows colors chars-per-pixel */
"44 44 253 2",
"   c #00080007000C",
".  c #00B800850048",
"X  c #000000000140",
"o  c #000000000236",
"O  c #0000005B02CD",
"+  c #0222021F021B",
"@  c #02DC02DB02D8",
"#  c #00000000039E",
"$  c #0000013203BF",
"%  c #00000268060A",
"&  c #000002CD0640",
"*  c #015A036405E7",
"=  c #01DB03F10685",
"-  c #041A054106AC",
";  c #075407440732",
":  c #0B7203E50000",
">  c #0BA1041A0000",
",  c #078E077F076D",
"<  c #08A707AE067E",
"1  c #0937083606FD",
"2  c #01EF06220B44",
"3  c #03B707040B0A",
"4  c #0221066E0BAE",
"5  c #023C06890BCA",
"6  c #045007A60BB8",
"7  c #058E08DB0CDC",
"8  c #0A090A040A00",
"9  c #0C9D0C8B0C73",
"0  c #0CA20C8F0C77",
"q  c #0CE10CCD0CB3",
"w  c #13E40DAA0610",
"e  c #13630E2407C0",
"r  c #0CA810761519",
"t  c #10F010F610FD",
"y  c #11BB11AB1199",
"u  c #102611EA1429",
"i  c #105412EC1616",
"p  c #171A170616EF",
"a  c #1A1B18B81706",
"s  c #15FF18BA1C0E",
"d  c #172119FA1D72",
"f  c #1AE51A901A27",
"g  c #1E781EBD1F11",
"h  c #1EA61EEE1F45",
"j  c #208E16BF0AC4",
"k  c #263D1949097B",
"l  c #27BE1A2A09BE",
"z  c #3178204C0B58",
"x  c #31B920760B66",
"c  c #32F821570BD4",
"v  c #312C21780E4E",
"b  c #36D024480DAA",
"n  c #33EA25C51484",
"m  c #35D7268C13E1",
"M  c #364926E11412",
"N  c #377E27CA14B0",
"B  c #3C54282F0F9A",
"V  c #3CF228C9102F",
"C  c #3816283D14F7",
"Z  c #3945291D1564",
"A  c #3B4629AF1437",
"S  c #3D2D2AF014C2",
"D  c #16701AC12003",
"F  c #17D11BD520BA",
"G  c #1F6623572825",
"H  c #228221F0213C",
"J  c #22BE222D217B",
"K  c #205D246C2963",
"L  c #20B1247B291E",
"P  c #233B266F2A73",
"I  c #24272678294C",
"U  c #247F282A2CA5",
"Y  c #2E472D662C53",
"T  c #2EA42DC22CB0",
"R  c #29EE2C992FDB",
"E  c #2DB4307833D8",
"W  c #2E2330C83402",
"Q  c #2FAA32A33644",
"!  c #303933173697",
"~  c #309033793704",
"^  c #311133FD378D",
"/  c #375636A735D3",
"(  c #3182347A3818",
")  c #32E3360439D6",
"_  c #40C32B63114F",
"`  c #41602BFD11E4",
"'  c #45072F041427",
"]  c #470D308314FE",
"[  c #46BB3173177C",
"{  c #46CB3184178D",
"}  c #489F318F1567",
"|  c #4AB03321165F",
" . c #4ACD33311663",
".. c #43E4308118CD",
"X. c #44C5316519BF",
"o. c #4682325419B4",
"O. c #46CE328B19D1",
"+. c #48B433FC1AA7",
"@. c #499B34E41B9C",
"#. c #531C39A81A96",
"$. c #53BC3A141AC6",
"%. c #527F3B7C1F67",
"&. c #561A3C191C5B",
"*. c #563F3C4C1CA1",
"=. c #55073C721E72",
"-. c #536C3C3E1FF4",
";. c #5E1C43AA2366",
":. c #619447492733",
">. c #69D84AAC249F",
",. c #6A354B8A261E",
"<. c #6BDC4CC626D8",
"1. c #6BDD4CCE26E8",
"2. c #6BF04CCD26D0",
"3. c #69644C5D28F1",
"4. c #6D6B4EFA29D3",
"5. c #7C3F59C12FA8",
"6. c #7D8C5AE930A4",
"7. c #495448AE47E4",
"8. c #4BFE4B564A8A",
"9. c #5F105DCD5C42",
"0. c #5F1A5DE25C65",
"q. c #654864676357",
"w. c #64BA648B6449",
"e. c #654D651864D2",
"r. c #6563652F64E9",
"t. c #672B66D96675",
"y. c #67DF678E672C",
"u. c #692468D56876",
"i. c #693768E9688A",
"p. c #6AA269D868E1",
"a. c #6D776DE56E0E",
"s. c #6DEA6DF36DFF",
"d. c #73167368739D",
"f. c #74E474817408",
"g. c #75D4757174F9",
"h. c #795D78FF788C",
"j. c #79F57995791F",
"k. c #7A6D7A1179A1",
"l. c #7D747D287CCC",
"z. c #80355C8330F3",
"x. c #81205D483189",
"c. c #80535CEB31B6",
"v. c #82B85E693219",
"b. c #84AF5FBF32AC",
"n. c #859760A63392",
"m. c #874961B633DC",
"M. c #88F1630934C7",
"N. c #8A1863E7354C",
"B. c #8C8165AB3647",
"V. c #8DC8668936A4",
"C. c #8D2F664F36DD",
"Z. c #8ED06756372B",
"A. c #9045684F378B",
"S. c #921169D738BF",
"D. c #9B31703F3BD6",
"F. c #9F6973773DD6",
"G. c #A4A2770D3F6D",
"H. c #A74378F34070",
"J. c #C4128DCE4B94",
"K. c #CAE292D94E77",
"L. c #CEEB959A4FA8",
"P. c #CE4B955F4FE9",
"I. c #CFC996705074",
"U. c #D14297425079",
"Y. c #D1C397A950C2",
"T. c #D23E980250F1",
"R. c #D257981450F9",
"E. c #D2BA985C5120",
"W. c #D38B98F25171",
"Q. c #D4039949519F",
"!. c #D46F999751C8",
"~. c #D4F499F851FD",
"^. c #D52D9A1F5211",
"/. c #D5D69A9B5253",
"(. c #D6699B075290",
"). c #D6FA9B9D532B",
"_. c #D7879BD452F9",
"`. c #D77B9C1F53AB",
"'. c #D7099C105418",
"]. c #D7359C305429",
"[. c #D9BB9D5E53B4",
"{. c #DB2A9E75545F",
"}. c #DBB89ED9548F",
"|. c #DC299F2854B7",
" X c #DCBA9FA15512",
".X c #DD6FA011552E",
"XX c #DDCAA057555A",
"oX c #DEBCA10555B5",
"OX c #DF32A15755DB",
"+X c #E01FA206563F",
"@X c #E0DEA2985699",
"#X c #E108A2D956F6",
"$X c #E239A3A25741",
"%X c #E2A5A3E85758",
"&X c #E32FA44F5794",
"*X c #E3EDA4CB57BF",
"=X c #E1D1A40D58AC",
"-X c #E428A50657F9",
";X c #E2E5A4D0590E",
":X c #E37DA541594F",
">X c #E214A53D5AFB",
",X c #E4F6A5A65860",
"<X c #E57FA5FC587B",
"1X c #E4BBA61B59AE",
"2X c #E60FA65D58A0",
"3X c #E4EEA63559AA",
"4X c #E643A6CC5958",
"5X c #E681A7095994",
"6X c #E62FA7155A14",
"7X c #E6E3A77E5A21",
"8X c #EB1AAA975BDE",
"9X c #F56BB24E6068",
"0X c #F5CAB293608D",
"qX c #F6AFB2EF6041",
"wX c #89F6896088A8",
"eX c #8F158DDB8C5F",
"rX c #8EBD8E428DAD",
"tX c #90DF8FA68E29",
"yX c #AC5BAC14ABBC",
"uX c #AD9AAD50ACF6",
"iX c #B34CB2EDB278",
"pX c #B3DBB37BB307",
"aX c #B4E6B3D9B292",
"sX c #B6DDB582B3DD",
"dX c #B716B60AB4C3",
"fX c #B853B6EEB53D",
"gX c #D263D1FCD180",
"hX c #D3ABD339D2AE",
"jX c #D3D6D365D2DC",
"kX c #DCFADBCBDA59",
"lX c #DD1FDBE6DA67",
"zX c #DDA4DC57DAC0",
"xX c #DDBEDC6FDAD6",
"cX c #E452E388E291",
"vX c #E4CEE3DFE2BB",
"bX c #E7B5E5F9E31B",
"nX c #E6F8E6A8E647",
"mX c #EF23EE26ECF0",
"MX c #F060EF63EE2D",
"NX c #F098EF49ECE4",
"BX c #F212F119EFE8",
"VX c #F552F552F552",
"CX c #F604F608F60E",
"ZX c #F6ABF605F53B",
"AX c #F684F685F685",
"SX c #F7A7F7A3F7A0",
"DX c #F98AF979F965",
"FX c #FA23FA1BFA10",
"GX c #FBE1FBE3FBE5",
"HX c #FD2CFD22FD14",
"JX c #FE0BFE0FFE14",
"KX c #FF09FEFFFEF3",
"LX c #FFFAFFFAFFF9",
/* pixels */
"/./././././././././././././././././././././././././././././././././././././././././././.",
"/./././././././././././././././././././././././././././././././././././././././././././.",
"/./././././././././.R.R.R.R.R././././.R.Q.T.T.Q.T./././.Q.Q.Q.T.T.T.Q./././././././././.",
"/././././././././..X2X4X4X4X2X{./././.@X4X4X4X4X@X/././.}.4X4X4X4X2X{./././././././././.",
"/././././././.Q.+XD.%.=.$.=.=.G. X/.T.3.=.#.#.=.3.I.Q.+XG.-.=.#.=.%.D.+XQ./././././././.",
"/././././././.T.4X4.  d d d   x.@XR.K.w 7 D F 7 w K.T.+X6.  d d d   4.4XT./././././././.",
"/././././././.T.4X3.7 NXKXbX% V.9X4X>X: d.KXKXs.: >X4X9XM.% bXKXNX7 <.4XT./././././././.",
"/././././././.T.4X<.5 NXKXvX3 l | ' [   d.KXKXs.  o.' | k - cXKXmX2 ,.4XT./././././././.",
"/././././././.T.4X,.2 mXKXnX/ I L L U g rXKXKXwXg U L L I / nXKXmX2 ,.4XT./././././././.",
"/././././././.T.4X,.5 BXKXKXKXKXKXKXKXKXKXKXKXKXKXKXKXKXKXKXKXKXBX2 ,.4XT./././././././.",
"/././././././.T.4X<.2 vXDXSXSXSXSXSXSXSXSXSXSXSXSXSXSXSXSXSXSXSXvX2 <.4XQ./././././././.",
"/././././././.T.4X4.  a y           @   -   @ -   -           y a   4.4XT./././././././.",
"/././././././.Q.@XA.    T rXl.j.l.j.j.j.j.j.j.j.j.j.j.j.j.l.rXT     V.@XQ./././././././.",
"/./././././././.Q.+XF.w   rXKXKXKXKXKXKXKXKXKXKXKXKXKXKXKXKXtX  e G.@X/././././././././.",
"/././././././././.Q.@XJ.n   7.pXuXuXuXuXuXuXuXuXuXuXuXuXpX7.  n J.@XT./././././././././.",
"/./././././././././.T.}. X:.                                :.+X}.T././././././././././.",
"/././././././././././.W./.8Xc R xXgXgXjXgXjXjXjXjXjXgXxXR c 8X/.T./././././././././././.",
"/./././././././././././.T.>Xc ( KXKXKXKXKXKXKXKXKXKXKXKX( c +XQ././././././././././././.",
"/./././././././././././.Q.>Xx ! KXDXKXKXKXKXKXKXKXKXDXKXQ c >XQ././././././././././././.",
"/./././././././././././.W.>Xx ^ KXKXKXKXKXKXKXKXKXKXKXKX( c >XQ././././././././././././.",
"/./././././././././././.W.2Xz ! KXKXKXKXKXKXKXKXKXKXKXKX~ z >XQ././././././././././././.",
"/./././././././././././.R.>Xz ! KXKXKXKXKXKXKXKXKXKXKXKX( c >XT././././././././././././.",
"/./././././././././././.Q.>Xx ^ KXKXKXKXKXKXKXKXKXKXKXKX! z >XW././././././././././././.",
"/./././././././././././.Q.4Xx ^ KXKXKXKXKXKXKXKXKXKXKXKX! z 2XW././././././././././././.",
"/././././././././././././.=Xx ! KXDXDXDXGXGXKXDXKXDXDXKX! c >XQ././././././././././././.",
"/./././././././././././.T.4Xb ) KXKXKXKXKXKXKXKXKXKXKXKX( b 4XT././././././././././././.",
"/././././././././././.T.{.].j u i.t.t.w.t.t.t.t.t.t.w.u.y j /.}.T./././././././././././.",
"/./././././././././.T.{./.n % J y y y y y y y y y y y y H 2 C /.{.Q././././././././././.",
"/././././././././.Q.{./.n   aXKXKXKXKXKXKXKXKXKXKXKXKXKXKXpX% C /. X/./././././././././.",
"/./././././././././.L.m % fXKXKXKXKXKXKXKXKXKXKXKXKXKXKXHXKXfX  C T././././././././././.",
"/./././././././.Q.2Xn.  1 p 8 q q q q q q q q q q q q q q 8 p ,   M.*XT././././././././.",
"/./././././././.T.4Xx.  9.i.t.u.t.t.t.u.t.u.t.t.t.u.u.t.t.t.i.9.  m.>XT././././././././.",
"/././././././.T.L.@Xx.  kXKXKXKXKXKXKXKXKXKXKXKXKXKXKXKXKXKXKXxX  n.@XL.Q./././././././.",
"/././././././.+X*X9XV.  kXKXKXKXKXKXKXKXKXKXKXKXKXKXKXKXKXJXKXxX  S.9X*X@X/././././././.",
"/./././././. XN.;.,.A   q.j.f.f.f.f.f.f.f.f.g.f.f.f.f.f.g.g.j.q.  S ,.;.V. X/./././././.",
"/././././.Q.@Xo.  r u f 8 , - 8 , , 1 8 8 - 8 1 8 - 8 8 - 1 , 8 f u r   @.@XT./././././.",
"/././././.R.4XB W KXVXVXDXDXDXDXDXDXDXDXDXDXDXDXDXDXDXDXDXDXDXDXSXVXKXQ _ 4XT./././././.",
"/././././.R.4XB ! KXJXKXKXKXKXKXKXKXKXKXKXKXKXKXKXKXKXKXKXKXKXKXKXKXKXQ _ 4XT./././././.",
"/././././.W.@Xo.  I L G L L L L L G L L L L G G L L G L L L G L G G L   +.>XT./././././.",
"/././././.W..X5.o.| ] ] ' ' [ [ ] ] ' ' [ [ [ [ [ [ ' ] [ [ ' ] [ ] | o.6.+X/./././././.",
"/./././././.Q.+X4X4X4X4X4X4X6X6X4X4X6X4X6X6X6X6X4X>X4X4X4X>X6X4X4X4X4X2X+X/././././././.",
"/././././././.Q.T.T.Q.T.Q.T.T.Q.T.Q.Q.T.T.Q.T.Q.Q.T.Q.Q.Q.Q.T.Q.Q.T.T.T.T./././././././.",
"/./././././././././././././.~.~././././.~./././././././././././././././././././././././.",
"/./././././././././././././././././././././././././././././././././././././././././././."
};
