/* XPM */
static char *rll__[] = {
/* columns rows colors chars-per-pixel */
"20 20 149 2",
"   c #1F5517B60E98",
".  c #077F0E0915E3",
"X  c #07A30E2D1606",
"o  c #204618500EDD",
"O  c #3F49313D2061",
"+  c #3ABA32502836",
"@  c #3C2E336528DA",
"#  c #3EA03D403B98",
"$  c #3FA03E403C98",
"%  c #56903E1320B1",
"&  c #612541921BAF",
"*  c #6203421C1C00",
"=  c #5ECA4540269B",
"-  c #5EE0455726B2",
";  c #5E1D459E283A",
":  c #58BB45622E2B",
">  c #5B3047372F3E",
",  c #5EA4479F2BFF",
"<  c #5CA447792E13",
"1  c #5C73489D30D0",
"2  c #5E124A443280",
"3  c #61904A9C2F11",
"4  c #6FB752212EA2",
"5  c #63A94C2C2FFC",
"6  c #71B654143085",
"7  c #73F254EC2FBB",
"8  c #73F754F02FBF",
"9  c #787E598A3455",
"0  c #51D84A334106",
"q  c #528A4AD8419C",
"w  c #5176519751BD",
"e  c #520251EF51F0",
"r  c #592159FA5B02",
"t  c #5A005A9D5B63",
"y  c #650E646D63AA",
"u  c #6B136C796E27",
"i  c #6C0F6D756F23",
"p  c #70136E926CB8",
"a  c #70A36EFF6CF9",
"s  c #6B3B6EC272FE",
"d  c #7AAB771F72DB",
"f  c #7ADF77537310",
"g  c #798278987780",
"h  c #7E0D79B67480",
"j  c #731E761379A8",
"k  c #776878AD7A33",
"l  c #7A377A207A03",
"z  c #7B6A7AEE7A58",
"x  c #7B847B717B5B",
"c  c #A4EE7827426E",
"v  c #BECC8B3E4D4B",
"b  c #C0DF8CC34E3A",
"n  c #C6DC8EF14BD7",
"m  c #C6FF8F244C1D",
"M  c #C7278F914CDC",
"N  c #C09E8F9954C6",
"B  c #C12E90095508",
"V  c #CD5094ED5142",
"C  c #CDB3980857A2",
"Z  c #CE3F986E57DB",
"A  c #D26D99EA561A",
"S  c #D9DBA1005CC6",
"D  c #D891A1285EA9",
"F  c #D9B7A2075F31",
"G  c #DF2AA5D36102",
"H  c #E1C0A7E66278",
"J  c #E658AB9D6525",
"K  c #E734AC406583",
"L  c #E74EACC7668C",
"P  c #EF9BAFF1638E",
"I  c #E88DAD2765E0",
"U  c #E8A6AD526620",
"Y  c #E98FAE066696",
"T  c #E9E9AE3A669B",
"R  c #EA04AE8F6735",
"E  c #EADFAEE166E3",
"W  c #EB00AF016700",
"Q  c #EB43AF31671A",
"!  c #EBE8AFAC6764",
"~  c #EAA2AF3967EF",
"^  c #ECF2B06367B8",
"/  c #ED2AB0BD683B",
"(  c #EDA3B1126865",
")  c #EEC7B1DE68C6",
"_  c #EF5AB2506911",
"`  c #EF85B27F6947",
"'  c #F0FBB0F56423",
"]  c #F0FAB3CC6A61",
"[  c #F527B56268DC",
"{  c #F548B5906918",
"}  c #F6FBB70E6A59",
"|  c #F765B75D6A87",
" . c #F736B7A86B65",
".. c #F2DAB58D6BFC",
"X. c #F402B6AD6D13",
"o. c #F62BB79C6C8B",
"O. c #F4A7B7316D70",
"+. c #F4A6B7376D80",
"@. c #FAC1BAD86E29",
"#. c #FBC6BB956E8F",
"$. c #FC60BC206F06",
"%. c #FD49BCC56F5A",
"&. c #FFFFC03370A4",
"*. c #FFFFC15571FC",
"=. c #FFFFC22A73B3",
"-. c #FFFFC28A73ED",
";. c #81B981088031",
":. c #83AA829E815C",
">. c #94DD94969442",
",. c #9FEE9EC79D66",
"<. c #909E9807A0EA",
"1. c #90FC984CA113",
"2. c #9FD5A0B8A1C8",
"3. c #A033A02CA024",
"4. c #A232A21FA207",
"5. c #A1F7A2DDA3F1",
"6. c #A404A3BBA363",
"7. c #A241A328A43E",
"8. c #A480A458A427",
"9. c #A780A746A6FF",
"0. c #A08BA4F8AA5B",
"q. c #A8EEA8CBA8A0",
"w. c #A950A929A8FB",
"e. c #AB92AB1AAA89",
"r. c #AC53AB98AAB5",
"t. c #ADF5AD89AD06",
"y. c #B1D0B1E4B1FC",
"u. c #B2CEB251B1BC",
"i. c #B812B95DBAEB",
"p. c #B735BB1BBFC9",
"a. c #B753BB32BFD8",
"s. c #B984B8F7B84A",
"d. c #BAD6BC2BBDC4",
"f. c #BF2FBE8ABDC4",
"g. c #BF79BEC5BDEE",
"h. c #BAB6BED9C3D0",
"j. c #BDF4C076C379",
"k. c #BF25C36EC893",
"l. c #BFBEC3D9C8C8",
"z. c #D0B3D36DD6B3",
"x. c #D6D7D651D5AF",
"c. c #D704D67FD5DE",
"v. c #D7ABD6A9D573",
"b. c #DAFEDAEEDAD9",
"n. c #EA7EE96DE820",
"m. c #ECDFF0FCF5EA",
"M. c #F8E8F8E4F8DE",
"N. c #FDA5FDA3FDA0",
"B. c gray100",
/* pixels */
"! ! ! ! / +.] ~ / +.[ / ~ / +./ ! ^ ! ! ",
"! ! ! / H V S ~ L A A L ~ S V H ^ ! ! ! ",
"! ! ! } ; w @ ' c # # c P + e 3 } ! ! ! ",
"! ! ! [ 2 m.p < O d.i.O < i m.2 [ L ! ! ",
"! ! ! [ 2 z.x.p.j.x.x.h.d.x.z.2 [ L ^ ! ",
"! ! L @.; . g :.N x x :.:.g . = @.L ^ ^ ",
"! ! ! / ! = u y.1.0.9.8.y.u = ! ^ ! ! ! ",
"! ! ! L ! &.% s 1.<.>.,.s % &.~ ! ! ! ! ",
"! ! ! ! L @.9 k.N.N.N.B.k.9 @.L ! ! ! ! ",
"! ! ! ! ! @.4 j.N.M.M.B.h.4 @.L ! ! ! ! ",
"! ! ! ! L @.6 l.N.N.N.N.l.6 @.! ! ! ! ! ",
"! ! ^ ^ L *.8 0.n.b.b.n.2.6 *.L ^ ! ! ! ",
"! ! ^ L +.Z 0 k z l l z k q Z +.L ^ ^ ! ",
"! ! ! ^ D   j e.3.4.4.2.t.j   G ^ ! ^ ! ",
"^ ^ L *.v r g.8.w.q.w.w.8.g.r v -.! ^ ^ ",
"^ ^ ^ B & w s.e.t.t.t.t.e.i.e * B / L ^ ",
"^ L } : 1.y.2.8.8.8.4.8.2.2.u.1.1 } L ^ ",
"! ! } 3 y h d d d g d d d g h y 5 } L ! ",
"! ! ^ G n n n n n n n n m n n n G / ^ ^ ",
"! ! ! ^ X.X.X.X.+.+.+.X.X.X.+.+./ / ^ ^ "
};
