/* XPM */
static char *rll__[] = {
/* columns rows colors chars-per-pixel */
"39 39 230 2",
"   c #000500030002",
".  c #009D0065003C",
"X  c #0000000000EC",
"o  c #00F000ED00EA",
"O  c #02F60234014C",
"+  c #031C029401EF",
"@  c #03CD02D401AA",
"#  c #04AD03A7026E",
"$  c #000002BA06E5",
"%  c #052F04DD047E",
"&  c #05A60567051B",
"*  c #090006B203EF",
"=  c #07F507850701",
"-  c #08030793070F",
";  c #06C90A0F0DFE",
":  c #0B8A0B5A0B22",
">  c #0B9B0B6B0B32",
",  c #0E100E050DEE",
"<  c #16B40B9E0000",
"1  c #19110D4A0000",
"2  c #08900BCE0FB1",
"3  c #0A480D95118B",
"4  c #14A714A3149E",
"5  c #1753160D1485",
"6  c #15B3159C1581",
"7  c #1781163214A1",
"8  c #15DD15C615AA",
"9  c #1A391BB81D84",
"0  c #1A8C1BF61DA8",
"q  c #1AC81CF01F86",
"w  c #2B221D4A0CAD",
"e  c #2D3F1EB40D60",
"r  c #28861E8F129E",
"t  c #1A361DD1222D",
"y  c #1CBD2108262F",
"u  c #1D2C219326DA",
"i  c #1EF2236528BB",
"p  c #242123C8235C",
"a  c #2192234C255D",
"s  c #21E423892581",
"d  c #26C0268D264F",
"f  c #280827D6279B",
"g  c #205D23FC2854",
"h  c #20AF244E28A7",
"j  c #215425C22B13",
"k  c #23DC279C2C1B",
"l  c #2D073073348E",
"z  c #2F67330A3767",
"x  c #32783265324F",
"c  c #331F330D32F9",
"v  c #35B13591356F",
"b  c #35D535B83599",
"n  c #2FF534403966",
"m  c #322F367A3BA1",
"M  c #32BF36E23BD9",
"N  c #351339333E2A",
"B  c #353B39983ED6",
"V  c #35AE39EA3F06",
"C  c #3EF73E953E13",
"Z  c #3FA93F513EDA",
"A  c #4C7D36721BDD",
"S  c #53893AFB1D83",
"D  c #51693A071DF9",
"F  c #57F63E461F73",
"G  c #596E3F161F7A",
"H  c #53B63EB02572",
"J  c #55893FB2257E",
"K  c #59943F4F1FC8",
"L  c #5B0140F22175",
"P  c #5C6E422B22A7",
"I  c #5DD443382349",
"U  c #59CA42DE275B",
"Y  c #5E2145C52889",
"T  c #600044902396",
"R  c #63F448742775",
"E  c #623F48D62A58",
"W  c #644F48D227D4",
"Q  c #673F4CE52D46",
"!  c #6A7B4C2027B2",
"~  c #6AA14CE2292F",
"^  c #6F044F8129AF",
"/  c #6AE54F9B2EDB",
"(  c #6AEF4FA32EE0",
")  c #6F4450552B37",
"_  c #7604552C2DC3",
"`  c #724E54A83110",
"'  c #752D575A338F",
"]  c #77415858333C",
"[  c #7D985B9932CD",
"{  c #79F45AD23574",
"}  c #7A5C5A9C3483",
"|  c #49FC48CF4766",
" . c #4BEA4ABA494D",
".. c #54D456575828",
"X. c #550256785835",
"o. c #5BF75AEB59A5",
"O. c #5E1E5DEE5DB0",
"+. c #5E845E555E18",
"@. c #60045FD85F9E",
"#. c #661665EB65C8",
"$. c #6881685C6839",
"%. c #73E27265709B",
"&. c #74D073527188",
"*. c #787D77AD76B4",
"=. c #82D060823788",
"-. c #87E262EB368F",
";. c #880F630B36A1",
":. c #8415616E3806",
">. c #858863773AA9",
",. c #868264273AE7",
"<. c #8945662A3C08",
"1. c #953A6DE13EA9",
"2. c #95D76E563EED",
"3. c #96CA6F053F4D",
"4. c #94B16F44425A",
"5. c #9AAD71E440F3",
"6. c #9E00747E42A4",
"7. c #987172104403",
"8. c #B8BE89B1513B",
"9. c #BABC8B2D521A",
"0. c #C64D93B65701",
"q. c #C7C094C65799",
"w. c #C963962658A9",
"e. c #C9FD969A58EF",
"r. c #CEC39A155ADE",
"t. c #CF179A5E5B19",
"y. c #D0899B475B60",
"u. c #D1729C4B5C82",
"i. c #D23F9D095D2F",
"p. c #D2739D295D38",
"a. c #DA13A2605F89",
"s. c #DABFA2E35FDB",
"d. c #DC43A401607D",
"f. c #DC0FA4EA6290",
"g. c #E43FA9F9640A",
"h. c #E75CAC416553",
"j. c #E816ACD465B9",
"k. c #E8B6AD4D6603",
"l. c #E9ABAE02666C",
"z. c #EA28AE5F66A1",
"x. c #EA7CAE9E66C7",
"c. c #EB03AF026701",
"v. c #EB55AF3F6725",
"b. c #EBEBAFAF6767",
"n. c #EC70B01267A1",
"m. c #ECDDB06367D1",
"M. c #EDB0B1026831",
"N. c #EE49B16C6863",
"B. c #EE7DB1996888",
"V. c #EFE9B2A76925",
"C. c #F19FB3EE69E8",
"Z. c #F2D5B4DC6A7E",
"A. c #F3F7B5A66ADF",
"S. c #F463B6116B4A",
"D. c #F4C0B6456B4D",
"F. c #F5EBB7206BC6",
"G. c #F89EB9246CF9",
"H. c #F8BCB93B6D07",
"J. c #F9F7BA676E20",
"K. c #FAD1BAF96E5B",
"L. c #FBFEBBB96E9A",
"P. c #FB11BBB06FA2",
"I. c #FC28BC186F39",
"U. c #FCAFBC2B6EC0",
"Y. c #FCE6BC596EE4",
"T. c #FD58BCC36F45",
"R. c #FF18BE2B7037",
"E. c #FEB6BE4570F0",
"W. c #FF1FBE967124",
"Q. c #FFA9BF2671BD",
"!. c #FFFFC0E771FC",
"~. c #FFFFC2957395",
"^. c #FFFFC46573FA",
"/. c #FFFFCBEB7A2A",
"(. c #FFFFCC707A79",
"). c #FFFFCE417B90",
"_. c #FFFFCE877BBA",
"`. c #855785018499",
"'. c #8686862C85C0",
"]. c #8E408D4B8C26",
"[. c #912791899204",
"{. c #945294C39550",
"}. c #A0449ED29D17",
"|. c #A09EA093A086",
" X c #A14CA13CA129",
".X c #A5F5A582A4FA",
"XX c #A6A4A633A5AD",
"oX c #A746A6E4A676",
"OX c #A7EBA789A719",
"+X c #A92EA8C5A849",
"@X c #B70FB6C1B662",
"#X c #B74DB6FDB69C",
"$X c #BC49BC50BC59",
"%X c #C002C00EC01E",
"&X c #C059C004BF9E",
"*X c #C021C02FC041",
"=X c #C08AC094C0A0",
"-X c #C46AC428C3D9",
";X c #C7B4C753C6DF",
":X c #CB40CABDCA22",
">X c #CB0ECABDCA5D",
",X c #CE11CD2ACC15",
"<X c #CC4BCC70CC9C",
"1X c #CD44CD69CD94",
"2X c #CD78CD9CCDC7",
"3X c #D097CFFBCF41",
"4X c #D780D6A6D5A0",
"5X c #D633D666D6A4",
"6X c #E77EE74EE713",
"7X c #E866E838E801",
"8X c #E87FE851E81A",
"9X c #EA1DEA00E9DD",
"0X c #EEEEEEC6EE95",
"qX c #F0FBEFE2EE91",
"wX c #F172F055EEFE",
"eX c #F108F0DBF0A4",
"rX c #F4D3F3B7F262",
"tX c #F5BDF49BF33F",
"yX c #F581F4F9F456",
"uX c #F5E3F55CF4BA",
"iX c #F8F0F89CF834",
"pX c #F9F3F99DF936",
"aX c #FC0AFAD8F969",
"sX c #FB28FB24FB1E",
"dX c #FC2EFC2DFC2C",
"fX c #FC8EFC70FC4A",
"gX c #FD0CFCEFFCCC",
"hX c #FDDCFDDFFDE2",
"jX c #FEF8FEF5FEF1",
"kX c #FFFBFFFBFFFC",
/* pixels */
"b.b.b.b.b.b.b.b.b.b.b.b.b.b.b.b.b.b.b.b.b.b.b.b.b.b.b.b.b.b.b.b.b.b.b.b.b.b.b.",
"b.b.b.b.b.b.b.b.b.b.b.b.h.b.b.b.b.b.b.b.b.b.b.b.b.b.b.b.b.j.b.b.b.b.b.b.b.b.b.",
"b.b.b.b.b.b.b.b.C.Z.Z.Z.C.M.b.n.n.Z.C.C.C.Z.n.b.b.m.Z.Z.Z.Z.m.b.b.b.b.b.b.b.b.",
"b.b.b.b.b.b.b.M.s.t.p.p.t.a.m.m.j.y.y.u.y.t.b.n.b.a.t.p.p.t.s.m.b.b.b.b.b.b.b.",
"b.b.b.b.b.b.j.L.(     @   U F.b.q.*       * q.n.Z.U     @   ( U.j.b.b.b.b.b.b.",
"b.b.b.b.b.b.j.E.P j <X3XB D /.~.f.  {.5X[.  f.~./.A B 3X:Xj P E.j.b.b.b.b.b.b.",
"b.b.b.b.b.b.j.E.G M kXkX..1 [ _ R   -XkX&X  W _ [ < ..kXkXn G E.j.b.b.b.b.b.b.",
"b.b.b.b.b.b.b.E.K n kXkX*.9 i y j d :XkX;Xd j y i 9 *.kXkXn L E.j.b.b.b.b.b.b.",
"b.b.b.b.b.b.j.E.K M kXkXkXkXkXkXkXkXkXkXkXkXkXkXkXkXkXkXkXn L E.j.b.b.b.b.b.b.",
"b.b.b.b.b.b.j.E.I k <X$X&X=X%X*X%X%X=X=X=X*X*X*X%X*X%X$X:Xj I E.h.b.b.b.b.b.b.",
"b.b.b.b.b.b.j.Y.Q   @ :                               , @   ( L.h.b.b.b.b.b.b.",
"b.b.b.b.b.b.b.M.q.r   %.yX9X6X8X6X8X8X6X9X6X8X9X6X9XuX&.  r q.C.b.b.b.b.b.b.b.",
"b.b.b.b.b.b.b.b.F.b.H   #.uXfXfXkXpXkXpXfXkXpXpXkXpX$.  J j.F.b.b.b.b.b.b.b.b.",
"b.b.b.b.b.b.b.b.j.m.L.>.  , : & & & & & & & & & & ,   >.L.M.j.b.b.b.b.b.b.b.b.",
"b.b.b.b.b.b.b.b.b.b.h.~.<.$ {.+XXXXXXXXXXXXXXX+X{.- ,.^.h.b.b.b.b.b.b.b.b.b.b.",
"b.b.b.b.b.b.b.b.b.b.h.L.5.3 iXkXkXkXkXkXkXkXkXkXuX3 5.L.h.b.b.b.b.b.b.b.b.b.b.",
"m.c.m.c.c.m.c.m.b.b.j.L.3.; wXkXpXpXkXpXpXkXpXkX0X; 3.L.j.b.b.b.b.b.b.b.b.b.b.",
"c.m.c.m.m.c.m.c.b.b.j.L.3.; rXkXkXkXkXkXkXkXkXkXrX; 3.I.b.b.b.b.b.b.b.b.b.b.b.",
"m.c.m.c.c.m.c.m.b.b.b.L.3.; rXkXkXkXkXkXkXkXkXkXrX; 3.L.j.b.b.b.b.b.b.b.b.b.b.",
"c.m.c.m.c.c.m.c.b.b.j.L.3.; rXkXkXkXkXkXkXkXkXkXrX; 3.L.j.b.b.b.b.b.b.b.b.b.b.",
"m.c.m.c.c.m.c.m.b.b.j.L.3.; rXkXkXkXkXkXkXkXkXkXrX; 3.L.j.b.b.b.b.b.b.b.b.b.b.",
"c.m.c.m.m.c.m.c.b.b.h.E.3.; 0XkXpXpXkXpXdXpXpXkX0X; 1.L.j.b.b.b.b.b.b.b.b.b.b.",
"m.c.m.c.c.m.c.m.c.c.j.L.6.3 yXkXkXkXkXkXkXkXkXkXrX3 6.L.j.b.b.b.b.b.b.b.b.b.b.",
"c.m.c.m.m.c.m.c.m.b.j.E.'   o.O.O.O.O.O.O.O.O.O.o.  ' ~.h.b.b.b.b.b.b.b.b.b.b.",
"m.c.m.c.c.m.c.m.b.h.Y.=.  C b x x x x x x x x x b H   >.Y.j.m.m.b.b.b.b.b.b.b.",
"c.m.c.m.m.c.m.c.b.L.>.  XXkXkXkXkXkXkXkXkXkXkXkXdXdX+X  <.I.j.m.b.b.b.b.b.b.b.",
"m.c.m.c.m.c.c.j.L.4.   .#X X X X X X X X X X X X X X#X .  7.G.j.b.b.b.b.b.b.b.",
"c.m.c.m.c.m.m.j.Y.Y   7   & & & & & & & & & & & $ $ % 8   E I.j.b.b.b.b.b.b.b.",
"b.b.b.b.m.c.j.g.L.D z pX0X0XeXrXrX0XrX0XrX0XeXeXqXqX0XpXz K I.g.b.b.b.b.b.b.b.",
"b.b.b.b.m.b.Z.L._.L B kXkXkXkXkXkXkXkXkXkXkXkXkXkXkXkXkXB I _.L.Z.b.b.b.b.b.b.",
"b.b.b.b.b.Z.8.} ;.e t ].`.`.`.'.'.'.`.`.'.'.'.'.`.`.`.].9 e -.} 9.Z.b.b.b.b.b.",
"b.b.b.b.j.E.`   t a p 4 4 4 8 8 8 8 4 4 8 8 8 4 8 4 4 4 d a t   ] L.h.b.b.b.b.",
"b.b.b.b.j.E.~ z kXkXkXkXkXkXkXkXkXkXkXkXkXkXkXkXkXkXkXkXkXkXkXl ^ E.b.b.b.b.b.",
"b.b.b.b.j.E.~ y 5X:X2X2X2X2X2X2X2X2X2X2X2X2X2X2X2X2X2X2X2X2X5Xy ^ E.h.b.b.b.b.",
"b.b.b.b.j.Y.'   @                                           @   } L.h.b.b.b.b.",
"b.b.b.b.b.M.a.0.w.w.w.w.w.w.w.w.w.w.w.w.w.w.w.w.w.w.w.w.w.w.w.0.d.M.b.b.b.b.b.",
"b.b.b.b.b.b.M.F.Z.Z.Z.Z.Z.Z.Z.F.Z.S.S.Z.Z.Z.Z.Z.Z.F.Z.Z.Z.F.Z.Z.M.b.b.b.b.b.b.",
"b.b.b.b.b.b.b.j.b.b.b.j.b.b.b.b.j.b.b.b.b.b.b.b.b.b.b.j.b.b.b.j.b.b.b.b.b.b.b.",
"b.b.b.b.b.b.b.b.b.b.b.b.b.b.b.b.b.b.b.b.b.b.b.b.b.b.b.b.b.b.b.b.b.b.b.b.b.b.b."
};
