/* XPM */
static char *rll__[] = {
/* columns rows colors chars-per-pixel */
"43 43 91 1",
"  c #0049003A004A",
". c #08C2066F03A7",
"X c #017C044708BA",
"o c #13B20B9101CE",
"O c #1D1411770386",
"+ c #0E2112511757",
"@ c #0EE512E317AD",
"# c #17A917161667",
"$ c #14CA17531A60",
"% c #1B311AF01AA1",
"& c #223B15370598",
"* c #25BC17AE06CF",
"= c #22E7171308E2",
"- c #25F41AF10DBB",
"; c #266B1CD9115C",
": c #2A4B1ED51116",
"> c #349E23580E9D",
", c #2E9D22B6146E",
"< c #363726B8141E",
"1 c #3AF7289E129B",
"2 c #1BBA1EA82256",
"3 c #1E1A21E2266B",
"4 c #276726F5266E",
"5 c #29E1289F271D",
"6 c #25B929052CF9",
"7 c #2AB729D328C3",
"8 c #2E7D30CA338D",
"9 c #35FD35543487",
"0 c #338D37253B76",
"q c #3603395F3D67",
"w c #40FE2D191538",
"e c #446331CA1B77",
"r c #49FE35F71E00",
"t c #52FD3B4F1EE6",
"y c #4D0B397521F5",
"u c #53293DF82493",
"i c #589D3F892172",
"p c #5703410626A2",
"a c #5A3442AB266D",
"s c #64CE4B562CC5",
"d c #6EBE52D23150",
"f c #7369564B3359",
"g c #7F345EE83826",
"h c #3BC43F13430E",
"j c #3CB34011441D",
"k c #430F461B49C6",
"l c #4E7A4E324DDC",
"z c #51FA536F552F",
"x c #53BD56235904",
"c c #594B592858FD",
"v c #61DD60E05FB2",
"b c #63516428652A",
"n c #6B3B6B1C6AF7",
"m c #78A077877636",
"M c #7A1279B2793E",
"N c #821661BE3AF0",
"B c #90BD6BB03F39",
"V c #9D42754A4553",
"C c #B158842A4DF2",
"Z c #C5E3937756F5",
"A c #D4479E545D95",
"S c #D76FA17460AD",
"D c #DAAEA3C161D8",
"F c #E655ABED65D7",
"G c #EBA7AF7C6749",
"H c #E498AC28686E",
"J c #EC32B0256815",
"K c #ECBCB04B67C3",
"L c #EE97B1B0689B",
"P c #F35DB5576AE8",
"I c #F845B9356D88",
"U c #FAADBB346F09",
"Y c #FBFFBC71702D",
"T c #FFFFC40C753B",
"R c #FFFFC92E7791",
"E c #93A893C093DD",
"W c #9D429CC09C24",
"Q c #A07DA048A008",
"! c #A119A0BCA04B",
"~ c #B285B21DB1A1",
"^ c #B9F9B9EAB9D8",
"/ c #C065BFE8BF52",
"( c #C37BC34FC31C",
") c #CCE0CC7DCC05",
"_ c #D580D568D54A",
"` c #DC18DBA0DB11",
"' c #E0C6E010DF34",
"] c #E6A6E5ACE482",
"[ c #E876E713E568",
"{ c #E8C5E89AE865",
"} c #FF6DFF6EFF6E",
/* pixels */
"GGJGJGJGGGGGGGJJGGGGGGGGGGGGGGJGGGGGGKKGGGG",
"GGGJGJJGGGGGGJJJGGJGGGGGGGGGGJJGGGKGGGGGGKG",
"JGJGGGGJGGGGGGFJGGGFGGFGGGGGGGGFGFGGGGGGKGK",
"GJGJJJGJGPUUUUIJGGLUYYUUPGGGIUUUUPGJKGGKGGG",
"GGGGGGGGPNewwwaDLPCewweeCPGSuwwwegPGJGJGGGG",
"GGGGGGGFUeX0q2.SGUB 8q8 BUJA 4qqXeIFGJGJGKK",
"GGGGGGGGU1q}}Q HITVX]}' VTUH !}}qwUFGJJGGGG",
"GGGGGGGGU1q}}W =**o `}` o&&= W}}01UFJGGJGKG",
"JGGGGGGFU19}}^zxzzxc{}{czzzxz^}}01UFGGJGGGG",
"GGJGGGGGU1q}}}}}}}}}}}}}}}}}}}}}q1YGGGGGGLG",
"GJGGGGGGYw6)((^((/((((((((^(((()7wUGGJGJGGG",
"GGGGGGGGIr                       rPFGGJGGGG",
"GGKGGGKGPV. v`)((()((()()((()`b .VPGGGGGGLG",
"GKGGGKGGGUZ; m}}}}}}}}}}}}}}}m ;ZUGGGGGGGGG",
"GGGGGGGGKFPGu 9clllllllllllc9 uFPGGGGLLGGGG",
"GKGKGKGKGKGKUN #74444444447# NUKGKGGGGGGGGG",
"GGJGGGJGGGGFLF E}}}}}}}}}}}E FLGLGGGGGGGGGG",
"GGGGJJGJGGGGPS E}}}}}}}}}}}E ALGGGGGGGKGKGG",
"GJGGGJJGGGGGLD E}}}}}}}}}}}E DPGGKGGGGGGGGL",
"GGJGJGGJGJGGPD E}}}}}}}}}}}E DLGGGGGKGKGGGG",
"GGJGJGJGGGJGPD E}}}}}}}}}}}E DLGGGLGGGLGGGG",
"GGGGGGGJGJGGLD E}}}}}}}}}}}E DPGGGGGGGGGGGG",
"GGGGGGGGGGGGPD E}{}}}}}}}}}E DLGGGGLGGGGGGG",
"GGJGGGGGGGGGPD E}}}}}}}}}}}E DLGGGGGGGGGLGG",
"GJGGGGGGGGGGLD E}}}}}}}}}}}E DPGGGGGGGGGGGG",
"GGKGGKGKGGJFLF M`)_))_)_)(]M DPFGGGGGGGGGGG",
"GGGGKGGGJJGJLy               yPKGGGGGGGLGGG",
"KGKGGGGKJGLPr E/^^^^^^^^^^^^E rPLGGGGGGGGGG",
"GGGGGGGGGGGr.(}}}}}}}}}}}}}}}(XrGGGGGGGGGGG",
"GKGKGKGKGUd 7nzczccccccccccccn4 fUGGKGKGGGJ",
"KGGGGGGGFUuX7%%%%%%%%%%%%%%%%#7 aUGGGGGKGGG",
"GGGGGGGGFUr3}}}}}}}}}}}}}}}}}}}4tIFGKGGGKGG",
"KGKGJJGPIRt3}}}}}}}}}}}}}}}}}}}3aRIPGGGGGGJ",
"GGGGGGJCVC<#~~~~~~~~~~~~~~~~~~~$1CVCGGGGJGG",
"GGKGGGK:                           <PGGJGJG",
"GKGGGGP&z[___`____`___`__`__`____]z&PGGGJGJ",
"KGGGGGPOb}}}}}}}}}}}}}}}}}}}}}}}}}b&PGGGGJG",
"GGGKGGL-@jhhjjjjjjjjjjjqjjjhjjjhhj+:LGGJJGJ",
"KGKGGGLs<<>>>>>>>>>>>>>>>>>>>>>><><sLGGGGJJ",
"GGGGKGGPUUYYUYYYUYYYUUUUYYYUYYYUUUUPGGGJJGG",
"GJGJGGGGFGGGFGFGGFGGFGFGGFGGFGFGGFGGGGGJGJG",
"JGJGGGGGGGGGGGGGGGGGGGGGGGGGGJGGGGGGGGGGJGG",
"GJGJGGGGGGGGGGGGGGGGGGGGGGGGGGGJGGGGJGGGGGJ"
};
