/* XPM */
static char *rll__[] = {
/* columns rows colors chars-per-pixel */
"40 40 246 2",
"   c black",
".  c #000000000124",
"X  c #01AB00320006",
"o  c #034800000000",
"O  c #01FB00820018",
"+  c #0000000001D5",
"@  c #0005013502B0",
"#  c #025F02540246",
"$  c #02FF02EF02DC",
"%  c #03D800000000",
"&  c #0658018000E1",
"*  c #054101D10103",
"=  c #039602A20180",
"-  c #073C02ED0000",
";  c #062101EA0113",
":  c #03C902C80197",
">  c #05C9040E0256",
",  c #0000000004A2",
"<  c #0003029C0650",
"1  c #0000023306B1",
"2  c #000002D80712",
"3  c #0415040803F7",
"4  c #057504E9043E",
"5  c #05670559054A",
"6  c #05A605810554",
"7  c #05BC05970569",
"8  c #0647061505D6",
"9  c #0869036601F2",
"0  c #0A6A054B0000",
"q  c #011E047A0883",
"w  c #01E2050C08D9",
"e  c #02A605620945",
"r  c #02AF06680ADF",
"t  c #032506E00B58",
"y  c #03CD064209BC",
"u  c #03B807060AFD",
"i  c #03F007790BB5",
"p  c #04EF08540C68",
"a  c #17F4124F0B89",
"s  c #0A610CE30FE5",
"d  c #0B380D831043",
"f  c #13A813A913AB",
"g  c #1756166B1555",
"h  c #18BF17D016B1",
"j  c #1A3B18C51702",
"k  c #248016C40649",
"l  c #2514175D06E8",
"z  c #29F21C3B0BC6",
"x  c #2AF71CFD0C38",
"c  c #234C1A760F90",
"v  c #25F11C6E10B8",
"b  c #3C5D2D501B3A",
"n  c #21EA26032AED",
"m  c #24C228FA2E0B",
"M  c #293628C3283A",
"N  c #35A2352B3493",
"B  c #372736AE3613",
"V  c #3D1C3CDB3C8F",
"C  c #3E0A3D973D0C",
"Z  c #3E283DDF3D86",
"A  c #3E873E483DFC",
"S  c #3EF43E7F3DF3",
"D  c #3EF63EEA3EDB",
"F  c #480B33331A30",
"G  c #4B1433EF182A",
"H  c #4825357A1F12",
"J  c #5ACB43CE27ED",
"K  c #69C64E912E0D",
"L  c #743F55F531B3",
"P  c #760557483275",
"I  c #760F57B63346",
"U  c #79215A0934B3",
"Y  c #793D5AA735F2",
"T  c #3DE1410C44DB",
"R  c #400F4014401A",
"E  c #42F141823FCA",
"W  c #43734205404D",
"Q  c #437242DC422A",
"!  c #451A446C439C",
"~  c #4793465B44E4",
"^  c #4624461245FC",
"/  c #479947544702",
"(  c #4629484D4ADE",
")  c #46F149714C73",
"_  c #49E6499C4944",
"`  c #4A5249FA4990",
"'  c #4BDD4B874B1E",
"]  c #4F3F4EED4E8C",
"[  c #4B444D765017",
"{  c #54D4547B5412",
"}  c #54E15488541E",
"|  c #570C5668559B",
" . c #5773572D56D9",
".. c #57DE579A5747",
"X. c #5B985B055A4D",
"o. c #6576673C695C",
"O. c #662267BC69A7",
"+. c #7DB77D2F7C92",
"@. c #7F7A7F077E7F",
"#. c #933C6CAF3E6C",
"$. c #94F36DC33EBD",
"%. c #95076DD63ECE",
"&. c #951A6DE83EE0",
"*. c #954C6DFE3ED4",
"=. c #96AD6F1F3FA8",
"-. c #97D16FC23FB1",
";. c #965B6F3B4047",
":. c #96946FCB4140",
">. c #97BE70184086",
",. c #982F713C427E",
"<. c #992671A94245",
"1. c #98E571DF430B",
"2. c #9ABA72E34313",
"3. c #9C377309419F",
"4. c #9C66739F42B1",
"5. c #9ADA735443E7",
"6. c #9B42748D461C",
"7. c #9DEE7538445E",
"8. c #A1B877964507",
"9. c #A22877E94538",
"0. c #A0A377AB4672",
"q. c #A197786846D0",
"w. c #A4757A7A4819",
"e. c #A6817BF548E6",
"r. c #A80E7D624A2C",
"t. c #AC1880614BEC",
"y. c #AD4180F94BD7",
"u. c #AD7A812E4C06",
"i. c #B814892850DA",
"p. c #BAF98B50521F",
"a. c #C56192FC5685",
"s. c #D831A10D5EE4",
"d. c #D980A1EF5F50",
"f. c #D9EBA26C5FD5",
"g. c #DC0CA3D4606E",
"h. c #DAF5A3EE61E6",
"j. c #DC15A4AE6233",
"k. c #DEF8A61B61DE",
"l. c #DD59A5B862F7",
"z. c #DD71A5CB6303",
"x. c #E006A6F26273",
"c. c #E356A93D6385",
"v. c #E1A7A8A5643C",
"b. c #E2F2A9D86552",
"n. c #E369AA5265D1",
"m. c #E525AAA3646F",
"M. c #E597AAF46498",
"N. c #E784AC636570",
"B. c #E70AAD01675E",
"V. c #E7F2AD906781",
"C. c #E877AD1D65E3",
"Z. c #E883AD2665E9",
"A. c #E8DBAD66660C",
"S. c #E9A5ADFE6669",
"D. c #EA13AE50669A",
"F. c #EAC0AED066E4",
"G. c #EAF2AEF566FA",
"H. c #EB4EAF3A6722",
"J. c #EBEBAFAF6767",
"K. c #EAF2AFC068B7",
"L. c #ECAFB04367C2",
"P. c #ED18B09067EC",
"I. c #ED7FB0DB6818",
"U. c #EE0BB147685A",
"Y. c #EF2EB21E68D7",
"T. c #EF51B23768E4",
"R. c #EFDBB29F6924",
"E. c #EE00B2066A0D",
"W. c #F07DB318696C",
"Q. c #F0C2B34D698F",
"!. c #F222B44B6A17",
"~. c #F35AB5396AA9",
"^. c #F3E8B5986AE0",
"/. c #F3F8B5BD6B11",
"(. c #F543B69F6B74",
"). c #F58BB6D86B99",
"_. c #F553B6DE6BED",
"`. c #F5B3B7246C13",
"'. c #F81CB8D56CE6",
"]. c #F840B9096D2C",
"[. c #F87FB90D6CEA",
"{. c #F8E7B97C6D62",
"}. c #F9CEBA046D7B",
"|. c #FB09BB076E3A",
" X c #FB61BB4A6E61",
".X c #FBCABBB16EC5",
"XX c #FB77BB966EEF",
"oX c #FC39BC1E6F32",
"OX c #FDB3BD1E6F9A",
"+X c #FE17BD6D6FD3",
"@X c #FE48BD956FF1",
"#X c #FFC8BE8E7048",
"$X c #FFFFC72B768D",
"%X c #FFFFC75976B2",
"&X c #FFFFCAD5792C",
"*X c #81E68126804A",
"=X c #83E68326824B",
"-X c #957495C49624",
";X c #99BC99B099A3",
":X c #9B679B189AB7",
">X c #9B729B229AC2",
",X c #9BB39BA69B98",
"<X c #9C989C4B9BEE",
"1X c #A06CA0309FE7",
"2X c #A015A07AA0F1",
"3X c #A0BBA07EA036",
"4X c #A1BCA1C4A1CE",
"5X c #A377A3E9A472",
"6X c #A48FA472A450",
"7X c #A4BDA52DA5B4",
"8X c #A56DA5DEA666",
"9X c #A78BA80FA8AD",
"0X c #A910A948A983",
"qX c #A97CA995A9B0",
"wX c #A912A9ECAAF1",
"eX c #A9BCAA0CAA6D",
"rX c #ABF3AB58AA9D",
"tX c #AA77AAD1AB3E",
"yX c #ABE8ACC2ADC6",
"uX c #AD9CAE9DAFD3",
"iX c #B18DB0B5AFBA",
"pX c #B1FEB15DB09E",
"aX c #E446E382E298",
"sX c #E9D7E8FFE7FD",
"dX c #EC51EC24EBED",
"fX c #ECE4EC8DEC24",
"gX c #EF00EE0AECE3",
"hX c #EFE0EEBDED60",
"jX c #EFE9EF22EE34",
"kX c #F048EF72EE72",
"lX c #F18AF0B6EFB8",
"zX c #F290F271F24A",
"xX c #F444F36EF26E",
"cX c #F338F326F310",
"vX c #F473F392F283",
"bX c #F543F547F54A",
"nX c #F61AF60AF5F5",
"mX c #F920F920F920",
"MX c #FB2BFB2DFB30",
"NX c #FB72FB7AFB83",
"BX c #FB72FB7CFB87",
"VX c #FC59FC55FC51",
"CX c #FCF1FCF8FD01",
"ZX c #FD91FD97FD9E",
"AX c #FEEEFEEFFEF0",
"SX c #FFFDFFFDFFFD",
/* pixels */
"J.J.J.J.J.J.J.J.J.J.J.J.J.J.J.J.J.J.J.J.J.J.J.J.J.J.J.J.J.J.J.J.J.J.J.J.J.J.J.J.",
"J.J.J.J.J.J.J.J.J.K.J.J.J.J.J.J.J.J.J.J.J.J.J.J.J.J.J.J.J.J.J.J.J.J.J.J.J.J.J.J.",
"J.J.J.J.J.J.J.J.J.W.Y.Y.J.J.J.J.J.J.J.W.L.W.Y.J.J.J.J.L.Y.Y.J.J.J.J.J.J.J.J.J.J.",
"J.J.J.J.J.J.J.L.C.z.n.M.v.v.J.J.J.v.v.n.n.v.c.L.J.J.v.v.n.c.k.N.K.J.J.J.J.J.J.J.",
"J.J.J.J.J.J.J.'.0.* 0   * v f.J.).J   9 *   J !.J.f.c 9 * 9 * 0.|.N.J.J.J.J.J.J.",
"J.J.J.J.J.J.N.|.;.< -XuXo.0 Y..X$XF m 0X0Xn F $X|.J.9 O.uX-X< ;.|.J.J.J.J.J.J.J.",
"J.J.J.J.J.J.J.|.*.p gXSX0X  ,.q.r.l ] SXSX) l y.0.,.  0XSXgXu *.|.N.J.J.J.J.J.J.",
"J.J.J.J.J.K.N.|.*.e sXSXrX  e < u   X.SXSX}   u < u   0XSXsXu *.|.J.J.J.J.J.J.J.",
"J.J.J.J.J.J.M.|.*.u lXSXVXdXgXfXgXdXzXSXSXzXfXgXgXgXdXmXSXlXe &.|.N.J.J.J.J.J.J.",
"J.J.J.J.J.J.N.|.;.u aXnXnXVXVXVXVXVXVXnXzXVXVXVXVXVXSXnXnXaXe ;.|.J.J.J.J.J.J.J.",
"J.J.J.J.J.J.J.|.,.  j f   3 3 3   3 3 3 3 3 3 3 * 3     f j   1.|.N.J.J.J.J.J.J.",
"J.J.J.J.J.J.J.!.a.a   W pX2X:X<X<X<X<X<X<X<X<X,X<X:X4XpXW   a a.!.J.J.J.J.J.J.J.",
"J.J.J.J.J.J.J.J.).f.b   *XSXSXSXSXSXSXSXSXSXSXSXSXSXSX=X  b h.).N.J.J.J.J.J.J.J.",
"J.J.J.J.J.J.J.L.J.!.!.K   N } / ' ' / ' ' ' ' / / } N   K /.!.N.J.J.J.J.J.J.J.J.",
"J.J.J.J.J.J.J.J.J.N.J.#X6.  M W V V V V V V V V W M   6.OXJ.J.J.J.J.J.J.J.J.J.J.",
"J.J.J.J.J.J.J.J.J.J.J.J.N.* 9XSXSXSXSXSXSXSXSXSXSX9X  N.Y.J.J.J.J.J.J.J.J.J.J.J.",
"J.J.J.J.J.J.J.J.J.J.J.W.h.  5XSXVXVXVXVXVXVXVXmXSX4X  h.Y.J.J.J.J.J.J.J.J.J.J.J.",
"J.J.J.J.J.J.J.J.J.J.J.W.k.  8XSXVXSXSXSXSXSXSXVXSX8X  l.W.K.J.J.J.J.J.J.J.J.J.J.",
"J.J.J.J.J.J.J.J.J.J.J.Y.k.  8XSXVXSXSXSXSXSXSXVXSX8X  k.Y.J.J.J.J.J.J.J.J.J.J.J.",
"J.J.J.J.J.J.J.J.J.J.K.Y.z.  8XSXVXSXSXSXSXSXSXVXSX8X  k.Y.J.J.J.J.J.J.J.J.J.J.J.",
"J.J.J.J.J.J.J.J.J.J.J.Y.k.  8XSXVXSXSXSXSXSXSXVXSX8X  z.Y.J.J.J.J.J.J.J.J.J.J.J.",
"J.J.J.J.J.J.J.J.J.J.J.Y.k.  7XSXVXSXSXSXSXSXSXVXSX8X  z.W.J.J.J.J.J.J.J.J.J.J.J.",
"J.J.J.J.J.J.J.J.J.J.J.Y.h.  8XSXVXSXSXSXSXSXSXVXSX8X  j.Y.J.J.J.J.J.J.J.J.J.J.J.",
"J.J.J.J.J.J.J.J.J.J.J.Y.J.  4XSXgXnXnXnXzXnXnXzXSX4X  M.Y.J.J.J.J.J.J.J.J.J.J.J.",
"J.J.J.J.J.J.J.J.J.J.M.#XU   3 3 3 3 3 3 u 3 3 3 3 3   Y OXJ.J.J.J.J.J.J.J.J.J.J.",
"J.J.J.J.J.J.J.J.J.J.#XL   @.5X-X<X<X<X:X<X<X<X:X:X8X@.  P OXJ.J.J.J.J.J.J.J.J.J.",
"J.J.J.J.J.J.J.J.K./.U   pXSXSXSXSXSXSXSXSXSXSXSXSXVXSXiX  Y !.J.J.J.J.J.J.J.J.J.",
"J.J.J.J.J.J.K.M.|.r.  f } / / / / / ! / / / / / / / / } f   y.`.J.J.J.J.J.J.J.J.",
"J.J.J.J.J.J.J.J.|.;.  / V V V V V V V V V V V V V V V V /   ,..XN.J.J.J.J.J.J.J.",
"J.J.J.J.J.J.J.c.'.;.e gXSXSXSXSXSXSXSXSXSXSXSXSXSXSXSXSXhXe -.|.M.J.J.J.J.J.J.J.",
"J.J.J.J.J.J.Y.'.&Xq.t gXSXSXSXSXSXSXSXSXSXSXSXSXSXSXSXSXhXp e.&X'.W.J.J.J.J.J.J.",
"J.J.J.J.J.).i.H G x   W ' ' / ' / ' ' ' ' / ' / ' ' ' ' !   x F H p.!.J.J.J.J.J.",
"J.J.J.J.M.|.,.  T ) ] T V V J T V W V V T S V W V V T S W ] ( T   7..XJ.J.J.J.J.",
"J.J.J.J.J.|.,.s vXSXSXSXSXSXCXBXSXSXSXSXSXSXSXSXSXSXSXSXSXSXSXzXd ,.|.N.J.J.J.J.",
"J.J.J.J.M.|.;.< 4XyX0X0XwXwXwXwXwXwXwX0X0X0X0XwXwX0X0X0X0X0XuX4X< 4.|.J.J.J.J.J.",
"J.J.J.J.J.|.0.  *             <                                   q.|.N.J.J.J.J.",
"J.J.J.J.J.J.M.s.j.j.h.h.j.z.j.j.j.j.j.k.j.j.h.h.k.j.j.j.j.j.j.j.f.M.J.J.J.J.J.J.",
"J.J.J.J.J.J.J.Y.W.W.Y.Y.Y.W.W.W.W.Y.W.W.W.W.W.Y.!.Y.Y.Y.W.Y.Y.Y.W.L.J.J.J.J.J.J.",
"J.J.J.J.J.J.J.J.J.J.J.J.J.J.K.J.J.N.J.J.J.J.J.J.K.J.J.J.J.J.J.J.J.J.J.J.J.J.J.J.",
"J.J.J.J.J.J.J.J.J.J.J.J.J.J.J.J.J.J.J.J.J.J.J.J.K.J.J.J.J.J.J.J.J.J.J.J.J.J.J.J."
};
