/* XPM */
static char *rll__[] = {
/* columns rows colors chars-per-pixel */
"45 45 78 1",
"  c #00F800F9016D",
". c #08EC06C70442",
"X c #036705020888",
"o c #050509140DF0",
"O c #08BD09D80B2C",
"+ c #12C80A3C0045",
"@ c #119B110D1064",
"# c #1B4A1AEC1A23",
"$ c #2C161E2B0D79",
"% c #26051CB11180",
"& c #2E3221901282",
"* c #3395260315B8",
"= c #39F528B51402",
"- c #3AF92BFC19DB",
"; c #2284223721DC",
": c #2E292DDE2D86",
"> c #309A30CA3105",
", c #346836E739E8",
"< c #373337D7389C",
"1 c #3A753A3F39FD",
"2 c #51C83D932552",
"3 c #67C54D912E1F",
"4 c #6BA94EC92C23",
"5 c #6E04509F2D5B",
"6 c #712E530A2EDD",
"7 c #73DD55EC31FA",
"8 c #765857E33358",
"9 c #79FA5A32340C",
"0 c #3E1A3F4240A4",
"q c #4B7E4B324AB9",
"w c #581E572355F6",
"e c #5B015A0458D7",
"r c #637062006047",
"t c #6D516CF06C7C",
"y c #70F570456F71",
"u c #7274722971CE",
"i c #856462F839AB",
"p c #8F4F6AA73EAA",
"a c #95BB6F9141C5",
"s c #970C708F425D",
"d c #9A5F730343C7",
"f c #AAE67F5A4B1C",
"g c #ADDE81F84D4A",
"h c #B34585834E99",
"j c #C4C292895647",
"k c #C650948858CB",
"l c #CA5A978A5A91",
"z c #CDA0991D5A1B",
"x c #D37C9F3C6088",
"c c #D7C3A26C6269",
"v c #E786AC6F6587",
"b c #EBC8AF956758",
"n c #EE4CB1746870",
"m c #F377B54D6AB4",
"M c #F7F9B8BF6CE1",
"N c #FBE6BBAA6E95",
"B c #FE65BDC47034",
"V c #FFFFC356743B",
"C c #FFFFC8A777A1",
"Z c #FFFFCBA778A3",
"A c #857B84118262",
"S c #95C2946992CC",
"D c #9BD19B6E9AF8",
"F c #B3A4B20BB020",
"G c #B7B3B762B702",
"H c #BF3BBF00BEB8",
"J c #C0B6C028BF7F",
"K c #C541C465C35E",
"L c #D642D54CD422",
"P c #DB1BD9A9D7EC",
"I c #DDC4DC05D9ED",
"U c #E71DE6C2E659",
"Y c #E9C2E7BDE550",
"T c #EA43E91FE7C2",
"R c #EC6AEC08EB96",
"E c #F55FF4BAF3F2",
"W c #F8B3F732F563",
"Q c #FF6BFF6AFF69",
/* pixels */
"bbbbbbbbbbbbbbbbbbbbbbbbbbbbbbbbbbbbbbbbbbbbb",
"bbbbnbbbbbbbbbbbbbbbbbbbbbbbbbbbbbbbbbbbbbbbb",
"bbbbbbbbbbvvvbbbbbbbbbvvvbbbbbvvbbvbbbbbbbbbb",
"bbbbbbbbbmNNNNNMbbbmNNNNNMbbbMNNNNNnbbbbbbbbb",
"bbbbbbbbmz99999dbbmh89897hmvmd89898zmbbbbbbbb",
"bbbbbnbbMf XXX -bvM6 XXX 6Mvn- XXX fMbbbbbbbb",
"bbbbbbbvMg FWW<=CMC9XIWPX9ZMC=<WWF gMvbbbbbbb",
"bbbbbbbvMg JQQ0+i9i=oRQRX=i9i+1QQH gMbbbbbbbb",
"bbbbbbbvMg HQQq X XX#RQR#XX X qQQH gMbbbbbbbb",
"bnbbbbbbMg HQWRUUUUURWQWUUTRUURWQH gMvbbbbbbb",
"bbbbbbbbMg HQQQQQQQQQQQQQQQQQQQQQJ gMvbbbbbbn",
"bbbbbbbvMf <q<<<1<111111<<<1<<<<q< fMbbbbbbbb",
"bbbbbbbbMh  O1::>:::::::::::>::1O  hMbbbbbbbb",
"bbbbbbbbbma. SQQQQQQQQQQQQQQQQQS .ambbbnnbbbb",
"bbbbbbnbbbNj% wRWWWWWWWWWEWWWRe %jNbbbbbbbbbb",
"nbbbbbbbbbvMb2 @X  X  X  X  O@ 2vMvbbbbbbbbbb",
"bbnbbbbbbbbbmN3 ruuuuuuuuuuur 3Bbbbbbbbbbbbbb",
"bbbbbbbnbbbbvMs IQQQQQQQQQQQI dNvbbbbbbbbbbbb",
"bbbbbbbbbbbbvMp LQWQQWQWQWWQL pMvbbbbbbbbbbbb",
"bbbbbbbbbbbbbNp PQQQQQQQQQQQP pNbbbbbbbbbbbbb",
"bbbbbbbbbbbbvMp PQQQQQQQQQQQP pNvbbbbbbbbbbbb",
"bbbbbbbbbbbbbNp PQQQQQQQQQQQP pNvbbbbbbbbbbbb",
"bbbnbbbbbbbbvNp PQQQQQQQQQQQP pNbbbbbbbbbbbbb",
"bbbbbbbbbbbbbMp PQQQQQQQQQQQP pNbbbbbbbbbbbbb",
"bbbbbbbbbbbbvNp LQQQQQQQQQQQL pNvbbbbbbbbbbbb",
"bbbnbbbbbbbbbMp PQQQQQQQQQQQP pMvbbbbbbbbbbbb",
"bbbbnbbbbbbbvBs LQWWWWWWWWWQL dNvbbbbbbbbbbbb",
"bbbbbbbbbbnvmv*    X X XX  X  *vmvbbbbbbbbbbb",
"bbbbbbbbbbvnv&OtuuuuuuuyyuyuuuO&vmvbbbbbbbbbb",
"bbbbbbbbbbmv&OKQQQQQQQQQQQQQQQKO&vmvbbbbbbbbb",
"bbbbbbbbbbv* ALHHHHHHHHHHJHHHHLA -vbbbnbbbbbb",
"bbnbbbbbvmj                       jMbbbbbbbbb",
"bbnbbbbbbmk tKGGGGGGGGGGGGGGGGGKt lmbbbbbbbbb",
"bbbbbbbbvmj DQWQQQQQQQQQQQQQQQWQD lmvbbbbbbbb",
"bbbbbbbmmVx DQQQQQQQQQQQQQQQQQQQD cBMnbbbbbbb",
"bbbbbvMs*=$ ;1<<1<<<<<<1<1<<<<<1; $=*sMbbbbbb",
"bbbbbbN7 >,1<:>>:>>>>>>>>>:>:>>:<1<> 8Nbbbbbb",
"bbbbbbB6oWQQQQQQQQQQQQQQQQQQQQQQQQQEo8Nvbbbbb",
"bbbbbvN6oUWEEEEEEEEEEEEEEEEEEEEEEEWYo8Nvbbbbb",
"bnbbbvN7 OooXoooooXooXooooooooXooooo 9Nbbbbbb",
"bbbbbbmg35344544444444344444454455453gMbbbbbb",
"bbbbbbbmBBBBBBBNBNBBBBBBBBBNBBNNNNNNNmbnbbbbb",
"bbbbbbbbvvvvbvbvvvbvbvvvbvvvbvbvbvvvbbbbbbbbb",
"bbbbbbbbnbbbbbbbbbbbbbbbbbbbbbbbbbbbbbbbbbbbn",
"bbbbbbbbbbbbbbbbbbbbbbbbbbbbbbbbbbbbbbbbbbbbb"
};
